<svg xmlns="http://www.w3.org/2000/svg" xmlns:xlink="http://www.w3.org/1999/xlink" width="128" zoomAndPan="magnify" viewBox="0 0 96 95.999999" height="128" preserveAspectRatio="xMidYMid meet" version="1.0"><path fill="#c39d35" d="M 81.910156 81.910156 C 79.824219 82.921875 77.765625 84.6875 75.925781 87.566406 C 71.441406 94.566406 66.328125 94.132812 64.335938 93.617188 C 61.46875 92.878906 59.207031 90.636719 58.667969 88.121094 L 16.550781 88.109375 C 16.550781 88.109375 16.019531 87.71875 16.757812 86.980469 C 17.332031 86.40625 18.21875 86.441406 18.21875 86.441406 L 60.207031 86.414062 L 60.257812 87.210938 C 60.394531 89.292969 62.328125 91.339844 64.761719 91.964844 C 68.207031 92.855469 71.753906 90.914062 74.488281 86.644531 C 76.253906 83.886719 78.304688 81.882812 80.625 80.625 C 81.878906 78.304688 83.886719 76.253906 86.644531 74.488281 C 90.914062 71.753906 92.855469 68.210938 91.964844 64.761719 C 91.339844 62.332031 89.292969 60.394531 87.210938 60.257812 L 86.414062 60.207031 L 86.441406 18.222656 C 86.441406 18.222656 86.40625 17.332031 86.980469 16.757812 C 87.71875 16.019531 88.109375 16.550781 88.109375 16.550781 L 88.117188 58.667969 C 90.636719 59.207031 92.878906 61.472656 93.617188 64.335938 C 94.128906 66.328125 94.566406 71.441406 87.566406 75.925781 C 84.6875 77.765625 82.921875 79.824219 81.910156 81.910156 " fill-opacity="1" fill-rule="nonzero"/><path fill="#c39d35" d="M 85.777344 85.777344 C 85.789062 85.804688 85.800781 85.835938 85.808594 85.863281 C 85.800781 85.835938 85.792969 85.808594 85.785156 85.785156 C 85.808594 85.792969 85.835938 85.800781 85.863281 85.8125 C 85.835938 85.800781 85.804688 85.789062 85.777344 85.777344 " fill-opacity="1" fill-rule="nonzero"/><path fill="#c39d35" d="M 55.742188 82.660156 C 55.128906 83.101562 54.503906 83.472656 53.734375 83.160156 C 53.449219 83.042969 53.179688 82.792969 52.863281 82.808594 C 52.886719 83.695312 54.566406 84.046875 55.226562 84.066406 C 56.304688 84.105469 57.371094 83.828125 58.445312 83.957031 C 59.570312 84.09375 60.648438 84.59375 61.472656 85.375 C 62.753906 86.589844 63.503906 88.230469 65.15625 89.039062 C 66.546875 89.722656 68.203125 89.707031 69.636719 89.160156 C 71.339844 88.503906 72.6875 87.308594 73.757812 85.847656 C 74.769531 84.460938 75.539062 82.878906 76.652344 81.566406 C 77.140625 80.984375 77.78125 80.589844 78.375 80.132812 C 78.199219 80.269531 77.101562 79.972656 76.859375 79.933594 C 76.335938 79.851562 75.832031 79.730469 75.324219 79.585938 C 74.265625 79.277344 73.152344 78.9375 72.347656 78.140625 C 71.953125 77.75 71.65625 77.261719 71.269531 76.859375 C 70.824219 76.402344 70.152344 75.925781 69.53125 76.390625 C 69.472656 76.4375 69.414062 76.496094 69.398438 76.570312 C 69.355469 76.824219 70.203125 77.148438 70.382812 77.339844 C 70.882812 77.863281 70.949219 78.546875 71.078125 79.222656 C 71.1875 79.777344 71.316406 80.347656 71.621094 80.835938 C 71.96875 81.390625 72.550781 81.777344 73.183594 81.9375 C 73.921875 82.128906 74.523438 81.980469 75.195312 81.660156 C 74.390625 82.261719 73.578125 82.84375 72.753906 83.410156 C 72.289062 83.726562 71.851562 83.933594 71.296875 84.042969 C 70.890625 84.121094 70.464844 84.117188 70.066406 83.992188 C 69.660156 83.863281 69.292969 83.582031 69.066406 83.222656 C 68.878906 82.929688 68.644531 82.300781 68.96875 82.019531 C 69.015625 82.066406 69.054688 82.128906 69.109375 82.167969 C 69.734375 82.644531 71.117188 81.851562 70.410156 81.128906 C 70.257812 80.972656 70.042969 80.894531 69.824219 80.871094 C 68.964844 80.773438 68.285156 81.472656 68.085938 82.261719 C 67.851562 83.1875 68.367188 84.085938 69.175781 84.546875 C 69.960938 84.996094 70.90625 84.886719 71.738281 84.640625 C 72.113281 84.53125 72.472656 84.375 72.808594 84.183594 C 72.957031 84.097656 73.769531 83.601562 73.738281 83.429688 C 73.78125 83.664062 73.34375 84.203125 73.226562 84.382812 C 72.820312 85.011719 72.316406 85.582031 71.773438 86.097656 C 71.460938 86.390625 71.121094 86.664062 70.761719 86.910156 C 70.488281 87.097656 70.203125 87.261719 69.902344 87.40625 C 69.328125 87.6875 68.6875 87.890625 68.054688 87.792969 C 67.261719 87.667969 66.78125 87.066406 66.601562 86.320312 C 66.296875 85.0625 66.789062 83.628906 66.074219 82.464844 C 65.8125 82.03125 65.328125 81.832031 64.832031 81.832031 C 64.421875 81.832031 64.023438 81.957031 63.652344 82.128906 C 63.171875 82.351562 62.589844 82.710938 62.042969 82.492188 C 61.484375 82.269531 61.050781 81.828125 60.441406 81.644531 C 58.746094 81.128906 57.152344 81.65625 55.742188 82.660156 " fill-opacity="1" fill-rule="nonzero"/><path fill="#c39d35" d="M 82.664062 55.742188 C 83.101562 55.128906 83.472656 54.507812 83.160156 53.734375 C 83.042969 53.453125 82.792969 53.179688 82.808594 52.863281 C 83.695312 52.886719 84.042969 54.566406 84.066406 55.226562 C 84.105469 56.304688 83.828125 57.371094 83.957031 58.445312 C 84.09375 59.570312 84.59375 60.648438 85.375 61.472656 C 86.589844 62.753906 88.230469 63.503906 89.039062 65.15625 C 89.71875 66.546875 89.707031 68.203125 89.160156 69.636719 C 88.503906 71.339844 87.308594 72.6875 85.847656 73.753906 C 84.460938 74.769531 82.882812 75.539062 81.5625 76.652344 C 80.984375 77.140625 80.589844 77.78125 80.132812 78.378906 C 80.269531 78.199219 79.972656 77.101562 79.933594 76.859375 C 79.847656 76.335938 79.730469 75.832031 79.582031 75.324219 C 79.277344 74.269531 78.9375 73.152344 78.140625 72.347656 C 77.746094 71.953125 77.261719 71.660156 76.859375 71.269531 C 76.402344 70.824219 75.925781 70.152344 76.390625 69.535156 C 76.4375 69.472656 76.496094 69.414062 76.570312 69.402344 C 76.824219 69.355469 77.148438 70.199219 77.339844 70.386719 C 77.859375 70.882812 78.546875 70.949219 79.222656 71.078125 C 79.78125 71.1875 80.347656 71.316406 80.835938 71.621094 C 81.390625 71.96875 81.773438 72.550781 81.9375 73.183594 C 82.128906 73.921875 81.980469 74.523438 81.660156 75.195312 C 82.257812 74.390625 82.84375 73.578125 83.410156 72.753906 C 83.726562 72.289062 83.933594 71.851562 84.042969 71.296875 C 84.121094 70.890625 84.117188 70.464844 83.992188 70.066406 C 83.863281 69.660156 83.582031 69.292969 83.222656 69.066406 C 82.929688 68.878906 82.300781 68.644531 82.019531 68.96875 C 82.066406 69.019531 82.125 69.054688 82.167969 69.113281 C 82.644531 69.734375 81.851562 71.117188 81.128906 70.410156 C 80.972656 70.257812 80.894531 70.042969 80.871094 69.824219 C 80.769531 68.964844 81.472656 68.285156 82.257812 68.085938 C 83.1875 67.851562 84.082031 68.367188 84.546875 69.175781 C 84.996094 69.960938 84.886719 70.90625 84.640625 71.738281 C 84.53125 72.113281 84.375 72.472656 84.179688 72.808594 C 84.097656 72.957031 83.601562 73.769531 83.425781 73.738281 C 83.664062 73.78125 84.203125 73.34375 84.382812 73.226562 C 85.011719 72.824219 85.582031 72.316406 86.097656 71.777344 C 86.390625 71.460938 86.667969 71.121094 86.910156 70.765625 C 87.09375 70.488281 87.261719 70.199219 87.410156 69.90625 C 87.6875 69.328125 87.890625 68.6875 87.792969 68.054688 C 87.667969 67.261719 87.066406 66.78125 86.320312 66.601562 C 85.058594 66.296875 83.628906 66.789062 82.464844 66.074219 C 82.03125 65.8125 81.828125 65.328125 81.828125 64.832031 C 81.828125 64.421875 81.957031 64.023438 82.128906 63.652344 C 82.351562 63.171875 82.714844 62.589844 82.492188 62.042969 C 82.269531 61.488281 81.828125 61.050781 81.644531 60.445312 C 81.128906 58.746094 81.65625 57.152344 82.664062 55.742188 " fill-opacity="1" fill-rule="nonzero"/><path fill="#c39d35" d="M 0.199219 89.753906 C 0.324219 89.628906 0.496094 89.554688 0.6875 89.554688 L 56.789062 90.027344 C 57.167969 90.03125 57.46875 90.335938 57.464844 90.714844 C 57.464844 91.09375 57.15625 91.394531 56.777344 91.390625 L 0.675781 90.917969 C 0.300781 90.914062 -0.00390625 90.605469 0 90.230469 C 0 90.042969 0.078125 89.875 0.199219 89.753906 " fill-opacity="1" fill-rule="nonzero"/><path fill="#c39d35" d="M 89.753906 0.199219 C 89.628906 0.324219 89.550781 0.496094 89.554688 0.6875 L 90.027344 56.792969 C 90.03125 57.167969 90.339844 57.46875 90.714844 57.464844 C 91.09375 57.464844 91.394531 57.15625 91.390625 56.777344 L 90.917969 0.675781 C 90.914062 0.300781 90.605469 -0.00390625 90.230469 0 C 90.042969 0 89.875 0.078125 89.753906 0.199219 " fill-opacity="1" fill-rule="nonzero"/><path fill="#c39d35" d="M 78.886719 78.886719 C 78.867188 78.90625 78.847656 78.929688 78.828125 78.949219 C 77.90625 79.882812 76.097656 78.171875 75.507812 77.417969 C 74.910156 76.648438 74.4375 75.792969 73.800781 75.054688 C 73.710938 74.953125 73.617188 74.847656 73.492188 74.800781 C 73.402344 74.765625 73.308594 74.765625 73.214844 74.761719 C 72.644531 74.757812 72.164062 74.730469 71.601562 74.578125 C 70.714844 74.34375 69.789062 74.527344 69.070312 74.988281 C 67.992188 75.675781 67.578125 76.875 67.1875 78.0625 C 67.078125 78.394531 66.558594 79.6875 66.042969 78.949219 C 65.820312 78.632812 66.554688 78.09375 66.214844 77.53125 C 66.050781 77.253906 65.800781 77.027344 65.644531 76.746094 C 65.488281 76.464844 65.398438 76.140625 65.488281 75.824219 C 65.566406 75.535156 65.761719 75.300781 65.953125 75.082031 C 66.476562 74.484375 66.675781 73.273438 67.375 72.855469 C 67.765625 72.621094 68.640625 72.371094 69.09375 72.375 C 69.574219 72.378906 69.976562 72.570312 70.464844 72.472656 C 70.613281 72.441406 70.675781 72.390625 70.773438 72.28125 C 70.929688 72.113281 70.761719 71.839844 70.585938 71.746094 C 70.320312 71.597656 69.824219 71.660156 69.523438 71.597656 C 68.898438 71.46875 68.292969 71.257812 67.796875 70.84375 C 67.503906 70.597656 67.257812 70.296875 67.082031 69.953125 C 66.746094 69.304688 66.671875 68.582031 66.53125 67.886719 C 66.484375 67.652344 66.425781 67.414062 66.28125 67.214844 C 65.828125 66.59375 65.019531 66.539062 64.726562 65.730469 C 64.574219 65.316406 64.640625 65.0625 64.816406 64.933594 C 64.832031 64.910156 64.851562 64.890625 64.871094 64.871094 C 64.890625 64.851562 64.910156 64.832031 64.933594 64.8125 C 65.0625 64.640625 65.316406 64.574219 65.730469 64.726562 C 66.539062 65.019531 66.59375 65.824219 67.214844 66.28125 C 67.414062 66.425781 67.652344 66.484375 67.886719 66.53125 C 68.582031 66.671875 69.304688 66.746094 69.953125 67.082031 C 70.296875 67.257812 70.597656 67.503906 70.84375 67.796875 C 71.257812 68.292969 71.46875 68.898438 71.597656 69.523438 C 71.660156 69.824219 71.597656 70.320312 71.746094 70.585938 C 71.839844 70.761719 72.113281 70.929688 72.28125 70.773438 C 72.390625 70.675781 72.441406 70.613281 72.472656 70.464844 C 72.570312 69.976562 72.378906 69.574219 72.375 69.09375 C 72.367188 68.636719 72.621094 67.765625 72.855469 67.371094 C 73.273438 66.675781 74.484375 66.476562 75.082031 65.953125 C 75.300781 65.761719 75.535156 65.566406 75.824219 65.488281 C 76.140625 65.398438 76.464844 65.488281 76.746094 65.644531 C 77.027344 65.800781 77.253906 66.050781 77.53125 66.214844 C 78.09375 66.554688 78.632812 65.820312 78.949219 66.042969 C 79.6875 66.558594 78.394531 67.078125 78.0625 67.1875 C 76.875 67.578125 75.675781 67.992188 74.988281 69.070312 C 74.53125 69.789062 74.34375 70.714844 74.582031 71.601562 C 74.730469 72.164062 74.753906 72.644531 74.765625 73.214844 C 74.765625 73.308594 74.765625 73.402344 74.800781 73.492188 C 74.847656 73.617188 74.953125 73.710938 75.054688 73.800781 C 75.792969 74.4375 76.648438 74.910156 77.414062 75.507812 C 78.171875 76.097656 79.882812 77.90625 78.949219 78.828125 C 78.929688 78.847656 78.90625 78.867188 78.886719 78.886719 " fill-opacity="1" fill-rule="nonzero"/><path fill="#c39d35" d="M 76.863281 91.777344 C 76.457031 93.191406 74.234375 95.445312 72.769531 95.796875 C 72.050781 95.96875 71.148438 96.003906 70.648438 95.367188 C 70.140625 94.726562 70.324219 93.382812 71.089844 93.007812 C 71.355469 92.878906 71.648438 92.90625 71.910156 93.027344 C 72.121094 93.125 72.316406 93.265625 72.429688 93.464844 C 72.585938 93.734375 72.515625 94.066406 72.351562 94.316406 C 72.144531 94.621094 71.941406 94.621094 71.59375 94.648438 C 71.949219 94.960938 72.484375 94.996094 72.929688 94.84375 C 73.59375 94.617188 74.070312 94.078125 74.546875 93.597656 C 75.03125 93.109375 75.5 92.609375 75.949219 92.09375 C 76.101562 91.925781 76.289062 91.679688 76.511719 91.605469 C 76.746094 91.53125 76.910156 91.617188 76.863281 91.777344 " fill-opacity="1" fill-rule="nonzero"/><path fill="#c39d35" d="M 91.777344 76.863281 C 93.191406 76.457031 95.445312 74.234375 95.796875 72.769531 C 95.96875 72.050781 96.003906 71.152344 95.363281 70.648438 C 94.726562 70.144531 93.378906 70.324219 93.003906 71.089844 C 92.875 71.355469 92.90625 71.648438 93.027344 71.910156 C 93.121094 72.121094 93.265625 72.316406 93.464844 72.429688 C 93.734375 72.585938 94.066406 72.515625 94.3125 72.351562 C 94.621094 72.144531 94.617188 71.941406 94.648438 71.597656 C 94.960938 71.949219 94.996094 72.484375 94.84375 72.929688 C 94.617188 73.59375 94.078125 74.070312 93.597656 74.550781 C 93.109375 75.03125 92.609375 75.5 92.09375 75.949219 C 91.921875 76.101562 91.675781 76.289062 91.605469 76.511719 C 91.53125 76.75 91.621094 76.910156 91.777344 76.863281 " fill-opacity="1" fill-rule="nonzero"/><path fill="#c39d35" d="M 69.4375 72.988281 C 68.230469 73.40625 65.710938 72.757812 64.894531 71.726562 C 64.492188 71.222656 64.125 70.492188 64.40625 69.730469 C 64.6875 68.96875 65.757812 68.402344 66.328125 68.839844 C 66.523438 68.992188 66.613281 69.253906 66.625 69.535156 C 66.632812 69.757812 66.601562 69.996094 66.496094 70.199219 C 66.355469 70.472656 66.082031 70.59375 65.835938 70.589844 C 65.53125 70.582031 65.453125 70.410156 65.296875 70.140625 C 65.203125 70.601562 65.382812 71.0625 65.664062 71.355469 C 66.082031 71.785156 66.664062 71.894531 67.207031 72.03125 C 67.75 72.175781 68.300781 72.296875 68.855469 72.394531 C 69.039062 72.429688 69.292969 72.453125 69.429688 72.605469 C 69.574219 72.757812 69.574219 72.941406 69.4375 72.988281 " fill-opacity="1" fill-rule="nonzero"/><path fill="#c39d35" d="M 72.988281 69.4375 C 73.402344 68.234375 72.757812 65.710938 71.726562 64.894531 C 71.222656 64.492188 70.492188 64.125 69.730469 64.40625 C 68.96875 64.691406 68.402344 65.757812 68.839844 66.328125 C 68.992188 66.523438 69.253906 66.613281 69.53125 66.625 C 69.757812 66.632812 69.996094 66.601562 70.199219 66.496094 C 70.472656 66.355469 70.59375 66.082031 70.589844 65.835938 C 70.582031 65.53125 70.410156 65.453125 70.136719 65.296875 C 70.601562 65.203125 71.0625 65.382812 71.355469 65.664062 C 71.785156 66.082031 71.894531 66.664062 72.03125 67.207031 C 72.175781 67.75 72.292969 68.300781 72.394531 68.855469 C 72.429688 69.039062 72.453125 69.289062 72.605469 69.429688 C 72.757812 69.574219 72.941406 69.574219 72.988281 69.4375 " fill-opacity="1" fill-rule="nonzero"/><path fill="#c39d35" d="M 91.277344 91.277344 C 91.128906 91.128906 90.972656 90.980469 90.972656 90.972656 C 90.980469 90.972656 91.128906 91.128906 91.277344 91.277344 Z M 83.117188 83.117188 C 82.390625 83.539062 81.574219 83.519531 80.816406 84.011719 C 79.28125 85 78.335938 86.582031 77.203125 87.972656 C 76.953125 88.28125 75.171875 90.875 74.984375 90.84375 C 75.980469 91.023438 77.066406 90.539062 77.601562 89.679688 C 77.605469 90.703125 77.90625 91.722656 78.457031 92.585938 C 78.726562 93.007812 79.160156 93.433594 79.652344 93.328125 C 80.03125 93.242188 80.265625 92.867188 80.433594 92.515625 C 80.820312 91.71875 81.089844 90.863281 81.238281 89.988281 C 81.882812 90.078125 82.578125 90.125 83.160156 89.824219 C 83.402344 89.695312 84.464844 88.515625 83.714844 88.351562 C 83.53125 88.308594 83.347656 88.410156 83.171875 88.472656 C 81.5625 89.050781 79.824219 86.496094 81.230469 85.328125 C 81.792969 84.863281 82.457031 84.449219 83.1875 84.449219 C 83.328125 84.453125 84.007812 85.007812 84.898438 85.792969 C 84.808594 85.816406 84.742188 85.933594 84.753906 86.097656 C 84.769531 86.300781 84.953125 86.480469 85.074219 86.621094 C 85.441406 87.046875 85.796875 87.484375 86.132812 87.933594 C 86.46875 88.382812 86.855469 88.832031 86.910156 89.429688 C 86.949219 89.832031 86.800781 90.304688 86.4375 90.605469 C 86.484375 90.296875 86.535156 90.113281 86.296875 89.917969 C 86.109375 89.761719 85.820312 89.683594 85.539062 89.808594 C 85.332031 89.902344 85.15625 90.066406 85.023438 90.25 C 84.855469 90.476562 84.761719 90.734375 84.820312 90.976562 C 84.992188 91.675781 86.179688 91.898438 86.878906 91.480469 C 87.574219 91.0625 87.742188 90.261719 87.746094 89.621094 C 87.75 89.058594 87.460938 88.359375 87.042969 87.710938 C 88.59375 89.117188 89.519531 90.871094 89.808594 91.054688 C 90.121094 91.507812 91.488281 91.628906 91.558594 91.558594 C 91.625 91.492188 91.507812 90.121094 91.054688 89.808594 C 90.871094 89.519531 89.117188 88.59375 87.710938 87.042969 C 88.359375 87.457031 89.058594 87.75 89.617188 87.746094 C 90.261719 87.742188 91.0625 87.574219 91.480469 86.878906 C 91.898438 86.179688 91.671875 84.992188 90.976562 84.824219 C 90.734375 84.761719 90.472656 84.855469 90.246094 85.023438 C 90.066406 85.160156 89.902344 85.332031 89.808594 85.539062 C 89.683594 85.820312 89.757812 86.109375 89.917969 86.296875 C 90.113281 86.535156 90.296875 86.484375 90.605469 86.4375 C 90.304688 86.800781 89.832031 86.949219 89.429688 86.910156 C 88.828125 86.855469 88.382812 86.46875 87.933594 86.132812 C 87.484375 85.796875 87.046875 85.441406 86.621094 85.074219 C 86.480469 84.953125 86.300781 84.769531 86.097656 84.753906 C 85.933594 84.742188 85.816406 84.808594 85.789062 84.902344 C 85.007812 84.007812 84.449219 83.328125 84.449219 83.1875 C 84.449219 82.457031 84.863281 81.792969 85.328125 81.230469 C 86.496094 79.828125 89.050781 81.5625 88.472656 83.171875 C 88.410156 83.347656 88.308594 83.53125 88.351562 83.714844 C 88.515625 84.464844 89.695312 83.402344 89.824219 83.160156 C 90.125 82.578125 90.078125 81.886719 89.988281 81.238281 C 90.863281 81.089844 91.714844 80.820312 92.515625 80.433594 C 92.867188 80.265625 93.242188 80.03125 93.324219 79.652344 C 93.433594 79.164062 93.007812 78.726562 92.585938 78.457031 C 91.722656 77.90625 90.699219 77.605469 89.679688 77.601562 C 90.539062 77.066406 91.023438 75.984375 90.84375 74.984375 C 90.878906 75.167969 88.28125 76.953125 87.972656 77.203125 C 86.585938 78.335938 85 79.285156 84.007812 80.816406 C 83.519531 81.574219 83.539062 82.390625 83.117188 83.117188 " fill-opacity="1" fill-rule="nonzero"/></svg>