<svg xmlns="http://www.w3.org/2000/svg" width="128" height="128" version="1.0" viewBox="0 0 96 96"><defs><clipPath id="a"><path d="M5 0h91v96H5Zm0 0"/></clipPath></defs><g clip-path="url(#a)"><path fill="#c39d35" d="M95 12h1-1v-1c0-1 0 0 0 0v-1h1-2V9a19 19 0 0 1 1 0h-1V7h-1l1-1-1 1V6h1-1V5h1l-1 1V4v1c-1 0-1 0 0 0V3v1h-1V3v1-2 1-2l1-1-1 1V0v1-1 1l-1-1v3-1a10 10 0 0 0 0-2v2l-1-2a56 56 0 0 1 0 1V0v1-1h-2v1-1 1h1s0-1 0 0v1-1a20 20 0 0 0 1 1V1s0 1 0 0v1l1 1-1-1 1 1v1-1 1h1l1 2-1-1v1-1 1l-1-1V4h-1v1-2 1h-1V3v1-1h-1 1-1V2h-1V1v1-1h-1s1 0 0 0h-1V0h-1c0 1 0 1 0 0v1-1h-1v1-1h-1l1 1h1v1-1h1l-1 1h1v1h1v1h1l-1 1h1v1h1v1h1v1h1v1h1v1h-1V9h-1V8v1-1h-1V6v1h-1c0-1 0-1 0 0V6h-1V4h-1V3h-1V2v1-2 1h-1V1h-1v1-1h-1c0 1 0 0 0 0h-1l1-1s0 1 0 0h-1v1h-1 1-1c1 0 1 0 0 0v1-1h-1 1v1l-1-1v1h-1V0v1l-1 1V1l-1-1h-1 1-1 1v1h-1 1v1h-1 1s1 0 0 0v1h1-2 1v2h-1 1v2h-1v1h-1V7h1-1 1-1 1-1V6h1-1V5h1-2 1-1V4l-1 1 1-1h-1 1-1a50 50 0 0 1 0-1v1-1h1-1V2h1-1 1-1V1h1-1v1-2 1-1h-1v1h1-1 1-1l1 1h-1 1-1 1v1h-1a19 19 0 0 1 1 0v1h-1 1-1 1-1a14 14 0 0 1 1 0v1h-1 1-1a7 7 0 0 0-1 1V5l-1 1V5h1-1 1-1l1-1h-1s1 0 0 0h1-1V3h1-1 1-1l1-1-1 1V2h1-1V1v1h-1l1-1h-1V0v1h-1l1-1-1 1V0v1-1h-1s1 0 0 0h-3v1-1h-1l1 1h-1V0v1h-3l-1 1h-1v3l-1-1h1V2s0 1 0 0h-1 1l-1-1h1-1 1-1V0h1-1v3a18 18 0 0 0 0 1 10 10 0 0 0 1 1h-1V4l-1-2V0v1h-3a14 14 0 0 0-3 0h2l3-1h1-5l-6 1h-2V0h-3 2-1l-5 1-1-1h-4l-1 1h-3V0h1-3l2 1h4V0h1l2 1h1-6l-3 1-2-1-1-1v1-1 1h1v1h-1V1h-1 1-2l-1-1 1 1h-1 2v1h-1 3-4l1-1h-2 1-1l-1-1v1a6 6 0 0 0 4 2l3-1h2-1l-2 1h-8l-3 1-2 3v2h1a13 13 0 0 0 7-4l1-1 2-1h1l-1 1a22 22 0 0 0-5 3l-1 1-1 1-3 1-3 2c-1 1-2 3-1 5a12 12 0 0 0 0 3h1l4-4 2-3 1 2 1 2h1l2-4-1-3V9h-1V8l1-2 2-1 6-3v1l-1 1h-1l-3 2a7 7 0 0 0-1 6v1l2-1 2-3V5l1-2 3-1 2-1a48 48 0 0 1 6 0h3l-3 1h-4c-2 1-4 2-5 5l-1 1-1 3v1h2a10 10 0 0 0 4-1l2-2 2-3V4l1-1 1-1 1-1h5-2l-2 1-2 3-1 2v2a3 3 0 0 1 0 1v1-1h2l2-2 1-3 1-2V2l1-1h6-1l-2 1a7 7 0 0 1-2 1h1v1l-3 3v3h-1l-2 2a5 5 0 0 1-2 0h1l3 2 2 1a47 47 0 0 0 1 1h1l1-1h1l2-2 1-2 1-1 1-1-2 6-1 1-1 1h-4c-2 0-3 1-3 2l-1 1v1l-1 2v1h1l4-1 2-1a5 5 0 0 0 2-4l1-1v-1 2l-1 1v2l-2 4v3l1 2 1 2a3 3 0 0 1 0 1l2-4 1-3v-2l-1-2v-1l-1-2v-2l1-3 1 1-1 1v2l1 3 2 1 2 2 1 1a6 6 0 0 1 1 1v-6l-1-2c0-1-1-2-3-2l-1-1h-1v-3l1-2 1-1a23 23 0 0 0 0 2l1 2 2 2a12 12 0 0 0 2 0v2l1 2h2l1 1h-1c0-1 0-1 0 0h-1 1c0 1 0 1 0 0h2l-2 2v1h-1v1h1v-1l1-1 1-2h1a63 63 0 0 0-2 7h-1v1h1v-3h1v-1 1a8 8 0 0 1 0 1v1h1l-1-1v-3l1-2v4l1 1v1l-1 1v1l1-1v-3l-1-3v-3h2v1h-1v1h1v1a7 7 0 0 0 3 3l2 1s0-1 0 0l-1 2v5a17 17 0 0 1 0 3h1l1-1h1v1h2-3l-1 1h3-2v1h1l3-1 3-1-2 2h-1l-2 1h-1 2-1v1l2-2h2l-1 1-1 1-2 1 2-1-1 2a17 17 0 0 1-1 1l2-2 1-2 1-1 2-3 3-2-1 2-1 3-1 1v1a10 10 0 0 0-1 1 7 7 0 0 1-2 1h2v1l4 1 2-1 3-1 1-1h2l-1 1-3 1v1h-6l-1 1v2h-1l-2 2-1 1v6l1 2 1-1a91 91 0 0 1 1-1l1 1-1 4v1l1 1 1 1h1v1h-1a13 13 0 0 0-4 0l-3 2-1 2-1 2h6l2-1-1 2v1h3l1-1v1h2l1-1v3-1h2l2-2v-1h1v1a31 31 0 0 0 0 3l-1 1a4 4 0 0 1-1-1h-6l-2 1-1 2h-1 2l1 1a11 11 0 0 0 4 1h2l2-3 1-2v4l-1 1-1 2-1 1-4 5a22 22 0 0 0-1 8l2-2 2-1 3-5 1-5v-6l1-1v7a24 24 0 0 0 2 3l2 2v-5l-1-2-3-4v-4 1h2l3 3-3-3h1-1v-1h1l1 1v-1h-1v-1l1-1h1v1-1l-1-1 1 1h-1v1l-1-1h1v1h-2 1v1h-2 1v1h-1v-1 1l-1-1-1-2v-1a10 10 0 0 0 1 1v-1h-1 1v-1 1-1a4 4 0 0 0 0 1v-2l1 1v-1c-1 0-1 0 0 0v1-1h1c-1 0-1 0 0 0h-1 1v-1 1h1-1v-1h1v-1 1-1c0-1 0 0 0 0v-2 1l2 1-1-2 1 1-1-1h1-1 1-3l1 1v1a2 2 0 0 1-1 1h-1v1l-1 1h-1c0 1 0 1 0 0v1h-1v-1 1h-2v-2l1-1v-1 1s0-1 0 0c1 0 0 0 0 0h1v1-1 1-1h1v-1 1-1l1 1v-2h1v-1 1-1h1v-1s0 1 0 0l1 1-1-1h1v-1l1 1-1-1h1s0 1 0 0h1-1v-1l1 1v-1h-1 1v-1l-1 1 1-2v-1 1l-1 1v2-1h-1l1-1h-1 1-1v-1h1-1 1-1 1-1l1-1h-1 1c0-1 0 0 0 0v-6 1-2h-1v1c1 0 1 0 0 0v-3l1 1v1h1-1 1v1-2h-1v-2h1v2-2a35 35 0 0 0-1 1v-1l1-1-1 1v1-1l1-1h-1v1h-1l1-1-1 1v-1 1-2h-1v-1h1v-1h2-1v1l1-1h-1v-1l1-1v-2 1l-1 1v1c0-1 0 0 0 0a10 10 0 0 1-2 1v-1l-1 2-1 1h-2 1v-1 1l1-2v-2h1-1l1-1 1-1 1-1 1-1 1-1h-1a21 21 0 0 0-3 4l-1 2a29 29 0 0 1-1 2v-1 1l-1 1h-1l-1-1v1h2v1h-1v1-1h2-1 1v1s0-1 0 0h1l-1 1h1c0-1 0-1 0 0h1v2h1v2h-1v-2 1l-1-1 1 1v1s0-1 0 0v1-1h-1v-1 1-1h-1v-1 1-1h-1v-1 1-1h-1v1s0-1 0 0l-1-1v1-1 1h-1v-1l1-1v-1 1l1-1v1h1v1-1 1h2v1-1h-1v-1 1l-1-1a11 11 0 0 1-1-1v-1h-1v-1 1l1 1h-1v-1 1l-1-1v-3h3v-1l1 1-1-1h-1a20 20 0 0 1-1 1v-1l2-1a101 101 0 0 0 5-4l2-2v-1h-4l-1-1a6 6 0 0 0-1-1v-3l1 1h1l2 1a6 6 0 0 0 2 1v-1h-2v-1h-2l-1-1v-1h-1l3 1h1a11 11 0 0 0 2 1h-1v1l1-1-1-1v-1h-1l1 1h-1l-1-1v1a13 13 0 0 0-4-1v-1a2 2 0 0 1 1 0h2-1v-1h2s0 1 0 0l1 1-1-1h2v1c0-1 0 0 0 0h1v1-2h-1 1-3l-3 1h-1l-1-4v1-1l-1-1h1v1a12 12 0 0 0 1 2v-2h1v1l1 1h1a10 10 0 0 1-2-1v-1 1-1h1a4 4 0 0 0 1 1h-1v-1l1 1v-1h-1 1-1 2a10 10 0 0 0 1 1v1a6 6 0 0 0 1 0 15 15 0 0 1-3-3h1-1 1-1v-1h1v1h1l-1-1-1-1h1v1a28 28 0 0 0 0-1v-1 1h1l-1-1v-1h1v1c1 0 0 0 0 0v-1h1l-1-1 1 1h1v-1l-1-2-1-1v-1 1h1v1-1l1 1a104 104 0 0 0-1-1h1-1 1l-1-1h1-1 1-1 1l-1-1h1-1 1-1v-1ZM9 8l1-1c0-1 0 0 0 0V6l1-1h1-1c-1 0 0 0 0 0V4h1a5 5 0 0 1 2 0h-1 1V3h4l-2 1h-1 1-3v1h1-2v1h-1 1-1v1h-1L9 8Zm9-4-1 1-2 1h-1 1-1l-1 1-1 1V7a3 3 0 0 1-1 1h-1 1-2l2-2h1v1-1l1-1h1-1v1h1V5l1-1v1l1-1h1l-1 1 1-1h1ZM6 20v-1l1-1v-1l-1 1v1-3l2-2H7l-1 2v-2h1-1l1-1 1-1h1-1l-1 1v-1h1v-1h1l2-1 2-1-1 1h-1 1l-1 1h-1 1l-1 1h1-1a7 7 0 0 0-2 1l2-1v1l-1 1H8v1a9 9 0 0 1 1-1l-1 1v1H7h1l-1 1v1l-1 2Zm7-9v1-1 3h-1v1-1 1l-1-1v-1 3-1 1l-1 1v-1l-1-1v3a146 146 0 0 1-1 1l-1 1v-1l1-2v-1 1-2h1v-1 2-1l1-2v2-3l1-1v1h1v-2h1l-1 1 1-1V9h1v1l-1 1Zm3 5-1 1v-2 1-2 1h-1v-2h1v-1l-1 1v1-1h-1l1-1 1-1-1 1h-1l2-3h1-1v1-1h1l-1 2 1 1v4Zm1-6v2-1 4l-1 1v-6h1-1V9l1 1Zm0-4-1 2a4 4 0 0 0-2 2V9l1-2a10 10 0 0 1 2-1Zm2 7v-1l1-1v1h-1v-2l1-1v1h-1l1-1V7h1c-1 0 0 0 0 0V6h1-1l2-2v1l-1 1v1l-1 1h1l-1 1h-1 1v1l-1 2-1 1Zm4-8a259 259 0 0 1 0 3v2h-1V9v2l-1 1v-1a30 30 0 0 0 0 1l-1 1v-1a7 7 0 0 0 1-2h1V8v1-2h1V5Zm12-2-1 2-1 1v1a10 10 0 0 1-1 2V8l-2 3h-1 1V9l1-1V7l-1 1v2l-1 1h-1l1-1v1h-3 1l1-1-2 1h-1 1a41 41 0 0 0-2 0h1v-1h1-1l1-2 1-1h1-1a33 33 0 0 1-1 0l1-1h-1l1-1h1l2-1-1 1h-2l1-1 3-1 3-1v1h-3 2a83 83 0 0 1-1 1h-2v1l1-1h1v1h-1l-1 1a9 9 0 0 1-1 1h1l-2 1-1 1h1-1l-1 1-1 1 2-1 2-2V7v1h1V6l2-1v1-2h1v2-2l1-1h1Zm0 7V9h1V8a22 22 0 0 0-1 1V8l1-1V4l1-1h1-1v1h-1 1V3l3-1h-1v1h-1 1-1v2h-1v1-1 1l-1 1v3h-1Zm5-7v1l-1 3V5a7 7 0 0 1 0 3V7l-1 1V6v3h-1l-1 1h-1 1V8v1h1V6l1 1-1-1 1-1c1 0 1 0 0 0V4h1V3v2-1c0-1 0-1 0 0l1-1 1-1-1 1Zm7 16-2 2a7 7 0 0 1-2 2 7 7 0 0 0 1-1l-2 1h-2a13 13 0 0 0 3-1h-1a12 12 0 0 1-3 1l1-1h1v-1 1h-1a14 14 0 0 1-2 1l4-3h1-1a42 42 0 0 0-3 2v1-1h1-1l2-1v-1l-2 1v1-1h1-1l1-1 1-1c0-1 0 0 0 0a9 9 0 0 0-1 0v-1a5 5 0 0 1 4-1h1l-1 1h-1 1l1-1h1a104 104 0 0 0 1 0l-2 1h-1v1-1h2l1-1v1h-1a24 24 0 0 1-2 2l1-1 1-1h1l-1 1a100 100 0 0 1 1-1v1-1 1Zm1 1a25 25 0 0 1 1 4v-1a22 22 0 0 0 0-1l-1-1h1v3a53 53 0 0 0 0-2v1l1 4-1 4h-1v-2 2-3 2a48 48 0 0 1 0 1v1h-1v-3 2l-1-1a8 8 0 0 1 0-3 10 10 0 0 0 0 3l-1-3 1-4v-1a8 8 0 0 0 0 2v-1a11 11 0 0 1 1-2v-1l-1 4 1-1v-3 3-1a15 15 0 0 1 1-2l-1 4h1v-1a40 40 0 0 1 0-2v1a87 87 0 0 1 0-2Zm2-3v-1a16 16 0 0 0 1 3v-1a17 17 0 0 1-1-2 17 17 0 0 0 2 2h-1v-1l-1-1h1-1l2 2v-1l-1-1a20 20 0 0 1 2 2 14 14 0 0 0-2-2v-1l2 1 3 4v2l-1-1h1v1h-1v-1l1 1v2-1h-1v-1l1 1v2l-1-3-1-1h-1 1l1 2 1 2v1-1h-1a8 8 0 0 0 0-2h-1v-1 1l1 2-1-1-2-1-1-2-1-3v-1Zm10 3Zm-1 4v-1h1l-1 1Zm1 4v-1 1Zm2-1Zm1 1h1-1Zm2-7h-1 1Zm22 57h2-1l-1 1-2 1h1l2-1-2 1h-2a12 12 0 0 1-3-1l-1-1h1l1 1-1-1h-1 2-3 1v-1h-1 2-2 2v-1h-1v1-1h1l1-1h4v1h2-3 3-1l-1 1h-2 3l1-1h1-1v1l1-1v1h-4 3-1l-1 1h1l1-1-2 1h-1 1a5 5 0 0 0 2 0l1-1a4 4 0 0 1-1 1h-1c0 1 0 1 0 0Zm3 6-1 3-3 5-2 2-1 1 1-1 1-1v-1 1l-1 1h-1l1-1-1 1v1-1l1-1v-1a11 11 0 0 0-2 2h1v-1l1-2-1 1-1 2 1-3v1-3l3-5v-1h1l-1 2v-1a17 17 0 0 1 2-2l-1 2 2-3a78 78 0 0 0-1 2v-1l1-1-1 3 1-2-1 3-1 2-1 2-1 1h1v-1a31 31 0 0 0 3-5l-1 3v1-1a26 26 0 0 0 1-4v3-1l1-2v1Zm1-5a10 10 0 0 0 1 2l-1-1v-2 1a32 32 0 0 1 0-1l1 1v2l1 1-1-2v-1 1-1l-1-1 1 1v-1 1h1v2h1s-1 0 0 0v3-1 1l1 1-1-1v1l1 1h-1v-2 2l-1-2v1l1 1-1-1v1-1l-2-3v-3Zm1 0Zm2-11Zm-4-21Zm-8-2 1-1v1-1l1 1v-1h-1 1v1-1h1v1h-3Zm0 0v-1 1Zm0 0v-1 1Zm-1 0v1-1Zm-2 0h2v1h-2v-1Zm0 0v1-1 2-2Zm-1 11v-1l-1 1v1h-1v-1 1l-1-1v-3 1-3l2-2h-1l1-1h2-1v-1h2l1-1a14 14 0 0 0-1 0h1a9 9 0 0 1 3-1l-1 1h-1v1l-1 1h-2 1l-1 1-1 1h-1v1l1-1h1l-1 1a12 12 0 0 0-1 2v1l1-2v1c-1 0-1 0 0 0v-1l1-1v-1 1l1-1v-1l1-1v2a382 382 0 0 0 2-3l1-1v-1 2h-1l-1 2v3l-1-1v-1 3h-1v1-1a61 61 0 0 1 0-1v2h-1v1h-1 1v-1h-1v2Zm4-2v2l-1-1v1h1-1 1-2l-1-1 3-3v2Zm1 1v1l-1-1v-1l1 1Zm1 1-1-1c1 0 1 0 0 0h1v-1h1v1h1v-1h2s-1 0 0 0l-1 1a9 9 0 0 0-1 0h2-2a126 126 0 0 0 1 0h1v1h-1 1c0 1 0 0 0 0v6l-1-2v-1l1 1-1-1v-3h-2v-1 1h-1v1h1-1v1-1h1l1 1h-2v3-1h-1v-2h-1l1-1h-1 1-1 1-1 1v-1h1Zm3 6h1-1Zm0 0-2 1v-1h1l1-1h1l-1 1h1-1 1-1Zm-2 1v-1l1-1 1-1v-1a3 3 0 0 1 0-1v3h-1l-1 2Zm-1-1 1-1h1l-1 1h-1Zm2-4v1h-1v-1h1Zm-1 1h-1 1-1 1Zm1-1v-1h-1v-1c-1 0 0 0 0 0h2v1h-1v1Zm0-2Zm-3 4v-1l-1-1v-2h1l-1 1v1h1l-1 1h1v1Zm0-5Zm-4 1v-1 1Zm-1 0v-1h1v1h-1Zm1 2v-1h1v-1h1v1h-2v1Zm0 1v-2h3v1l-1-1 1 1a24 24 0 0 1-1 0h1-1 1-1l1 1h-1 1l1 1h-1 1l1 1v-1h1v-1h1v-2h1v1-1 1s-1 0 0 0l-1 1v1s1 0 0 0v1h-2 1-3a30 30 0 0 1-1-1v-1 2h3c0 1 0 0 0 0h2-2l-1 1h-2v-1h-2v-1h1-1v-1Zm2 5v-1 1h-1v-1 1-1h-1 1-1v-2h-1 1-1v-2l1 1v1h1v1h4-1 2l-1 1h1-1 3-1 2-1v1l-1 1h-3l1-1h-1v1-1 1h-1c0-1 0 0 0 0v-1 1l-1-1h1-1Zm4 3h-2v1-1 1h-1v-1 1h-1l-1-1v1-1l1-1v-1c1 0 1 0 0 0h1-1 1v1-1 1-1h1-1v1l1-1v1a10 10 0 0 1 0-1h1v1-1 1-1h1v1-1h1v1-1 1-1 1l1-1-1 1v1h-1Zm-6 3h-2v-1 1h-1a8 8 0 0 1-1 0l1-1-1 1h-1l-2 1v-1h1-1v-2h1l1-1h-1l2-1 2-1h1a4 4 0 0 1 1 0h1v1h-1v1s1 0 0 0h-2a33 33 0 0 1-1-1l2 1h-1a10 10 0 0 0-2 1h1-1 1l2-1v1l1-1v3Zm0-1v1-1Zm3 3h-1v-1 1l-1 1h-1v-1l-1 1 1-1h-1l1-1c-1 0 0 0 0 0v-1h1l1 1 1 1Zm8-2v1h-1 1-1l1-1Zm-2 0h1c0 2-2 3-3 4l1-1-1 1 1-1v-1l1-1-1 1-1 1 1-1h-1v1c-1 0 0 0 0 0h-1v-1h1l1-2h1Zm-1 0v1-1l-1 1-1 1v-1a38 38 0 0 1 1-1v1l-1 1v-1 1h-1v1h-1v-1 1-2 2h-1v-1 1-2 1-1h-1v-1 1l-1-1v-1h-1v-1a11 11 0 0 1 2-3l-1 1v2h1v1l1-1v1-1h2l-1 1a55 55 0 0 1 1-1v1-1c1 0 0 0 0 0h1s-1 0 0 0h1v-1 1-1 2-1h1v2Zm1-4h-1 1-1v1h1-1c1 0 0 0 0 0 1 0 0 0 0 0v1h-1c1 0 0 0 0 0v-1h1l-1-1h1v-1h1l-1-1h1v-5l1 1h-1v2h1l-1 1v3Zm1-3h1l-1 1v1l-1 1v-2l1-1v-2 2s1 0 0 0c1 0 0 0 0 0Zm0 3h-1 1Zm6-12v2l-1 2v3h-1a23 23 0 0 0 1 1v-1 1h-1 1-1 1-1c0 1 0 0 0 0l1 1h-2l1 1h-1l-1 1v-1h1v-3l1-1v-1l1-3 1-1h-1l1-1Zm-1 0v-1h1l-1 1v1h1-1v2h-1 1v1h-1 1-1 1-1v2h-1v1l-1 1v1h1l-1 1c0 1 0 1 0 0v1l-1 1-1 1v-2h1-1v-1h1v-2h1-1 1v-2h1s-1 0 0 0v-2h1-1l1-1c-1 0 0 0 0 0a32 32 0 0 1 0-1v-1l1-1Zm-3 6 1-2v-1 1l-1 2Zm4-11v1-1Zm-5-2v-1 1Zm2 2Zm0 0v-1 1l-1-1v-1 2-2 1-1 1-1 1h-1v-2h1l2-1v1l-1 1v2Zm1 1h-1v-1 1-1a14 14 0 0 1 1-2l-1 2v-1 1-2l1-1h1v2h-1 1v1h1v1l-1-1h-1a2 2 0 0 0 0 1Zm-1 5v-1h1v-5h1v1h-1 1s-1 0 0 0v1h-1l1 1h-1 1v1h-1v-1 1l1 1h-1v2h-1v2h-1 1-1c1 0 1 0 0 0v2l-1 1v2-4h1a14 14 0 0 1 0-1v-1h1-1 1-1l1-1v-1Zm-4-4v-1l1 1h-1v1-1h1v1-1h1v1h1v1h-1c0-1 0-1 0 0v-1h-1 1-1l1 1h1-1 1v1h1-1 1-2 2-1l1 1h-1 1-1 1-1 1l-1 1h-1a3 3 0 0 0 1 0v1h-1 1v1h-1c1 0 0 0 0 0v4-1l-1-1v-1a9 9 0 0 0 0-1v-3h-1 1l-1-1v-2 4l1 1v4l1 2-1-1v-3c-1 0-1 0 0 0h-1v-8Zm-1 1v-1h1v1c0 1 0 1 0 0l-1 1h1c0 1 0 1 0 0h-1v1-1h-1l1 1-1-1 1 1h-1v-1 1h-2l1-1 1-2 1 1Zm-1-5v2-1 3h-1 1v1h-1v1a37 37 0 0 1-1 1l-1 1v-1l-1-1h1-1v-2l1-1h-1a3 3 0 0 1 1-2h1-1a15 15 0 0 1 2-2v1h-1c1 0 1 0 0 0v3l-1 1 1-1v2-1a10 10 0 0 1 0-2 8 8 0 0 1 1-1v-2 1-1h1v1Zm-2-1 1-1 1-1-2 2Zm2-2h-1 1Zm7-37v1-1l-1-1 1 1Zm-4-3 1 1h1v1h1l-1 1V6h1v1h1v1h-1V7h-1V6h-1V5l-1-1Zm2 6v1h1-2v-1h-2V9v1l-1-1h-1l-1-1h-2s1 0 0 0h-1l-1-1h-2V6l2 1h3v1h2l1 1h2v1h2Zm1 2h1v2-1h-1v-1 1-1l-2-1h2v1Zm-1 6v-1 1h-1v2l-1-1v1s1 0 0 0v1-1 1-1 1h-1v-1 2-1 1h-1v-1 2h-1v-1 1-1h-1a584 584 0 0 0 0 1h-1 1-1v1-1a12 12 0 0 1 0 1l-1-1v1-1 1l-1-1v1-1s0 1 0 0h-2v-1h-1v-1l1-1v1s-1 0 0 0v1h3v-1h1v-1 1l1-1 1-1v1-1h1-1v1l1-1v1-2h1l-1 1 1-1v2-2h1v-1h1v-2h1v-1 1a25 25 0 0 0-1 2l1-1v-1 3Zm-4 9v-1 1-1 1Zm0 0h1-1Zm0-1v-2 2Zm0-3v1-1Zm-7 7v-4h2a12 12 0 0 1-1 3l-1 1Zm0 0v1-1Zm-2 1-1 1 1-1v-1l-1 1v1-1h-1v1-1a13 13 0 0 0 2-3v-1h1l-1 1v1l1-1v-1 1-1h1l-2 4Zm1-1v1h-1a7 7 0 0 0 1-1Zm-3 0v1-4l1-2v1a6 6 0 0 1 1-1s-1 0 0 0l-1 1v1-1h1l-2 5v-1Zm1-6c-1 0 0 0 0 0h-1v-1h1-1v1h-1l1-1-1 1 1-1h-1v1-1h-1 1-1v-3 1h-1v-1h1-1 1-1l1-1h-1l1-1-1 1v-3s0 1 0 0v-1 1-1a74 74 0 0 1 0-2l1 1h-1 1v3a23 23 0 0 1 0 1v1h1v2-1h1l-1 1h2l-1 1a7 7 0 0 1 1-1h2-1v1-1h1l-1 1h1v1-1 1-1 1h2-1 1l-3 1h-1Zm-1 0v1h-3l1-1h2Zm-3-11h-1 1-1v1-1 2h-1l-1 1v-1h1v-1c0 1 0 0 0 0v-1h-1v-1 1h1l-1-1h1v-2h1-1 1-1 1V9h1-1 2v2h-1 1l-1 1h1-1v1Zm0 1-1 1 1-1v1h-1c0 1 0 0 0 0h1l-1 1h1l-1 1 1-1v1h-1 1-1 1l-1 1h1c-1 0 0 0 0 0h-1 1v1a117 117 0 0 1-1 0v-1h-1c0 1 0 1 0 0h-1 1-1l1-1h-1v1-1l-1 1v-1h1-1l2-1a11 11 0 0 1-2 1c0-1 0-1 0 0h-1v-1h1l2-1v1-1h1v-1h1Zm-5 2h-1l-1 1h-1l-1-1h3v-1h2-1v-1h1l1-1v2h-1 1l-1 1v-1 1h-1Zm0 1Zm-4-2h-1v-1l-1 1v-1h-1v-1c0 1 0 1 0 0h-1v-1h-1v-1l1 1h2l1 1v-1 1l1-1-1 1h1c0-1 0-1 0 0a10 10 0 0 1 0-1v1-1 1h1v1l2 1 1-1v1h-2c0 1 0 0 0 0h-2Zm-4-1c-1 0 0 0 0 0v-1 1h-1v-1h-1 1-1v-1 1-1h-1v-1c-1 0 0 0 0 0h-1V9l1 1 1 1v1h1l1 1 1 1h1l1 1h-2v-1h-1Zm0 1h2v1-1h1v1s0-1 0 0h1-3l-1-1Zm4-7v1h-2l-1-1h1V7v1h-1l1-1h-1v1h1-1V7h1V6v1h1-1 2v1Zm-3 2h2-2Zm1 0h-2V9h-1V6h1l-1 1v1h1v1-5h1V3h2V2v1-1h2v1h-1v1h-1V3l-1 1-1 1 1-1h1-1v1h-1v3h-1V7l1-1V5v1h-1v3h1v1c-1 0 0 0 0 0h2-1Zm2-5h1-1 1v1h1-1 1-1 1v1h1-1 1v1h-1l-1-1-1-1 1 1 1 1h1v2-1l-1-1-2-2h-3 2l-1-1a10 10 0 0 1 1 0h1-1 1Zm1-1Zm1-1 1 3v1-1h-1V3Zm0 2h-1V4l1-1V2v3Zm2 7h1v-2h1v3h-1v1l-1-1v1h-1 1-3v-1l1-1v1-1h1s0-1 0 0v-1h1l-1 1Zm-6-6h-1 1Zm0 0h1-1Zm1 0 1 1-1-1Zm1-2Zm-3 3V6v1Zm2 3-1-1 1 1h-1V9h-1V8l1 1h1v1Zm-1-2Zm2-1 1 1h1-1 1v1h-1 1-1 1v1l-1 1V7h-1Zm1 1v3-1c-1 0-1 0 0 0l-1-1V7l1 1Zm0 3 1-1V9h1v1-1s-1 0 0 0h-1 1v2h-1l-1 1h-5l-1-1h1l1 1 1-1v1-1h3Zm3 5h1-1Zm6-7v1-1Zm0 4v1l-1-1v-1h1v1Zm0-1v-1c0 1 0 0 0 0h1-1 1-1v-1h1-1 1-1 1-1l1-1V8h1-1V7h1V6h1-1l1-1v1-1h1-1 1V4v1h1l-1-1h2l1 1V4h-1 1v1-1l1 1 2 1h-1 1-1v1l-1-1 1 1-2-1V5l1 2V6h-2 1-2 1-1v1h-1 1-2v1h1-1 1-1 1l-1 1h-1 1l-1 1h1s0-1 0 0h-1 1v1h-1 1v1h-1 2-1 1-1 1l-1 1h-1a10 10 0 0 1 2 0h-1 1l-1 1 1-1v1h1-1v1l1-1v1c0-1 0-1 0 0h-1 1l-1 1 1-1h1l-1 1 1-1-1 1h1-1c0 1 0 1 0 0h2l-1 1 1-1v1h1-1l-2 1 2-1h1-1 1l-1 1 1-1-1 1-1 2h-2 1v-1 1a111 111 0 0 0-2 0v1l1-2v1a12 12 0 0 0-1 0h-1l1-1-1 1h-1l1-1-1 1 1-2v1h-1l1-1-1 1v-1 1-1h-1 1-1v-1h1-1l1-1h-1 1-1v-1h1-1 1v-1h-1 1v-1h1-2 1-1l1-1h-1 1-1Zm9-4c0 1 0 0 0 0v1h-1 1-1v1l-1 1V9h1-1 1V8h1Zm-1 3h1v-1l-1 1h1l-1 2h-1l1-1h-1v1-2l1-1h1l-1 1Zm1 0v-1h1v1h-1 1v1h-1v1a1 1 0 0 1-1 0l1-1c-1 0-1 0 0 0 0 0-1 0 0 0v-1Zm0-1Zm3 1h1v1h1-1 1l1 1h-1 2-1 1-1v1h1-1v1l1-1v1h-1 1-1 1v1h-1 1-1v-1c-1 0-1 0 0 0h-1v-1h1-1 1-1v-1l-1-1h-1v-1h-1v-1h1v1Zm3 7v-2l-1-1 1 1v2Zm-1-1h-1 1-1v1h-1v1-2h1v-3h1-1 1v3Zm0 1Zm-2 1-1 1v-1 1h-1v1l-1-1 1 1h-2v1-1 1-1 1h-1v-1 1-1 1-1h-1l1-1-1 1v-1 1-1l1-1v-1h3-2c0 1 0 0 0 0h1l-1 1 1 1v-1h2v-1h1-1v1a12 12 0 0 0 1-1v-1 2Zm0 0Zm-3-1v-1h1l-1 1Zm1-1h-1v-1h-1a40 40 0 0 1-1-1v-2c-1 0 0 0 0 0h-1v-2h1v2h1l-1 1h1-1 1-1 1v1h1v1c0-1 0 0 0 0h1v-1 1h1-1 2v-3h-1 1-1v-1c-1 0-1 0 0 0v-1h-1 1v1h1l1 1h-1 1-1 1-1 1v2l-1 2h-1v1a37 37 0 0 1 1-2v-1 2h-1l-1 1v1h-1v-1h1-1v1h1v-1h1v-1l1-1-2 1Zm-1-4v1h1-1v1h1-2v-2h1Zm2 0v1h-1 1-1 1v1s-1 0 0 0h-1v-2l1-1-1 1h1Zm0 2v-2 2Zm0 0h1l-1 1v-1Zm-1 0h1-2v-1 1h1Zm1-4 1 1h1l1 2-1-1v-1h-1v-1h-1Zm2 2v2a11 11 0 0 0 0-2Zm0 3v1-1Zm0 0Zm-3 3v-1h2-1a6 6 0 0 0-1 1Zm1-9v1l-1-1h1Zm-1 2v1h-1l1-1v1-1Zm-2-4h-1 1-2 1v1l-1-1-1 1h1a3 3 0 0 1 1 0h-1 1-1v1h-1 2-1 1-1 1-1v1h1-2 2-2 1v1h-1 1l-1 1h1-1 1v1c0-1 0 0 0 0h1v1l1 1h1v1h2-3v-1h-1s0-1 0 0h-1v-1h-1v-1a9 9 0 0 0 0-1h-1v-3c0-1 0 0 0 0V8h1-1 1V7a10 10 0 0 0 3 1Zm0 16-1 1h-1v-1h2Zm0 0v1-1Zm-1 1-1 1v-1h1Zm-1 1h-1 1Zm-2 0h1l-1 1v-1Zm0 0v-1 1Zm0-1 1-1v1h-1Zm1 0a7 7 0 0 1 0-1v1Zm2 5-1 1 1-1Zm0 0-1 1 1-1Zm0 0 2-1-2 2v-1Zm0-1a11 11 0 0 0 1-3h1l-1 1h1v-1h1l-1 2v1h-2Zm2-4h-1v-1h1v1Zm0 0v-1 1-1 1h1-1Zm1-1h1l1-1h1l-1 2v1l-2-1v-1Zm7-9v-2h-2v-1h-1v-1c0 1 0 1 0 0h-2v-1h-2 3v1h1v1h1l1 1a68 68 0 0 1 1 1l1 1h-1Zm-2-3v-1h-1l-1-1h-1c0-1 0 0 0 0l-1-1h-1v1l-1-1v1h-1 1V9h1V8c0 1 0 0 0 0h1v1h1l2 2 1 1h1-1Zm-3-6v1h-1 1V6c1 0 0 0 0 0v1h1-1 1-1 1v1-1 1h1l1 1 1 1-1-1h-2l-1-1-2-1h-1 1c0-1 0-1 0 0 1 0 0 0 0 0h1V6c1 0 0 0 0 0v1l1-1Zm-9-4Zm-2 4 1-2V2l1 1h-1V2h1v1-1l1 1h-1V2h1v1-1h5l1 1 1 2h1l-2-1V3v1l1 1-1-1h-1l2 1h-1l1 1-1-1h-1 1-1l-1-1 1 1h-1V4h-2c0-1 0-1 0 0h-2V3v1h-2l1 1h-1 1l-1 1h-1Zm0 0h1-1Zm0 0h1-1Zm0 1Zm0 1V7v1Zm-2 0h2-1a26 26 0 0 0-1 0Zm0 0 1 1h-1V8Zm-5-2h2-1 1V5h1V4v1h1v1h-1 1-1 1v1h1-1 1-1 1v1h-1v1h-1v1a2 2 0 0 1-1 0h1-2V9h1a13 13 0 0 1-1 0h1-1 1-1V8h1-1 1-1 2-2 1-1 1-1V7h1-1V6h-1Zm-2-4c0-1 0 0 0 0V1h1v2-1h1v6h1-1 1l-1 1h1v1h-1 1v1h-1s1 0 0 0c0 0 1 0 0 0v1-4h-1V7h1-1V6a7 7 0 0 1 0-1V4h-1V2Zm-5 0V1h2V0v1-1h1v1-1l1 1V0v1h1v1l-1 2h-1l1-1V1l-1 1V1v1-1 1-1h-1l1 1h-1V1v1h-1v1l-1-1 1 1h-1v1h-2 1v1h-1 1-1v2h-1V4h1c-1 0-1 0 0 0V3h1V2h1Zm-5 3V4h1-1 1l-1-1h1-1 1s-1 0 0 0V2c1 0 0 0 0 0h1V1h2v1h-1a20 20 0 0 1 1 0h-1v1h-1c0 1 0 0 0 0v3h-1 1-1 1-1l1 1h-1 1-1 1v1h1-1 1-2v1-1h-1l1 1h1s0 1 0 0v1c1 0 1 0 0 0h2v1s0-1 0 0h2-1l-1-1v1h1-1v-1h-1V9h1v1h1s0 1 0 0l1 1 1-1 1-1V8v3h-2 1-5v-1s-1 0 0 0h-1V9h-1V5Zm2 4h1v1l-1-1h-1c1 0 0 0 0 0V8h2l-1 1Zm-2-3h-1V5l1 1Zm0 0v1a40 40 0 0 1-1 0v1c1 0 0 0 0 0h1v2c0 1 0 0 0 0v2c1 0 1 0 0 0h1-1 1c0 1 0 0 0 0v1h1v1h2v1l1 1h-1 1-1s-1 0 0 0h-1v-1 1-1h-1v-1h-1 1-1l1-1h-1v1l-1-1h-1v-2h-1l1-1h-1c1 0 0 0 0 0h1-1 1V9h-1 1l-1-1V7h1V6h1Zm-2-1c1 0 1 0 0 0 0 0 0 1 0 0Zm1 0v2h-1V6l1-1Zm0-1v1a528 528 0 0 1 0-1ZM42 8h-1 1a8 8 0 0 1 1-2l-1 1 2-3h1v1h-1 1l-1 1-1 1h1V6v2l-1 1-1 1V9h1V8l-1 1-1 1V9l1-1Zm4-2V5h1v2-1 2l-2 1V5l1 1a53 53 0 0 1 0 1V6Zm-2 3V8v1Zm0 7v-1l-1 1v-1h2l-1 1Zm6-7-2 1h-2 3l-3 1-1 1 1-1a13 13 0 0 0 2 0l1-1v1a36 36 0 0 1-3 1 27 27 0 0 0 3-2v1-1h1l-2 2-1 1 1-1h1l-3 2-3 1-3-1-1-1h3-4a21 21 0 0 0 4-1h-4 3-3 1-1l2-1 3-1 3-1h4Zm1 0h-2l-1-1h-1V5l4 1v3Zm0-3h-1a8 8 0 0 1-4-2h1-2V3l4 1-3-1h-2 3-2V2h1a25 25 0 0 1 4 0h-4 2-1a13 13 0 0 1 5-1l2 1v1h-2 3-1v1h-2 3-2a11 11 0 0 1-2 1h1l2-1-3 2Zm1 2V7l-1 1V7l1-1 1-1h1l-1 1v1-1h1-1l-1 2Zm0 1V8l1-1v2-1a5 5 0 0 1 1-2v1a3 3 0 0 1 0 1v2-1 1l-1 1-1-1V9l1-1-1 1Zm2 2v-1 1Zm3 4-1-1h-1l1 1h-1l-2-2-1-2v1a5 5 0 0 0 1 1l-1-1v-1a6 6 0 0 0 1 1 12 12 0 0 0 1 1l-1-1v-1l1 1-1-1h1l1 1v1h1v1h1-1l1 1Zm3 3v1c0-1 0 0 0 0h-1v-1l-1 1v-1h-1v-4 1h1v1-1 1h1v1-1 1l1-1v1h-1 2-1l1-1v1c0-1 0 0 0 0v-1h1v1-1 1-1 1h1l1-1v1h-1l-1 1h-2Zm5 1h-5 1v-1c0 1 0 0 0 0h2v-1l1 1v-1h1v1-1 1h1v-1 1-1h1v1h-2v1-1 1Zm2 0v1h-1v-1h1Zm-2 1v-1l1-1v2h1v-1l-1-1h1v-1h1l4 2h1v2a10 10 0 0 0-6-1l-1 1h-1v-1Zm3 5-1-1h1a7 7 0 0 0 1 0v1-1a9 9 0 0 1-3-1c0-1 0 0 0 0h1l-1-1h-1v-1l1 1h1l1 1h1-1l-1-1-1-1h-1 3-2 2-1l3-1a8 8 0 0 1 3 1h-1 1v1l1 1h-1a34 34 0 0 1-4-1l3 1h2-1 1v1a288 288 0 0 0-1 0h1a6 6 0 0 1-2 0h1v1h-5Zm4 10h-1l1-1-1 1v-2 2h-1v1-1l1-3v-1 1l-1 3v-1a37 37 0 0 0 0-1v1-2 1h-1v-5l1-1 1-2-1 2h1v-1l1-1h1l-1 1 1-1h1a5 5 0 0 0-1 1l1-1v1a6 6 0 0 0-2 1h1v-1l2-1-1 1a9 9 0 0 0-1 2 11 11 0 0 0-1 1v-1l1-1 1-1v1h-1v1l1-1v-1 2-1l1-1v1-1 2l-1 3v1l-1 2-1 1 1-2v-1 1l-1 1v1Zm8 4v-2 2Zm7 2-1 1h-1l-1-1 1 1h-3 1-1 1v1l2-1h2-1l-3 1h1-6v-1h-1 2-2v-1h2l-1-1h2c0-1 0 0 0 0h1l-1-1h2a20 20 0 0 0 0 1v-1h2v1c0-1 0-1 0 0h1a12 12 0 0 0 2 1Zm8-5h1l-5 4-1 1a138 138 0 0 0-3 0l-1-1h-1l-3-1h-1v-3l2-4 3-2 2-1-1 1v1l-2 1v1c-1 0-2 1-2 3h-1v1l1-1 1 1 2 1 3 1 3-1 2-1 1-1Zm-9-4v1l-1 1-1 1h-1l3-3Zm4 2a2 2 0 0 1 1 1v-1l2 1 1 1h-2 1-2v-1 1h-2l-1-1v1h1-3 1v1h5l1-1v1l1-1-2 2h-1v-1 1h-5l1-1-1 1-1-1h-2v-1h1-1 1v-1s-1 0 0 0l1-1h1l1 1h1l-1-1h-1v-1h2v1-1l1 1h1-1 1Zm0-5v1a26 26 0 0 1-1 1h1v-1l-1 3a8 8 0 0 0-3 0l1-2a6 6 0 0 1 2-2h1Zm-1-1-2 1a25 25 0 0 0-5 3l-1 1-2 1h-4 1v1h1-2 3l1-1h1-1l-2 2h-3l-2-1 2-2a13 13 0 0 0 1-5v-3h1l1-1h1-1l-1 1v5a67 67 0 0 1 0 3l2-2c0 1 0 0 0 0h1l1 1h-2v1h1l1-1a17 17 0 0 0 2-1l1-1v-1l2-1h4Zm0-1-5 1v-2h2v2l2-1h1Zm-1-1h-1 1Zm0-1v1h-1v-1h1Zm-1-2v-1 1h1-1Zm6-4-1 1v-1 1h1-1v2s0-1 0 0h-1l1 1h-2v1h-1 1-2 1l-1-1a7 7 0 0 1 0-1v1-1 1-1h1v-1 1-1h1v-1 1s0-1 0 0l1 1v-1l-1-1h1-1v-1h1v-1 1-1h1-1 1l-1-1h1-1 1v-2l1 1v2h1l-1 1Zm1-3s1 0 0 0h1v2h-1l-1-1v-1c-1 0 0 0 0 0v-1h-1 1-1c0-1 0 0 0 0v-1h-1 1-1v-1c-1 0 0 0 0 0l-1-1s-1 0 0 0h-1v-1h1-2v-1h-1a34 34 0 0 0-1-1h1v1h2l1 1h1-1 1v2h1v1h1v1l1 1Zm1-1h-1v-2l-1-1v-1 2-1l-1-1h1-1l1-1-1 1v-1h1-2l1-1h-1V8l-1 1V7c-1 0-1 0 0 0h-1V6v1-1h-1V5v1-1c-1 0-1 0 0 0V4l-1 1 1-1h-1s-1 0 0 0V3h-1V2v1-1 1l-1-1-1-1h2-1v1h2c0 1 0 0 0 0v1-1 1h1v1c1 0 1 0 0 0h1-1v1-1h1v2l1-1v1l1 1h-1 1v1h2-1 1l-1 1h1v1l1-1v1h-1 1v1c0-1 0-1 0 0h1v1h-1 1l-1 1h1v-1 1h-1 1v1-1 2Zm0 0"/></g><path fill="#c39d35" d="M92 69ZM81 56ZM83 69ZM86 70ZM95 7l1-1V5l-1 2V6a3 3 0 0 0 1-1V4v1-2a38 38 0 0 1-1 1 9 9 0 0 0 1-1h-1l1-1-1 1V0h-1v1-1 2-1 1-1 1h1-1 1v2c0-1 0 0 0 0v1c0-1 0-1 0 0v1-1 1l-1 2 1-1h1-1 1V6v1h-1ZM95 38v1h-1l1 1-1 1h-1 1l-1 1-1 1h1v-1a4 4 0 0 1 1-1v1l1-2v-1 1-1l1-1h-1ZM96 53h-1l1 1h-1l1-1v-1 1ZM86 0h-1 1ZM96 0l-1 1 1-1ZM96 22h-1 1ZM96 25h-1 1ZM95 30l1 1v-1h-1ZM96 71v-1h-1l1 1ZM81 0ZM95 24h1-1ZM96 54v1-1ZM87 0ZM96 8ZM81 0h1-1ZM94 0h-1v1l1-1s-1 0 0 0ZM27 0ZM96 76ZM78 0h-1 1ZM88 0ZM96 55ZM96 63v-1 1ZM83 69v-1 1ZM61 13ZM94 66l1 1-1-1ZM92 70h-1 1ZM94 66ZM94 67v1-1ZM93 68ZM94 68ZM92 69ZM92 69ZM92 65h-1 1ZM95 58v1-1ZM56 0ZM61 1ZM96 45h-1 1v-1 1ZM94 44h1-1ZM95 44h-1 1ZM86 86a25 25 0 0 0-1 2l1-2ZM85 90l-1 1 1-1ZM90 18ZM90 18ZM86 70ZM86 70ZM83 69ZM83 70v-1 1ZM87 63ZM87 63ZM86 64l1-1-1 1ZM87 64ZM90 58ZM88 60ZM88 60ZM59 2v1-1ZM81 66v-1 1ZM85 66v-1 1ZM72 10ZM72 8l1-1ZM63 14ZM93 62ZM93 62ZM88 50v1-1ZM37 5l-1 1 1-1ZM93 47l1-1-1 1ZM81 56ZM81 56ZM81 54h1-1ZM63 6h1-1ZM91 47ZM84 14ZM84 15v-1 1Zm0 0"/></svg>