<svg xmlns="http://www.w3.org/2000/svg" xmlns:xlink="http://www.w3.org/1999/xlink" width="128" zoomAndPan="magnify" viewBox="0 0 96 95.999999" height="128" preserveAspectRatio="xMidYMid meet" version="1.0"><path fill="#c39d35" d="M 14.089844 81.910156 C 16.175781 82.921875 18.234375 84.6875 20.074219 87.566406 C 24.558594 94.566406 29.671875 94.132812 31.664062 93.617188 C 34.53125 92.878906 36.792969 90.636719 37.332031 88.121094 L 79.449219 88.109375 C 79.449219 88.109375 79.980469 87.71875 79.242188 86.980469 C 78.667969 86.40625 77.78125 86.441406 77.78125 86.441406 L 35.792969 86.414062 L 35.742188 87.210938 C 35.605469 89.292969 33.671875 91.339844 31.238281 91.964844 C 27.792969 92.855469 24.246094 90.914062 21.511719 86.644531 C 19.746094 83.886719 17.695312 81.882812 15.375 80.625 C 14.121094 78.304688 12.113281 76.253906 9.355469 74.488281 C 5.085938 71.753906 3.144531 68.210938 4.035156 64.761719 C 4.660156 62.332031 6.707031 60.394531 8.789062 60.257812 L 9.585938 60.207031 L 9.558594 18.222656 C 9.558594 18.222656 9.59375 17.332031 9.019531 16.757812 C 8.28125 16.019531 7.890625 16.550781 7.890625 16.550781 L 7.882812 58.667969 C 5.363281 59.207031 3.121094 61.472656 2.382812 64.335938 C 1.871094 66.328125 1.433594 71.441406 8.433594 75.925781 C 11.3125 77.765625 13.078125 79.824219 14.089844 81.910156 " fill-opacity="1" fill-rule="nonzero"/><path fill="#c39d35" d="M 10.222656 85.777344 C 10.210938 85.804688 10.199219 85.835938 10.191406 85.863281 C 10.199219 85.835938 10.207031 85.808594 10.214844 85.785156 C 10.191406 85.792969 10.164062 85.800781 10.136719 85.8125 C 10.164062 85.800781 10.195312 85.789062 10.222656 85.777344 " fill-opacity="1" fill-rule="nonzero"/><path fill="#c39d35" d="M 40.257812 82.660156 C 40.871094 83.101562 41.496094 83.472656 42.265625 83.160156 C 42.550781 83.042969 42.820312 82.792969 43.136719 82.808594 C 43.113281 83.695312 41.433594 84.046875 40.773438 84.066406 C 39.695312 84.105469 38.628906 83.828125 37.554688 83.957031 C 36.429688 84.09375 35.351562 84.59375 34.527344 85.375 C 33.246094 86.589844 32.496094 88.230469 30.84375 89.039062 C 29.453125 89.722656 27.796875 89.707031 26.363281 89.160156 C 24.660156 88.503906 23.3125 87.308594 22.242188 85.847656 C 21.230469 84.460938 20.460938 82.878906 19.347656 81.566406 C 18.859375 80.984375 18.21875 80.589844 17.625 80.132812 C 17.800781 80.269531 18.898438 79.972656 19.140625 79.933594 C 19.664062 79.851562 20.167969 79.730469 20.675781 79.585938 C 21.734375 79.277344 22.847656 78.9375 23.652344 78.140625 C 24.046875 77.75 24.34375 77.261719 24.730469 76.859375 C 25.175781 76.402344 25.847656 75.925781 26.46875 76.390625 C 26.527344 76.4375 26.585938 76.496094 26.601562 76.570312 C 26.644531 76.824219 25.796875 77.148438 25.617188 77.339844 C 25.117188 77.863281 25.050781 78.546875 24.921875 79.222656 C 24.8125 79.777344 24.683594 80.347656 24.378906 80.835938 C 24.03125 81.390625 23.449219 81.777344 22.816406 81.9375 C 22.078125 82.128906 21.476562 81.980469 20.804688 81.660156 C 21.609375 82.261719 22.421875 82.84375 23.246094 83.410156 C 23.710938 83.726562 24.148438 83.933594 24.703125 84.042969 C 25.109375 84.121094 25.535156 84.117188 25.933594 83.992188 C 26.339844 83.863281 26.707031 83.582031 26.933594 83.222656 C 27.121094 82.929688 27.355469 82.300781 27.03125 82.019531 C 26.984375 82.066406 26.945312 82.128906 26.890625 82.167969 C 26.265625 82.644531 24.882812 81.851562 25.589844 81.128906 C 25.742188 80.972656 25.957031 80.894531 26.175781 80.871094 C 27.035156 80.773438 27.714844 81.472656 27.914062 82.261719 C 28.148438 83.1875 27.632812 84.085938 26.824219 84.546875 C 26.039062 84.996094 25.09375 84.886719 24.261719 84.640625 C 23.886719 84.53125 23.527344 84.375 23.191406 84.183594 C 23.042969 84.097656 22.230469 83.601562 22.261719 83.429688 C 22.21875 83.664062 22.65625 84.203125 22.773438 84.382812 C 23.179688 85.011719 23.683594 85.582031 24.226562 86.097656 C 24.539062 86.390625 24.878906 86.664062 25.238281 86.910156 C 25.511719 87.097656 25.796875 87.261719 26.097656 87.40625 C 26.671875 87.6875 27.3125 87.890625 27.945312 87.792969 C 28.738281 87.667969 29.21875 87.066406 29.398438 86.320312 C 29.703125 85.0625 29.210938 83.628906 29.925781 82.464844 C 30.1875 82.03125 30.671875 81.832031 31.167969 81.832031 C 31.578125 81.832031 31.976562 81.957031 32.347656 82.128906 C 32.828125 82.351562 33.410156 82.710938 33.957031 82.492188 C 34.515625 82.269531 34.949219 81.828125 35.558594 81.644531 C 37.253906 81.128906 38.847656 81.65625 40.257812 82.660156 " fill-opacity="1" fill-rule="nonzero"/><path fill="#c39d35" d="M 13.335938 55.742188 C 12.898438 55.128906 12.527344 54.507812 12.839844 53.734375 C 12.957031 53.453125 13.207031 53.179688 13.191406 52.863281 C 12.304688 52.886719 11.957031 54.566406 11.933594 55.226562 C 11.894531 56.304688 12.171875 57.371094 12.042969 58.445312 C 11.90625 59.570312 11.40625 60.648438 10.625 61.472656 C 9.410156 62.753906 7.769531 63.503906 6.960938 65.15625 C 6.28125 66.546875 6.292969 68.203125 6.839844 69.636719 C 7.496094 71.339844 8.691406 72.6875 10.152344 73.753906 C 11.539062 74.769531 13.117188 75.539062 14.4375 76.652344 C 15.015625 77.140625 15.410156 77.78125 15.867188 78.378906 C 15.730469 78.199219 16.027344 77.101562 16.066406 76.859375 C 16.152344 76.335938 16.269531 75.832031 16.417969 75.324219 C 16.722656 74.269531 17.0625 73.152344 17.859375 72.347656 C 18.253906 71.953125 18.738281 71.660156 19.140625 71.269531 C 19.597656 70.824219 20.074219 70.152344 19.609375 69.535156 C 19.5625 69.472656 19.503906 69.414062 19.429688 69.402344 C 19.175781 69.355469 18.851562 70.199219 18.660156 70.386719 C 18.140625 70.882812 17.453125 70.949219 16.777344 71.078125 C 16.21875 71.1875 15.652344 71.316406 15.164062 71.621094 C 14.609375 71.96875 14.226562 72.550781 14.0625 73.183594 C 13.871094 73.921875 14.019531 74.523438 14.339844 75.195312 C 13.742188 74.390625 13.15625 73.578125 12.589844 72.753906 C 12.273438 72.289062 12.066406 71.851562 11.957031 71.296875 C 11.878906 70.890625 11.882812 70.464844 12.007812 70.066406 C 12.136719 69.660156 12.417969 69.292969 12.777344 69.066406 C 13.070312 68.878906 13.699219 68.644531 13.980469 68.96875 C 13.933594 69.019531 13.875 69.054688 13.832031 69.113281 C 13.355469 69.734375 14.148438 71.117188 14.871094 70.410156 C 15.027344 70.257812 15.105469 70.042969 15.128906 69.824219 C 15.230469 68.964844 14.527344 68.285156 13.742188 68.085938 C 12.8125 67.851562 11.917969 68.367188 11.453125 69.175781 C 11.003906 69.960938 11.113281 70.90625 11.359375 71.738281 C 11.46875 72.113281 11.625 72.472656 11.820312 72.808594 C 11.902344 72.957031 12.398438 73.769531 12.574219 73.738281 C 12.335938 73.78125 11.796875 73.34375 11.617188 73.226562 C 10.988281 72.824219 10.417969 72.316406 9.902344 71.777344 C 9.609375 71.460938 9.332031 71.121094 9.089844 70.765625 C 8.90625 70.488281 8.738281 70.199219 8.589844 69.90625 C 8.3125 69.328125 8.109375 68.6875 8.207031 68.054688 C 8.332031 67.261719 8.933594 66.78125 9.679688 66.601562 C 10.941406 66.296875 12.371094 66.789062 13.535156 66.074219 C 13.96875 65.8125 14.171875 65.328125 14.171875 64.832031 C 14.171875 64.421875 14.042969 64.023438 13.871094 63.652344 C 13.648438 63.171875 13.285156 62.589844 13.507812 62.042969 C 13.730469 61.488281 14.171875 61.050781 14.355469 60.445312 C 14.871094 58.746094 14.34375 57.152344 13.335938 55.742188 " fill-opacity="1" fill-rule="nonzero"/><path fill="#c39d35" d="M 95.800781 89.753906 C 95.675781 89.628906 95.503906 89.554688 95.3125 89.554688 L 39.210938 90.027344 C 38.832031 90.03125 38.53125 90.335938 38.535156 90.714844 C 38.535156 91.09375 38.84375 91.394531 39.222656 91.390625 L 95.324219 90.917969 C 95.699219 90.914062 96.003906 90.605469 96 90.230469 C 96 90.042969 95.921875 89.875 95.800781 89.753906 " fill-opacity="1" fill-rule="nonzero"/><path fill="#c39d35" d="M 6.246094 0.199219 C 6.371094 0.324219 6.449219 0.496094 6.445312 0.6875 L 5.972656 56.792969 C 5.96875 57.167969 5.660156 57.46875 5.285156 57.464844 C 4.90625 57.464844 4.605469 57.15625 4.609375 56.777344 L 5.082031 0.675781 C 5.085938 0.300781 5.394531 -0.00390625 5.769531 0 C 5.957031 0 6.125 0.078125 6.246094 0.199219 " fill-opacity="1" fill-rule="nonzero"/><path fill="#c39d35" d="M 17.113281 78.886719 C 17.132812 78.90625 17.152344 78.929688 17.171875 78.949219 C 18.09375 79.882812 19.902344 78.171875 20.492188 77.417969 C 21.089844 76.648438 21.5625 75.792969 22.199219 75.054688 C 22.289062 74.953125 22.382812 74.847656 22.507812 74.800781 C 22.597656 74.765625 22.691406 74.765625 22.785156 74.761719 C 23.355469 74.757812 23.835938 74.730469 24.398438 74.578125 C 25.285156 74.34375 26.210938 74.527344 26.929688 74.988281 C 28.007812 75.675781 28.421875 76.875 28.8125 78.0625 C 28.921875 78.394531 29.441406 79.6875 29.957031 78.949219 C 30.179688 78.632812 29.445312 78.09375 29.785156 77.53125 C 29.949219 77.253906 30.199219 77.027344 30.355469 76.746094 C 30.511719 76.464844 30.601562 76.140625 30.511719 75.824219 C 30.433594 75.535156 30.238281 75.300781 30.046875 75.082031 C 29.523438 74.484375 29.324219 73.273438 28.625 72.855469 C 28.234375 72.621094 27.359375 72.371094 26.90625 72.375 C 26.425781 72.378906 26.023438 72.570312 25.535156 72.472656 C 25.386719 72.441406 25.324219 72.390625 25.226562 72.28125 C 25.070312 72.113281 25.238281 71.839844 25.414062 71.746094 C 25.679688 71.597656 26.175781 71.660156 26.476562 71.597656 C 27.101562 71.46875 27.707031 71.257812 28.203125 70.84375 C 28.496094 70.597656 28.742188 70.296875 28.917969 69.953125 C 29.253906 69.304688 29.328125 68.582031 29.46875 67.886719 C 29.515625 67.652344 29.574219 67.414062 29.71875 67.214844 C 30.171875 66.59375 30.980469 66.539062 31.273438 65.730469 C 31.425781 65.316406 31.359375 65.0625 31.183594 64.933594 C 31.167969 64.910156 31.148438 64.890625 31.128906 64.871094 C 31.109375 64.851562 31.089844 64.832031 31.066406 64.8125 C 30.9375 64.640625 30.683594 64.574219 30.269531 64.726562 C 29.460938 65.019531 29.40625 65.824219 28.785156 66.28125 C 28.585938 66.425781 28.347656 66.484375 28.113281 66.53125 C 27.417969 66.671875 26.695312 66.746094 26.046875 67.082031 C 25.703125 67.257812 25.402344 67.503906 25.15625 67.796875 C 24.742188 68.292969 24.53125 68.898438 24.402344 69.523438 C 24.339844 69.824219 24.402344 70.320312 24.253906 70.585938 C 24.160156 70.761719 23.886719 70.929688 23.71875 70.773438 C 23.609375 70.675781 23.558594 70.613281 23.527344 70.464844 C 23.429688 69.976562 23.621094 69.574219 23.625 69.09375 C 23.632812 68.636719 23.378906 67.765625 23.144531 67.371094 C 22.726562 66.675781 21.515625 66.476562 20.917969 65.953125 C 20.699219 65.761719 20.464844 65.566406 20.175781 65.488281 C 19.859375 65.398438 19.535156 65.488281 19.253906 65.644531 C 18.972656 65.800781 18.746094 66.050781 18.46875 66.214844 C 17.90625 66.554688 17.367188 65.820312 17.050781 66.042969 C 16.3125 66.558594 17.605469 67.078125 17.9375 67.1875 C 19.125 67.578125 20.324219 67.992188 21.011719 69.070312 C 21.46875 69.789062 21.65625 70.714844 21.417969 71.601562 C 21.269531 72.164062 21.246094 72.644531 21.234375 73.214844 C 21.234375 73.308594 21.234375 73.402344 21.199219 73.492188 C 21.152344 73.617188 21.046875 73.710938 20.945312 73.800781 C 20.207031 74.4375 19.351562 74.910156 18.585938 75.507812 C 17.828125 76.097656 16.117188 77.90625 17.050781 78.828125 C 17.070312 78.847656 17.09375 78.867188 17.113281 78.886719 " fill-opacity="1" fill-rule="nonzero"/><path fill="#c39d35" d="M 19.136719 91.777344 C 19.542969 93.191406 21.765625 95.445312 23.230469 95.796875 C 23.949219 95.96875 24.851562 96.003906 25.351562 95.367188 C 25.859375 94.726562 25.675781 93.382812 24.910156 93.007812 C 24.644531 92.878906 24.351562 92.90625 24.089844 93.027344 C 23.878906 93.125 23.683594 93.265625 23.570312 93.464844 C 23.414062 93.734375 23.484375 94.066406 23.648438 94.316406 C 23.855469 94.621094 24.058594 94.621094 24.40625 94.648438 C 24.050781 94.960938 23.515625 94.996094 23.070312 94.84375 C 22.40625 94.617188 21.929688 94.078125 21.453125 93.597656 C 20.96875 93.109375 20.5 92.609375 20.050781 92.09375 C 19.898438 91.925781 19.710938 91.679688 19.488281 91.605469 C 19.253906 91.53125 19.089844 91.617188 19.136719 91.777344 " fill-opacity="1" fill-rule="nonzero"/><path fill="#c39d35" d="M 4.222656 76.863281 C 2.808594 76.457031 0.554688 74.234375 0.203125 72.769531 C 0.03125 72.050781 -0.00390625 71.152344 0.636719 70.648438 C 1.273438 70.144531 2.621094 70.324219 2.996094 71.089844 C 3.125 71.355469 3.09375 71.648438 2.972656 71.910156 C 2.878906 72.121094 2.734375 72.316406 2.535156 72.429688 C 2.265625 72.585938 1.933594 72.515625 1.6875 72.351562 C 1.378906 72.144531 1.382812 71.941406 1.351562 71.597656 C 1.039062 71.949219 1.003906 72.484375 1.15625 72.929688 C 1.382812 73.59375 1.921875 74.070312 2.402344 74.550781 C 2.890625 75.03125 3.390625 75.5 3.90625 75.949219 C 4.078125 76.101562 4.324219 76.289062 4.394531 76.511719 C 4.46875 76.75 4.378906 76.910156 4.222656 76.863281 " fill-opacity="1" fill-rule="nonzero"/><path fill="#c39d35" d="M 26.5625 72.988281 C 27.769531 73.40625 30.289062 72.757812 31.105469 71.726562 C 31.507812 71.222656 31.875 70.492188 31.59375 69.730469 C 31.3125 68.96875 30.242188 68.402344 29.671875 68.839844 C 29.476562 68.992188 29.386719 69.253906 29.375 69.535156 C 29.367188 69.757812 29.398438 69.996094 29.503906 70.199219 C 29.644531 70.472656 29.917969 70.59375 30.164062 70.589844 C 30.46875 70.582031 30.546875 70.410156 30.703125 70.140625 C 30.796875 70.601562 30.617188 71.0625 30.335938 71.355469 C 29.917969 71.785156 29.335938 71.894531 28.792969 72.03125 C 28.25 72.175781 27.699219 72.296875 27.144531 72.394531 C 26.960938 72.429688 26.707031 72.453125 26.570312 72.605469 C 26.425781 72.757812 26.425781 72.941406 26.5625 72.988281 " fill-opacity="1" fill-rule="nonzero"/><path fill="#c39d35" d="M 23.011719 69.4375 C 22.597656 68.234375 23.242188 65.710938 24.273438 64.894531 C 24.777344 64.492188 25.507812 64.125 26.269531 64.40625 C 27.03125 64.691406 27.597656 65.757812 27.160156 66.328125 C 27.007812 66.523438 26.746094 66.613281 26.46875 66.625 C 26.242188 66.632812 26.003906 66.601562 25.800781 66.496094 C 25.527344 66.355469 25.40625 66.082031 25.410156 65.835938 C 25.417969 65.53125 25.589844 65.453125 25.863281 65.296875 C 25.398438 65.203125 24.9375 65.382812 24.644531 65.664062 C 24.214844 66.082031 24.105469 66.664062 23.96875 67.207031 C 23.824219 67.75 23.707031 68.300781 23.605469 68.855469 C 23.570312 69.039062 23.546875 69.289062 23.394531 69.429688 C 23.242188 69.574219 23.058594 69.574219 23.011719 69.4375 " fill-opacity="1" fill-rule="nonzero"/><path fill="#c39d35" d="M 4.722656 91.277344 C 4.871094 91.128906 5.027344 90.980469 5.027344 90.972656 C 5.019531 90.972656 4.871094 91.128906 4.722656 91.277344 Z M 12.882812 83.117188 C 13.609375 83.539062 14.425781 83.519531 15.183594 84.011719 C 16.71875 85 17.664062 86.582031 18.796875 87.972656 C 19.046875 88.28125 20.828125 90.875 21.015625 90.84375 C 20.019531 91.023438 18.933594 90.539062 18.398438 89.679688 C 18.394531 90.703125 18.09375 91.722656 17.542969 92.585938 C 17.273438 93.007812 16.839844 93.433594 16.347656 93.328125 C 15.96875 93.242188 15.734375 92.867188 15.566406 92.515625 C 15.179688 91.71875 14.910156 90.863281 14.761719 89.988281 C 14.117188 90.078125 13.421875 90.125 12.839844 89.824219 C 12.597656 89.695312 11.535156 88.515625 12.285156 88.351562 C 12.46875 88.308594 12.652344 88.410156 12.828125 88.472656 C 14.4375 89.050781 16.175781 86.496094 14.769531 85.328125 C 14.207031 84.863281 13.542969 84.449219 12.8125 84.449219 C 12.671875 84.453125 11.992188 85.007812 11.101562 85.792969 C 11.191406 85.816406 11.257812 85.933594 11.246094 86.097656 C 11.230469 86.300781 11.046875 86.480469 10.925781 86.621094 C 10.558594 87.046875 10.203125 87.484375 9.867188 87.933594 C 9.53125 88.382812 9.144531 88.832031 9.089844 89.429688 C 9.050781 89.832031 9.199219 90.304688 9.5625 90.605469 C 9.515625 90.296875 9.464844 90.113281 9.703125 89.917969 C 9.890625 89.761719 10.179688 89.683594 10.460938 89.808594 C 10.667969 89.902344 10.84375 90.066406 10.976562 90.25 C 11.144531 90.476562 11.238281 90.734375 11.179688 90.976562 C 11.007812 91.675781 9.820312 91.898438 9.121094 91.480469 C 8.425781 91.0625 8.257812 90.261719 8.253906 89.621094 C 8.25 89.058594 8.539062 88.359375 8.957031 87.710938 C 7.40625 89.117188 6.480469 90.871094 6.191406 91.054688 C 5.878906 91.507812 4.511719 91.628906 4.441406 91.558594 C 4.375 91.492188 4.492188 90.121094 4.945312 89.808594 C 5.128906 89.519531 6.882812 88.59375 8.289062 87.042969 C 7.640625 87.457031 6.941406 87.75 6.382812 87.746094 C 5.738281 87.742188 4.9375 87.574219 4.519531 86.878906 C 4.101562 86.179688 4.328125 84.992188 5.023438 84.824219 C 5.265625 84.761719 5.527344 84.855469 5.753906 85.023438 C 5.933594 85.160156 6.097656 85.332031 6.191406 85.539062 C 6.316406 85.820312 6.242188 86.109375 6.082031 86.296875 C 5.886719 86.535156 5.703125 86.484375 5.394531 86.4375 C 5.695312 86.800781 6.167969 86.949219 6.570312 86.910156 C 7.171875 86.855469 7.617188 86.46875 8.066406 86.132812 C 8.515625 85.796875 8.953125 85.441406 9.378906 85.074219 C 9.519531 84.953125 9.699219 84.769531 9.902344 84.753906 C 10.066406 84.742188 10.183594 84.808594 10.210938 84.902344 C 10.992188 84.007812 11.550781 83.328125 11.550781 83.1875 C 11.550781 82.457031 11.136719 81.792969 10.671875 81.230469 C 9.503906 79.828125 6.949219 81.5625 7.527344 83.171875 C 7.589844 83.347656 7.691406 83.53125 7.648438 83.714844 C 7.484375 84.464844 6.304688 83.402344 6.175781 83.160156 C 5.875 82.578125 5.921875 81.886719 6.011719 81.238281 C 5.136719 81.089844 4.285156 80.820312 3.484375 80.433594 C 3.132812 80.265625 2.757812 80.03125 2.675781 79.652344 C 2.566406 79.164062 2.992188 78.726562 3.414062 78.457031 C 4.277344 77.90625 5.296875 77.605469 6.320312 77.601562 C 5.460938 77.066406 4.976562 75.984375 5.15625 74.984375 C 5.121094 75.167969 7.71875 76.953125 8.027344 77.203125 C 9.414062 78.335938 11 79.285156 11.992188 80.816406 C 12.480469 81.574219 12.460938 82.390625 12.882812 83.117188 " fill-opacity="1" fill-rule="nonzero"/></svg>