<svg xmlns="http://www.w3.org/2000/svg" xmlns:xlink="http://www.w3.org/1999/xlink" width="128" zoomAndPan="magnify" viewBox="0 0 96 95.999999" height="128" preserveAspectRatio="xMidYMid meet" version="1.0"><defs><clipPath id="daa5bc4d2e"><path d="M 4.59375 25.632812 L 17.160156 25.632812 L 17.160156 95.984375 L 4.59375 95.984375 Z M 4.59375 25.632812 " clip-rule="nonzero"/></clipPath><clipPath id="a7fe294d90"><path d="M 27 4 L 93 4 L 93 14 L 27 14 Z M 27 4 " clip-rule="nonzero"/></clipPath><clipPath id="64b717139b"><path d="M 0.351562 18 L 11 18 L 11 24 L 0.351562 24 Z M 0.351562 18 " clip-rule="nonzero"/></clipPath></defs><path fill="#c39d35" d="M 29.84375 11.972656 C 29.824219 11.960938 29.800781 11.949219 29.78125 11.9375 C 29.742188 11.878906 29.695312 11.824219 29.648438 11.769531 C 30.046875 11.722656 30.382812 11.671875 30.367188 11.585938 C 30.3125 11.398438 30.28125 11.320312 30.570312 11.277344 C 30.828125 11.242188 31.058594 11.300781 31.296875 11.3125 L 32.402344 11.378906 L 34.378906 11.507812 L 35.371094 11.59375 C 35.542969 11.609375 35.695312 11.625 35.898438 11.65625 C 36.085938 11.691406 36.230469 11.738281 36.398438 11.777344 L 38.339844 12.285156 C 38.996094 12.484375 39.632812 12.761719 40.230469 13.085938 L 40.558594 13.269531 L 40.746094 13.378906 L 41.265625 13.703125 C 41.871094 14.097656 42.464844 14.515625 42.984375 15.019531 C 43.203125 15.230469 43.425781 15.351562 43.773438 15.394531 C 43.859375 15.402344 44.488281 15.570312 45.054688 15.601562 C 44.976562 15.742188 44.203125 15.992188 44.253906 16.105469 C 44.269531 16.144531 44.3125 16.160156 44.34375 16.183594 C 45.039062 16.726562 45.546875 17.519531 45.972656 18.320312 C 46.554688 19.40625 46.832031 20.574219 46.992188 21.777344 C 47.027344 22.074219 47.050781 22.375 47.0625 22.675781 C 47.089844 23.382812 47.027344 24.074219 46.925781 24.765625 C 46.824219 25.441406 46.601562 26.105469 46.464844 26.804688 C 46.453125 26.855469 46.457031 26.910156 46.4375 26.957031 C 46.410156 27.097656 46.394531 27.246094 46.375 27.394531 C 46.371094 27.527344 46.453125 28.078125 46.316406 28.175781 C 46.316406 28.175781 46.042969 27.671875 45.972656 27.699219 C 45.9375 27.714844 45.925781 27.804688 45.910156 27.835938 C 45.578125 28.5 45 29.058594 44.28125 29.410156 C 43.910156 29.597656 43.5 29.675781 43.128906 29.730469 C 42.746094 29.78125 42.351562 29.796875 41.957031 29.761719 L 41.789062 29.746094 C 41.34375 29.6875 40.894531 29.566406 40.488281 29.332031 C 39.710938 28.90625 39.164062 28.113281 39.003906 27.246094 C 38.828125 26.390625 39.070312 25.378906 39.792969 24.769531 C 40.347656 24.300781 41.167969 24.023438 41.894531 24.070312 C 42.148438 24.089844 42.457031 24.179688 42.738281 24.332031 C 43.203125 24.585938 43.582031 25.007812 43.480469 25.53125 C 43.429688 25.796875 43.21875 26.015625 42.96875 26.121094 C 42.160156 26.46875 41.910156 26.109375 41.511719 25.570312 C 41.222656 25.171875 41 25.125 40.503906 25.148438 C 40.203125 25.164062 39.925781 25.535156 39.800781 25.785156 C 39.613281 26.15625 39.554688 26.605469 39.621094 27.015625 L 39.628906 27.054688 C 39.695312 27.464844 39.871094 27.855469 40.128906 28.171875 C 40.164062 28.210938 40.1875 28.308594 40.300781 28.222656 C 40.394531 28.140625 40.511719 27.835938 40.621094 27.773438 C 40.640625 27.824219 40.59375 28.136719 40.609375 28.226562 C 40.671875 28.742188 41.160156 28.988281 41.621094 29.054688 C 42.265625 29.183594 42.980469 29.113281 43.605469 28.945312 C 44.207031 28.769531 44.695312 28.324219 45.078125 27.792969 C 45.292969 27.5 45.46875 27.175781 45.617188 26.839844 C 46.125 25.648438 46.296875 24.300781 46.3125 23.027344 L 46.3125 22.988281 L 46.308594 22.785156 C 46.300781 22.550781 46.285156 22.320312 46.265625 22.089844 C 46.257812 21.988281 46.222656 21.9375 46.035156 21.921875 C 45.921875 21.917969 45.414062 22.320312 45.292969 22.304688 C 45.433594 22.320312 45.628906 21.867188 45.734375 21.363281 C 45.847656 20.863281 45.863281 20.324219 45.847656 20.261719 C 45.691406 19.65625 45.492188 19.085938 45.191406 18.5625 C 44.605469 17.519531 43.738281 16.648438 42.804688 15.902344 C 41.453125 14.832031 40.066406 13.851562 38.550781 13.289062 C 38.414062 13.234375 38.589844 13.964844 38.433594 14.101562 C 38.421875 13.84375 37.910156 13.441406 37.789062 13.335938 C 37.613281 13.140625 37.425781 12.988281 37.199219 12.902344 C 36.808594 12.753906 36.398438 12.652344 35.988281 12.5625 C 35.613281 12.472656 35.195312 12.496094 34.777344 12.457031 C 34.066406 12.402344 33.347656 12.367188 32.628906 12.339844 C 32.199219 12.328125 30.980469 12.191406 29.953125 12.09375 C 29.929688 12.046875 29.894531 12.003906 29.84375 11.972656 " fill-opacity="1" fill-rule="nonzero"/><path fill="#c39d35" d="M 5.554688 15.972656 C 4.9375 15.257812 4.535156 14.355469 4.203125 13.4375 C 3.753906 12.226562 3.582031 10.914062 3.652344 9.605469 C 3.667969 9.285156 3.699219 8.960938 3.746094 8.636719 C 3.847656 7.898438 4.039062 7.15625 4.304688 6.453125 C 4.566406 5.757812 4.953125 5.113281 5.273438 4.421875 C 5.296875 4.371094 5.308594 4.316406 5.335938 4.269531 C 5.402344 4.128906 5.457031 3.984375 5.507812 3.832031 C 5.546875 3.699219 5.609375 3.125 5.757812 3.050781 C 5.757812 3.050781 5.914062 3.617188 5.988281 3.597656 C 6.03125 3.589844 6.0625 3.503906 6.085938 3.472656 C 6.578125 2.851562 7.300781 2.410156 8.066406 2.128906 C 8.867188 1.847656 9.734375 1.773438 10.574219 1.941406 L 10.753906 1.976562 C 11.222656 2.089844 11.679688 2.285156 12.085938 2.582031 C 12.84375 3.121094 13.367188 4.042969 13.359375 5.003906 C 13.371094 5.941406 12.941406 6.941406 12.078125 7.472656 C 11.394531 7.90625 10.203125 7.769531 9.261719 7.40625 C 8.792969 7.226562 8.246094 7.015625 8.039062 6.519531 C 7.699219 5.71875 8.375 5.082031 9.179688 5.183594 C 10.238281 5.320312 10.519531 7.035156 11.714844 6.808594 C 12.441406 6.671875 12.707031 5.773438 12.707031 5.128906 L 12.707031 5.085938 C 12.722656 4.632812 12.589844 4.207031 12.359375 3.828125 C 12.328125 3.78125 12.308594 3.679688 12.1875 3.75 C 12.082031 3.824219 11.9375 4.117188 11.820312 4.167969 C 11.808594 4.109375 11.882812 3.789062 11.867188 3.695312 C 11.835938 3.148438 11.347656 2.816406 10.859375 2.6875 C 10.179688 2.472656 9.425781 2.464844 8.738281 2.640625 C 8.046875 2.796875 7.441406 3.1875 6.914062 3.660156 C 6.621094 3.929688 6.359375 4.230469 6.121094 4.550781 C 5.296875 5.6875 4.789062 7.050781 4.546875 8.402344 L 4.539062 8.441406 L 4.507812 8.660156 C 4.46875 8.90625 4.445312 9.15625 4.421875 9.40625 C 4.414062 9.515625 4.4375 9.574219 4.617188 9.625 C 4.730469 9.648438 5.296875 9.3125 5.414062 9.351562 C 5.28125 9.3125 5.007812 9.753906 4.820312 10.265625 C 4.628906 10.773438 4.542969 11.339844 4.550781 11.40625 C 4.628906 12.066406 4.785156 12.714844 5.015625 13.324219 C 5.496094 14.527344 6.222656 15.644531 7.078125 16.601562 C 8.292969 17.984375 9.683594 19.167969 11.128906 20.238281 C 11.261719 20.339844 11.246094 19.550781 11.4375 19.46875 C 11.402344 19.734375 11.855469 20.328125 11.925781 20.480469 C 12.039062 20.742188 12.179688 20.960938 12.378906 21.132812 C 13.082031 21.730469 13.902344 22.136719 14.671875 22.648438 C 15.320312 23.097656 15.96875 23.582031 16.550781 24.175781 C 16.835938 24.476562 17.105469 24.8125 17.324219 25.203125 C 17.539062 25.589844 17.6875 26.078125 17.640625 26.578125 C 17.617188 26.589844 17.582031 26.648438 17.582031 26.648438 C 17.582031 26.648438 17.425781 26.730469 17.125 26.890625 C 16.832031 27.054688 16.421875 27.355469 15.984375 27.824219 C 15.566406 28.3125 15.128906 28.984375 14.789062 29.851562 C 14.445312 30.71875 14.207031 31.773438 14.0625 32.949219 C 13.898438 34.191406 13.835938 35.589844 13.851562 37.105469 C 13.867188 38.738281 13.917969 40.421875 14.023438 42.15625 C 14.0625 42.753906 14.101562 43.363281 14.144531 43.972656 C 14.234375 45.414062 14.328125 46.886719 14.425781 48.394531 C 14.46875 49.175781 14.507812 49.96875 14.53125 50.777344 C 14.5625 51.488281 14.480469 52.222656 14.550781 52.953125 C 14.601562 53.410156 14.5 53.871094 14.484375 54.332031 C 14.472656 54.570312 14.476562 54.8125 14.535156 55.054688 C 14.582031 55.285156 14.746094 55.523438 14.855469 55.769531 C 14.945312 55.953125 15.03125 56.394531 15.152344 56.769531 C 15.019531 56.78125 14.355469 56.261719 14.269531 56.316406 C 14.210938 56.355469 14.257812 56.449219 14.25 56.503906 L 14.207031 56.738281 C 14.164062 56.988281 14.09375 57.230469 14.035156 57.476562 C 13.976562 57.722656 13.914062 57.96875 13.839844 58.210938 C 13.355469 59.875 12.664062 61.488281 11.929688 63.09375 C 11.464844 64.113281 10.992188 65.136719 10.546875 66.183594 C 10.226562 66.984375 9.894531 67.789062 9.632812 68.617188 C 9.597656 68.71875 9.558594 68.820312 9.574219 68.933594 C 9.609375 69.277344 10.300781 70.023438 10.144531 70.296875 C 9.9375 70.234375 9.457031 69.933594 9.3125 69.976562 C 9.082031 70.046875 9.148438 70.453125 9.117188 70.601562 C 9.0625 70.855469 9.03125 71.117188 8.984375 71.375 C 8.707031 73.320312 8.746094 75.367188 9.089844 77.429688 L 9.117188 77.621094 L 9.21875 78.152344 C 9.335938 78.78125 9.503906 79.402344 9.609375 80.046875 C 9.652344 80.320312 9.761719 80.519531 10.003906 80.71875 C 10.058594 80.765625 10.46875 81.179688 10.902344 81.386719 C 10.78125 81.476562 10.054688 81.371094 10.042969 81.472656 C 10.039062 81.507812 10.070312 81.539062 10.082031 81.570312 C 10.40625 82.277344 10.578125 83.0625 10.859375 83.800781 C 11.234375 84.78125 11.613281 85.761719 12.164062 86.640625 C 12.300781 86.855469 12.445312 87.066406 12.601562 87.265625 C 12.964844 87.730469 13.378906 88.109375 13.882812 88.421875 C 14.355469 88.722656 14.894531 89.019531 15.476562 89.03125 C 15.515625 89.03125 15.558594 89.019531 15.597656 89.027344 C 15.710938 89.015625 15.824219 89.003906 15.933594 88.960938 C 16.039062 88.933594 16.335938 88.640625 16.414062 88.679688 C 16.429688 88.683594 16.234375 89.140625 16.265625 89.179688 C 16.292969 89.203125 16.351562 89.167969 16.382812 89.164062 C 16.945312 89.097656 17.511719 88.988281 17.96875 88.644531 C 18.445312 88.308594 18.777344 87.777344 18.933594 87.195312 L 18.964844 87.070312 C 19.039062 86.738281 19.058594 86.394531 19.019531 86.054688 C 18.949219 85.507812 18.722656 85.027344 18.347656 84.625 C 18.082031 84.339844 18.050781 84.128906 17.625 84.0625 C 17.007812 83.964844 16.402344 84.203125 16.339844 84.871094 C 16.316406 85.09375 16.324219 85.320312 16.25 85.53125 C 16.070312 86.042969 15.464844 86.007812 15.21875 85.585938 C 15.191406 85.539062 15.167969 85.488281 15.144531 85.429688 C 14.9375 84.914062 15.046875 84.191406 15.410156 83.796875 C 15.691406 83.472656 16.140625 83.332031 16.515625 83.3125 C 17.210938 83.289062 17.855469 83.519531 18.394531 83.890625 L 18.433594 83.917969 C 18.820312 84.195312 19.132812 84.570312 19.335938 84.992188 C 19.363281 85.050781 19.367188 85.152344 19.492188 85.117188 C 19.605469 85.089844 19.746094 84.769531 19.855469 84.730469 C 19.894531 84.84375 19.816406 85.230469 19.777344 85.332031 C 19.640625 85.9375 19.660156 86.414062 19.601562 86.9375 C 19.503906 87.644531 19.191406 88.324219 18.695312 88.84375 C 18.195312 89.359375 17.519531 89.699219 16.824219 89.785156 C 16.433594 89.847656 16.046875 89.828125 15.664062 89.785156 C 14.339844 89.578125 13.125 88.925781 12.265625 87.941406 L 12.238281 87.914062 L 12.105469 87.753906 C 11.960938 87.574219 11.824219 87.386719 11.699219 87.191406 C 11.644531 87.109375 11.59375 87.078125 11.433594 87.136719 C 11.324219 87.167969 11.121094 87.765625 11.027344 87.8125 C 11.144531 87.765625 11.023438 87.222656 10.945312 86.699219 C 10.855469 86.171875 10.789062 85.65625 10.765625 85.597656 C 10.523438 85.035156 10.324219 84.472656 10.113281 83.917969 C 9.710938 82.8125 9.335938 81.710938 9.007812 80.613281 C 8.53125 79.046875 8.226562 77.453125 8.070312 75.875 C 8.054688 75.722656 7.53125 76.214844 7.359375 76.136719 C 7.550781 75.996094 7.699219 75.328125 7.765625 75.199219 C 7.882812 74.96875 7.972656 74.75 7.984375 74.523438 C 8.039062 73.71875 7.964844 72.910156 8.03125 72.117188 C 8.101562 71.246094 8.257812 70.390625 8.4375 69.554688 L 8.496094 69.347656 L 8.550781 69.140625 C 8.777344 68.238281 9.085938 67.375 9.398438 66.53125 C 9.5625 66.121094 9.71875 65.710938 9.890625 65.3125 L 10.144531 64.714844 C 10.175781 64.636719 10.257812 64.566406 10.179688 64.457031 C 10.109375 64.363281 9.53125 64.453125 9.425781 64.363281 C 9.394531 64.332031 10.027344 63.976562 10.054688 63.957031 L 10.339844 63.761719 C 10.71875 63.507812 10.820312 63.125 10.984375 62.761719 C 11.164062 62.371094 11.335938 61.980469 11.503906 61.59375 C 12.191406 60.019531 12.730469 58.445312 13.0625 56.875 C 13.421875 55.347656 13.417969 53.808594 13.382812 52.285156 C 13.363281 51.640625 13.332031 51 13.296875 50.367188 C 13.289062 50.113281 13.34375 47.371094 13.058594 47.363281 C 12.84375 47.359375 12.195312 47.8125 12.152344 47.703125 C 12.382812 47.273438 12.875 46.46875 12.964844 46.082031 C 12.988281 45.96875 12.980469 45.855469 12.972656 45.742188 C 12.71875 42.75 12.605469 39.863281 12.664062 37.085938 C 12.738281 35.527344 12.882812 34.089844 13.125 32.800781 C 13.363281 31.578125 13.671875 30.480469 14.082031 29.554688 C 14.484375 28.628906 14.984375 27.890625 15.46875 27.347656 C 15.898438 26.898438 16.292969 26.59375 16.613281 26.390625 C 16.601562 26.234375 16.601562 26.0625 16.550781 25.886719 C 16.445312 25.59375 16.257812 25.304688 16.035156 25.027344 C 15.195312 24.03125 13.992188 23.296875 12.816406 22.5 C 11.640625 21.707031 10.464844 20.894531 9.355469 19.980469 L 9.050781 19.726562 L 8.871094 19.578125 L 8.382812 19.148438 C 7.816406 18.628906 7.242188 18.097656 6.765625 17.46875 C 6.574219 17.199219 6.359375 17.035156 6.011719 16.910156 C 5.929688 16.875 5.304688 16.570312 4.746094 16.414062 C 4.847656 16.28125 5.664062 16.199219 5.632812 16.070312 C 5.621094 16.03125 5.578125 16.003906 5.554688 15.972656 " fill-opacity="1" fill-rule="nonzero"/><g clip-path="url(#daa5bc4d2e)"><path fill="#c39d35" d="M 5.109375 77.394531 C 5.035156 76.828125 5.011719 76.265625 4.972656 75.707031 C 4.941406 74.601562 4.953125 73.511719 5.03125 72.4375 C 5.140625 70.90625 5.414062 69.421875 5.761719 67.992188 C 5.792969 67.855469 5.183594 68.121094 5.050781 68.003906 C 5.265625 67.9375 5.585938 67.402344 5.691406 67.304688 C 5.863281 67.140625 5.996094 66.972656 6.070312 66.773438 C 6.347656 66.078125 6.472656 65.335938 6.691406 64.636719 C 6.945312 63.878906 7.179688 63.101562 7.5 62.367188 L 7.574219 62.183594 L 7.65625 62.003906 C 8.003906 61.210938 8.394531 60.453125 8.789062 59.714844 C 8.984375 59.355469 9.175781 58.996094 9.367188 58.640625 L 9.65625 58.113281 C 9.695312 58.042969 9.773438 57.984375 9.707031 57.878906 C 9.652344 57.785156 9.109375 57.816406 9.019531 57.722656 C 8.988281 57.691406 9.601562 57.421875 9.628906 57.402344 L 9.90625 57.25 C 10.277344 57.039062 10.390625 56.6875 10.558594 56.363281 C 10.738281 56.007812 10.917969 55.65625 11.070312 55.296875 C 11.734375 53.851562 12.15625 52.371094 12.257812 50.886719 C 12.390625 49.433594 12.246094 47.988281 12.042969 46.582031 C 11.957031 45.988281 11.855469 45.402344 11.746094 44.816406 C 11.710938 44.585938 11.453125 42.03125 11.191406 42.050781 C 10.996094 42.066406 10.441406 42.558594 10.390625 42.460938 C 10.550781 42.03125 10.933594 41.222656 10.984375 40.851562 C 11 40.742188 10.980469 40.636719 10.964844 40.53125 C 10.753906 39.113281 10.664062 37.699219 10.746094 36.320312 C 10.84375 34.941406 11.050781 33.601562 11.421875 32.324219 C 11.875 30.90625 12.5 29.664062 13.21875 28.644531 C 13.898438 27.667969 14.726562 26.953125 15.472656 26.378906 C 15.800781 26.164062 16.273438 25.90625 16.582031 25.75 C 16.800781 25.890625 16.871094 26.105469 17.109375 26.238281 C 16.722656 26.425781 16.316406 26.660156 15.894531 26.960938 C 15.234375 27.519531 14.511719 28.203125 13.953125 29.144531 C 13.347656 30.113281 12.835938 31.289062 12.492188 32.628906 C 12.117188 34.066406 11.921875 35.601562 11.921875 37.179688 C 11.898438 37.726562 11.96875 38.277344 11.984375 38.835938 C 12.101562 40.128906 12.300781 41.472656 12.574219 42.859375 C 12.695312 43.582031 12.816406 44.316406 12.941406 45.054688 C 13.050781 45.714844 13.058594 46.40625 13.199219 47.082031 C 13.296875 47.5 13.25 47.9375 13.285156 48.371094 C 13.296875 48.589844 13.328125 48.8125 13.410156 49.03125 C 13.480469 49.238281 13.65625 49.4375 13.785156 49.648438 C 13.886719 49.804688 14.03125 50.203125 14.183594 50.539062 C 14.058594 50.5625 13.382812 50.164062 13.3125 50.226562 C 13.257812 50.269531 13.316406 50.347656 13.3125 50.398438 L 13.300781 50.621094 C 13.289062 50.859375 13.253906 51.09375 13.230469 51.332031 C 13.210938 51.570312 13.160156 51.804688 13.125 52.046875 C 12.839844 53.683594 12.179688 55.21875 11.429688 56.710938 C 10.945312 57.65625 10.414062 58.582031 9.894531 59.519531 C 9.503906 60.230469 9.097656 60.941406 8.734375 61.675781 C 8.6875 61.765625 8.640625 61.855469 8.636719 61.960938 C 8.609375 62.285156 9.152344 63.082031 8.949219 63.3125 C 8.769531 63.226562 8.378906 62.871094 8.234375 62.890625 C 8.007812 62.921875 8.007812 63.304688 7.960938 63.4375 C 7.871094 63.664062 7.789062 63.898438 7.707031 64.136719 C 7.097656 65.910156 6.546875 67.753906 6.167969 69.679688 L 6.132812 69.859375 C 6.097656 70.023438 6.0625 70.1875 6.039062 70.355469 C 5.933594 70.945312 5.867188 71.546875 5.746094 72.144531 C 5.6875 72.394531 5.726562 72.609375 5.871094 72.859375 C 5.914062 72.917969 6.113281 73.410156 6.441406 73.726562 C 6.308594 73.765625 5.699219 73.445312 5.65625 73.527344 C 5.640625 73.558594 5.660156 73.597656 5.664062 73.625 C 5.722656 74.34375 5.632812 75.082031 5.671875 75.816406 C 5.726562 76.78125 5.855469 77.753906 6.058594 78.726562 C 6.109375 78.964844 6.179688 79.199219 6.238281 79.4375 C 6.308594 79.714844 6.390625 79.988281 6.484375 80.253906 C 6.582031 80.523438 6.660156 80.796875 6.765625 81.066406 C 6.96875 81.589844 7.144531 82.148438 7.472656 82.632812 C 7.496094 82.667969 7.527344 82.699219 7.542969 82.734375 C 7.617188 82.828125 7.695312 82.917969 7.78125 83.003906 C 7.859375 83.078125 8.253906 83.269531 8.257812 83.386719 C 8.257812 83.386719 8.136719 83.382812 8.015625 83.382812 C 7.890625 83.378906 7.765625 83.386719 7.757812 83.414062 C 7.75 83.445312 7.804688 83.492188 7.820312 83.519531 C 8.113281 84.039062 8.300781 84.632812 8.519531 85.203125 C 8.746094 85.796875 8.945312 86.414062 9.09375 87.050781 L 9.125 87.183594 C 9.203125 87.542969 9.269531 87.910156 9.3125 88.273438 C 9.476562 89.640625 9.449219 91.050781 9.199219 92.445312 C 9.046875 93.339844 8.789062 94.230469 8.449219 95.09375 C 8.351562 95.316406 8.261719 95.542969 8.15625 95.761719 L 8.074219 95.929688 C 8.066406 95.945312 8.050781 95.964844 8.050781 95.984375 C 8.109375 95.449219 8.074219 94.921875 8.15625 94.441406 C 8.179688 94.300781 8.210938 94.164062 8.261719 94.03125 C 8.484375 93.410156 8.605469 92.761719 8.703125 92.121094 C 8.785156 91.5625 8.835938 91 8.851562 90.441406 L 8.851562 90.402344 C 8.867188 90.003906 8.851562 89.609375 8.828125 89.214844 C 8.828125 89.164062 8.851562 89.074219 8.730469 89.074219 C 8.625 89.074219 8.394531 89.261719 8.285156 89.253906 C 8.296875 89.179688 8.484375 88.929688 8.527344 88.855469 C 8.78125 88.410156 8.726562 87.964844 8.625 87.53125 C 8.382812 86.332031 7.902344 85.207031 7.410156 84.105469 C 7.269531 83.796875 7.128906 83.488281 6.992188 83.179688 C 6.496094 82.105469 6.03125 81.015625 5.691406 79.890625 L 5.683594 79.859375 L 5.632812 79.679688 L 5.472656 79.0625 C 5.449219 78.972656 5.414062 78.933594 5.257812 78.933594 C 5.148438 78.929688 4.785156 79.371094 4.679688 79.378906 C 4.886719 79.355469 5.09375 77.496094 5.109375 77.394531 " fill-opacity="1" fill-rule="nonzero"/></g><path fill="#c39d35" d="M 27.890625 10.878906 C 27.847656 10.832031 27.808594 10.78125 27.765625 10.742188 C 28.128906 10.6875 28.492188 10.640625 28.871094 10.59375 C 30.582031 10.390625 32.347656 10.3125 34.15625 10.253906 C 34.78125 10.238281 35.414062 10.21875 36.050781 10.203125 C 37.539062 10.195312 39.0625 10.1875 40.617188 10.179688 C 41.417969 10.179688 42.230469 10.175781 43.050781 10.171875 C 43.773438 10.15625 44.519531 10.242188 45.25 10.132812 C 45.703125 10.066406 46.164062 10.121094 46.625 10.085938 C 46.859375 10.066406 47.089844 10.023438 47.316406 9.929688 C 47.527344 9.835938 47.710938 9.613281 47.902344 9.453125 C 48.050781 9.339844 48.40625 9.105469 48.675781 8.878906 C 48.734375 9.007812 48.488281 9.816406 48.554688 9.878906 C 48.613281 9.929688 48.683594 9.851562 48.730469 9.84375 L 48.960938 9.8125 L 49.671875 9.683594 L 50.386719 9.515625 C 52.003906 9.105469 53.597656 8.40625 55.203125 7.605469 C 56.222656 7.097656 57.25 6.539062 58.3125 5.996094 C 59.113281 5.574219 59.941406 5.171875 60.804688 4.808594 C 60.910156 4.761719 61.015625 4.714844 61.101562 4.632812 C 61.359375 4.390625 61.597656 3.304688 62.007812 3.285156 C 62.0625 3.5 62.054688 4.085938 62.183594 4.183594 C 62.382812 4.34375 62.714844 4.0625 62.875 4.007812 C 63.140625 3.910156 63.421875 3.84375 63.695312 3.761719 C 65.769531 3.175781 67.992188 3.007812 70.21875 3.171875 L 70.425781 3.183594 L 71 3.238281 C 71.679688 3.304688 72.363281 3.382812 73.035156 3.558594 C 73.3125 3.632812 73.550781 3.632812 73.855469 3.5 C 73.933594 3.464844 74.519531 3.308594 74.960938 3.03125 C 74.972656 3.1875 74.492188 3.78125 74.582031 3.84375 C 74.613281 3.867188 74.65625 3.855469 74.691406 3.859375 C 75.511719 3.941406 76.304688 4.246094 77.097656 4.484375 C 78.148438 4.796875 79.21875 5.117188 80.277344 5.613281 C 80.535156 5.734375 80.792969 5.871094 81.042969 6.019531 C 81.617188 6.355469 82.191406 6.769531 82.640625 7.3125 C 83.082031 7.835938 83.378906 8.457031 83.730469 9.054688 C 83.757812 9.097656 83.789062 9.136719 83.804688 9.183594 C 83.875 9.308594 83.964844 9.421875 84.039062 9.546875 C 84.074219 9.601562 84.195312 9.714844 84.300781 9.839844 C 84.402344 9.964844 84.488281 10.101562 84.472656 10.175781 C 84.472656 10.175781 83.964844 9.960938 83.933594 10.027344 C 83.914062 10.0625 83.960938 10.132812 83.96875 10.167969 C 84.140625 10.871094 83.988281 11.664062 83.652344 12.332031 C 83.316406 13.035156 82.691406 13.605469 81.980469 13.90625 L 81.828125 13.972656 C 81.417969 14.125 80.984375 14.210938 80.542969 14.21875 C 79.726562 14.242188 78.863281 13.949219 78.246094 13.339844 C 77.65625 12.730469 77.277344 11.921875 77.296875 11.039062 C 77.324219 10.730469 77.375 10.425781 77.570312 10.15625 C 77.746094 9.898438 78.003906 9.679688 78.292969 9.574219 C 78.988281 9.3125 79.65625 9.449219 80.214844 9.871094 C 80.503906 10.082031 80.875 10.433594 80.820312 10.832031 C 80.792969 11.0625 80.574219 11.121094 80.402344 11.222656 C 79.535156 11.742188 79.257812 9.703125 78.257812 10.363281 C 77.425781 10.90625 78.121094 12.296875 78.605469 12.824219 L 78.632812 12.855469 C 78.910156 13.148438 79.265625 13.355469 79.648438 13.472656 C 79.699219 13.492188 79.773438 13.542969 79.816406 13.417969 C 79.847656 13.304688 79.765625 13.007812 79.820312 12.894531 C 79.863281 12.929688 80.015625 13.195312 80.078125 13.265625 C 80.425781 13.644531 80.945312 13.617188 81.375 13.472656 C 81.988281 13.289062 82.535156 12.90625 82.871094 12.394531 C 83.21875 11.878906 83.375 11.257812 83.335938 10.640625 C 83.328125 10.292969 83.25 9.949219 83.148438 9.613281 C 82.777344 8.429688 81.984375 7.417969 80.945312 6.792969 L 80.914062 6.773438 L 80.75 6.671875 C 80.558594 6.5625 80.363281 6.453125 80.164062 6.351562 C 80.078125 6.308594 80.019531 6.3125 79.914062 6.453125 C 79.851562 6.542969 79.921875 7.152344 79.851562 7.238281 C 79.929688 7.136719 79.664062 6.75 79.304688 6.40625 C 78.949219 6.058594 78.519531 5.753906 78.464844 5.730469 C 77.890625 5.527344 77.3125 5.335938 76.734375 5.167969 C 75.589844 4.828125 74.441406 4.554688 73.296875 4.371094 C 71.664062 4.101562 70.050781 3.941406 68.46875 3.953125 C 68.320312 3.957031 68.75 4.535156 68.65625 4.710938 C 68.546875 4.492188 67.917969 4.3125 67.789062 4.234375 C 67.566406 4.105469 67.347656 4.03125 67.117188 4.019531 C 66.3125 4 65.523438 4.21875 64.769531 4.402344 C 63.921875 4.582031 63.117188 4.871094 62.324219 5.171875 L 62.128906 5.25 L 61.929688 5.332031 C 61.078125 5.679688 60.25 6.078125 59.441406 6.496094 C 59.046875 6.707031 58.652344 6.914062 58.261719 7.121094 L 57.679688 7.433594 C 57.601562 7.476562 57.492188 7.480469 57.488281 7.621094 C 57.484375 7.742188 58.003906 8.039062 58.03125 8.179688 C 58.039062 8.222656 57.308594 8.109375 57.269531 8.105469 L 56.914062 8.082031 C 56.449219 8.050781 56.117188 8.296875 55.746094 8.480469 C 55.347656 8.679688 54.945312 8.875 54.546875 9.070312 C 52.917969 9.832031 51.257812 10.523438 49.523438 10.851562 C 47.839844 11.164062 46.203125 11.273438 44.601562 11.363281 C 43.925781 11.386719 43.257812 11.410156 42.59375 11.433594 C 42.328125 11.445312 39.5 11.238281 39.476562 11.527344 C 39.457031 11.742188 39.886719 12.4375 39.769531 12.476562 C 39.339844 12.214844 38.542969 11.65625 38.148438 11.539062 C 38.035156 11.503906 37.917969 11.507812 37.804688 11.511719 C 34.960938 11.574219 32.242188 11.574219 29.648438 11.765625 C 29.226562 11.277344 28.578125 11.015625 27.890625 10.878906 " fill-opacity="1" fill-rule="nonzero"/><g clip-path="url(#a7fe294d90)"><path fill="#c39d35" d="M 27.972656 10.894531 C 27.972656 10.886719 27.96875 10.878906 27.964844 10.871094 C 28.761719 10.722656 29.570312 10.617188 30.398438 10.578125 C 30.679688 10.566406 30.960938 10.554688 31.246094 10.542969 C 31.527344 10.550781 31.8125 10.558594 32.101562 10.566406 C 33.441406 10.617188 34.808594 10.828125 36.164062 11.105469 C 36.859375 11.261719 37.5625 11.417969 38.277344 11.578125 C 38.90625 11.710938 39.523438 11.953125 40.179688 12 C 40.589844 12.03125 40.972656 12.175781 41.378906 12.234375 C 41.585938 12.261719 41.796875 12.273438 42.015625 12.230469 C 42.222656 12.183594 42.4375 12.023438 42.648438 11.914062 C 42.804688 11.835938 43.175781 11.6875 43.46875 11.535156 C 43.488281 11.664062 43.0625 12.355469 43.105469 12.429688 C 43.144531 12.484375 43.222656 12.429688 43.269531 12.429688 C 43.339844 12.4375 43.40625 12.445312 43.476562 12.445312 L 44.136719 12.472656 L 44.804688 12.464844 C 45.566406 12.433594 46.335938 12.34375 47.101562 12.167969 C 47.878906 11.976562 48.664062 11.710938 49.453125 11.394531 C 50.460938 10.992188 51.472656 10.5 52.511719 9.980469 C 53.300781 9.578125 54.113281 9.175781 54.953125 8.777344 C 55.054688 8.730469 55.15625 8.683594 55.246094 8.597656 C 55.503906 8.34375 55.789062 7.277344 56.175781 7.230469 C 56.21875 7.4375 56.183594 8.011719 56.300781 8.101562 C 56.484375 8.242188 56.816406 7.9375 56.972656 7.878906 C 57.238281 7.777344 57.503906 7.667969 57.777344 7.570312 C 59.808594 6.871094 61.90625 6.308594 64.113281 5.871094 L 64.316406 5.828125 L 64.890625 5.726562 C 65.570312 5.601562 66.261719 5.492188 66.957031 5.46875 C 67.246094 5.464844 67.484375 5.394531 67.773438 5.175781 C 67.84375 5.117188 68.417969 4.804688 68.835938 4.414062 C 68.867188 4.558594 68.449219 5.273438 68.550781 5.308594 C 68.585938 5.324219 68.628906 5.300781 68.664062 5.292969 C 69.503906 5.136719 70.351562 5.234375 71.1875 5.273438 C 72.304688 5.316406 73.421875 5.457031 74.515625 5.707031 C 74.785156 5.773438 75.0625 5.816406 75.328125 5.902344 L 76.246094 6.175781 L 77.140625 6.515625 C 77.722656 6.742188 78.246094 7.082031 78.863281 7.25 C 78.90625 7.261719 78.957031 7.265625 78.996094 7.285156 C 79.121094 7.3125 79.253906 7.332031 79.390625 7.339844 C 79.511719 7.347656 80.019531 7.222656 80.089844 7.316406 C 80.089844 7.316406 79.964844 7.402344 79.84375 7.492188 C 79.71875 7.582031 79.597656 7.675781 79.605469 7.703125 C 79.613281 7.738281 79.699219 7.738281 79.726562 7.75 C 80.320312 7.976562 80.84375 8.328125 81.417969 8.589844 C 82.011719 8.859375 82.625 9.105469 83.261719 9.292969 L 83.398438 9.335938 C 83.757812 9.441406 84.132812 9.519531 84.511719 9.589844 C 85.945312 9.832031 87.5 9.855469 89.101562 9.644531 C 90.132812 9.511719 91.1875 9.265625 92.242188 8.925781 C 92.519531 8.828125 92.796875 8.738281 93.070312 8.628906 L 93.28125 8.546875 C 93.304688 8.539062 93.332031 8.535156 93.351562 8.519531 C 92.828125 8.929688 92.304688 9.378906 91.714844 9.648438 C 91.542969 9.722656 91.371094 9.78125 91.191406 9.824219 C 90.378906 10.007812 89.570312 10.191406 88.773438 10.289062 C 88.082031 10.375 87.398438 10.410156 86.730469 10.410156 L 86.683594 10.410156 C 86.207031 10.40625 85.738281 10.386719 85.277344 10.34375 C 85.21875 10.335938 85.132812 10.289062 85.078125 10.425781 C 85.027344 10.542969 85.15625 10.828125 85.105469 10.945312 C 85.015625 10.921875 84.796875 10.664062 84.734375 10.59375 C 84.34375 10.214844 83.855469 10.121094 83.359375 10.007812 C 82.015625 9.660156 80.800781 9.117188 79.660156 8.546875 C 79.339844 8.386719 79.023438 8.226562 78.703125 8.066406 C 77.601562 7.496094 76.488281 7.011719 75.308594 6.691406 L 75.277344 6.683594 L 75.089844 6.628906 C 74.882812 6.558594 74.664062 6.515625 74.445312 6.464844 C 74.351562 6.441406 74.289062 6.457031 74.191406 6.621094 C 74.128906 6.726562 74.257812 7.308594 74.191406 7.414062 C 74.265625 7.292969 73.9375 6.980469 73.554688 6.703125 C 73.160156 6.445312 72.71875 6.214844 72.660156 6.207031 C 72.0625 6.132812 71.46875 6.050781 70.867188 6.039062 C 69.683594 5.976562 68.496094 6.035156 67.324219 6.183594 C 65.664062 6.386719 64.039062 6.679688 62.464844 7.058594 C 62.316406 7.09375 62.796875 7.558594 62.71875 7.746094 C 62.585938 7.5625 61.941406 7.515625 61.804688 7.476562 C 61.574219 7.398438 61.351562 7.363281 61.125 7.398438 C 60.328125 7.53125 59.554688 7.863281 58.792969 8.109375 C 57.964844 8.375 57.167969 8.699219 56.386719 9.050781 L 56.191406 9.136719 L 56 9.226562 C 55.160156 9.617188 54.339844 10.039062 53.53125 10.453125 C 53.132812 10.65625 52.742188 10.859375 52.351562 11.058594 L 51.765625 11.351562 C 51.6875 11.390625 51.582031 11.394531 51.5625 11.527344 C 51.542969 11.640625 51.996094 11.933594 52.003906 12.066406 C 52.007812 12.113281 51.324219 11.984375 51.292969 11.980469 L 50.964844 11.945312 C 50.527344 11.890625 50.191406 12.113281 49.8125 12.261719 C 49.414062 12.429688 49.007812 12.574219 48.601562 12.714844 C 46.976562 13.289062 45.277344 13.558594 43.699219 13.5 C 42.164062 13.457031 40.707031 13.234375 39.308594 12.972656 C 38.722656 12.859375 38.144531 12.742188 37.570312 12.625 C 37.34375 12.570312 34.976562 11.851562 34.898438 12.132812 C 34.84375 12.324219 35.0625 13.023438 34.957031 13.035156 C 34.660156 12.738281 34.09375 12.125 33.773438 11.964844 C 33.683594 11.914062 33.582031 11.914062 33.484375 11.902344 C 32.199219 11.777344 30.933594 11.75 29.707031 11.835938 C 29.304688 11.324219 28.664062 11.042969 27.972656 10.894531 " fill-opacity="1" fill-rule="nonzero"/></g><path fill="#c39d35" d="M 13.769531 24.800781 C 13.460938 24.675781 12.511719 25.589844 12.199219 25.558594 C 12.167969 25.449219 12.566406 25.140625 12.667969 25.105469 C 12.375 25.183594 11.09375 25.617188 10.792969 25.734375 C 10.199219 25.972656 9.542969 26.101562 8.875 26.15625 C 7.800781 26.238281 6.699219 26.128906 5.605469 25.992188 C 5.421875 25.671875 9.105469 26.070312 9.839844 25.636719 C 8.871094 25.628906 8.105469 25.3125 7.5 25.175781 C 7.332031 24.90625 8.550781 25.203125 9.078125 25.257812 C 10.316406 25.386719 12.609375 25.214844 13.535156 24.511719 C 13.472656 24.484375 11.9375 24.160156 11.484375 24.054688 C 10.980469 23.9375 10.476562 23.777344 9.980469 23.632812 C 9.488281 23.492188 9.371094 23.667969 9.308594 24.046875 C 9.273438 24.246094 8.625 24.015625 8.433594 23.988281 C 8.03125 23.933594 7.628906 23.910156 7.230469 23.921875 C 6.507812 23.9375 5.347656 24.011719 4.855469 24.472656 C 4.714844 24.605469 5.082031 24.800781 5.132812 24.898438 C 5.25 25.140625 5.082031 25.183594 4.863281 25.304688 C 4.082031 25.734375 3.242188 25.953125 2.324219 26.128906 C 1.980469 26.191406 3.136719 27.21875 3.257812 27.3125 C 3.875 27.804688 4.609375 28.191406 5.402344 28.371094 C 6.519531 28.628906 7.246094 28.277344 8.199219 27.949219 C 8.171875 28.097656 8.085938 28.238281 8.027344 28.378906 C 8.015625 28.40625 8.003906 28.433594 8.011719 28.460938 C 8.023438 28.496094 8.0625 28.519531 8.097656 28.539062 C 8.914062 28.980469 9.785156 28.78125 10.4375 28.34375 C 11.066406 27.925781 11.425781 27.28125 11.839844 26.710938 C 11.753906 26.785156 11.804688 26.9375 11.917969 27.003906 C 12.03125 27.066406 12.179688 27.054688 12.285156 27 C 12.394531 26.945312 12.46875 26.859375 12.542969 26.773438 C 12.671875 26.613281 13.800781 24.816406 13.769531 24.800781 " fill-opacity="1" fill-rule="nonzero"/><g clip-path="url(#64b717139b)"><path fill="#c39d35" d="M 10.160156 22.90625 C 9.871094 22.980469 9.160156 22.058594 8.878906 22.042969 C 8.839844 22.136719 9.148438 22.457031 9.230469 22.5 C 8.984375 22.394531 7.917969 21.847656 7.667969 21.707031 C 7.179688 21.421875 6.621094 21.222656 6.042969 21.089844 C 5.113281 20.878906 4.128906 20.832031 3.15625 20.808594 C 2.953125 21.066406 6.234375 21.195312 6.820312 21.667969 C 5.96875 21.550781 5.257812 21.730469 4.710938 21.773438 C 4.527344 21.988281 5.636719 21.882812 6.105469 21.902344 C 7.207031 21.949219 9.195312 22.398438 9.914062 23.132812 C 9.859375 23.152344 8.472656 23.234375 8.058594 23.269531 C 7.601562 23.304688 7.140625 23.382812 6.683594 23.441406 C 6.234375 23.503906 6.15625 23.335938 6.148438 22.996094 C 6.144531 22.816406 5.546875 22.933594 5.375 22.933594 C 5.015625 22.929688 4.660156 22.894531 4.3125 22.835938 C 3.683594 22.726562 2.671875 22.511719 2.300781 22.042969 C 2.195312 21.910156 2.542969 21.789062 2.597656 21.707031 C 2.734375 21.511719 2.589844 21.453125 2.414062 21.316406 C 1.785156 20.839844 1.078125 20.539062 0.296875 20.269531 C 0.00390625 20.167969 1.148438 19.417969 1.265625 19.347656 C 1.871094 19 2.566406 18.753906 3.285156 18.699219 C 4.296875 18.617188 4.890625 19.019531 5.683594 19.429688 C 5.675781 19.296875 5.621094 19.160156 5.585938 19.03125 C 5.578125 19.007812 5.574219 18.980469 5.585938 18.957031 C 5.597656 18.929688 5.632812 18.914062 5.667969 18.898438 C 6.441406 18.617188 7.179688 18.90625 7.695312 19.371094 C 8.191406 19.820312 8.421875 20.429688 8.714844 20.988281 C 8.648438 20.910156 8.710938 20.78125 8.820312 20.742188 C 8.929688 20.699219 9.054688 20.726562 9.144531 20.789062 C 9.230469 20.851562 9.285156 20.9375 9.335938 21.023438 C 9.429688 21.179688 10.1875 22.902344 10.160156 22.90625 " fill-opacity="1" fill-rule="nonzero"/></g><path fill="#c39d35" d="M 26.214844 9.183594 C 26.359375 8.921875 27.519531 9.019531 27.71875 8.824219 C 27.675781 8.730469 27.230469 8.742188 27.144531 8.773438 C 27.386719 8.664062 28.507812 8.246094 28.785156 8.160156 C 29.324219 7.988281 29.847656 7.710938 30.335938 7.371094 C 31.121094 6.828125 31.816406 6.136719 32.492188 5.429688 C 32.4375 5.109375 30.128906 7.441406 29.382812 7.554688 C 30.042969 7.007812 30.390625 6.363281 30.730469 5.929688 C 30.695312 5.652344 30.027344 6.539062 29.691406 6.871094 C 28.914062 7.652344 27.242188 8.816406 26.214844 8.851562 C 26.242188 8.796875 27.113281 7.71875 27.367188 7.390625 C 27.648438 7.027344 27.902344 6.636719 28.164062 6.257812 C 28.425781 5.886719 28.601562 5.941406 28.859375 6.167969 C 28.992188 6.285156 29.308594 5.761719 29.425781 5.636719 C 29.667969 5.375 29.933594 5.132812 30.214844 4.917969 C 30.71875 4.527344 31.558594 3.925781 32.15625 3.96875 C 32.324219 3.976562 32.179688 4.316406 32.203125 4.414062 C 32.257812 4.644531 32.398438 4.582031 32.617188 4.542969 C 33.394531 4.402344 34.09375 4.082031 34.820312 3.6875 C 35.09375 3.539062 34.871094 4.890625 34.84375 5.023438 C 34.691406 5.707031 34.40625 6.382812 33.960938 6.953125 C 33.335938 7.753906 32.644531 7.917969 31.804688 8.226562 C 31.90625 8.3125 32.042969 8.363281 32.164062 8.425781 C 32.1875 8.4375 32.210938 8.449219 32.21875 8.472656 C 32.230469 8.503906 32.21875 8.539062 32.203125 8.574219 C 31.890625 9.335938 31.179688 9.6875 30.488281 9.753906 C 29.824219 9.816406 29.214844 9.574219 28.609375 9.414062 C 28.710938 9.417969 28.761719 9.550781 28.71875 9.660156 C 28.675781 9.765625 28.570312 9.839844 28.464844 9.863281 C 28.363281 9.886719 28.261719 9.871094 28.164062 9.847656 C 27.984375 9.8125 26.203125 9.210938 26.214844 9.183594 " fill-opacity="1" fill-rule="nonzero"/><path fill="#c39d35" d="M 27.699219 23.199219 C 27.886719 23.414062 28.953125 23.09375 29.179688 23.238281 C 29.160156 23.335938 28.738281 23.410156 28.652344 23.398438 C 28.902344 23.453125 30.039062 23.625 30.3125 23.652344 C 30.851562 23.703125 31.398438 23.863281 31.925781 24.082031 C 32.769531 24.4375 33.558594 24.949219 34.332031 25.476562 C 34.34375 25.789062 31.714844 24.058594 30.996094 24.101562 C 31.722656 24.484375 32.175781 25.019531 32.578125 25.359375 C 32.601562 25.628906 31.796875 24.925781 31.421875 24.679688 C 30.535156 24.101562 28.734375 23.339844 27.761719 23.511719 C 27.800781 23.554688 28.832031 24.398438 29.136719 24.652344 C 29.472656 24.9375 29.785156 25.253906 30.109375 25.558594 C 30.425781 25.855469 30.578125 25.769531 30.773438 25.507812 C 30.878906 25.367188 31.28125 25.796875 31.414062 25.890625 C 31.695312 26.089844 31.992188 26.261719 32.292969 26.410156 C 32.847656 26.675781 33.753906 27.074219 34.304688 26.917969 C 34.460938 26.875 34.257812 26.582031 34.261719 26.488281 C 34.265625 26.261719 34.410156 26.292969 34.625 26.289062 C 35.378906 26.265625 36.101562 26.429688 36.859375 26.65625 C 37.144531 26.738281 36.671875 25.515625 36.617188 25.394531 C 36.339844 24.785156 35.9375 24.207031 35.410156 23.761719 C 34.664062 23.132812 33.980469 23.113281 33.132812 22.992188 C 33.210938 22.890625 33.328125 22.816406 33.429688 22.734375 C 33.449219 22.71875 33.46875 22.703125 33.472656 22.675781 C 33.476562 22.648438 33.457031 22.613281 33.4375 22.585938 C 32.996094 21.933594 32.257812 21.742188 31.59375 21.820312 C 30.960938 21.890625 30.4375 22.238281 29.898438 22.507812 C 29.996094 22.484375 30.015625 22.347656 29.957031 22.257812 C 29.894531 22.164062 29.777344 22.117188 29.675781 22.113281 C 29.574219 22.113281 29.484375 22.148438 29.394531 22.1875 C 29.234375 22.257812 27.679688 23.175781 27.699219 23.199219 " fill-opacity="1" fill-rule="nonzero"/><path fill="#c39d35" d="M 16.21875 43.542969 C 16.097656 43.855469 17.019531 44.792969 16.996094 45.105469 C 16.882812 45.140625 16.570312 44.742188 16.535156 44.644531 C 16.617188 44.9375 17.066406 46.210938 17.1875 46.511719 C 17.433594 47.101562 17.570312 47.757812 17.628906 48.421875 C 17.726562 49.496094 17.628906 50.601562 17.507812 51.695312 C 17.1875 51.878906 17.539062 48.191406 17.097656 47.464844 C 17.101562 48.433594 16.796875 49.203125 16.664062 49.808594 C 16.398438 49.980469 16.683594 48.757812 16.730469 48.230469 C 16.84375 46.988281 16.644531 44.699219 15.929688 43.78125 C 15.902344 43.84375 15.597656 45.382812 15.5 45.839844 C 15.386719 46.34375 15.230469 46.847656 15.09375 47.347656 C 14.960938 47.84375 15.136719 47.957031 15.515625 48.015625 C 15.71875 48.046875 15.492188 48.699219 15.46875 48.890625 C 15.417969 49.289062 15.398438 49.695312 15.414062 50.09375 C 15.441406 50.816406 15.53125 51.976562 15.996094 52.464844 C 16.128906 52.601562 16.316406 52.230469 16.417969 52.179688 C 16.65625 52.058594 16.703125 52.226562 16.824219 52.445312 C 17.265625 53.21875 17.496094 54.058594 17.679688 54.972656 C 17.746094 55.316406 18.757812 54.148438 18.851562 54.027344 C 19.335938 53.402344 19.714844 52.664062 19.886719 51.871094 C 20.128906 50.746094 19.773438 50.027344 19.429688 49.078125 C 19.578125 49.105469 19.722656 49.1875 19.863281 49.246094 C 19.890625 49.257812 19.917969 49.269531 19.945312 49.257812 C 19.980469 49.246094 20.003906 49.210938 20.019531 49.171875 C 20.453125 48.351562 20.246094 47.480469 19.800781 46.832031 C 19.375 46.210938 18.726562 45.859375 18.152344 45.449219 C 18.226562 45.535156 18.378906 45.484375 18.441406 45.371094 C 18.503906 45.253906 18.492188 45.109375 18.433594 45 C 18.382812 44.894531 18.292969 44.820312 18.203125 44.75 C 18.042969 44.621094 16.234375 43.511719 16.21875 43.542969 " fill-opacity="1" fill-rule="nonzero"/><path fill="#c39d35" d="M 9.992188 70.476562 C 10.242188 70.652344 10.007812 71.8125 10.183594 72.039062 C 10.285156 72.007812 10.324219 71.554688 10.300781 71.460938 C 10.386719 71.722656 10.679688 72.902344 10.734375 73.191406 C 10.847656 73.757812 11.066406 74.320312 11.351562 74.851562 C 11.8125 75.707031 12.433594 76.488281 13.070312 77.253906 C 13.402344 77.234375 11.304688 74.632812 11.277344 73.867188 C 11.753906 74.597656 12.367188 75.023438 12.765625 75.414062 C 13.054688 75.410156 12.234375 74.632812 11.933594 74.257812 C 11.230469 73.382812 10.246094 71.558594 10.328125 70.511719 C 10.382812 70.546875 11.375 71.550781 11.675781 71.847656 C 12.011719 72.171875 12.378906 72.472656 12.730469 72.785156 C 13.074219 73.089844 13 73.261719 12.742188 73.492188 C 12.605469 73.617188 13.097656 73.996094 13.210938 74.128906 C 13.449219 74.40625 13.664062 74.703125 13.847656 75.007812 C 14.1875 75.566406 14.695312 76.480469 14.585938 77.082031 C 14.558594 77.25 14.230469 77.066406 14.128906 77.078125 C 13.890625 77.105469 13.9375 77.253906 13.953125 77.480469 C 14.007812 78.28125 14.25 79.027344 14.566406 79.804688 C 14.683594 80.101562 13.34375 79.722656 13.210938 79.675781 C 12.539062 79.445312 11.886719 79.078125 11.363281 78.566406 C 10.625 77.839844 10.535156 77.121094 10.320312 76.238281 C 10.222656 76.332031 10.15625 76.464844 10.078125 76.578125 C 10.066406 76.597656 10.050781 76.621094 10.023438 76.628906 C 9.992188 76.636719 9.957031 76.621094 9.921875 76.601562 C 9.191406 76.199219 8.914062 75.441406 8.929688 74.730469 C 8.941406 74.050781 9.253906 73.464844 9.484375 72.871094 C 9.46875 72.972656 9.328125 73.007812 9.226562 72.953125 C 9.121094 72.898438 9.058594 72.78125 9.046875 72.675781 C 9.035156 72.566406 9.066406 72.464844 9.097656 72.367188 C 9.15625 72.191406 9.96875 70.460938 9.992188 70.476562 " fill-opacity="1" fill-rule="nonzero"/><path fill="#c39d35" d="M 5.453125 83.269531 C 5.308594 83.472656 5.761719 84.304688 5.679688 84.523438 C 5.597656 84.53125 5.460938 84.191406 5.453125 84.113281 C 5.453125 84.339844 5.507812 85.332031 5.53125 85.566406 C 5.585938 86.035156 5.546875 86.527344 5.457031 87.015625 C 5.308594 87.804688 5.019531 88.578125 4.714844 89.34375 C 4.457031 89.421875 5.441406 86.835938 5.28125 86.238281 C 5.085938 86.933594 4.722656 87.429688 4.507812 87.84375 C 4.289062 87.921875 4.730469 87.09375 4.871094 86.722656 C 5.199219 85.851562 5.519531 84.171875 5.207031 83.390625 C 5.175781 83.433594 4.65625 84.484375 4.492188 84.792969 C 4.316406 85.136719 4.105469 85.472656 3.910156 85.808594 C 3.71875 86.136719 3.820312 86.25 4.070312 86.359375 C 4.203125 86.414062 3.917969 86.84375 3.863281 86.976562 C 3.746094 87.257812 3.652344 87.542969 3.582031 87.832031 C 3.457031 88.355469 3.285156 89.203125 3.511719 89.632812 C 3.578125 89.753906 3.785156 89.523438 3.863281 89.503906 C 4.050781 89.457031 4.050781 89.585938 4.09375 89.765625 C 4.242188 90.394531 4.234375 91.039062 4.179688 91.726562 C 4.15625 91.984375 5.09375 91.320312 5.183594 91.25 C 5.644531 90.886719 6.054688 90.421875 6.332031 89.878906 C 6.726562 89.117188 6.625 88.539062 6.578125 87.796875 C 6.671875 87.84375 6.757812 87.925781 6.84375 87.992188 C 6.859375 88.003906 6.875 88.019531 6.894531 88.015625 C 6.921875 88.011719 6.945312 87.992188 6.964844 87.96875 C 7.433594 87.453125 7.460938 86.792969 7.28125 86.25 C 7.113281 85.730469 6.730469 85.367188 6.414062 84.972656 C 6.449219 85.046875 6.566406 85.035156 6.632812 84.964844 C 6.699219 84.894531 6.71875 84.785156 6.703125 84.699219 C 6.683594 84.613281 6.636719 84.542969 6.589844 84.480469 C 6.503906 84.359375 5.46875 83.25 5.453125 83.269531 " fill-opacity="1" fill-rule="nonzero"/><path fill="#c39d35" d="M 30.757812 21.328125 C 30.820312 21.097656 31.742188 20.960938 31.863281 20.773438 C 31.8125 20.707031 31.46875 20.800781 31.40625 20.839844 C 31.578125 20.707031 32.375 20.175781 32.574219 20.0625 C 32.964844 19.828125 33.320312 19.519531 33.640625 19.164062 C 34.152344 18.597656 34.570312 17.929688 34.96875 17.257812 C 34.867188 17.019531 33.492188 19.257812 32.929688 19.480469 C 33.347656 18.933594 33.5 18.367188 33.683594 17.96875 C 33.605469 17.757812 33.246094 18.570312 33.046875 18.890625 C 32.582031 19.644531 31.488281 20.855469 30.695312 21.070312 C 30.703125 21.023438 31.1875 20.019531 31.328125 19.71875 C 31.480469 19.382812 31.609375 19.035156 31.746094 18.691406 C 31.878906 18.355469 32.027344 18.363281 32.269531 18.492188 C 32.394531 18.5625 32.546875 18.097656 32.613281 17.976562 C 32.757812 17.726562 32.921875 17.492188 33.097656 17.273438 C 33.421875 16.875 33.96875 16.253906 34.441406 16.179688 C 34.574219 16.15625 34.523438 16.449219 34.558594 16.519531 C 34.644531 16.6875 34.742188 16.613281 34.90625 16.542969 C 35.484375 16.292969 35.972656 15.914062 36.46875 15.472656 C 36.652344 15.308594 36.726562 16.40625 36.730469 16.511719 C 36.734375 17.074219 36.636719 17.65625 36.394531 18.175781 C 36.050781 18.917969 35.539062 19.171875 34.941406 19.566406 C 35.039062 19.613281 35.152344 19.628906 35.257812 19.652344 C 35.277344 19.660156 35.296875 19.664062 35.308594 19.679688 C 35.324219 19.703125 35.320312 19.734375 35.316406 19.761719 C 35.210938 20.414062 34.71875 20.816406 34.191406 20.996094 C 33.683594 21.164062 33.167969 21.085938 32.664062 21.074219 C 32.746094 21.058594 32.808594 21.152344 32.796875 21.242188 C 32.78125 21.335938 32.710938 21.410156 32.632812 21.449219 C 32.558594 21.484375 32.476562 21.488281 32.394531 21.492188 C 32.25 21.496094 30.75 21.351562 30.757812 21.328125 " fill-opacity="1" fill-rule="nonzero"/><path fill="#c39d35" d="M 44.613281 14.71875 C 44.878906 14.589844 45.769531 15.339844 46.046875 15.296875 C 46.066406 15.195312 45.695312 14.949219 45.605469 14.921875 C 45.871094 14.972656 47.027344 15.28125 47.300781 15.371094 C 47.839844 15.546875 48.425781 15.625 49.019531 15.632812 C 49.972656 15.644531 50.945312 15.480469 51.902344 15.300781 C 52.042969 15.007812 48.808594 15.570312 48.136719 15.226562 C 48.992188 15.164062 49.652344 14.839844 50.175781 14.683594 C 50.3125 14.4375 49.25 14.769531 48.785156 14.851562 C 47.699219 15.035156 45.664062 15.015625 44.804688 14.445312 C 44.855469 14.417969 46.195312 14.042969 46.589844 13.921875 C 47.03125 13.792969 47.464844 13.621094 47.898438 13.464844 C 48.324219 13.3125 48.4375 13.460938 48.515625 13.792969 C 48.554688 13.964844 49.117188 13.722656 49.285156 13.691406 C 49.636719 13.617188 49.992188 13.574219 50.34375 13.558594 C 50.984375 13.535156 52.015625 13.535156 52.476562 13.914062 C 52.609375 14.019531 52.292969 14.210938 52.257812 14.304688 C 52.167969 14.523438 52.316406 14.550781 52.519531 14.648438 C 53.234375 14.980469 53.992188 15.128906 54.8125 15.226562 C 55.117188 15.265625 54.15625 16.238281 54.054688 16.332031 C 53.535156 16.800781 52.910156 17.1875 52.21875 17.390625 C 51.242188 17.679688 50.582031 17.414062 49.71875 17.179688 C 49.753906 17.308594 49.835938 17.429688 49.898438 17.546875 C 49.910156 17.570312 49.921875 17.59375 49.914062 17.621094 C 49.90625 17.652344 49.875 17.675781 49.84375 17.691406 C 49.148438 18.132812 48.367188 18.007812 47.761719 17.660156 C 47.183594 17.324219 46.828125 16.777344 46.429688 16.292969 C 46.507812 16.355469 46.472656 16.492188 46.375 16.558594 C 46.28125 16.621094 46.148438 16.617188 46.050781 16.578125 C 45.953125 16.535156 45.882812 16.460938 45.8125 16.390625 C 45.6875 16.257812 44.585938 14.730469 44.613281 14.71875 " fill-opacity="1" fill-rule="nonzero"/><path fill="#c39d35" d="M 80.148438 5.050781 C 80.324219 5.207031 81.164062 4.820312 81.367188 4.910156 C 81.359375 4.992188 81.023438 5.101562 80.949219 5.101562 C 81.164062 5.121094 82.113281 5.128906 82.339844 5.117188 C 82.789062 5.097656 83.253906 5.164062 83.707031 5.28125 C 84.441406 5.472656 85.148438 5.800781 85.839844 6.144531 C 85.886719 6.398438 83.535156 5.285156 82.949219 5.40625 C 83.589844 5.632812 84.023438 6.019531 84.394531 6.25 C 84.441406 6.46875 83.703125 5.988281 83.367188 5.828125 C 82.574219 5.457031 81.011719 5.046875 80.238281 5.296875 C 80.273438 5.332031 81.214844 5.898438 81.492188 6.074219 C 81.800781 6.269531 82.097656 6.492188 82.394531 6.699219 C 82.6875 6.90625 82.804688 6.816406 82.933594 6.582031 C 83.003906 6.457031 83.382812 6.757812 83.5 6.820312 C 83.753906 6.949219 84.015625 7.058594 84.285156 7.144531 C 84.765625 7.296875 85.554688 7.515625 85.988281 7.324219 C 86.109375 7.269531 85.910156 7.054688 85.902344 6.976562 C 85.878906 6.792969 86 6.800781 86.175781 6.773438 C 86.792969 6.667969 87.402344 6.714844 88.046875 6.8125 C 88.292969 6.847656 87.761719 5.902344 87.703125 5.808594 C 87.40625 5.34375 87.007812 4.914062 86.523438 4.613281 C 85.839844 4.183594 85.277344 4.25 84.570312 4.246094 C 84.625 4.15625 84.710938 4.082031 84.785156 4.003906 C 84.796875 3.988281 84.8125 3.972656 84.8125 3.949219 C 84.8125 3.925781 84.792969 3.902344 84.773438 3.878906 C 84.335938 3.398438 83.710938 3.328125 83.175781 3.46875 C 82.664062 3.601562 82.277344 3.945312 81.867188 4.230469 C 81.945312 4.199219 81.945312 4.085938 81.882812 4.015625 C 81.824219 3.949219 81.722656 3.921875 81.640625 3.933594 C 81.558594 3.945312 81.484375 3.984375 81.417969 4.027344 C 81.296875 4.101562 80.132812 5.035156 80.148438 5.050781 " fill-opacity="1" fill-rule="nonzero"/><path fill="#c39d35" d="M 28.890625 11.199219 C 28.671875 11.09375 28.433594 11.011719 28.183594 10.945312 C 30.578125 10.417969 34.703125 9.535156 35.644531 9.242188 C 36.128906 9.089844 36.605469 8.90625 37.082031 8.726562 C 37.746094 8.476562 38.398438 8.21875 39.03125 7.902344 C 39.078125 7.878906 39.136719 7.804688 39.125 7.742188 C 39.109375 7.691406 39.050781 7.695312 39.007812 7.695312 C 38.429688 7.71875 37.839844 7.808594 37.261719 7.785156 C 36.980469 7.769531 36.601562 7.644531 36.5 7.351562 C 36.726562 7.433594 36.933594 7.492188 37.179688 7.464844 C 37.421875 7.441406 37.652344 7.363281 37.886719 7.292969 C 38.4375 7.121094 39 6.910156 39.585938 6.894531 C 39.894531 6.882812 40.253906 6.882812 40.351562 7.242188 C 40.410156 7.46875 40.425781 7.65625 40.527344 7.871094 C 40.738281 8.308594 40.6875 8.582031 40.265625 8.890625 C 39.898438 9.160156 39.453125 9.128906 39.050781 9.339844 C 38.289062 9.691406 38.109375 10.320312 38.097656 10.070312 C 38.085938 9.871094 38.144531 9.667969 38.238281 9.492188 C 38.433594 9.128906 38.769531 8.832031 39.117188 8.613281 C 38.304688 9.125 37.382812 9.417969 36.453125 9.636719 C 35.675781 9.820312 31.53125 10.734375 28.890625 11.199219 " fill-opacity="1" fill-rule="nonzero"/><path fill="#c39d35" d="M 11.601562 28.292969 C 11.765625 28.242188 11.910156 28.167969 12.039062 28.0625 C 8.265625 30.542969 6.976562 35.0625 6.832031 36.0625 C 6.761719 36.566406 6.71875 37.078125 6.675781 37.582031 C 6.617188 38.285156 6.570312 38.988281 6.582031 39.695312 C 6.582031 39.746094 6.625 39.835938 6.683594 39.847656 C 6.738281 39.859375 6.761719 39.804688 6.777344 39.765625 C 7.007812 39.234375 7.179688 38.664062 7.453125 38.152344 C 7.585938 37.902344 7.863281 37.617188 8.167969 37.652344 C 7.996094 37.820312 7.859375 37.980469 7.773438 38.214844 C 7.695312 38.441406 7.664062 38.6875 7.625 38.925781 C 7.539062 39.5 7.488281 40.097656 7.253906 40.632812 C 7.128906 40.914062 6.972656 41.242188 6.609375 41.171875 C 6.375 41.128906 6.203125 41.0625 5.964844 41.0625 C 5.480469 41.0625 5.253906 40.898438 5.15625 40.382812 C 5.074219 39.933594 5.292969 39.550781 5.273438 39.09375 C 5.285156 38.253906 4.800781 37.824219 5.027344 37.917969 C 5.214844 37.996094 5.375 38.136719 5.492188 38.296875 C 5.734375 38.628906 5.855469 39.058594 5.902344 39.464844 C 5.789062 38.511719 5.921875 37.554688 6.128906 36.621094 C 7.574219 30.203125 9.425781 29.84375 11.601562 28.292969 " fill-opacity="1" fill-rule="nonzero"/><path fill="#c39d35" d="M 21.972656 12 C 21.300781 12.09375 20.632812 12.359375 20.003906 12.65625 C 19.921875 12.695312 20.542969 12.839844 20.570312 12.84375 C 21.003906 12.875 21.429688 12.957031 21.839844 13.085938 C 22.527344 13.304688 24.808594 15.171875 23.230469 15.90625 C 22.902344 16.058594 22.328125 16.011719 21.984375 16 C 21.664062 15.992188 22.101562 15.660156 22.175781 15.601562 C 23.132812 14.84375 20.792969 13.734375 20.421875 13.4375 C 20.121094 13.195312 20.042969 13.78125 20.109375 14 C 20.203125 14.300781 20.472656 14.4375 20.667969 14.652344 C 20.824219 14.832031 20.925781 15.058594 20.710938 15.269531 C 20.589844 15.386719 20.421875 15.429688 20.261719 15.417969 C 19.847656 15.390625 19.285156 15.113281 19.101562 14.703125 C 18.898438 14.242188 19.175781 13.765625 19.378906 13.351562 C 19.417969 13.269531 19.507812 13.125 19.480469 13.035156 C 19.339844 12.621094 18.292969 13.460938 18.203125 13.667969 C 17.800781 14.570312 18.140625 15.285156 18.753906 15.875 C 19.566406 16.65625 20.648438 16.878906 21.734375 16.960938 C 22.539062 17.019531 23.347656 16.894531 24.03125 16.382812 C 24.582031 15.972656 24.808594 15.429688 25.015625 14.773438 C 25.136719 14.398438 25.28125 14.054688 25.511719 13.742188 C 25.84375 13.304688 25.902344 13.269531 25.398438 13.011719 C 24.765625 12.695312 24.101562 12.367188 23.4375 12.128906 C 22.960938 11.957031 22.464844 11.933594 21.972656 12 " fill-opacity="1" fill-rule="nonzero"/><path fill="#c39d35" d="M 20.417969 10.273438 C 20.679688 10.417969 20.933594 10.574219 21.210938 10.710938 C 21.464844 10.835938 21.664062 11.15625 21.226562 11.171875 C 20.820312 11.183594 20.394531 11.195312 20.039062 11.414062 C 19.78125 11.574219 19.6875 11.890625 19.472656 12.097656 C 19.242188 12.3125 18.949219 12.292969 18.675781 12.222656 C 17.855469 12.007812 17.375 12.441406 16.703125 12.910156 C 16.429688 13.097656 16.167969 13.320312 16.011719 13.621094 C 15.980469 13.679688 15.949219 13.746094 15.902344 13.796875 C 15.726562 13.992188 15.597656 13.71875 15.550781 13.566406 C 15.394531 13.003906 15.34375 12.539062 15.476562 11.945312 C 15.609375 11.324219 15.976562 10.769531 16.070312 10.152344 C 16.097656 9.96875 16.113281 9.785156 16.179688 9.613281 C 16.355469 9.132812 16.777344 9.160156 17.15625 9.28125 C 17.996094 9.546875 18.875 9.664062 19.703125 9.945312 C 19.957031 10.035156 20.191406 10.148438 20.417969 10.273438 " fill-opacity="1" fill-rule="nonzero"/><path fill="#c39d35" d="M 21.996094 10.820312 C 22.003906 10.8125 22.011719 10.800781 22.019531 10.792969 C 22.296875 10.453125 22.84375 10.226562 23.207031 10.015625 C 23.453125 9.871094 23.832031 9.519531 24.128906 9.574219 C 24.894531 9.710938 25.238281 10.847656 25.824219 11.269531 C 26.144531 11.5 26.539062 11.585938 26.925781 11.644531 C 27.472656 11.726562 28.027344 11.746094 28.578125 11.785156 C 28.707031 11.796875 28.839844 11.808594 28.9375 11.890625 C 29.035156 11.972656 29.074219 12.109375 29.101562 12.238281 C 29.363281 13.382812 29.167969 14.367188 28.8125 15.488281 C 28.734375 15.738281 28.65625 15.984375 28.574219 16.234375 C 28.542969 16.34375 28.5 16.433594 28.40625 16.484375 C 28.605469 16.375 27.808594 14.6875 27.710938 14.523438 C 27.175781 13.613281 26.386719 12.90625 25.496094 12.40625 C 24.882812 12.0625 24.230469 11.804688 23.566406 11.585938 C 23.238281 11.476562 22.90625 11.375 22.574219 11.28125 C 22.410156 11.234375 22.03125 11.242188 21.957031 11.039062 C 21.933594 10.96875 21.953125 10.886719 21.996094 10.820312 " fill-opacity="1" fill-rule="nonzero"/><path fill="#c39d35" d="M 17.421875 13.742188 C 17.4375 13.601562 17.4375 13.464844 17.398438 13.339844 C 17.242188 12.882812 16.476562 14.136719 16.394531 14.285156 C 15.980469 15.058594 15.796875 15.933594 16.207031 16.726562 C 16.523438 17.339844 17.089844 17.734375 17.589844 18.160156 C 17.832031 18.367188 18.066406 18.582031 18.265625 18.839844 C 18.484375 19.121094 18.554688 19.453125 18.714844 19.773438 C 18.757812 19.855469 18.8125 19.9375 18.886719 19.988281 C 19.234375 20.210938 19.921875 19.707031 20.300781 19.648438 C 22.136719 19.355469 23.988281 19.445312 25.804688 18.949219 C 26.03125 18.886719 26.261719 18.816406 26.492188 18.78125 C 26.636719 18.761719 27.015625 18.847656 27.117188 18.742188 C 27.164062 18.691406 27.183594 18.621094 27.203125 18.554688 C 27.484375 17.503906 27.804688 16.628906 27.4375 15.582031 C 27.214844 15.074219 26.765625 14.730469 26.515625 14.238281 C 26.410156 14.03125 26.222656 14.617188 26.179688 14.71875 C 26.054688 14.988281 25.933594 15.257812 25.792969 15.519531 C 25.5 16.0625 25.136719 16.558594 24.652344 16.929688 C 23.757812 17.617188 22.800781 17.667969 21.761719 17.59375 C 20.542969 17.507812 19.378906 17.484375 18.347656 16.746094 C 18.082031 16.558594 17.816406 16.339844 17.703125 16.011719 C 17.550781 15.570312 17.328125 15.097656 17.296875 14.613281 C 17.28125 14.335938 17.386719 14.027344 17.421875 13.742188 " fill-opacity="1" fill-rule="nonzero"/><path fill="#c39d35" d="M 29.925781 18.472656 C 29.855469 17.988281 29.710938 17.480469 29.429688 17.089844 C 29.328125 16.945312 29.183594 16.796875 29.03125 16.714844 C 28.511719 16.449219 28.382812 17.410156 28.265625 17.757812 C 28.082031 18.300781 27.796875 19.144531 27.246094 19.378906 C 27.042969 19.46875 26.828125 19.496094 26.613281 19.53125 C 25.335938 19.730469 24.082031 20.164062 22.832031 20.515625 C 22.996094 20.46875 23.65625 21.003906 23.824219 21.085938 C 24.234375 21.289062 24.660156 21.457031 25.101562 21.582031 C 26.363281 21.9375 27.894531 22.125 29.125 21.382812 C 29.308594 21.273438 29.480469 21.136719 29.671875 21.039062 C 30.050781 20.84375 30.304688 20.730469 30.171875 20.242188 C 30.015625 19.660156 30.011719 19.066406 29.925781 18.472656 " fill-opacity="1" fill-rule="nonzero"/><path fill="#c39d35" d="M 24.84375 22.046875 C 24.375 21.804688 23.789062 21.714844 23.296875 21.519531 C 22.773438 21.3125 22.253906 20.996094 21.710938 20.796875 C 20.957031 20.519531 20.25 20.722656 19.472656 20.75 C 18.097656 20.800781 16.738281 19.683594 15.496094 19.195312 C 15.191406 19.074219 15.355469 20.46875 15.378906 20.671875 C 15.421875 21.109375 15.558594 21.515625 15.800781 21.867188 C 16.167969 22.410156 16.679688 22.816406 17.207031 23.183594 C 17.542969 23.414062 17.890625 23.632812 18.242188 23.835938 C 18.964844 24.253906 19.621094 23.847656 20.34375 23.574219 C 21.089844 23.289062 21.863281 23.09375 22.625 22.882812 C 23.019531 22.773438 23.410156 22.65625 23.800781 22.523438 C 24.082031 22.425781 24.671875 22.296875 24.84375 22.046875 " fill-opacity="1" fill-rule="nonzero"/><path fill="#c39d35" d="M 17.5 19.78125 C 17.828125 19.957031 18.171875 20.066406 17.863281 19.609375 C 17.527344 19.105469 17.121094 18.660156 16.71875 18.222656 C 16.28125 17.746094 15.816406 17.269531 15.527344 16.667969 C 15.34375 16.285156 15.3125 15.855469 15.257812 15.433594 C 15.199219 14.992188 15.054688 14.53125 14.980469 14.082031 C 14.914062 13.6875 15.097656 13.019531 14.917969 12.691406 C 14.617188 12.136719 12.433594 13.886719 12.085938 14.183594 C 11.699219 14.515625 11.355469 14.9375 11.222656 15.441406 C 11.207031 15.488281 11.199219 15.539062 11.21875 15.582031 C 11.296875 15.742188 11.613281 15.847656 11.746094 15.925781 C 12.019531 16.085938 12.273438 16.273438 12.511719 16.484375 C 12.792969 16.738281 13.046875 17.023438 13.335938 17.273438 C 14.457031 18.25 15.949219 18.585938 17.09375 19.523438 C 17.164062 19.582031 17.332031 19.691406 17.5 19.78125 " fill-opacity="1" fill-rule="nonzero"/><path fill="#c39d35" d="M 12.003906 12.695312 C 12.160156 12.273438 12.410156 11.867188 12.597656 11.464844 C 12.699219 11.242188 12.800781 11.019531 12.847656 10.78125 C 12.910156 10.476562 12.960938 10.308594 13.273438 10.308594 C 13.421875 10.308594 13.574219 10.269531 13.722656 10.226562 C 14.046875 10.136719 15.359375 9.453125 15.359375 10.117188 C 15.355469 10.703125 15.164062 11.285156 15.164062 11.855469 C 15.167969 11.964844 15.1875 12.078125 15.148438 12.183594 C 15.066406 12.410156 14.765625 12.273438 14.605469 12.292969 C 14.363281 12.320312 14.128906 12.359375 13.890625 12.417969 C 13.417969 12.542969 12.957031 12.734375 12.503906 12.925781 C 12.308594 13.007812 12.101562 13.121094 11.902344 13.160156 C 11.871094 13.113281 11.886719 13.078125 11.902344 13.023438 C 11.929688 12.910156 11.960938 12.804688 12.003906 12.695312 " fill-opacity="1" fill-rule="nonzero"/><path fill="#c39d35" d="M 14.65625 19.375 C 14.472656 18.984375 14.195312 18.675781 13.832031 18.367188 C 13.515625 18.097656 13.238281 17.777344 12.945312 17.484375 C 12.597656 17.136719 12.238281 16.769531 11.820312 16.515625 C 11.429688 16.277344 11.160156 16.542969 11.125 16.980469 C 11.074219 17.605469 11.136719 18.121094 10.828125 18.710938 C 10.769531 18.828125 10.703125 18.9375 10.671875 19.0625 C 10.578125 19.429688 10.953125 19.550781 11.1875 19.699219 C 11.511719 19.90625 11.839844 20.109375 12.167969 20.3125 C 12.824219 20.722656 13.476562 21.136719 14.101562 21.589844 C 14.441406 21.835938 14.976562 22.246094 15.371094 22.230469 C 15.144531 21.523438 14.972656 20.867188 14.867188 20.121094 C 14.828125 19.835938 14.757812 19.59375 14.65625 19.375 " fill-opacity="1" fill-rule="nonzero"/><path fill="#c39d35" d="M 27.347656 22.296875 C 27.140625 22.257812 26.949219 22.28125 26.664062 22.34375 C 25.710938 22.558594 24.796875 22.941406 23.855469 23.199219 C 23.199219 23.378906 22.539062 23.539062 21.875 23.675781 C 21.730469 23.703125 20.167969 24.089844 20.109375 24.007812 C 20.292969 24.269531 20.742188 24.273438 21.015625 24.324219 C 21.46875 24.40625 21.917969 24.488281 22.367188 24.570312 C 23 24.679688 23.644531 24.757812 24.273438 24.890625 C 24.613281 24.964844 24.949219 25.066406 25.285156 25.164062 C 25.566406 25.242188 26.035156 25.539062 26.3125 25.296875 C 26.433594 25.199219 26.472656 25.027344 26.507812 24.875 C 26.664062 24.148438 27.707031 22.363281 27.347656 22.296875 " fill-opacity="1" fill-rule="nonzero"/><path fill="#c39d35" d="M 26.257812 35.363281 C 26.507812 34.820312 26.628906 34.183594 26.710938 33.5625 C 26.722656 33.484375 26.324219 33.855469 26.308594 33.875 C 26.082031 34.175781 25.824219 34.445312 25.535156 34.675781 C 25.050781 35.0625 22.617188 35.722656 22.832031 34.164062 C 22.875 33.84375 23.183594 33.445312 23.351562 33.199219 C 23.507812 32.96875 23.542969 33.46875 23.550781 33.558594 C 23.648438 34.667969 25.558594 33.554688 25.945312 33.445312 C 26.265625 33.351562 25.878906 32.976562 25.6875 32.910156 C 25.425781 32.816406 25.199219 32.941406 24.949219 32.964844 C 24.746094 32.984375 24.535156 32.933594 24.484375 32.660156 C 24.457031 32.511719 24.507812 32.363281 24.585938 32.25 C 24.800781 31.960938 25.269531 31.699219 25.652344 31.789062 C 26.085938 31.890625 26.296875 32.351562 26.503906 32.726562 C 26.542969 32.796875 26.605469 32.945312 26.6875 32.972656 C 27.050781 33.09375 26.9375 31.871094 26.832031 31.691406 C 26.367188 30.90625 25.683594 30.765625 24.96875 30.894531 C 24.019531 31.070312 23.34375 31.742188 22.777344 32.492188 C 22.351562 33.054688 22.058594 33.714844 22.109375 34.492188 C 22.144531 35.121094 22.433594 35.582031 22.808594 36.089844 C 23.023438 36.382812 23.207031 36.671875 23.320312 37.015625 C 23.484375 37.492188 23.480469 37.558594 23.90625 37.324219 C 24.433594 37.035156 24.984375 36.726562 25.472656 36.367188 C 25.820312 36.109375 26.074219 35.761719 26.257812 35.363281 " fill-opacity="1" fill-rule="nonzero"/><path fill="#c39d35" d="M 28.242188 35.160156 C 28.015625 35.273438 27.78125 35.375 27.550781 35.503906 C 27.34375 35.621094 27.015625 35.59375 27.210938 35.265625 C 27.394531 34.960938 27.585938 34.640625 27.597656 34.261719 C 27.601562 33.984375 27.414062 33.742188 27.371094 33.476562 C 27.320312 33.1875 27.472656 32.984375 27.65625 32.824219 C 28.195312 32.339844 28.109375 31.746094 28.085938 31 C 28.078125 30.699219 28.042969 30.386719 27.898438 30.109375 C 27.871094 30.050781 27.835938 29.996094 27.820312 29.933594 C 27.761719 29.699219 28.023438 29.75 28.15625 29.804688 C 28.636719 29.988281 29 30.207031 29.367188 30.628906 C 29.753906 31.0625 29.980469 31.632812 30.386719 32.035156 C 30.503906 32.15625 30.628906 32.265625 30.722656 32.40625 C 30.988281 32.796875 30.769531 33.089844 30.503906 33.304688 C 29.914062 33.777344 29.414062 34.359375 28.816406 34.8125 C 28.632812 34.953125 28.441406 35.058594 28.242188 35.160156 " fill-opacity="1" fill-rule="nonzero"/><path fill="#c39d35" d="M 27.101562 36.019531 C 27.105469 36.03125 27.109375 36.039062 27.109375 36.050781 C 27.226562 36.441406 27.128906 36.964844 27.113281 37.347656 C 27.101562 37.605469 27.175781 38.074219 27 38.261719 C 26.539062 38.75 25.550781 38.382812 24.96875 38.585938 C 24.648438 38.695312 24.402344 38.941406 24.175781 39.191406 C 23.859375 39.546875 23.582031 39.941406 23.292969 40.324219 C 23.226562 40.414062 23.152344 40.507812 23.046875 40.53125 C 22.941406 40.558594 22.824219 40.511719 22.714844 40.464844 C 21.765625 40.035156 21.144531 39.359375 20.5 38.488281 C 20.355469 38.292969 20.210938 38.101562 20.070312 37.90625 C 20.007812 37.824219 19.960938 37.746094 19.964844 37.648438 C 19.953125 37.855469 21.554688 38.183594 21.71875 38.203125 C 22.628906 38.304688 23.515625 38.109375 24.296875 37.726562 C 24.835938 37.464844 25.332031 37.125 25.808594 36.757812 C 26.039062 36.578125 26.269531 36.386719 26.496094 36.195312 C 26.605469 36.097656 26.78125 35.816406 26.960938 35.875 C 27.023438 35.894531 27.074219 35.953125 27.101562 36.019531 " fill-opacity="1" fill-rule="nonzero"/><path fill="#c39d35" d="M 27.144531 31.078125 C 27.238281 31.167969 27.335938 31.242188 27.445312 31.277344 C 27.851562 31.414062 27.304688 30.167969 27.234375 30.03125 C 26.871094 29.304688 26.324219 28.695312 25.554688 28.566406 C 24.960938 28.464844 24.410156 28.667969 23.863281 28.804688 C 23.597656 28.871094 23.332031 28.921875 23.050781 28.929688 C 22.742188 28.9375 22.46875 28.808594 22.160156 28.753906 C 22.082031 28.738281 21.996094 28.734375 21.925781 28.761719 C 21.597656 28.898438 21.640625 29.671875 21.503906 29.984375 C 20.847656 31.492188 19.910156 32.800781 19.410156 34.402344 C 19.347656 34.601562 19.292969 34.808594 19.207031 34.996094 C 19.15625 35.113281 18.914062 35.34375 18.941406 35.476562 C 18.957031 35.539062 18.996094 35.59375 19.039062 35.640625 C 19.664062 36.417969 20.148438 37.128906 21.082031 37.429688 C 21.554688 37.539062 22.011719 37.398438 22.488281 37.480469 C 22.6875 37.515625 22.351562 37.0625 22.300781 36.972656 C 22.164062 36.734375 22.027344 36.5 21.902344 36.253906 C 21.648438 35.746094 21.460938 35.207031 21.417969 34.652344 C 21.34375 33.621094 21.757812 32.894531 22.300781 32.167969 C 22.941406 31.324219 23.507812 30.484375 24.527344 30.125 C 24.789062 30.03125 25.074219 29.957031 25.367188 30.050781 C 25.757812 30.179688 26.207031 30.273438 26.570312 30.515625 C 26.78125 30.652344 26.953125 30.898438 27.144531 31.078125 " fill-opacity="1" fill-rule="nonzero"/><path fill="#c39d35" d="M 17.808594 37.683594 C 18.195312 37.898438 18.628906 38.0625 19.042969 38.070312 C 19.199219 38.074219 19.375 38.050781 19.503906 37.980469 C 19.945312 37.746094 19.3125 37.128906 19.113281 36.851562 C 18.804688 36.425781 18.328125 35.757812 18.417969 35.226562 C 18.449219 35.03125 18.53125 34.855469 18.609375 34.679688 C 19.066406 33.636719 19.34375 32.476562 19.679688 31.371094 C 19.636719 31.515625 18.9375 31.710938 18.796875 31.785156 C 18.457031 31.976562 18.132812 32.203125 17.835938 32.457031 C 16.980469 33.1875 16.121094 34.210938 16.078125 35.515625 C 16.070312 35.710938 16.089844 35.910156 16.070312 36.105469 C 16.03125 36.488281 15.992188 36.738281 16.410156 36.90625 C 16.90625 37.105469 17.335938 37.425781 17.808594 37.683594 " fill-opacity="1" fill-rule="nonzero"/><path fill="#c39d35" d="M 17.621094 32.015625 C 18.015625 31.800781 18.359375 31.421875 18.734375 31.164062 C 19.128906 30.894531 19.605469 30.683594 20.003906 30.394531 C 20.5625 29.992188 20.75 29.363281 21.09375 28.777344 C 21.707031 27.742188 23.160156 27.351562 24.101562 26.707031 C 24.332031 26.546875 23.246094 25.910156 23.085938 25.816406 C 22.746094 25.613281 22.390625 25.492188 22.019531 25.476562 C 21.453125 25.453125 20.914062 25.605469 20.402344 25.796875 C 20.074219 25.917969 19.753906 26.050781 19.441406 26.199219 C 18.796875 26.503906 18.78125 27.203125 18.640625 27.886719 C 18.492188 28.589844 18.269531 29.257812 18.0625 29.933594 C 17.957031 30.28125 17.851562 30.632812 17.765625 30.988281 C 17.707031 31.25 17.519531 31.753906 17.621094 32.015625 " fill-opacity="1" fill-rule="nonzero"/><path fill="#c39d35" d="M 22.730469 27.855469 C 22.445312 28 22.207031 28.195312 22.683594 28.214844 C 23.207031 28.242188 23.71875 28.1875 24.230469 28.128906 C 24.78125 28.066406 25.34375 27.984375 25.917969 28.097656 C 26.28125 28.171875 26.609375 28.382812 26.941406 28.570312 C 27.289062 28.765625 27.6875 28.914062 28.050781 29.101562 C 28.367188 29.269531 28.765625 29.765625 29.089844 29.8125 C 29.632812 29.890625 29.398438 27.339844 29.34375 26.921875 C 29.285156 26.457031 29.144531 25.976562 28.84375 25.605469 C 28.8125 25.570312 28.78125 25.535156 28.738281 25.527344 C 28.585938 25.496094 28.363281 25.675781 28.242188 25.730469 C 27.996094 25.839844 27.742188 25.925781 27.476562 25.984375 C 27.160156 26.054688 26.832031 26.085938 26.515625 26.164062 C 25.277344 26.457031 24.328125 27.367188 23.109375 27.699219 C 23.03125 27.71875 22.875 27.78125 22.730469 27.855469 " fill-opacity="1" fill-rule="nonzero"/><path fill="#c39d35" d="M 30.460938 27.671875 C 30.695312 28.015625 30.871094 28.417969 31.074219 28.773438 C 31.1875 28.96875 31.300781 29.164062 31.449219 29.328125 C 31.644531 29.542969 31.738281 29.667969 31.59375 29.898438 C 31.519531 30.007812 31.480469 30.140625 31.441406 30.269531 C 31.351562 30.558594 31.226562 31.894531 30.746094 31.53125 C 30.324219 31.214844 29.992188 30.757812 29.578125 30.445312 C 29.496094 30.386719 29.402344 30.339844 29.347656 30.257812 C 29.222656 30.070312 29.460938 29.925781 29.523438 29.796875 C 29.617188 29.605469 29.703125 29.414062 29.769531 29.207031 C 29.90625 28.789062 29.980469 28.351562 30.058594 27.914062 C 30.09375 27.726562 30.105469 27.511719 30.171875 27.34375 C 30.222656 27.347656 30.238281 27.378906 30.273438 27.417969 C 30.339844 27.5 30.402344 27.582031 30.460938 27.671875 " fill-opacity="1" fill-rule="nonzero"/><path fill="#c39d35" d="M 24.367188 25.988281 C 24.738281 26.066406 25.089844 26.03125 25.488281 25.933594 C 25.832031 25.847656 26.195312 25.820312 26.546875 25.761719 C 26.960938 25.695312 27.398438 25.628906 27.78125 25.460938 C 28.136719 25.304688 28.070312 24.964844 27.769531 24.699219 C 27.339844 24.324219 26.9375 24.089844 26.65625 23.542969 C 26.601562 23.4375 26.554688 23.328125 26.476562 23.238281 C 26.253906 22.96875 25.992188 23.175781 25.773438 23.269531 C 25.46875 23.394531 25.164062 23.527344 24.863281 23.65625 C 24.257812 23.914062 23.648438 24.167969 23.023438 24.382812 C 22.683594 24.496094 22.136719 24.667969 21.960938 24.964844 C 22.578125 25.183594 23.136719 25.414062 23.726562 25.742188 C 23.953125 25.867188 24.160156 25.945312 24.367188 25.988281 " fill-opacity="1" fill-rule="nonzero"/><path fill="#c39d35" d="M 16.257812 33.714844 C 16.382812 33.585938 16.457031 33.429688 16.542969 33.1875 C 16.839844 32.375 16.992188 31.492188 17.25 30.664062 C 17.429688 30.085938 17.628906 29.515625 17.839844 28.953125 C 17.886719 28.828125 18.347656 27.472656 18.4375 27.476562 C 18.15625 27.46875 17.945312 27.796875 17.777344 27.972656 C 17.503906 28.257812 17.230469 28.542969 16.960938 28.828125 C 16.582031 29.230469 16.222656 29.664062 15.828125 30.050781 C 15.613281 30.261719 15.378906 30.453125 15.152344 30.648438 C 14.960938 30.8125 14.527344 30.992188 14.566406 31.328125 C 14.585938 31.46875 14.6875 31.589844 14.785156 31.699219 C 15.238281 32.210938 16.035156 33.941406 16.257812 33.714844 " fill-opacity="1" fill-rule="nonzero"/><path fill="#c39d35" d="M 5.085938 47.792969 C 5.71875 45.742188 5.917969 43.6875 5.566406 41.464844 C 5.65625 41.480469 5.898438 41.5 5.984375 41.523438 C 6.300781 41.625 6.609375 41.769531 6.835938 42.011719 C 7.21875 42.417969 7.300781 43.015625 7.269531 43.566406 C 7.230469 44.175781 7.078125 44.773438 7.023438 45.382812 C 6.960938 46.121094 7.386719 48.15625 7.839844 48.761719 C 7.839844 48.761719 6.789062 48.015625 5.085938 47.792969 " fill-opacity="1" fill-rule="nonzero"/><path fill="#c39d35" d="M 4.777344 47.507812 C 4.75 47.507812 3.875 47.421875 3.230469 47.507812 C 3.46875 45.394531 3.382812 43.472656 4.183594 42.378906 C 4.457031 42.007812 4.789062 41.773438 5.261719 41.773438 C 5.683594 43.980469 4.910156 46.582031 4.777344 47.507812 " fill-opacity="1" fill-rule="nonzero"/><path fill="#c39d35" d="M 5.382812 49.066406 C 4.957031 48.898438 4.414062 48.734375 4.246094 49.167969 C 4.171875 49.355469 4.25 49.746094 4.332031 49.917969 C 4.347656 49.957031 4.371094 49.992188 4.402344 50.015625 C 4.597656 50.148438 4.980469 50.007812 5.210938 50.082031 C 5.6875 50.238281 5.632812 50.808594 5.148438 50.90625 C 4.78125 50.976562 4.226562 50.835938 3.980469 50.480469 C 3.699219 50.082031 3.84375 49.550781 3.929688 49.101562 C 3.945312 49.015625 3.996094 48.851562 3.949219 48.769531 C 3.738281 48.402344 3.003906 49.460938 2.96875 49.6875 C 2.910156 50.050781 2.933594 50.433594 3.082031 50.773438 C 3.261719 51.1875 3.578125 51.617188 3.996094 51.816406 C 4.980469 52.289062 7.070312 51.542969 6.984375 50.253906 C 6.941406 49.660156 6.246094 49.390625 5.769531 49.21875 C 5.667969 49.183594 5.535156 49.125 5.382812 49.066406 " fill-opacity="1" fill-rule="nonzero"/><path fill="#c39d35" d="M 5.074219 48.589844 C 5.140625 48.628906 5.203125 48.65625 5.261719 48.675781 C 5.421875 48.726562 5.589844 48.75 5.753906 48.796875 C 6.191406 48.929688 6.640625 49.179688 6.949219 49.523438 C 7.214844 49.824219 7.355469 50.230469 7.308594 50.632812 C 7.257812 51.0625 7.003906 51.398438 6.667969 51.65625 C 6.449219 51.832031 6.203125 52.0625 5.953125 52.183594 C 5.847656 52.234375 5.734375 52.257812 5.621094 52.273438 C 5.570312 52.277344 5.515625 52.28125 5.472656 52.304688 C 5.429688 52.328125 5.390625 52.378906 5.402344 52.425781 C 5.414062 52.476562 5.464844 52.503906 5.511719 52.523438 C 6.058594 52.753906 6.742188 52.738281 7.320312 52.660156 C 7.554688 52.628906 7.789062 52.578125 8.023438 52.5625 C 8.128906 52.554688 8.625 52.640625 8.664062 52.5625 C 8.738281 52.425781 8.738281 52.242188 8.777344 52.09375 C 8.824219 51.910156 8.851562 51.722656 8.859375 51.53125 C 8.890625 50.847656 8.703125 50.101562 8.25 49.570312 C 7.6875 48.902344 6.828125 48.613281 6.050781 48.324219 C 5.953125 48.289062 4.816406 48.011719 4.785156 48.132812 C 4.742188 48.324219 4.902344 48.488281 5.074219 48.589844 " fill-opacity="1" fill-rule="nonzero"/><path fill="#c39d35" d="M 4.195312 48.128906 C 4.1875 48.132812 4.183594 48.136719 4.179688 48.140625 C 3.75 48.273438 3.328125 48.519531 2.972656 48.792969 C 2.40625 49.226562 2.183594 49.875 2.378906 50.613281 C 2.550781 51.269531 2.964844 51.78125 3.566406 52.035156 C 3.742188 52.109375 4.933594 52.332031 4.976562 52.453125 C 4.988281 52.484375 4.992188 52.515625 4.988281 52.546875 C 4.972656 52.738281 1.808594 53.347656 1.761719 53.246094 C 1.671875 53.058594 1.667969 52.839844 1.59375 52.644531 C 1.503906 52.417969 1.371094 52.207031 1.273438 51.980469 C 0.835938 50.976562 1.011719 49.703125 1.722656 48.871094 C 2.289062 48.207031 3.160156 47.824219 4.027344 47.753906 C 4.109375 47.75 4.191406 47.746094 4.269531 47.773438 C 4.558594 47.875 4.34375 48.03125 4.195312 48.128906 " fill-opacity="1" fill-rule="nonzero"/><path fill="#c39d35" d="M 46.480469 5.152344 C 44.816406 6.503906 42.984375 7.457031 40.789062 7.960938 C 40.839844 8.035156 40.949219 8.253906 41.003906 8.324219 C 41.210938 8.582031 41.464844 8.8125 41.773438 8.933594 C 42.292969 9.136719 42.878906 8.988281 43.375 8.753906 C 43.929688 8.492188 44.425781 8.125 44.972656 7.847656 C 45.628906 7.511719 47.679688 7.152344 48.410156 7.339844 C 48.410156 7.339844 47.324219 6.644531 46.480469 5.152344 " fill-opacity="1" fill-rule="nonzero"/><path fill="#c39d35" d="M 46.101562 4.96875 C 46.09375 4.945312 45.6875 4.164062 45.527344 3.535156 C 43.65625 4.542969 41.839844 5.183594 41.125 6.332031 C 40.882812 6.726562 40.785156 7.121094 40.964844 7.5625 C 43.171875 7.128906 45.292969 5.441406 46.101562 4.96875 " fill-opacity="1" fill-rule="nonzero"/><path fill="#c39d35" d="M 47.773438 4.949219 C 47.457031 4.617188 47.105469 4.171875 47.445312 3.855469 C 47.589844 3.71875 47.984375 3.644531 48.175781 3.65625 C 48.214844 3.660156 48.257812 3.664062 48.289062 3.6875 C 48.488281 3.816406 48.5 4.222656 48.652344 4.410156 C 48.976562 4.792969 49.484375 4.527344 49.390625 4.046875 C 49.320312 3.675781 48.988281 3.21875 48.5625 3.121094 C 48.089844 3.011719 47.652344 3.339844 47.265625 3.585938 C 47.191406 3.636719 47.058594 3.742188 46.964844 3.730469 C 46.546875 3.671875 47.253906 2.597656 47.449219 2.480469 C 47.765625 2.289062 48.128906 2.167969 48.496094 2.175781 C 48.949219 2.1875 49.464844 2.324219 49.808594 2.636719 C 50.613281 3.371094 50.703125 5.589844 49.476562 5.988281 C 48.910156 6.171875 48.398438 5.628906 48.0625 5.25 C 47.992188 5.171875 47.886719 5.066406 47.773438 4.949219 " fill-opacity="1" fill-rule="nonzero"/><path fill="#c39d35" d="M 47.21875 4.84375 C 47.277344 4.886719 47.328125 4.9375 47.367188 4.980469 C 47.476562 5.113281 47.558594 5.261719 47.664062 5.394531 C 47.949219 5.75 48.351562 6.074219 48.785156 6.230469 C 49.160156 6.367188 49.59375 6.34375 49.945312 6.148438 C 50.324219 5.941406 50.542969 5.582031 50.660156 5.175781 C 50.738281 4.90625 50.863281 4.59375 50.882812 4.3125 C 50.886719 4.199219 50.867188 4.082031 50.835938 3.972656 C 50.824219 3.921875 50.808594 3.875 50.8125 3.824219 C 50.816406 3.773438 50.851562 3.722656 50.902344 3.714844 C 50.949219 3.707031 50.996094 3.742188 51.03125 3.777344 C 51.449219 4.199219 51.691406 4.839844 51.832031 5.402344 C 51.890625 5.632812 51.933594 5.867188 52.003906 6.09375 C 52.035156 6.195312 52.300781 6.621094 52.246094 6.6875 C 52.144531 6.804688 51.972656 6.875 51.851562 6.96875 C 51.699219 7.078125 51.53125 7.175781 51.359375 7.253906 C 50.738281 7.539062 49.976562 7.644531 49.3125 7.421875 C 48.484375 7.148438 47.894531 6.457031 47.335938 5.84375 C 47.265625 5.769531 46.585938 4.816406 46.6875 4.746094 C 46.847656 4.632812 47.0625 4.722656 47.21875 4.84375 " fill-opacity="1" fill-rule="nonzero"/><path fill="#c39d35" d="M 46.460938 4.195312 C 46.464844 4.191406 46.464844 4.183594 46.464844 4.179688 C 46.429688 3.734375 46.5 3.246094 46.621094 2.816406 C 46.8125 2.128906 47.332031 1.679688 48.089844 1.585938 C 48.761719 1.5 49.390625 1.691406 49.847656 2.15625 C 49.984375 2.292969 50.636719 3.3125 50.765625 3.308594 C 50.796875 3.308594 50.828125 3.300781 50.855469 3.285156 C 51.027344 3.199219 50.414062 0.0351562 50.300781 0.03125 C 50.09375 0.015625 49.890625 0.09375 49.679688 0.0976562 C 49.433594 0.101562 49.1875 0.0585938 48.941406 0.0507812 C 47.851562 0.0195312 46.734375 0.65625 46.226562 1.625 C 45.820312 2.402344 45.792969 3.351562 46.050781 4.179688 C 46.078125 4.257812 46.105469 4.339844 46.160156 4.398438 C 46.363281 4.632812 46.425781 4.375 46.460938 4.195312 " fill-opacity="1" fill-rule="nonzero"/></svg>