<svg xmlns="http://www.w3.org/2000/svg" xmlns:xlink="http://www.w3.org/1999/xlink" width="128" zoomAndPan="magnify" viewBox="0 0 96 95.999999" height="128" preserveAspectRatio="xMidYMid meet" version="1.0"><defs><clipPath id="4b28113972"><path d="M 78.828125 0.015625 L 91.398438 0.015625 L 91.398438 70.367188 L 78.828125 70.367188 Z M 78.828125 0.015625 " clip-rule="nonzero"/></clipPath><clipPath id="d994cce65c"><path d="M 2.640625 82 L 69 82 L 69 92 L 2.640625 92 Z M 2.640625 82 " clip-rule="nonzero"/></clipPath><clipPath id="6c5156c9d6"><path d="M 85 72 L 95.640625 72 L 95.640625 78 L 85 78 Z M 85 72 " clip-rule="nonzero"/></clipPath></defs><path fill="#c39d35" d="M 66.148438 84.027344 C 66.167969 84.039062 66.1875 84.050781 66.207031 84.0625 C 66.25 84.121094 66.292969 84.175781 66.339844 84.230469 C 65.945312 84.277344 65.609375 84.328125 65.625 84.414062 C 65.679688 84.601562 65.710938 84.679688 65.421875 84.722656 C 65.164062 84.757812 64.929688 84.699219 64.695312 84.6875 L 63.589844 84.621094 L 61.613281 84.492188 L 60.621094 84.40625 C 60.449219 84.390625 60.296875 84.375 60.09375 84.34375 C 59.90625 84.308594 59.761719 84.261719 59.59375 84.222656 L 57.652344 83.714844 C 56.992188 83.515625 56.359375 83.238281 55.761719 82.914062 L 55.433594 82.730469 L 55.242188 82.621094 L 54.726562 82.296875 C 54.121094 81.902344 53.527344 81.484375 53.003906 80.980469 C 52.789062 80.769531 52.566406 80.648438 52.214844 80.605469 C 52.132812 80.597656 51.5 80.429688 50.9375 80.398438 C 51.015625 80.257812 51.789062 80.007812 51.738281 79.894531 C 51.722656 79.855469 51.679688 79.839844 51.648438 79.816406 C 50.953125 79.273438 50.445312 78.480469 50.019531 77.679688 C 49.4375 76.59375 49.160156 75.425781 49 74.222656 C 48.964844 73.925781 48.941406 73.625 48.929688 73.324219 C 48.898438 72.617188 48.964844 71.925781 49.0625 71.234375 C 49.167969 70.558594 49.390625 69.894531 49.527344 69.195312 C 49.539062 69.144531 49.535156 69.089844 49.554688 69.042969 C 49.582031 68.902344 49.597656 68.753906 49.613281 68.605469 C 49.621094 68.472656 49.539062 67.921875 49.671875 67.824219 C 49.671875 67.824219 49.949219 68.328125 50.019531 68.300781 C 50.054688 68.285156 50.0625 68.195312 50.082031 68.164062 C 50.414062 67.5 50.992188 66.941406 51.710938 66.589844 C 52.082031 66.402344 52.492188 66.324219 52.863281 66.269531 C 53.246094 66.21875 53.640625 66.203125 54.035156 66.238281 L 54.203125 66.253906 C 54.644531 66.3125 55.097656 66.433594 55.503906 66.667969 C 56.28125 67.09375 56.828125 67.886719 56.988281 68.753906 C 57.164062 69.609375 56.917969 70.621094 56.199219 71.230469 C 55.644531 71.699219 54.824219 71.976562 54.097656 71.929688 C 53.84375 71.910156 53.535156 71.820312 53.253906 71.667969 C 52.789062 71.414062 52.410156 70.992188 52.507812 70.46875 C 52.5625 70.203125 52.769531 69.984375 53.019531 69.878906 C 53.832031 69.53125 54.082031 69.890625 54.476562 70.429688 C 54.769531 70.828125 54.992188 70.875 55.484375 70.851562 C 55.789062 70.835938 56.066406 70.464844 56.191406 70.214844 C 56.378906 69.84375 56.4375 69.394531 56.371094 68.984375 L 56.363281 68.945312 C 56.296875 68.535156 56.121094 68.144531 55.863281 67.828125 C 55.828125 67.789062 55.804688 67.691406 55.691406 67.777344 C 55.597656 67.859375 55.480469 68.164062 55.367188 68.226562 C 55.351562 68.175781 55.398438 67.863281 55.382812 67.773438 C 55.316406 67.257812 54.832031 67.011719 54.371094 66.945312 C 53.722656 66.816406 53.011719 66.886719 52.386719 67.054688 C 51.785156 67.230469 51.296875 67.675781 50.914062 68.207031 C 50.699219 68.5 50.523438 68.824219 50.375 69.160156 C 49.867188 70.351562 49.691406 71.699219 49.679688 72.972656 L 49.679688 73.011719 L 49.683594 73.214844 C 49.691406 73.449219 49.707031 73.679688 49.726562 73.910156 C 49.734375 74.011719 49.769531 74.0625 49.957031 74.078125 C 50.070312 74.082031 50.578125 73.679688 50.695312 73.695312 C 50.558594 73.679688 50.363281 74.132812 50.257812 74.636719 C 50.144531 75.136719 50.125 75.675781 50.144531 75.738281 C 50.300781 76.34375 50.5 76.914062 50.800781 77.4375 C 51.386719 78.480469 52.25 79.351562 53.1875 80.097656 C 54.535156 81.167969 55.925781 82.148438 57.441406 82.710938 C 57.578125 82.765625 57.402344 82.035156 57.558594 81.898438 C 57.566406 82.15625 58.082031 82.558594 58.203125 82.664062 C 58.378906 82.859375 58.566406 83.011719 58.789062 83.097656 C 59.183594 83.246094 59.59375 83.347656 60.003906 83.4375 C 60.378906 83.527344 60.796875 83.503906 61.210938 83.542969 C 61.925781 83.597656 62.644531 83.632812 63.363281 83.660156 C 63.792969 83.671875 65.011719 83.808594 66.039062 83.90625 C 66.0625 83.953125 66.097656 83.996094 66.148438 84.027344 " fill-opacity="1" fill-rule="nonzero"/><path fill="#c39d35" d="M 90.4375 80.027344 C 91.054688 80.742188 91.457031 81.644531 91.789062 82.5625 C 92.238281 83.773438 92.40625 85.085938 92.339844 86.394531 C 92.320312 86.714844 92.292969 87.039062 92.246094 87.363281 C 92.140625 88.101562 91.953125 88.84375 91.683594 89.546875 C 91.425781 90.242188 91.039062 90.886719 90.71875 91.578125 C 90.695312 91.628906 90.683594 91.683594 90.652344 91.730469 C 90.589844 91.871094 90.535156 92.015625 90.484375 92.167969 C 90.445312 92.300781 90.382812 92.875 90.234375 92.949219 C 90.234375 92.949219 90.078125 92.382812 90.003906 92.402344 C 89.960938 92.410156 89.929688 92.496094 89.90625 92.527344 C 89.414062 93.148438 88.691406 93.589844 87.921875 93.871094 C 87.125 94.152344 86.257812 94.226562 85.417969 94.058594 L 85.238281 94.023438 C 84.769531 93.910156 84.3125 93.714844 83.90625 93.417969 C 83.148438 92.878906 82.625 91.957031 82.632812 90.996094 C 82.621094 90.058594 83.050781 89.058594 83.914062 88.527344 C 84.597656 88.09375 85.789062 88.230469 86.730469 88.59375 C 87.195312 88.773438 87.746094 88.984375 87.953125 89.480469 C 88.292969 90.28125 87.617188 90.917969 86.8125 90.816406 C 85.753906 90.679688 85.472656 88.964844 84.277344 89.191406 C 83.546875 89.328125 83.285156 90.226562 83.285156 90.871094 L 83.285156 90.914062 C 83.269531 91.367188 83.402344 91.792969 83.632812 92.171875 C 83.664062 92.21875 83.683594 92.320312 83.804688 92.25 C 83.910156 92.175781 84.050781 91.882812 84.171875 91.832031 C 84.183594 91.890625 84.109375 92.210938 84.125 92.304688 C 84.152344 92.851562 84.640625 93.183594 85.132812 93.3125 C 85.8125 93.527344 86.566406 93.535156 87.25 93.359375 C 87.941406 93.203125 88.550781 92.8125 89.078125 92.339844 C 89.371094 92.070312 89.632812 91.769531 89.867188 91.449219 C 90.691406 90.3125 91.199219 88.949219 91.445312 87.597656 L 91.453125 87.558594 L 91.484375 87.339844 C 91.523438 87.09375 91.546875 86.84375 91.570312 86.59375 C 91.578125 86.484375 91.554688 86.425781 91.375 86.375 C 91.257812 86.351562 90.691406 86.6875 90.578125 86.648438 C 90.710938 86.6875 90.984375 86.246094 91.171875 85.734375 C 91.363281 85.226562 91.449219 84.660156 91.441406 84.59375 C 91.363281 83.933594 91.207031 83.285156 90.976562 82.675781 C 90.496094 81.472656 89.769531 80.355469 88.914062 79.398438 C 87.699219 78.015625 86.308594 76.832031 84.863281 75.761719 C 84.730469 75.660156 84.746094 76.449219 84.550781 76.53125 C 84.589844 76.265625 84.136719 75.671875 84.066406 75.519531 C 83.953125 75.257812 83.808594 75.039062 83.613281 74.867188 C 82.910156 74.269531 82.085938 73.863281 81.320312 73.351562 C 80.671875 72.902344 80.023438 72.417969 79.441406 71.824219 C 79.15625 71.523438 78.882812 71.1875 78.667969 70.796875 C 78.453125 70.410156 78.304688 69.921875 78.347656 69.421875 C 78.371094 69.410156 78.410156 69.351562 78.410156 69.351562 C 78.410156 69.351562 78.566406 69.269531 78.863281 69.109375 C 79.160156 68.945312 79.566406 68.644531 80.003906 68.175781 C 80.425781 67.6875 80.863281 67.015625 81.203125 66.148438 C 81.546875 65.28125 81.78125 64.226562 81.929688 63.050781 C 82.09375 61.808594 82.15625 60.410156 82.140625 58.894531 C 82.121094 57.261719 82.070312 55.578125 81.96875 53.84375 C 81.929688 53.246094 81.890625 52.636719 81.847656 52.027344 C 81.757812 50.585938 81.660156 49.113281 81.566406 47.605469 C 81.523438 46.824219 81.484375 46.03125 81.460938 45.222656 C 81.429688 44.511719 81.511719 43.777344 81.441406 43.046875 C 81.390625 42.589844 81.492188 42.128906 81.507812 41.667969 C 81.519531 41.429688 81.515625 41.1875 81.457031 40.945312 C 81.40625 40.714844 81.246094 40.476562 81.136719 40.230469 C 81.046875 40.046875 80.960938 39.605469 80.839844 39.230469 C 80.972656 39.21875 81.636719 39.738281 81.71875 39.683594 C 81.78125 39.644531 81.734375 39.550781 81.742188 39.496094 L 81.785156 39.261719 C 81.828125 39.011719 81.898438 38.769531 81.957031 38.523438 C 82.011719 38.277344 82.074219 38.03125 82.152344 37.789062 C 82.632812 36.125 83.328125 34.511719 84.0625 32.90625 C 84.523438 31.886719 85 30.863281 85.445312 29.816406 C 85.765625 29.015625 86.097656 28.210938 86.359375 27.382812 C 86.394531 27.28125 86.433594 27.179688 86.417969 27.066406 C 86.378906 26.722656 85.691406 25.976562 85.847656 25.703125 C 86.054688 25.765625 86.535156 26.066406 86.679688 26.023438 C 86.910156 25.953125 86.84375 25.546875 86.875 25.398438 C 86.929688 25.144531 86.960938 24.882812 87.007812 24.625 C 87.285156 22.679688 87.246094 20.632812 86.902344 18.570312 L 86.871094 18.378906 L 86.773438 17.847656 C 86.65625 17.21875 86.488281 16.597656 86.382812 15.953125 C 86.339844 15.679688 86.230469 15.480469 85.988281 15.28125 C 85.933594 15.234375 85.523438 14.820312 85.089844 14.613281 C 85.210938 14.523438 85.9375 14.628906 85.949219 14.527344 C 85.953125 14.492188 85.921875 14.460938 85.910156 14.429688 C 85.585938 13.722656 85.414062 12.9375 85.132812 12.199219 C 84.757812 11.21875 84.375 10.238281 83.828125 9.359375 C 83.691406 9.144531 83.546875 8.933594 83.390625 8.734375 C 83.027344 8.269531 82.613281 7.890625 82.109375 7.578125 C 81.632812 7.277344 81.097656 6.980469 80.515625 6.96875 C 80.476562 6.96875 80.433594 6.980469 80.394531 6.972656 C 80.28125 6.984375 80.167969 6.996094 80.058594 7.039062 C 79.953125 7.066406 79.65625 7.359375 79.574219 7.320312 C 79.5625 7.316406 79.757812 6.859375 79.726562 6.820312 C 79.699219 6.796875 79.636719 6.832031 79.609375 6.835938 C 79.046875 6.902344 78.480469 7.011719 78.023438 7.355469 C 77.546875 7.691406 77.214844 8.222656 77.054688 8.804688 L 77.027344 8.929688 C 76.953125 9.261719 76.933594 9.605469 76.96875 9.945312 C 77.042969 10.492188 77.269531 10.972656 77.644531 11.375 C 77.910156 11.660156 77.941406 11.871094 78.363281 11.9375 C 78.984375 12.035156 79.589844 11.796875 79.652344 11.128906 C 79.675781 10.90625 79.667969 10.679688 79.742188 10.46875 C 79.921875 9.957031 80.523438 9.992188 80.769531 10.414062 C 80.800781 10.460938 80.824219 10.511719 80.847656 10.570312 C 81.054688 11.085938 80.945312 11.808594 80.582031 12.203125 C 80.296875 12.527344 79.851562 12.667969 79.476562 12.6875 C 78.78125 12.710938 78.136719 12.480469 77.597656 12.109375 L 77.558594 12.082031 C 77.171875 11.804688 76.859375 11.429688 76.652344 11.007812 C 76.628906 10.949219 76.625 10.847656 76.5 10.882812 C 76.386719 10.910156 76.242188 11.230469 76.132812 11.269531 C 76.097656 11.15625 76.175781 10.769531 76.210938 10.667969 C 76.351562 10.0625 76.332031 9.585938 76.390625 9.0625 C 76.488281 8.355469 76.800781 7.675781 77.296875 7.15625 C 77.796875 6.640625 78.46875 6.300781 79.167969 6.214844 C 79.558594 6.152344 79.945312 6.171875 80.324219 6.214844 C 81.648438 6.421875 82.863281 7.074219 83.726562 8.058594 L 83.753906 8.085938 L 83.882812 8.246094 C 84.03125 8.425781 84.167969 8.613281 84.292969 8.808594 C 84.347656 8.890625 84.398438 8.921875 84.558594 8.863281 C 84.667969 8.832031 84.867188 8.234375 84.964844 8.1875 C 84.847656 8.234375 84.96875 8.777344 85.046875 9.300781 C 85.132812 9.828125 85.203125 10.34375 85.226562 10.402344 C 85.464844 10.964844 85.667969 11.527344 85.875 12.082031 C 86.28125 13.1875 86.65625 14.289062 86.984375 15.386719 C 87.460938 16.953125 87.765625 18.546875 87.921875 20.125 C 87.9375 20.277344 88.460938 19.785156 88.632812 19.863281 C 88.441406 20.003906 88.292969 20.671875 88.226562 20.800781 C 88.109375 21.03125 88.019531 21.25 88.003906 21.476562 C 87.953125 22.28125 88.027344 23.089844 87.960938 23.882812 C 87.890625 24.753906 87.734375 25.609375 87.550781 26.445312 L 87.441406 26.859375 C 87.214844 27.761719 86.90625 28.625 86.59375 29.46875 C 86.429688 29.878906 86.273438 30.289062 86.101562 30.6875 L 85.847656 31.285156 C 85.8125 31.363281 85.734375 31.433594 85.8125 31.542969 C 85.882812 31.636719 86.460938 31.546875 86.5625 31.636719 C 86.597656 31.667969 85.964844 32.023438 85.9375 32.042969 L 85.652344 32.238281 C 85.273438 32.492188 85.171875 32.875 85.007812 33.238281 C 84.828125 33.628906 84.652344 34.019531 84.488281 34.40625 C 83.800781 35.980469 83.261719 37.554688 82.929688 39.125 C 82.570312 40.652344 82.574219 42.191406 82.609375 43.714844 C 82.628906 44.359375 82.660156 45 82.695312 45.632812 C 82.703125 45.886719 82.648438 48.628906 82.933594 48.636719 C 83.144531 48.640625 83.796875 48.1875 83.835938 48.296875 C 83.609375 48.726562 83.117188 49.53125 83.027344 49.917969 C 83.003906 50.03125 83.011719 50.144531 83.019531 50.257812 C 83.273438 53.25 83.382812 56.136719 83.328125 58.914062 C 83.253906 60.472656 83.109375 61.910156 82.867188 63.199219 C 82.628906 64.421875 82.320312 65.519531 81.910156 66.445312 C 81.507812 67.371094 81.007812 68.109375 80.523438 68.652344 C 80.09375 69.101562 79.695312 69.40625 79.378906 69.609375 C 79.390625 69.765625 79.390625 69.9375 79.441406 70.113281 C 79.546875 70.40625 79.734375 70.695312 79.957031 70.972656 C 80.796875 71.96875 82 72.703125 83.175781 73.5 C 84.351562 74.292969 85.527344 75.105469 86.636719 76.019531 L 86.941406 76.273438 L 87.117188 76.421875 L 87.609375 76.851562 C 88.175781 77.371094 88.75 77.902344 89.222656 78.53125 C 89.417969 78.800781 89.628906 78.964844 89.980469 79.089844 C 90.0625 79.125 90.6875 79.429688 91.246094 79.585938 C 91.144531 79.71875 90.328125 79.800781 90.359375 79.929688 C 90.367188 79.96875 90.410156 79.996094 90.4375 80.027344 " fill-opacity="1" fill-rule="nonzero"/><g clip-path="url(#4b28113972)"><path fill="#c39d35" d="M 90.878906 18.605469 C 90.957031 19.171875 90.980469 19.734375 91.015625 20.292969 C 91.050781 21.398438 91.039062 22.488281 90.960938 23.5625 C 90.851562 25.09375 90.574219 26.578125 90.230469 28.007812 C 90.199219 28.144531 90.804688 27.878906 90.941406 27.996094 C 90.726562 28.0625 90.40625 28.597656 90.300781 28.695312 C 90.128906 28.859375 89.992188 29.027344 89.917969 29.226562 C 89.644531 29.921875 89.519531 30.664062 89.300781 31.363281 C 89.046875 32.121094 88.8125 32.898438 88.492188 33.632812 L 88.414062 33.816406 L 88.335938 33.996094 C 87.988281 34.789062 87.597656 35.546875 87.203125 36.285156 C 87.007812 36.644531 86.816406 37.003906 86.625 37.359375 L 86.335938 37.886719 C 86.296875 37.957031 86.21875 38.015625 86.285156 38.121094 C 86.339844 38.214844 86.882812 38.183594 86.972656 38.277344 C 87 38.308594 86.390625 38.578125 86.363281 38.597656 L 86.085938 38.75 C 85.714844 38.960938 85.601562 39.3125 85.429688 39.636719 C 85.253906 39.992188 85.074219 40.34375 84.917969 40.703125 C 84.257812 42.148438 83.835938 43.628906 83.734375 45.113281 C 83.601562 46.566406 83.746094 48.011719 83.949219 49.417969 C 84.035156 50.011719 84.132812 50.597656 84.246094 51.183594 C 84.28125 51.414062 84.539062 53.96875 84.800781 53.949219 C 84.996094 53.933594 85.550781 53.441406 85.601562 53.539062 C 85.4375 53.96875 85.058594 54.777344 85.003906 55.148438 C 84.992188 55.257812 85.007812 55.363281 85.027344 55.46875 C 85.238281 56.886719 85.328125 58.300781 85.246094 59.679688 C 85.144531 61.058594 84.941406 62.398438 84.566406 63.675781 C 84.117188 65.09375 83.492188 66.335938 82.773438 67.355469 C 82.09375 68.332031 81.265625 69.046875 80.519531 69.621094 C 80.191406 69.835938 79.71875 70.09375 79.410156 70.25 C 79.1875 70.109375 79.121094 69.894531 78.882812 69.761719 C 79.269531 69.574219 79.675781 69.339844 80.097656 69.039062 C 80.757812 68.480469 81.480469 67.796875 82.039062 66.855469 C 82.644531 65.886719 83.15625 64.710938 83.5 63.371094 C 83.875 61.933594 84.070312 60.398438 84.070312 58.820312 C 84.09375 58.273438 84.023438 57.722656 84.007812 57.164062 C 83.886719 55.871094 83.691406 54.527344 83.417969 53.140625 C 83.296875 52.417969 83.171875 51.683594 83.050781 50.945312 C 82.941406 50.285156 82.933594 49.59375 82.789062 48.917969 C 82.695312 48.5 82.738281 48.0625 82.707031 47.628906 C 82.695312 47.410156 82.660156 47.1875 82.582031 46.96875 C 82.511719 46.761719 82.335938 46.5625 82.207031 46.351562 C 82.105469 46.195312 81.960938 45.796875 81.808594 45.460938 C 81.929688 45.4375 82.609375 45.835938 82.679688 45.773438 C 82.734375 45.730469 82.675781 45.652344 82.679688 45.601562 L 82.691406 45.378906 C 82.703125 45.140625 82.738281 44.90625 82.761719 44.667969 C 82.777344 44.429688 82.828125 44.195312 82.867188 43.953125 C 83.152344 42.316406 83.8125 40.78125 84.5625 39.289062 C 85.046875 38.34375 85.574219 37.417969 86.097656 36.480469 C 86.488281 35.769531 86.894531 35.058594 87.257812 34.324219 C 87.304688 34.234375 87.351562 34.144531 87.355469 34.039062 C 87.382812 33.714844 86.839844 32.917969 87.039062 32.6875 C 87.222656 32.773438 87.613281 33.128906 87.753906 33.109375 C 87.984375 33.078125 87.984375 32.695312 88.03125 32.5625 C 88.117188 32.335938 88.203125 32.101562 88.28125 31.863281 C 88.894531 30.089844 89.445312 28.246094 89.824219 26.320312 L 89.859375 26.140625 C 89.894531 25.976562 89.925781 25.8125 89.953125 25.644531 C 90.058594 25.054688 90.121094 24.453125 90.242188 23.855469 C 90.300781 23.605469 90.265625 23.390625 90.117188 23.140625 C 90.078125 23.082031 89.878906 22.589844 89.550781 22.273438 C 89.683594 22.234375 90.292969 22.554688 90.335938 22.472656 C 90.351562 22.441406 90.332031 22.402344 90.328125 22.375 C 90.269531 21.65625 90.359375 20.917969 90.320312 20.183594 C 90.265625 19.21875 90.132812 18.246094 89.933594 17.273438 C 89.878906 17.035156 89.8125 16.800781 89.753906 16.5625 C 89.683594 16.285156 89.601562 16.011719 89.503906 15.746094 C 89.410156 15.476562 89.332031 15.203125 89.222656 14.933594 C 89.023438 14.410156 88.847656 13.851562 88.519531 13.367188 C 88.496094 13.332031 88.464844 13.300781 88.445312 13.265625 C 88.375 13.171875 88.296875 13.082031 88.210938 12.996094 C 88.132812 12.921875 87.738281 12.730469 87.734375 12.613281 C 87.734375 12.613281 87.855469 12.617188 87.976562 12.617188 C 88.101562 12.621094 88.226562 12.613281 88.234375 12.585938 C 88.242188 12.554688 88.1875 12.507812 88.171875 12.480469 C 87.878906 11.960938 87.691406 11.367188 87.472656 10.796875 C 87.246094 10.203125 87.046875 9.585938 86.898438 8.949219 L 86.867188 8.816406 C 86.789062 8.457031 86.722656 8.089844 86.679688 7.726562 C 86.511719 6.359375 86.542969 4.949219 86.792969 3.554688 C 86.945312 2.660156 87.203125 1.769531 87.542969 0.90625 C 87.636719 0.683594 87.730469 0.457031 87.835938 0.238281 L 87.914062 0.0703125 C 87.921875 0.0546875 87.9375 0.0351562 87.941406 0.015625 C 87.882812 0.550781 87.917969 1.078125 87.832031 1.558594 C 87.8125 1.699219 87.78125 1.835938 87.730469 1.96875 C 87.503906 2.589844 87.386719 3.238281 87.289062 3.878906 C 87.203125 4.4375 87.15625 5 87.140625 5.558594 L 87.140625 5.597656 C 87.125 5.996094 87.140625 6.390625 87.164062 6.785156 C 87.164062 6.835938 87.136719 6.925781 87.261719 6.925781 C 87.367188 6.925781 87.59375 6.738281 87.707031 6.746094 C 87.695312 6.820312 87.507812 7.070312 87.464844 7.144531 C 87.210938 7.589844 87.265625 8.035156 87.367188 8.46875 C 87.609375 9.667969 88.089844 10.792969 88.582031 11.894531 C 88.722656 12.203125 88.859375 12.511719 89 12.820312 C 89.492188 13.894531 89.960938 14.984375 90.300781 16.109375 L 90.308594 16.140625 L 90.359375 16.320312 L 90.519531 16.9375 C 90.542969 17.027344 90.578125 17.066406 90.734375 17.066406 C 90.84375 17.070312 91.207031 16.628906 91.3125 16.621094 C 91.105469 16.644531 90.898438 18.503906 90.878906 18.605469 " fill-opacity="1" fill-rule="nonzero"/></g><path fill="#c39d35" d="M 68.101562 85.121094 C 68.144531 85.167969 68.183594 85.21875 68.226562 85.257812 C 67.863281 85.3125 67.496094 85.359375 67.121094 85.40625 C 65.410156 85.609375 63.644531 85.6875 61.835938 85.746094 C 61.210938 85.761719 60.578125 85.78125 59.941406 85.796875 C 58.453125 85.804688 56.929688 85.8125 55.375 85.820312 C 54.574219 85.820312 53.761719 85.824219 52.941406 85.828125 C 52.21875 85.84375 51.472656 85.757812 50.742188 85.867188 C 50.289062 85.933594 49.828125 85.878906 49.367188 85.914062 C 49.132812 85.933594 48.902344 85.976562 48.675781 86.070312 C 48.464844 86.164062 48.28125 86.386719 48.089844 86.546875 C 47.941406 86.660156 47.585938 86.894531 47.316406 87.121094 C 47.257812 86.992188 47.503906 86.183594 47.4375 86.121094 C 47.378906 86.070312 47.308594 86.148438 47.257812 86.15625 L 47.03125 86.1875 L 46.316406 86.316406 L 45.605469 86.484375 C 43.984375 86.894531 42.390625 87.59375 40.789062 88.394531 C 39.769531 88.902344 38.742188 89.460938 37.679688 90.003906 C 36.875 90.425781 36.050781 90.828125 35.1875 91.191406 C 35.082031 91.238281 34.976562 91.285156 34.890625 91.367188 C 34.632812 91.609375 34.390625 92.695312 33.984375 92.714844 C 33.929688 92.5 33.9375 91.914062 33.808594 91.816406 C 33.609375 91.65625 33.277344 91.9375 33.117188 91.992188 C 32.851562 92.089844 32.570312 92.15625 32.292969 92.238281 C 30.222656 92.824219 28 92.992188 25.769531 92.828125 L 25.566406 92.816406 L 24.992188 92.761719 C 24.3125 92.695312 23.628906 92.617188 22.957031 92.441406 C 22.679688 92.367188 22.441406 92.367188 22.132812 92.5 C 22.058594 92.535156 21.472656 92.691406 21.03125 92.96875 C 21.019531 92.8125 21.5 92.21875 21.410156 92.15625 C 21.378906 92.132812 21.335938 92.144531 21.300781 92.140625 C 20.480469 92.058594 19.6875 91.753906 18.894531 91.515625 C 17.839844 91.203125 16.769531 90.882812 15.714844 90.386719 C 15.457031 90.265625 15.199219 90.128906 14.949219 89.980469 C 14.375 89.644531 13.800781 89.230469 13.351562 88.6875 C 12.90625 88.164062 12.613281 87.542969 12.257812 86.945312 C 12.234375 86.902344 12.203125 86.863281 12.1875 86.816406 C 12.117188 86.691406 12.027344 86.578125 11.953125 86.453125 C 11.914062 86.398438 11.796875 86.285156 11.6875 86.160156 C 11.589844 86.035156 11.503906 85.898438 11.515625 85.824219 C 11.515625 85.824219 12.027344 86.039062 12.058594 85.972656 C 12.078125 85.9375 12.03125 85.867188 12.023438 85.832031 C 11.851562 85.128906 12.003906 84.335938 12.339844 83.667969 C 12.675781 82.964844 13.300781 82.394531 14.011719 82.09375 L 14.164062 82.027344 C 14.574219 81.875 15.007812 81.789062 15.449219 81.78125 C 16.265625 81.757812 17.128906 82.050781 17.746094 82.660156 C 18.335938 83.269531 18.710938 84.078125 18.695312 84.960938 C 18.667969 85.269531 18.613281 85.574219 18.421875 85.84375 C 18.246094 86.101562 17.988281 86.320312 17.699219 86.425781 C 17.003906 86.6875 16.335938 86.550781 15.777344 86.128906 C 15.488281 85.917969 15.117188 85.566406 15.171875 85.167969 C 15.199219 84.9375 15.417969 84.878906 15.589844 84.777344 C 16.457031 84.257812 16.730469 86.296875 17.734375 85.636719 C 18.566406 85.09375 17.871094 83.703125 17.382812 83.175781 L 17.359375 83.144531 C 17.082031 82.851562 16.726562 82.644531 16.34375 82.527344 C 16.292969 82.507812 16.21875 82.457031 16.175781 82.582031 C 16.144531 82.695312 16.226562 82.992188 16.171875 83.105469 C 16.125 83.070312 15.976562 82.804688 15.914062 82.734375 C 15.566406 82.355469 15.042969 82.382812 14.613281 82.527344 C 14.003906 82.710938 13.457031 83.09375 13.117188 83.605469 C 12.773438 84.121094 12.617188 84.742188 12.65625 85.359375 C 12.664062 85.707031 12.742188 86.050781 12.839844 86.386719 C 13.214844 87.570312 14.003906 88.582031 15.046875 89.207031 L 15.078125 89.226562 L 15.242188 89.328125 C 15.433594 89.4375 15.628906 89.546875 15.828125 89.648438 C 15.914062 89.691406 15.972656 89.6875 16.078125 89.546875 C 16.140625 89.457031 16.066406 88.847656 16.140625 88.761719 C 16.0625 88.863281 16.328125 89.25 16.6875 89.59375 C 17.042969 89.941406 17.46875 90.246094 17.527344 90.269531 C 18.101562 90.472656 18.679688 90.664062 19.257812 90.832031 C 20.402344 91.171875 21.550781 91.445312 22.695312 91.628906 C 24.324219 91.898438 25.941406 92.058594 27.523438 92.046875 C 27.671875 92.042969 27.242188 91.464844 27.332031 91.289062 C 27.445312 91.507812 28.074219 91.6875 28.203125 91.765625 C 28.425781 91.894531 28.644531 91.96875 28.871094 91.980469 C 29.679688 92 30.464844 91.78125 31.222656 91.597656 C 32.066406 91.417969 32.875 91.128906 33.667969 90.828125 L 33.863281 90.75 L 34.058594 90.667969 C 34.914062 90.320312 35.742188 89.921875 36.550781 89.503906 C 36.945312 89.292969 37.339844 89.085938 37.730469 88.878906 L 38.3125 88.566406 C 38.390625 88.523438 38.5 88.519531 38.503906 88.378906 C 38.507812 88.257812 37.988281 87.960938 37.960938 87.820312 C 37.953125 87.777344 38.683594 87.890625 38.722656 87.894531 L 39.074219 87.917969 C 39.542969 87.949219 39.875 87.703125 40.242188 87.519531 C 40.644531 87.320312 41.046875 87.125 41.441406 86.929688 C 43.074219 86.167969 44.734375 85.476562 46.46875 85.148438 C 48.152344 84.835938 49.789062 84.726562 51.390625 84.636719 C 52.066406 84.613281 52.734375 84.589844 53.394531 84.566406 C 53.664062 84.554688 56.492188 84.761719 56.515625 84.472656 C 56.53125 84.257812 56.105469 83.5625 56.21875 83.523438 C 56.652344 83.785156 57.449219 84.34375 57.839844 84.460938 C 57.957031 84.496094 58.074219 84.492188 58.1875 84.488281 C 61.03125 84.425781 63.75 84.425781 66.34375 84.234375 C 66.765625 84.722656 67.414062 84.984375 68.101562 85.121094 " fill-opacity="1" fill-rule="nonzero"/><g clip-path="url(#d994cce65c)"><path fill="#c39d35" d="M 68.019531 85.105469 C 68.019531 85.113281 68.023438 85.121094 68.027344 85.128906 C 67.230469 85.277344 66.421875 85.382812 65.59375 85.421875 C 65.3125 85.433594 65.03125 85.445312 64.746094 85.457031 C 64.464844 85.449219 64.179688 85.441406 63.890625 85.433594 C 62.550781 85.382812 61.179688 85.171875 59.828125 84.894531 C 59.132812 84.738281 58.429688 84.582031 57.714844 84.421875 C 57.085938 84.289062 56.46875 84.046875 55.8125 84 C 55.402344 83.96875 55.019531 83.824219 54.613281 83.765625 C 54.40625 83.738281 54.195312 83.726562 53.976562 83.769531 C 53.769531 83.816406 53.554688 83.976562 53.34375 84.085938 C 53.1875 84.164062 52.816406 84.3125 52.523438 84.464844 C 52.503906 84.335938 52.925781 83.644531 52.882812 83.570312 C 52.847656 83.515625 52.765625 83.570312 52.722656 83.570312 C 52.652344 83.5625 52.582031 83.554688 52.515625 83.554688 L 51.855469 83.527344 L 51.1875 83.535156 C 50.425781 83.566406 49.65625 83.65625 48.886719 83.832031 C 48.109375 84.023438 47.328125 84.289062 46.539062 84.605469 C 45.53125 85.007812 44.519531 85.5 43.480469 86.019531 C 42.691406 86.421875 41.878906 86.824219 41.039062 87.222656 C 40.9375 87.269531 40.832031 87.316406 40.746094 87.402344 C 40.488281 87.65625 40.203125 88.722656 39.816406 88.769531 C 39.773438 88.5625 39.808594 87.988281 39.6875 87.898438 C 39.503906 87.757812 39.175781 88.0625 39.019531 88.121094 C 38.75 88.222656 38.488281 88.332031 38.214844 88.429688 C 36.183594 89.128906 34.085938 89.691406 31.878906 90.128906 L 31.671875 90.171875 L 31.101562 90.273438 C 30.417969 90.398438 29.726562 90.507812 29.035156 90.53125 C 28.746094 90.535156 28.507812 90.605469 28.214844 90.824219 C 28.144531 90.882812 27.574219 91.195312 27.15625 91.585938 C 27.125 91.441406 27.542969 90.726562 27.441406 90.691406 C 27.40625 90.675781 27.363281 90.699219 27.328125 90.707031 C 26.484375 90.863281 25.640625 90.765625 24.804688 90.726562 C 23.6875 90.683594 22.570312 90.542969 21.476562 90.292969 C 21.207031 90.226562 20.929688 90.183594 20.664062 90.097656 L 19.746094 89.824219 L 18.847656 89.484375 C 18.265625 89.257812 17.746094 88.917969 17.128906 88.75 C 17.085938 88.738281 17.035156 88.734375 16.996094 88.714844 C 16.871094 88.6875 16.738281 88.667969 16.601562 88.660156 C 16.480469 88.652344 15.96875 88.777344 15.902344 88.683594 C 15.902344 88.683594 16.023438 88.597656 16.148438 88.507812 C 16.269531 88.417969 16.394531 88.324219 16.386719 88.296875 C 16.375 88.261719 16.292969 88.261719 16.265625 88.25 C 15.671875 88.023438 15.144531 87.671875 14.574219 87.410156 C 13.980469 87.140625 13.367188 86.894531 12.726562 86.707031 L 12.59375 86.664062 C 12.230469 86.558594 11.859375 86.480469 11.480469 86.410156 C 10.046875 86.167969 8.492188 86.144531 6.890625 86.355469 C 5.859375 86.488281 4.804688 86.734375 3.75 87.074219 C 3.472656 87.171875 3.195312 87.261719 2.921875 87.371094 L 2.710938 87.453125 C 2.6875 87.460938 2.660156 87.464844 2.640625 87.480469 C 3.160156 87.070312 3.6875 86.621094 4.277344 86.351562 C 4.449219 86.277344 4.621094 86.21875 4.796875 86.175781 C 5.613281 85.992188 6.421875 85.808594 7.21875 85.710938 C 7.910156 85.625 8.59375 85.589844 9.261719 85.589844 L 9.308594 85.589844 C 9.785156 85.59375 10.253906 85.613281 10.710938 85.65625 C 10.773438 85.664062 10.855469 85.710938 10.910156 85.574219 C 10.960938 85.457031 10.832031 85.171875 10.886719 85.054688 C 10.976562 85.078125 11.195312 85.335938 11.257812 85.40625 C 11.648438 85.785156 12.136719 85.878906 12.632812 85.992188 C 13.976562 86.339844 15.191406 86.882812 16.332031 87.453125 C 16.652344 87.613281 16.96875 87.773438 17.285156 87.933594 C 18.390625 88.503906 19.503906 88.988281 20.679688 89.308594 L 20.714844 89.316406 L 20.902344 89.371094 C 21.109375 89.441406 21.328125 89.484375 21.542969 89.535156 C 21.640625 89.558594 21.699219 89.542969 21.800781 89.378906 C 21.863281 89.273438 21.734375 88.691406 21.800781 88.585938 C 21.722656 88.707031 22.054688 89.019531 22.4375 89.296875 C 22.832031 89.554688 23.273438 89.785156 23.332031 89.792969 C 23.929688 89.867188 24.519531 89.949219 25.125 89.960938 C 26.308594 90.023438 27.496094 89.964844 28.667969 89.816406 C 30.328125 89.613281 31.949219 89.320312 33.527344 88.941406 C 33.675781 88.90625 33.195312 88.441406 33.273438 88.253906 C 33.40625 88.4375 34.050781 88.484375 34.1875 88.523438 C 34.417969 88.601562 34.640625 88.636719 34.867188 88.601562 C 35.664062 88.46875 36.4375 88.136719 37.199219 87.890625 C 38.027344 87.625 38.824219 87.300781 39.605469 86.949219 L 39.800781 86.863281 L 39.992188 86.773438 C 40.832031 86.382812 41.652344 85.960938 42.460938 85.546875 C 42.859375 85.34375 43.25 85.140625 43.640625 84.941406 L 44.226562 84.648438 C 44.304688 84.609375 44.40625 84.605469 44.429688 84.472656 C 44.449219 84.359375 43.996094 84.066406 43.988281 83.933594 C 43.984375 83.886719 44.667969 84.015625 44.699219 84.019531 L 45.027344 84.054688 C 45.464844 84.109375 45.800781 83.886719 46.179688 83.738281 C 46.578125 83.570312 46.984375 83.425781 47.390625 83.285156 C 49.015625 82.710938 50.714844 82.441406 52.292969 82.5 C 53.828125 82.542969 55.285156 82.765625 56.683594 83.027344 C 57.269531 83.140625 57.847656 83.257812 58.417969 83.375 C 58.648438 83.429688 61.011719 84.148438 61.089844 83.867188 C 61.148438 83.675781 60.929688 82.976562 61.035156 82.964844 C 61.332031 83.261719 61.898438 83.875 62.214844 84.035156 C 62.308594 84.085938 62.410156 84.085938 62.507812 84.097656 C 63.792969 84.222656 65.058594 84.25 66.285156 84.164062 C 66.6875 84.675781 67.328125 84.957031 68.019531 85.105469 " fill-opacity="1" fill-rule="nonzero"/></g><path fill="#c39d35" d="M 82.222656 71.199219 C 82.53125 71.324219 83.480469 70.410156 83.792969 70.441406 C 83.824219 70.550781 83.425781 70.859375 83.324219 70.894531 C 83.617188 70.816406 84.898438 70.382812 85.199219 70.265625 C 85.792969 70.027344 86.449219 69.898438 87.117188 69.84375 C 88.191406 69.761719 89.292969 69.871094 90.386719 70.007812 C 90.566406 70.328125 86.886719 69.929688 86.152344 70.363281 C 87.121094 70.371094 87.886719 70.6875 88.488281 70.824219 C 88.660156 71.09375 87.441406 70.796875 86.914062 70.742188 C 85.671875 70.613281 83.382812 70.785156 82.457031 71.488281 C 82.519531 71.515625 84.050781 71.839844 84.507812 71.945312 C 85.011719 72.0625 85.511719 72.222656 86.011719 72.367188 C 86.503906 72.507812 86.621094 72.332031 86.683594 71.953125 C 86.71875 71.753906 87.367188 71.984375 87.558594 72.011719 C 87.957031 72.066406 88.363281 72.089844 88.761719 72.078125 C 89.484375 72.0625 90.644531 71.988281 91.136719 71.527344 C 91.277344 71.394531 90.90625 71.199219 90.859375 71.101562 C 90.742188 70.859375 90.910156 70.816406 91.128906 70.695312 C 91.910156 70.265625 92.75 70.046875 93.667969 69.871094 C 94.011719 69.808594 92.855469 68.78125 92.734375 68.6875 C 92.113281 68.195312 91.382812 67.808594 90.589844 67.628906 C 89.472656 67.371094 88.746094 67.722656 87.792969 68.050781 C 87.820312 67.902344 87.902344 67.761719 87.964844 67.621094 C 87.976562 67.59375 87.988281 67.566406 87.980469 67.539062 C 87.96875 67.503906 87.929688 67.480469 87.894531 67.460938 C 87.078125 67.019531 86.207031 67.21875 85.550781 67.65625 C 84.925781 68.074219 84.566406 68.71875 84.148438 69.289062 C 84.238281 69.214844 84.1875 69.0625 84.074219 68.996094 C 83.957031 68.933594 83.8125 68.945312 83.707031 69 C 83.597656 69.054688 83.523438 69.140625 83.449219 69.226562 C 83.320312 69.386719 82.191406 71.183594 82.222656 71.199219 " fill-opacity="1" fill-rule="nonzero"/><g clip-path="url(#6c5156c9d6)"><path fill="#c39d35" d="M 85.832031 73.09375 C 86.121094 73.019531 86.832031 73.941406 87.113281 73.957031 C 87.152344 73.863281 86.84375 73.542969 86.757812 73.5 C 87.007812 73.605469 88.074219 74.152344 88.320312 74.292969 C 88.8125 74.578125 89.371094 74.777344 89.949219 74.910156 C 90.878906 75.121094 91.863281 75.167969 92.835938 75.191406 C 93.039062 74.933594 89.757812 74.804688 89.171875 74.332031 C 90.023438 74.449219 90.730469 74.269531 91.28125 74.226562 C 91.460938 74.011719 90.355469 74.117188 89.886719 74.097656 C 88.78125 74.050781 86.796875 73.601562 86.074219 72.867188 C 86.132812 72.847656 87.519531 72.765625 87.933594 72.730469 C 88.390625 72.695312 88.851562 72.617188 89.308594 72.558594 C 89.753906 72.496094 89.835938 72.664062 89.84375 73.003906 C 89.847656 73.183594 90.445312 73.066406 90.617188 73.066406 C 90.972656 73.070312 91.332031 73.105469 91.679688 73.164062 C 92.308594 73.273438 93.316406 73.488281 93.691406 73.957031 C 93.796875 74.089844 93.449219 74.210938 93.390625 74.292969 C 93.257812 74.488281 93.402344 74.546875 93.578125 74.683594 C 94.207031 75.160156 94.914062 75.460938 95.695312 75.730469 C 95.988281 75.832031 94.84375 76.582031 94.722656 76.652344 C 94.121094 77 93.425781 77.246094 92.707031 77.300781 C 91.695312 77.382812 91.101562 76.980469 90.308594 76.570312 C 90.316406 76.703125 90.371094 76.839844 90.40625 76.96875 C 90.414062 76.992188 90.417969 77.019531 90.40625 77.042969 C 90.394531 77.070312 90.355469 77.085938 90.324219 77.101562 C 89.550781 77.382812 88.8125 77.09375 88.296875 76.628906 C 87.800781 76.179688 87.566406 75.570312 87.277344 75.011719 C 87.34375 75.089844 87.277344 75.21875 87.171875 75.257812 C 87.0625 75.300781 86.9375 75.273438 86.847656 75.210938 C 86.761719 75.148438 86.707031 75.0625 86.65625 74.976562 C 86.5625 74.820312 85.804688 73.097656 85.832031 73.09375 " fill-opacity="1" fill-rule="nonzero"/></g><path fill="#c39d35" d="M 69.777344 86.816406 C 69.632812 87.078125 68.472656 86.980469 68.273438 87.175781 C 68.3125 87.269531 68.761719 87.257812 68.847656 87.226562 C 68.601562 87.335938 67.480469 87.753906 67.207031 87.839844 C 66.667969 88.011719 66.144531 88.289062 65.65625 88.628906 C 64.871094 89.171875 64.175781 89.863281 63.5 90.570312 C 63.554688 90.890625 65.863281 88.558594 66.609375 88.445312 C 65.949219 88.992188 65.601562 89.636719 65.261719 90.070312 C 65.296875 90.347656 65.964844 89.460938 66.296875 89.128906 C 67.078125 88.347656 68.75 87.183594 69.777344 87.148438 C 69.75 87.203125 68.878906 88.28125 68.625 88.609375 C 68.34375 88.972656 68.089844 89.363281 67.824219 89.742188 C 67.566406 90.113281 67.390625 90.058594 67.132812 89.832031 C 67 89.714844 66.683594 90.238281 66.566406 90.363281 C 66.320312 90.625 66.058594 90.867188 65.777344 91.082031 C 65.273438 91.472656 64.433594 92.074219 63.835938 92.03125 C 63.667969 92.023438 63.8125 91.683594 63.789062 91.585938 C 63.734375 91.355469 63.59375 91.417969 63.375 91.457031 C 62.597656 91.597656 61.898438 91.917969 61.171875 92.3125 C 60.898438 92.460938 61.121094 91.109375 61.148438 90.976562 C 61.300781 90.292969 61.585938 89.617188 62.027344 89.046875 C 62.65625 88.246094 63.347656 88.082031 64.1875 87.773438 C 64.085938 87.6875 63.949219 87.636719 63.828125 87.574219 C 63.804688 87.5625 63.78125 87.550781 63.773438 87.527344 C 63.761719 87.496094 63.773438 87.460938 63.789062 87.425781 C 64.101562 86.664062 64.8125 86.3125 65.503906 86.246094 C 66.167969 86.183594 66.777344 86.425781 67.382812 86.585938 C 67.28125 86.582031 67.230469 86.449219 67.273438 86.339844 C 67.316406 86.234375 67.421875 86.160156 67.527344 86.136719 C 67.628906 86.113281 67.730469 86.128906 67.828125 86.152344 C 68.007812 86.1875 69.789062 86.789062 69.777344 86.816406 " fill-opacity="1" fill-rule="nonzero"/><path fill="#c39d35" d="M 68.292969 72.800781 C 68.105469 72.585938 67.035156 72.90625 66.8125 72.761719 C 66.832031 72.664062 67.253906 72.589844 67.339844 72.601562 C 67.089844 72.546875 65.953125 72.375 65.679688 72.347656 C 65.136719 72.296875 64.59375 72.136719 64.066406 71.917969 C 63.222656 71.5625 62.433594 71.050781 61.660156 70.523438 C 61.648438 70.210938 64.277344 71.941406 64.996094 71.898438 C 64.269531 71.515625 63.816406 70.980469 63.414062 70.640625 C 63.390625 70.371094 64.195312 71.074219 64.570312 71.320312 C 65.457031 71.898438 67.257812 72.660156 68.226562 72.488281 C 68.191406 72.445312 67.160156 71.601562 66.855469 71.347656 C 66.519531 71.0625 66.207031 70.746094 65.882812 70.441406 C 65.566406 70.144531 65.410156 70.230469 65.214844 70.492188 C 65.113281 70.632812 64.710938 70.203125 64.578125 70.109375 C 64.296875 69.910156 64 69.738281 63.695312 69.589844 C 63.144531 69.324219 62.238281 68.925781 61.683594 69.082031 C 61.53125 69.125 61.734375 69.417969 61.730469 69.511719 C 61.726562 69.738281 61.582031 69.707031 61.367188 69.710938 C 60.613281 69.734375 59.890625 69.570312 59.132812 69.34375 C 58.847656 69.261719 59.320312 70.484375 59.375 70.605469 C 59.648438 71.214844 60.054688 71.792969 60.582031 72.238281 C 61.328125 72.867188 62.011719 72.886719 62.859375 73.007812 C 62.777344 73.109375 62.660156 73.183594 62.5625 73.265625 C 62.542969 73.28125 62.523438 73.296875 62.519531 73.324219 C 62.511719 73.351562 62.53125 73.386719 62.550781 73.414062 C 62.996094 74.066406 63.730469 74.257812 64.394531 74.179688 C 65.03125 74.109375 65.554688 73.761719 66.089844 73.492188 C 65.996094 73.515625 65.976562 73.652344 66.035156 73.742188 C 66.097656 73.835938 66.210938 73.882812 66.316406 73.886719 C 66.417969 73.886719 66.507812 73.851562 66.597656 73.8125 C 66.757812 73.742188 68.3125 72.824219 68.292969 72.800781 " fill-opacity="1" fill-rule="nonzero"/><path fill="#c39d35" d="M 79.769531 52.457031 C 79.894531 52.144531 78.972656 51.207031 78.996094 50.894531 C 79.105469 50.859375 79.417969 51.257812 79.453125 51.355469 C 79.375 51.0625 78.925781 49.789062 78.804688 49.488281 C 78.558594 48.898438 78.421875 48.242188 78.363281 47.578125 C 78.265625 46.503906 78.363281 45.398438 78.484375 44.304688 C 78.804688 44.121094 78.449219 47.808594 78.890625 48.535156 C 78.890625 47.566406 79.195312 46.796875 79.324219 46.191406 C 79.59375 46.019531 79.308594 47.242188 79.261719 47.769531 C 79.148438 49.011719 79.347656 51.300781 80.0625 52.21875 C 80.085938 52.15625 80.394531 50.617188 80.492188 50.160156 C 80.605469 49.65625 80.757812 49.152344 80.894531 48.652344 C 81.03125 48.15625 80.855469 48.042969 80.476562 47.984375 C 80.273438 47.953125 80.5 47.300781 80.523438 47.109375 C 80.574219 46.710938 80.589844 46.304688 80.578125 45.90625 C 80.550781 45.183594 80.460938 44.023438 79.996094 43.535156 C 79.863281 43.398438 79.671875 43.769531 79.574219 43.820312 C 79.335938 43.941406 79.289062 43.773438 79.164062 43.554688 C 78.726562 42.78125 78.496094 41.941406 78.3125 41.027344 C 78.246094 40.683594 77.230469 41.851562 77.140625 41.972656 C 76.65625 42.597656 76.273438 43.335938 76.105469 44.128906 C 75.863281 45.253906 76.21875 45.972656 76.558594 46.921875 C 76.414062 46.894531 76.269531 46.8125 76.128906 46.753906 C 76.101562 46.742188 76.074219 46.730469 76.046875 46.742188 C 76.011719 46.753906 75.988281 46.789062 75.96875 46.828125 C 75.535156 47.648438 75.746094 48.519531 76.191406 49.167969 C 76.617188 49.789062 77.261719 50.140625 77.839844 50.550781 C 77.765625 50.464844 77.613281 50.515625 77.550781 50.628906 C 77.488281 50.746094 77.5 50.890625 77.554688 51 C 77.609375 51.105469 77.699219 51.179688 77.785156 51.25 C 77.945312 51.378906 79.757812 52.488281 79.769531 52.457031 " fill-opacity="1" fill-rule="nonzero"/><path fill="#c39d35" d="M 85.996094 25.523438 C 85.75 25.347656 85.980469 24.1875 85.808594 23.960938 C 85.707031 23.992188 85.667969 24.445312 85.691406 24.539062 C 85.605469 24.277344 85.3125 23.097656 85.253906 22.808594 C 85.144531 22.242188 84.925781 21.679688 84.640625 21.148438 C 84.179688 20.292969 83.558594 19.511719 82.921875 18.746094 C 82.589844 18.765625 84.6875 21.367188 84.714844 22.132812 C 84.234375 21.402344 83.625 20.976562 83.226562 20.585938 C 82.9375 20.589844 83.757812 21.367188 84.058594 21.742188 C 84.757812 22.617188 85.746094 24.441406 85.660156 25.488281 C 85.609375 25.453125 84.617188 24.449219 84.316406 24.152344 C 83.980469 23.828125 83.613281 23.527344 83.261719 23.214844 C 82.917969 22.910156 82.992188 22.738281 83.25 22.507812 C 83.386719 22.382812 82.894531 22.003906 82.78125 21.871094 C 82.542969 21.59375 82.328125 21.296875 82.144531 20.992188 C 81.804688 20.433594 81.292969 19.519531 81.402344 18.917969 C 81.433594 18.75 81.761719 18.933594 81.863281 18.921875 C 82.101562 18.894531 82.050781 18.746094 82.039062 18.519531 C 81.984375 17.71875 81.742188 16.972656 81.425781 16.195312 C 81.304688 15.898438 82.648438 16.277344 82.777344 16.324219 C 83.453125 16.554688 84.105469 16.921875 84.628906 17.433594 C 85.367188 18.160156 85.457031 18.878906 85.671875 19.761719 C 85.769531 19.667969 85.835938 19.535156 85.914062 19.421875 C 85.925781 19.402344 85.941406 19.378906 85.96875 19.371094 C 86 19.363281 86.035156 19.378906 86.066406 19.398438 C 86.800781 19.800781 87.074219 20.558594 87.0625 21.269531 C 87.050781 21.949219 86.738281 22.535156 86.507812 23.128906 C 86.519531 23.027344 86.660156 22.992188 86.765625 23.046875 C 86.871094 23.101562 86.929688 23.21875 86.941406 23.324219 C 86.953125 23.433594 86.925781 23.535156 86.894531 23.632812 C 86.835938 23.808594 86.023438 25.539062 85.996094 25.523438 " fill-opacity="1" fill-rule="nonzero"/><path fill="#c39d35" d="M 90.539062 12.730469 C 90.683594 12.527344 90.230469 11.695312 90.3125 11.476562 C 90.394531 11.46875 90.53125 11.808594 90.539062 11.886719 C 90.539062 11.660156 90.484375 10.667969 90.457031 10.433594 C 90.40625 9.964844 90.441406 9.472656 90.535156 8.984375 C 90.683594 8.195312 90.972656 7.421875 91.277344 6.65625 C 91.535156 6.578125 90.550781 9.164062 90.710938 9.761719 C 90.902344 9.066406 91.269531 8.570312 91.480469 8.15625 C 91.703125 8.078125 91.261719 8.90625 91.121094 9.277344 C 90.792969 10.148438 90.472656 11.828125 90.785156 12.609375 C 90.816406 12.566406 91.335938 11.515625 91.496094 11.207031 C 91.675781 10.863281 91.886719 10.527344 92.078125 10.191406 C 92.273438 9.863281 92.171875 9.75 91.921875 9.640625 C 91.789062 9.585938 92.074219 9.15625 92.128906 9.023438 C 92.246094 8.742188 92.339844 8.457031 92.40625 8.167969 C 92.535156 7.644531 92.707031 6.796875 92.480469 6.367188 C 92.414062 6.246094 92.207031 6.476562 92.128906 6.496094 C 91.941406 6.542969 91.941406 6.414062 91.898438 6.234375 C 91.75 5.605469 91.757812 4.960938 91.8125 4.273438 C 91.835938 4.015625 90.898438 4.679688 90.808594 4.75 C 90.347656 5.113281 89.9375 5.578125 89.65625 6.121094 C 89.265625 6.882812 89.367188 7.460938 89.414062 8.203125 C 89.316406 8.15625 89.234375 8.074219 89.148438 8.007812 C 89.132812 7.996094 89.117188 7.980469 89.09375 7.984375 C 89.070312 7.988281 89.042969 8.007812 89.023438 8.03125 C 88.558594 8.546875 88.53125 9.207031 88.707031 9.75 C 88.878906 10.269531 89.257812 10.632812 89.578125 11.027344 C 89.542969 10.953125 89.425781 10.964844 89.359375 11.035156 C 89.292969 11.105469 89.273438 11.214844 89.289062 11.300781 C 89.308594 11.386719 89.351562 11.457031 89.402344 11.519531 C 89.484375 11.640625 90.523438 12.75 90.539062 12.730469 " fill-opacity="1" fill-rule="nonzero"/><path fill="#c39d35" d="M 65.234375 74.671875 C 65.171875 74.902344 64.25 75.039062 64.128906 75.226562 C 64.175781 75.292969 64.523438 75.199219 64.585938 75.160156 C 64.414062 75.292969 63.617188 75.824219 63.417969 75.9375 C 63.027344 76.171875 62.667969 76.480469 62.351562 76.835938 C 61.835938 77.402344 61.421875 78.070312 61.023438 78.742188 C 61.125 78.980469 62.5 76.742188 63.0625 76.519531 C 62.644531 77.066406 62.492188 77.632812 62.304688 78.03125 C 62.382812 78.242188 62.746094 77.429688 62.941406 77.109375 C 63.40625 76.355469 64.5 75.144531 65.296875 74.929688 C 65.285156 74.976562 64.800781 75.980469 64.664062 76.28125 C 64.511719 76.617188 64.382812 76.964844 64.246094 77.308594 C 64.113281 77.644531 63.964844 77.636719 63.722656 77.507812 C 63.597656 77.4375 63.445312 77.902344 63.375 78.023438 C 63.234375 78.273438 63.070312 78.507812 62.894531 78.726562 C 62.570312 79.125 62.023438 79.746094 61.550781 79.820312 C 61.417969 79.84375 61.46875 79.550781 61.433594 79.480469 C 61.347656 79.3125 61.25 79.386719 61.085938 79.457031 C 60.507812 79.707031 60.019531 80.085938 59.523438 80.527344 C 59.335938 80.691406 59.265625 79.59375 59.261719 79.488281 C 59.257812 78.925781 59.355469 78.34375 59.597656 77.824219 C 59.941406 77.082031 60.453125 76.828125 61.050781 76.433594 C 60.953125 76.386719 60.839844 76.371094 60.734375 76.347656 C 60.714844 76.339844 60.695312 76.335938 60.683594 76.320312 C 60.667969 76.296875 60.671875 76.265625 60.675781 76.238281 C 60.78125 75.585938 61.269531 75.183594 61.800781 75.003906 C 62.308594 74.835938 62.824219 74.914062 63.328125 74.925781 C 63.246094 74.941406 63.183594 74.847656 63.195312 74.757812 C 63.210938 74.664062 63.28125 74.589844 63.355469 74.550781 C 63.433594 74.515625 63.515625 74.511719 63.597656 74.507812 C 63.742188 74.503906 65.242188 74.648438 65.234375 74.671875 " fill-opacity="1" fill-rule="nonzero"/><path fill="#c39d35" d="M 51.378906 81.28125 C 51.109375 81.410156 50.222656 80.660156 49.945312 80.703125 C 49.925781 80.804688 50.296875 81.050781 50.386719 81.078125 C 50.121094 81.027344 48.964844 80.71875 48.691406 80.628906 C 48.152344 80.453125 47.566406 80.375 46.972656 80.367188 C 46.015625 80.355469 45.046875 80.519531 44.089844 80.699219 C 43.949219 80.992188 47.183594 80.429688 47.855469 80.773438 C 46.996094 80.835938 46.339844 81.160156 45.8125 81.316406 C 45.679688 81.5625 46.742188 81.230469 47.203125 81.148438 C 48.292969 80.964844 50.328125 80.984375 51.1875 81.554688 C 51.136719 81.582031 49.796875 81.957031 49.398438 82.078125 C 48.960938 82.207031 48.527344 82.378906 48.09375 82.535156 C 47.667969 82.6875 47.554688 82.539062 47.476562 82.207031 C 47.433594 82.035156 46.875 82.277344 46.707031 82.308594 C 46.355469 82.382812 46 82.425781 45.648438 82.441406 C 45.007812 82.464844 43.976562 82.464844 43.511719 82.085938 C 43.382812 81.980469 43.695312 81.789062 43.734375 81.695312 C 43.824219 81.476562 43.675781 81.449219 43.472656 81.351562 C 42.757812 81.019531 42 80.871094 41.179688 80.773438 C 40.871094 80.734375 41.835938 79.761719 41.9375 79.667969 C 42.457031 79.199219 43.082031 78.8125 43.773438 78.609375 C 44.746094 78.320312 45.410156 78.585938 46.269531 78.820312 C 46.234375 78.691406 46.15625 78.570312 46.09375 78.453125 C 46.082031 78.429688 46.070312 78.40625 46.074219 78.378906 C 46.082031 78.347656 46.117188 78.324219 46.144531 78.308594 C 46.84375 77.867188 47.625 77.992188 48.230469 78.339844 C 48.804688 78.675781 49.160156 79.222656 49.5625 79.707031 C 49.480469 79.644531 49.519531 79.507812 49.617188 79.441406 C 49.710938 79.378906 49.84375 79.382812 49.941406 79.421875 C 50.039062 79.464844 50.109375 79.539062 50.179688 79.609375 C 50.300781 79.742188 51.40625 81.269531 51.378906 81.28125 " fill-opacity="1" fill-rule="nonzero"/><path fill="#c39d35" d="M 15.84375 90.949219 C 15.664062 90.792969 14.828125 91.179688 14.625 91.089844 C 14.632812 91.007812 14.96875 90.898438 15.042969 90.898438 C 14.828125 90.878906 13.878906 90.871094 13.652344 90.882812 C 13.203125 90.902344 12.738281 90.835938 12.28125 90.71875 C 11.550781 90.527344 10.84375 90.199219 10.152344 89.855469 C 10.101562 89.601562 12.457031 90.714844 13.042969 90.59375 C 12.402344 90.367188 11.96875 89.980469 11.597656 89.75 C 11.546875 89.53125 12.289062 90.011719 12.625 90.171875 C 13.417969 90.542969 14.980469 90.953125 15.753906 90.703125 C 15.71875 90.667969 14.777344 90.101562 14.5 89.925781 C 14.191406 89.730469 13.894531 89.507812 13.597656 89.300781 C 13.304688 89.09375 13.1875 89.183594 13.054688 89.417969 C 12.988281 89.542969 12.609375 89.242188 12.488281 89.179688 C 12.238281 89.050781 11.972656 88.941406 11.707031 88.855469 C 11.222656 88.703125 10.4375 88.484375 10.003906 88.675781 C 9.878906 88.730469 10.078125 88.945312 10.089844 89.023438 C 10.113281 89.207031 9.992188 89.199219 9.816406 89.226562 C 9.199219 89.332031 8.589844 89.285156 7.941406 89.1875 C 7.699219 89.152344 8.230469 90.097656 8.289062 90.191406 C 8.585938 90.65625 8.984375 91.085938 9.464844 91.386719 C 10.152344 91.816406 10.714844 91.75 11.421875 91.753906 C 11.367188 91.84375 11.28125 91.917969 11.207031 91.996094 C 11.191406 92.011719 11.179688 92.027344 11.179688 92.050781 C 11.179688 92.074219 11.199219 92.097656 11.21875 92.121094 C 11.65625 92.601562 12.28125 92.671875 12.816406 92.53125 C 13.328125 92.398438 13.714844 92.054688 14.121094 91.769531 C 14.046875 91.800781 14.046875 91.914062 14.109375 91.984375 C 14.167969 92.050781 14.269531 92.078125 14.351562 92.066406 C 14.433594 92.054688 14.503906 92.015625 14.574219 91.972656 C 14.695312 91.898438 15.859375 90.964844 15.84375 90.949219 " fill-opacity="1" fill-rule="nonzero"/><path fill="#c39d35" d="M 67.101562 84.800781 C 67.320312 84.90625 67.558594 84.988281 67.804688 85.054688 C 65.414062 85.582031 61.285156 86.464844 60.347656 86.757812 C 59.863281 86.910156 59.382812 87.09375 58.90625 87.273438 C 58.246094 87.523438 57.59375 87.78125 56.960938 88.097656 C 56.914062 88.121094 56.851562 88.195312 56.867188 88.257812 C 56.882812 88.308594 56.941406 88.304688 56.984375 88.304688 C 57.5625 88.28125 58.152344 88.191406 58.730469 88.214844 C 59.011719 88.230469 59.386719 88.355469 59.492188 88.648438 C 59.265625 88.566406 59.058594 88.507812 58.8125 88.535156 C 58.570312 88.558594 58.339844 88.636719 58.105469 88.707031 C 57.550781 88.878906 56.992188 89.089844 56.40625 89.105469 C 56.097656 89.117188 55.734375 89.117188 55.640625 88.757812 C 55.582031 88.53125 55.566406 88.34375 55.460938 88.128906 C 55.253906 87.691406 55.304688 87.417969 55.726562 87.109375 C 56.09375 86.839844 56.539062 86.871094 56.9375 86.660156 C 57.703125 86.308594 57.882812 85.679688 57.894531 85.929688 C 57.902344 86.128906 57.847656 86.332031 57.753906 86.507812 C 57.558594 86.871094 57.222656 87.167969 56.875 87.386719 C 57.6875 86.875 58.609375 86.582031 59.539062 86.363281 C 60.316406 86.179688 64.460938 85.265625 67.101562 84.800781 " fill-opacity="1" fill-rule="nonzero"/><path fill="#c39d35" d="M 84.390625 67.707031 C 84.226562 67.757812 84.082031 67.832031 83.953125 67.9375 C 87.726562 65.457031 89.015625 60.9375 89.15625 59.9375 C 89.230469 59.433594 89.273438 58.921875 89.316406 58.417969 C 89.375 57.714844 89.421875 57.011719 89.410156 56.304688 C 89.410156 56.253906 89.367188 56.164062 89.304688 56.152344 C 89.253906 56.140625 89.230469 56.195312 89.214844 56.234375 C 88.984375 56.765625 88.8125 57.335938 88.539062 57.847656 C 88.40625 58.097656 88.128906 58.382812 87.820312 58.347656 C 87.996094 58.179688 88.132812 58.019531 88.214844 57.785156 C 88.296875 57.558594 88.328125 57.3125 88.363281 57.074219 C 88.453125 56.5 88.503906 55.902344 88.738281 55.367188 C 88.863281 55.085938 89.019531 54.757812 89.382812 54.828125 C 89.613281 54.871094 89.789062 54.9375 90.027344 54.9375 C 90.511719 54.9375 90.738281 55.101562 90.835938 55.617188 C 90.917969 56.066406 90.699219 56.449219 90.714844 56.90625 C 90.703125 57.746094 91.191406 58.175781 90.960938 58.082031 C 90.777344 58.003906 90.617188 57.863281 90.5 57.703125 C 90.257812 57.371094 90.136719 56.941406 90.089844 56.535156 C 90.203125 57.488281 90.070312 58.445312 89.863281 59.378906 C 88.417969 65.796875 86.566406 66.15625 84.390625 67.707031 " fill-opacity="1" fill-rule="nonzero"/><path fill="#c39d35" d="M 74.015625 84 C 74.691406 83.90625 75.359375 83.640625 75.984375 83.34375 C 76.066406 83.304688 75.449219 83.160156 75.421875 83.15625 C 74.988281 83.125 74.5625 83.042969 74.152344 82.914062 C 73.464844 82.695312 71.183594 80.828125 72.761719 80.09375 C 73.089844 79.941406 73.664062 79.988281 74.003906 80 C 74.328125 80.007812 73.890625 80.339844 73.8125 80.398438 C 72.859375 81.15625 75.199219 82.265625 75.566406 82.5625 C 75.871094 82.804688 75.949219 82.21875 75.882812 82 C 75.789062 81.699219 75.515625 81.5625 75.324219 81.347656 C 75.164062 81.167969 75.066406 80.941406 75.28125 80.730469 C 75.402344 80.613281 75.570312 80.570312 75.730469 80.582031 C 76.144531 80.609375 76.707031 80.886719 76.886719 81.296875 C 77.09375 81.757812 76.8125 82.234375 76.613281 82.648438 C 76.574219 82.730469 76.480469 82.875 76.511719 82.964844 C 76.652344 83.378906 77.695312 82.539062 77.789062 82.332031 C 78.191406 81.429688 77.851562 80.714844 77.238281 80.125 C 76.425781 79.34375 75.34375 79.121094 74.257812 79.039062 C 73.453125 78.980469 72.644531 79.105469 71.960938 79.617188 C 71.410156 80.027344 71.183594 80.570312 70.976562 81.226562 C 70.855469 81.601562 70.710938 81.945312 70.480469 82.257812 C 70.148438 82.695312 70.089844 82.730469 70.59375 82.988281 C 71.222656 83.304688 71.890625 83.632812 72.554688 83.871094 C 73.03125 84.042969 73.523438 84.066406 74.015625 84 " fill-opacity="1" fill-rule="nonzero"/><path fill="#c39d35" d="M 75.574219 85.726562 C 75.3125 85.582031 75.054688 85.425781 74.78125 85.289062 C 74.527344 85.164062 74.328125 84.84375 74.765625 84.828125 C 75.171875 84.816406 75.597656 84.804688 75.953125 84.585938 C 76.210938 84.425781 76.304688 84.109375 76.519531 83.902344 C 76.75 83.6875 77.042969 83.707031 77.316406 83.777344 C 78.136719 83.992188 78.617188 83.558594 79.289062 83.089844 C 79.5625 82.902344 79.824219 82.679688 79.980469 82.378906 C 80.011719 82.320312 80.039062 82.253906 80.085938 82.203125 C 80.265625 82.007812 80.394531 82.28125 80.4375 82.433594 C 80.597656 82.996094 80.648438 83.460938 80.515625 84.054688 C 80.382812 84.675781 80.015625 85.230469 79.921875 85.847656 C 79.894531 86.03125 79.875 86.214844 79.8125 86.386719 C 79.636719 86.867188 79.214844 86.839844 78.832031 86.71875 C 77.996094 86.453125 77.117188 86.335938 76.289062 86.054688 C 76.035156 85.964844 75.800781 85.851562 75.574219 85.726562 " fill-opacity="1" fill-rule="nonzero"/><path fill="#c39d35" d="M 73.996094 85.179688 C 73.988281 85.1875 73.980469 85.199219 73.972656 85.207031 C 73.695312 85.546875 73.148438 85.773438 72.78125 85.984375 C 72.535156 86.128906 72.160156 86.480469 71.863281 86.425781 C 71.097656 86.289062 70.753906 85.152344 70.164062 84.730469 C 69.847656 84.5 69.453125 84.414062 69.0625 84.355469 C 68.519531 84.273438 67.964844 84.253906 67.414062 84.214844 C 67.285156 84.203125 67.148438 84.191406 67.054688 84.109375 C 66.957031 84.027344 66.917969 83.890625 66.890625 83.761719 C 66.628906 82.617188 66.820312 81.632812 67.179688 80.511719 C 67.257812 80.261719 67.335938 80.015625 67.414062 79.765625 C 67.449219 79.65625 67.492188 79.566406 67.582031 79.515625 C 67.382812 79.625 68.183594 81.3125 68.28125 81.476562 C 68.816406 82.386719 69.605469 83.09375 70.496094 83.59375 C 71.109375 83.9375 71.761719 84.195312 72.425781 84.414062 C 72.753906 84.523438 73.085938 84.625 73.417969 84.71875 C 73.582031 84.765625 73.960938 84.757812 74.035156 84.960938 C 74.058594 85.03125 74.035156 85.113281 73.996094 85.179688 " fill-opacity="1" fill-rule="nonzero"/><path fill="#c39d35" d="M 78.570312 82.257812 C 78.550781 82.398438 78.554688 82.535156 78.59375 82.660156 C 78.75 83.117188 79.515625 81.863281 79.59375 81.714844 C 80.011719 80.941406 80.191406 80.066406 79.785156 79.273438 C 79.46875 78.660156 78.902344 78.265625 78.402344 77.839844 C 78.160156 77.632812 77.925781 77.417969 77.726562 77.160156 C 77.507812 76.878906 77.433594 76.546875 77.273438 76.226562 C 77.234375 76.144531 77.179688 76.0625 77.105469 76.011719 C 76.753906 75.789062 76.070312 76.292969 75.691406 76.351562 C 73.855469 76.644531 72.003906 76.554688 70.183594 77.050781 C 69.957031 77.113281 69.730469 77.183594 69.5 77.21875 C 69.355469 77.238281 68.976562 77.152344 68.875 77.257812 C 68.828125 77.308594 68.808594 77.378906 68.789062 77.445312 C 68.507812 78.496094 68.1875 79.371094 68.554688 80.417969 C 68.777344 80.925781 69.226562 81.269531 69.476562 81.761719 C 69.578125 81.96875 69.769531 81.382812 69.8125 81.28125 C 69.9375 81.011719 70.058594 80.742188 70.199219 80.480469 C 70.492188 79.9375 70.855469 79.441406 71.339844 79.070312 C 72.234375 78.382812 73.191406 78.332031 74.230469 78.40625 C 75.449219 78.492188 76.613281 78.515625 77.644531 79.253906 C 77.910156 79.441406 78.175781 79.660156 78.285156 79.988281 C 78.441406 80.429688 78.664062 80.902344 78.695312 81.386719 C 78.710938 81.664062 78.605469 81.972656 78.570312 82.257812 " fill-opacity="1" fill-rule="nonzero"/><path fill="#c39d35" d="M 66.0625 77.527344 C 66.132812 78.011719 66.28125 78.519531 66.5625 78.910156 C 66.664062 79.054688 66.804688 79.203125 66.960938 79.285156 C 67.480469 79.550781 67.609375 78.589844 67.726562 78.242188 C 67.910156 77.699219 68.195312 76.855469 68.746094 76.621094 C 68.945312 76.53125 69.164062 76.503906 69.378906 76.46875 C 70.652344 76.269531 71.910156 75.835938 73.160156 75.484375 C 72.996094 75.53125 72.335938 74.996094 72.167969 74.914062 C 71.757812 74.710938 71.328125 74.542969 70.890625 74.417969 C 69.625 74.0625 68.09375 73.875 66.867188 74.617188 C 66.683594 74.726562 66.507812 74.863281 66.320312 74.960938 C 65.941406 75.15625 65.6875 75.269531 65.820312 75.757812 C 65.976562 76.339844 65.980469 76.933594 66.0625 77.527344 " fill-opacity="1" fill-rule="nonzero"/><path fill="#c39d35" d="M 71.148438 73.953125 C 71.617188 74.195312 72.199219 74.285156 72.695312 74.480469 C 73.21875 74.6875 73.738281 75.003906 74.28125 75.203125 C 75.035156 75.480469 75.742188 75.277344 76.519531 75.25 C 77.894531 75.199219 79.253906 76.316406 80.492188 76.804688 C 80.800781 76.925781 80.632812 75.53125 80.613281 75.328125 C 80.566406 74.890625 80.429688 74.484375 80.191406 74.132812 C 79.824219 73.589844 79.3125 73.183594 78.785156 72.816406 C 78.445312 72.585938 78.101562 72.367188 77.75 72.164062 C 77.023438 71.746094 76.371094 72.152344 75.648438 72.425781 C 74.898438 72.710938 74.128906 72.90625 73.363281 73.117188 C 72.972656 73.226562 72.578125 73.34375 72.191406 73.476562 C 71.910156 73.574219 71.320312 73.703125 71.148438 73.953125 " fill-opacity="1" fill-rule="nonzero"/><path fill="#c39d35" d="M 78.492188 76.21875 C 78.164062 76.042969 77.820312 75.933594 78.128906 76.390625 C 78.464844 76.894531 78.867188 77.339844 79.273438 77.777344 C 79.710938 78.253906 80.175781 78.730469 80.464844 79.332031 C 80.648438 79.714844 80.675781 80.144531 80.734375 80.566406 C 80.792969 81.007812 80.9375 81.46875 81.011719 81.917969 C 81.074219 82.3125 80.894531 82.980469 81.070312 83.308594 C 81.375 83.863281 83.558594 82.113281 83.90625 81.816406 C 84.292969 81.484375 84.636719 81.0625 84.769531 80.558594 C 84.78125 80.511719 84.792969 80.460938 84.773438 80.417969 C 84.695312 80.257812 84.378906 80.152344 84.246094 80.074219 C 83.972656 79.914062 83.71875 79.726562 83.480469 79.515625 C 83.199219 79.261719 82.945312 78.976562 82.65625 78.726562 C 81.53125 77.75 80.042969 77.414062 78.898438 76.476562 C 78.828125 76.417969 78.660156 76.308594 78.492188 76.21875 " fill-opacity="1" fill-rule="nonzero"/><path fill="#c39d35" d="M 83.988281 83.304688 C 83.828125 83.726562 83.582031 84.132812 83.394531 84.535156 C 83.292969 84.757812 83.191406 84.980469 83.144531 85.21875 C 83.082031 85.523438 83.03125 85.691406 82.71875 85.691406 C 82.566406 85.691406 82.417969 85.730469 82.269531 85.773438 C 81.945312 85.863281 80.632812 86.546875 80.632812 85.882812 C 80.636719 85.296875 80.824219 84.714844 80.824219 84.144531 C 80.824219 84.035156 80.804688 83.921875 80.84375 83.816406 C 80.925781 83.589844 81.222656 83.726562 81.386719 83.707031 C 81.628906 83.679688 81.863281 83.640625 82.101562 83.582031 C 82.574219 83.457031 83.035156 83.265625 83.488281 83.074219 C 83.683594 82.992188 83.890625 82.878906 84.089844 82.839844 C 84.121094 82.886719 84.105469 82.921875 84.089844 82.976562 C 84.0625 83.089844 84.027344 83.195312 83.988281 83.304688 " fill-opacity="1" fill-rule="nonzero"/><path fill="#c39d35" d="M 81.335938 76.625 C 81.519531 77.015625 81.796875 77.324219 82.160156 77.632812 C 82.476562 77.902344 82.753906 78.222656 83.046875 78.515625 C 83.394531 78.863281 83.753906 79.230469 84.171875 79.484375 C 84.5625 79.722656 84.828125 79.457031 84.867188 79.019531 C 84.917969 78.394531 84.851562 77.878906 85.160156 77.289062 C 85.222656 77.171875 85.289062 77.0625 85.320312 76.9375 C 85.414062 76.570312 85.039062 76.449219 84.804688 76.300781 C 84.480469 76.09375 84.152344 75.890625 83.824219 75.6875 C 83.167969 75.277344 82.515625 74.863281 81.890625 74.410156 C 81.550781 74.164062 81.015625 73.753906 80.621094 73.769531 C 80.84375 74.476562 81.019531 75.132812 81.125 75.878906 C 81.164062 76.164062 81.234375 76.40625 81.335938 76.625 " fill-opacity="1" fill-rule="nonzero"/><path fill="#c39d35" d="M 68.644531 73.703125 C 68.851562 73.742188 69.042969 73.71875 69.328125 73.65625 C 70.277344 73.441406 71.195312 73.058594 72.136719 72.800781 C 72.792969 72.621094 73.453125 72.460938 74.113281 72.324219 C 74.261719 72.296875 75.824219 71.910156 75.882812 71.992188 C 75.699219 71.730469 75.25 71.726562 74.972656 71.675781 C 74.523438 71.59375 74.074219 71.511719 73.625 71.429688 C 72.992188 71.320312 72.34375 71.242188 71.71875 71.109375 C 71.378906 71.035156 71.042969 70.933594 70.707031 70.835938 C 70.421875 70.757812 69.957031 70.460938 69.675781 70.703125 C 69.558594 70.800781 69.519531 70.972656 69.484375 71.125 C 69.328125 71.851562 68.285156 73.636719 68.644531 73.703125 " fill-opacity="1" fill-rule="nonzero"/><path fill="#c39d35" d="M 69.734375 60.636719 C 69.484375 61.179688 69.359375 61.816406 69.28125 62.4375 C 69.269531 62.515625 69.667969 62.144531 69.683594 62.125 C 69.910156 61.824219 70.167969 61.554688 70.457031 61.324219 C 70.9375 60.9375 73.375 60.277344 73.160156 61.835938 C 73.113281 62.15625 72.808594 62.554688 72.640625 62.800781 C 72.484375 63.03125 72.449219 62.53125 72.441406 62.441406 C 72.34375 61.332031 70.433594 62.445312 70.046875 62.554688 C 69.726562 62.648438 70.113281 63.023438 70.300781 63.089844 C 70.5625 63.183594 70.792969 63.058594 71.042969 63.035156 C 71.246094 63.015625 71.457031 63.066406 71.507812 63.339844 C 71.535156 63.488281 71.484375 63.636719 71.402344 63.75 C 71.1875 64.039062 70.71875 64.300781 70.335938 64.210938 C 69.90625 64.109375 69.695312 63.648438 69.488281 63.273438 C 69.449219 63.203125 69.386719 63.054688 69.304688 63.027344 C 68.941406 62.90625 69.054688 64.128906 69.160156 64.308594 C 69.625 65.09375 70.304688 65.234375 71.023438 65.105469 C 71.972656 64.929688 72.648438 64.257812 73.214844 63.507812 C 73.640625 62.945312 73.929688 62.285156 73.882812 61.507812 C 73.84375 60.878906 73.558594 60.417969 73.179688 59.910156 C 72.964844 59.617188 72.785156 59.328125 72.667969 58.984375 C 72.507812 58.507812 72.507812 58.441406 72.085938 58.675781 C 71.554688 58.964844 71.007812 59.273438 70.519531 59.632812 C 70.167969 59.890625 69.917969 60.238281 69.734375 60.636719 " fill-opacity="1" fill-rule="nonzero"/><path fill="#c39d35" d="M 67.75 60.839844 C 67.976562 60.726562 68.210938 60.625 68.4375 60.496094 C 68.648438 60.378906 68.976562 60.40625 68.78125 60.734375 C 68.597656 61.039062 68.40625 61.359375 68.394531 61.738281 C 68.390625 62.015625 68.574219 62.257812 68.621094 62.523438 C 68.671875 62.8125 68.519531 63.015625 68.335938 63.175781 C 67.792969 63.660156 67.882812 64.253906 67.90625 65 C 67.914062 65.300781 67.949219 65.613281 68.09375 65.890625 C 68.121094 65.949219 68.15625 66.003906 68.171875 66.066406 C 68.226562 66.300781 67.96875 66.25 67.835938 66.195312 C 67.355469 66.011719 66.992188 65.792969 66.625 65.371094 C 66.238281 64.9375 66.011719 64.367188 65.605469 63.964844 C 65.488281 63.84375 65.363281 63.734375 65.265625 63.59375 C 65.003906 63.203125 65.222656 62.910156 65.488281 62.695312 C 66.078125 62.222656 66.578125 61.640625 67.175781 61.1875 C 67.359375 61.046875 67.550781 60.941406 67.75 60.839844 " fill-opacity="1" fill-rule="nonzero"/><path fill="#c39d35" d="M 68.890625 59.980469 C 68.886719 59.96875 68.882812 59.960938 68.882812 59.949219 C 68.765625 59.558594 68.863281 59.035156 68.878906 58.652344 C 68.890625 58.394531 68.816406 57.925781 68.992188 57.738281 C 69.453125 57.25 70.4375 57.617188 71.023438 57.414062 C 71.34375 57.304688 71.589844 57.058594 71.816406 56.808594 C 72.132812 56.453125 72.410156 56.058594 72.699219 55.675781 C 72.765625 55.585938 72.839844 55.492188 72.945312 55.46875 C 73.050781 55.441406 73.167969 55.488281 73.277344 55.535156 C 74.226562 55.964844 74.847656 56.640625 75.492188 57.511719 C 75.636719 57.707031 75.777344 57.898438 75.921875 58.09375 C 75.984375 58.175781 76.03125 58.253906 76.023438 58.351562 C 76.035156 58.144531 74.4375 57.816406 74.273438 57.796875 C 73.363281 57.695312 72.476562 57.890625 71.691406 58.273438 C 71.15625 58.535156 70.660156 58.875 70.183594 59.242188 C 69.949219 59.421875 69.722656 59.613281 69.496094 59.804688 C 69.382812 59.902344 69.210938 60.183594 69.03125 60.125 C 68.96875 60.105469 68.917969 60.046875 68.890625 59.980469 " fill-opacity="1" fill-rule="nonzero"/><path fill="#c39d35" d="M 68.847656 64.921875 C 68.753906 64.832031 68.652344 64.757812 68.542969 64.722656 C 68.140625 64.585938 68.6875 65.832031 68.757812 65.96875 C 69.121094 66.695312 69.667969 67.304688 70.4375 67.433594 C 71.03125 67.535156 71.582031 67.332031 72.128906 67.195312 C 72.390625 67.128906 72.660156 67.078125 72.941406 67.070312 C 73.246094 67.0625 73.523438 67.191406 73.828125 67.246094 C 73.910156 67.261719 73.996094 67.265625 74.066406 67.238281 C 74.394531 67.101562 74.351562 66.328125 74.488281 66.015625 C 75.144531 64.507812 76.082031 63.199219 76.582031 61.597656 C 76.644531 61.398438 76.699219 61.191406 76.785156 61.003906 C 76.835938 60.886719 77.078125 60.65625 77.046875 60.523438 C 77.035156 60.460938 76.992188 60.40625 76.953125 60.359375 C 76.328125 59.582031 75.84375 58.871094 74.910156 58.570312 C 74.4375 58.460938 73.980469 58.601562 73.5 58.519531 C 73.304688 58.484375 73.636719 58.9375 73.691406 59.027344 C 73.828125 59.265625 73.964844 59.5 74.089844 59.746094 C 74.34375 60.253906 74.53125 60.792969 74.574219 61.347656 C 74.648438 62.378906 74.234375 63.105469 73.6875 63.832031 C 73.050781 64.675781 72.484375 65.515625 71.464844 65.875 C 71.199219 65.96875 70.917969 66.042969 70.625 65.949219 C 70.234375 65.820312 69.785156 65.726562 69.421875 65.484375 C 69.210938 65.347656 69.039062 65.101562 68.847656 64.921875 " fill-opacity="1" fill-rule="nonzero"/><path fill="#c39d35" d="M 78.183594 58.316406 C 77.796875 58.101562 77.359375 57.9375 76.945312 57.929688 C 76.792969 57.925781 76.617188 57.949219 76.484375 58.019531 C 76.046875 58.253906 76.679688 58.871094 76.878906 59.148438 C 77.1875 59.574219 77.660156 60.242188 77.574219 60.773438 C 77.542969 60.96875 77.460938 61.144531 77.382812 61.320312 C 76.925781 62.363281 76.648438 63.523438 76.3125 64.628906 C 76.355469 64.484375 77.054688 64.289062 77.195312 64.214844 C 77.535156 64.023438 77.855469 63.796875 78.15625 63.542969 C 79.011719 62.8125 79.871094 61.789062 79.914062 60.484375 C 79.917969 60.289062 79.902344 60.089844 79.921875 59.894531 C 79.960938 59.511719 79.996094 59.261719 79.578125 59.09375 C 79.085938 58.894531 78.652344 58.574219 78.183594 58.316406 " fill-opacity="1" fill-rule="nonzero"/><path fill="#c39d35" d="M 78.371094 63.984375 C 77.976562 64.199219 77.632812 64.578125 77.257812 64.835938 C 76.863281 65.105469 76.386719 65.316406 75.988281 65.605469 C 75.429688 66.007812 75.242188 66.636719 74.894531 67.222656 C 74.285156 68.257812 72.832031 68.648438 71.890625 69.292969 C 71.65625 69.453125 72.746094 70.089844 72.90625 70.183594 C 73.242188 70.386719 73.601562 70.507812 73.972656 70.523438 C 74.535156 70.546875 75.074219 70.394531 75.589844 70.203125 C 75.914062 70.082031 76.238281 69.949219 76.550781 69.800781 C 77.195312 69.496094 77.210938 68.796875 77.351562 68.113281 C 77.5 67.410156 77.722656 66.742188 77.929688 66.066406 C 78.035156 65.71875 78.136719 65.367188 78.222656 65.011719 C 78.285156 64.75 78.472656 64.246094 78.371094 63.984375 " fill-opacity="1" fill-rule="nonzero"/><path fill="#c39d35" d="M 73.261719 68.144531 C 73.546875 68 73.785156 67.804688 73.308594 67.785156 C 72.785156 67.757812 72.269531 67.8125 71.761719 67.871094 C 71.210938 67.933594 70.644531 68.015625 70.074219 67.902344 C 69.707031 67.828125 69.382812 67.617188 69.050781 67.429688 C 68.703125 67.234375 68.300781 67.085938 67.9375 66.898438 C 67.625 66.730469 67.222656 66.234375 66.902344 66.1875 C 66.359375 66.109375 66.59375 68.660156 66.648438 69.078125 C 66.703125 69.542969 66.847656 70.023438 67.148438 70.394531 C 67.179688 70.429688 67.210938 70.464844 67.253906 70.472656 C 67.40625 70.503906 67.628906 70.324219 67.75 70.269531 C 67.996094 70.160156 68.25 70.074219 68.515625 70.015625 C 68.832031 69.945312 69.160156 69.914062 69.476562 69.835938 C 70.714844 69.542969 71.664062 68.632812 72.882812 68.300781 C 72.960938 68.28125 73.117188 68.21875 73.261719 68.144531 " fill-opacity="1" fill-rule="nonzero"/><path fill="#c39d35" d="M 65.527344 68.328125 C 65.296875 67.984375 65.121094 67.582031 64.917969 67.226562 C 64.804688 67.03125 64.691406 66.835938 64.539062 66.671875 C 64.347656 66.457031 64.253906 66.332031 64.398438 66.101562 C 64.46875 65.992188 64.511719 65.859375 64.550781 65.730469 C 64.636719 65.441406 64.765625 64.105469 65.246094 64.46875 C 65.667969 64.785156 66 65.242188 66.414062 65.554688 C 66.496094 65.613281 66.585938 65.660156 66.644531 65.742188 C 66.769531 65.929688 66.53125 66.074219 66.464844 66.203125 C 66.375 66.394531 66.289062 66.585938 66.222656 66.792969 C 66.085938 67.210938 66.007812 67.648438 65.933594 68.085938 C 65.898438 68.273438 65.886719 68.488281 65.820312 68.65625 C 65.769531 68.652344 65.75 68.621094 65.71875 68.582031 C 65.648438 68.5 65.585938 68.417969 65.527344 68.328125 " fill-opacity="1" fill-rule="nonzero"/><path fill="#c39d35" d="M 71.625 70.011719 C 71.253906 69.933594 70.898438 69.96875 70.503906 70.066406 C 70.160156 70.152344 69.796875 70.179688 69.445312 70.238281 C 69.027344 70.304688 68.59375 70.371094 68.210938 70.539062 C 67.855469 70.695312 67.921875 71.035156 68.222656 71.300781 C 68.648438 71.675781 69.054688 71.910156 69.335938 72.457031 C 69.390625 72.5625 69.4375 72.671875 69.515625 72.761719 C 69.738281 73.03125 70 72.824219 70.21875 72.730469 C 70.523438 72.605469 70.824219 72.472656 71.128906 72.34375 C 71.734375 72.085938 72.34375 71.832031 72.96875 71.617188 C 73.304688 71.503906 73.855469 71.332031 74.03125 71.035156 C 73.414062 70.816406 72.851562 70.585938 72.265625 70.257812 C 72.039062 70.132812 71.828125 70.054688 71.625 70.011719 " fill-opacity="1" fill-rule="nonzero"/><path fill="#c39d35" d="M 79.734375 62.285156 C 79.609375 62.414062 79.535156 62.570312 79.449219 62.8125 C 79.152344 63.625 78.996094 64.507812 78.738281 65.335938 C 78.5625 65.914062 78.363281 66.484375 78.148438 67.046875 C 78.101562 67.171875 77.644531 68.527344 77.554688 68.523438 C 77.835938 68.53125 78.046875 68.203125 78.214844 68.027344 C 78.488281 67.742188 78.761719 67.457031 79.03125 67.171875 C 79.410156 66.769531 79.769531 66.335938 80.164062 65.949219 C 80.378906 65.738281 80.613281 65.546875 80.839844 65.351562 C 81.03125 65.1875 81.464844 65.007812 81.421875 64.671875 C 81.40625 64.53125 81.304688 64.410156 81.207031 64.300781 C 80.753906 63.789062 79.953125 62.058594 79.734375 62.285156 " fill-opacity="1" fill-rule="nonzero"/><path fill="#c39d35" d="M 90.90625 48.207031 C 90.273438 50.257812 90.070312 52.3125 90.425781 54.535156 C 90.335938 54.519531 90.089844 54.5 90.007812 54.476562 C 89.691406 54.375 89.382812 54.230469 89.15625 53.988281 C 88.769531 53.582031 88.691406 52.984375 88.722656 52.433594 C 88.761719 51.824219 88.914062 51.226562 88.96875 50.617188 C 89.03125 49.878906 88.605469 47.84375 88.152344 47.238281 C 88.152344 47.238281 89.203125 47.984375 90.90625 48.207031 " fill-opacity="1" fill-rule="nonzero"/><path fill="#c39d35" d="M 91.214844 48.492188 C 91.242188 48.492188 92.117188 48.578125 92.761719 48.492188 C 92.523438 50.605469 92.609375 52.527344 91.808594 53.621094 C 91.535156 53.992188 91.203125 54.226562 90.730469 54.226562 C 90.304688 52.019531 91.082031 49.417969 91.214844 48.492188 " fill-opacity="1" fill-rule="nonzero"/><path fill="#c39d35" d="M 90.609375 46.933594 C 91.035156 47.101562 91.578125 47.265625 91.746094 46.832031 C 91.816406 46.644531 91.742188 46.253906 91.660156 46.082031 C 91.640625 46.042969 91.621094 46.007812 91.585938 45.984375 C 91.390625 45.851562 91.011719 45.992188 90.78125 45.917969 C 90.304688 45.761719 90.359375 45.191406 90.84375 45.09375 C 91.210938 45.023438 91.765625 45.164062 92.011719 45.519531 C 92.289062 45.917969 92.148438 46.449219 92.0625 46.898438 C 92.046875 46.984375 91.996094 47.148438 92.042969 47.230469 C 92.253906 47.597656 92.988281 46.539062 93.023438 46.3125 C 93.082031 45.949219 93.058594 45.566406 92.910156 45.226562 C 92.730469 44.8125 92.410156 44.382812 91.996094 44.183594 C 91.011719 43.710938 88.921875 44.457031 89.007812 45.746094 C 89.050781 46.339844 89.746094 46.609375 90.222656 46.78125 C 90.324219 46.816406 90.457031 46.875 90.609375 46.933594 " fill-opacity="1" fill-rule="nonzero"/><path fill="#c39d35" d="M 90.917969 47.410156 C 90.851562 47.371094 90.789062 47.34375 90.730469 47.324219 C 90.570312 47.273438 90.402344 47.25 90.238281 47.203125 C 89.800781 47.070312 89.347656 46.820312 89.042969 46.476562 C 88.777344 46.175781 88.636719 45.769531 88.683594 45.367188 C 88.734375 44.9375 88.988281 44.601562 89.320312 44.34375 C 89.542969 44.167969 89.785156 43.9375 90.039062 43.816406 C 90.144531 43.765625 90.257812 43.742188 90.371094 43.726562 C 90.421875 43.722656 90.476562 43.71875 90.519531 43.695312 C 90.5625 43.671875 90.597656 43.621094 90.585938 43.574219 C 90.574219 43.523438 90.527344 43.496094 90.480469 43.476562 C 89.933594 43.246094 89.25 43.261719 88.671875 43.339844 C 88.4375 43.371094 88.203125 43.421875 87.96875 43.4375 C 87.863281 43.445312 87.367188 43.359375 87.324219 43.4375 C 87.253906 43.574219 87.253906 43.757812 87.214844 43.90625 C 87.167969 44.089844 87.140625 44.277344 87.132812 44.46875 C 87.101562 45.152344 87.289062 45.898438 87.738281 46.429688 C 88.304688 47.097656 89.164062 47.386719 89.941406 47.675781 C 90.039062 47.710938 91.175781 47.988281 91.203125 47.867188 C 91.25 47.675781 91.085938 47.511719 90.917969 47.410156 " fill-opacity="1" fill-rule="nonzero"/><path fill="#c39d35" d="M 91.796875 47.871094 C 91.804688 47.867188 91.808594 47.863281 91.8125 47.859375 C 92.242188 47.726562 92.664062 47.480469 93.019531 47.207031 C 93.585938 46.773438 93.808594 46.125 93.613281 45.386719 C 93.441406 44.730469 93.027344 44.21875 92.425781 43.964844 C 92.25 43.890625 91.058594 43.667969 91.015625 43.546875 C 91.003906 43.515625 91 43.484375 91.003906 43.453125 C 91.015625 43.261719 94.183594 42.652344 94.230469 42.753906 C 94.320312 42.941406 94.324219 43.160156 94.398438 43.355469 C 94.488281 43.582031 94.621094 43.792969 94.71875 44.019531 C 95.15625 45.023438 94.980469 46.296875 94.269531 47.128906 C 93.699219 47.792969 92.832031 48.175781 91.964844 48.246094 C 91.882812 48.25 91.800781 48.253906 91.722656 48.226562 C 91.433594 48.125 91.644531 47.96875 91.796875 47.871094 " fill-opacity="1" fill-rule="nonzero"/><path fill="#c39d35" d="M 49.507812 90.847656 C 51.175781 89.496094 53.007812 88.542969 55.199219 88.039062 C 55.152344 87.964844 55.042969 87.746094 54.988281 87.675781 C 54.777344 87.417969 54.523438 87.1875 54.21875 87.066406 C 53.699219 86.863281 53.113281 87.011719 52.617188 87.246094 C 52.0625 87.507812 51.566406 87.875 51.019531 88.152344 C 50.359375 88.488281 48.3125 88.847656 47.582031 88.660156 C 47.582031 88.660156 48.667969 89.355469 49.507812 90.847656 " fill-opacity="1" fill-rule="nonzero"/><path fill="#c39d35" d="M 49.886719 91.03125 C 49.898438 91.054688 50.304688 91.835938 50.464844 92.464844 C 52.335938 91.457031 54.152344 90.816406 54.867188 89.667969 C 55.109375 89.273438 55.207031 88.878906 55.027344 88.4375 C 52.820312 88.871094 50.699219 90.558594 49.886719 91.03125 " fill-opacity="1" fill-rule="nonzero"/><path fill="#c39d35" d="M 48.21875 91.050781 C 48.53125 91.382812 48.886719 91.828125 48.546875 92.144531 C 48.402344 92.28125 48.007812 92.355469 47.816406 92.34375 C 47.777344 92.339844 47.734375 92.335938 47.703125 92.3125 C 47.503906 92.183594 47.492188 91.777344 47.335938 91.589844 C 47.015625 91.207031 46.503906 91.472656 46.597656 91.953125 C 46.671875 92.324219 47.003906 92.78125 47.425781 92.878906 C 47.902344 92.988281 48.339844 92.660156 48.726562 92.414062 C 48.800781 92.363281 48.933594 92.257812 49.027344 92.269531 C 49.445312 92.328125 48.738281 93.402344 48.542969 93.519531 C 48.226562 93.710938 47.863281 93.832031 47.492188 93.824219 C 47.039062 93.8125 46.527344 93.675781 46.183594 93.363281 C 45.375 92.628906 45.289062 90.410156 46.515625 90.011719 C 47.082031 89.828125 47.59375 90.371094 47.929688 90.75 C 48 90.828125 48.105469 90.933594 48.21875 91.050781 " fill-opacity="1" fill-rule="nonzero"/><path fill="#c39d35" d="M 48.773438 91.15625 C 48.714844 91.113281 48.664062 91.0625 48.625 91.019531 C 48.515625 90.886719 48.433594 90.738281 48.328125 90.605469 C 48.042969 90.25 47.640625 89.925781 47.207031 89.769531 C 46.828125 89.632812 46.398438 89.65625 46.046875 89.851562 C 45.664062 90.058594 45.449219 90.417969 45.332031 90.824219 C 45.253906 91.09375 45.128906 91.40625 45.109375 91.6875 C 45.101562 91.800781 45.125 91.917969 45.15625 92.027344 C 45.167969 92.078125 45.183594 92.125 45.179688 92.175781 C 45.171875 92.226562 45.140625 92.277344 45.089844 92.285156 C 45.039062 92.292969 44.996094 92.257812 44.960938 92.222656 C 44.542969 91.800781 44.300781 91.160156 44.160156 90.597656 C 44.101562 90.367188 44.058594 90.132812 43.988281 89.90625 C 43.957031 89.804688 43.6875 89.378906 43.746094 89.3125 C 43.847656 89.195312 44.019531 89.125 44.140625 89.03125 C 44.292969 88.921875 44.457031 88.824219 44.632812 88.746094 C 45.253906 88.460938 46.015625 88.355469 46.679688 88.578125 C 47.507812 88.851562 48.097656 89.542969 48.65625 90.15625 C 48.726562 90.230469 49.40625 91.183594 49.304688 91.253906 C 49.140625 91.367188 48.929688 91.277344 48.773438 91.15625 " fill-opacity="1" fill-rule="nonzero"/><path fill="#c39d35" d="M 49.527344 91.804688 C 49.527344 91.808594 49.527344 91.816406 49.523438 91.820312 C 49.5625 92.265625 49.492188 92.753906 49.371094 93.183594 C 49.179688 93.871094 48.660156 94.320312 47.902344 94.414062 C 47.230469 94.5 46.601562 94.308594 46.144531 93.84375 C 46.007812 93.707031 45.355469 92.6875 45.226562 92.691406 C 45.195312 92.691406 45.164062 92.699219 45.136719 92.714844 C 44.964844 92.800781 45.578125 95.964844 45.691406 95.96875 C 45.898438 95.984375 46.101562 95.90625 46.3125 95.902344 C 46.558594 95.898438 46.804688 95.941406 47.050781 95.949219 C 48.140625 95.980469 49.257812 95.34375 49.765625 94.375 C 50.171875 93.597656 50.199219 92.648438 49.9375 91.820312 C 49.914062 91.742188 49.886719 91.660156 49.832031 91.601562 C 49.628906 91.367188 49.5625 91.625 49.527344 91.804688 " fill-opacity="1" fill-rule="nonzero"/></svg>