<svg xmlns="http://www.w3.org/2000/svg" xmlns:xlink="http://www.w3.org/1999/xlink" width="128" zoomAndPan="magnify" viewBox="0 0 96 95.999999" height="128" preserveAspectRatio="xMidYMid meet" version="1.0"><defs><clipPath id="7ca288e007"><path d="M 4.59375 0.015625 L 17.160156 0.015625 L 17.160156 70.367188 L 4.59375 70.367188 Z M 4.59375 0.015625 " clip-rule="nonzero"/></clipPath><clipPath id="c1a347b9a8"><path d="M 27 82 L 93 82 L 93 92 L 27 92 Z M 27 82 " clip-rule="nonzero"/></clipPath><clipPath id="327aa43731"><path d="M 0.351562 72 L 11 72 L 11 78 L 0.351562 78 Z M 0.351562 72 " clip-rule="nonzero"/></clipPath></defs><path fill="#c39d35" d="M 29.84375 84.027344 C 29.824219 84.039062 29.800781 84.050781 29.78125 84.0625 C 29.742188 84.121094 29.695312 84.175781 29.648438 84.230469 C 30.046875 84.277344 30.382812 84.328125 30.367188 84.414062 C 30.3125 84.601562 30.28125 84.679688 30.570312 84.722656 C 30.828125 84.757812 31.058594 84.699219 31.296875 84.6875 L 32.402344 84.621094 L 34.378906 84.492188 L 35.371094 84.40625 C 35.542969 84.390625 35.695312 84.375 35.898438 84.34375 C 36.085938 84.308594 36.230469 84.261719 36.398438 84.222656 L 38.339844 83.714844 C 38.996094 83.515625 39.632812 83.238281 40.230469 82.914062 L 40.558594 82.730469 L 40.746094 82.621094 L 41.265625 82.296875 C 41.871094 81.902344 42.464844 81.484375 42.984375 80.980469 C 43.203125 80.769531 43.425781 80.648438 43.773438 80.605469 C 43.859375 80.597656 44.488281 80.429688 45.054688 80.398438 C 44.976562 80.257812 44.203125 80.007812 44.253906 79.894531 C 44.269531 79.855469 44.3125 79.839844 44.34375 79.816406 C 45.039062 79.273438 45.546875 78.480469 45.972656 77.679688 C 46.554688 76.59375 46.832031 75.425781 46.992188 74.222656 C 47.027344 73.925781 47.050781 73.625 47.0625 73.324219 C 47.089844 72.617188 47.027344 71.925781 46.925781 71.234375 C 46.824219 70.558594 46.601562 69.894531 46.464844 69.195312 C 46.453125 69.144531 46.457031 69.089844 46.4375 69.042969 C 46.410156 68.902344 46.394531 68.753906 46.375 68.605469 C 46.371094 68.472656 46.453125 67.921875 46.316406 67.824219 C 46.316406 67.824219 46.042969 68.328125 45.972656 68.300781 C 45.9375 68.285156 45.925781 68.195312 45.910156 68.164062 C 45.578125 67.5 45 66.941406 44.28125 66.589844 C 43.910156 66.402344 43.5 66.324219 43.128906 66.269531 C 42.746094 66.21875 42.351562 66.203125 41.957031 66.238281 L 41.789062 66.253906 C 41.34375 66.3125 40.894531 66.433594 40.488281 66.667969 C 39.710938 67.09375 39.164062 67.886719 39.003906 68.753906 C 38.828125 69.609375 39.070312 70.621094 39.792969 71.230469 C 40.347656 71.699219 41.167969 71.976562 41.894531 71.929688 C 42.148438 71.910156 42.457031 71.820312 42.738281 71.667969 C 43.203125 71.414062 43.582031 70.992188 43.480469 70.46875 C 43.429688 70.203125 43.21875 69.984375 42.96875 69.878906 C 42.160156 69.53125 41.910156 69.890625 41.511719 70.429688 C 41.222656 70.828125 41 70.875 40.503906 70.851562 C 40.203125 70.835938 39.925781 70.464844 39.800781 70.214844 C 39.613281 69.84375 39.554688 69.394531 39.621094 68.984375 L 39.628906 68.945312 C 39.695312 68.535156 39.871094 68.144531 40.128906 67.828125 C 40.164062 67.789062 40.1875 67.691406 40.300781 67.777344 C 40.394531 67.859375 40.511719 68.164062 40.621094 68.226562 C 40.640625 68.175781 40.59375 67.863281 40.609375 67.773438 C 40.671875 67.257812 41.160156 67.011719 41.621094 66.945312 C 42.265625 66.816406 42.980469 66.886719 43.605469 67.054688 C 44.207031 67.230469 44.695312 67.675781 45.078125 68.207031 C 45.292969 68.5 45.46875 68.824219 45.617188 69.160156 C 46.125 70.351562 46.296875 71.699219 46.3125 72.972656 L 46.3125 73.011719 L 46.308594 73.214844 C 46.300781 73.449219 46.285156 73.679688 46.265625 73.910156 C 46.257812 74.011719 46.222656 74.0625 46.035156 74.078125 C 45.921875 74.082031 45.414062 73.679688 45.292969 73.695312 C 45.433594 73.679688 45.628906 74.132812 45.734375 74.636719 C 45.847656 75.136719 45.863281 75.675781 45.847656 75.738281 C 45.691406 76.34375 45.492188 76.914062 45.191406 77.4375 C 44.605469 78.480469 43.738281 79.351562 42.804688 80.097656 C 41.453125 81.167969 40.066406 82.148438 38.550781 82.710938 C 38.414062 82.765625 38.589844 82.035156 38.433594 81.898438 C 38.421875 82.15625 37.910156 82.558594 37.789062 82.664062 C 37.613281 82.859375 37.425781 83.011719 37.199219 83.097656 C 36.808594 83.246094 36.398438 83.347656 35.988281 83.4375 C 35.613281 83.527344 35.195312 83.503906 34.777344 83.542969 C 34.066406 83.597656 33.347656 83.632812 32.628906 83.660156 C 32.199219 83.671875 30.980469 83.808594 29.953125 83.90625 C 29.929688 83.953125 29.894531 83.996094 29.84375 84.027344 " fill-opacity="1" fill-rule="nonzero"/><path fill="#c39d35" d="M 5.554688 80.027344 C 4.9375 80.742188 4.535156 81.644531 4.203125 82.5625 C 3.753906 83.773438 3.582031 85.085938 3.652344 86.394531 C 3.667969 86.714844 3.699219 87.039062 3.746094 87.363281 C 3.847656 88.101562 4.039062 88.84375 4.304688 89.546875 C 4.566406 90.242188 4.953125 90.886719 5.273438 91.578125 C 5.296875 91.628906 5.308594 91.683594 5.335938 91.730469 C 5.402344 91.871094 5.457031 92.015625 5.507812 92.167969 C 5.546875 92.300781 5.609375 92.875 5.757812 92.949219 C 5.757812 92.949219 5.914062 92.382812 5.988281 92.402344 C 6.03125 92.410156 6.0625 92.496094 6.085938 92.527344 C 6.578125 93.148438 7.300781 93.589844 8.066406 93.871094 C 8.867188 94.152344 9.734375 94.226562 10.574219 94.058594 L 10.753906 94.023438 C 11.222656 93.910156 11.679688 93.714844 12.085938 93.417969 C 12.84375 92.878906 13.367188 91.957031 13.359375 90.996094 C 13.371094 90.058594 12.941406 89.058594 12.078125 88.527344 C 11.394531 88.09375 10.203125 88.230469 9.261719 88.59375 C 8.792969 88.773438 8.246094 88.984375 8.039062 89.480469 C 7.699219 90.28125 8.375 90.917969 9.179688 90.816406 C 10.238281 90.679688 10.519531 88.964844 11.714844 89.191406 C 12.441406 89.328125 12.707031 90.226562 12.707031 90.871094 L 12.707031 90.914062 C 12.722656 91.367188 12.589844 91.792969 12.359375 92.171875 C 12.328125 92.21875 12.308594 92.320312 12.1875 92.25 C 12.082031 92.175781 11.9375 91.882812 11.820312 91.832031 C 11.808594 91.890625 11.882812 92.210938 11.867188 92.304688 C 11.835938 92.851562 11.347656 93.183594 10.859375 93.3125 C 10.179688 93.527344 9.425781 93.535156 8.738281 93.359375 C 8.046875 93.203125 7.441406 92.8125 6.914062 92.339844 C 6.621094 92.070312 6.359375 91.769531 6.121094 91.449219 C 5.296875 90.3125 4.789062 88.949219 4.546875 87.597656 L 4.539062 87.558594 L 4.507812 87.339844 C 4.46875 87.09375 4.445312 86.84375 4.421875 86.59375 C 4.414062 86.484375 4.4375 86.425781 4.617188 86.375 C 4.730469 86.351562 5.296875 86.6875 5.414062 86.648438 C 5.28125 86.6875 5.007812 86.246094 4.820312 85.734375 C 4.628906 85.226562 4.542969 84.660156 4.550781 84.59375 C 4.628906 83.933594 4.785156 83.285156 5.015625 82.675781 C 5.496094 81.472656 6.222656 80.355469 7.078125 79.398438 C 8.292969 78.015625 9.683594 76.832031 11.128906 75.761719 C 11.261719 75.660156 11.246094 76.449219 11.4375 76.53125 C 11.402344 76.265625 11.855469 75.671875 11.925781 75.519531 C 12.039062 75.257812 12.179688 75.039062 12.378906 74.867188 C 13.082031 74.269531 13.902344 73.863281 14.671875 73.351562 C 15.320312 72.902344 15.96875 72.417969 16.550781 71.824219 C 16.835938 71.523438 17.105469 71.1875 17.324219 70.796875 C 17.539062 70.410156 17.6875 69.921875 17.640625 69.421875 C 17.617188 69.410156 17.582031 69.351562 17.582031 69.351562 C 17.582031 69.351562 17.425781 69.269531 17.125 69.109375 C 16.832031 68.945312 16.421875 68.644531 15.984375 68.175781 C 15.566406 67.6875 15.128906 67.015625 14.789062 66.148438 C 14.445312 65.28125 14.207031 64.226562 14.0625 63.050781 C 13.898438 61.808594 13.835938 60.410156 13.851562 58.894531 C 13.867188 57.261719 13.917969 55.578125 14.023438 53.84375 C 14.0625 53.246094 14.101562 52.636719 14.144531 52.027344 C 14.234375 50.585938 14.328125 49.113281 14.425781 47.605469 C 14.46875 46.824219 14.507812 46.03125 14.53125 45.222656 C 14.5625 44.511719 14.480469 43.777344 14.550781 43.046875 C 14.601562 42.589844 14.5 42.128906 14.484375 41.667969 C 14.472656 41.429688 14.476562 41.1875 14.535156 40.945312 C 14.582031 40.714844 14.746094 40.476562 14.855469 40.230469 C 14.945312 40.046875 15.03125 39.605469 15.152344 39.230469 C 15.019531 39.21875 14.355469 39.738281 14.269531 39.683594 C 14.210938 39.644531 14.257812 39.550781 14.25 39.496094 L 14.207031 39.261719 C 14.164062 39.011719 14.09375 38.769531 14.035156 38.523438 C 13.976562 38.277344 13.914062 38.03125 13.839844 37.789062 C 13.355469 36.125 12.664062 34.511719 11.929688 32.90625 C 11.464844 31.886719 10.992188 30.863281 10.546875 29.816406 C 10.226562 29.015625 9.894531 28.210938 9.632812 27.382812 C 9.597656 27.28125 9.558594 27.179688 9.574219 27.066406 C 9.609375 26.722656 10.300781 25.976562 10.144531 25.703125 C 9.9375 25.765625 9.457031 26.066406 9.3125 26.023438 C 9.082031 25.953125 9.148438 25.546875 9.117188 25.398438 C 9.0625 25.144531 9.03125 24.882812 8.984375 24.625 C 8.707031 22.679688 8.746094 20.632812 9.089844 18.570312 L 9.117188 18.378906 L 9.21875 17.847656 C 9.335938 17.21875 9.503906 16.597656 9.609375 15.953125 C 9.652344 15.679688 9.761719 15.480469 10.003906 15.28125 C 10.058594 15.234375 10.46875 14.820312 10.902344 14.613281 C 10.78125 14.523438 10.054688 14.628906 10.042969 14.527344 C 10.039062 14.492188 10.070312 14.460938 10.082031 14.429688 C 10.40625 13.722656 10.578125 12.9375 10.859375 12.199219 C 11.234375 11.21875 11.613281 10.238281 12.164062 9.359375 C 12.300781 9.144531 12.445312 8.933594 12.601562 8.734375 C 12.964844 8.269531 13.378906 7.890625 13.882812 7.578125 C 14.355469 7.277344 14.894531 6.980469 15.476562 6.96875 C 15.515625 6.96875 15.558594 6.980469 15.597656 6.972656 C 15.710938 6.984375 15.824219 6.996094 15.933594 7.039062 C 16.039062 7.066406 16.335938 7.359375 16.414062 7.320312 C 16.429688 7.316406 16.234375 6.859375 16.265625 6.820312 C 16.292969 6.796875 16.351562 6.832031 16.382812 6.835938 C 16.945312 6.902344 17.511719 7.011719 17.96875 7.355469 C 18.445312 7.691406 18.777344 8.222656 18.933594 8.804688 L 18.964844 8.929688 C 19.039062 9.261719 19.058594 9.605469 19.019531 9.945312 C 18.949219 10.492188 18.722656 10.972656 18.347656 11.375 C 18.082031 11.660156 18.050781 11.871094 17.625 11.9375 C 17.007812 12.035156 16.402344 11.796875 16.339844 11.128906 C 16.316406 10.90625 16.324219 10.679688 16.25 10.46875 C 16.070312 9.957031 15.464844 9.992188 15.21875 10.414062 C 15.191406 10.460938 15.167969 10.511719 15.144531 10.570312 C 14.9375 11.085938 15.046875 11.808594 15.410156 12.203125 C 15.691406 12.527344 16.140625 12.667969 16.515625 12.6875 C 17.210938 12.710938 17.855469 12.480469 18.394531 12.109375 L 18.433594 12.082031 C 18.820312 11.804688 19.132812 11.429688 19.335938 11.007812 C 19.363281 10.949219 19.367188 10.847656 19.492188 10.882812 C 19.605469 10.910156 19.746094 11.230469 19.855469 11.269531 C 19.894531 11.15625 19.816406 10.769531 19.777344 10.667969 C 19.640625 10.0625 19.660156 9.585938 19.601562 9.0625 C 19.503906 8.355469 19.191406 7.675781 18.695312 7.15625 C 18.195312 6.640625 17.519531 6.300781 16.824219 6.214844 C 16.433594 6.152344 16.046875 6.171875 15.664062 6.214844 C 14.339844 6.421875 13.125 7.074219 12.265625 8.058594 L 12.238281 8.085938 L 12.105469 8.246094 C 11.960938 8.425781 11.824219 8.613281 11.699219 8.808594 C 11.644531 8.890625 11.59375 8.921875 11.433594 8.863281 C 11.324219 8.832031 11.121094 8.234375 11.027344 8.1875 C 11.144531 8.234375 11.023438 8.777344 10.945312 9.300781 C 10.855469 9.828125 10.789062 10.34375 10.765625 10.402344 C 10.523438 10.964844 10.324219 11.527344 10.113281 12.082031 C 9.710938 13.1875 9.335938 14.289062 9.007812 15.386719 C 8.53125 16.953125 8.226562 18.546875 8.070312 20.125 C 8.054688 20.277344 7.53125 19.785156 7.359375 19.863281 C 7.550781 20.003906 7.699219 20.671875 7.765625 20.800781 C 7.882812 21.03125 7.972656 21.25 7.984375 21.476562 C 8.039062 22.28125 7.964844 23.089844 8.03125 23.882812 C 8.101562 24.753906 8.257812 25.609375 8.4375 26.445312 L 8.496094 26.652344 L 8.550781 26.859375 C 8.777344 27.761719 9.085938 28.625 9.398438 29.46875 C 9.5625 29.878906 9.71875 30.289062 9.890625 30.6875 L 10.144531 31.285156 C 10.175781 31.363281 10.257812 31.433594 10.179688 31.542969 C 10.109375 31.636719 9.53125 31.546875 9.425781 31.636719 C 9.394531 31.667969 10.027344 32.023438 10.054688 32.042969 L 10.339844 32.238281 C 10.71875 32.492188 10.820312 32.875 10.984375 33.238281 C 11.164062 33.628906 11.335938 34.019531 11.503906 34.40625 C 12.191406 35.980469 12.730469 37.554688 13.0625 39.125 C 13.421875 40.652344 13.417969 42.191406 13.382812 43.714844 C 13.363281 44.359375 13.332031 45 13.296875 45.632812 C 13.289062 45.886719 13.34375 48.628906 13.058594 48.636719 C 12.84375 48.640625 12.195312 48.1875 12.152344 48.296875 C 12.382812 48.726562 12.875 49.53125 12.964844 49.917969 C 12.988281 50.03125 12.980469 50.144531 12.972656 50.257812 C 12.71875 53.25 12.605469 56.136719 12.664062 58.914062 C 12.738281 60.472656 12.882812 61.910156 13.125 63.199219 C 13.363281 64.421875 13.671875 65.519531 14.082031 66.445312 C 14.484375 67.371094 14.984375 68.109375 15.46875 68.652344 C 15.898438 69.101562 16.292969 69.40625 16.613281 69.609375 C 16.601562 69.765625 16.601562 69.9375 16.550781 70.113281 C 16.445312 70.40625 16.257812 70.695312 16.035156 70.972656 C 15.195312 71.96875 13.992188 72.703125 12.816406 73.5 C 11.640625 74.292969 10.464844 75.105469 9.355469 76.019531 L 9.050781 76.273438 L 8.871094 76.421875 L 8.382812 76.851562 C 7.816406 77.371094 7.242188 77.902344 6.765625 78.53125 C 6.574219 78.800781 6.359375 78.964844 6.011719 79.089844 C 5.929688 79.125 5.304688 79.429688 4.746094 79.585938 C 4.847656 79.71875 5.664062 79.800781 5.632812 79.929688 C 5.621094 79.96875 5.578125 79.996094 5.554688 80.027344 " fill-opacity="1" fill-rule="nonzero"/><g clip-path="url(#7ca288e007)"><path fill="#c39d35" d="M 5.109375 18.605469 C 5.035156 19.171875 5.011719 19.734375 4.972656 20.292969 C 4.941406 21.398438 4.953125 22.488281 5.03125 23.5625 C 5.140625 25.09375 5.414062 26.578125 5.761719 28.007812 C 5.792969 28.144531 5.183594 27.878906 5.050781 27.996094 C 5.265625 28.0625 5.585938 28.597656 5.691406 28.695312 C 5.863281 28.859375 5.996094 29.027344 6.070312 29.226562 C 6.347656 29.921875 6.472656 30.664062 6.691406 31.363281 C 6.945312 32.121094 7.179688 32.898438 7.5 33.632812 L 7.574219 33.816406 L 7.65625 33.996094 C 8.003906 34.789062 8.394531 35.546875 8.789062 36.285156 C 8.984375 36.644531 9.175781 37.003906 9.367188 37.359375 L 9.65625 37.886719 C 9.695312 37.957031 9.773438 38.015625 9.707031 38.121094 C 9.652344 38.214844 9.109375 38.183594 9.019531 38.277344 C 8.988281 38.308594 9.601562 38.578125 9.628906 38.597656 L 9.90625 38.75 C 10.277344 38.960938 10.390625 39.3125 10.558594 39.636719 C 10.738281 39.992188 10.917969 40.34375 11.070312 40.703125 C 11.734375 42.148438 12.15625 43.628906 12.257812 45.113281 C 12.390625 46.566406 12.246094 48.011719 12.042969 49.417969 C 11.957031 50.011719 11.855469 50.597656 11.746094 51.183594 C 11.710938 51.414062 11.453125 53.96875 11.191406 53.949219 C 10.996094 53.933594 10.441406 53.441406 10.390625 53.539062 C 10.550781 53.96875 10.933594 54.777344 10.984375 55.148438 C 11 55.257812 10.980469 55.363281 10.964844 55.46875 C 10.753906 56.886719 10.664062 58.300781 10.746094 59.679688 C 10.84375 61.058594 11.050781 62.398438 11.421875 63.675781 C 11.875 65.09375 12.5 66.335938 13.21875 67.355469 C 13.898438 68.332031 14.726562 69.046875 15.472656 69.621094 C 15.800781 69.835938 16.273438 70.09375 16.582031 70.25 C 16.800781 70.109375 16.871094 69.894531 17.109375 69.761719 C 16.722656 69.574219 16.316406 69.339844 15.894531 69.039062 C 15.234375 68.480469 14.511719 67.796875 13.953125 66.855469 C 13.347656 65.886719 12.835938 64.710938 12.492188 63.371094 C 12.117188 61.933594 11.921875 60.398438 11.921875 58.820312 C 11.898438 58.273438 11.96875 57.722656 11.984375 57.164062 C 12.101562 55.871094 12.300781 54.527344 12.574219 53.140625 C 12.695312 52.417969 12.816406 51.683594 12.941406 50.945312 C 13.050781 50.285156 13.058594 49.59375 13.199219 48.917969 C 13.296875 48.5 13.25 48.0625 13.285156 47.628906 C 13.296875 47.410156 13.328125 47.1875 13.410156 46.96875 C 13.480469 46.761719 13.65625 46.5625 13.785156 46.351562 C 13.886719 46.195312 14.03125 45.796875 14.183594 45.460938 C 14.058594 45.4375 13.382812 45.835938 13.3125 45.773438 C 13.257812 45.730469 13.316406 45.652344 13.3125 45.601562 L 13.300781 45.378906 C 13.289062 45.140625 13.253906 44.90625 13.230469 44.667969 C 13.210938 44.429688 13.160156 44.195312 13.125 43.953125 C 12.839844 42.316406 12.179688 40.78125 11.429688 39.289062 C 10.945312 38.34375 10.414062 37.417969 9.894531 36.480469 C 9.503906 35.769531 9.097656 35.058594 8.734375 34.324219 C 8.6875 34.234375 8.640625 34.144531 8.636719 34.039062 C 8.609375 33.714844 9.152344 32.917969 8.949219 32.6875 C 8.769531 32.773438 8.378906 33.128906 8.234375 33.109375 C 8.007812 33.078125 8.007812 32.695312 7.960938 32.5625 C 7.871094 32.335938 7.789062 32.101562 7.707031 31.863281 C 7.097656 30.089844 6.546875 28.246094 6.167969 26.320312 L 6.132812 26.140625 C 6.097656 25.976562 6.0625 25.8125 6.039062 25.644531 C 5.933594 25.054688 5.867188 24.453125 5.746094 23.855469 C 5.6875 23.605469 5.726562 23.390625 5.871094 23.140625 C 5.914062 23.082031 6.113281 22.589844 6.441406 22.273438 C 6.308594 22.234375 5.699219 22.554688 5.65625 22.472656 C 5.640625 22.441406 5.660156 22.402344 5.664062 22.375 C 5.722656 21.65625 5.632812 20.917969 5.671875 20.183594 C 5.726562 19.21875 5.855469 18.246094 6.058594 17.273438 C 6.109375 17.035156 6.179688 16.800781 6.238281 16.5625 C 6.308594 16.285156 6.390625 16.011719 6.484375 15.746094 C 6.582031 15.476562 6.660156 15.203125 6.765625 14.933594 C 6.96875 14.410156 7.144531 13.851562 7.472656 13.367188 C 7.496094 13.332031 7.527344 13.300781 7.542969 13.265625 C 7.617188 13.171875 7.695312 13.082031 7.78125 12.996094 C 7.859375 12.921875 8.253906 12.730469 8.257812 12.613281 C 8.257812 12.613281 8.136719 12.617188 8.015625 12.617188 C 7.890625 12.621094 7.765625 12.613281 7.757812 12.585938 C 7.75 12.554688 7.804688 12.507812 7.820312 12.480469 C 8.113281 11.960938 8.300781 11.367188 8.519531 10.796875 C 8.746094 10.203125 8.945312 9.585938 9.09375 8.949219 L 9.125 8.816406 C 9.203125 8.457031 9.269531 8.089844 9.3125 7.726562 C 9.476562 6.359375 9.449219 4.949219 9.199219 3.554688 C 9.046875 2.660156 8.789062 1.769531 8.449219 0.90625 C 8.351562 0.683594 8.261719 0.457031 8.15625 0.238281 L 8.074219 0.0703125 C 8.066406 0.0546875 8.050781 0.0351562 8.050781 0.015625 C 8.109375 0.550781 8.074219 1.078125 8.15625 1.558594 C 8.179688 1.699219 8.210938 1.835938 8.261719 1.96875 C 8.484375 2.589844 8.605469 3.238281 8.703125 3.878906 C 8.785156 4.4375 8.835938 5 8.851562 5.558594 L 8.851562 5.597656 C 8.867188 5.996094 8.851562 6.390625 8.828125 6.785156 C 8.828125 6.835938 8.851562 6.925781 8.730469 6.925781 C 8.625 6.925781 8.394531 6.738281 8.285156 6.746094 C 8.296875 6.820312 8.484375 7.070312 8.527344 7.144531 C 8.78125 7.589844 8.726562 8.035156 8.625 8.46875 C 8.382812 9.667969 7.902344 10.792969 7.410156 11.894531 C 7.269531 12.203125 7.128906 12.511719 6.992188 12.820312 C 6.496094 13.894531 6.03125 14.984375 5.691406 16.109375 L 5.683594 16.140625 L 5.632812 16.320312 L 5.472656 16.9375 C 5.449219 17.027344 5.414062 17.066406 5.257812 17.066406 C 5.148438 17.070312 4.785156 16.628906 4.679688 16.621094 C 4.886719 16.644531 5.09375 18.503906 5.109375 18.605469 " fill-opacity="1" fill-rule="nonzero"/></g><path fill="#c39d35" d="M 27.890625 85.121094 C 27.847656 85.167969 27.808594 85.21875 27.765625 85.257812 C 28.128906 85.3125 28.492188 85.359375 28.871094 85.40625 C 30.582031 85.609375 32.347656 85.6875 34.15625 85.746094 C 34.78125 85.761719 35.414062 85.78125 36.050781 85.796875 C 37.539062 85.804688 39.0625 85.8125 40.617188 85.820312 C 41.417969 85.820312 42.230469 85.824219 43.050781 85.828125 C 43.773438 85.84375 44.519531 85.757812 45.25 85.867188 C 45.703125 85.933594 46.164062 85.878906 46.625 85.914062 C 46.859375 85.933594 47.089844 85.976562 47.316406 86.070312 C 47.527344 86.164062 47.710938 86.386719 47.902344 86.546875 C 48.050781 86.660156 48.40625 86.894531 48.675781 87.121094 C 48.734375 86.992188 48.488281 86.183594 48.554688 86.121094 C 48.613281 86.070312 48.683594 86.148438 48.730469 86.15625 L 48.960938 86.1875 L 49.671875 86.316406 L 50.386719 86.484375 C 52.003906 86.894531 53.597656 87.59375 55.203125 88.394531 C 56.222656 88.902344 57.25 89.460938 58.3125 90.003906 C 59.113281 90.425781 59.941406 90.828125 60.804688 91.191406 C 60.910156 91.238281 61.015625 91.285156 61.101562 91.367188 C 61.359375 91.609375 61.597656 92.695312 62.007812 92.714844 C 62.0625 92.5 62.054688 91.914062 62.183594 91.816406 C 62.382812 91.65625 62.714844 91.9375 62.875 91.992188 C 63.140625 92.089844 63.421875 92.15625 63.695312 92.238281 C 65.769531 92.824219 67.992188 92.992188 70.21875 92.828125 L 70.425781 92.816406 L 71 92.761719 C 71.679688 92.695312 72.363281 92.617188 73.035156 92.441406 C 73.3125 92.367188 73.550781 92.367188 73.855469 92.5 C 73.933594 92.535156 74.519531 92.691406 74.960938 92.96875 C 74.972656 92.8125 74.492188 92.21875 74.582031 92.15625 C 74.613281 92.132812 74.65625 92.144531 74.691406 92.140625 C 75.511719 92.058594 76.304688 91.753906 77.097656 91.515625 C 78.148438 91.203125 79.21875 90.882812 80.277344 90.386719 C 80.535156 90.265625 80.792969 90.128906 81.042969 89.980469 C 81.617188 89.644531 82.191406 89.230469 82.640625 88.6875 C 83.082031 88.164062 83.378906 87.542969 83.730469 86.945312 C 83.757812 86.902344 83.789062 86.863281 83.804688 86.816406 C 83.875 86.691406 83.964844 86.578125 84.039062 86.453125 C 84.074219 86.398438 84.195312 86.285156 84.300781 86.160156 C 84.402344 86.035156 84.488281 85.898438 84.472656 85.824219 C 84.472656 85.824219 83.964844 86.039062 83.933594 85.972656 C 83.914062 85.9375 83.960938 85.867188 83.96875 85.832031 C 84.140625 85.128906 83.988281 84.335938 83.652344 83.667969 C 83.316406 82.964844 82.691406 82.394531 81.980469 82.09375 L 81.828125 82.027344 C 81.417969 81.875 80.984375 81.789062 80.542969 81.78125 C 79.726562 81.757812 78.863281 82.050781 78.246094 82.660156 C 77.65625 83.269531 77.277344 84.078125 77.296875 84.960938 C 77.324219 85.269531 77.375 85.574219 77.570312 85.84375 C 77.746094 86.101562 78.003906 86.320312 78.292969 86.425781 C 78.988281 86.6875 79.65625 86.550781 80.214844 86.128906 C 80.503906 85.917969 80.875 85.566406 80.820312 85.167969 C 80.792969 84.9375 80.574219 84.878906 80.402344 84.777344 C 79.535156 84.257812 79.257812 86.296875 78.257812 85.636719 C 77.425781 85.09375 78.121094 83.703125 78.605469 83.175781 L 78.632812 83.144531 C 78.910156 82.851562 79.265625 82.644531 79.648438 82.527344 C 79.699219 82.507812 79.773438 82.457031 79.816406 82.582031 C 79.847656 82.695312 79.765625 82.992188 79.820312 83.105469 C 79.863281 83.070312 80.015625 82.804688 80.078125 82.734375 C 80.425781 82.355469 80.945312 82.382812 81.375 82.527344 C 81.988281 82.710938 82.535156 83.09375 82.871094 83.605469 C 83.21875 84.121094 83.375 84.742188 83.335938 85.359375 C 83.328125 85.707031 83.25 86.050781 83.148438 86.386719 C 82.777344 87.570312 81.984375 88.582031 80.945312 89.207031 L 80.914062 89.226562 L 80.75 89.328125 C 80.558594 89.4375 80.363281 89.546875 80.164062 89.648438 C 80.078125 89.691406 80.019531 89.6875 79.914062 89.546875 C 79.851562 89.457031 79.921875 88.847656 79.851562 88.761719 C 79.929688 88.863281 79.664062 89.25 79.304688 89.59375 C 78.949219 89.941406 78.519531 90.246094 78.464844 90.269531 C 77.890625 90.472656 77.3125 90.664062 76.734375 90.832031 C 75.589844 91.171875 74.441406 91.445312 73.296875 91.628906 C 71.664062 91.898438 70.050781 92.058594 68.46875 92.046875 C 68.320312 92.042969 68.75 91.464844 68.65625 91.289062 C 68.546875 91.507812 67.917969 91.6875 67.789062 91.765625 C 67.566406 91.894531 67.347656 91.96875 67.117188 91.980469 C 66.3125 92 65.523438 91.78125 64.769531 91.597656 C 63.921875 91.417969 63.117188 91.128906 62.324219 90.828125 L 62.128906 90.75 L 61.929688 90.667969 C 61.078125 90.320312 60.25 89.921875 59.441406 89.503906 C 59.046875 89.292969 58.652344 89.085938 58.261719 88.878906 L 57.679688 88.566406 C 57.601562 88.523438 57.492188 88.519531 57.488281 88.378906 C 57.484375 88.257812 58.003906 87.960938 58.03125 87.820312 C 58.039062 87.777344 57.308594 87.890625 57.269531 87.894531 L 56.914062 87.917969 C 56.449219 87.949219 56.117188 87.703125 55.746094 87.519531 C 55.347656 87.320312 54.945312 87.125 54.546875 86.929688 C 52.917969 86.167969 51.257812 85.476562 49.523438 85.148438 C 47.839844 84.835938 46.203125 84.726562 44.601562 84.636719 C 43.925781 84.613281 43.257812 84.589844 42.59375 84.566406 C 42.328125 84.554688 39.5 84.761719 39.476562 84.472656 C 39.457031 84.257812 39.886719 83.5625 39.769531 83.523438 C 39.339844 83.785156 38.542969 84.34375 38.148438 84.460938 C 38.035156 84.496094 37.917969 84.492188 37.804688 84.488281 C 34.960938 84.425781 32.242188 84.425781 29.648438 84.234375 C 29.226562 84.722656 28.578125 84.984375 27.890625 85.121094 " fill-opacity="1" fill-rule="nonzero"/><g clip-path="url(#c1a347b9a8)"><path fill="#c39d35" d="M 27.972656 85.105469 C 27.972656 85.113281 27.96875 85.121094 27.964844 85.128906 C 28.761719 85.277344 29.570312 85.382812 30.398438 85.421875 C 30.679688 85.433594 30.960938 85.445312 31.246094 85.457031 C 31.527344 85.449219 31.8125 85.441406 32.101562 85.433594 C 33.441406 85.382812 34.808594 85.171875 36.164062 84.894531 C 36.859375 84.738281 37.5625 84.582031 38.277344 84.421875 C 38.90625 84.289062 39.523438 84.046875 40.179688 84 C 40.589844 83.96875 40.972656 83.824219 41.378906 83.765625 C 41.585938 83.738281 41.796875 83.726562 42.015625 83.769531 C 42.222656 83.816406 42.4375 83.976562 42.648438 84.085938 C 42.804688 84.164062 43.175781 84.3125 43.46875 84.464844 C 43.488281 84.335938 43.0625 83.644531 43.105469 83.570312 C 43.144531 83.515625 43.222656 83.570312 43.269531 83.570312 C 43.339844 83.5625 43.40625 83.554688 43.476562 83.554688 L 44.136719 83.527344 L 44.804688 83.535156 C 45.566406 83.566406 46.335938 83.65625 47.101562 83.832031 C 47.878906 84.023438 48.664062 84.289062 49.453125 84.605469 C 50.460938 85.007812 51.472656 85.5 52.511719 86.019531 C 53.300781 86.421875 54.113281 86.824219 54.953125 87.222656 C 55.054688 87.269531 55.15625 87.316406 55.246094 87.402344 C 55.503906 87.65625 55.789062 88.722656 56.175781 88.769531 C 56.21875 88.5625 56.183594 87.988281 56.300781 87.898438 C 56.484375 87.757812 56.816406 88.0625 56.972656 88.121094 C 57.238281 88.222656 57.503906 88.332031 57.777344 88.429688 C 59.808594 89.128906 61.90625 89.691406 64.113281 90.128906 L 64.316406 90.171875 L 64.890625 90.273438 C 65.570312 90.398438 66.261719 90.507812 66.957031 90.53125 C 67.246094 90.535156 67.484375 90.605469 67.773438 90.824219 C 67.84375 90.882812 68.417969 91.195312 68.835938 91.585938 C 68.867188 91.441406 68.449219 90.726562 68.550781 90.691406 C 68.585938 90.675781 68.628906 90.699219 68.664062 90.707031 C 69.503906 90.863281 70.351562 90.765625 71.1875 90.726562 C 72.304688 90.683594 73.421875 90.542969 74.515625 90.292969 C 74.785156 90.226562 75.0625 90.183594 75.328125 90.097656 L 76.246094 89.824219 L 77.140625 89.484375 C 77.722656 89.257812 78.246094 88.917969 78.863281 88.75 C 78.90625 88.738281 78.957031 88.734375 78.996094 88.714844 C 79.121094 88.6875 79.253906 88.667969 79.390625 88.660156 C 79.511719 88.652344 80.019531 88.777344 80.089844 88.683594 C 80.089844 88.683594 79.964844 88.597656 79.84375 88.507812 C 79.71875 88.417969 79.597656 88.324219 79.605469 88.296875 C 79.613281 88.261719 79.699219 88.261719 79.726562 88.25 C 80.320312 88.023438 80.84375 87.671875 81.417969 87.410156 C 82.011719 87.140625 82.625 86.894531 83.261719 86.707031 L 83.398438 86.664062 C 83.757812 86.558594 84.132812 86.480469 84.511719 86.410156 C 85.945312 86.167969 87.5 86.144531 89.101562 86.355469 C 90.132812 86.488281 91.1875 86.734375 92.242188 87.074219 C 92.519531 87.171875 92.796875 87.261719 93.070312 87.371094 L 93.28125 87.453125 C 93.304688 87.460938 93.332031 87.464844 93.351562 87.480469 C 92.828125 87.070312 92.304688 86.621094 91.714844 86.351562 C 91.542969 86.277344 91.371094 86.21875 91.191406 86.175781 C 90.378906 85.992188 89.570312 85.808594 88.773438 85.710938 C 88.082031 85.625 87.398438 85.589844 86.730469 85.589844 L 86.683594 85.589844 C 86.207031 85.59375 85.738281 85.613281 85.277344 85.65625 C 85.21875 85.664062 85.132812 85.710938 85.078125 85.574219 C 85.027344 85.457031 85.15625 85.171875 85.105469 85.054688 C 85.015625 85.078125 84.796875 85.335938 84.734375 85.40625 C 84.34375 85.785156 83.855469 85.878906 83.359375 85.992188 C 82.015625 86.339844 80.800781 86.882812 79.660156 87.453125 C 79.339844 87.613281 79.023438 87.773438 78.703125 87.933594 C 77.601562 88.503906 76.488281 88.988281 75.308594 89.308594 L 75.277344 89.316406 L 75.089844 89.371094 C 74.882812 89.441406 74.664062 89.484375 74.445312 89.535156 C 74.351562 89.558594 74.289062 89.542969 74.191406 89.378906 C 74.128906 89.273438 74.257812 88.691406 74.191406 88.585938 C 74.265625 88.707031 73.9375 89.019531 73.554688 89.296875 C 73.160156 89.554688 72.71875 89.785156 72.660156 89.792969 C 72.0625 89.867188 71.46875 89.949219 70.867188 89.960938 C 69.683594 90.023438 68.496094 89.964844 67.324219 89.816406 C 65.664062 89.613281 64.039062 89.320312 62.464844 88.941406 C 62.316406 88.90625 62.796875 88.441406 62.71875 88.253906 C 62.585938 88.4375 61.941406 88.484375 61.804688 88.523438 C 61.574219 88.601562 61.351562 88.636719 61.125 88.601562 C 60.328125 88.46875 59.554688 88.136719 58.792969 87.890625 C 57.964844 87.625 57.167969 87.300781 56.386719 86.949219 L 56.191406 86.863281 L 56 86.773438 C 55.160156 86.382812 54.339844 85.960938 53.53125 85.546875 C 53.132812 85.34375 52.742188 85.140625 52.351562 84.941406 L 51.765625 84.648438 C 51.6875 84.609375 51.582031 84.605469 51.5625 84.472656 C 51.542969 84.359375 51.996094 84.066406 52.003906 83.933594 C 52.007812 83.886719 51.324219 84.015625 51.292969 84.019531 L 50.964844 84.054688 C 50.527344 84.109375 50.191406 83.886719 49.8125 83.738281 C 49.414062 83.570312 49.007812 83.425781 48.601562 83.285156 C 46.976562 82.710938 45.277344 82.441406 43.699219 82.5 C 42.164062 82.542969 40.707031 82.765625 39.308594 83.027344 C 38.722656 83.140625 38.144531 83.257812 37.570312 83.375 C 37.34375 83.429688 34.976562 84.148438 34.898438 83.867188 C 34.84375 83.675781 35.0625 82.976562 34.957031 82.964844 C 34.660156 83.261719 34.09375 83.875 33.773438 84.035156 C 33.683594 84.085938 33.582031 84.085938 33.484375 84.097656 C 32.199219 84.222656 30.933594 84.25 29.707031 84.164062 C 29.304688 84.675781 28.664062 84.957031 27.972656 85.105469 " fill-opacity="1" fill-rule="nonzero"/></g><path fill="#c39d35" d="M 13.769531 71.199219 C 13.460938 71.324219 12.511719 70.410156 12.199219 70.441406 C 12.167969 70.550781 12.566406 70.859375 12.667969 70.894531 C 12.375 70.816406 11.09375 70.382812 10.792969 70.265625 C 10.199219 70.027344 9.542969 69.898438 8.875 69.84375 C 7.800781 69.761719 6.699219 69.871094 5.605469 70.007812 C 5.421875 70.328125 9.105469 69.929688 9.839844 70.363281 C 8.871094 70.371094 8.105469 70.6875 7.5 70.824219 C 7.332031 71.09375 8.550781 70.796875 9.078125 70.742188 C 10.316406 70.613281 12.609375 70.785156 13.535156 71.488281 C 13.472656 71.515625 11.9375 71.839844 11.484375 71.945312 C 10.980469 72.0625 10.476562 72.222656 9.980469 72.367188 C 9.488281 72.507812 9.371094 72.332031 9.308594 71.953125 C 9.273438 71.753906 8.625 71.984375 8.433594 72.011719 C 8.03125 72.066406 7.628906 72.089844 7.230469 72.078125 C 6.507812 72.0625 5.347656 71.988281 4.855469 71.527344 C 4.714844 71.394531 5.082031 71.199219 5.132812 71.101562 C 5.25 70.859375 5.082031 70.816406 4.863281 70.695312 C 4.082031 70.265625 3.242188 70.046875 2.324219 69.871094 C 1.980469 69.808594 3.136719 68.78125 3.257812 68.6875 C 3.875 68.195312 4.609375 67.808594 5.402344 67.628906 C 6.519531 67.371094 7.246094 67.722656 8.199219 68.050781 C 8.171875 67.902344 8.085938 67.761719 8.027344 67.621094 C 8.015625 67.59375 8.003906 67.566406 8.011719 67.539062 C 8.023438 67.503906 8.0625 67.480469 8.097656 67.460938 C 8.914062 67.019531 9.785156 67.21875 10.4375 67.65625 C 11.066406 68.074219 11.425781 68.71875 11.839844 69.289062 C 11.753906 69.214844 11.804688 69.0625 11.917969 68.996094 C 12.03125 68.933594 12.179688 68.945312 12.285156 69 C 12.394531 69.054688 12.46875 69.140625 12.542969 69.226562 C 12.671875 69.386719 13.800781 71.183594 13.769531 71.199219 " fill-opacity="1" fill-rule="nonzero"/><g clip-path="url(#327aa43731)"><path fill="#c39d35" d="M 10.160156 73.09375 C 9.871094 73.019531 9.160156 73.941406 8.878906 73.957031 C 8.839844 73.863281 9.148438 73.542969 9.230469 73.5 C 8.984375 73.605469 7.917969 74.152344 7.667969 74.292969 C 7.179688 74.578125 6.621094 74.777344 6.042969 74.910156 C 5.113281 75.121094 4.128906 75.167969 3.15625 75.191406 C 2.953125 74.933594 6.234375 74.804688 6.820312 74.332031 C 5.96875 74.449219 5.257812 74.269531 4.710938 74.226562 C 4.527344 74.011719 5.636719 74.117188 6.105469 74.097656 C 7.207031 74.050781 9.195312 73.601562 9.914062 72.867188 C 9.859375 72.847656 8.472656 72.765625 8.058594 72.730469 C 7.601562 72.695312 7.140625 72.617188 6.683594 72.558594 C 6.234375 72.496094 6.15625 72.664062 6.148438 73.003906 C 6.144531 73.183594 5.546875 73.066406 5.375 73.066406 C 5.015625 73.070312 4.660156 73.105469 4.3125 73.164062 C 3.683594 73.273438 2.671875 73.488281 2.300781 73.957031 C 2.195312 74.089844 2.542969 74.210938 2.597656 74.292969 C 2.734375 74.488281 2.589844 74.546875 2.414062 74.683594 C 1.785156 75.160156 1.078125 75.460938 0.296875 75.730469 C 0.00390625 75.832031 1.148438 76.582031 1.265625 76.652344 C 1.871094 77 2.566406 77.246094 3.285156 77.300781 C 4.296875 77.382812 4.890625 76.980469 5.683594 76.570312 C 5.675781 76.703125 5.621094 76.839844 5.585938 76.96875 C 5.578125 76.992188 5.574219 77.019531 5.585938 77.042969 C 5.597656 77.070312 5.632812 77.085938 5.667969 77.101562 C 6.441406 77.382812 7.179688 77.09375 7.695312 76.628906 C 8.191406 76.179688 8.421875 75.570312 8.714844 75.011719 C 8.648438 75.089844 8.710938 75.21875 8.820312 75.257812 C 8.929688 75.300781 9.054688 75.273438 9.144531 75.210938 C 9.230469 75.148438 9.285156 75.0625 9.335938 74.976562 C 9.429688 74.820312 10.1875 73.097656 10.160156 73.09375 " fill-opacity="1" fill-rule="nonzero"/></g><path fill="#c39d35" d="M 26.214844 86.816406 C 26.359375 87.078125 27.519531 86.980469 27.71875 87.175781 C 27.675781 87.269531 27.230469 87.257812 27.144531 87.226562 C 27.386719 87.335938 28.507812 87.753906 28.785156 87.839844 C 29.324219 88.011719 29.847656 88.289062 30.335938 88.628906 C 31.121094 89.171875 31.816406 89.863281 32.492188 90.570312 C 32.4375 90.890625 30.128906 88.558594 29.382812 88.445312 C 30.042969 88.992188 30.390625 89.636719 30.730469 90.070312 C 30.695312 90.347656 30.027344 89.460938 29.691406 89.128906 C 28.914062 88.347656 27.242188 87.183594 26.214844 87.148438 C 26.242188 87.203125 27.113281 88.28125 27.367188 88.609375 C 27.648438 88.972656 27.902344 89.363281 28.164062 89.742188 C 28.425781 90.113281 28.601562 90.058594 28.859375 89.832031 C 28.992188 89.714844 29.308594 90.238281 29.425781 90.363281 C 29.667969 90.625 29.933594 90.867188 30.214844 91.082031 C 30.71875 91.472656 31.558594 92.074219 32.15625 92.03125 C 32.324219 92.023438 32.179688 91.683594 32.203125 91.585938 C 32.257812 91.355469 32.398438 91.417969 32.617188 91.457031 C 33.394531 91.597656 34.09375 91.917969 34.820312 92.3125 C 35.09375 92.460938 34.871094 91.109375 34.84375 90.976562 C 34.691406 90.292969 34.40625 89.617188 33.960938 89.046875 C 33.335938 88.246094 32.644531 88.082031 31.804688 87.773438 C 31.90625 87.6875 32.042969 87.636719 32.164062 87.574219 C 32.1875 87.5625 32.210938 87.550781 32.21875 87.527344 C 32.230469 87.496094 32.21875 87.460938 32.203125 87.425781 C 31.890625 86.664062 31.179688 86.3125 30.488281 86.246094 C 29.824219 86.183594 29.214844 86.425781 28.609375 86.585938 C 28.710938 86.582031 28.761719 86.449219 28.71875 86.339844 C 28.675781 86.234375 28.570312 86.160156 28.464844 86.136719 C 28.363281 86.113281 28.261719 86.128906 28.164062 86.152344 C 27.984375 86.1875 26.203125 86.789062 26.214844 86.816406 " fill-opacity="1" fill-rule="nonzero"/><path fill="#c39d35" d="M 27.699219 72.800781 C 27.886719 72.585938 28.953125 72.90625 29.179688 72.761719 C 29.160156 72.664062 28.738281 72.589844 28.652344 72.601562 C 28.902344 72.546875 30.039062 72.375 30.3125 72.347656 C 30.851562 72.296875 31.398438 72.136719 31.925781 71.917969 C 32.769531 71.5625 33.558594 71.050781 34.332031 70.523438 C 34.34375 70.210938 31.714844 71.941406 30.996094 71.898438 C 31.722656 71.515625 32.175781 70.980469 32.578125 70.640625 C 32.601562 70.371094 31.796875 71.074219 31.421875 71.320312 C 30.535156 71.898438 28.734375 72.660156 27.761719 72.488281 C 27.800781 72.445312 28.832031 71.601562 29.136719 71.347656 C 29.472656 71.0625 29.785156 70.746094 30.109375 70.441406 C 30.425781 70.144531 30.578125 70.230469 30.773438 70.492188 C 30.878906 70.632812 31.28125 70.203125 31.414062 70.109375 C 31.695312 69.910156 31.992188 69.738281 32.292969 69.589844 C 32.847656 69.324219 33.753906 68.925781 34.304688 69.082031 C 34.460938 69.125 34.257812 69.417969 34.261719 69.511719 C 34.265625 69.738281 34.410156 69.707031 34.625 69.710938 C 35.378906 69.734375 36.101562 69.570312 36.859375 69.34375 C 37.144531 69.261719 36.671875 70.484375 36.617188 70.605469 C 36.339844 71.214844 35.9375 71.792969 35.410156 72.238281 C 34.664062 72.867188 33.980469 72.886719 33.132812 73.007812 C 33.210938 73.109375 33.328125 73.183594 33.429688 73.265625 C 33.449219 73.28125 33.46875 73.296875 33.472656 73.324219 C 33.476562 73.351562 33.457031 73.386719 33.4375 73.414062 C 32.996094 74.066406 32.257812 74.257812 31.59375 74.179688 C 30.960938 74.109375 30.4375 73.761719 29.898438 73.492188 C 29.996094 73.515625 30.015625 73.652344 29.957031 73.742188 C 29.894531 73.835938 29.777344 73.882812 29.675781 73.886719 C 29.574219 73.886719 29.484375 73.851562 29.394531 73.8125 C 29.234375 73.742188 27.679688 72.824219 27.699219 72.800781 " fill-opacity="1" fill-rule="nonzero"/><path fill="#c39d35" d="M 16.21875 52.457031 C 16.097656 52.144531 17.019531 51.207031 16.996094 50.894531 C 16.882812 50.859375 16.570312 51.257812 16.535156 51.355469 C 16.617188 51.0625 17.066406 49.789062 17.1875 49.488281 C 17.433594 48.898438 17.570312 48.242188 17.628906 47.578125 C 17.726562 46.503906 17.628906 45.398438 17.507812 44.304688 C 17.1875 44.121094 17.539062 47.808594 17.097656 48.535156 C 17.101562 47.566406 16.796875 46.796875 16.664062 46.191406 C 16.398438 46.019531 16.683594 47.242188 16.730469 47.769531 C 16.84375 49.011719 16.644531 51.300781 15.929688 52.21875 C 15.902344 52.15625 15.597656 50.617188 15.5 50.160156 C 15.386719 49.65625 15.230469 49.152344 15.09375 48.652344 C 14.960938 48.15625 15.136719 48.042969 15.515625 47.984375 C 15.71875 47.953125 15.492188 47.300781 15.46875 47.109375 C 15.417969 46.710938 15.398438 46.304688 15.414062 45.90625 C 15.441406 45.183594 15.53125 44.023438 15.996094 43.535156 C 16.128906 43.398438 16.316406 43.769531 16.417969 43.820312 C 16.65625 43.941406 16.703125 43.773438 16.824219 43.554688 C 17.265625 42.78125 17.496094 41.941406 17.679688 41.027344 C 17.746094 40.683594 18.757812 41.851562 18.851562 41.972656 C 19.335938 42.597656 19.714844 43.335938 19.886719 44.128906 C 20.128906 45.253906 19.773438 45.972656 19.429688 46.921875 C 19.578125 46.894531 19.722656 46.8125 19.863281 46.753906 C 19.890625 46.742188 19.917969 46.730469 19.945312 46.742188 C 19.980469 46.753906 20.003906 46.789062 20.019531 46.828125 C 20.453125 47.648438 20.246094 48.519531 19.800781 49.167969 C 19.375 49.789062 18.726562 50.140625 18.152344 50.550781 C 18.226562 50.464844 18.378906 50.515625 18.441406 50.628906 C 18.503906 50.746094 18.492188 50.890625 18.433594 51 C 18.382812 51.105469 18.292969 51.179688 18.203125 51.25 C 18.042969 51.378906 16.234375 52.488281 16.21875 52.457031 " fill-opacity="1" fill-rule="nonzero"/><path fill="#c39d35" d="M 9.992188 25.523438 C 10.242188 25.347656 10.007812 24.1875 10.183594 23.960938 C 10.285156 23.992188 10.324219 24.445312 10.300781 24.539062 C 10.386719 24.277344 10.679688 23.097656 10.734375 22.808594 C 10.847656 22.242188 11.066406 21.679688 11.351562 21.148438 C 11.8125 20.292969 12.433594 19.511719 13.070312 18.746094 C 13.402344 18.765625 11.304688 21.367188 11.277344 22.132812 C 11.753906 21.402344 12.367188 20.976562 12.765625 20.585938 C 13.054688 20.589844 12.234375 21.367188 11.933594 21.742188 C 11.230469 22.617188 10.246094 24.441406 10.328125 25.488281 C 10.382812 25.453125 11.375 24.449219 11.675781 24.152344 C 12.011719 23.828125 12.378906 23.527344 12.730469 23.214844 C 13.074219 22.910156 13 22.738281 12.742188 22.507812 C 12.605469 22.382812 13.097656 22.003906 13.210938 21.871094 C 13.449219 21.59375 13.664062 21.296875 13.847656 20.992188 C 14.1875 20.433594 14.695312 19.519531 14.585938 18.917969 C 14.558594 18.75 14.230469 18.933594 14.128906 18.921875 C 13.890625 18.894531 13.9375 18.746094 13.953125 18.519531 C 14.007812 17.71875 14.25 16.972656 14.566406 16.195312 C 14.683594 15.898438 13.34375 16.277344 13.210938 16.324219 C 12.539062 16.554688 11.886719 16.921875 11.363281 17.433594 C 10.625 18.160156 10.535156 18.878906 10.320312 19.761719 C 10.222656 19.667969 10.15625 19.535156 10.078125 19.421875 C 10.066406 19.402344 10.050781 19.378906 10.023438 19.371094 C 9.992188 19.363281 9.957031 19.378906 9.921875 19.398438 C 9.191406 19.800781 8.914062 20.558594 8.929688 21.269531 C 8.941406 21.949219 9.253906 22.535156 9.484375 23.128906 C 9.46875 23.027344 9.328125 22.992188 9.226562 23.046875 C 9.121094 23.101562 9.058594 23.21875 9.046875 23.324219 C 9.035156 23.433594 9.066406 23.535156 9.097656 23.632812 C 9.15625 23.808594 9.96875 25.539062 9.992188 25.523438 " fill-opacity="1" fill-rule="nonzero"/><path fill="#c39d35" d="M 5.453125 12.730469 C 5.308594 12.527344 5.761719 11.695312 5.679688 11.476562 C 5.597656 11.46875 5.460938 11.808594 5.453125 11.886719 C 5.453125 11.660156 5.507812 10.667969 5.53125 10.433594 C 5.585938 9.964844 5.546875 9.472656 5.457031 8.984375 C 5.308594 8.195312 5.019531 7.421875 4.714844 6.65625 C 4.457031 6.578125 5.441406 9.164062 5.28125 9.761719 C 5.085938 9.066406 4.722656 8.570312 4.507812 8.15625 C 4.289062 8.078125 4.730469 8.90625 4.871094 9.277344 C 5.199219 10.148438 5.519531 11.828125 5.207031 12.609375 C 5.175781 12.566406 4.65625 11.515625 4.492188 11.207031 C 4.316406 10.863281 4.105469 10.527344 3.910156 10.191406 C 3.71875 9.863281 3.820312 9.75 4.070312 9.640625 C 4.203125 9.585938 3.917969 9.15625 3.863281 9.023438 C 3.746094 8.742188 3.652344 8.457031 3.582031 8.167969 C 3.457031 7.644531 3.285156 6.796875 3.511719 6.367188 C 3.578125 6.246094 3.785156 6.476562 3.863281 6.496094 C 4.050781 6.542969 4.050781 6.414062 4.09375 6.234375 C 4.242188 5.605469 4.234375 4.960938 4.179688 4.273438 C 4.15625 4.015625 5.09375 4.679688 5.183594 4.75 C 5.644531 5.113281 6.054688 5.578125 6.332031 6.121094 C 6.726562 6.882812 6.625 7.460938 6.578125 8.203125 C 6.671875 8.15625 6.757812 8.074219 6.84375 8.007812 C 6.859375 7.996094 6.875 7.980469 6.894531 7.984375 C 6.921875 7.988281 6.945312 8.007812 6.964844 8.03125 C 7.433594 8.546875 7.460938 9.207031 7.28125 9.75 C 7.113281 10.269531 6.730469 10.632812 6.414062 11.027344 C 6.449219 10.953125 6.566406 10.964844 6.632812 11.035156 C 6.699219 11.105469 6.71875 11.214844 6.703125 11.300781 C 6.683594 11.386719 6.636719 11.457031 6.589844 11.519531 C 6.503906 11.640625 5.46875 12.75 5.453125 12.730469 " fill-opacity="1" fill-rule="nonzero"/><path fill="#c39d35" d="M 30.757812 74.671875 C 30.820312 74.902344 31.742188 75.039062 31.863281 75.226562 C 31.8125 75.292969 31.46875 75.199219 31.40625 75.160156 C 31.578125 75.292969 32.375 75.824219 32.574219 75.9375 C 32.964844 76.171875 33.320312 76.480469 33.640625 76.835938 C 34.152344 77.402344 34.570312 78.070312 34.96875 78.742188 C 34.867188 78.980469 33.492188 76.742188 32.929688 76.519531 C 33.347656 77.066406 33.5 77.632812 33.683594 78.03125 C 33.605469 78.242188 33.246094 77.429688 33.046875 77.109375 C 32.582031 76.355469 31.488281 75.144531 30.695312 74.929688 C 30.703125 74.976562 31.1875 75.980469 31.328125 76.28125 C 31.480469 76.617188 31.609375 76.964844 31.746094 77.308594 C 31.878906 77.644531 32.027344 77.636719 32.269531 77.507812 C 32.394531 77.4375 32.546875 77.902344 32.613281 78.023438 C 32.757812 78.273438 32.921875 78.507812 33.097656 78.726562 C 33.421875 79.125 33.96875 79.746094 34.441406 79.820312 C 34.574219 79.84375 34.523438 79.550781 34.558594 79.480469 C 34.644531 79.3125 34.742188 79.386719 34.90625 79.457031 C 35.484375 79.707031 35.972656 80.085938 36.46875 80.527344 C 36.652344 80.691406 36.726562 79.59375 36.730469 79.488281 C 36.734375 78.925781 36.636719 78.34375 36.394531 77.824219 C 36.050781 77.082031 35.539062 76.828125 34.941406 76.433594 C 35.039062 76.386719 35.152344 76.371094 35.257812 76.347656 C 35.277344 76.339844 35.296875 76.335938 35.308594 76.320312 C 35.324219 76.296875 35.320312 76.265625 35.316406 76.238281 C 35.210938 75.585938 34.71875 75.183594 34.191406 75.003906 C 33.683594 74.835938 33.167969 74.914062 32.664062 74.925781 C 32.746094 74.941406 32.808594 74.847656 32.796875 74.757812 C 32.78125 74.664062 32.710938 74.589844 32.632812 74.550781 C 32.558594 74.515625 32.476562 74.511719 32.394531 74.507812 C 32.25 74.503906 30.75 74.648438 30.757812 74.671875 " fill-opacity="1" fill-rule="nonzero"/><path fill="#c39d35" d="M 44.613281 81.28125 C 44.878906 81.410156 45.769531 80.660156 46.046875 80.703125 C 46.066406 80.804688 45.695312 81.050781 45.605469 81.078125 C 45.871094 81.027344 47.027344 80.71875 47.300781 80.628906 C 47.839844 80.453125 48.425781 80.375 49.019531 80.367188 C 49.972656 80.355469 50.945312 80.519531 51.902344 80.699219 C 52.042969 80.992188 48.808594 80.429688 48.136719 80.773438 C 48.992188 80.835938 49.652344 81.160156 50.175781 81.316406 C 50.3125 81.5625 49.25 81.230469 48.785156 81.148438 C 47.699219 80.964844 45.664062 80.984375 44.804688 81.554688 C 44.855469 81.582031 46.195312 81.957031 46.589844 82.078125 C 47.03125 82.207031 47.464844 82.378906 47.898438 82.535156 C 48.324219 82.6875 48.4375 82.539062 48.515625 82.207031 C 48.554688 82.035156 49.117188 82.277344 49.285156 82.308594 C 49.636719 82.382812 49.992188 82.425781 50.34375 82.441406 C 50.984375 82.464844 52.015625 82.464844 52.476562 82.085938 C 52.609375 81.980469 52.292969 81.789062 52.257812 81.695312 C 52.167969 81.476562 52.316406 81.449219 52.519531 81.351562 C 53.234375 81.019531 53.992188 80.871094 54.8125 80.773438 C 55.117188 80.734375 54.15625 79.761719 54.054688 79.667969 C 53.535156 79.199219 52.910156 78.8125 52.21875 78.609375 C 51.242188 78.320312 50.582031 78.585938 49.71875 78.820312 C 49.753906 78.691406 49.835938 78.570312 49.898438 78.453125 C 49.910156 78.429688 49.921875 78.40625 49.914062 78.378906 C 49.90625 78.347656 49.875 78.324219 49.84375 78.308594 C 49.148438 77.867188 48.367188 77.992188 47.761719 78.339844 C 47.183594 78.675781 46.828125 79.222656 46.429688 79.707031 C 46.507812 79.644531 46.472656 79.507812 46.375 79.441406 C 46.28125 79.378906 46.148438 79.382812 46.050781 79.421875 C 45.953125 79.464844 45.882812 79.539062 45.8125 79.609375 C 45.6875 79.742188 44.585938 81.269531 44.613281 81.28125 " fill-opacity="1" fill-rule="nonzero"/><path fill="#c39d35" d="M 80.148438 90.949219 C 80.324219 90.792969 81.164062 91.179688 81.367188 91.089844 C 81.359375 91.007812 81.023438 90.898438 80.949219 90.898438 C 81.164062 90.878906 82.113281 90.871094 82.339844 90.882812 C 82.789062 90.902344 83.253906 90.835938 83.707031 90.71875 C 84.441406 90.527344 85.148438 90.199219 85.839844 89.855469 C 85.886719 89.601562 83.535156 90.714844 82.949219 90.59375 C 83.589844 90.367188 84.023438 89.980469 84.394531 89.75 C 84.441406 89.53125 83.703125 90.011719 83.367188 90.171875 C 82.574219 90.542969 81.011719 90.953125 80.238281 90.703125 C 80.273438 90.667969 81.214844 90.101562 81.492188 89.925781 C 81.800781 89.730469 82.097656 89.507812 82.394531 89.300781 C 82.6875 89.09375 82.804688 89.183594 82.933594 89.417969 C 83.003906 89.542969 83.382812 89.242188 83.5 89.179688 C 83.753906 89.050781 84.015625 88.941406 84.285156 88.855469 C 84.765625 88.703125 85.554688 88.484375 85.988281 88.675781 C 86.109375 88.730469 85.910156 88.945312 85.902344 89.023438 C 85.878906 89.207031 86 89.199219 86.175781 89.226562 C 86.792969 89.332031 87.402344 89.285156 88.046875 89.1875 C 88.292969 89.152344 87.761719 90.097656 87.703125 90.191406 C 87.40625 90.65625 87.007812 91.085938 86.523438 91.386719 C 85.839844 91.816406 85.277344 91.75 84.570312 91.753906 C 84.625 91.84375 84.710938 91.917969 84.785156 91.996094 C 84.796875 92.011719 84.8125 92.027344 84.8125 92.050781 C 84.8125 92.074219 84.792969 92.097656 84.773438 92.121094 C 84.335938 92.601562 83.710938 92.671875 83.175781 92.53125 C 82.664062 92.398438 82.277344 92.054688 81.867188 91.769531 C 81.945312 91.800781 81.945312 91.914062 81.882812 91.984375 C 81.824219 92.050781 81.722656 92.078125 81.640625 92.066406 C 81.558594 92.054688 81.484375 92.015625 81.417969 91.972656 C 81.296875 91.898438 80.132812 90.964844 80.148438 90.949219 " fill-opacity="1" fill-rule="nonzero"/><path fill="#c39d35" d="M 28.890625 84.800781 C 28.671875 84.90625 28.433594 84.988281 28.183594 85.054688 C 30.578125 85.582031 34.703125 86.464844 35.644531 86.757812 C 36.128906 86.910156 36.605469 87.09375 37.082031 87.273438 C 37.746094 87.523438 38.398438 87.78125 39.03125 88.097656 C 39.078125 88.121094 39.136719 88.195312 39.125 88.257812 C 39.109375 88.308594 39.050781 88.304688 39.007812 88.304688 C 38.429688 88.28125 37.839844 88.191406 37.261719 88.214844 C 36.980469 88.230469 36.601562 88.355469 36.5 88.648438 C 36.726562 88.566406 36.933594 88.507812 37.179688 88.535156 C 37.421875 88.558594 37.652344 88.636719 37.886719 88.707031 C 38.4375 88.878906 39 89.089844 39.585938 89.105469 C 39.894531 89.117188 40.253906 89.117188 40.351562 88.757812 C 40.410156 88.53125 40.425781 88.34375 40.527344 88.128906 C 40.738281 87.691406 40.6875 87.417969 40.265625 87.109375 C 39.898438 86.839844 39.453125 86.871094 39.050781 86.660156 C 38.289062 86.308594 38.109375 85.679688 38.097656 85.929688 C 38.085938 86.128906 38.144531 86.332031 38.238281 86.507812 C 38.433594 86.871094 38.769531 87.167969 39.117188 87.386719 C 38.304688 86.875 37.382812 86.582031 36.453125 86.363281 C 35.675781 86.179688 31.53125 85.265625 28.890625 84.800781 " fill-opacity="1" fill-rule="nonzero"/><path fill="#c39d35" d="M 11.601562 67.707031 C 11.765625 67.757812 11.910156 67.832031 12.039062 67.9375 C 8.265625 65.457031 6.976562 60.9375 6.832031 59.9375 C 6.761719 59.433594 6.71875 58.921875 6.675781 58.417969 C 6.617188 57.714844 6.570312 57.011719 6.582031 56.304688 C 6.582031 56.253906 6.625 56.164062 6.683594 56.152344 C 6.738281 56.140625 6.761719 56.195312 6.777344 56.234375 C 7.007812 56.765625 7.179688 57.335938 7.453125 57.847656 C 7.585938 58.097656 7.863281 58.382812 8.167969 58.347656 C 7.996094 58.179688 7.859375 58.019531 7.773438 57.785156 C 7.695312 57.558594 7.664062 57.3125 7.625 57.074219 C 7.539062 56.5 7.488281 55.902344 7.253906 55.367188 C 7.128906 55.085938 6.972656 54.757812 6.609375 54.828125 C 6.375 54.871094 6.203125 54.9375 5.964844 54.9375 C 5.480469 54.9375 5.253906 55.101562 5.15625 55.617188 C 5.074219 56.066406 5.292969 56.449219 5.273438 56.90625 C 5.285156 57.746094 4.800781 58.175781 5.027344 58.082031 C 5.214844 58.003906 5.375 57.863281 5.492188 57.703125 C 5.734375 57.371094 5.855469 56.941406 5.902344 56.535156 C 5.789062 57.488281 5.921875 58.445312 6.128906 59.378906 C 7.574219 65.796875 9.425781 66.15625 11.601562 67.707031 " fill-opacity="1" fill-rule="nonzero"/><path fill="#c39d35" d="M 21.972656 84 C 21.300781 83.90625 20.632812 83.640625 20.003906 83.34375 C 19.921875 83.304688 20.542969 83.160156 20.570312 83.15625 C 21.003906 83.125 21.429688 83.042969 21.839844 82.914062 C 22.527344 82.695312 24.808594 80.828125 23.230469 80.09375 C 22.902344 79.941406 22.328125 79.988281 21.984375 80 C 21.664062 80.007812 22.101562 80.339844 22.175781 80.398438 C 23.132812 81.15625 20.792969 82.265625 20.421875 82.5625 C 20.121094 82.804688 20.042969 82.21875 20.109375 82 C 20.203125 81.699219 20.472656 81.5625 20.667969 81.347656 C 20.824219 81.167969 20.925781 80.941406 20.710938 80.730469 C 20.589844 80.613281 20.421875 80.570312 20.261719 80.582031 C 19.847656 80.609375 19.285156 80.886719 19.101562 81.296875 C 18.898438 81.757812 19.175781 82.234375 19.378906 82.648438 C 19.417969 82.730469 19.507812 82.875 19.480469 82.964844 C 19.339844 83.378906 18.292969 82.539062 18.203125 82.332031 C 17.800781 81.429688 18.140625 80.714844 18.753906 80.125 C 19.566406 79.34375 20.648438 79.121094 21.734375 79.039062 C 22.539062 78.980469 23.347656 79.105469 24.03125 79.617188 C 24.582031 80.027344 24.808594 80.570312 25.015625 81.226562 C 25.136719 81.601562 25.28125 81.945312 25.511719 82.257812 C 25.84375 82.695312 25.902344 82.730469 25.398438 82.988281 C 24.765625 83.304688 24.101562 83.632812 23.4375 83.871094 C 22.960938 84.042969 22.464844 84.066406 21.972656 84 " fill-opacity="1" fill-rule="nonzero"/><path fill="#c39d35" d="M 20.417969 85.726562 C 20.679688 85.582031 20.933594 85.425781 21.210938 85.289062 C 21.464844 85.164062 21.664062 84.84375 21.226562 84.828125 C 20.820312 84.816406 20.394531 84.804688 20.039062 84.585938 C 19.78125 84.425781 19.6875 84.109375 19.472656 83.902344 C 19.242188 83.6875 18.949219 83.707031 18.675781 83.777344 C 17.855469 83.992188 17.375 83.558594 16.703125 83.089844 C 16.429688 82.902344 16.167969 82.679688 16.011719 82.378906 C 15.980469 82.320312 15.949219 82.253906 15.902344 82.203125 C 15.726562 82.007812 15.597656 82.28125 15.550781 82.433594 C 15.394531 82.996094 15.34375 83.460938 15.476562 84.054688 C 15.609375 84.675781 15.976562 85.230469 16.070312 85.847656 C 16.097656 86.03125 16.113281 86.214844 16.179688 86.386719 C 16.355469 86.867188 16.777344 86.839844 17.15625 86.71875 C 17.996094 86.453125 18.875 86.335938 19.703125 86.054688 C 19.957031 85.964844 20.191406 85.851562 20.417969 85.726562 " fill-opacity="1" fill-rule="nonzero"/><path fill="#c39d35" d="M 21.996094 85.179688 C 22.003906 85.1875 22.011719 85.199219 22.019531 85.207031 C 22.296875 85.546875 22.84375 85.773438 23.207031 85.984375 C 23.453125 86.128906 23.832031 86.480469 24.128906 86.425781 C 24.894531 86.289062 25.238281 85.152344 25.824219 84.730469 C 26.144531 84.5 26.539062 84.414062 26.925781 84.355469 C 27.472656 84.273438 28.027344 84.253906 28.578125 84.214844 C 28.707031 84.203125 28.839844 84.191406 28.9375 84.109375 C 29.035156 84.027344 29.074219 83.890625 29.101562 83.761719 C 29.363281 82.617188 29.167969 81.632812 28.8125 80.511719 C 28.734375 80.261719 28.65625 80.015625 28.574219 79.765625 C 28.542969 79.65625 28.5 79.566406 28.40625 79.515625 C 28.605469 79.625 27.808594 81.3125 27.710938 81.476562 C 27.175781 82.386719 26.386719 83.09375 25.496094 83.59375 C 24.882812 83.9375 24.230469 84.195312 23.566406 84.414062 C 23.238281 84.523438 22.90625 84.625 22.574219 84.71875 C 22.410156 84.765625 22.03125 84.757812 21.957031 84.960938 C 21.933594 85.03125 21.953125 85.113281 21.996094 85.179688 " fill-opacity="1" fill-rule="nonzero"/><path fill="#c39d35" d="M 17.421875 82.257812 C 17.4375 82.398438 17.4375 82.535156 17.398438 82.660156 C 17.242188 83.117188 16.476562 81.863281 16.394531 81.714844 C 15.980469 80.941406 15.796875 80.066406 16.207031 79.273438 C 16.523438 78.660156 17.089844 78.265625 17.589844 77.839844 C 17.832031 77.632812 18.066406 77.417969 18.265625 77.160156 C 18.484375 76.878906 18.554688 76.546875 18.714844 76.226562 C 18.757812 76.144531 18.8125 76.0625 18.886719 76.011719 C 19.234375 75.789062 19.921875 76.292969 20.300781 76.351562 C 22.136719 76.644531 23.988281 76.554688 25.804688 77.050781 C 26.03125 77.113281 26.261719 77.183594 26.492188 77.21875 C 26.636719 77.238281 27.015625 77.152344 27.117188 77.257812 C 27.164062 77.308594 27.183594 77.378906 27.203125 77.445312 C 27.484375 78.496094 27.804688 79.371094 27.4375 80.417969 C 27.214844 80.925781 26.765625 81.269531 26.515625 81.761719 C 26.410156 81.96875 26.222656 81.382812 26.179688 81.28125 C 26.054688 81.011719 25.933594 80.742188 25.792969 80.480469 C 25.5 79.9375 25.136719 79.441406 24.652344 79.070312 C 23.757812 78.382812 22.800781 78.332031 21.761719 78.40625 C 20.542969 78.492188 19.378906 78.515625 18.347656 79.253906 C 18.082031 79.441406 17.816406 79.660156 17.703125 79.988281 C 17.550781 80.429688 17.328125 80.902344 17.296875 81.386719 C 17.28125 81.664062 17.386719 81.972656 17.421875 82.257812 " fill-opacity="1" fill-rule="nonzero"/><path fill="#c39d35" d="M 29.925781 77.527344 C 29.855469 78.011719 29.710938 78.519531 29.429688 78.910156 C 29.328125 79.054688 29.183594 79.203125 29.03125 79.285156 C 28.511719 79.550781 28.382812 78.589844 28.265625 78.242188 C 28.082031 77.699219 27.796875 76.855469 27.246094 76.621094 C 27.042969 76.53125 26.828125 76.503906 26.613281 76.46875 C 25.335938 76.269531 24.082031 75.835938 22.832031 75.484375 C 22.996094 75.53125 23.65625 74.996094 23.824219 74.914062 C 24.234375 74.710938 24.660156 74.542969 25.101562 74.417969 C 26.363281 74.0625 27.894531 73.875 29.125 74.617188 C 29.308594 74.726562 29.480469 74.863281 29.671875 74.960938 C 30.050781 75.15625 30.304688 75.269531 30.171875 75.757812 C 30.015625 76.339844 30.011719 76.933594 29.925781 77.527344 " fill-opacity="1" fill-rule="nonzero"/><path fill="#c39d35" d="M 24.84375 73.953125 C 24.375 74.195312 23.789062 74.285156 23.296875 74.480469 C 22.773438 74.6875 22.253906 75.003906 21.710938 75.203125 C 20.957031 75.480469 20.25 75.277344 19.472656 75.25 C 18.097656 75.199219 16.738281 76.316406 15.496094 76.804688 C 15.191406 76.925781 15.355469 75.53125 15.378906 75.328125 C 15.421875 74.890625 15.558594 74.484375 15.800781 74.132812 C 16.167969 73.589844 16.679688 73.183594 17.207031 72.816406 C 17.542969 72.585938 17.890625 72.367188 18.242188 72.164062 C 18.964844 71.746094 19.621094 72.152344 20.34375 72.425781 C 21.089844 72.710938 21.863281 72.90625 22.625 73.117188 C 23.019531 73.226562 23.410156 73.34375 23.800781 73.476562 C 24.082031 73.574219 24.671875 73.703125 24.84375 73.953125 " fill-opacity="1" fill-rule="nonzero"/><path fill="#c39d35" d="M 17.5 76.21875 C 17.828125 76.042969 18.171875 75.933594 17.863281 76.390625 C 17.527344 76.894531 17.121094 77.339844 16.71875 77.777344 C 16.28125 78.253906 15.816406 78.730469 15.527344 79.332031 C 15.34375 79.714844 15.3125 80.144531 15.257812 80.566406 C 15.199219 81.007812 15.054688 81.46875 14.980469 81.917969 C 14.914062 82.3125 15.097656 82.980469 14.917969 83.308594 C 14.617188 83.863281 12.433594 82.113281 12.085938 81.816406 C 11.699219 81.484375 11.355469 81.0625 11.222656 80.558594 C 11.207031 80.511719 11.199219 80.460938 11.21875 80.417969 C 11.296875 80.257812 11.613281 80.152344 11.746094 80.074219 C 12.019531 79.914062 12.273438 79.726562 12.511719 79.515625 C 12.792969 79.261719 13.046875 78.976562 13.335938 78.726562 C 14.457031 77.75 15.949219 77.414062 17.09375 76.476562 C 17.164062 76.417969 17.332031 76.308594 17.5 76.21875 " fill-opacity="1" fill-rule="nonzero"/><path fill="#c39d35" d="M 12.003906 83.304688 C 12.160156 83.726562 12.410156 84.132812 12.597656 84.535156 C 12.699219 84.757812 12.800781 84.980469 12.847656 85.21875 C 12.910156 85.523438 12.960938 85.691406 13.273438 85.691406 C 13.421875 85.691406 13.574219 85.730469 13.722656 85.773438 C 14.046875 85.863281 15.359375 86.546875 15.359375 85.882812 C 15.355469 85.296875 15.164062 84.714844 15.164062 84.144531 C 15.167969 84.035156 15.1875 83.921875 15.148438 83.816406 C 15.066406 83.589844 14.765625 83.726562 14.605469 83.707031 C 14.363281 83.679688 14.128906 83.640625 13.890625 83.582031 C 13.417969 83.457031 12.957031 83.265625 12.503906 83.074219 C 12.308594 82.992188 12.101562 82.878906 11.902344 82.839844 C 11.871094 82.886719 11.886719 82.921875 11.902344 82.976562 C 11.929688 83.089844 11.960938 83.195312 12.003906 83.304688 " fill-opacity="1" fill-rule="nonzero"/><path fill="#c39d35" d="M 14.65625 76.625 C 14.472656 77.015625 14.195312 77.324219 13.832031 77.632812 C 13.515625 77.902344 13.238281 78.222656 12.945312 78.515625 C 12.597656 78.863281 12.238281 79.230469 11.820312 79.484375 C 11.429688 79.722656 11.160156 79.457031 11.125 79.019531 C 11.074219 78.394531 11.136719 77.878906 10.828125 77.289062 C 10.769531 77.171875 10.703125 77.0625 10.671875 76.9375 C 10.578125 76.570312 10.953125 76.449219 11.1875 76.300781 C 11.511719 76.09375 11.839844 75.890625 12.167969 75.6875 C 12.824219 75.277344 13.476562 74.863281 14.101562 74.410156 C 14.441406 74.164062 14.976562 73.753906 15.371094 73.769531 C 15.144531 74.476562 14.972656 75.132812 14.867188 75.878906 C 14.828125 76.164062 14.757812 76.40625 14.65625 76.625 " fill-opacity="1" fill-rule="nonzero"/><path fill="#c39d35" d="M 27.347656 73.703125 C 27.140625 73.742188 26.949219 73.71875 26.664062 73.65625 C 25.710938 73.441406 24.796875 73.058594 23.855469 72.800781 C 23.199219 72.621094 22.539062 72.460938 21.875 72.324219 C 21.730469 72.296875 20.167969 71.910156 20.109375 71.992188 C 20.292969 71.730469 20.742188 71.726562 21.015625 71.675781 C 21.46875 71.59375 21.917969 71.511719 22.367188 71.429688 C 23 71.320312 23.644531 71.242188 24.273438 71.109375 C 24.613281 71.035156 24.949219 70.933594 25.285156 70.835938 C 25.566406 70.757812 26.035156 70.460938 26.3125 70.703125 C 26.433594 70.800781 26.472656 70.972656 26.507812 71.125 C 26.664062 71.851562 27.707031 73.636719 27.347656 73.703125 " fill-opacity="1" fill-rule="nonzero"/><path fill="#c39d35" d="M 26.257812 60.636719 C 26.507812 61.179688 26.628906 61.816406 26.710938 62.4375 C 26.722656 62.515625 26.324219 62.144531 26.308594 62.125 C 26.082031 61.824219 25.824219 61.554688 25.535156 61.324219 C 25.050781 60.9375 22.617188 60.277344 22.832031 61.835938 C 22.875 62.15625 23.183594 62.554688 23.351562 62.800781 C 23.507812 63.03125 23.542969 62.53125 23.550781 62.441406 C 23.648438 61.332031 25.558594 62.445312 25.945312 62.554688 C 26.265625 62.648438 25.878906 63.023438 25.6875 63.089844 C 25.425781 63.183594 25.199219 63.058594 24.949219 63.035156 C 24.746094 63.015625 24.535156 63.066406 24.484375 63.339844 C 24.457031 63.488281 24.507812 63.636719 24.585938 63.75 C 24.800781 64.039062 25.269531 64.300781 25.652344 64.210938 C 26.085938 64.109375 26.296875 63.648438 26.503906 63.273438 C 26.542969 63.203125 26.605469 63.054688 26.6875 63.027344 C 27.050781 62.90625 26.9375 64.128906 26.832031 64.308594 C 26.367188 65.09375 25.683594 65.234375 24.96875 65.105469 C 24.019531 64.929688 23.34375 64.257812 22.777344 63.507812 C 22.351562 62.945312 22.058594 62.285156 22.109375 61.507812 C 22.144531 60.878906 22.433594 60.417969 22.808594 59.910156 C 23.023438 59.617188 23.207031 59.328125 23.320312 58.984375 C 23.484375 58.507812 23.480469 58.441406 23.90625 58.675781 C 24.433594 58.964844 24.984375 59.273438 25.472656 59.632812 C 25.820312 59.890625 26.074219 60.238281 26.257812 60.636719 " fill-opacity="1" fill-rule="nonzero"/><path fill="#c39d35" d="M 28.242188 60.839844 C 28.015625 60.726562 27.78125 60.625 27.550781 60.496094 C 27.34375 60.378906 27.015625 60.40625 27.210938 60.734375 C 27.394531 61.039062 27.585938 61.359375 27.597656 61.738281 C 27.601562 62.015625 27.414062 62.257812 27.371094 62.523438 C 27.320312 62.8125 27.472656 63.015625 27.65625 63.175781 C 28.195312 63.660156 28.109375 64.253906 28.085938 65 C 28.078125 65.300781 28.042969 65.613281 27.898438 65.890625 C 27.871094 65.949219 27.835938 66.003906 27.820312 66.066406 C 27.761719 66.300781 28.023438 66.25 28.15625 66.195312 C 28.636719 66.011719 29 65.792969 29.367188 65.371094 C 29.753906 64.9375 29.980469 64.367188 30.386719 63.964844 C 30.503906 63.84375 30.628906 63.734375 30.722656 63.59375 C 30.988281 63.203125 30.769531 62.910156 30.503906 62.695312 C 29.914062 62.222656 29.414062 61.640625 28.816406 61.1875 C 28.632812 61.046875 28.441406 60.941406 28.242188 60.839844 " fill-opacity="1" fill-rule="nonzero"/><path fill="#c39d35" d="M 27.101562 59.980469 C 27.105469 59.96875 27.109375 59.960938 27.109375 59.949219 C 27.226562 59.558594 27.128906 59.035156 27.113281 58.652344 C 27.101562 58.394531 27.175781 57.925781 27 57.738281 C 26.539062 57.25 25.550781 57.617188 24.96875 57.414062 C 24.648438 57.304688 24.402344 57.058594 24.175781 56.808594 C 23.859375 56.453125 23.582031 56.058594 23.292969 55.675781 C 23.226562 55.585938 23.152344 55.492188 23.046875 55.46875 C 22.941406 55.441406 22.824219 55.488281 22.714844 55.535156 C 21.765625 55.964844 21.144531 56.640625 20.5 57.511719 C 20.355469 57.707031 20.210938 57.898438 20.070312 58.09375 C 20.007812 58.175781 19.960938 58.253906 19.964844 58.351562 C 19.953125 58.144531 21.554688 57.816406 21.71875 57.796875 C 22.628906 57.695312 23.515625 57.890625 24.296875 58.273438 C 24.835938 58.535156 25.332031 58.875 25.808594 59.242188 C 26.039062 59.421875 26.269531 59.613281 26.496094 59.804688 C 26.605469 59.902344 26.78125 60.183594 26.960938 60.125 C 27.023438 60.105469 27.074219 60.046875 27.101562 59.980469 " fill-opacity="1" fill-rule="nonzero"/><path fill="#c39d35" d="M 27.144531 64.921875 C 27.238281 64.832031 27.335938 64.757812 27.445312 64.722656 C 27.851562 64.585938 27.304688 65.832031 27.234375 65.96875 C 26.871094 66.695312 26.324219 67.304688 25.554688 67.433594 C 24.960938 67.535156 24.410156 67.332031 23.863281 67.195312 C 23.597656 67.128906 23.332031 67.078125 23.050781 67.070312 C 22.742188 67.0625 22.46875 67.191406 22.160156 67.246094 C 22.082031 67.261719 21.996094 67.265625 21.925781 67.238281 C 21.597656 67.101562 21.640625 66.328125 21.503906 66.015625 C 20.847656 64.507812 19.910156 63.199219 19.410156 61.597656 C 19.347656 61.398438 19.292969 61.191406 19.207031 61.003906 C 19.15625 60.886719 18.914062 60.65625 18.941406 60.523438 C 18.957031 60.460938 18.996094 60.40625 19.039062 60.359375 C 19.664062 59.582031 20.148438 58.871094 21.082031 58.570312 C 21.554688 58.460938 22.011719 58.601562 22.488281 58.519531 C 22.6875 58.484375 22.351562 58.9375 22.300781 59.027344 C 22.164062 59.265625 22.027344 59.5 21.902344 59.746094 C 21.648438 60.253906 21.460938 60.792969 21.417969 61.347656 C 21.34375 62.378906 21.757812 63.105469 22.300781 63.832031 C 22.941406 64.675781 23.507812 65.515625 24.527344 65.875 C 24.789062 65.96875 25.074219 66.042969 25.367188 65.949219 C 25.757812 65.820312 26.207031 65.726562 26.570312 65.484375 C 26.78125 65.347656 26.953125 65.101562 27.144531 64.921875 " fill-opacity="1" fill-rule="nonzero"/><path fill="#c39d35" d="M 17.808594 58.316406 C 18.195312 58.101562 18.628906 57.9375 19.042969 57.929688 C 19.199219 57.925781 19.375 57.949219 19.503906 58.019531 C 19.945312 58.253906 19.3125 58.871094 19.113281 59.148438 C 18.804688 59.574219 18.328125 60.242188 18.417969 60.773438 C 18.449219 60.96875 18.53125 61.144531 18.609375 61.320312 C 19.066406 62.363281 19.34375 63.523438 19.679688 64.628906 C 19.636719 64.484375 18.9375 64.289062 18.796875 64.214844 C 18.457031 64.023438 18.132812 63.796875 17.835938 63.542969 C 16.980469 62.8125 16.121094 61.789062 16.078125 60.484375 C 16.070312 60.289062 16.089844 60.089844 16.070312 59.894531 C 16.03125 59.511719 15.992188 59.261719 16.410156 59.09375 C 16.90625 58.894531 17.335938 58.574219 17.808594 58.316406 " fill-opacity="1" fill-rule="nonzero"/><path fill="#c39d35" d="M 17.621094 63.984375 C 18.015625 64.199219 18.359375 64.578125 18.734375 64.835938 C 19.128906 65.105469 19.605469 65.316406 20.003906 65.605469 C 20.5625 66.007812 20.75 66.636719 21.09375 67.222656 C 21.707031 68.257812 23.160156 68.648438 24.101562 69.292969 C 24.332031 69.453125 23.246094 70.089844 23.085938 70.183594 C 22.746094 70.386719 22.390625 70.507812 22.019531 70.523438 C 21.453125 70.546875 20.914062 70.394531 20.402344 70.203125 C 20.074219 70.082031 19.753906 69.949219 19.441406 69.800781 C 18.796875 69.496094 18.78125 68.796875 18.640625 68.113281 C 18.492188 67.410156 18.269531 66.742188 18.0625 66.066406 C 17.957031 65.71875 17.851562 65.367188 17.765625 65.011719 C 17.707031 64.75 17.519531 64.246094 17.621094 63.984375 " fill-opacity="1" fill-rule="nonzero"/><path fill="#c39d35" d="M 22.730469 68.144531 C 22.445312 68 22.207031 67.804688 22.683594 67.785156 C 23.207031 67.757812 23.71875 67.8125 24.230469 67.871094 C 24.78125 67.933594 25.34375 68.015625 25.917969 67.902344 C 26.28125 67.828125 26.609375 67.617188 26.941406 67.429688 C 27.289062 67.234375 27.6875 67.085938 28.050781 66.898438 C 28.367188 66.730469 28.765625 66.234375 29.089844 66.1875 C 29.632812 66.109375 29.398438 68.660156 29.34375 69.078125 C 29.285156 69.542969 29.144531 70.023438 28.84375 70.394531 C 28.8125 70.429688 28.78125 70.464844 28.738281 70.472656 C 28.585938 70.503906 28.363281 70.324219 28.242188 70.269531 C 27.996094 70.160156 27.742188 70.074219 27.476562 70.015625 C 27.160156 69.945312 26.832031 69.914062 26.515625 69.835938 C 25.277344 69.542969 24.328125 68.632812 23.109375 68.300781 C 23.03125 68.28125 22.875 68.21875 22.730469 68.144531 " fill-opacity="1" fill-rule="nonzero"/><path fill="#c39d35" d="M 30.460938 68.328125 C 30.695312 67.984375 30.871094 67.582031 31.074219 67.226562 C 31.1875 67.03125 31.300781 66.835938 31.449219 66.671875 C 31.644531 66.457031 31.738281 66.332031 31.59375 66.101562 C 31.519531 65.992188 31.480469 65.859375 31.441406 65.730469 C 31.351562 65.441406 31.226562 64.105469 30.746094 64.46875 C 30.324219 64.785156 29.992188 65.242188 29.578125 65.554688 C 29.496094 65.613281 29.402344 65.660156 29.347656 65.742188 C 29.222656 65.929688 29.460938 66.074219 29.523438 66.203125 C 29.617188 66.394531 29.703125 66.585938 29.769531 66.792969 C 29.90625 67.210938 29.980469 67.648438 30.058594 68.085938 C 30.09375 68.273438 30.105469 68.488281 30.171875 68.65625 C 30.222656 68.652344 30.238281 68.621094 30.273438 68.582031 C 30.339844 68.5 30.402344 68.417969 30.460938 68.328125 " fill-opacity="1" fill-rule="nonzero"/><path fill="#c39d35" d="M 24.367188 70.011719 C 24.738281 69.933594 25.089844 69.96875 25.488281 70.066406 C 25.832031 70.152344 26.195312 70.179688 26.546875 70.238281 C 26.960938 70.304688 27.398438 70.371094 27.78125 70.539062 C 28.136719 70.695312 28.070312 71.035156 27.769531 71.300781 C 27.339844 71.675781 26.9375 71.910156 26.65625 72.457031 C 26.601562 72.5625 26.554688 72.671875 26.476562 72.761719 C 26.253906 73.03125 25.992188 72.824219 25.773438 72.730469 C 25.46875 72.605469 25.164062 72.472656 24.863281 72.34375 C 24.257812 72.085938 23.648438 71.832031 23.023438 71.617188 C 22.683594 71.503906 22.136719 71.332031 21.960938 71.035156 C 22.578125 70.816406 23.136719 70.585938 23.726562 70.257812 C 23.953125 70.132812 24.160156 70.054688 24.367188 70.011719 " fill-opacity="1" fill-rule="nonzero"/><path fill="#c39d35" d="M 16.257812 62.285156 C 16.382812 62.414062 16.457031 62.570312 16.542969 62.8125 C 16.839844 63.625 16.992188 64.507812 17.25 65.335938 C 17.429688 65.914062 17.628906 66.484375 17.839844 67.046875 C 17.886719 67.171875 18.347656 68.527344 18.4375 68.523438 C 18.15625 68.53125 17.945312 68.203125 17.777344 68.027344 C 17.503906 67.742188 17.230469 67.457031 16.960938 67.171875 C 16.582031 66.769531 16.222656 66.335938 15.828125 65.949219 C 15.613281 65.738281 15.378906 65.546875 15.152344 65.351562 C 14.960938 65.1875 14.527344 65.007812 14.566406 64.671875 C 14.585938 64.53125 14.6875 64.410156 14.785156 64.300781 C 15.238281 63.789062 16.035156 62.058594 16.257812 62.285156 " fill-opacity="1" fill-rule="nonzero"/><path fill="#c39d35" d="M 5.085938 48.207031 C 5.71875 50.257812 5.917969 52.3125 5.566406 54.535156 C 5.65625 54.519531 5.898438 54.5 5.984375 54.476562 C 6.300781 54.375 6.609375 54.230469 6.835938 53.988281 C 7.21875 53.582031 7.300781 52.984375 7.269531 52.433594 C 7.230469 51.824219 7.078125 51.226562 7.023438 50.617188 C 6.960938 49.878906 7.386719 47.84375 7.839844 47.238281 C 7.839844 47.238281 6.789062 47.984375 5.085938 48.207031 " fill-opacity="1" fill-rule="nonzero"/><path fill="#c39d35" d="M 4.777344 48.492188 C 4.75 48.492188 3.875 48.578125 3.230469 48.492188 C 3.46875 50.605469 3.382812 52.527344 4.183594 53.621094 C 4.457031 53.992188 4.789062 54.226562 5.261719 54.226562 C 5.683594 52.019531 4.910156 49.417969 4.777344 48.492188 " fill-opacity="1" fill-rule="nonzero"/><path fill="#c39d35" d="M 5.382812 46.933594 C 4.957031 47.101562 4.414062 47.265625 4.246094 46.832031 C 4.171875 46.644531 4.25 46.253906 4.332031 46.082031 C 4.347656 46.042969 4.371094 46.007812 4.402344 45.984375 C 4.597656 45.851562 4.980469 45.992188 5.210938 45.917969 C 5.6875 45.761719 5.632812 45.191406 5.148438 45.09375 C 4.78125 45.023438 4.226562 45.164062 3.980469 45.519531 C 3.699219 45.917969 3.84375 46.449219 3.929688 46.898438 C 3.945312 46.984375 3.996094 47.148438 3.949219 47.230469 C 3.738281 47.597656 3.003906 46.539062 2.96875 46.3125 C 2.910156 45.949219 2.933594 45.566406 3.082031 45.226562 C 3.261719 44.8125 3.578125 44.382812 3.996094 44.183594 C 4.980469 43.710938 7.070312 44.457031 6.984375 45.746094 C 6.941406 46.339844 6.246094 46.609375 5.769531 46.78125 C 5.667969 46.816406 5.535156 46.875 5.382812 46.933594 " fill-opacity="1" fill-rule="nonzero"/><path fill="#c39d35" d="M 5.074219 47.410156 C 5.140625 47.371094 5.203125 47.34375 5.261719 47.324219 C 5.421875 47.273438 5.589844 47.25 5.753906 47.203125 C 6.191406 47.070312 6.640625 46.820312 6.949219 46.476562 C 7.214844 46.175781 7.355469 45.769531 7.308594 45.367188 C 7.257812 44.9375 7.003906 44.601562 6.667969 44.34375 C 6.449219 44.167969 6.203125 43.9375 5.953125 43.816406 C 5.847656 43.765625 5.734375 43.742188 5.621094 43.726562 C 5.570312 43.722656 5.515625 43.71875 5.472656 43.695312 C 5.429688 43.671875 5.390625 43.621094 5.402344 43.574219 C 5.414062 43.523438 5.464844 43.496094 5.511719 43.476562 C 6.058594 43.246094 6.742188 43.261719 7.320312 43.339844 C 7.554688 43.371094 7.789062 43.421875 8.023438 43.4375 C 8.128906 43.445312 8.625 43.359375 8.664062 43.4375 C 8.738281 43.574219 8.738281 43.757812 8.777344 43.90625 C 8.824219 44.089844 8.851562 44.277344 8.859375 44.46875 C 8.890625 45.152344 8.703125 45.898438 8.25 46.429688 C 7.6875 47.097656 6.828125 47.386719 6.050781 47.675781 C 5.953125 47.710938 4.816406 47.988281 4.785156 47.867188 C 4.742188 47.675781 4.902344 47.511719 5.074219 47.410156 " fill-opacity="1" fill-rule="nonzero"/><path fill="#c39d35" d="M 4.195312 47.871094 C 4.1875 47.867188 4.183594 47.863281 4.179688 47.859375 C 3.75 47.726562 3.328125 47.480469 2.972656 47.207031 C 2.40625 46.773438 2.183594 46.125 2.378906 45.386719 C 2.550781 44.730469 2.964844 44.21875 3.566406 43.964844 C 3.742188 43.890625 4.933594 43.667969 4.976562 43.546875 C 4.988281 43.515625 4.992188 43.484375 4.988281 43.453125 C 4.972656 43.261719 1.808594 42.652344 1.761719 42.753906 C 1.671875 42.941406 1.667969 43.160156 1.59375 43.355469 C 1.503906 43.582031 1.371094 43.792969 1.273438 44.019531 C 0.835938 45.023438 1.011719 46.296875 1.722656 47.128906 C 2.289062 47.792969 3.160156 48.175781 4.027344 48.246094 C 4.109375 48.25 4.191406 48.253906 4.269531 48.226562 C 4.558594 48.125 4.34375 47.96875 4.195312 47.871094 " fill-opacity="1" fill-rule="nonzero"/><path fill="#c39d35" d="M 46.480469 90.847656 C 44.816406 89.496094 42.984375 88.542969 40.789062 88.039062 C 40.839844 87.964844 40.949219 87.746094 41.003906 87.675781 C 41.210938 87.417969 41.464844 87.1875 41.773438 87.066406 C 42.292969 86.863281 42.878906 87.011719 43.375 87.246094 C 43.929688 87.507812 44.425781 87.875 44.972656 88.152344 C 45.628906 88.488281 47.679688 88.847656 48.410156 88.660156 C 48.410156 88.660156 47.324219 89.355469 46.480469 90.847656 " fill-opacity="1" fill-rule="nonzero"/><path fill="#c39d35" d="M 46.101562 91.03125 C 46.09375 91.054688 45.6875 91.835938 45.527344 92.464844 C 43.65625 91.457031 41.839844 90.816406 41.125 89.667969 C 40.882812 89.273438 40.785156 88.878906 40.964844 88.4375 C 43.171875 88.871094 45.292969 90.558594 46.101562 91.03125 " fill-opacity="1" fill-rule="nonzero"/><path fill="#c39d35" d="M 47.773438 91.050781 C 47.457031 91.382812 47.105469 91.828125 47.445312 92.144531 C 47.589844 92.28125 47.984375 92.355469 48.175781 92.34375 C 48.214844 92.339844 48.257812 92.335938 48.289062 92.3125 C 48.488281 92.183594 48.5 91.777344 48.652344 91.589844 C 48.976562 91.207031 49.484375 91.472656 49.390625 91.953125 C 49.320312 92.324219 48.988281 92.78125 48.5625 92.878906 C 48.089844 92.988281 47.652344 92.660156 47.265625 92.414062 C 47.191406 92.363281 47.058594 92.257812 46.964844 92.269531 C 46.546875 92.328125 47.253906 93.402344 47.449219 93.519531 C 47.765625 93.710938 48.128906 93.832031 48.496094 93.824219 C 48.949219 93.8125 49.464844 93.675781 49.808594 93.363281 C 50.613281 92.628906 50.703125 90.410156 49.476562 90.011719 C 48.910156 89.828125 48.398438 90.371094 48.0625 90.75 C 47.992188 90.828125 47.886719 90.933594 47.773438 91.050781 " fill-opacity="1" fill-rule="nonzero"/><path fill="#c39d35" d="M 47.21875 91.15625 C 47.277344 91.113281 47.328125 91.0625 47.367188 91.019531 C 47.476562 90.886719 47.558594 90.738281 47.664062 90.605469 C 47.949219 90.25 48.351562 89.925781 48.785156 89.769531 C 49.160156 89.632812 49.59375 89.65625 49.945312 89.851562 C 50.324219 90.058594 50.542969 90.417969 50.660156 90.824219 C 50.738281 91.09375 50.863281 91.40625 50.882812 91.6875 C 50.886719 91.800781 50.867188 91.917969 50.835938 92.027344 C 50.824219 92.078125 50.808594 92.125 50.8125 92.175781 C 50.816406 92.226562 50.851562 92.277344 50.902344 92.285156 C 50.949219 92.292969 50.996094 92.257812 51.03125 92.222656 C 51.449219 91.800781 51.691406 91.160156 51.832031 90.597656 C 51.890625 90.367188 51.933594 90.132812 52.003906 89.90625 C 52.035156 89.804688 52.300781 89.378906 52.246094 89.3125 C 52.144531 89.195312 51.972656 89.125 51.851562 89.03125 C 51.699219 88.921875 51.53125 88.824219 51.359375 88.746094 C 50.738281 88.460938 49.976562 88.355469 49.3125 88.578125 C 48.484375 88.851562 47.894531 89.542969 47.335938 90.15625 C 47.265625 90.230469 46.585938 91.183594 46.6875 91.253906 C 46.847656 91.367188 47.0625 91.277344 47.21875 91.15625 " fill-opacity="1" fill-rule="nonzero"/><path fill="#c39d35" d="M 46.460938 91.804688 C 46.464844 91.808594 46.464844 91.816406 46.464844 91.820312 C 46.429688 92.265625 46.5 92.753906 46.621094 93.183594 C 46.8125 93.871094 47.332031 94.320312 48.089844 94.414062 C 48.761719 94.5 49.390625 94.308594 49.847656 93.84375 C 49.984375 93.707031 50.636719 92.6875 50.765625 92.691406 C 50.796875 92.691406 50.828125 92.699219 50.855469 92.714844 C 51.027344 92.800781 50.414062 95.964844 50.300781 95.96875 C 50.09375 95.984375 49.890625 95.90625 49.679688 95.902344 C 49.433594 95.898438 49.1875 95.941406 48.941406 95.949219 C 47.851562 95.980469 46.734375 95.34375 46.226562 94.375 C 45.820312 93.597656 45.792969 92.648438 46.050781 91.820312 C 46.078125 91.742188 46.105469 91.660156 46.160156 91.601562 C 46.363281 91.367188 46.425781 91.625 46.460938 91.804688 " fill-opacity="1" fill-rule="nonzero"/></svg>