<svg xmlns="http://www.w3.org/2000/svg" width="128" height="128" version="1.0" viewBox="0 0 96 96"><defs><clipPath id="a"><path d="M0 0h91v96H0Zm0 0"/></clipPath></defs><g clip-path="url(#a)"><path fill="#c39d35" d="M1 12H0h1v-1c0-1 0 0 0 0v-1H0h2V9a19 19 0 0 0-1 0h1V7h1L2 6l1 1V6H2h1V5H2l1 1V4v1c1 0 1 0 0 0V3v1h1V3v1-2 1-2L3 0l1 1V0v1-1 1l1-1v3-1a10 10 0 0 1 0-2v2l1-2-1 1v1l1-1V0v1-1h2v1-1 1H7s0-1 0 0v1-1L6 2V1s0 1 0 0v1L5 3l1-1-1 1v1-1 1H4L3 6l1-1v1-1 1l1-1V4h1v1-2 1h1V3v1-1c1 0 0 0 0 0h1V2h1V1v1-1h1s-1 0 0 0h1V0h1c0 1 0 1 0 0v1-1h1v1-1h1l-1 1h-1v1-1h-1l1 1h-1v1h-1v1H9l1 1H9v1H8v1H7v1H6v1H5v1h1V9h1V8v1-1h1V6v1h1c0-1 0-1 0 0V6h1V4h1V3h1V2v1-2 1h1V1h1v1-1h1c0 1 0 0 0 0h1l-1-1s0 1 0 0h1v1h1-1 1c-1 0-1 0 0 0v1-1h1-1v1l1-1v1h1V0v1l1 1V1l1-1h1-1 1-1v1h1-1v1h1-1s-1 0 0 0v1h-1 2-1v2h1-1v2h1v1h1V7h-1 1-1 1-1 1V6h-1 1V5h-1 2-1 1V4l1 1-1-1h1-1 1V3h-1 1V2h-1a66 66 0 0 0 1 0h-1 1V1h-1 1v1-2 1-1h1v1h-1 1-1 1l-1 1h1-1 1-1v1h1-1v1h1-1 1-1 1a14 14 0 0 0-1 0v1h1-1 1a7 7 0 0 1 1 1V5l1 1V5h-1 1-1 1l-1-1h1s-1 0 0 0h-1 1V3h-1 1-1 1l-1-1 1 1V2h-1 1V1v1h1l-1-1h1V0v1h1l-1-1 1 1V0v1-1h1-1 4v1-1h1l-1 1h1V0v1h3l1 1h1v3l1-1h-1V2s0 1 0 0h1-1l1-1h-1 1-1 1V0h-1 1v3a18 18 0 0 1 0 1 9 9 0 0 1-1 1h1V4l1-2V0v1h3a14 14 0 0 1 3 0h-2l-3-1h-1 5l6 1h2V0h3-2 1l5 1 1-1h4l1 1h3V0h-1 3l-2 1h-4V0h-1l-2 1h-1 6l3 1 2-1 1-1v1-1 1h-1v1h1V1h1-1 2l1-1-1 1h1-2v1h1-3 4l-1-1h2-1 1l1-1v1a6 6 0 0 1-4 2l-3-1h-2 1l2 1h8l3 1 2 3v2h-1a13 13 0 0 1-7-4l-1-1-2-1h-1l1 1a22 22 0 0 1 5 3l1 1 1 1 3 1 3 2c1 1 2 3 1 5a12 12 0 0 1 0 3h-1l-4-4-2-3-1 2-1 2h-1l-2-4 1-3V9h1V8l-1-2-2-1-6-3v1l1 1h1l3 2a7 7 0 0 1 1 6v1l-2-1-2-3V5l-1-2-3-1-2-1a48 48 0 0 0-6 0h-3l3 1h4c2 1 4 2 5 5l1 1 1 3v1h-2a10 10 0 0 1-4-1l-2-2-2-3V4l-1-1-1-1-1-1h-5 2l2 1 2 3 1 2v2a3 3 0 0 0 0 1v1-1h-2l-2-2-1-3-1-2V2l-1-1h-6 1l2 1a7 7 0 0 0 2 1h-1v1l3 3v3h1l2 2a5 5 0 0 0 2 0h-1l-3 2-2 1a47 47 0 0 1-1 1h-1l-1-1h-1l-2-2-1-2-1-1-1-1 2 6 1 1 1 1h4c2 0 3 1 3 2l1 1v1l1 2v1h-1l-4-1-2-1a5 5 0 0 1-2-4l-1-1v-1 2l1 1v2l2 4v3l-1 2-1 2v1l-2-4-1-3v-2l1-2v-1l1-2v-2l-1-3-1 1 1 1v2l-1 3-2 1-2 2-1 1a6 6 0 0 0-1 1v-6l1-2c0-1 1-2 3-2l1-1h1v-3l-1-2-1-1a23 23 0 0 1 0 2l-1 2-2 2a12 12 0 0 1-2 0v2l-1 2h-2l-1 1h1c0-1 0-1 0 0h1-1c0 1 0 1 0 0h-2l2 2v1h1v1h-1v-1l-1-1-1-2h-1a63 63 0 0 1 2 7h1v1h-1v-3h-1v-1 1a7 7 0 0 0 0 1v1h-1l1-1v-3l-1-2v4l-1 1v1l1 1v1l-1-1v-3l1-3v-3h-2v1h1v1h-1v1a7 7 0 0 1-3 3l-2 1s0-1 0 0l1 2v5a17 17 0 0 0 0 3h-1l-1-1h-1l-1 1h-1 3l1 1h-3 2v1h-1l-3-1-3-1 2 2h1l2 1h1-2 1v1l-2-2h-2l1 1 1 1 2 1-2-1 1 2a17 17 0 0 0 1 1l-2-2-1-2-1-1-2-3-3-2 1 2 1 3 1 1v1a10 10 0 0 1 1 1 7 7 0 0 0 2 1h-2v1l-4 1-2-1-3-1-1-1H6l1 1 3 1v1h6l1 1v2h1l2 2 1 1v6l-1 2-1-1a91 91 0 0 0-1-1l-1 1 1 4v1l-1 1-1 1h-1v1h1a13 13 0 0 1 4 0l3 2 1 2 1 2h-6l-2-1 1 2v1h-3l-1-1v1h-2l-1-1v3-1H9l-2-2v-1H6v1a28 28 0 0 1 0 3l1 1a4 4 0 0 0 1-1h6l2 1 1 2h1-2l-1 1-2 1H9c-2-1-2-2-2-3l-1-2v4l1 1 1 2 1 1 4 5a21 21 0 0 1 1 8l-2-2-2-1-3-5-1-5v-6l-1-1v7a24 24 0 0 1-2 3l-2 2v-5l1-2 3-4v-4 1H3l-3 3 3-3H2h1v-1H2l-1 1v-1h1v-1l-1-1H0v1-1l1-1-1 1h1v1l1-1H1v1h2-1v1h2-1v1h1v-1 1l1-1 1-2v-1a9 9 0 0 1-1 1v-1h1-1v-1 1-1a4 4 0 0 1 0 1v-2l-1 1v-1c1 0 1 0 0 0v1-1H3c1 0 1 0 0 0h1-1v-1 1H2h1v-1H2v-1 1-1c0-1 0 0 0 0v-2 1l-2 1 1-2-1 1 1-1H0h1-1 3l-1 1v1a2 2 0 0 0 1 1h1v1l1 1h1c0 1 0 1 0 0v1h1v-1 1h2v-2l-1-1v-1 1s0-1 0 0c-1 0 0 0 0 0H7v1-1 1-1H6v-1 1-1l-1 1v-2H4v-1 1-1H3v-1s0 1 0 0l-1 1 1-1H2v-1l-1 1 1-1H1s0 1 0 0H0h1v-1l-1 1v-1h1-1v-1l1 1-1-2v-1 1l1 1v2-1h1l-1-1h1-1 1l-1-1h1-1 1-1 1l-1-1h1-1c0-1 0 0 0 0v-6 1-2h1v1c-1 0-1 0 0 0v-3l-1 1v1H0h1-1v1-2h1v-2H0v2-2h1v1-1l-1-1 1 1v1-1l-1-1h1v1h1l-1-1 1 1v-1 1-2h1v-1H2v-1H0h1v1l-1-1h1v-1l-1-1v-2 1l1 1v1c0-1 0 0 0 0a10 10 0 0 0 2 1v-1l1 2 1 1h1v-1 1l-1-2v-2H4h1l-1-1-1-1-1-1-1-1-1-1h1a21 21 0 0 1 3 4l1 2a29 29 0 0 0 1 2v-1 1l1 1h1l1-1v1H7v1h1v1-1H6h1-1v1s0-1 0 0H5l1 1H5c0-1 0-1 0 0H4v2H3v2h1v-2 1l1-1-1 1v1s0-1 0 0v1-1h1v-1 1-1h1v-1 1-1h1v-1 1-1h1v1s0-1 0 0l1-1v1-1 1h1v-1l-1-1v-1 1l-1-1v1H7v1-1 1H5v1-1h1v-1 1l1-1a12 12 0 0 0 1-1v-1h1v-1 1a4 4 0 0 1-1 1h1v-1 1l1-1v-3H7v-1l-1 1 1-1h1a20 20 0 0 0 1 1v-1l-2-1a101 101 0 0 1-7-6v-1h4l1-1a6 6 0 0 1 1-1v-3l-1 1H4l-2 1a6 6 0 0 1-2 1v-1h2v-1h2l1-1v-1h1l-3 1H2a11 11 0 0 1-2 1h1v1l-1-1 1-1v-1 1h1l1-1v1a13 13 0 0 1 4-1v-1a2 2 0 0 0-1 0H4h1v-1H3s0 1 0 0l-1 1 1-1H1v1c0-1 0 0 0 0H0v1-2h1-1 3a7 7 0 0 1 3 1h1l1-4v1-2 1a11 11 0 0 1-1 2v-2H6v1l-1 1H4a11 11 0 0 0 2-1v-1 1-1H5a4 4 0 0 1-1 1h1v-1l-1 1v-1h1-1 1-2v1H2v1a6 6 0 0 1-1 0l3-3H3h1-1 1v-1H3v1H2l1-1 1-1H3v1a28 28 0 0 1 0-1v-1 1H2l1-1v-1H2v1H1h1v-1H1l1-1-1 1H0v-1l1-2 1-1v-1 1H1v1a16 16 0 0 0 0-1l-1 1 1-1H0h1-1v-1h1-1 1-1 1-1l1-1H0h1-1 1v-1Zm86-4-1-1c0-1 0 0 0 0V6l-1-1h-1 1c1 0 0 0 0 0V4h-1a5 5 0 0 0-2 0h1-1V3h-4l2 1h1-1 3v1h-1 2v1h1-1 1v1h1l1 1Zm-9-4 1 1 2 1h1-1 1l1 1 1 1V7a5 5 0 0 0 0 1 2 2 0 0 0 1 0h1-1 2l-2-2h-1v1-1l-1-1h-1 1v1h-1V5l-1-1v1l-1-1h-1l1 1-1-1h-1Zm12 16v-1l-1-1v-1l1 1a26 26 0 0 1 0 1v-3l-2-2h1l1 2v-2h-1 1l-1-1-1-1h-1 1l1 1v-1h-1v-1h-1l-2-1-2-1 1 1h1-1l1 1h1-1a55 55 0 0 0 1 1h-1 1l1 1h1l-2-1v1l1 1h1v1a9 9 0 0 0-1-1l1 1v1h1-1l1 1v1l1 2Zm-7-9v1-1 3h1v1-1 1l1-1v-1 3-1 1l1 1v-1l1-1v3-1 1h1v1l1 1v-1l-1-2v-1 1-2h-1v-1 2-1l-1-2v2-3l-1-1v1h-1v-2h-1l1 1-1-1V9h-1v1l1 1Zm-3 5 1 1v-2 1-2 1h1v-2a11 11 0 0 0-1-1l1 1v1-1h1l-1-1-1-1 1 1h1l-2-3h-1 1v1-1h-1l1 2a49 49 0 0 0-1 1v4Zm-1-6v2-1 4l1 1v-6h-1 1V9l-1 1Zm0-4 1 2a4 4 0 0 1 2 2V9l-1-2a10 10 0 0 0-2-1Zm-2 7v-1h-1v-1 1h1v-2l-1-1v1h1l-1-1V7h-1c1 0 0 0 0 0V6h-1 1l-2-2v1l1 1v1l1 1h-1l1 1h1-1v1l1 2 1 1Zm-4-8v2a20 20 0 0 0 0 1v2h1V9v2l1 1v-1 1l1 1v-1a7 7 0 0 1-1-2h-1V8v1-2h-1V5ZM61 3l1 2 1 1v1a10 10 0 0 0 1 2V8l2 3h1-1V9l-1-1V7l1 1v2l1 1h1l-1-1v1h3-1l-1-1 2 1h1-1a53 53 0 0 1 2 0h-1v-1h-1 1l-1-2-1-1h-1 2l-1-1h1l-1-1h-1l-2-1 1 1h2l-1-1-3-1-3-1v1h3-2v1h3v1l-1-1h-1v1h1l1 1a8 8 0 0 0 1 1h-1l2 1 1 1h-1 1l1 1 1 1-2-1-2-2V7v1h-1V6l-2-1v1-2h-1v2-2l-1-1h-1Zm0 7V9h-1V8v1h1V8l-1-1V4l-1-1h-1 1v1c1 0 1 0 0 0V3l-3-1h1v1h1-1 1v2h1v1-1 1l1 1v3h1Zm-5-7v1l1 3V5a7 7 0 0 0 0 3V7l1 1V6v3h1l1 1h1-1V8v1h-1V6l-1 1 1-1-1-1c-1 0-1 0 0 0V4h-1V3v2-1c0-1 0-1 0 0l-1-1-1-1 1 1Zm-7 16 2 2a7 7 0 0 0 2 2 7 7 0 0 1-1-1l2 1h2a13 13 0 0 1-3-1h1a12 12 0 0 0 3 1l-1-1h-1v-1 1h1a13 13 0 0 0 2 1l-4-3h-1 1a42 42 0 0 1 3 2v1-1h-1 1l-2-1v-1l2 1v1-1h-1 1l-1-1-1-1c0-1 0 0 0 0a10 10 0 0 1 1 0v-1a5 5 0 0 0-4-1h-1l1 1h1-1l-1-1h-1a104 104 0 0 1-1 0l2 1h1v1-1h-2l-1-1v1h1a23 23 0 0 0 2 2l-1-1-1-1h-1l1 1a69 69 0 0 0-1-1v1-1 1Zm-1 1v3l-1 1v-2l1-1h-1v3a53 53 0 0 1 0-2v1l-1 4 1 4h1v-2 2-3 2a38 38 0 0 0 0 1v1h1v-3 2l1-1v-3a9 9 0 0 1 0 3l1-3-1-4v-1a8 8 0 0 1 0 2v-1a11 11 0 0 0-1-2v-1l1 4-1-1v-3 3-1a15 15 0 0 0-1-2l1 4h-1v-1a45 45 0 0 0 0-2v1-2Zm-2-3v-1a16 16 0 0 1-1 3v-1a18 18 0 0 0 1-2l-1 2h-1 1v-1l1-1h-1 1l-2 2v-1l1-1a20 20 0 0 0-2 2 14 14 0 0 1 2-2v-1l-2 1-3 4v2l1-1h-1v1h1v-1l-1 1v2-1a7 7 0 0 1 1-1l-1 1v2l1-3a24 24 0 0 1 1-1h1-1l-1 2-1 2v1-1h1a8 8 0 0 1 0-2h1a24 24 0 0 1 0-1v1l-1 2 1-1 2-1 1-2 1-3v-1Zm-10 3Zm1 4v-1h-1l1 1Zm-1 4v-1 1Zm-2-1Zm-1 1h-1 1Zm-2-7h1-1ZM9 78H7h1l1 1 2 1h-1l-2-1 2 1h2a12 12 0 0 0 3-1l1-1h-1a57 57 0 0 1-1 1l1-1h1-2 3-1v-1h1-2 2-2v-1h1v1-1h-1l-1-1h-4v1H8h3-3 1l1 1a39 39 0 0 1-1 0l-1-1H7h1v1l-1-1v1h4-3 1l1 1H9l-1-1 2 1h1-1a5 5 0 0 1-2 0l-1-1a5 5 0 0 0 1 1h1c0 1 0 1 0 0Zm-3 6 1 3 3 5 2 2 1 1-1-1-1-1v-1 1l1 1h1l-1-1a107 107 0 0 1 1 2v-1l-1-1v-1a11 11 0 0 1 2 2h-1v-1l-1-2 1 1 1 2-1-3v1-3l-3-5v-1H9l1 2v-1a17 17 0 0 0-2-2l1 2-2-3 1 1v1-1l-1-1 1 3-1-2 1 3 1 2 1 2 1 1h-1v-1a31 31 0 0 1-3-5l1 3v1-1a26 26 0 0 1-1-4v3-1a72 72 0 0 1-1-2v1Zm-1-5a10 10 0 0 1-1 2l1-1v-2 1-1l-1 1v2l-1 1 1-2v-1 1-1l1-1-1 1v-1 1H3v2H2s1 0 0 0v3-1 1l-1 1 1-1v1l-1 1h1v-2 2l1-2v1l-1 1 1-1-1 1 1-1 2-3v-3Zm-1 0ZM2 68Zm4-21Zm8-2-1-1v1-1l-1 1v-1h1-1v1-1h-1v1h3Zm0 0v-1 1Zm0 0v-1 1Zm1 0v1-1Zm2 0h-2v1h2v-1Zm0 0v1-1 2-2Zm1 11v-1l1 1v1h1v-1 1l1-1v-3 1-3a3 3 0 0 0-2-2h1l-1-1h-2 1v-1h-2l-1-1a15 15 0 0 1 1 0h-1a9 9 0 0 0-3-1l1 1h1v1l1 1h2-1l1 1 1 1h1v1l-1-1h-1l1 1a12 12 0 0 1 1 2v1l-1-2v1-1l-1-1v-1 1l-1-1v-1l-1-1v1a3 3 0 0 1 0 1 382 382 0 0 1-2-3l-1-1v-1 2l2 2v3-1l1-1v3h1v1-1a32 32 0 0 0 0-1v2h1v1h1-1v-1h1v2Zm-4-2v2l1-1v1h-1 1-1 2l1-1-3-3v2Zm-1 1v1l1-1v-1l-1 1Zm-1 1 1-1h-1 1-1v-1h-1l-1 1v-1H8s1 0 0 0l1 1a9 9 0 0 1 1 0H8h2a126 126 0 0 1-1 0H8v1h1-1c0 1 0 0 0 0v6l1-2v-1l-1 1 1-1v-3h2v-1 1h1v1h-1 1v1-1h-1l-1 1h2v3-1h1v-2h1l-1-1h1-1 1-1 1-1v-1h-1Zm-3 6H8h1Zm0 0 2 1v-1h-1l-1-1H8l1 1H8h1-1 1Zm2 1v-1l-1-1-1-1v-1a3 3 0 0 0 0-1v3h1l1 2Zm1-1-1-1h-1l1 1h1Zm-2-4v1h1v-1h-1Zm1 1h1-1 1-1Zm-1-1v-1h1v-1c1 0 0 0 0 0H9v1h1v1Zm0-2Zm3 4v-1l1-1v-2h-1l1 1v1h-1l1 1h-1v1Zm0-5Zm4 1v-1 1Zm1 0v-1h-1v1h1Zm-1 2v-1h-1v-1h-1v1h2v1Zm0 1v-2h-3v1l1-1-1 1a24 24 0 0 0 1 0h-1 1-1 1l-1 1h1-1l-1 1h1-1l-1 1v-1h-1v-1h-1v-2H9v1-1 1s1 0 0 0l1 1c-1 0 0 0 0 0H9h1c-1 0 0 0 0 0v1H9h1v1h2a34 34 0 0 1-1 0h3a30 30 0 0 0 1-1v-1 2h-3c0 1 0 0 0 0h-2 2l1 1h2v-1h2v-1h-1 1v-1Zm-2 5v-1 1h1v-1 1-1h1-1 1v-2h1-1 1v-2l-1 1v1h-1v1h-4 1-2l1 1h-1 1-3 1-2 1c-1 0-1 0 0 0v1l1 1h3l-1-1h1v1-1 1h1c0-1 0 0 0 0v-1 1l1-1h-1 1Zm-4 3h2v1-1 1h1v-1 1h1l1-1v1-1l-1-1v-1c-1 0-1 0 0 0h-1v1-1 1-1h-1 1v1l-1-1v1a10 10 0 0 0 0-1h-1v1-1 1-1h-1v1-1h-1v1-1 1-1 1l-1-1 1 1v1h1Zm6 3h2v-1 1h1a8 8 0 0 0 1 0l-1-1 1 1h1l2 1v-1h-1 1v-1h-1v-1h1-1l-1-1h1l-2-1-2-1h-1a4 4 0 0 0-1 0h-1v1h1v1s-1 0 0 0h2a33 33 0 0 0 1-1l-2 1h1a10 10 0 0 1 2 1h-1 1-1l-2-1v1l-1-1v3Zm0-1v1-1Zm-3 3h1v-1 1l1 1h1v-1l1 1-1-1h1l-1-1c1 0 0 0 0 0v-1h-1l-1 1-1 1Zm-8-2v1h1-1 1l-1-1Zm2 0H7c0 2 2 3 3 4l-1-1 1 1-1-1v-1l-1-1 1 1 1 1-1-1h1v1c1 0 0 0 0 0h1v-1h-1l-1-2H8Zm1 0v1-1l1 1 1 1v-1h-1v-1 1l1 1v-1 1h1v1h1v-1 1-2 2h1v-1 1-2 1-1a71 71 0 0 0 1 0v-1 1l1-1v-1h1v-1a11 11 0 0 0-2-3l1 1v2h-1v1l-1-1v1-1h-2l1 1a55 55 0 0 0-1-1v1-1c-1 0 0 0 0 0h-1v1-1a34 34 0 0 1-1-1v1-1 2-1H9v2Zm-1-4h1-1 1v1H8h1c-1 0 0 0 0 0-1 0 0 0 0 0v1s1 0 0 0h1v-1H9v-2H8l1-1H8v-5l-1 1h1v2H7l1 1v3Zm-1-3H6l1 1v1l1 1v-2l-1-1v-2 2c-1 0-1 0 0 0-1 0 0 0 0 0Zm0 3h1-1ZM1 54v2l1 2v3h1a44 44 0 0 1-1 1v-1 1h1-1 1-1 1c0 1 0 0 0 0l-1 1h2l-1 1h1l1 1v-1H4v-3l-1-1v-1l-1-3-1-1h1l-1-1Zm1 0v-1H1l1 1v1H1h1v2h1-1v1h1-1 1-1 1v2h1v1l1 1v1H4l1 1c0 1 0 1 0 0v1l1 1 1 1v-2H6h1v-1H6v-2H5h1-1v-2H4v-2H3h1l-1-1c1 0 0 0 0 0a32 32 0 0 0 0-1v-1l-1-1Zm3 6-1-2v-1 1l1 2ZM1 49v1-1Zm5-2v-1 1Zm-2 2Zm0 0v-1 1l1-1v-1 2-2 1-1 1-1 1h1v-2H5l-2-1v1l1 1v2Zm-1 1h1v-1 1-1a15 15 0 0 0-1-2l1 2v-1 1-2l-1-1H2v2h1-1v1H1v1l1-1h1a2 2 0 0 1 0 1Zm1 5v-1H3v-5H2v1h1-1s1 0 0 0v1h1l-1 1h1-1v1h1v-1 1l-1 1h1v2h1v2c1 0 1 0 0 0h1c-1 0-1 0 0 0v2l1 1v2-4H5a14 14 0 0 0 0-1v-1H4h1-1 1l-1-1v-1Zm4-4v-1l-1 1h1v1-1H7v1-1H6v1H5v1h1c0-1 0-1 0 0v-1h1-1 1l-1 1H5h1-1v1H4h1-1 2-2 1l-1 1h1-1 1-1 1-1l1 1h1a3 3 0 0 1-1 0v1h1-1v1h1c-1 0 0 0 0 0v4-1l1-1v-1a9 9 0 0 1 0-1v-3h1-1l1-1v-2 4l-1 1v4l-1 2 1-1v-3c1 0 1 0 0 0h1v-2a32 32 0 0 0 0-2v-4Zm1 1v-1H8v1c0 1 0 1 0 0l1 1H8c0 1 0 1 0 0h1v1-1 1l1-1-1 1h1v-1 1h2l-1-1-1-2-1 1Zm1-5v2-1 3h1-1v1h1v1l1 1 1 1v-1l1-1h-1 1v-2l-1-1h1a3 3 0 0 0-1-2h-1 1a15 15 0 0 0-2-2v1h1-1l1 1v2l1 1-1-1v2-1a10 10 0 0 0 0-2 8 8 0 0 0-1-1v-2 1-1h-1v1Zm2-1-1-1-1-1 2 2Zm-2-2h1-1ZM3 7v1-1l1-1-1 1Zm4-3L6 5H5v1H4l1 1V6H4v1H3v1h1V7h1V6h1V5l1-1Zm-2 6v1H4h2v-1h2V9v1l1-1h1l1-1h2s-1 0 0 0h1l1-1h2V6l-2 1h-3v1h-2L9 9H7v1H5Zm-1 2H3v2-1h1v-1 1-1l2-1H4v1Zm1 6v-1 1h1v2l1-1v1s-1 0 0 0v1-1 1-1 1h1v-1a3 3 0 0 0 0 1v1-1 1h1v-1 2h1v-1 1-1h1v1h1-1 1v1-1 1l1-1v1-1 1l1-1v1-1s0 1 0 0h2v-1h1v-1l-1-1v1s1 0 0 0v1h-3v-1h-1v-1 1l-1-1-1-1v1-1H9h1v1l-1-1v1-2H8l1 1-1-1v2-2H7v-1H6v-2H5v-1 1a29 29 0 0 1 1 2l-1-1v-1 3Zm4 9v-1 1-1 1Zm0 0H8h1Zm0-1v-2 2Zm0-3v1-1Zm7 7v-4h-2a36 36 0 0 0 1 3l1 1Zm0 0v1-1Zm2 1 1 1-1-1v-1l1 1v1-1h1v1-1a16 16 0 0 1-2-3v-1h-1l1 1v1l-1-1v-1 1-1h-1l2 4Zm-1-1v1h1a7 7 0 0 1-1-1Zm3 0v1-4l-1-2v1a6 6 0 0 0-1-1s1 0 0 0l1 1v1-1h-1l2 5v-1Zm-1-6c1 0 0 0 0 0h1v-1h-1 1v1h1l-1-1 1 1-1-1h1v1-1h1-1 1v-3 1h1v-1h-1 1-1 1l-1-1h1l-1-1 1 1v-3s0 1 0 0v-1 1-3l-1 1h1-1v3a23 23 0 0 0 0 1v1h-1v2-1h-1l1 1h-2l1 1a7 7 0 0 0-1-1h-2 1v1-1h-1l1 1h-1v1-1 1-1 1h-2 1-1l3 1h1Zm1 0v1h3l-1-1h-2Zm3-11h1-1 1v1-1 2h1l1 1v-1h-1v-1c0 1 0 0 0 0v-1h1v-1 1h-1l1-1h-1v-2h-1 1-1 1-1V9h-1 1-2v2h1-1l1 1h-1 1v1Zm0 1 1 1-1-1v1h1c0 1 0 0 0 0h-1l1 1h-1l1 1-1-1v1h1-1 1-1l1 1h-1c1 0 0 0 0 0h1-1v1a117 117 0 0 0 1 0v-1h1c0 1 0 1 0 0h1-1 1l-1-1h1v1-1l1 1v-1h-1 1l-2-1a10 10 0 0 0 2 1c0-1 0-1 0 0h1v-1h-1l-2-1v1-1h-1v-1h-1Zm5 2h1v1h2l1-1h-3v-1h-2 1v-1h-1l-1-1v2h1-1l1 1v-1 1h1Zm0 1Zm4-2h1v-1l1 1v-1h1v-1c0 1 0 1 0 0h1v-1h1v-1l-1 1h-2l-1 1v-1 1l-1-1 1 1h-1c0-1 0-1 0 0v-1 1-1 1h-1v1l-2 1-1-1v1h2c0 1 0 0 0 0h2Zm4-1c1 0 0 0 0 0v-1 1h1v-1h1-1 1v-1 1-1h1v-1c1 0 0 0 0 0h1V9l-1 1-1 1v1h-1l-1 1-1 1h-1l-1 1h2v-1h1s-1 0 0 0Zm0 1h-2v1-1h-1v1s0-1 0 0h-1 3l1-1Zm-4-7v1h2l1-1h-1V7v1h1l-1-1h1v1h-1 1V7h-1V6v1h-1 1-2v1Zm3 2h-2 2Zm-1 0h2V9h1V6h-1l1 1s-1 0 0 0v1h-1v1-5h-1V3h-2V2v1-1h-2v1h1v1h1V3l1 1 1 1-1-1h-1 1v1h1v3h1V7l-1-1V5v1h1c-1 0-1 0 0 0v3h-1v1h-2 1Zm-2-5h-1 1-1v1h-1 1-1 1-1v1h-1 1-1v1h1l1-1 1-1-1 1-1 1h-1v2-1l1-1 2-2h3-2l1-1a10 10 0 0 0-1 0h-1 1-1Zm-1-1Zm-1-1-1 3v1-1h1V3Zm0 2h1V4a82 82 0 0 0-1-1v2Zm-2 7h-1v-2h-1v3h1v1-1h1v1h1-1 3v-1l-1-1v1-1h-1s0-1 0 0v-1h-1v1Zm6-6h1-1Zm0 0h-1 1Zm-1 0-1 1 1-1Zm-1-2Zm3 3V6v1Zm-2 3 1-1-1 1h1V9h1V8l-1 1h-1v1Zm1-2Zm-2-1-1 1h-1 1-1v1h1-1 1-1v1l1 1V7h1Zm-1 1v3-1c1 0 1 0 0 0l1-1V7l-1 1Zm0 3-1-1V9h-1v1-1s1 0 0 0h1-1v2h1l1 1h5l1-1h-1l-1 1-1-1v1-1h-3Zm-3 5h-1 1Zm-6-7v1-1Zm0 4v1l1-1v-1h-1v1Zm0-1v-1c0 1 0 0 0 0h-1 1-1 1v-1h-1 1-1 1-1 1l-1-1V8h-1 1V7h-1V6h-1 1l-1-1v1-1h-1 1-1V4v1a14 14 0 0 1-1 0l1-1h-2l-1 1V4h1-1v1-1l-1 1-2 1h1-1 1v1l1-1-1 1 2-1V5l-1 2V6h2-1 2-1 1v1h1-1 2v1h-1 1-1 1-1l1 1h1-1l1 1h-1s0-1 0 0h1-1v1h1-1v1h1-2 1-1 1-1l1 1h1a10 10 0 0 0-2 0h1-1l1 1-1-1v1h-1 1v1l-1-1v1c0-1 0-1 0 0h1-1l1 1-1-1h-1l1 1-1-1 1 1h-1 1c0 1 0 1 0 0h-2l1 1-1-1v1h-1 1l2 1-2-1h-1 1-1l1 1-1-1 1 1 1 2h2-1v-1 1a111 111 0 0 1 2 0v1l-1-2v1a12 12 0 0 1 1 0h1l-1-1 1 1h1l-1-1 1 1-1-2v1h1l-1-1 1 1v-1 1-1h1-1 1v-1h-1 1l-1-1h1-1 1v-1h-1 1-1v-1h1-1v-1h-1 2-1 1l-1-1h1-1 1Zm-9-4c0 1 0 0 0 0v1h1-1 1v1l1 1V9h-1 1-1V8h-1Zm1 3h-1v-1l1 1h-1l1 2h1l-1-1h1v1-2l-1-1h-1l1 1Zm-1 0v-1h-1v1h1-1v1h1v1a1 1 0 0 0 1 0l-1-1c1 0 1 0 0 0 0 0 1 0 0 0v-1Zm0-1Zm-3 1H9v1H8h1-1l-1 1h1-2 1-1 1v1H6h1v1l-1-1v1h1-1 1-1v1h1-1 1v-1c1 0 1 0 0 0h1v-1H7h1-1 1v-1l1-1 1-1h1v-1h-1v1Zm-3 7v-2l1-1-1 1v2Zm1-1h1-1 1v1h1v1-2H9v-3H8h1-1v3Zm0 1Zm2 1 1 1v-1 1h1v1l1-1-1 1h2v1-1 1-1 1h1v-1 1-1 1-1h1l-1-1 1 1v-1 1-1l-1-1v-1h-3a6 6 0 0 1 2 0c0 1 0 0 0 0h-1l1 1-1 1v-1h-2v-1h-1 1v1a12 12 0 0 1-1-1v-1 2Zm0 0Zm3-1v-1h-1l1 1Zm-1-1h1v-1h1v-1h1v-2c1 0 0 0 0 0h1v-2h-1v2h-1l1 1h-1s1 0 0 0h1-1v1h-1v1c0-1 0 0 0 0h-1v-1 1h-1 1-2v-3h1-1 1v-1c1 0 1 0 0 0v-1h1-1v1h-1l-1 1h1-1 1-1 1-1v2l1 2h1v1a37 37 0 0 0-1-2v-1 2h1l1 1v1h1v-1h-1 1v1h-1v-1h-1v-1l-1-1 2 1Zm1-4v1h-1 1v1h-1 2v-2h-1Zm-2 0v1h1-1 1-1v1s1 0 0 0h1v-2l-1-1 1 1h-1Zm0 2v-2 2Zm0 0h-1l1 1v-1Zm1 0h-1 2v-1l-1 1Zm-1-4-1 1H9l-1 2 1-1v-1h1v-1h1Zm-2 2v2a10 10 0 0 1 0-2Zm0 3v1-1Zm0 0Zm3 3v-1h-2 1a6 6 0 0 1 1 1Zm-1-9v1l1-1h-1Zm1 2v1h1l-1-1v1-1Zm2-4h1-1 2-1v1l1-1 1 1h-1a3 3 0 0 0-1 0h1-1 1v1h1-2 1-1 1-1 1v1h-1 2-2 2-1v1h1-1l1 1h-1 1-1v1c0-1 0 0 0 0h-1v1l-1 1h-1v1h-2 3v-1h1s0-1 0 0h1v-1h1v-1a11 11 0 0 1 0-1h1v-3c0-1 0 0 0 0V8h-1 1-1V7l-2 1h-1Zm0 16 1 1h1v-1h-2Zm0 0v1-1Zm1 1 1 1v-1h-1Zm1 1h1-1Zm2 0h-1l1 1v-1Zm0 0v-1a56 56 0 0 1 0 1Zm0-1-1-1v1h1Zm-1 0a7 7 0 0 0 0-1v1Zm-2 5 1 1-1-1Zm0 0 1 1-1-1Zm0 0-2-1 2 2v-1Zm0-1-1-3h-1l1 1h-1v-1h-1l1 2v1h2Zm-2-4h1v-1h-1v1Zm0 0a73 73 0 0 0 0-1v1-1 1h-1 1Zm-1-1h-1l-1-1H9l1 2v1l2-1v-1Zm-7-9v-2h2v-1h1v-1c0 1 0 1 0 0h2v-1h2-3v1H8v1H7l-1 1a53 53 0 0 0-1 1l-1 1h1Zm2-3v-1h1l1-1h1c0-1 0 0 0 0l1-1h1v1l1-1v1h1-1V9h-1V8c0 1 0 0 0 0h-1v1h-1l-2 2-1 1H6h1Zm3-6v1a5 5 0 0 1 1 0h-1V6c-1 0 0 0 0 0v1H9h1-1 1-1v1-1 1H8L7 9l-1 1 1-1h2l1-1 2-1h1-1c0-1 0-1 0 0-1 0 0 0 0 0h-1V6c-1 0 0 0 0 0v1l-1-1Zm9-4Zm2 4-1-2V2l-1 1h1V2h-1v1-1l-1 1h1V2h-1v1-1h-5l-1 1-1 2h-1l2-1V3v1l-1 1 1-1h1l-2 1h1l-1 1 1-1h1-1 1l1-1-1 1h1V4h2c0-1 0-1 0 0h2V3v1h2l-1 1h1-1l1 1h1Zm0 0h-1 1Zm0 0h-1 1Zm0 1Zm0 1V7v1Zm2 0h-2 1a26 26 0 0 1 1 0Zm0 0-1 1h1V8Zm5-2h-2 1-1V5h-1V4v1h-1v1h1-1 1-1v1h-1 1-1 1-1v1h1v1h1v1a2 2 0 0 0 1 0h-1 2V9h-1a13 13 0 0 0 1 0h-1 1-1 1V8h-1 1-1 1-2 2-1 1-1 1V7h-1 1V6h1Zm2-4c0-1 0 0 0 0V1h-1v2-1h-1v6h-1 1-1l1 1h-1v1h1-1v1h1s-1 0 0 0c0 0-1 0 0 0v1-4h1V7h-1 1V4h1V2Zm5 0V1h-2V0v1-1h-1v1-1l-1 1V0v1h-1v1l1 2h1l-1-1V1l1 1V1v1-1 1-1h1l-1 1h1V1v1h1v1l1-1-1 1h1v1h2-1v1h1-1 1v2h1V4h-1c1 0 1 0 0 0V3h-1V2h-1Zm5 3V4h-1 1-1l1-1h-1 1-1s1 0 0 0V2c-1 0 0 0 0 0h-1V1h-2v1h1a20 20 0 0 0-1 0h1v1h1c0 1 0 0 0 0v3h1-1 1-1 1l-1 1h1-1 1-1v1h-1 1-1 2v1-1h1l-1 1h-1s0 1 0 0v1c-1 0-1 0 0 0h-2v1s0-1 0 0h-2 1l1-1v1h-1 1v-1h1V9h-1v1h-1s0 1 0 0l-1 1-1-1-1-1V8v3h2-1 5v-1h1V9h1V5Zm-2 4h-1v1l1-1h1-1 1V8h-2l1 1Zm2-3h1V5l-1 1Zm0 0v1h1v1c-1 0 0 0 0 0h-1v2c0 1 0 0 0 0v2c-1 0-1 0 0 0h-1 1-1c0 1 0 0 0 0v1h-1v1h-2v1l-1 1h1-1 1s1 0 0 0h1v-1 1-1h1v-1h1-1 1l-1-1h1v1l1-1h1v-2h1l-1-1h1c-1 0 0 0 0 0h-1 1-1V9h1-1l1-1V7h-1V6h-1Zm2-1c-1 0-1 0 0 0 0 0 0 1 0 0Zm-1 0v2h1V6l-1-1Zm0-1v1-1Zm13 4h1-1a7 7 0 0 0-1-2l1 1-2-3h-1v1h1-1l1 1 1 1h-1V6v2l1 1 1 1V9h-1V8l1 1 1 1V9l-1-1Zm-4-2V5h-1v2-1 2l2 1V5l-1 1v1-1Zm2 3V8v1Zm0 7v-1l1 1a55 55 0 0 0 0-1h-2l1 1Zm-6-7 2 1h2-3l3 1 1 1-1-1a15 15 0 0 1-2 0l-1-1v1a35 35 0 0 0 3 1l-3-1v-1 1-1h-1l2 2 1 1-1-1h-1l3 2 3 1 3-1 1-1h-3 4a21 21 0 0 1-4-1 17 17 0 0 0 4 0h-3 3-1 1l-2-1-3-1-3-1h-4Zm-1 0h2l1-1h1V5l-4 1v3Zm0-3h1l4-2h-2 3V3l-4 1 3-1h2-3 2V2h-1a25 25 0 0 0-4 0h4-2 1a13 13 0 0 0-5-1l-2 1v1h2-3 1v1h2-3 2a11 11 0 0 0 2 1h-1l-2-1 3 2Zm-1 2V7l1 1V7l-1-1-1-1h-1l1 1v1-1h-1 1l1 2Zm0 1V8l-1-1v2-1a5 5 0 0 0-1-2v1a3 3 0 0 0 0 1v2-1 1l1 1 1-1V9l-1-1 1 1Zm-2 2v-1 1Zm-3 4 1-1h1l-1 1h1l2-2 1-2v1a5 5 0 0 1-1 1l1-1v-1h-1v1h-1v1l1-1v-1l-1 1 1-1h-1l-1 1v1h-1v1h-1 1l-1 1Zm-3 3v1c0-1 0 0 0 0h1v-1l1 1v-1h1v-4 1h-1v1-1 1h-1v1-1 1l-1-1v1h1-2 1l-1-1v1c0-1 0 0 0 0v-1h-1v1-1 1-1 1h-1l-1-1v1h1l1 1h2Zm-5 1h5-1v-1c0 1 0 0 0 0h-2v-1l-1 1v-1h-1v1-1 1h-1v-1 1-1h-1v1h2v1-1 1Zm-2 0v1h1v-1h-1Zm2 1v-1l-1-1v2h-1v-1l1-1h-1v-1h-1l-4 2h-1v2a10 10 0 0 1 6-1l1 1h1v-1Zm-3 5 1-1h-1a7 7 0 0 1-1 0v1-1a9 9 0 0 0 3-1c0-1 0 0 0 0h-1l1-1h1v-1l-1 1h-1l-1 1h-1 1l1-1 1-1h1-3 2-2 1l-3-1-3 1h1-1v1c-1 0 0 0 0 0l-1 1h3l2-1-3 1h-2 1-1v1h1-1a6 6 0 0 0 2 0h-1v1h5Zm-4 10h1l-1-1 1 1v-2 2h1v1-1l-1-3v-1 1l1 3v-2 1-2 1h1v-5l-1-1-1-2 1 2h-1v-1l-1-1h-1l1 1-1-1h-1l1 1-1-1v1a6 6 0 0 1 1 0v1h1-1v-1l-2-1 1 1a9 9 0 0 1 1 1v1a11 11 0 0 1 1 1v-1l-1-1-1-1v1h1v1l-1-1v-1 2-1a4 4 0 0 0-1-1v1-1 2l1 3v1l1 2 1 1-1-2v-1 1l1 1v1Zm-8 4v-2 2Zm-7 2 1 1h1l1-1-1 1h3-1 1-1v1l-2-1H9h1l3 1h-1 5a8 8 0 0 0 1 0v-1h1-2 2v-1h-2v-1h1-2c0-1 0 0 0 0h-1l1-1h-2v1-1h-2v1c0-1 0-1 0 0h-1a12 12 0 0 1-2 1Zm-8-5H0a69 69 0 0 0 6 5 160 160 0 0 1 3 0l1-1h1l3-1h1v-3l-2-4-3-2-2-1 1 1v1l2 1v1c1 0 2 1 2 3h1v1l-1-1-1 1-2 1-3 1-3-1-2-1-1-1Zm9-4v1l1 1 1 1h1l-3-3Zm-4 2-1 1v-1l-2 1-1 1h2-1 2v-1 1h2l1-1v1H7h3-1v1H4l-1-1v1l-1-1 2 2h1v-1 1h5l-1-1 1 1 1-1h2v-1h-1 1-1v-1s1 0 0 0l-1-1h-1l-1 1H8a5 5 0 0 1 2-1v-1H8v1-1l-1 1H6h1-1Zm0-5v1a24 24 0 0 0 1 2v-1H6v-1l1 3h3l-1-2a6 6 0 0 0-2-2H6Zm1-1 2 1a25 25 0 0 1 5 3l1 1 2 1h4-1v1h-1 2-3l-1-1h-1 1l2 2h3l2-1-2-2a13 13 0 0 1-1-5v-3h-1l-1-1h-1 1l1 1v5a67 67 0 0 0 0 3l-2-2c0 1 0 0 0 0h-1l-1 1h2v1h-1l-1-1a17 17 0 0 1-2-1l-1-1v-1l-2-1H7Zm0-1 5 1v-2h-2v2l-2-1H7Zm1-1h1-1Zm0-1v1h1v-1H8Zm1-2v-1 1H8h1Zm-6-4 1 1v-1 1H3h1v2s0-1 0 0h1l-1 1h2v1h1-1 2-1l1-1a7 7 0 0 0 0-1v1-1 1-1H7v-1 1-1H6v-1 1s0-1 0 0l-1 1v-1l1-1H5h1v-1H5v-1 1-1H4h1-1l1-1H4h1-1v-2l-1 1v2H2l1 1Zm-1-3s-1 0 0 0H1v2h1l1-1v-1c1 0 0 0 0 0v-1h1-1 1c0-1 0 0 0 0v-1h1-1 1v-1c1 0 0 0 0 0l1-1s1 0 0 0h1v-1H6h2v-1h1l1-1H9v1H7l-1 1H5h1-1v2H4v1H3v1l-1 1Zm-1-1h1v-2l1-1v-1 1a90 90 0 0 1 0 1v-1l1-1H3h1l-1-1 1 1v-1H3h2L4 9h1V8l1 1V7c1 0 1 0 0 0h1V6v1-1h1V5v1-1c1 0 1 0 0 0V4v1h1L8 4h1s1 0 0 0V3h1V2v1-1 1l1-1 1-1h-2 1v1H9c0 1 0 0 0 0v1-1 1H8v1C7 4 7 4 8 4H7h1v1-1H7v2L6 5v1L5 7h1-1v1H3h1-1l1 1H3v1L2 9v1h1-1v1c0-1 0-1 0 0H1v1h1-1l1 1H1v-1 1h1-1v1-1 2Zm0 0"/></g><path fill="#c39d35" d="M4 69ZM15 56ZM13 69ZM1 7 0 6V5l1 2V6a4 4 0 0 1-1-1V4v1-2l1 1a8 8 0 0 1-1-1h1L0 2l1 1V0h1v1-1 2-1 1-1 1H1h1-1v2c0-1 0 0 0 0v1c0-1 0-1 0 0v1-1 1l1 2a35 35 0 0 0-1-1H0h1-1V6v1h1ZM1 38v1h1l-1 1 1 1h1-1l1 1 1 1H3v-1a4 4 0 0 0-1-1v1l-1-2v-1 1-1l-1-1h1ZM0 53h1l-1 1h1l-1-1v-1 1ZM10 0h1-1ZM0 0l1 1-1-1ZM0 22h1-1ZM0 25h1-1ZM1 30l-1 1v-1h1ZM0 71v-1h1l-1 1ZM15 0ZM1 24H0h1ZM0 54v1-1ZM9 0ZM0 8ZM15 0h-1 1ZM2 0h1v1L2 0s1 0 0 0ZM69 0ZM0 76ZM18 0h1-1ZM8 0ZM0 55ZM0 63v-1 1ZM13 69v-1 1ZM35 13ZM2 66l-1 1 1-1ZM4 70h1-1ZM2 66ZM2 67v1-1ZM3 68ZM2 68ZM4 69ZM4 69ZM4 65h1-1ZM1 58v1-1ZM40 0ZM35 1ZM0 45a13 13 0 0 1 1 0 35 35 0 0 1-1 0ZM2 44H1h1ZM1 44h1-1ZM10 86a23 23 0 0 1 1 2 497 497 0 0 1-1-2ZM11 90l1 1-1-1ZM6 18ZM6 18ZM10 70ZM10 70ZM13 69ZM13 70v-1 1ZM9 63ZM9 63ZM10 64l-1-1 1 1ZM9 64ZM6 58ZM8 60ZM8 60ZM37 2v1-1ZM15 66v-1 1ZM11 66v-1 1ZM24 10ZM24 8l-1-1ZM33 14ZM3 62ZM3 62ZM8 50v1-1ZM59 5l1 1-1-1ZM3 47l-1-1 1 1ZM15 56ZM15 56ZM15 54h-1 1ZM33 6h-1 1ZM5 47ZM12 14ZM12 15v-1 1Zm0 0"/></svg>