<svg xmlns="http://www.w3.org/2000/svg" xmlns:xlink="http://www.w3.org/1999/xlink" width="128" zoomAndPan="magnify" viewBox="0 0 96 95.999999" height="128" preserveAspectRatio="xMidYMid meet" version="1.0"><defs><clipPath id="a73a3dd8d5"><path d="M 78.828125 25.632812 L 91.398438 25.632812 L 91.398438 95.984375 L 78.828125 95.984375 Z M 78.828125 25.632812 " clip-rule="nonzero"/></clipPath><clipPath id="1bfc51f275"><path d="M 2.640625 4 L 69 4 L 69 14 L 2.640625 14 Z M 2.640625 4 " clip-rule="nonzero"/></clipPath><clipPath id="d708d26dfc"><path d="M 85 18 L 95.640625 18 L 95.640625 24 L 85 24 Z M 85 18 " clip-rule="nonzero"/></clipPath></defs><path fill="#c39d35" d="M 66.148438 11.972656 C 66.167969 11.960938 66.1875 11.949219 66.207031 11.9375 C 66.25 11.878906 66.292969 11.824219 66.339844 11.769531 C 65.945312 11.722656 65.609375 11.671875 65.625 11.585938 C 65.679688 11.398438 65.710938 11.320312 65.421875 11.277344 C 65.164062 11.242188 64.929688 11.300781 64.695312 11.3125 L 63.589844 11.378906 L 61.613281 11.507812 L 60.621094 11.59375 C 60.449219 11.609375 60.296875 11.625 60.09375 11.65625 C 59.90625 11.691406 59.761719 11.738281 59.59375 11.777344 L 57.652344 12.285156 C 56.992188 12.484375 56.359375 12.761719 55.761719 13.085938 L 55.433594 13.269531 L 55.242188 13.378906 L 54.726562 13.703125 C 54.121094 14.097656 53.527344 14.515625 53.003906 15.019531 C 52.789062 15.230469 52.566406 15.351562 52.214844 15.394531 C 52.132812 15.402344 51.5 15.570312 50.9375 15.601562 C 51.015625 15.742188 51.789062 15.992188 51.738281 16.105469 C 51.722656 16.144531 51.679688 16.160156 51.648438 16.183594 C 50.953125 16.726562 50.445312 17.519531 50.019531 18.320312 C 49.4375 19.40625 49.160156 20.574219 49 21.777344 C 48.964844 22.074219 48.941406 22.375 48.929688 22.675781 C 48.898438 23.382812 48.964844 24.074219 49.0625 24.765625 C 49.167969 25.441406 49.390625 26.105469 49.527344 26.804688 C 49.539062 26.855469 49.535156 26.910156 49.554688 26.957031 C 49.582031 27.097656 49.597656 27.246094 49.613281 27.394531 C 49.621094 27.527344 49.539062 28.078125 49.671875 28.175781 C 49.671875 28.175781 49.949219 27.671875 50.019531 27.699219 C 50.054688 27.714844 50.0625 27.804688 50.082031 27.835938 C 50.414062 28.5 50.992188 29.058594 51.710938 29.410156 C 52.082031 29.597656 52.492188 29.675781 52.863281 29.730469 C 53.246094 29.78125 53.640625 29.796875 54.035156 29.761719 L 54.203125 29.746094 C 54.644531 29.6875 55.097656 29.566406 55.503906 29.332031 C 56.28125 28.90625 56.828125 28.113281 56.988281 27.246094 C 57.164062 26.390625 56.917969 25.378906 56.199219 24.769531 C 55.644531 24.300781 54.824219 24.023438 54.097656 24.070312 C 53.84375 24.089844 53.535156 24.179688 53.253906 24.332031 C 52.789062 24.585938 52.410156 25.007812 52.507812 25.53125 C 52.5625 25.796875 52.769531 26.015625 53.019531 26.121094 C 53.832031 26.46875 54.082031 26.109375 54.476562 25.570312 C 54.769531 25.171875 54.992188 25.125 55.484375 25.148438 C 55.789062 25.164062 56.066406 25.535156 56.191406 25.785156 C 56.378906 26.15625 56.4375 26.605469 56.371094 27.015625 L 56.363281 27.054688 C 56.296875 27.464844 56.121094 27.855469 55.863281 28.171875 C 55.828125 28.210938 55.804688 28.308594 55.691406 28.222656 C 55.597656 28.140625 55.480469 27.835938 55.367188 27.773438 C 55.351562 27.824219 55.398438 28.136719 55.382812 28.226562 C 55.316406 28.742188 54.832031 28.988281 54.371094 29.054688 C 53.722656 29.183594 53.011719 29.113281 52.386719 28.945312 C 51.785156 28.769531 51.296875 28.324219 50.914062 27.792969 C 50.699219 27.5 50.523438 27.175781 50.375 26.839844 C 49.867188 25.648438 49.691406 24.300781 49.679688 23.027344 L 49.679688 22.988281 L 49.683594 22.785156 C 49.691406 22.550781 49.707031 22.320312 49.726562 22.089844 C 49.734375 21.988281 49.769531 21.9375 49.957031 21.921875 C 50.070312 21.917969 50.578125 22.320312 50.695312 22.304688 C 50.558594 22.320312 50.363281 21.867188 50.257812 21.363281 C 50.144531 20.863281 50.125 20.324219 50.144531 20.261719 C 50.300781 19.65625 50.5 19.085938 50.800781 18.5625 C 51.386719 17.519531 52.25 16.648438 53.1875 15.902344 C 54.535156 14.832031 55.925781 13.851562 57.441406 13.289062 C 57.578125 13.234375 57.402344 13.964844 57.558594 14.101562 C 57.566406 13.84375 58.082031 13.441406 58.203125 13.335938 C 58.378906 13.140625 58.566406 12.988281 58.789062 12.902344 C 59.183594 12.753906 59.59375 12.652344 60.003906 12.5625 C 60.378906 12.472656 60.796875 12.496094 61.210938 12.457031 C 61.925781 12.402344 62.644531 12.367188 63.363281 12.339844 C 63.792969 12.328125 65.011719 12.191406 66.039062 12.09375 C 66.0625 12.046875 66.097656 12.003906 66.148438 11.972656 " fill-opacity="1" fill-rule="nonzero"/><path fill="#c39d35" d="M 90.4375 15.972656 C 91.054688 15.257812 91.457031 14.355469 91.789062 13.4375 C 92.238281 12.226562 92.40625 10.914062 92.339844 9.605469 C 92.320312 9.285156 92.292969 8.960938 92.246094 8.636719 C 92.140625 7.898438 91.953125 7.15625 91.683594 6.453125 C 91.425781 5.757812 91.039062 5.113281 90.71875 4.421875 C 90.695312 4.371094 90.683594 4.316406 90.652344 4.269531 C 90.589844 4.128906 90.535156 3.984375 90.484375 3.832031 C 90.445312 3.699219 90.382812 3.125 90.234375 3.050781 C 90.234375 3.050781 90.078125 3.617188 90.003906 3.597656 C 89.960938 3.589844 89.929688 3.503906 89.90625 3.472656 C 89.414062 2.851562 88.691406 2.410156 87.921875 2.128906 C 87.125 1.847656 86.257812 1.773438 85.417969 1.941406 L 85.238281 1.976562 C 84.769531 2.089844 84.3125 2.285156 83.90625 2.582031 C 83.148438 3.121094 82.625 4.042969 82.632812 5.003906 C 82.621094 5.941406 83.050781 6.941406 83.914062 7.472656 C 84.597656 7.90625 85.789062 7.769531 86.730469 7.40625 C 87.195312 7.226562 87.746094 7.015625 87.953125 6.519531 C 88.292969 5.71875 87.617188 5.082031 86.8125 5.183594 C 85.753906 5.320312 85.472656 7.035156 84.277344 6.808594 C 83.546875 6.671875 83.285156 5.773438 83.285156 5.128906 L 83.285156 5.085938 C 83.269531 4.632812 83.402344 4.207031 83.632812 3.828125 C 83.664062 3.78125 83.683594 3.679688 83.804688 3.75 C 83.910156 3.824219 84.050781 4.117188 84.171875 4.167969 C 84.183594 4.109375 84.109375 3.789062 84.125 3.695312 C 84.152344 3.148438 84.640625 2.816406 85.132812 2.6875 C 85.8125 2.472656 86.566406 2.464844 87.25 2.640625 C 87.941406 2.796875 88.550781 3.1875 89.078125 3.660156 C 89.371094 3.929688 89.632812 4.230469 89.867188 4.550781 C 90.691406 5.6875 91.199219 7.050781 91.445312 8.402344 L 91.453125 8.441406 L 91.484375 8.660156 C 91.523438 8.90625 91.546875 9.15625 91.570312 9.40625 C 91.578125 9.515625 91.554688 9.574219 91.375 9.625 C 91.257812 9.648438 90.691406 9.3125 90.578125 9.351562 C 90.710938 9.3125 90.984375 9.753906 91.171875 10.265625 C 91.363281 10.773438 91.449219 11.339844 91.441406 11.40625 C 91.363281 12.066406 91.207031 12.714844 90.976562 13.324219 C 90.496094 14.527344 89.769531 15.644531 88.914062 16.601562 C 87.699219 17.984375 86.308594 19.167969 84.863281 20.238281 C 84.730469 20.339844 84.746094 19.550781 84.550781 19.46875 C 84.589844 19.734375 84.136719 20.328125 84.066406 20.480469 C 83.953125 20.742188 83.808594 20.960938 83.613281 21.132812 C 82.910156 21.730469 82.085938 22.136719 81.320312 22.648438 C 80.671875 23.097656 80.023438 23.582031 79.441406 24.175781 C 79.15625 24.476562 78.882812 24.8125 78.667969 25.203125 C 78.453125 25.589844 78.304688 26.078125 78.347656 26.578125 C 78.371094 26.589844 78.410156 26.648438 78.410156 26.648438 C 78.410156 26.648438 78.566406 26.730469 78.863281 26.890625 C 79.160156 27.054688 79.566406 27.355469 80.003906 27.824219 C 80.425781 28.3125 80.863281 28.984375 81.203125 29.851562 C 81.546875 30.71875 81.78125 31.773438 81.929688 32.949219 C 82.09375 34.191406 82.15625 35.589844 82.140625 37.105469 C 82.121094 38.738281 82.070312 40.421875 81.96875 42.15625 C 81.929688 42.753906 81.890625 43.363281 81.847656 43.972656 C 81.757812 45.414062 81.660156 46.886719 81.566406 48.394531 C 81.523438 49.175781 81.484375 49.96875 81.460938 50.777344 C 81.429688 51.488281 81.511719 52.222656 81.441406 52.953125 C 81.390625 53.410156 81.492188 53.871094 81.507812 54.332031 C 81.519531 54.570312 81.515625 54.8125 81.457031 55.054688 C 81.40625 55.285156 81.246094 55.523438 81.136719 55.769531 C 81.046875 55.953125 80.960938 56.394531 80.839844 56.769531 C 80.972656 56.78125 81.636719 56.261719 81.71875 56.316406 C 81.78125 56.355469 81.734375 56.449219 81.742188 56.503906 L 81.785156 56.738281 C 81.828125 56.988281 81.898438 57.230469 81.957031 57.476562 C 82.011719 57.722656 82.074219 57.96875 82.152344 58.210938 C 82.632812 59.875 83.328125 61.488281 84.0625 63.09375 C 84.523438 64.113281 85 65.136719 85.445312 66.183594 C 85.765625 66.984375 86.097656 67.789062 86.359375 68.617188 C 86.394531 68.71875 86.433594 68.820312 86.417969 68.933594 C 86.378906 69.277344 85.691406 70.023438 85.847656 70.296875 C 86.054688 70.234375 86.535156 69.933594 86.679688 69.976562 C 86.910156 70.046875 86.84375 70.453125 86.875 70.601562 C 86.929688 70.855469 86.960938 71.117188 87.007812 71.375 C 87.285156 73.320312 87.246094 75.367188 86.902344 77.429688 L 86.871094 77.621094 L 86.773438 78.152344 C 86.65625 78.78125 86.488281 79.402344 86.382812 80.046875 C 86.339844 80.320312 86.230469 80.519531 85.988281 80.71875 C 85.933594 80.765625 85.523438 81.179688 85.089844 81.386719 C 85.210938 81.476562 85.9375 81.371094 85.949219 81.472656 C 85.953125 81.507812 85.921875 81.539062 85.910156 81.570312 C 85.585938 82.277344 85.414062 83.0625 85.132812 83.800781 C 84.757812 84.78125 84.375 85.761719 83.828125 86.640625 C 83.691406 86.855469 83.546875 87.066406 83.390625 87.265625 C 83.027344 87.730469 82.613281 88.109375 82.109375 88.421875 C 81.632812 88.722656 81.097656 89.019531 80.515625 89.03125 C 80.476562 89.03125 80.433594 89.019531 80.394531 89.027344 C 80.28125 89.015625 80.167969 89.003906 80.058594 88.960938 C 79.953125 88.933594 79.65625 88.640625 79.574219 88.679688 C 79.5625 88.683594 79.757812 89.140625 79.726562 89.179688 C 79.699219 89.203125 79.636719 89.167969 79.609375 89.164062 C 79.046875 89.097656 78.480469 88.988281 78.023438 88.644531 C 77.546875 88.308594 77.214844 87.777344 77.054688 87.195312 L 77.027344 87.070312 C 76.953125 86.738281 76.933594 86.394531 76.96875 86.054688 C 77.042969 85.507812 77.269531 85.027344 77.644531 84.625 C 77.910156 84.339844 77.941406 84.128906 78.363281 84.0625 C 78.984375 83.964844 79.589844 84.203125 79.652344 84.871094 C 79.675781 85.09375 79.667969 85.320312 79.742188 85.53125 C 79.921875 86.042969 80.523438 86.007812 80.769531 85.585938 C 80.800781 85.539062 80.824219 85.488281 80.847656 85.429688 C 81.054688 84.914062 80.945312 84.191406 80.582031 83.796875 C 80.296875 83.472656 79.851562 83.332031 79.476562 83.3125 C 78.78125 83.289062 78.136719 83.519531 77.597656 83.890625 L 77.558594 83.917969 C 77.171875 84.195312 76.859375 84.570312 76.652344 84.992188 C 76.628906 85.050781 76.625 85.152344 76.5 85.117188 C 76.386719 85.089844 76.242188 84.769531 76.132812 84.730469 C 76.097656 84.84375 76.175781 85.230469 76.210938 85.332031 C 76.351562 85.9375 76.332031 86.414062 76.390625 86.9375 C 76.488281 87.644531 76.800781 88.324219 77.296875 88.84375 C 77.796875 89.359375 78.46875 89.699219 79.167969 89.785156 C 79.558594 89.847656 79.945312 89.828125 80.324219 89.785156 C 81.648438 89.578125 82.863281 88.925781 83.726562 87.941406 L 83.753906 87.914062 L 83.882812 87.753906 C 84.03125 87.574219 84.167969 87.386719 84.292969 87.191406 C 84.347656 87.109375 84.398438 87.078125 84.558594 87.136719 C 84.667969 87.167969 84.867188 87.765625 84.964844 87.8125 C 84.847656 87.765625 84.96875 87.222656 85.046875 86.699219 C 85.132812 86.171875 85.203125 85.65625 85.226562 85.597656 C 85.464844 85.035156 85.667969 84.472656 85.875 83.917969 C 86.28125 82.8125 86.65625 81.710938 86.984375 80.613281 C 87.460938 79.046875 87.765625 77.453125 87.921875 75.875 C 87.9375 75.722656 88.460938 76.214844 88.632812 76.136719 C 88.441406 75.996094 88.292969 75.328125 88.226562 75.199219 C 88.109375 74.96875 88.019531 74.75 88.003906 74.523438 C 87.953125 73.71875 88.027344 72.910156 87.960938 72.117188 C 87.890625 71.246094 87.734375 70.390625 87.550781 69.554688 L 87.441406 69.140625 C 87.214844 68.238281 86.90625 67.375 86.59375 66.53125 C 86.429688 66.121094 86.273438 65.710938 86.101562 65.3125 L 85.847656 64.714844 C 85.8125 64.636719 85.734375 64.566406 85.8125 64.457031 C 85.882812 64.363281 86.460938 64.453125 86.5625 64.363281 C 86.597656 64.332031 85.964844 63.976562 85.9375 63.957031 L 85.652344 63.761719 C 85.273438 63.507812 85.171875 63.125 85.007812 62.761719 C 84.828125 62.371094 84.652344 61.980469 84.488281 61.59375 C 83.800781 60.019531 83.261719 58.445312 82.929688 56.875 C 82.570312 55.347656 82.574219 53.808594 82.609375 52.285156 C 82.628906 51.640625 82.660156 51 82.695312 50.367188 C 82.703125 50.113281 82.648438 47.371094 82.933594 47.363281 C 83.144531 47.359375 83.796875 47.8125 83.835938 47.703125 C 83.609375 47.273438 83.117188 46.46875 83.027344 46.082031 C 83.003906 45.96875 83.011719 45.855469 83.019531 45.742188 C 83.273438 42.75 83.382812 39.863281 83.328125 37.085938 C 83.253906 35.527344 83.109375 34.089844 82.867188 32.800781 C 82.628906 31.578125 82.320312 30.480469 81.910156 29.554688 C 81.507812 28.628906 81.007812 27.890625 80.523438 27.347656 C 80.09375 26.898438 79.695312 26.59375 79.378906 26.390625 C 79.390625 26.234375 79.390625 26.0625 79.441406 25.886719 C 79.546875 25.59375 79.734375 25.304688 79.957031 25.027344 C 80.796875 24.03125 82 23.296875 83.175781 22.5 C 84.351562 21.707031 85.527344 20.894531 86.636719 19.980469 L 86.941406 19.726562 L 87.117188 19.578125 L 87.609375 19.148438 C 88.175781 18.628906 88.75 18.097656 89.222656 17.46875 C 89.417969 17.199219 89.628906 17.035156 89.980469 16.910156 C 90.0625 16.875 90.6875 16.570312 91.246094 16.414062 C 91.144531 16.28125 90.328125 16.199219 90.359375 16.070312 C 90.367188 16.03125 90.410156 16.003906 90.4375 15.972656 " fill-opacity="1" fill-rule="nonzero"/><g clip-path="url(#a73a3dd8d5)"><path fill="#c39d35" d="M 90.878906 77.394531 C 90.957031 76.828125 90.980469 76.265625 91.015625 75.707031 C 91.050781 74.601562 91.039062 73.511719 90.960938 72.4375 C 90.851562 70.90625 90.574219 69.421875 90.230469 67.992188 C 90.199219 67.855469 90.804688 68.121094 90.941406 68.003906 C 90.726562 67.9375 90.40625 67.402344 90.300781 67.304688 C 90.128906 67.140625 89.992188 66.972656 89.917969 66.773438 C 89.644531 66.078125 89.519531 65.335938 89.300781 64.636719 C 89.046875 63.878906 88.8125 63.101562 88.492188 62.367188 L 88.414062 62.183594 L 88.335938 62.003906 C 87.988281 61.210938 87.597656 60.453125 87.203125 59.714844 C 87.007812 59.355469 86.816406 58.996094 86.625 58.640625 L 86.335938 58.113281 C 86.296875 58.042969 86.21875 57.984375 86.285156 57.878906 C 86.339844 57.785156 86.882812 57.816406 86.972656 57.722656 C 87 57.691406 86.390625 57.421875 86.363281 57.402344 L 86.085938 57.25 C 85.714844 57.039062 85.601562 56.6875 85.429688 56.363281 C 85.253906 56.007812 85.074219 55.65625 84.917969 55.296875 C 84.257812 53.851562 83.835938 52.371094 83.734375 50.886719 C 83.601562 49.433594 83.746094 47.988281 83.949219 46.582031 C 84.035156 45.988281 84.132812 45.402344 84.246094 44.816406 C 84.28125 44.585938 84.539062 42.03125 84.800781 42.050781 C 84.996094 42.066406 85.550781 42.558594 85.601562 42.460938 C 85.4375 42.03125 85.058594 41.222656 85.003906 40.851562 C 84.992188 40.742188 85.007812 40.636719 85.027344 40.53125 C 85.238281 39.113281 85.328125 37.699219 85.246094 36.320312 C 85.144531 34.941406 84.941406 33.601562 84.566406 32.324219 C 84.117188 30.90625 83.492188 29.664062 82.773438 28.644531 C 82.09375 27.667969 81.265625 26.953125 80.519531 26.378906 C 80.191406 26.164062 79.71875 25.90625 79.410156 25.75 C 79.1875 25.890625 79.121094 26.105469 78.882812 26.238281 C 79.269531 26.425781 79.675781 26.660156 80.097656 26.960938 C 80.757812 27.519531 81.480469 28.203125 82.039062 29.144531 C 82.644531 30.113281 83.15625 31.289062 83.5 32.628906 C 83.875 34.066406 84.070312 35.601562 84.070312 37.179688 C 84.09375 37.726562 84.023438 38.277344 84.007812 38.835938 C 83.886719 40.128906 83.691406 41.472656 83.417969 42.859375 C 83.296875 43.582031 83.171875 44.316406 83.050781 45.054688 C 82.941406 45.714844 82.933594 46.40625 82.789062 47.082031 C 82.695312 47.5 82.738281 47.9375 82.707031 48.371094 C 82.695312 48.589844 82.660156 48.8125 82.582031 49.03125 C 82.511719 49.238281 82.335938 49.4375 82.207031 49.648438 C 82.105469 49.804688 81.960938 50.203125 81.808594 50.539062 C 81.929688 50.5625 82.609375 50.164062 82.679688 50.226562 C 82.734375 50.269531 82.675781 50.347656 82.679688 50.398438 L 82.691406 50.621094 C 82.703125 50.859375 82.738281 51.09375 82.761719 51.332031 C 82.777344 51.570312 82.828125 51.804688 82.867188 52.046875 C 83.152344 53.683594 83.8125 55.21875 84.5625 56.710938 C 85.046875 57.65625 85.574219 58.582031 86.097656 59.519531 C 86.488281 60.230469 86.894531 60.941406 87.257812 61.675781 C 87.304688 61.765625 87.351562 61.855469 87.355469 61.960938 C 87.382812 62.285156 86.839844 63.082031 87.039062 63.3125 C 87.222656 63.226562 87.613281 62.871094 87.753906 62.890625 C 87.984375 62.921875 87.984375 63.304688 88.03125 63.4375 C 88.117188 63.664062 88.203125 63.898438 88.28125 64.136719 C 88.894531 65.910156 89.445312 67.753906 89.824219 69.679688 L 89.859375 69.859375 C 89.894531 70.023438 89.925781 70.1875 89.953125 70.355469 C 90.058594 70.945312 90.121094 71.546875 90.242188 72.144531 C 90.300781 72.394531 90.265625 72.609375 90.117188 72.859375 C 90.078125 72.917969 89.878906 73.410156 89.550781 73.726562 C 89.683594 73.765625 90.292969 73.445312 90.335938 73.527344 C 90.351562 73.558594 90.332031 73.597656 90.328125 73.625 C 90.269531 74.34375 90.359375 75.082031 90.320312 75.816406 C 90.265625 76.78125 90.132812 77.753906 89.933594 78.726562 C 89.878906 78.964844 89.8125 79.199219 89.753906 79.4375 C 89.683594 79.714844 89.601562 79.988281 89.503906 80.253906 C 89.410156 80.523438 89.332031 80.796875 89.222656 81.066406 C 89.023438 81.589844 88.847656 82.148438 88.519531 82.632812 C 88.496094 82.667969 88.464844 82.699219 88.445312 82.734375 C 88.375 82.828125 88.296875 82.917969 88.210938 83.003906 C 88.132812 83.078125 87.738281 83.269531 87.734375 83.386719 C 87.734375 83.386719 87.855469 83.382812 87.976562 83.382812 C 88.101562 83.378906 88.226562 83.386719 88.234375 83.414062 C 88.242188 83.445312 88.1875 83.492188 88.171875 83.519531 C 87.878906 84.039062 87.691406 84.632812 87.472656 85.203125 C 87.246094 85.796875 87.046875 86.414062 86.898438 87.050781 L 86.867188 87.183594 C 86.789062 87.542969 86.722656 87.910156 86.679688 88.273438 C 86.511719 89.640625 86.542969 91.050781 86.792969 92.445312 C 86.945312 93.339844 87.203125 94.230469 87.542969 95.09375 C 87.636719 95.316406 87.730469 95.542969 87.835938 95.761719 L 87.914062 95.929688 C 87.921875 95.945312 87.9375 95.964844 87.941406 95.984375 C 87.882812 95.449219 87.917969 94.921875 87.832031 94.441406 C 87.8125 94.300781 87.78125 94.164062 87.730469 94.03125 C 87.503906 93.410156 87.386719 92.761719 87.289062 92.121094 C 87.203125 91.5625 87.15625 91 87.140625 90.441406 L 87.140625 90.402344 C 87.125 90.003906 87.140625 89.609375 87.164062 89.214844 C 87.164062 89.164062 87.136719 89.074219 87.261719 89.074219 C 87.367188 89.074219 87.59375 89.261719 87.707031 89.253906 C 87.695312 89.179688 87.507812 88.929688 87.464844 88.855469 C 87.210938 88.410156 87.265625 87.964844 87.367188 87.53125 C 87.609375 86.332031 88.089844 85.207031 88.582031 84.105469 C 88.722656 83.796875 88.859375 83.488281 89 83.179688 C 89.492188 82.105469 89.960938 81.015625 90.300781 79.890625 L 90.308594 79.859375 L 90.359375 79.679688 L 90.519531 79.0625 C 90.542969 78.972656 90.578125 78.933594 90.734375 78.933594 C 90.84375 78.929688 91.207031 79.371094 91.3125 79.378906 C 91.105469 79.355469 90.898438 77.496094 90.878906 77.394531 " fill-opacity="1" fill-rule="nonzero"/></g><path fill="#c39d35" d="M 68.101562 10.878906 C 68.144531 10.832031 68.183594 10.78125 68.226562 10.742188 C 67.863281 10.6875 67.496094 10.640625 67.121094 10.59375 C 65.410156 10.390625 63.644531 10.3125 61.835938 10.253906 C 61.210938 10.238281 60.578125 10.21875 59.941406 10.203125 C 58.453125 10.195312 56.929688 10.1875 55.375 10.179688 C 54.574219 10.179688 53.761719 10.175781 52.941406 10.171875 C 52.21875 10.15625 51.472656 10.242188 50.742188 10.132812 C 50.289062 10.066406 49.828125 10.121094 49.367188 10.085938 C 49.132812 10.066406 48.902344 10.023438 48.675781 9.929688 C 48.464844 9.835938 48.28125 9.613281 48.089844 9.453125 C 47.941406 9.339844 47.585938 9.105469 47.316406 8.878906 C 47.257812 9.007812 47.503906 9.816406 47.4375 9.878906 C 47.378906 9.929688 47.308594 9.851562 47.257812 9.84375 L 47.03125 9.8125 L 46.316406 9.683594 L 45.605469 9.515625 C 43.984375 9.105469 42.390625 8.40625 40.789062 7.605469 C 39.769531 7.097656 38.742188 6.539062 37.679688 5.996094 C 36.875 5.574219 36.050781 5.171875 35.1875 4.808594 C 35.082031 4.761719 34.976562 4.714844 34.890625 4.632812 C 34.632812 4.390625 34.390625 3.304688 33.984375 3.285156 C 33.929688 3.5 33.9375 4.085938 33.808594 4.183594 C 33.609375 4.34375 33.277344 4.0625 33.117188 4.007812 C 32.851562 3.910156 32.570312 3.84375 32.292969 3.761719 C 30.222656 3.175781 28 3.007812 25.769531 3.171875 L 25.566406 3.183594 L 24.992188 3.238281 C 24.3125 3.304688 23.628906 3.382812 22.957031 3.558594 C 22.679688 3.632812 22.441406 3.632812 22.132812 3.5 C 22.058594 3.464844 21.472656 3.308594 21.03125 3.03125 C 21.019531 3.1875 21.5 3.78125 21.410156 3.84375 C 21.378906 3.867188 21.335938 3.855469 21.300781 3.859375 C 20.480469 3.941406 19.6875 4.246094 18.894531 4.484375 C 17.839844 4.796875 16.769531 5.117188 15.714844 5.613281 C 15.457031 5.734375 15.199219 5.871094 14.949219 6.019531 C 14.375 6.355469 13.800781 6.769531 13.351562 7.3125 C 12.90625 7.835938 12.613281 8.457031 12.257812 9.054688 C 12.234375 9.097656 12.203125 9.136719 12.1875 9.183594 C 12.117188 9.308594 12.027344 9.421875 11.953125 9.546875 C 11.914062 9.601562 11.796875 9.714844 11.6875 9.839844 C 11.589844 9.964844 11.503906 10.101562 11.515625 10.175781 C 11.515625 10.175781 12.027344 9.960938 12.058594 10.027344 C 12.078125 10.0625 12.03125 10.132812 12.023438 10.167969 C 11.851562 10.871094 12.003906 11.664062 12.339844 12.332031 C 12.675781 13.035156 13.300781 13.605469 14.011719 13.90625 L 14.164062 13.972656 C 14.574219 14.125 15.007812 14.210938 15.449219 14.21875 C 16.265625 14.242188 17.128906 13.949219 17.746094 13.339844 C 18.335938 12.730469 18.710938 11.921875 18.695312 11.039062 C 18.667969 10.730469 18.613281 10.425781 18.421875 10.15625 C 18.246094 9.898438 17.988281 9.679688 17.699219 9.574219 C 17.003906 9.3125 16.335938 9.449219 15.777344 9.871094 C 15.488281 10.082031 15.117188 10.433594 15.171875 10.832031 C 15.199219 11.0625 15.417969 11.121094 15.589844 11.222656 C 16.457031 11.742188 16.730469 9.703125 17.734375 10.363281 C 18.566406 10.90625 17.871094 12.296875 17.382812 12.824219 L 17.359375 12.855469 C 17.082031 13.148438 16.726562 13.355469 16.34375 13.472656 C 16.292969 13.492188 16.21875 13.542969 16.175781 13.417969 C 16.144531 13.304688 16.226562 13.007812 16.171875 12.894531 C 16.125 12.929688 15.976562 13.195312 15.914062 13.265625 C 15.566406 13.644531 15.042969 13.617188 14.613281 13.472656 C 14.003906 13.289062 13.457031 12.90625 13.117188 12.394531 C 12.773438 11.878906 12.617188 11.257812 12.65625 10.640625 C 12.664062 10.292969 12.742188 9.949219 12.839844 9.613281 C 13.214844 8.429688 14.003906 7.417969 15.046875 6.792969 L 15.078125 6.773438 L 15.242188 6.671875 C 15.433594 6.5625 15.628906 6.453125 15.828125 6.351562 C 15.914062 6.308594 15.972656 6.3125 16.078125 6.453125 C 16.140625 6.542969 16.066406 7.152344 16.140625 7.238281 C 16.0625 7.136719 16.328125 6.75 16.6875 6.40625 C 17.042969 6.058594 17.46875 5.753906 17.527344 5.730469 C 18.101562 5.527344 18.679688 5.335938 19.257812 5.167969 C 20.402344 4.828125 21.550781 4.554688 22.695312 4.371094 C 24.324219 4.101562 25.941406 3.941406 27.523438 3.953125 C 27.671875 3.957031 27.242188 4.535156 27.332031 4.710938 C 27.445312 4.492188 28.074219 4.3125 28.203125 4.234375 C 28.425781 4.105469 28.644531 4.03125 28.871094 4.019531 C 29.679688 4 30.464844 4.21875 31.222656 4.402344 C 32.066406 4.582031 32.875 4.871094 33.667969 5.171875 L 33.863281 5.25 L 34.058594 5.332031 C 34.914062 5.679688 35.742188 6.078125 36.550781 6.496094 C 36.945312 6.707031 37.339844 6.914062 37.730469 7.121094 L 38.3125 7.433594 C 38.390625 7.476562 38.5 7.480469 38.503906 7.621094 C 38.507812 7.742188 37.988281 8.039062 37.960938 8.179688 C 37.953125 8.222656 38.683594 8.109375 38.722656 8.105469 L 39.074219 8.082031 C 39.542969 8.050781 39.875 8.296875 40.242188 8.480469 C 40.644531 8.679688 41.046875 8.875 41.441406 9.070312 C 43.074219 9.832031 44.734375 10.523438 46.46875 10.851562 C 48.152344 11.164062 49.789062 11.273438 51.390625 11.363281 C 52.066406 11.386719 52.734375 11.410156 53.394531 11.433594 C 53.664062 11.445312 56.492188 11.238281 56.515625 11.527344 C 56.53125 11.742188 56.105469 12.4375 56.21875 12.476562 C 56.652344 12.214844 57.449219 11.65625 57.839844 11.539062 C 57.957031 11.503906 58.074219 11.507812 58.1875 11.511719 C 61.03125 11.574219 63.75 11.574219 66.34375 11.765625 C 66.765625 11.277344 67.414062 11.015625 68.101562 10.878906 " fill-opacity="1" fill-rule="nonzero"/><g clip-path="url(#1bfc51f275)"><path fill="#c39d35" d="M 68.019531 10.894531 C 68.019531 10.886719 68.023438 10.878906 68.027344 10.871094 C 67.230469 10.722656 66.421875 10.617188 65.59375 10.578125 C 65.3125 10.566406 65.03125 10.554688 64.746094 10.542969 C 64.464844 10.550781 64.179688 10.558594 63.890625 10.566406 C 62.550781 10.617188 61.179688 10.828125 59.828125 11.105469 C 59.132812 11.261719 58.429688 11.417969 57.714844 11.578125 C 57.085938 11.710938 56.46875 11.953125 55.8125 12 C 55.402344 12.03125 55.019531 12.175781 54.613281 12.234375 C 54.40625 12.261719 54.195312 12.273438 53.976562 12.230469 C 53.769531 12.183594 53.554688 12.023438 53.34375 11.914062 C 53.1875 11.835938 52.816406 11.6875 52.523438 11.535156 C 52.503906 11.664062 52.925781 12.355469 52.882812 12.429688 C 52.847656 12.484375 52.765625 12.429688 52.722656 12.429688 C 52.652344 12.4375 52.582031 12.445312 52.515625 12.445312 L 51.855469 12.472656 L 51.1875 12.464844 C 50.425781 12.433594 49.65625 12.34375 48.886719 12.167969 C 48.109375 11.976562 47.328125 11.710938 46.539062 11.394531 C 45.53125 10.992188 44.519531 10.5 43.480469 9.980469 C 42.691406 9.578125 41.878906 9.175781 41.039062 8.777344 C 40.9375 8.730469 40.832031 8.683594 40.746094 8.597656 C 40.488281 8.34375 40.203125 7.277344 39.816406 7.230469 C 39.773438 7.4375 39.808594 8.011719 39.6875 8.101562 C 39.503906 8.242188 39.175781 7.9375 39.019531 7.878906 C 38.75 7.777344 38.488281 7.667969 38.214844 7.570312 C 36.183594 6.871094 34.085938 6.308594 31.878906 5.871094 L 31.671875 5.828125 L 31.101562 5.726562 C 30.417969 5.601562 29.726562 5.492188 29.035156 5.46875 C 28.746094 5.464844 28.507812 5.394531 28.214844 5.175781 C 28.144531 5.117188 27.574219 4.804688 27.15625 4.414062 C 27.125 4.558594 27.542969 5.273438 27.441406 5.308594 C 27.40625 5.324219 27.363281 5.300781 27.328125 5.292969 C 26.484375 5.136719 25.640625 5.234375 24.804688 5.273438 C 23.6875 5.316406 22.570312 5.457031 21.476562 5.707031 C 21.207031 5.773438 20.929688 5.816406 20.664062 5.902344 L 19.746094 6.175781 L 18.847656 6.515625 C 18.265625 6.742188 17.746094 7.082031 17.128906 7.25 C 17.085938 7.261719 17.035156 7.265625 16.996094 7.285156 C 16.871094 7.3125 16.738281 7.332031 16.601562 7.339844 C 16.480469 7.347656 15.96875 7.222656 15.902344 7.316406 C 15.902344 7.316406 16.023438 7.402344 16.148438 7.492188 C 16.269531 7.582031 16.394531 7.675781 16.386719 7.703125 C 16.375 7.738281 16.292969 7.738281 16.265625 7.75 C 15.671875 7.976562 15.144531 8.328125 14.574219 8.589844 C 13.980469 8.859375 13.367188 9.105469 12.726562 9.292969 L 12.59375 9.335938 C 12.230469 9.441406 11.859375 9.519531 11.480469 9.589844 C 10.046875 9.832031 8.492188 9.855469 6.890625 9.644531 C 5.859375 9.511719 4.804688 9.265625 3.75 8.925781 C 3.472656 8.828125 3.195312 8.738281 2.921875 8.628906 L 2.710938 8.546875 C 2.6875 8.539062 2.660156 8.535156 2.640625 8.519531 C 3.160156 8.929688 3.6875 9.378906 4.277344 9.648438 C 4.449219 9.722656 4.621094 9.78125 4.796875 9.824219 C 5.613281 10.007812 6.421875 10.191406 7.21875 10.289062 C 7.910156 10.375 8.59375 10.410156 9.261719 10.410156 L 9.308594 10.410156 C 9.785156 10.40625 10.253906 10.386719 10.710938 10.34375 C 10.773438 10.335938 10.855469 10.289062 10.910156 10.425781 C 10.960938 10.542969 10.832031 10.828125 10.886719 10.945312 C 10.976562 10.921875 11.195312 10.664062 11.257812 10.59375 C 11.648438 10.214844 12.136719 10.121094 12.632812 10.007812 C 13.976562 9.660156 15.191406 9.117188 16.332031 8.546875 C 16.652344 8.386719 16.96875 8.226562 17.285156 8.066406 C 18.390625 7.496094 19.503906 7.011719 20.679688 6.691406 L 20.714844 6.683594 L 20.902344 6.628906 C 21.109375 6.558594 21.328125 6.515625 21.542969 6.464844 C 21.640625 6.441406 21.699219 6.457031 21.800781 6.621094 C 21.863281 6.726562 21.734375 7.308594 21.800781 7.414062 C 21.722656 7.292969 22.054688 6.980469 22.4375 6.703125 C 22.832031 6.445312 23.273438 6.214844 23.332031 6.207031 C 23.929688 6.132812 24.519531 6.050781 25.125 6.039062 C 26.308594 5.976562 27.496094 6.035156 28.667969 6.183594 C 30.328125 6.386719 31.949219 6.679688 33.527344 7.058594 C 33.675781 7.09375 33.195312 7.558594 33.273438 7.746094 C 33.40625 7.5625 34.050781 7.515625 34.1875 7.476562 C 34.417969 7.398438 34.640625 7.363281 34.867188 7.398438 C 35.664062 7.53125 36.4375 7.863281 37.199219 8.109375 C 38.027344 8.375 38.824219 8.699219 39.605469 9.050781 L 39.800781 9.136719 L 39.992188 9.226562 C 40.832031 9.617188 41.652344 10.039062 42.460938 10.453125 C 42.859375 10.65625 43.25 10.859375 43.640625 11.058594 L 44.226562 11.351562 C 44.304688 11.390625 44.40625 11.394531 44.429688 11.527344 C 44.449219 11.640625 43.996094 11.933594 43.988281 12.066406 C 43.984375 12.113281 44.667969 11.984375 44.699219 11.980469 L 45.027344 11.945312 C 45.464844 11.890625 45.800781 12.113281 46.179688 12.261719 C 46.578125 12.429688 46.984375 12.574219 47.390625 12.714844 C 49.015625 13.289062 50.714844 13.558594 52.292969 13.5 C 53.828125 13.457031 55.285156 13.234375 56.683594 12.972656 C 57.269531 12.859375 57.847656 12.742188 58.417969 12.625 C 58.648438 12.570312 61.011719 11.851562 61.089844 12.132812 C 61.148438 12.324219 60.929688 13.023438 61.035156 13.035156 C 61.332031 12.738281 61.898438 12.125 62.214844 11.964844 C 62.308594 11.914062 62.410156 11.914062 62.507812 11.902344 C 63.792969 11.777344 65.058594 11.75 66.285156 11.835938 C 66.6875 11.324219 67.328125 11.042969 68.019531 10.894531 " fill-opacity="1" fill-rule="nonzero"/></g><path fill="#c39d35" d="M 82.222656 24.800781 C 82.53125 24.675781 83.480469 25.589844 83.792969 25.558594 C 83.824219 25.449219 83.425781 25.140625 83.324219 25.105469 C 83.617188 25.183594 84.898438 25.617188 85.199219 25.734375 C 85.792969 25.972656 86.449219 26.101562 87.117188 26.15625 C 88.191406 26.238281 89.292969 26.128906 90.386719 25.992188 C 90.566406 25.671875 86.886719 26.070312 86.152344 25.636719 C 87.121094 25.628906 87.886719 25.3125 88.488281 25.175781 C 88.660156 24.90625 87.441406 25.203125 86.914062 25.257812 C 85.671875 25.386719 83.382812 25.214844 82.457031 24.511719 C 82.519531 24.484375 84.050781 24.160156 84.507812 24.054688 C 85.011719 23.9375 85.511719 23.777344 86.011719 23.632812 C 86.503906 23.492188 86.621094 23.667969 86.683594 24.046875 C 86.71875 24.246094 87.367188 24.015625 87.558594 23.988281 C 87.957031 23.933594 88.363281 23.910156 88.761719 23.921875 C 89.484375 23.9375 90.644531 24.011719 91.136719 24.472656 C 91.277344 24.605469 90.90625 24.800781 90.859375 24.898438 C 90.742188 25.140625 90.910156 25.183594 91.128906 25.304688 C 91.910156 25.734375 92.75 25.953125 93.667969 26.128906 C 94.011719 26.191406 92.855469 27.21875 92.734375 27.3125 C 92.113281 27.804688 91.382812 28.191406 90.589844 28.371094 C 89.472656 28.628906 88.746094 28.277344 87.792969 27.949219 C 87.820312 28.097656 87.902344 28.238281 87.964844 28.378906 C 87.976562 28.40625 87.988281 28.433594 87.980469 28.460938 C 87.96875 28.496094 87.929688 28.519531 87.894531 28.539062 C 87.078125 28.980469 86.207031 28.78125 85.550781 28.34375 C 84.925781 27.925781 84.566406 27.28125 84.148438 26.710938 C 84.238281 26.785156 84.1875 26.9375 84.074219 27.003906 C 83.957031 27.066406 83.8125 27.054688 83.707031 27 C 83.597656 26.945312 83.523438 26.859375 83.449219 26.773438 C 83.320312 26.613281 82.191406 24.816406 82.222656 24.800781 " fill-opacity="1" fill-rule="nonzero"/><g clip-path="url(#d708d26dfc)"><path fill="#c39d35" d="M 85.832031 22.90625 C 86.121094 22.980469 86.832031 22.058594 87.113281 22.042969 C 87.152344 22.136719 86.84375 22.457031 86.757812 22.5 C 87.007812 22.394531 88.074219 21.847656 88.320312 21.707031 C 88.8125 21.421875 89.371094 21.222656 89.949219 21.089844 C 90.878906 20.878906 91.863281 20.832031 92.835938 20.808594 C 93.039062 21.066406 89.757812 21.195312 89.171875 21.667969 C 90.023438 21.550781 90.730469 21.730469 91.28125 21.773438 C 91.460938 21.988281 90.355469 21.882812 89.886719 21.902344 C 88.78125 21.949219 86.796875 22.398438 86.074219 23.132812 C 86.132812 23.152344 87.519531 23.234375 87.933594 23.269531 C 88.390625 23.304688 88.851562 23.382812 89.308594 23.441406 C 89.753906 23.503906 89.835938 23.335938 89.84375 22.996094 C 89.847656 22.816406 90.445312 22.933594 90.617188 22.933594 C 90.972656 22.929688 91.332031 22.894531 91.679688 22.835938 C 92.308594 22.726562 93.316406 22.511719 93.691406 22.042969 C 93.796875 21.910156 93.449219 21.789062 93.390625 21.707031 C 93.257812 21.511719 93.402344 21.453125 93.578125 21.316406 C 94.207031 20.839844 94.914062 20.539062 95.695312 20.269531 C 95.988281 20.167969 94.84375 19.417969 94.722656 19.347656 C 94.121094 19 93.425781 18.753906 92.707031 18.699219 C 91.695312 18.617188 91.101562 19.019531 90.308594 19.429688 C 90.316406 19.296875 90.371094 19.160156 90.40625 19.03125 C 90.414062 19.007812 90.417969 18.980469 90.40625 18.957031 C 90.394531 18.929688 90.355469 18.914062 90.324219 18.898438 C 89.550781 18.617188 88.8125 18.90625 88.296875 19.371094 C 87.800781 19.820312 87.566406 20.429688 87.277344 20.988281 C 87.34375 20.910156 87.277344 20.78125 87.171875 20.742188 C 87.0625 20.699219 86.9375 20.726562 86.847656 20.789062 C 86.761719 20.851562 86.707031 20.9375 86.65625 21.023438 C 86.5625 21.179688 85.804688 22.902344 85.832031 22.90625 " fill-opacity="1" fill-rule="nonzero"/></g><path fill="#c39d35" d="M 69.777344 9.183594 C 69.632812 8.921875 68.472656 9.019531 68.273438 8.824219 C 68.3125 8.730469 68.761719 8.742188 68.847656 8.773438 C 68.601562 8.664062 67.480469 8.246094 67.207031 8.160156 C 66.667969 7.988281 66.144531 7.710938 65.65625 7.371094 C 64.871094 6.828125 64.175781 6.136719 63.5 5.429688 C 63.554688 5.109375 65.863281 7.441406 66.609375 7.554688 C 65.949219 7.007812 65.601562 6.363281 65.261719 5.929688 C 65.296875 5.652344 65.964844 6.539062 66.296875 6.871094 C 67.078125 7.652344 68.75 8.816406 69.777344 8.851562 C 69.75 8.796875 68.878906 7.71875 68.625 7.390625 C 68.34375 7.027344 68.089844 6.636719 67.824219 6.257812 C 67.566406 5.886719 67.390625 5.941406 67.132812 6.167969 C 67 6.285156 66.683594 5.761719 66.566406 5.636719 C 66.320312 5.375 66.058594 5.132812 65.777344 4.917969 C 65.273438 4.527344 64.433594 3.925781 63.835938 3.96875 C 63.667969 3.976562 63.8125 4.316406 63.789062 4.414062 C 63.734375 4.644531 63.59375 4.582031 63.375 4.542969 C 62.597656 4.402344 61.898438 4.082031 61.171875 3.6875 C 60.898438 3.539062 61.121094 4.890625 61.148438 5.023438 C 61.300781 5.707031 61.585938 6.382812 62.027344 6.953125 C 62.65625 7.753906 63.347656 7.917969 64.1875 8.226562 C 64.085938 8.3125 63.949219 8.363281 63.828125 8.425781 C 63.804688 8.4375 63.78125 8.449219 63.773438 8.472656 C 63.761719 8.503906 63.773438 8.539062 63.789062 8.574219 C 64.101562 9.335938 64.8125 9.6875 65.503906 9.753906 C 66.167969 9.816406 66.777344 9.574219 67.382812 9.414062 C 67.28125 9.417969 67.230469 9.550781 67.273438 9.660156 C 67.316406 9.765625 67.421875 9.839844 67.527344 9.863281 C 67.628906 9.886719 67.730469 9.871094 67.828125 9.847656 C 68.007812 9.8125 69.789062 9.210938 69.777344 9.183594 " fill-opacity="1" fill-rule="nonzero"/><path fill="#c39d35" d="M 68.292969 23.199219 C 68.105469 23.414062 67.035156 23.09375 66.8125 23.238281 C 66.832031 23.335938 67.253906 23.410156 67.339844 23.398438 C 67.089844 23.453125 65.953125 23.625 65.679688 23.652344 C 65.136719 23.703125 64.59375 23.863281 64.066406 24.082031 C 63.222656 24.4375 62.433594 24.949219 61.660156 25.476562 C 61.648438 25.789062 64.277344 24.058594 64.996094 24.101562 C 64.269531 24.484375 63.816406 25.019531 63.414062 25.359375 C 63.390625 25.628906 64.195312 24.925781 64.570312 24.679688 C 65.457031 24.101562 67.257812 23.339844 68.226562 23.511719 C 68.191406 23.554688 67.160156 24.398438 66.855469 24.652344 C 66.519531 24.9375 66.207031 25.253906 65.882812 25.558594 C 65.566406 25.855469 65.410156 25.769531 65.214844 25.507812 C 65.113281 25.367188 64.710938 25.796875 64.578125 25.890625 C 64.296875 26.089844 64 26.261719 63.695312 26.410156 C 63.144531 26.675781 62.238281 27.074219 61.683594 26.917969 C 61.53125 26.875 61.734375 26.582031 61.730469 26.488281 C 61.726562 26.261719 61.582031 26.292969 61.367188 26.289062 C 60.613281 26.265625 59.890625 26.429688 59.132812 26.65625 C 58.847656 26.738281 59.320312 25.515625 59.375 25.394531 C 59.648438 24.785156 60.054688 24.207031 60.582031 23.761719 C 61.328125 23.132812 62.011719 23.113281 62.859375 22.992188 C 62.777344 22.890625 62.660156 22.816406 62.5625 22.734375 C 62.542969 22.71875 62.523438 22.703125 62.519531 22.675781 C 62.511719 22.648438 62.53125 22.613281 62.550781 22.585938 C 62.996094 21.933594 63.730469 21.742188 64.394531 21.820312 C 65.03125 21.890625 65.554688 22.238281 66.089844 22.507812 C 65.996094 22.484375 65.976562 22.347656 66.035156 22.257812 C 66.097656 22.164062 66.210938 22.117188 66.316406 22.113281 C 66.417969 22.113281 66.507812 22.148438 66.597656 22.1875 C 66.757812 22.257812 68.3125 23.175781 68.292969 23.199219 " fill-opacity="1" fill-rule="nonzero"/><path fill="#c39d35" d="M 79.769531 43.542969 C 79.894531 43.855469 78.972656 44.792969 78.996094 45.105469 C 79.105469 45.140625 79.417969 44.742188 79.453125 44.644531 C 79.375 44.9375 78.925781 46.210938 78.804688 46.511719 C 78.558594 47.101562 78.421875 47.757812 78.363281 48.421875 C 78.265625 49.496094 78.363281 50.601562 78.484375 51.695312 C 78.804688 51.878906 78.449219 48.191406 78.890625 47.464844 C 78.890625 48.433594 79.195312 49.203125 79.324219 49.808594 C 79.59375 49.980469 79.308594 48.757812 79.261719 48.230469 C 79.148438 46.988281 79.347656 44.699219 80.0625 43.78125 C 80.085938 43.84375 80.394531 45.382812 80.492188 45.839844 C 80.605469 46.34375 80.757812 46.847656 80.894531 47.347656 C 81.03125 47.84375 80.855469 47.957031 80.476562 48.015625 C 80.273438 48.046875 80.5 48.699219 80.523438 48.890625 C 80.574219 49.289062 80.589844 49.695312 80.578125 50.09375 C 80.550781 50.816406 80.460938 51.976562 79.996094 52.464844 C 79.863281 52.601562 79.671875 52.230469 79.574219 52.179688 C 79.335938 52.058594 79.289062 52.226562 79.164062 52.445312 C 78.726562 53.21875 78.496094 54.058594 78.3125 54.972656 C 78.246094 55.316406 77.230469 54.148438 77.140625 54.027344 C 76.65625 53.402344 76.273438 52.664062 76.105469 51.871094 C 75.863281 50.746094 76.21875 50.027344 76.558594 49.078125 C 76.414062 49.105469 76.269531 49.1875 76.128906 49.246094 C 76.101562 49.257812 76.074219 49.269531 76.046875 49.257812 C 76.011719 49.246094 75.988281 49.210938 75.96875 49.171875 C 75.535156 48.351562 75.746094 47.480469 76.191406 46.832031 C 76.617188 46.210938 77.261719 45.859375 77.839844 45.449219 C 77.765625 45.535156 77.613281 45.484375 77.550781 45.371094 C 77.488281 45.253906 77.5 45.109375 77.554688 45 C 77.609375 44.894531 77.699219 44.820312 77.785156 44.75 C 77.945312 44.621094 79.757812 43.511719 79.769531 43.542969 " fill-opacity="1" fill-rule="nonzero"/><path fill="#c39d35" d="M 85.996094 70.476562 C 85.75 70.652344 85.980469 71.8125 85.808594 72.039062 C 85.707031 72.007812 85.667969 71.554688 85.691406 71.460938 C 85.605469 71.722656 85.3125 72.902344 85.253906 73.191406 C 85.144531 73.757812 84.925781 74.320312 84.640625 74.851562 C 84.179688 75.707031 83.558594 76.488281 82.921875 77.253906 C 82.589844 77.234375 84.6875 74.632812 84.714844 73.867188 C 84.234375 74.597656 83.625 75.023438 83.226562 75.414062 C 82.9375 75.410156 83.757812 74.632812 84.058594 74.257812 C 84.757812 73.382812 85.746094 71.558594 85.660156 70.511719 C 85.609375 70.546875 84.617188 71.550781 84.316406 71.847656 C 83.980469 72.171875 83.613281 72.472656 83.261719 72.785156 C 82.917969 73.089844 82.992188 73.261719 83.25 73.492188 C 83.386719 73.617188 82.894531 73.996094 82.78125 74.128906 C 82.542969 74.40625 82.328125 74.703125 82.144531 75.007812 C 81.804688 75.566406 81.292969 76.480469 81.402344 77.082031 C 81.433594 77.25 81.761719 77.066406 81.863281 77.078125 C 82.101562 77.105469 82.050781 77.253906 82.039062 77.480469 C 81.984375 78.28125 81.742188 79.027344 81.425781 79.804688 C 81.304688 80.101562 82.648438 79.722656 82.777344 79.675781 C 83.453125 79.445312 84.105469 79.078125 84.628906 78.566406 C 85.367188 77.839844 85.457031 77.121094 85.671875 76.238281 C 85.769531 76.332031 85.835938 76.464844 85.914062 76.578125 C 85.925781 76.597656 85.941406 76.621094 85.96875 76.628906 C 86 76.636719 86.035156 76.621094 86.066406 76.601562 C 86.800781 76.199219 87.074219 75.441406 87.0625 74.730469 C 87.050781 74.050781 86.738281 73.464844 86.507812 72.871094 C 86.519531 72.972656 86.660156 73.007812 86.765625 72.953125 C 86.871094 72.898438 86.929688 72.78125 86.941406 72.675781 C 86.953125 72.566406 86.925781 72.464844 86.894531 72.367188 C 86.835938 72.191406 86.023438 70.460938 85.996094 70.476562 " fill-opacity="1" fill-rule="nonzero"/><path fill="#c39d35" d="M 90.539062 83.269531 C 90.683594 83.472656 90.230469 84.304688 90.3125 84.523438 C 90.394531 84.53125 90.53125 84.191406 90.539062 84.113281 C 90.539062 84.339844 90.484375 85.332031 90.457031 85.566406 C 90.40625 86.035156 90.441406 86.527344 90.535156 87.015625 C 90.683594 87.804688 90.972656 88.578125 91.277344 89.34375 C 91.535156 89.421875 90.550781 86.835938 90.710938 86.238281 C 90.902344 86.933594 91.269531 87.429688 91.480469 87.84375 C 91.703125 87.921875 91.261719 87.09375 91.121094 86.722656 C 90.792969 85.851562 90.472656 84.171875 90.785156 83.390625 C 90.816406 83.433594 91.335938 84.484375 91.496094 84.792969 C 91.675781 85.136719 91.886719 85.472656 92.078125 85.808594 C 92.273438 86.136719 92.171875 86.25 91.921875 86.359375 C 91.789062 86.414062 92.074219 86.84375 92.128906 86.976562 C 92.246094 87.257812 92.339844 87.542969 92.40625 87.832031 C 92.535156 88.355469 92.707031 89.203125 92.480469 89.632812 C 92.414062 89.753906 92.207031 89.523438 92.128906 89.503906 C 91.941406 89.457031 91.941406 89.585938 91.898438 89.765625 C 91.75 90.394531 91.757812 91.039062 91.8125 91.726562 C 91.835938 91.984375 90.898438 91.320312 90.808594 91.25 C 90.347656 90.886719 89.9375 90.421875 89.65625 89.878906 C 89.265625 89.117188 89.367188 88.539062 89.414062 87.796875 C 89.316406 87.84375 89.234375 87.925781 89.148438 87.992188 C 89.132812 88.003906 89.117188 88.019531 89.09375 88.015625 C 89.070312 88.011719 89.042969 87.992188 89.023438 87.96875 C 88.558594 87.453125 88.53125 86.792969 88.707031 86.25 C 88.878906 85.730469 89.257812 85.367188 89.578125 84.972656 C 89.542969 85.046875 89.425781 85.035156 89.359375 84.964844 C 89.292969 84.894531 89.273438 84.785156 89.289062 84.699219 C 89.308594 84.613281 89.351562 84.542969 89.402344 84.480469 C 89.484375 84.359375 90.523438 83.25 90.539062 83.269531 " fill-opacity="1" fill-rule="nonzero"/><path fill="#c39d35" d="M 65.234375 21.328125 C 65.171875 21.097656 64.25 20.960938 64.128906 20.773438 C 64.175781 20.707031 64.523438 20.800781 64.585938 20.839844 C 64.414062 20.707031 63.617188 20.175781 63.417969 20.0625 C 63.027344 19.828125 62.667969 19.519531 62.351562 19.164062 C 61.835938 18.597656 61.421875 17.929688 61.023438 17.257812 C 61.125 17.019531 62.5 19.257812 63.0625 19.480469 C 62.644531 18.933594 62.492188 18.367188 62.304688 17.96875 C 62.382812 17.757812 62.746094 18.570312 62.941406 18.890625 C 63.40625 19.644531 64.5 20.855469 65.296875 21.070312 C 65.285156 21.023438 64.800781 20.019531 64.664062 19.71875 C 64.511719 19.382812 64.382812 19.035156 64.246094 18.691406 C 64.113281 18.355469 63.964844 18.363281 63.722656 18.492188 C 63.597656 18.5625 63.445312 18.097656 63.375 17.976562 C 63.234375 17.726562 63.070312 17.492188 62.894531 17.273438 C 62.570312 16.875 62.023438 16.253906 61.550781 16.179688 C 61.417969 16.15625 61.46875 16.449219 61.433594 16.519531 C 61.347656 16.6875 61.25 16.613281 61.085938 16.542969 C 60.507812 16.292969 60.019531 15.914062 59.523438 15.472656 C 59.335938 15.308594 59.265625 16.40625 59.261719 16.511719 C 59.257812 17.074219 59.355469 17.65625 59.597656 18.175781 C 59.941406 18.917969 60.453125 19.171875 61.050781 19.566406 C 60.953125 19.613281 60.839844 19.628906 60.734375 19.652344 C 60.714844 19.660156 60.695312 19.664062 60.683594 19.679688 C 60.667969 19.703125 60.671875 19.734375 60.675781 19.761719 C 60.78125 20.414062 61.269531 20.816406 61.800781 20.996094 C 62.308594 21.164062 62.824219 21.085938 63.328125 21.074219 C 63.246094 21.058594 63.183594 21.152344 63.195312 21.242188 C 63.210938 21.335938 63.28125 21.410156 63.355469 21.449219 C 63.433594 21.484375 63.515625 21.488281 63.597656 21.492188 C 63.742188 21.496094 65.242188 21.351562 65.234375 21.328125 " fill-opacity="1" fill-rule="nonzero"/><path fill="#c39d35" d="M 51.378906 14.71875 C 51.109375 14.589844 50.222656 15.339844 49.945312 15.296875 C 49.925781 15.195312 50.296875 14.949219 50.386719 14.921875 C 50.121094 14.972656 48.964844 15.28125 48.691406 15.371094 C 48.152344 15.546875 47.566406 15.625 46.972656 15.632812 C 46.015625 15.644531 45.046875 15.480469 44.089844 15.300781 C 43.949219 15.007812 47.183594 15.570312 47.855469 15.226562 C 46.996094 15.164062 46.339844 14.839844 45.8125 14.683594 C 45.679688 14.4375 46.742188 14.769531 47.203125 14.851562 C 48.292969 15.035156 50.328125 15.015625 51.1875 14.445312 C 51.136719 14.417969 49.796875 14.042969 49.398438 13.921875 C 48.960938 13.792969 48.527344 13.621094 48.09375 13.464844 C 47.667969 13.3125 47.554688 13.460938 47.476562 13.792969 C 47.433594 13.964844 46.875 13.722656 46.707031 13.691406 C 46.355469 13.617188 46 13.574219 45.648438 13.558594 C 45.007812 13.535156 43.976562 13.535156 43.511719 13.914062 C 43.382812 14.019531 43.695312 14.210938 43.734375 14.304688 C 43.824219 14.523438 43.675781 14.550781 43.472656 14.648438 C 42.757812 14.980469 42 15.128906 41.179688 15.226562 C 40.871094 15.265625 41.835938 16.238281 41.9375 16.332031 C 42.457031 16.800781 43.082031 17.1875 43.773438 17.390625 C 44.746094 17.679688 45.410156 17.414062 46.269531 17.179688 C 46.234375 17.308594 46.15625 17.429688 46.09375 17.546875 C 46.082031 17.570312 46.070312 17.59375 46.074219 17.621094 C 46.082031 17.652344 46.117188 17.675781 46.144531 17.691406 C 46.84375 18.132812 47.625 18.007812 48.230469 17.660156 C 48.804688 17.324219 49.160156 16.777344 49.5625 16.292969 C 49.480469 16.355469 49.519531 16.492188 49.617188 16.558594 C 49.710938 16.621094 49.84375 16.617188 49.941406 16.578125 C 50.039062 16.535156 50.109375 16.460938 50.179688 16.390625 C 50.300781 16.257812 51.40625 14.730469 51.378906 14.71875 " fill-opacity="1" fill-rule="nonzero"/><path fill="#c39d35" d="M 15.84375 5.050781 C 15.664062 5.207031 14.828125 4.820312 14.625 4.910156 C 14.632812 4.992188 14.96875 5.101562 15.042969 5.101562 C 14.828125 5.121094 13.878906 5.128906 13.652344 5.117188 C 13.203125 5.097656 12.738281 5.164062 12.28125 5.28125 C 11.550781 5.472656 10.84375 5.800781 10.152344 6.144531 C 10.101562 6.398438 12.457031 5.285156 13.042969 5.40625 C 12.402344 5.632812 11.96875 6.019531 11.597656 6.25 C 11.546875 6.46875 12.289062 5.988281 12.625 5.828125 C 13.417969 5.457031 14.980469 5.046875 15.753906 5.296875 C 15.71875 5.332031 14.777344 5.898438 14.5 6.074219 C 14.191406 6.269531 13.894531 6.492188 13.597656 6.699219 C 13.304688 6.90625 13.1875 6.816406 13.054688 6.582031 C 12.988281 6.457031 12.609375 6.757812 12.488281 6.820312 C 12.238281 6.949219 11.972656 7.058594 11.707031 7.144531 C 11.222656 7.296875 10.4375 7.515625 10.003906 7.324219 C 9.878906 7.269531 10.078125 7.054688 10.089844 6.976562 C 10.113281 6.792969 9.992188 6.800781 9.816406 6.773438 C 9.199219 6.667969 8.589844 6.714844 7.941406 6.8125 C 7.699219 6.847656 8.230469 5.902344 8.289062 5.808594 C 8.585938 5.34375 8.984375 4.914062 9.464844 4.613281 C 10.152344 4.183594 10.714844 4.25 11.421875 4.246094 C 11.367188 4.15625 11.28125 4.082031 11.207031 4.003906 C 11.191406 3.988281 11.179688 3.972656 11.179688 3.949219 C 11.179688 3.925781 11.199219 3.902344 11.21875 3.878906 C 11.65625 3.398438 12.28125 3.328125 12.816406 3.46875 C 13.328125 3.601562 13.714844 3.945312 14.121094 4.230469 C 14.046875 4.199219 14.046875 4.085938 14.109375 4.015625 C 14.167969 3.949219 14.269531 3.921875 14.351562 3.933594 C 14.433594 3.945312 14.503906 3.984375 14.574219 4.027344 C 14.695312 4.101562 15.859375 5.035156 15.84375 5.050781 " fill-opacity="1" fill-rule="nonzero"/><path fill="#c39d35" d="M 67.101562 11.199219 C 67.320312 11.09375 67.558594 11.011719 67.804688 10.945312 C 65.414062 10.417969 61.285156 9.535156 60.347656 9.242188 C 59.863281 9.089844 59.382812 8.90625 58.90625 8.726562 C 58.246094 8.476562 57.59375 8.21875 56.960938 7.902344 C 56.914062 7.878906 56.851562 7.804688 56.867188 7.742188 C 56.882812 7.691406 56.941406 7.695312 56.984375 7.695312 C 57.5625 7.71875 58.152344 7.808594 58.730469 7.785156 C 59.011719 7.769531 59.386719 7.644531 59.492188 7.351562 C 59.265625 7.433594 59.058594 7.492188 58.8125 7.464844 C 58.570312 7.441406 58.339844 7.363281 58.105469 7.292969 C 57.550781 7.121094 56.992188 6.910156 56.40625 6.894531 C 56.097656 6.882812 55.734375 6.882812 55.640625 7.242188 C 55.582031 7.46875 55.566406 7.65625 55.460938 7.871094 C 55.253906 8.308594 55.304688 8.582031 55.726562 8.890625 C 56.09375 9.160156 56.539062 9.128906 56.9375 9.339844 C 57.703125 9.691406 57.882812 10.320312 57.894531 10.070312 C 57.902344 9.871094 57.847656 9.667969 57.753906 9.492188 C 57.558594 9.128906 57.222656 8.832031 56.875 8.613281 C 57.6875 9.125 58.609375 9.417969 59.539062 9.636719 C 60.316406 9.820312 64.460938 10.734375 67.101562 11.199219 " fill-opacity="1" fill-rule="nonzero"/><path fill="#c39d35" d="M 84.390625 28.292969 C 84.226562 28.242188 84.082031 28.167969 83.953125 28.0625 C 87.726562 30.542969 89.015625 35.0625 89.15625 36.0625 C 89.230469 36.566406 89.273438 37.078125 89.316406 37.582031 C 89.375 38.285156 89.421875 38.988281 89.410156 39.695312 C 89.410156 39.746094 89.367188 39.835938 89.304688 39.847656 C 89.253906 39.859375 89.230469 39.804688 89.214844 39.765625 C 88.984375 39.234375 88.8125 38.664062 88.539062 38.152344 C 88.40625 37.902344 88.128906 37.617188 87.820312 37.652344 C 87.996094 37.820312 88.132812 37.980469 88.214844 38.214844 C 88.296875 38.441406 88.328125 38.6875 88.363281 38.925781 C 88.453125 39.5 88.503906 40.097656 88.738281 40.632812 C 88.863281 40.914062 89.019531 41.242188 89.382812 41.171875 C 89.613281 41.128906 89.789062 41.0625 90.027344 41.0625 C 90.511719 41.0625 90.738281 40.898438 90.835938 40.382812 C 90.917969 39.933594 90.699219 39.550781 90.714844 39.09375 C 90.703125 38.253906 91.191406 37.824219 90.960938 37.917969 C 90.777344 37.996094 90.617188 38.136719 90.5 38.296875 C 90.257812 38.628906 90.136719 39.058594 90.089844 39.464844 C 90.203125 38.511719 90.070312 37.554688 89.863281 36.621094 C 88.417969 30.203125 86.566406 29.84375 84.390625 28.292969 " fill-opacity="1" fill-rule="nonzero"/><path fill="#c39d35" d="M 74.015625 12 C 74.691406 12.09375 75.359375 12.359375 75.984375 12.65625 C 76.066406 12.695312 75.449219 12.839844 75.421875 12.84375 C 74.988281 12.875 74.5625 12.957031 74.152344 13.085938 C 73.464844 13.304688 71.183594 15.171875 72.761719 15.90625 C 73.089844 16.058594 73.664062 16.011719 74.003906 16 C 74.328125 15.992188 73.890625 15.660156 73.8125 15.601562 C 72.859375 14.84375 75.199219 13.734375 75.566406 13.4375 C 75.871094 13.195312 75.949219 13.78125 75.882812 14 C 75.789062 14.300781 75.515625 14.4375 75.324219 14.652344 C 75.164062 14.832031 75.066406 15.058594 75.28125 15.269531 C 75.402344 15.386719 75.570312 15.429688 75.730469 15.417969 C 76.144531 15.390625 76.707031 15.113281 76.886719 14.703125 C 77.09375 14.242188 76.8125 13.765625 76.613281 13.351562 C 76.574219 13.269531 76.480469 13.125 76.511719 13.035156 C 76.652344 12.621094 77.695312 13.460938 77.789062 13.667969 C 78.191406 14.570312 77.851562 15.285156 77.238281 15.875 C 76.425781 16.65625 75.34375 16.878906 74.257812 16.960938 C 73.453125 17.019531 72.644531 16.894531 71.960938 16.382812 C 71.410156 15.972656 71.183594 15.429688 70.976562 14.773438 C 70.855469 14.398438 70.710938 14.054688 70.480469 13.742188 C 70.148438 13.304688 70.089844 13.269531 70.59375 13.011719 C 71.222656 12.695312 71.890625 12.367188 72.554688 12.128906 C 73.03125 11.957031 73.523438 11.933594 74.015625 12 " fill-opacity="1" fill-rule="nonzero"/><path fill="#c39d35" d="M 75.574219 10.273438 C 75.3125 10.417969 75.054688 10.574219 74.78125 10.710938 C 74.527344 10.835938 74.328125 11.15625 74.765625 11.171875 C 75.171875 11.183594 75.597656 11.195312 75.953125 11.414062 C 76.210938 11.574219 76.304688 11.890625 76.519531 12.097656 C 76.75 12.3125 77.042969 12.292969 77.316406 12.222656 C 78.136719 12.007812 78.617188 12.441406 79.289062 12.910156 C 79.5625 13.097656 79.824219 13.320312 79.980469 13.621094 C 80.011719 13.679688 80.039062 13.746094 80.085938 13.796875 C 80.265625 13.992188 80.394531 13.71875 80.4375 13.566406 C 80.597656 13.003906 80.648438 12.539062 80.515625 11.945312 C 80.382812 11.324219 80.015625 10.769531 79.921875 10.152344 C 79.894531 9.96875 79.875 9.785156 79.8125 9.613281 C 79.636719 9.132812 79.214844 9.160156 78.832031 9.28125 C 77.996094 9.546875 77.117188 9.664062 76.289062 9.945312 C 76.035156 10.035156 75.800781 10.148438 75.574219 10.273438 " fill-opacity="1" fill-rule="nonzero"/><path fill="#c39d35" d="M 73.996094 10.820312 C 73.988281 10.8125 73.980469 10.800781 73.972656 10.792969 C 73.695312 10.453125 73.148438 10.226562 72.78125 10.015625 C 72.535156 9.871094 72.160156 9.519531 71.863281 9.574219 C 71.097656 9.710938 70.753906 10.847656 70.164062 11.269531 C 69.847656 11.5 69.453125 11.585938 69.0625 11.644531 C 68.519531 11.726562 67.964844 11.746094 67.414062 11.785156 C 67.285156 11.796875 67.148438 11.808594 67.054688 11.890625 C 66.957031 11.972656 66.917969 12.109375 66.890625 12.238281 C 66.628906 13.382812 66.820312 14.367188 67.179688 15.488281 C 67.257812 15.738281 67.335938 15.984375 67.414062 16.234375 C 67.449219 16.34375 67.492188 16.433594 67.582031 16.484375 C 67.382812 16.375 68.183594 14.6875 68.28125 14.523438 C 68.816406 13.613281 69.605469 12.90625 70.496094 12.40625 C 71.109375 12.0625 71.761719 11.804688 72.425781 11.585938 C 72.753906 11.476562 73.085938 11.375 73.417969 11.28125 C 73.582031 11.234375 73.960938 11.242188 74.035156 11.039062 C 74.058594 10.96875 74.035156 10.886719 73.996094 10.820312 " fill-opacity="1" fill-rule="nonzero"/><path fill="#c39d35" d="M 78.570312 13.742188 C 78.550781 13.601562 78.554688 13.464844 78.59375 13.339844 C 78.75 12.882812 79.515625 14.136719 79.59375 14.285156 C 80.011719 15.058594 80.191406 15.933594 79.785156 16.726562 C 79.46875 17.339844 78.902344 17.734375 78.402344 18.160156 C 78.160156 18.367188 77.925781 18.582031 77.726562 18.839844 C 77.507812 19.121094 77.433594 19.453125 77.273438 19.773438 C 77.234375 19.855469 77.179688 19.9375 77.105469 19.988281 C 76.753906 20.210938 76.070312 19.707031 75.691406 19.648438 C 73.855469 19.355469 72.003906 19.445312 70.183594 18.949219 C 69.957031 18.886719 69.730469 18.816406 69.5 18.78125 C 69.355469 18.761719 68.976562 18.847656 68.875 18.742188 C 68.828125 18.691406 68.808594 18.621094 68.789062 18.554688 C 68.507812 17.503906 68.1875 16.628906 68.554688 15.582031 C 68.777344 15.074219 69.226562 14.730469 69.476562 14.238281 C 69.578125 14.03125 69.769531 14.617188 69.8125 14.71875 C 69.9375 14.988281 70.058594 15.257812 70.199219 15.519531 C 70.492188 16.0625 70.855469 16.558594 71.339844 16.929688 C 72.234375 17.617188 73.191406 17.667969 74.230469 17.59375 C 75.449219 17.507812 76.613281 17.484375 77.644531 16.746094 C 77.910156 16.558594 78.175781 16.339844 78.285156 16.011719 C 78.441406 15.570312 78.664062 15.097656 78.695312 14.613281 C 78.710938 14.335938 78.605469 14.027344 78.570312 13.742188 " fill-opacity="1" fill-rule="nonzero"/><path fill="#c39d35" d="M 66.0625 18.472656 C 66.132812 17.988281 66.28125 17.480469 66.5625 17.089844 C 66.664062 16.945312 66.804688 16.796875 66.960938 16.714844 C 67.480469 16.449219 67.609375 17.410156 67.726562 17.757812 C 67.910156 18.300781 68.195312 19.144531 68.746094 19.378906 C 68.945312 19.46875 69.164062 19.496094 69.378906 19.53125 C 70.652344 19.730469 71.910156 20.164062 73.160156 20.515625 C 72.996094 20.46875 72.335938 21.003906 72.167969 21.085938 C 71.757812 21.289062 71.328125 21.457031 70.890625 21.582031 C 69.625 21.9375 68.09375 22.125 66.867188 21.382812 C 66.683594 21.273438 66.507812 21.136719 66.320312 21.039062 C 65.941406 20.84375 65.6875 20.730469 65.820312 20.242188 C 65.976562 19.660156 65.980469 19.066406 66.0625 18.472656 " fill-opacity="1" fill-rule="nonzero"/><path fill="#c39d35" d="M 71.148438 22.046875 C 71.617188 21.804688 72.199219 21.714844 72.695312 21.519531 C 73.21875 21.3125 73.738281 20.996094 74.28125 20.796875 C 75.035156 20.519531 75.742188 20.722656 76.519531 20.75 C 77.894531 20.800781 79.253906 19.683594 80.492188 19.195312 C 80.800781 19.074219 80.632812 20.46875 80.613281 20.671875 C 80.566406 21.109375 80.429688 21.515625 80.191406 21.867188 C 79.824219 22.410156 79.3125 22.816406 78.785156 23.183594 C 78.445312 23.414062 78.101562 23.632812 77.75 23.835938 C 77.023438 24.253906 76.371094 23.847656 75.648438 23.574219 C 74.898438 23.289062 74.128906 23.09375 73.363281 22.882812 C 72.972656 22.773438 72.578125 22.65625 72.191406 22.523438 C 71.910156 22.425781 71.320312 22.296875 71.148438 22.046875 " fill-opacity="1" fill-rule="nonzero"/><path fill="#c39d35" d="M 78.492188 19.78125 C 78.164062 19.957031 77.820312 20.066406 78.128906 19.609375 C 78.464844 19.105469 78.867188 18.660156 79.273438 18.222656 C 79.710938 17.746094 80.175781 17.269531 80.464844 16.667969 C 80.648438 16.285156 80.675781 15.855469 80.734375 15.433594 C 80.792969 14.992188 80.9375 14.53125 81.011719 14.082031 C 81.074219 13.6875 80.894531 13.019531 81.070312 12.691406 C 81.375 12.136719 83.558594 13.886719 83.90625 14.183594 C 84.292969 14.515625 84.636719 14.9375 84.769531 15.441406 C 84.78125 15.488281 84.792969 15.539062 84.773438 15.582031 C 84.695312 15.742188 84.378906 15.847656 84.246094 15.925781 C 83.972656 16.085938 83.71875 16.273438 83.480469 16.484375 C 83.199219 16.738281 82.945312 17.023438 82.65625 17.273438 C 81.53125 18.25 80.042969 18.585938 78.898438 19.523438 C 78.828125 19.582031 78.660156 19.691406 78.492188 19.78125 " fill-opacity="1" fill-rule="nonzero"/><path fill="#c39d35" d="M 83.988281 12.695312 C 83.828125 12.273438 83.582031 11.867188 83.394531 11.464844 C 83.292969 11.242188 83.191406 11.019531 83.144531 10.78125 C 83.082031 10.476562 83.03125 10.308594 82.71875 10.308594 C 82.566406 10.308594 82.417969 10.269531 82.269531 10.226562 C 81.945312 10.136719 80.632812 9.453125 80.632812 10.117188 C 80.636719 10.703125 80.824219 11.285156 80.824219 11.855469 C 80.824219 11.964844 80.804688 12.078125 80.84375 12.183594 C 80.925781 12.410156 81.222656 12.273438 81.386719 12.292969 C 81.628906 12.320312 81.863281 12.359375 82.101562 12.417969 C 82.574219 12.542969 83.035156 12.734375 83.488281 12.925781 C 83.683594 13.007812 83.890625 13.121094 84.089844 13.160156 C 84.121094 13.113281 84.105469 13.078125 84.089844 13.023438 C 84.0625 12.910156 84.027344 12.804688 83.988281 12.695312 " fill-opacity="1" fill-rule="nonzero"/><path fill="#c39d35" d="M 81.335938 19.375 C 81.519531 18.984375 81.796875 18.675781 82.160156 18.367188 C 82.476562 18.097656 82.753906 17.777344 83.046875 17.484375 C 83.394531 17.136719 83.753906 16.769531 84.171875 16.515625 C 84.5625 16.277344 84.828125 16.542969 84.867188 16.980469 C 84.917969 17.605469 84.851562 18.121094 85.160156 18.710938 C 85.222656 18.828125 85.289062 18.9375 85.320312 19.0625 C 85.414062 19.429688 85.039062 19.550781 84.804688 19.699219 C 84.480469 19.90625 84.152344 20.109375 83.824219 20.3125 C 83.167969 20.722656 82.515625 21.136719 81.890625 21.589844 C 81.550781 21.835938 81.015625 22.246094 80.621094 22.230469 C 80.84375 21.523438 81.019531 20.867188 81.125 20.121094 C 81.164062 19.835938 81.234375 19.59375 81.335938 19.375 " fill-opacity="1" fill-rule="nonzero"/><path fill="#c39d35" d="M 68.644531 22.296875 C 68.851562 22.257812 69.042969 22.28125 69.328125 22.34375 C 70.277344 22.558594 71.195312 22.941406 72.136719 23.199219 C 72.792969 23.378906 73.453125 23.539062 74.113281 23.675781 C 74.261719 23.703125 75.824219 24.089844 75.882812 24.007812 C 75.699219 24.269531 75.25 24.273438 74.972656 24.324219 C 74.523438 24.40625 74.074219 24.488281 73.625 24.570312 C 72.992188 24.679688 72.34375 24.757812 71.71875 24.890625 C 71.378906 24.964844 71.042969 25.066406 70.707031 25.164062 C 70.421875 25.242188 69.957031 25.539062 69.675781 25.296875 C 69.558594 25.199219 69.519531 25.027344 69.484375 24.875 C 69.328125 24.148438 68.285156 22.363281 68.644531 22.296875 " fill-opacity="1" fill-rule="nonzero"/><path fill="#c39d35" d="M 69.734375 35.363281 C 69.484375 34.820312 69.359375 34.183594 69.28125 33.5625 C 69.269531 33.484375 69.667969 33.855469 69.683594 33.875 C 69.910156 34.175781 70.167969 34.445312 70.457031 34.675781 C 70.9375 35.0625 73.375 35.722656 73.160156 34.164062 C 73.113281 33.84375 72.808594 33.445312 72.640625 33.199219 C 72.484375 32.96875 72.449219 33.46875 72.441406 33.558594 C 72.34375 34.667969 70.433594 33.554688 70.046875 33.445312 C 69.726562 33.351562 70.113281 32.976562 70.300781 32.910156 C 70.5625 32.816406 70.792969 32.941406 71.042969 32.964844 C 71.246094 32.984375 71.457031 32.933594 71.507812 32.660156 C 71.535156 32.511719 71.484375 32.363281 71.402344 32.25 C 71.1875 31.960938 70.71875 31.699219 70.335938 31.789062 C 69.90625 31.890625 69.695312 32.351562 69.488281 32.726562 C 69.449219 32.796875 69.386719 32.945312 69.304688 32.972656 C 68.941406 33.09375 69.054688 31.871094 69.160156 31.691406 C 69.625 30.90625 70.304688 30.765625 71.023438 30.894531 C 71.972656 31.070312 72.648438 31.742188 73.214844 32.492188 C 73.640625 33.054688 73.929688 33.714844 73.882812 34.492188 C 73.84375 35.121094 73.558594 35.582031 73.179688 36.089844 C 72.964844 36.382812 72.785156 36.671875 72.667969 37.015625 C 72.507812 37.492188 72.507812 37.558594 72.085938 37.324219 C 71.554688 37.035156 71.007812 36.726562 70.519531 36.367188 C 70.167969 36.109375 69.917969 35.761719 69.734375 35.363281 " fill-opacity="1" fill-rule="nonzero"/><path fill="#c39d35" d="M 67.75 35.160156 C 67.976562 35.273438 68.210938 35.375 68.4375 35.503906 C 68.648438 35.621094 68.976562 35.59375 68.78125 35.265625 C 68.597656 34.960938 68.40625 34.640625 68.394531 34.261719 C 68.390625 33.984375 68.574219 33.742188 68.621094 33.476562 C 68.671875 33.1875 68.519531 32.984375 68.335938 32.824219 C 67.792969 32.339844 67.882812 31.746094 67.90625 31 C 67.914062 30.699219 67.949219 30.386719 68.09375 30.109375 C 68.121094 30.050781 68.15625 29.996094 68.171875 29.933594 C 68.226562 29.699219 67.96875 29.75 67.835938 29.804688 C 67.355469 29.988281 66.992188 30.207031 66.625 30.628906 C 66.238281 31.0625 66.011719 31.632812 65.605469 32.035156 C 65.488281 32.15625 65.363281 32.265625 65.265625 32.40625 C 65.003906 32.796875 65.222656 33.089844 65.488281 33.304688 C 66.078125 33.777344 66.578125 34.359375 67.175781 34.8125 C 67.359375 34.953125 67.550781 35.058594 67.75 35.160156 " fill-opacity="1" fill-rule="nonzero"/><path fill="#c39d35" d="M 68.890625 36.019531 C 68.886719 36.03125 68.882812 36.039062 68.882812 36.050781 C 68.765625 36.441406 68.863281 36.964844 68.878906 37.347656 C 68.890625 37.605469 68.816406 38.074219 68.992188 38.261719 C 69.453125 38.75 70.4375 38.382812 71.023438 38.585938 C 71.34375 38.695312 71.589844 38.941406 71.816406 39.191406 C 72.132812 39.546875 72.410156 39.941406 72.699219 40.324219 C 72.765625 40.414062 72.839844 40.507812 72.945312 40.53125 C 73.050781 40.558594 73.167969 40.511719 73.277344 40.464844 C 74.226562 40.035156 74.847656 39.359375 75.492188 38.488281 C 75.636719 38.292969 75.777344 38.101562 75.921875 37.90625 C 75.984375 37.824219 76.03125 37.746094 76.023438 37.648438 C 76.035156 37.855469 74.4375 38.183594 74.273438 38.203125 C 73.363281 38.304688 72.476562 38.109375 71.691406 37.726562 C 71.15625 37.464844 70.660156 37.125 70.183594 36.757812 C 69.949219 36.578125 69.722656 36.386719 69.496094 36.195312 C 69.382812 36.097656 69.210938 35.816406 69.03125 35.875 C 68.96875 35.894531 68.917969 35.953125 68.890625 36.019531 " fill-opacity="1" fill-rule="nonzero"/><path fill="#c39d35" d="M 68.847656 31.078125 C 68.753906 31.167969 68.652344 31.242188 68.542969 31.277344 C 68.140625 31.414062 68.6875 30.167969 68.757812 30.03125 C 69.121094 29.304688 69.667969 28.695312 70.4375 28.566406 C 71.03125 28.464844 71.582031 28.667969 72.128906 28.804688 C 72.390625 28.871094 72.660156 28.921875 72.941406 28.929688 C 73.246094 28.9375 73.523438 28.808594 73.828125 28.753906 C 73.910156 28.738281 73.996094 28.734375 74.066406 28.761719 C 74.394531 28.898438 74.351562 29.671875 74.488281 29.984375 C 75.144531 31.492188 76.082031 32.800781 76.582031 34.402344 C 76.644531 34.601562 76.699219 34.808594 76.785156 34.996094 C 76.835938 35.113281 77.078125 35.34375 77.046875 35.476562 C 77.035156 35.539062 76.992188 35.59375 76.953125 35.640625 C 76.328125 36.417969 75.84375 37.128906 74.910156 37.429688 C 74.4375 37.539062 73.980469 37.398438 73.5 37.480469 C 73.304688 37.515625 73.636719 37.0625 73.691406 36.972656 C 73.828125 36.734375 73.964844 36.5 74.089844 36.253906 C 74.34375 35.746094 74.53125 35.207031 74.574219 34.652344 C 74.648438 33.621094 74.234375 32.894531 73.6875 32.167969 C 73.050781 31.324219 72.484375 30.484375 71.464844 30.125 C 71.199219 30.03125 70.917969 29.957031 70.625 30.050781 C 70.234375 30.179688 69.785156 30.273438 69.421875 30.515625 C 69.210938 30.652344 69.039062 30.898438 68.847656 31.078125 " fill-opacity="1" fill-rule="nonzero"/><path fill="#c39d35" d="M 78.183594 37.683594 C 77.796875 37.898438 77.359375 38.0625 76.945312 38.070312 C 76.792969 38.074219 76.617188 38.050781 76.484375 37.980469 C 76.046875 37.746094 76.679688 37.128906 76.878906 36.851562 C 77.1875 36.425781 77.660156 35.757812 77.574219 35.226562 C 77.542969 35.03125 77.460938 34.855469 77.382812 34.679688 C 76.925781 33.636719 76.648438 32.476562 76.3125 31.371094 C 76.355469 31.515625 77.054688 31.710938 77.195312 31.785156 C 77.535156 31.976562 77.855469 32.203125 78.15625 32.457031 C 79.011719 33.1875 79.871094 34.210938 79.914062 35.515625 C 79.917969 35.710938 79.902344 35.910156 79.921875 36.105469 C 79.960938 36.488281 79.996094 36.738281 79.578125 36.90625 C 79.085938 37.105469 78.652344 37.425781 78.183594 37.683594 " fill-opacity="1" fill-rule="nonzero"/><path fill="#c39d35" d="M 78.371094 32.015625 C 77.976562 31.800781 77.632812 31.421875 77.257812 31.164062 C 76.863281 30.894531 76.386719 30.683594 75.988281 30.394531 C 75.429688 29.992188 75.242188 29.363281 74.894531 28.777344 C 74.285156 27.742188 72.832031 27.351562 71.890625 26.707031 C 71.65625 26.546875 72.746094 25.910156 72.90625 25.816406 C 73.242188 25.613281 73.601562 25.492188 73.972656 25.476562 C 74.535156 25.453125 75.074219 25.605469 75.589844 25.796875 C 75.914062 25.917969 76.238281 26.050781 76.550781 26.199219 C 77.195312 26.503906 77.210938 27.203125 77.351562 27.886719 C 77.5 28.589844 77.722656 29.257812 77.929688 29.933594 C 78.035156 30.28125 78.136719 30.632812 78.222656 30.988281 C 78.285156 31.25 78.472656 31.753906 78.371094 32.015625 " fill-opacity="1" fill-rule="nonzero"/><path fill="#c39d35" d="M 73.261719 27.855469 C 73.546875 28 73.785156 28.195312 73.308594 28.214844 C 72.785156 28.242188 72.269531 28.1875 71.761719 28.128906 C 71.210938 28.066406 70.644531 27.984375 70.074219 28.097656 C 69.707031 28.171875 69.382812 28.382812 69.050781 28.570312 C 68.703125 28.765625 68.300781 28.914062 67.9375 29.101562 C 67.625 29.269531 67.222656 29.765625 66.902344 29.8125 C 66.359375 29.890625 66.59375 27.339844 66.648438 26.921875 C 66.703125 26.457031 66.847656 25.976562 67.148438 25.605469 C 67.179688 25.570312 67.210938 25.535156 67.253906 25.527344 C 67.40625 25.496094 67.628906 25.675781 67.75 25.730469 C 67.996094 25.839844 68.25 25.925781 68.515625 25.984375 C 68.832031 26.054688 69.160156 26.085938 69.476562 26.164062 C 70.714844 26.457031 71.664062 27.367188 72.882812 27.699219 C 72.960938 27.71875 73.117188 27.78125 73.261719 27.855469 " fill-opacity="1" fill-rule="nonzero"/><path fill="#c39d35" d="M 65.527344 27.671875 C 65.296875 28.015625 65.121094 28.417969 64.917969 28.773438 C 64.804688 28.96875 64.691406 29.164062 64.539062 29.328125 C 64.347656 29.542969 64.253906 29.667969 64.398438 29.898438 C 64.46875 30.007812 64.511719 30.140625 64.550781 30.269531 C 64.636719 30.558594 64.765625 31.894531 65.246094 31.53125 C 65.667969 31.214844 66 30.757812 66.414062 30.445312 C 66.496094 30.386719 66.585938 30.339844 66.644531 30.257812 C 66.769531 30.070312 66.53125 29.925781 66.464844 29.796875 C 66.375 29.605469 66.289062 29.414062 66.222656 29.207031 C 66.085938 28.789062 66.007812 28.351562 65.933594 27.914062 C 65.898438 27.726562 65.886719 27.511719 65.820312 27.34375 C 65.769531 27.347656 65.75 27.378906 65.71875 27.417969 C 65.648438 27.5 65.585938 27.582031 65.527344 27.671875 " fill-opacity="1" fill-rule="nonzero"/><path fill="#c39d35" d="M 71.625 25.988281 C 71.253906 26.066406 70.898438 26.03125 70.503906 25.933594 C 70.160156 25.847656 69.796875 25.820312 69.445312 25.761719 C 69.027344 25.695312 68.59375 25.628906 68.210938 25.460938 C 67.855469 25.304688 67.921875 24.964844 68.222656 24.699219 C 68.648438 24.324219 69.054688 24.089844 69.335938 23.542969 C 69.390625 23.4375 69.4375 23.328125 69.515625 23.238281 C 69.738281 22.96875 70 23.175781 70.21875 23.269531 C 70.523438 23.394531 70.824219 23.527344 71.128906 23.65625 C 71.734375 23.914062 72.34375 24.167969 72.96875 24.382812 C 73.304688 24.496094 73.855469 24.667969 74.03125 24.964844 C 73.414062 25.183594 72.851562 25.414062 72.265625 25.742188 C 72.039062 25.867188 71.828125 25.945312 71.625 25.988281 " fill-opacity="1" fill-rule="nonzero"/><path fill="#c39d35" d="M 79.734375 33.714844 C 79.609375 33.585938 79.535156 33.429688 79.449219 33.1875 C 79.152344 32.375 78.996094 31.492188 78.738281 30.664062 C 78.5625 30.085938 78.363281 29.515625 78.148438 28.953125 C 78.101562 28.828125 77.644531 27.472656 77.554688 27.476562 C 77.835938 27.46875 78.046875 27.796875 78.214844 27.972656 C 78.488281 28.257812 78.761719 28.542969 79.03125 28.828125 C 79.410156 29.230469 79.769531 29.664062 80.164062 30.050781 C 80.378906 30.261719 80.613281 30.453125 80.839844 30.648438 C 81.03125 30.8125 81.464844 30.992188 81.421875 31.328125 C 81.40625 31.46875 81.304688 31.589844 81.207031 31.699219 C 80.753906 32.210938 79.953125 33.941406 79.734375 33.714844 " fill-opacity="1" fill-rule="nonzero"/><path fill="#c39d35" d="M 90.90625 47.792969 C 90.273438 45.742188 90.070312 43.6875 90.425781 41.464844 C 90.335938 41.480469 90.089844 41.5 90.007812 41.523438 C 89.691406 41.625 89.382812 41.769531 89.15625 42.011719 C 88.769531 42.417969 88.691406 43.015625 88.722656 43.566406 C 88.761719 44.175781 88.914062 44.773438 88.96875 45.382812 C 89.03125 46.121094 88.605469 48.15625 88.152344 48.761719 C 88.152344 48.761719 89.203125 48.015625 90.90625 47.792969 " fill-opacity="1" fill-rule="nonzero"/><path fill="#c39d35" d="M 91.214844 47.507812 C 91.242188 47.507812 92.117188 47.421875 92.761719 47.507812 C 92.523438 45.394531 92.609375 43.472656 91.808594 42.378906 C 91.535156 42.007812 91.203125 41.773438 90.730469 41.773438 C 90.304688 43.980469 91.082031 46.582031 91.214844 47.507812 " fill-opacity="1" fill-rule="nonzero"/><path fill="#c39d35" d="M 90.609375 49.066406 C 91.035156 48.898438 91.578125 48.734375 91.746094 49.167969 C 91.816406 49.355469 91.742188 49.746094 91.660156 49.917969 C 91.640625 49.957031 91.621094 49.992188 91.585938 50.015625 C 91.390625 50.148438 91.011719 50.007812 90.78125 50.082031 C 90.304688 50.238281 90.359375 50.808594 90.84375 50.90625 C 91.210938 50.976562 91.765625 50.835938 92.011719 50.480469 C 92.289062 50.082031 92.148438 49.550781 92.0625 49.101562 C 92.046875 49.015625 91.996094 48.851562 92.042969 48.769531 C 92.253906 48.402344 92.988281 49.460938 93.023438 49.6875 C 93.082031 50.050781 93.058594 50.433594 92.910156 50.773438 C 92.730469 51.1875 92.410156 51.617188 91.996094 51.816406 C 91.011719 52.289062 88.921875 51.542969 89.007812 50.253906 C 89.050781 49.660156 89.746094 49.390625 90.222656 49.21875 C 90.324219 49.183594 90.457031 49.125 90.609375 49.066406 " fill-opacity="1" fill-rule="nonzero"/><path fill="#c39d35" d="M 90.917969 48.589844 C 90.851562 48.628906 90.789062 48.65625 90.730469 48.675781 C 90.570312 48.726562 90.402344 48.75 90.238281 48.796875 C 89.800781 48.929688 89.347656 49.179688 89.042969 49.523438 C 88.777344 49.824219 88.636719 50.230469 88.683594 50.632812 C 88.734375 51.0625 88.988281 51.398438 89.320312 51.65625 C 89.542969 51.832031 89.785156 52.0625 90.039062 52.183594 C 90.144531 52.234375 90.257812 52.257812 90.371094 52.273438 C 90.421875 52.277344 90.476562 52.28125 90.519531 52.304688 C 90.5625 52.328125 90.597656 52.378906 90.585938 52.425781 C 90.574219 52.476562 90.527344 52.503906 90.480469 52.523438 C 89.933594 52.753906 89.25 52.738281 88.671875 52.660156 C 88.4375 52.628906 88.203125 52.578125 87.96875 52.5625 C 87.863281 52.554688 87.367188 52.640625 87.324219 52.5625 C 87.253906 52.425781 87.253906 52.242188 87.214844 52.09375 C 87.167969 51.910156 87.140625 51.722656 87.132812 51.53125 C 87.101562 50.847656 87.289062 50.101562 87.738281 49.570312 C 88.304688 48.902344 89.164062 48.613281 89.941406 48.324219 C 90.039062 48.289062 91.175781 48.011719 91.203125 48.132812 C 91.25 48.324219 91.085938 48.488281 90.917969 48.589844 " fill-opacity="1" fill-rule="nonzero"/><path fill="#c39d35" d="M 91.796875 48.128906 C 91.804688 48.132812 91.808594 48.136719 91.8125 48.140625 C 92.242188 48.273438 92.664062 48.519531 93.019531 48.792969 C 93.585938 49.226562 93.808594 49.875 93.613281 50.613281 C 93.441406 51.269531 93.027344 51.78125 92.425781 52.035156 C 92.25 52.109375 91.058594 52.332031 91.015625 52.453125 C 91.003906 52.484375 91 52.515625 91.003906 52.546875 C 91.015625 52.738281 94.183594 53.347656 94.230469 53.246094 C 94.320312 53.058594 94.324219 52.839844 94.398438 52.644531 C 94.488281 52.417969 94.621094 52.207031 94.71875 51.980469 C 95.15625 50.976562 94.980469 49.703125 94.269531 48.871094 C 93.699219 48.207031 92.832031 47.824219 91.964844 47.753906 C 91.882812 47.75 91.800781 47.746094 91.722656 47.773438 C 91.433594 47.875 91.644531 48.03125 91.796875 48.128906 " fill-opacity="1" fill-rule="nonzero"/><path fill="#c39d35" d="M 49.507812 5.152344 C 51.175781 6.503906 53.007812 7.457031 55.199219 7.960938 C 55.152344 8.035156 55.042969 8.253906 54.988281 8.324219 C 54.777344 8.582031 54.523438 8.8125 54.21875 8.933594 C 53.699219 9.136719 53.113281 8.988281 52.617188 8.753906 C 52.0625 8.492188 51.566406 8.125 51.019531 7.847656 C 50.359375 7.511719 48.3125 7.152344 47.582031 7.339844 C 47.582031 7.339844 48.667969 6.644531 49.507812 5.152344 " fill-opacity="1" fill-rule="nonzero"/><path fill="#c39d35" d="M 49.886719 4.96875 C 49.898438 4.945312 50.304688 4.164062 50.464844 3.535156 C 52.335938 4.542969 54.152344 5.183594 54.867188 6.332031 C 55.109375 6.726562 55.207031 7.121094 55.027344 7.5625 C 52.820312 7.128906 50.699219 5.441406 49.886719 4.96875 " fill-opacity="1" fill-rule="nonzero"/><path fill="#c39d35" d="M 48.21875 4.949219 C 48.53125 4.617188 48.886719 4.171875 48.546875 3.855469 C 48.402344 3.71875 48.007812 3.644531 47.816406 3.65625 C 47.777344 3.660156 47.734375 3.664062 47.703125 3.6875 C 47.503906 3.816406 47.492188 4.222656 47.335938 4.410156 C 47.015625 4.792969 46.503906 4.527344 46.597656 4.046875 C 46.671875 3.675781 47.003906 3.21875 47.425781 3.121094 C 47.902344 3.011719 48.339844 3.339844 48.726562 3.585938 C 48.800781 3.636719 48.933594 3.742188 49.027344 3.730469 C 49.445312 3.671875 48.738281 2.597656 48.542969 2.480469 C 48.226562 2.289062 47.863281 2.167969 47.492188 2.175781 C 47.039062 2.1875 46.527344 2.324219 46.183594 2.636719 C 45.375 3.371094 45.289062 5.589844 46.515625 5.988281 C 47.082031 6.171875 47.59375 5.628906 47.929688 5.25 C 48 5.171875 48.105469 5.066406 48.21875 4.949219 " fill-opacity="1" fill-rule="nonzero"/><path fill="#c39d35" d="M 48.773438 4.84375 C 48.714844 4.886719 48.664062 4.9375 48.625 4.980469 C 48.515625 5.113281 48.433594 5.261719 48.328125 5.394531 C 48.042969 5.75 47.640625 6.074219 47.207031 6.230469 C 46.828125 6.367188 46.398438 6.34375 46.046875 6.148438 C 45.664062 5.941406 45.449219 5.582031 45.332031 5.175781 C 45.253906 4.90625 45.128906 4.59375 45.109375 4.3125 C 45.101562 4.199219 45.125 4.082031 45.15625 3.972656 C 45.167969 3.921875 45.183594 3.875 45.179688 3.824219 C 45.171875 3.773438 45.140625 3.722656 45.089844 3.714844 C 45.039062 3.707031 44.996094 3.742188 44.960938 3.777344 C 44.542969 4.199219 44.300781 4.839844 44.160156 5.402344 C 44.101562 5.632812 44.058594 5.867188 43.988281 6.09375 C 43.957031 6.195312 43.6875 6.621094 43.746094 6.6875 C 43.847656 6.804688 44.019531 6.875 44.140625 6.96875 C 44.292969 7.078125 44.457031 7.175781 44.632812 7.253906 C 45.253906 7.539062 46.015625 7.644531 46.679688 7.421875 C 47.507812 7.148438 48.097656 6.457031 48.65625 5.84375 C 48.726562 5.769531 49.40625 4.816406 49.304688 4.746094 C 49.140625 4.632812 48.929688 4.722656 48.773438 4.84375 " fill-opacity="1" fill-rule="nonzero"/><path fill="#c39d35" d="M 49.527344 4.195312 C 49.527344 4.191406 49.527344 4.183594 49.523438 4.179688 C 49.5625 3.734375 49.492188 3.246094 49.371094 2.816406 C 49.179688 2.128906 48.660156 1.679688 47.902344 1.585938 C 47.230469 1.5 46.601562 1.691406 46.144531 2.15625 C 46.007812 2.292969 45.355469 3.3125 45.226562 3.308594 C 45.195312 3.308594 45.164062 3.300781 45.136719 3.285156 C 44.964844 3.199219 45.578125 0.0351562 45.691406 0.03125 C 45.898438 0.015625 46.101562 0.09375 46.3125 0.0976562 C 46.558594 0.101562 46.804688 0.0585938 47.050781 0.0507812 C 48.140625 0.0195312 49.257812 0.65625 49.765625 1.625 C 50.171875 2.402344 50.199219 3.351562 49.9375 4.179688 C 49.914062 4.257812 49.886719 4.339844 49.832031 4.398438 C 49.628906 4.632812 49.5625 4.375 49.527344 4.195312 " fill-opacity="1" fill-rule="nonzero"/></svg>