<svg xmlns="http://www.w3.org/2000/svg" width="128" height="128" version="1.0" viewBox="0 0 96 96"><defs><clipPath id="a"><path d="M0 0h90.6v96H0Zm0 0"/></clipPath></defs><g clip-path="url(#a)"><path fill="#c39d35" d="M1 12.2H.7L.7 12c0-.1.2 0 .2-.2H.4l.3-.2c.2 0 .3 0 .4-.2V10.9l-.4-.1c0-.1.1 0 .2 0H1.2v-.2c0-.1 0 0 0 0l.1-.1h-1c0-.2.1-.2.3-.2h.9s.2 0 .2-.2l.1-.1c.1-.2.1-.2 0-.4v-.2A19.1 19.1 0 0 0 1 9l1 .2a10.4 10.4 0 0 1-.4-.2h.5v-.2c-.1 0-.3 0-.2-.1 0-.1.1 0 .2 0l.2-1-.1-.3V7s0 .3.2.3V7l-.1-.2c.1 0 .1.2.3.2l-.2-.5.3.2s.1-.1 0-.2l-.2-.5v-.4l.2.4V6h.1v-.3l-.3-.5-.2-.4h.2l.5.8v.1h.2v-.4L3.1 5l.2.1-.1-.5-.1-.3.4.5v-.2L3.2 4 3 3.5l-.1-.2.1.2.5.6.1.3h.1V4l.1-.2-.2-1 .4.8V3l-.2-.8V2v.1l.3.6v.1h.1C4.2 2 4 1.5 3.8 1c-.1-.3-.3-.7-.6-1h.2l.5.7L4 0h.2v1.2-.3l.2-.9V1l.2-.5.1-.4H5l-.1.4L4.6 2v.5l.1-.1A10.4 10.4 0 0 1 5.2 0l-.1 1L5 2l.2-.3c0-.5.2-1 .3-1.4V0h.2v.3l-.2 1v.2l.2-.3.4-1.2h.1l-.1.7V1l.2-.3.1-.7h.3c0 .2-.2.3-.1.5l.6-.5h.9V1L8 .4V.2h-.1l-.1.2v.4L7.7.6V1l-.1.4-.1-.5V.6c-.1 0-.1-.1-.2 0v.5C7 1 7.1.8 7 .7V1l-.1.5v-.3L6.8 1c0-.1 0 0-.1 0 0 0-.1-.1-.2 0v.2l-.2.5v.2-.6h-.1c0 .1 0 .2-.2.2l-.2.4c-.1 0 0-.1 0-.2l-.3.8-.1.8V2l-.3.8-.1-.2c-.2.2-.2.3-.2.5v.3H4.5s0 .3-.1.2l-.3.4c-.2.7-.6 1.3-1 1.8l-.1.2h.1l.2-.2.4-.5c.1 0 0 0 0 .1l-.2.4h.1l.3-.2c0-.2.2-.3.3-.5l-.2.5c.3 0 .3 0 .7-.8v.3H5l.4-.8s0-.2.2-.3v.4l.3-.3s0-.2.2 0V4l.3-.6v-.2V3.8c.2 0 .3 0 .3-.2l.2-.4V3.5l.2-.1.3-.5.1-.2v.4l.3-.3.1-.4L8 2v.5l.3-.4s0 .1 0 0c.2 0 .2-.2.2-.3v-.3l.1-.4v.7c.4 0 .4-.3.4-.5h.1c0 .2 0 .2.1.1h.2l.1-.2V1c.2 0 .1.1.2.2H10l.1-.2h.1s0-.1.1 0h.1l.1-.1.2-.2c.3-.2.3-.4.4-.7h.1v.4H11.6c.4.1.3.1.5-.2V0c0 .2.2.3.1.4v.1h.2l.2-.5.1.2v.2l.1.2h.2V0h.2c0 .2 0 .3.2.4V0h1l-.1.3V.2l-.2.1h-.2c-.4.3-.7.6-.8 1v.1c-.1-.2-.1-.5-.3-.6l-.1.3V1c-.1-.1-.1-.3-.3-.2H12c-.1 0-.2 0-.1.2v.5l-.1-.2h-.1c0-.1-.1-.1-.2 0v.4h-.1c0-.1-.1 0-.1 0s0 .2-.2.2v.2l.1.4-.2-.2-.2.1c-.2.1-.2.3-.2.5H10.3v.5h-.1c-.1-.2-.1-.1-.2 0s-.1.1 0 .4H9.6V4s0 .1 0 0l-.2.1v.6l-.1-.2h-.1c0 .2-.2.2-.1.3v.3c0 .1 0 0 0 0H9c0-.2-.1-.2-.2-.1l-.2.4v.4l-.1-.1v-.1h-.1c0 .1 0 .2-.1.1h-.2v.1c-.2 0-.3.2-.2.4-.2-.1-.2 0-.2.1V7l-.1-.1-.1-.2h-.2s-.1 0 0 .1c-.1.1 0 .3 0 .4-.2 0-.2-.1-.2-.2H7v.5h-.4l-.1.3v.2h-.2l-.5.7-.5.8-.5.7c0 .1 0 0 .1 0 .3 0 .7-.2.8-.5.3-.1.3-.4.3-.6l.1-.1v.4c.3-.1.5-.3.5-.7v.1H7V8c.2.1.2.3.2.4.3-.2.4-.5.3-.8h.1V8l.1.1h.1v-.3l.1-.1H8v-.1l.1-.3V7s0-.2.1-.1v-.4l.2.3V7h.1v-.2h.2v-.2c.1-.1.1-.2.2 0l.1-.2v-.6c.2 0 .2.2.3.3l.2-.6v-.2H9.8v-.4s0 .2.2.2V5c0-.1 0-.2.1 0l.1-.3h.2v-.4c.1.1.2.1.2 0s.1-.2 0-.4h.2V4h.1v-.5h.3v-.3h.3c.1 0 .1-.2.3-.2V2.3l.1.3v.1h.1c.2-.3.3-.5.3-.8v-.4l.1.8.7-.5c.2 0 .3-.2.4-.4v.1h.2l.1-.1V1c.2.1 0 .2.1.3h.2l.1-.1v.1h.5c0 .1 0 .1.1 0h.1l.1-.1.2-.1v.3h.1c.5 0 .5 0 .6-.4V.7c0-.3-.2-.4-.4-.4h-.2l-.2.2c-.1 0 0-.1 0-.2s.2-.2.1-.3h.9v.4l.3-.4v.3s-.1.1 0 .2v.2L16 1h.2c0-.2.2-.3.3-.5v.2l-.3.4.3-.1v.1c-.2.1-.1.2 0 .3l.2-.1.3-.2.1-.1.3-.5-.1.5-.3.5c.5.1.6 0 1-.2V1.7h.5c0 .1.1 0 .2 0l.1-.8V0h.2v1c-.1.2 0 .3.1.3.3.2.7.3 1.1.3.1 0 .1-.1 0-.1V.6c0-.2.1-.3.3-.5h1.5H21l.2.1.7.1H21v.1h-.4c0 .2.1.1.2.2h.8v.1h-.2l-.7.1c.1 0 .3 0 .4.2h-.6l.9.3h-.7c-.2 0-.2 0-.2.3l.2.1h.4l.4.1h-.8V2a11 11 0 0 1 .3.1l-.4.1c-.2 0-.2.1-.2.3l.7.1H21l-.2.1h-.1l-.1.2h.2l.5.1-.6.1s-.1 0 0 .2c0 0 0 .1 0 0h1l-.7.2h-.2v.3l.1.1h.3l-.3.1-.1.1v.2l.5.1h.2l-.6.2h.9l-.2.1h-.3l-.3.1c-.1 0-.2 0-.1.3v.6c0 .2.2.2.4.2h.1c0 .2-.2.1-.3.2l.3.1c-.4.1-.3.1-.2.5l.1.1h.3l-.3.2c0 .2 0 .4.2.5h.2v.1c0 .3 0 .3.2.4l.2.1 1.3.4-.5-.9h-.5c.1-.1.3 0 .3-.2h-.3l.1-.1c.2 0 .3-.2.2-.4l-.4.1.3-.2v-.2c.1-.1 0-.1 0-.2h.3v-.1c-.2 0-.2 0-.1-.1l.1-.2h.2v-.1h-.4l.7-.2H23l.3-.2h-1.1l1.2-.1h-.1v-.1l.7-.1V5l-.2-.1-.4-.1h.8v-.2l-.3-.1h.5c0-.2 0-.2-.2-.3h-.2V4l.6.2V4c-.3 0-.5-.2-.7-.3l.5.1.4.2s-.1-.2 0-.2l-.3-.3a50 50 0 0 0 .2 0V3l-.4-.2-.3-.2c.2 0 .4 0 .6.2h.1v-.1a.6.6 0 0 1-.3-.2l.3.1s.1 0 0-.1v-.1l-.4-.2a65.6 65.6 0 0 0 .3-.4l-.2-.1h.3l.1.1c0-.2-.1-.4-.3-.5h-.1c0-.1 0-.1.1 0l.3.1s.1.1.2 0l-.1-.1-.3-.3-.2-.1.4.1V.8l.1-.1-.1-.3.2.2V.4l.2.2V.4L25 .2l-.1-.2h.3c0 .2 0 .2.2.3V0H25.6l.3.1s0 .1 0 0c-.4 0-.3 0-.4.4v.2c-.2 0-.2 0-.2.2s0 .2.2.2h.1l-.3.1c.1 0 .3 0 .5.2h-.4v.2h.3l-.5.1V2l.4.1h-.5l.2.2s-.2 0-.2.2c0 0 .1.1 0 .2h.4c0 .1 0 .2.2.3H25v.8h.2l.3.1-.3.1h.3l.3.2h-.6v.1c0 .1 0 0 0 0l.7.1a14 14 0 0 0-.7.1c-.1.2.1.2 0 .4h.5-.1V5l-.2.2h.1l.3.2a7.4 7.4 0 0 1 1.6.4l-.2-.2-.3-.1c-.1 0-.2 0-.3-.2l.3.1c.3 0 .5.2.7.3h.1c0-.1.1-.1 0-.2l-.2-.3.3.1V5c-.2 0-.3 0-.3-.2.1 0 .2.2.4 0 0 0-.2 0-.3-.2 0-.2-.2-.2-.5-.4.3 0 .4.1.5.2h.2v-.2c-.1 0-.3 0-.2-.2l-.4-.2h.4s.1.1.2 0h-.1v-.2l-.2-.2h.2v-.2l-.4-.2h.3c0-.2 0-.2-.2-.2l-.1-.1h.3l-.6-.3h.3l.3.1v-.2l-.2-.1h.4c0-.2-.1-.2-.2-.3l.4.1-.3-.3.5.2-.1-.3v-.3c.1 0 .2.1.2.3h.3c-.2-.2-.4-.4-.4-.6.2 0 .3.2.4.3.1 0 0 0 0 0 0-.3 0-.4.2-.4l.2-.1.5.2-.3-.4-.4-.5.3.2.4.5.2.3c0-.2 0-.3-.2-.4l-.2-.4.3.3.1.2h.1V.4l-.3-.4c.2 0 .2.1.3.2l.4.3-.1-.3L30 0h.1c0 .2 0 .2.2.3h.3l-.1-.3h.7l.2.1h1.5l.1.1h.1L33 0h1.3c0 .2-.2.2-.3.4h-.1v.1l.7-.5h.2c0 .2-.2.3-.3.4l-.2.2h.3l.7-.6h.2l-.2.2-.7.6V1l.5-.1v.4l.3-.2v.2h.2c.5-.3 1-.4 1.6-.2l.7.3c.2 0 .4 0 .6.2l.7.4.4.4v.5l.1.4.2.3c.2.3.4.7.4 1v.1c.2-.2.2-.4.2-.6v-.3c0-.1 0 0-.1 0-.1-.1-.2-.2 0-.3v-.2h-.1l-.1-.1.2-.2V2.6s.1 0 0-.1h-.2l.3-.2v-.1h-.2c0-.2-.2 0-.3-.2.2 0 .5-.1.5-.4H40c.3-.1.4-.3.5-.5h-.2l.2-.2c.1 0 0-.1 0-.2h-.3.1l.3-.2V.3H40l.2-.1.1-.3h.7v.3l.1.1v.2c-.1.1-.1.1 0 .2V1l-.2.4v.1l-.2.2v.1s.2 0 .1.2v.6a18.3 18.3 0 0 1 0 1.1s-.1.1 0 .2l-.1.3a8.6 8.6 0 0 1-.4 1h.2l.3-.7.3-1 .7-1.9.2-.7V0h.1c.2.3.2.5.1.8v.4h.2c.8-.3 1.6-.4 2.4-.4a13.7 13.7 0 0 1 3 .3c-.2-.3-.5-.3-.7-.3l-.9-.1-3.6-.6h-.1 2.2l2.2.3c2.1.2 4.2.1 6.3.1h2.1l1.3-.4h1.1-.1l-1.2.3v.1h6.8L65 0h1.9-.2l.2.1c.4.3 1 .4 1.4.5l1.7.1c.3 0 .5 0 .8-.2V.5l-.2-.3-.2-.2h.3c0 .2.1.2.2.3.2.2.5.2.8.1l.8-.4h.5l-.2.2a8 8 0 0 1-2.2.8c-1.2.2-2.3 0-3.4-.4l-.7-.3a1 1 0 0 0-.6 0l-2 .2-.4.1 1 .1c1.5.1 3.1.4 4.7.7 1 .3 2 .4 2.9.4.8 0 1.4-.3 2-.8l.8-1h.5l-.5.7V.4l-.3.3-.3.4a5 5 0 0 1-.4.3l-.4.3h1.3c.3-.1.4-.2.4-.4l.5-.7c.1 0 0 0 0 0 0 .3-.2.4-.3.6v.2h.2c.3-.1.7-.3 1-.6 0 0 .1-.2.3-.1l.2-.1c.2-.2.5-.3.6-.6h.5l-.2.2h.4v.1a3 3 0 0 1-.5.1c-.3 0-.5.2-.7.5h.5V1h-.4l-.6.2a1 1 0 0 0-.5.2l.1.1h.3c0 .1.2 0 .2.2H76c-.2-.1-.3-.1-.4 0a8 8 0 0 1-2 .3c-.1.1 0 .1 0 .2.4.1.9.3 1.4.3.2-.2.3-.1.4 0h.3l1-.2c0-.2-.2-.1-.3-.3h.4c.4.1.7.1 1-.1.2 0 .3 0 .3-.2l-1-.3h1.2c.4 0 .7-.2 1-.5-.3-.1-.7 0-1-.2h.8l.6-.3h-.1V.1h.1c.2 0 .3 0 .4-.2h.2v.2l-.6.6a5.6 5.6 0 0 1-3.4 1.8c-1 .2-2 .1-3-.3-.2-.2-.5-.3-.7-.2h-1.2.2l2.4 1h.5l1.7.1h1.3l1.7-.2h2.3c1 .1 2 .5 3 1 1.2.9 2 2 2.4 3.4l.4 1.2v.2H87a6 6 0 0 0-1-.2 12.8 12.8 0 0 1-7.3-3.9 8 8 0 0 0-1-.7c-.4-.3-.8-.4-1.3-.5h-1.3l.5.2a22 22 0 0 1 4.9 3.2l1 1.1c.4.4.8.6 1.3.8l.5.1 2.6 1c1 .4 2 1.1 2.9 2a6 6 0 0 1 1.6 4.6 11.5 11.5 0 0 1-.8 3.7c-.1.2-.2.2-.4 0L89 20c-1.6-1-2.9-2.3-4-3.7-1-1-1.6-2.2-2-3.4l-.2-.1-.1.6-.6 1.2-1.4 2.4c-.2.3-.3.3-.6 0-.7-1.2-1.3-2.5-1.6-4-.3-.9-.2-1.8.3-2.6l.5-.9.3-.5a1 1 0 0 0 .1-1.2L79 6.4c-.5-.7-1.1-1.3-2-1.7-2-1.1-4.1-2-6.3-2.6h-.2l.8.6.9.9.7.5.2.2c1 .5 1.8 1.3 2.5 2.2a7.2 7.2 0 0 1 1.3 5.5l.1 1V13.3a6.9 6.9 0 0 1-2.4-1.4A5.5 5.5 0 0 1 73 9.4a7 7 0 0 1-.4-2V5.3c-.1-.8-.5-1.5-1-2a6.3 6.3 0 0 0-3-1.7l-2-.4a47.6 47.6 0 0 0-5.2-.4h-3.5l.1.1 2.7 1.2.9.1h3.3c2.6.6 4.4 2 5.4 4.5l.5 1.8c.3 1 .6 2 1.2 2.8.2.2.1.3-.1.3h-1.7a10 10 0 0 1-4-.6c-1.1-.5-2-1.2-2.7-2.3a13 13 0 0 1-1.1-2.3l-.8-2.6-.2-.7-.4-.5c-.3-.2-.6-.5-1-.6l-1.3-.5c-.6-.3-1.3-.4-2-.6h-2.5.1l.6.4.7.2c1 0 1.9.4 2.8 1a4 4 0 0 1 2 2.5l.4 2.3v1.8a2.9 2.9 0 0 0 .2 1.3v.1h-.1a3 3 0 0 1-.3 0l-1.1-.6c-1-.5-1.8-1.2-2.4-2.1-.6-.9-1-1.8-1.3-2.8l-.3-1.8-.3-1a1 1 0 0 0-.5-.7c-.3 0-.5-.2-.7-.3-.8-.3-.8-.3-1.6-.3H48.2c.2.2.3.4.6.5l2 .8a7.2 7.2 0 0 0 2.3.6V3h-.2l-.8.4-.1.2.3.2c1.1.8 2 1.8 2.3 3.2.2.7.3 1.3.3 2v1l.1.1.5.3 2.3 1.2a5.3 5.3 0 0 0 1.8.6v.2l-.2.1-3.2 1.3-2.3.8c-.2 0-.3.1-.4.3a46.6 46.6 0 0 1-.9 1.6l-.3-.2-1.5-1.6-.4-.2c-.8-.2-1.5-.7-2.2-1.3l-1.5-1.7-1.2-1.5-.4-.7a1 1 0 0 0-.4-.3l.1.3c1 1.6 2 3.4 2.5 5.2.2.7.6 1.3 1 1.8.1.3.4.4.6.5H52.1l1.3.1c1.3.3 2.2 1 2.9 2.2l.4 1 .5 1.4c.2.7.6 1.3 1.1 1.8.2.2.1.3 0 .4H58c-.5.1-1 .1-1.6 0-1 0-2.1-.3-3.1-.6-.9-.3-1.7-.7-2.4-1.2a5.4 5.4 0 0 1-2.2-3.6v-.7l-.3-.6-.6-.7-.1-.1.3 1.7c0 .4.2.8.4 1.1l1 1.6c.9 1.4 1.4 3 1.6 4.7 0 1 0 1.8-.2 2.7-.2.9-.5 1.7-1 2.5l-.8 1.3c-.2.4-.3.8-.3 1.3v.2h-.2c-.9-1.2-1.5-2.5-2-3.8-.5-1-.8-2.2-.9-3.3 0-.7 0-1.5.2-2.2.2-.8.5-1.6.9-2.3l.5-1c.3-.4.4-1 .6-1.4v-1l-.2-1.3c-.2-1.1-.6-2.2-1-3.2v-.2c-.2.2-.2.4-.2.6V16c.2.7.2 1.4.2 2.2 0 1-.4 2-1.2 3-.3.4-.8.8-1.2 1l-1.9 1.5-1 .7a6.1 6.1 0 0 0-1.3 1.6l-.3-.1-.1-.5v-1.7l.3-3.6c.1-.8.4-1.5.7-2.2.7-1.2 1.6-2 2.9-2.4l1.1-.4c.4 0 .8-.2 1.2-.4.2-.1.3-.3.3-.5l.1-.8c.1-.4 0-.8-.1-1.1L46 12l-1.3-2.3s0-.2-.2-.2a22.6 22.6 0 0 1-.4 1.4c0 .8-.2 1.7-.6 2.4-.6 1-1.5 1.6-2.7 1.8a11.8 11.8 0 0 1-1.4.1l-.1.1v2.1a2 2 0 0 1-1 1.1l-1.3.3h-.9c-.2 0-.4 0-.5.2l-.6.6.6.2.3-.1.1-.1h.5s.2.1.2.3v.4l-.2.2H36a.5.5 0 0 1-.2-.3c-.1-.2-.2-.2-.4-.2l-1-.3H34l.2.3 1.5 2.4.2.3c.1.1.1.2.3 0l.6.1c.3.2.4.4.5.8l-.1.4-.3.2h-.5c-.2-.1-.4-.3-.4-.6s-.2-.6-.4-.8l-.6-1-1.3-2.1-.2-.1h-.3l.1.6a63.4 63.4 0 0 1 2 6.4c.1.2.3.3.5.3s.3 0 .4.2c.2.1.2.2.2.4a.7.7 0 0 1-.5.7c-.2 0-.5-.1-.6-.4v-1l-.7-1.4c0-.3-.2-.5-.3-.8v-.1h-.1a7.3 7.3 0 0 0-.3 1.5c0 .2 0 .4.2.5l.1.3-.1.3-.3.1c-.2 0-.3 0-.4-.2v-.5l.2-.3c0-.6.2-1.1.3-1.7.2-.5.2-1 0-1.5l-.6-1.8-.1-.1v.7c0 1 0 2-.4 2.8l-.4 1.5a3 3 0 0 0 0 1.4c0 .1 0 .2.2.2.4.1.5.4.5.7 0 .2-.2.3-.4.4-.2 0-.4 0-.5-.3v-.9c-.2-.6-.2-1.3 0-2l.2-1a9.5 9.5 0 0 0 .3-5l-.2-.1-1-.3h-.1v.8l.1.2h.2c.2.1.3.2.3.4.1.3 0 .5-.1.8-.2.2-.3.2-.6.1h-.2l-.4.8a7.2 7.2 0 0 1-3 2.9c-.6.2-1.1.3-1.7.3h-.3v.1l.2.1c.6.6 1 1.3 1.1 2.2.2.8.2 1.7.1 2.6 0 .9-.2 1.7-.3 2.6a17.4 17.4 0 0 0-.1 3.2h-.2c-.5-.5-1.1-.8-1.8-1 0 0-.2-.1-.4 0l-.8.2-1.4.6H22l.3.1h2.2c.5 0 .9.2 1.3.3l.2.1v.2H26l-.8-.1h-1.6l.3.2.9.5.3.3v.1h-.2l-.4-.2c-1-.7-2-1-3.3-1-1.1-.1-2.2-.4-3.3-1h-.2l.1.2.3.5c.4.6 1 1 1.6 1.3.5.3 1 .5 1.6.6l2 .5c.4 0 .7.2 1 .4l.1.2-.6-.2-.6-.2-.7-.1.4.4.4.5.2.5-.2-.1a5.4 5.4 0 0 0-2.5-1.7l-.9-.4-.6-.3h-.1c0-.1 0 0 0 0v.1l.9 1.3c.1.3.4.5.7.6l.4.2 1.7 1c.2 0 .3.2.5.3 0 0 .1 0 0 .2l-.2-.1-2.2-1.1h-.2l.1.3 1 1.2a16.7 16.7 0 0 0 1.5 1.5h-.4a10 10 0 0 1-2-2l-1.2-1.7-1-1.6a28 28 0 0 0-1.7-2.4c-.8-1-1.7-1.9-2.6-2.7l-.2-.2v.2c.6.6 1 1.3 1.2 2.1.4 1 .7 2 .8 3.1l.4 1.2c0 .2.2.3.3.3a9.6 9.6 0 0 1 1.3 1 6.6 6.6 0 0 0 1.5 1.2v.2c-.5.1-.9.3-1.3.6l-.5.2c-1 .6-2.3 1-3.6 1A11 11 0 0 1 8.8 42c-.3-.3-.7-.5-1.1-.6L6.3 41l-.3-.1.2.1 1 .8c.8.5 1.6 1 2.3 1.7l.7.2h1.4l1 .1h.5s.2 0 .2.2c.1 0 .3 0 .3.2.2.1.4.2.6.1h.8l1 .1.5.1c.5.2.8.5.8 1.1v1l.1.4a16 16 0 0 1 2.4 2 7.1 7.1 0 0 1 1.6 4c.1.8 0 1.7-.3 2.6l-1 2.2v.2c-.2 0-.2-.2-.3-.3l-.7-1a91.1 91.1 0 0 0-1.2-.9l-.8.7c-.1 0-.1.1 0 .2l.2.6c.4 1.1.6 2.3.5 3.6 0 .2 0 .5-.2.8l-.5 1c0 .1 0 .2-.2.2-.1.4-.4.7-.7.9l-1 .6.1.3c.3.3.3.3.7.2a12.8 12.8 0 0 1 4 .2c1.1.3 2 .8 2.7 1.6.6.6 1 1.3 1.3 2l.6 2.1v.2h-.4a3 3 0 0 0-.7-.2l-1-.1h-2.7l-.5-.1-1.9-.5h-.1c.3.6.5 1.1.6 1.7 0 .3.2.6.4.9v.2H17.7l-1.6-.2h-.8l-1-.4h-.4l-.2.6c-.1.3-.3.3-.5.2H13l-1-.5-.6-.4h-.2c0 .8-.3 1.5-.3 2.2 0 .1 0 .2-.1.1h-.2l-1.7-1c-.6-.4-1.2-1-1.6-1.6 0-.2-.2-.3-.3-.5 0 0 0-.1-.2 0h-.7l-.3.3v.3a28.3 28.3 0 0 1 0 2.6l.5.9c.1.2.3.2.5.2a4.2 4.2 0 0 0 1.4-.2c1.2-.4 2.5-.6 3.8-.7l1.7.1c1 .2 1.9.7 2.6 1.4l1.2 1.2.1.2v.2h-.3l-1.5.5-1 .6-1.7.8c-.7.3-1.4.5-2.2.6-.9 0-1.7-.1-2.4-.7-1-.8-1.7-1.8-2-3L6 75h-.1l.1 2.1c0 .7.2 1.3.3 2 0 .4.2.8.5 1.1l1.4 1.5 1 .9c1.6 1.6 2.8 3.5 3.5 5.6a21.3 21.3 0 0 1 1.3 7.4l-.1.3-.2-.2a20 20 0 0 0-1.8-1.6l-1.6-1.4C9 91.5 7.8 89.8 7 88c-.5-1.5-.8-3-1-4.6v-4.8c-.2-.7-.4-1.4-.4-2l-.1-.3a1 1 0 0 0-.1.6v3.9l-.8 2a23.7 23.7 0 0 1-2 3.2c-.3.6-.8 1.1-1.3 1.6h-.1V87a8 8 0 0 0 0-1.8c0-.7 0-1.4.2-2.1l.6-1.7c.7-1.6 1.5-3 2.7-4.3l.5-.7c.2-.5.3-1.1.2-1.7V72.8l-.2.4-.7 1c-.3.3-.6.4-1 .1H3l-.1.2A10 10 0 0 1 .2 77H0v-.2a9 9 0 0 0 3-2.6c.1-.3.1-.3-.1-.6l-.6.6V74l.4-.6v-.2l-.5-.5h-.3l-.7.7-.1.1.1-.2.6-.7v-.2l-1.2-1c0-.1-.1-.1-.2 0l-.4.4v-.4l.3-.3L0 71v-.3h.2v.1h.2l.5-.4.3-.3c0 .2-.1.3-.9.9l.2.1h.1c.1 0 .1 0 0 .1h.2c.1 0 .2 0 .1.1v.2H1c0 .1.2.1.2 0 .2 0 .3-.2.4-.3l.1-.1.2-.2-.1.2-.3.4-.1.2v.1c.4.5.4.6.8.1h.1v.1l-.1.2c0 .1-.2.1-.1.2l.5-.5c0 .2 0 .2-.2.3v.3l-.2.1v.1l.3.3.4.3c.1.2.2.2.4 0 0 0 .2 0 .3-.2l-.1.3c-.1 0-.2 0-.3.2v.1h.1c.2 0 0 0 0 .1s.1.2.2.1c.1 0 .2 0 .3-.2.2 0 .3-.2.5-.4l-.2.4-.3.3H4l-.3.2.1.1c.2 0 .4 0 .5-.2.3-.2.5-.5.6-.8l1-2.7.2-.5-.1-.3-.3-.1-.1.2a8.9 8.9 0 0 1-.4 1.3v-.1l.2-.7v-1l-.1.2-.2.1v.2l-.1.2v-.4l.1-.5V69H5l-.2.4a4.5 4.5 0 0 1-.3.6v-.3l.3-.6c0-.4 0-.4-.2-.7h-.1l-.3.6-.1.2.1-.5.2-.4-.1-.2h-.2l-.3.3-.1.2v-.2l.3-.4v-.2h-.3l-.2.4-.2.2v-.3c.1 0 .2-.1 0-.1v-.1l.2-.3c0-.1-.1-.1-.2 0l-.3.3.2-.4v-.2h-.4l-.3.4-.1.2c0 .1 0 .2-.2.3 0-.2 0-.2.2-.3 0-.2 0-.3.2-.4l.1-.3-.3-.1V67h-.1v-.2h-.3l-.3.4c0-.2.2-.3.3-.4l.3-.3h-.1l-.4.3.2-.3.2-.2v-.2h-.1v-.2l-.4.2.2-.2.1-.2v-.2H2l-.3.2v-.2l.3-.3V65l-.2.1-.2.2.1-.2.2-.2.1-.2h-.2v-.4h-.2v.3c-.3.7-.8 1-1.6 1 .7-.1 1.2-.5 1.4-1.1V64.2l-.4.1H.7l-.5.4.1-.1.3-.3v-.1H.2a1815 1815 0 0 0 0-.2l-.2-.2v-.2l.1.1.3-.2v.2c-.1.2 0 .2.2.2.4.1.8 0 1.1.2h.8l.2-.2-.1.2c-.2.2-.4.4-.4.7v.9a2.1 2.1 0 0 0 .7 1.1l.2-.2v.3l.2.1.3.2.1.3A7 7 0 0 1 5.4 69l.3.3c.2.2.2.2.5 0v.2l.1.3h.2c0-.1.1-.1.1 0 0 0 0 .1.1 0l.1.1c.1.1.2.2.3 0l.2-.2s0-.2.2-.3l-.3.6.1.1.7.1.5-.1c.3-.1.4-.3.4-.5v-1.3a2 2 0 0 1-.6-1.3c0-.2 0-.4-.3-.6l-.2-.2v.4c-.1 0-.1-.1-.2 0l.2.8-.3-.6v.3c0 .1.2.2.1.3-.1-.1 0-.3-.2-.4v.6h-.1l-.1-.3L7 67l-.1.4V67h-.2l-.1.2-.1.2V66.7h-.1l-.1.2v-.3h-.1l-.5.8v-.2l.4-.6v-.2H6l-.2.4-.3.4c0-.2.1-.3.3-.5v-.5c.2 0 0-.2 0-.2h-.1l-.2.2-.2.4.1-.5h-.2V66l.1-.4-.2.2h-.2V65.3h-.1v-.2c.1-.1 0 0 0 0V64.8l-.2-.1c-.1-.1-.2-.1-.2 0-.2 0-.3.2-.5.4V65c0-.1.2-.2.1-.3l.2-.3-.4.2-.1.1.1-.2v-.3c.1 0 .1-.1 0-.1l-.3.2.2-.2V64c-.1.1-.3 0-.4 0 0 .1 0 .2-.2.2l.1-.2h.1v-.3c-.1-.2-.2-.2-.4-.2l-.2.1.2-.2s-.2 0 0-.2h-.2l-.5.3-.2.1.1-.1.5-.4c0-.1 0 0 0 0h-.3V63c0-.1 0 0 0 0-.2 0-.3.1-.5.3.1-.3.3-.3.4-.5h-.3s-.1.2-.2.1l.1-.1s.2 0 .2-.2l-.5.1.3-.2c-.2 0-.2.1-.4 0 0 0 .2 0 .2-.2h-.2c0-.1 0 0 0 0l-.3.1s-.1.1-.2 0l.2-.1.2-.2V62H1s0 .1-.2 0h.2v-.2c0-.2-.1-.2-.2-.2l-.4.1.3-.2H.4l-.3.2v-.1s.2 0 .1-.2h.1c0-.2.2-.1.3-.3H.3c0 .1-.1.1-.2 0V61c.1 0 .2 0 .2-.2 0-.1-.1 0-.2 0V60l.1.3c0 .1 0 .1.1 0 0 0 .1 0 0 .1l.2.4.2.2c0-.4-.3-1.3-.6-2.3v-.4l.2.5.4 1.4.1.7c0 .2 0 .3.2.4l.2.2s.1.2.2.1v-.2c-.1 0 0 0 0 0 .2-.2.2-.4.2-.7v-.1l-.2-.3.1.1-.2-.3a.6.6 0 0 1-.2-.3l.5.5v-.6l-.1-.2-.4-.4.4.1V59c-.1 0-.1-.1 0-.1a3 3 0 0 0-.3-.4h.1c.1 0 .2.2.2 0v-.1h-.1l-.2-.4a3 3 0 0 1-.5-.2H1c.2 0 .3.2.5.3h.1l-.1-.3-.3-.2h.3v-.3c-.1 0-.3-.1-.1-.3L1 57l.2-.1-.2-.4v-.3L.9 56l.2-.1c0-.2 0-.4-.2-.5.1 0 .1-.2 0-.2v-.4l.1-.2v-1L1 53c0-.1 0 0 .2 0l-.1-.5-.2-.2.2.2h.1v-.3c0-.1 0-.2.2-.2v-.8s0 .2.2.2l.1-.2.2-.3.1-.2v.1l-.3 1v.1c-.2.3-.2.3 0 .6.2 0 .2-.2.3-.2v-.1s0-.1 0 0h.2V52s-.1-.1 0-.2v.1h.1v-.5c0-.6-.1-1.1 0-1.6v-.1c0-.2 0-.2-.2-.2a2 2 0 0 0-.6.1s-.1.2-.2.1c0 .2-.3.2-.3.4l.2.2H.6v.2l.2.1-.4.1c0 .2.1.1.2.2H.4v.1H.3l-.1.2c0 .2.1.2 0 .4H.2V50.7l.1-.2v-.2h.2V50c.2 0 0-.2.2-.4v.2h.1V49l-.1-.5-.1-.1H.4l-.2.4v.6l-.1.1v-.9l.2-.3-.2-.3V48l.4.3.4.5.3.2v-.3c-.1 0-.2 0-.2-.2 0-.3-.3-.5-.4-.6l-.3-.4.3.2.6.7.2.2v-.2c-.1-.1-.1-.1 0-.1V48l-.4-.6-.6-.7-.1-.2.2.2.9 1c0 .1 0 .2.2.2l-.5-.9c-.1 0-.2-.1-.2-.3l.2.3.5.7v.2h.1l-.1-.5s-.1 0 0-.2l.2.4H2l-.1-.4-.2-.3c0-.1 0 0 0 0l.2-.1v-.3c-.1-.5.1-.8.6-1H3l.2-.2c0-.5-.2-.7-.6-.8h-.1c-.1-.3-.3-.4-.5-.5l-.4-.3-.2-.1v.1c-.2 0-.3-.1-.4 0a1 1 0 0 0-.7.1v.1c0 .2.2.3.4.4v.1l-.4-.2H.1v-.5l1.3-.2-.4-.4c0-.2-.2-.3-.3-.4l-.3-.4L0 42v-.5h.1V40c.2 0 .2.1.2.3v.7l.1.6c0 .3.1.6.3.8h.1c.2 0 .2.1.2.2l.4.6a10 10 0 0 0 1.3 1V44a2 2 0 0 1-.3-.8h.1l.1.2c.2.6.5 1 .8 1.4l.8.5c.1-.1 0-.2 0-.4l.6.6.8.5.8.4c0-.2-.1-.2-.2-.3L6 46l-.2-.3-.2-.2c.1-.1.1 0 .2 0l.4.4v-.3l-.9-1.7v-.1h.1v-.2c0-.2-.2-.4-.4-.5l-.5-.5v-.2h.3A3 3 0 0 0 3.7 41v-.1H4c-.3-.4-.5-.8-.8-1l-.7-.6c-.1 0-.1-.1 0-.2V39l-1-.8c-.2 0-.3-.1-.3-.3l-.2-.2-.6-.5-.3-.3v-.3l.5.5a21.1 21.1 0 0 1 3.8 4l.8 1.6a29.3 29.3 0 0 0 1 2V43.8l.2-.2v1.6l.6 1 .3-.1c.3-.2.6-.4.9-.4.2 0 .3-.3.3-.5.1 0 0 0 0 .1 0 .2.1.4.3.5h-.6c-.2 0-.2 0-.2.3l-.2-.1h-.1c0 .1 0 .2-.2.2h-.2v.5l.4.5.1.2v.1l-.3-.1-.4-.3H7l-.2-.2s-.1-.1-.2 0c-.1 0-.2 0-.2.2l.1.2c-.1 0-.1-.2-.2-.1l-.1.2v.2c-.1 0-.2-.2-.3 0l-.3.2v.2c0 .1 0 .2-.2.2 0 0-.1.2 0 .2l.1.3h-.1l-.1-.1c-.1-.2-.2-.1-.2 0-.2.1-.2.1-.1.4 0 0-.1-.1-.2 0l-.1.2v.2h-.2v.2s-.1.2-.3.1l-.4.6-.1.3-.2.4-.1.3c-.2.3-.2.7-.1 1v.4h.2L4 52v-.1c.3 0 .1-.3.2-.5l.1.2c.3-.2.4-.5.6-.8H5l-.1.2c-.2.1-.2.3-.3.4-.2.2-.2.4-.2.6v-.1h-.1l-.1.3c0 .1-.2 0-.2 0v.3s-.1-.1-.2 0c-.3.5-.3.5-.2 1v.4H4v-.4H4l.1.2.1-.1.1-.3h.2l.1-.5.1.1.1-.3v-.2H5v.2l.1-.2.1-.5v.3l.1.1.1-.1V52c0-.2.2 0 .2-.2v-.2l.1-.2.1-.2v.5c.2-.1.5-.2.5-.5.3 0 .3 0 .3-.2V51c.1 0 0 .1.2 0 0-.1 0 0 0 0h.1l.2-.7v.3l.3-.2c.2-.1.3-.1.4 0l.2.1c0 .1.2 0 .2 0 .2.2.3 0 .4 0v-.1l.3-.5v.2l-.1.4h.2l.1-.3.1-.3v.7c-.1 0 0 0 0 0l.5.2v-.4c-.2-.5-.3-1-.2-1.5v-.2c0-.3-.1-.4-.4-.3h-.2l-.2.2-.2-.1c0-.2-.4-.2-.5 0v.1h-.2l-.1.2V48.5c-.2 0-.3.2-.4.3l-.3.4v.4l-.1-.2v-.1h-.2v.2l-.2.6v-.3h-.1c0-.1 0-.1-.1 0H6l-.6.6a1 1 0 0 1-.4.4v-.6l.1.3c.3-.2.6-.4.7-.8H6v-.4.2h.2l.4-.4V49l.1-.3v.1H7a11.7 11.7 0 0 0 1.2-1.2v-.2c.2 0 .2-.1.3-.2V47c.1 0 .2.2.2 0l.2-.2c.2-.2.2-.5.1-.7v-.2c.2.2.2.4.2.7 0 0 0 .2-.2.3a3.6 3.6 0 0 1-.8 1.1s-.1.1 0 .2h.1c.1 0 0-.2.2-.2v.1c0 .1 0 0 0 0l.2-.2v.3l.3-.6v.5s-.1.1 0 .1c0 .1 0 0 .1 0 0-.1 0 0 .1 0l.2-.5.1-.6v1.2-.2l.4-1.1.3-.8s0 .2 0 0c.3-.5.3-1 0-1.4l-.5-.8-.3-.1-1.2-.2H8v.3l-.1.5v-.8s0-.1-.1 0h-.1l-.1.4v-.4c-.2.1-.2.1-.3.5v-.5c0-.1 0-.2-.2-.2l-.6.2.2-.2h1a20.1 20.1 0 0 0 1.6.2 1 1 0 0 0-.3-.3l-2.2-1.6a100.5 100.5 0 0 1-4.2-3.5L0 35.8v-.6l.5.2c.6.3 1.1.3 1.7 0 .5-.1 1-.4 1.5-.7l1-.6a5.9 5.9 0 0 1 1.7-.9V33c-.4-.6-.6-1.3-.7-2V30h-.2l-.6.5-.7.5-.3.2c-.7.5-1.5.8-2.3 1a5.8 5.8 0 0 1-1.6.3V32a3 3 0 0 0 2.1-.2s.1 0 0-.1l.1-.2H3l.1-.2-.4-.1V31h.6l.4-.1v-.2c.6-.2 1.1-.5 1.5-1 .1 0 .1 0 0-.2.5 0 .9-.3 1.2-.6-.7-.1-2.8.5-3.4 1h.5v.2a3 3 0 0 1-.4 0c-.4 0-.9 0-1.3.3a11 11 0 0 1-1.5.7v.1l.3.1.3.1-.2.1H0v-.6h.2c.6-.3 1-.7 1.1-1.2l.1-.3h.1v.4l-.2.5c.2 0 .3-.1.5-.3l.6-.5.5-.3s0 .2-.2.2l-.1.3.2-.1a13 13 0 0 1 4-1v-.2a2 2 0 0 0-1-.4c0-.3-.2-.3-.3-.3l-.8.2-.4.3-.3.1c-.1 0 0 0 0 0 .3-.3.6-.6 1-.7h.2l-.1-.2a4 4 0 0 0-1.1-.3c-.2 0-.4 0-.6.2-.1 0-.2.2-.3.1l.1-.2v-.1l-.3.1-.6.8c0 .1 0 .2-.2.3 0-.3.1-.6.6-1.2h-.3l-.4.1-.3.2c0-.1.2-.2.1-.3-.3 0-.5.1-.7.3 0 0-.2.2-.3.1l-.2.1-.3.5-.3.5v-.3c.1 0 0-.2.2-.3v-.3H0V27l.6-.2c-.1.2-.3.2-.4.3.1.2.3.2.5.2L1 27a5 5 0 0 1 2.5-.3 6.9 6.9 0 0 1 2.8 1h.2v-.2c.7-1 1.3-2.2 1.8-3.3l.1-.3-.2.3-.2.2v.1h-.1v-.2l.5-.8.1-.2h-.1l-.4.4-.2.3a11.3 11.3 0 0 1-1.2 1.5v-.1l.7-.9v-.2h-.1c-.3.2-.6.2-1 0l-.2.1A6 6 0 0 1 5 26l-.6.5v-.2a10.6 10.6 0 0 0 1.4-1.7v-.2l-.3.4v-.2l.1-.3V24h-.2a3.9 3.9 0 0 1-1.1 1.3c-.1 0 0 0 0 0 0-.2.2-.3.3-.4l.6-.9-.3.3v-.1l.1-.4v-.1h-.1l-.7 1-.5.3.2-.3.2-.2.2-.2.1-.2.2-.2.1-.3-.2.1v-.2h-.1a5 5 0 0 1-.5.7V24l.2-.2v-.2l-.4.4-.4.4-.4.4-.5.4-.4.3a6.3 6.3 0 0 1-1 .6l.1-.1c1.1-.8 2-1.7 3-2.7v-.1c.1-.1.1-.2 0-.2 0 0 0-.1-.1 0l-.4.2-.3.2.4-.4.2-.3h-.2l-.7.5H3l.7-.6c.2-.2.2-.2 0-.5l-.4.2.3-.3h-.2l-.8.5-.3.2.1-.2 1-.7c.2-.1.3-.3.2-.5v-.2h-.1l-.2.1-.6.4a27.8 27.8 0 0 1 .8-.9H3s.2-.1.2-.3l-.3.2-.4.3-.3.2.1-.2.7-.6V20l-.5-.9-.2.1c0 .1-.1.3-.3.1l-.4.4h-.2l.1-.1.7-.7v-.4H2l-.8.9H1l1-1 .1-.2c0-.1 0 0-.1 0l-.7.4H1l-.4.1-.5.4v-.3l.2-.1c.2-.1.3-.3.2-.5v-.4c0-.5.3-1 .5-1.3l.9-1.2.4-.5.2-.3v-.3c-.2 0-.1.1-.1.2v.3l-.2-.1-.1.2-.1.2-.1-.1c-.2 0-.2.3-.3.4-.1 0 0-.1 0-.2l-.3.3-.3.4-.3.3.1-.3a16.4 16.4 0 0 0 .3-.6H.9l-.1.1-.5.5c-.1-.1 0-.1 0-.2l.6-.7H.7l-.3.3.4-.5H.4l-.4.4V15l.5-.5v-.2s.2 0 .3-.2l-.8.1.7-.3s-.1 0 0 0v-.1h.1v-.1H.2l.2-.1h.4l.1-.2c0-.2 0-.2-.2-.2H.4l.1-.1.2-.1.2-.2H0c.3-.2.5-.1.7-.2.2 0 .3 0 .2-.3ZM87 8c0-.5-.3-.9-.6-1.2l-.2-.3h.3l-.6-.9-.6-.2h-.7l-.1-.1h1V5a2 2 0 0 0-.8-.6l-.2-.1a1 1 0 0 0-.7-.5A5.4 5.4 0 0 0 82 4c.3-.2.7-.2 1-.2.1 0 0 0 0-.1h-.9v-.2l-.2-.1c-.4-.1-.9-.2-1.4-.1a4 4 0 0 0-.5 0c0 .1-.1.1-.2 0l-1.7.1v.1l1.5.3h.7l.3-.1h.1v.1c-.2 0-.3.1-.3.2l.2.2 1 .3H83v.1l-.3.1-.2.1.2.2 1 .5.5.2 1 .2h-.7l.4.4.5.4.4.3.5.4.4.4.3.4Zm-9-4.2 1 .8s.1.1.2 0l.2.2c.6.7 1.3 1.2 2 1.7h.2l-.5-.7v-.2l.7.8c.2.4.6.7 1 .9l1.1.5h.2c-.1-.2-.3-.4-.3-.7a4.7 4.7 0 0 0 .5.6 2.3 2.3 0 0 0 1 .5c.2 0 .3.1.4 0v-.1l-.3-.5h.1l.3.2.2.4.5.2h.4l-.2-.2a9.2 9.2 0 0 0-2-1.9l-.5-.4H84v.6l-.2-.4c-.1-.3-.4-.6-.7-.8-.3 0-.5-.2-.7-.3h-.1l.1.4.1.5.1.4h-.1a2 2 0 0 1-.2-.6l-.2-.5L82 5l-1-.5h-.3c.1.1.4.2.4.5H81l-.7-.6-.6-.3h-.1v.1l.2.5v.1l-.3-.3c-.2-.5-.6-.7-1-.7h-.5Zm11.5 16v-.6c0-.1.1 0 .2 0V19c0-.5-.2-1-.3-1.3L89 17s-.1-.1 0-.2v.1l.4.7a25.7 25.7 0 0 1 .4 1l.2-1v-.5l-.2-.3H90.3v-.3c0-.4.1-.4-.2-.6l-.3-.2-1.4-1.4v-.1l.4.2 1.3 1.2.2.1-.1-1a1 1 0 0 0-.4-.7 1 1 0 0 1-.3-.3h.3c-.3-.4-.6-.6-1-.8l-1-.5-.4-.2.7.1.7.3.6.3v-.1a5 5 0 0 0-.6-.8l-.5-.3-.4-.1-.2-.1.3-.1c-.2-.2-.5-.2-.7-.3l-.5-.2h.6c-.8-.6-1.6-1-2.4-1.3L82.7 9V9c.5.5 1 .8 1.7 1h.2v.1h-.7.1c.3.5.7.6 1.2.7l.4.1c.1 0 .2 0 .3.2H85h.1a54.9 54.9 0 0 0 1 .7h-.2l-.6-.2.3.3.6.3 1 .5.4.3v.1l-1.6-.7v.1l.4.5.8.8.5.3.6.6H88a8.6 8.6 0 0 0-.9-.6l.1.2.4.6c.1.3.3.5.5.6.2 0 .3.2.4.3l-.4-.1.6 1.3.4 1.4.3 1.4Zm-6.8-8.4.2.5v-.2l.1-.5h.1v.8c0 .6 0 1.1.4 1.7l.4.7c0 .1 0 .2.2.2l.2-1c.2.4 0 .7 0 1 .2 0 .2-.3.3-.4l.1-.5c.1-.2 0-.4.2-.5v.7l-.2.9.1 1c.1 0 0-.1 0-.2v-.3h.1l.1.1v.4l.4.7.8.8s0 .1.1 0V17l.1-1.3.2-.3v1.8c0 .4.2.8.6 1v.2h.2v-.7l-.1-.2.2.2.1.6c0 .3.2.5.4.6l1.1 1 .1-.2-.1-1-.8-2.1-.2-.4c-.2.2-.2.4-.2.7v.3c-.2-.2-.2-.4-.2-.6l.2-.6-.1-.5-.6-1-.2-.1v.9l-.2.5v.4h-.1v-.8l.1-.7a2 2 0 0 0-.6-1.6l-.3 1.6v-1.6c0-.3 0-.6-.3-.8l-.7-.9h-.1l-.1-.1v.5l-.1.1h-.1v-.1c0-.6-.2-1-.6-1.4l-.4-.4h-.1c0 .4.3.7.3 1h-.2c-.1-.5-.4-1-.6-1.4 0-.2-.2-.3-.4-.5l-.1.1v.5l.3 1.7Zm-2.5 4.3.3 1c.3-.3.4-.5.4-.9v-.4h.1l.1.1s0 .1.1 0v-.2l-.1-1V14l.3 1v.1h.1l.3-.6v-.4l.2.2c.1-.2 0-.3 0-.4a2 2 0 0 0-.4-.8 11.4 11.4 0 0 0-.7-.6c.1-.1.2 0 .2 0l.9.8.2.4h.2v-.8s-.1-.1 0-.1.1.1.2 0l-.1-.4a2 2 0 0 0-.3-.4l-.5-.4-.4-.7h.2c.2.5.6.8 1 1 0 .1 0 .1 0 0v-.3a4.7 4.7 0 0 0-1.9-2.9l-.3-.2.1.4.6.6c.2.1.3.3.4.6v.1h-.1c-.2-.4-.4-.6-.7-.8h-.1c0 .5 0 1 .2 1.4l.2.5c-.2-.1-.2-.3-.3-.4-.1 0 0 0 0 .1a49.2 49.2 0 0 0-.2 1.5l-.1.4v.2c-.2.6-.2 1.2 0 1.8v.2s.1.1 0 .2v-.1L80 15v.6Zm-1-5.8c-.3.7-.6 1.3-.6 2v.2l.1-.2.5-.6s0-.1.1 0v.1l-.4.6-.2.9s0 .1.1 0l.1.2v.1c0 .4 0 .8.2 1.2h.2v-.1l.1.4v.4l.2.4.2.4c0 .2.1.3.3.4l-.2-1.3v-1.3l-.2.2v-.2c0-.2 0-.3.2-.5l.2-.7.1-.9H80c-.1 0-.2 0-.3.2h-.1v-.2l.2-.2c.3-.2.4-.5.4-1V10H80l-.4.4h-.1l.3-.4.2-.2c.2-.3.2-.5 0-.8l-.7 1ZM79 6c.4.6.8 1.3 1 2l.4.4a4.3 4.3 0 0 1 1.7 1.5l.1.2V9l-.3-.4-1.1-1.1A10.2 10.2 0 0 0 79 5.9V6Zm-2.3 7h.1v-.8l-.3-.4c-.3-.2-.4-.6-.6-.9v-.2l.1.2.5.6.2.2v-1c.1-.3 0-.5-.2-.7l-.5-.6h.1c.2 0 .3 0 .4.2 0 0 0 .2.2.2 0-.4 0-.8-.4-1.2 0 0-.1-.1 0-.2v-.2l-.5-.3c0-.1-.2-.1-.2-.3l.3.1c.1 0 0 0 0-.1 0-.2 0-.3-.2-.4l-.2-.2v-.1l-.1-.3-.5-.5-.6-.3-.3-.2h.5a4.3 4.3 0 0 0-1.7-1.3v.2l.6 1c0 .2.2.3.5.4l.4.2c0 .1-.1 0-.2 0h-.4v.2l.2.2.2.1v.1c-.2 0-.2.1-.1.3 0 .3.2.6.5.8l.1.1h-.2V8c0 .2 0 .4.2.6l.3.1.6.6-1-.5.2.6.3.4v.1c-.2.2 0 .3 0 .4.2.5.4.9.7 1.2 0 .1.2.2.1.4.3.5.6.8.9 1Zm-4-8 .2 2.4a19.5 19.5 0 0 0 .1.8l.3-.3-.1.4-.2.3.1.3V9c0 .4.2.7.4 1l.2-.6v.8c0 .3.1.6.4.9l.6.6.2.1v-.5.1l.4.7.1.2.7.4v-.1l-.4-.6a7.3 7.3 0 0 1-1.2-2.2c-.2.1 0 .3-.1.6l-.2-.3v-.4c.2-.5.1-1 0-1.4H74l-.2.2h-.1l.1-.3c.1-.2.2-.3.1-.5a5 5 0 0 0-.3-1c-.2 0-.3.3-.4.5V7l.1-.4v-.7c0-.1-.1-.2-.2-.1v-.2c0-.3-.1-.4-.4-.7V5ZM61.5 3l.7 2v.4c.2 0 .2-.1.2-.2v-.4l.1.8.2 1a9.8 9.8 0 0 0 1.4 2.6h.1c-.2-.7-.2-1-.1-1.3V8l.1.4a3 3 0 0 0 1.7 2.2l.6.3v-.2c-.4-.4-.6-.9-.7-1.4l-.3-1.8h.1l.3 1.4c0 .2 0 .4.2.7.1.6.5 1 1 1.4.2.2.5.2.8.2l-.3-.2-.5-.6c.2 0 .3 0 .4.2.4.4 1 .6 1.6.8h.7l-.4-.2-1.1-.8-.1-.2h.2c.4.4.8.7 1.3.9l.3.2c.3.2.5.2.9.1l-1-.7h.2a53 53 0 0 1 1.5.7c.1 0 0-.1 0-.1l-.2-.5a1 1 0 0 0-.5-.6l-.2-.1s-.2 0-.2-.2h.3l.1.1h.1l-.5-1.8a1 1 0 0 0-.3-.4l-.8-.5-.7-.5c-.1 0-.3 0-.3-.2l.3.1.4.2.3.1.4.2.4.2c-.1-.6-.3-1-.9-1.3l-.3-.2h-.1.7a1 1 0 0 0-.3-.5h-.1a3 3 0 0 1-1.6-.5l-1.4-.8c0-.1 0 0 0 0l1 .4 1.1.5.6.2h.2V5l-.7-.7A7 7 0 0 0 65 2.5c-1-.2-2-.2-3 0h-.2v.1c.3.3.6.5 1 .5h2l.3.1c-.8-.1-1.5 0-2.2.1v.2l.7.5.4.2h1l.7.2.1.2-.8-.1-.8-.1v.1l1 1 .7.5.3.2a8.2 8.2 0 0 0 1 .7h-.2l-.5-.2L67.6 8l1 .5.6.3.2.1-1-.2c0 .2.1.2.2.3l1 .8 1.2.8.3.2h-.4l-1.5-1-2.2-2-.4-.4c-.1 0 0 0 0 .1V8.3h-.1v-.2a3 3 0 0 0-1-1.8L64.2 5H64V5l.3 1v.2-.1l-.5-1c0-.3-.2-.6-.3-.8l-.2-.2c-.1 0-.1 0 0 0v1.4l-.1-.4-.2-.8c0-.5-.3-.8-.7-1l-.6-.5h-.2Zm-1 6.7V9l-.2-.2-.2-.6c.2.1.2.2.3.4h.1v-1l-.1-.2a2 2 0 0 1-.4-1l.3.4.1.2c0-.8 0-1.4-.3-2.1l-.3-.6-1.2-1-.2-.2.3.1.3.2.2.2.3.1v-.1c-.3-.3-.5-.6-.9-.8-.8-.6-1.7-1-2.7-1.1-.1 0 0 0 0 .1l.6.3s.2.1 0 .2l.1.1.6.4.4.2s.2 0 .2.2c-.2 0-.3-.2-.5-.1l.2.2h.2V3.8l.5.2.3.2H58c0 .2.2.3.3.5l.5.6.3.3h-.3l.7 2 .3.8c0 .2.1.3.3.5l.1.3c0 .2.2.4.3.5Zm-5-7 .2.5c0 .2 0 .4.2.6v-.3c.1 0 0 0 0 .1l.1.6c.1 1 .4 1.9.8 2.7h.2V5h.1v.4a6.8 6.8 0 0 0 .2 2.2l.1-.3c.2.3.1.6.3.8l.3-1.5v-.1l.1.2v1.2l-.1.5c0 .1 0 .3.2.4l1 .8v-.7l.2.3.3.6.4.2v-.1h.2s0 .2.2.2l-.6-1.1-.2-.4-.1.4-.1-.3-.1-.6c0-.7-.3-1.3-.6-1.8-.2.2-.1.6-.3.9V6.2c0-.5 0-1-.3-1.4h-.3l-.1-.3-.2.3v.1c-.2 0-.1 0-.1-.1v-.6l-.1-.4a3 3 0 0 0-.5-.4v1.3s-.1.1-.1 0v-.6l-.1-.6c-.1.1-.2.1-.2 0v-.3c-.2-.6-.5-.9-1-1.1v.6Zm-6.4 16c.2 1 .8 2 1.6 2.7a7.1 7.1 0 0 0 2.6 1.4c0-.2-.1-.2-.2-.3a7.5 7.5 0 0 1-1.1-.8h.2c.6.5 1.2.8 1.8 1.1.1 0 .3.2.4 0l.2.1 1.3.4h.2a12.7 12.7 0 0 1-2.8-1.7h.1l.2.2a12.2 12.2 0 0 0 3 1.4h.4l-.5-.4-.5-.3-.5-.4-.4-.3-.5-.4c.1 0 .3 0 .4.2l1.3.8a13 13 0 0 0 1.5.8c0-.1 0-.2-.2-.2l-4-2.8h-.1c-.2-.2-.3-.2-.2-.3l.3.2a41.5 41.5 0 0 1 3.5 2.3c.1 0 .1.2.3.2 0-.2-.1-.2-.2-.3l-.6-.5-.1-.1.3.1v-.1l-1.3-1-.5-.5h.1l1.5 1 .2.3v-.1c0-.2-.1-.3-.3-.4l-.2-.3h.3v-.1c0-.3-.2-.6-.5-.8a16 16 0 0 0-1-1l-.4-.2c0-.1.1 0 .2 0a9.7 9.7 0 0 1 1.2.9v-.2c-.1-.3-.3-.6-.6-.8A4.9 4.9 0 0 0 52 17h-.2c0 .2.2.2.3.3h-.2a3 3 0 0 0-.5-.2 1 1 0 0 0-.3 0c-.1 0-.3-.1-.4 0l.3.2 1.5.8.1.2-.3-.2-1.8-.8-.2-.1c-.1 0 0 0 0 0a104 104 0 0 1-1-.2c-.1.1 0 .1 0 .2l1.6.7 1 .5v.1l-.4-.1-1.8-.9a.7.7 0 0 0-.4 0l.7.7a23 23 0 0 0 2 1.6h-.2l-1.2-.8-1-.9-.2-.1a68.7 68.7 0 0 0-.1.3v.2l.2.3h-.2v-.2l-.2-.1v.1Zm-1.2 1.7a25 25 0 0 0-.3 2.2l-.2 1.4-.1.4v-1.8l.2-.9V21 21.2l-.1.2c0 .1 0 .2-.2.1l-.2.6-.2 1.6v.3h-.1a52.7 52.7 0 0 1 0-1.5 6.9 6.9 0 0 0-.7 4c.1 1.5.6 2.9 1.2 4.2l.4.7h.1v-2.2l.2 1.7.2-1.6c0-.6 0-1 .2-1.6v2.1a38.2 38.2 0 0 0 0 1.3c.2.1.2.3.2.4v.4l.4-1.5.2-1.6v1.3l-.1 1.3v-.1l.2-.3c0-.4.2-.7.3-1.1.4-.8.6-1.7.6-2.6v-.1c.1-.1.2 0 .1 0a9.4 9.4 0 0 1-.6 3.2l.1-.1c.6-1 1-2 1.1-3.2.2-1.4 0-2.7-.4-4L50 22c0-.1 0-.2-.2-.3v.2a8 8 0 0 1 .2 1.8l-.2-.3a10.8 10.8 0 0 0-.5-2.7l-.3-.5c.3 1 .4 2.2.5 3.3v-.1l-.1-.2-.4-1.8-.2-1-.1-.2v.2L49 22v.6l-.2-.5a14.8 14.8 0 0 0-.4-1.8c.1 1.1.2 2.2.1 3.3v-.2l-.1-.4a45 45 0 0 0-.3-1.8v1l-.1-.8v-1.4c.1-.1 0-.3 0-.4l-.1.7Zm-1.6-3.5v.1s-.1 0 0 0v-.7l-.1.2a16 16 0 0 1-1.3 2.8V19l.4-.8a18.2 18.2 0 0 0 .7-2H46c-.4.8-.9 1.4-1.4 2v.1h-.1l.1-.3.9-1.2.5-1v-.2l-.3.6h-.1v-.5l-1.2 1.8v-.2l1-1.5c.1-.1.1-.2 0-.2 0-.1-.1 0-.2 0a20.3 20.3 0 0 0-2.4 2.1l.1-.2a13.8 13.8 0 0 1 2-2c.1 0 .2 0 .3-.2H45c-.7.1-1.3.3-2 .6a5 5 0 0 0-2.6 3.7l-.2 1.4v.5c.1-.2.1-.5.3-.6l-.1.4-.1.5.2-.3.3-.4v.2l-.4.8-.4 1.4.2-.3.2-.4a7.2 7.2 0 0 1 .4-.6v.2l-.4.8-.4 1.1v.3l.1-.1a24 24 0 0 1 2.3-3.9s0-.1.1 0l-.2.4-1.1 1.7c-.5.9-.8 1.7-1 2.6 0 0-.1.1 0 .1l.1-.4.2-.5a8.2 8.2 0 0 1 .8-1.4c0-.2.2-.3.3-.5a23.9 23.9 0 0 1 .6-.8v.2l-.4.6c-.4.6-.8 1.3-1 2 0 0-.2 0-.1.2l.1-.1 1.3-1.1 1.6-1.1 1.4-1.3c1-1 1.4-2 1.4-3.3v-1.3c-.2 0-.2.1-.2.2Zm-10 3.2v-.3l-.2.1.1.2Zm.2 3.8h.2l.2-.1v-.1c0-.3-.1-.5-.4-.6h-.1l-.1.1c0 .3 0 .5.2.7Zm-.8 3.8h.2c.1-.2 0-.3 0-.4h-.2c-.1.2 0 .3 0 .4Zm-2-1v.1h.1v-.2Zm-1.2 1.6s0 .1.1 0h.1l-.1-.3-.2.2.1.1Zm-1-7.2h.1l.1-.3v-.1h-.1l-.1.3ZM8.6 78.5l-1.2-.7-.3-.3.5.5.5.5-.5-.2c.3.4.7.7 1.2.8.6.3 1.2.4 1.9.5h.2-1.3a6 6 0 0 1-1.3-.5v.1c.6.6 1.3 1 2.2 1 .5 0 1 0 1.4-.2a11.7 11.7 0 0 0 3-1.4l1-.5h-.1l-1 .3a57.1 57.1 0 0 1-1 .3c.2-.2.6-.3.9-.4l1-.5-1.5.2c.4-.3 1.1-.4 2.4-.5h-1l.4-.1h.7c-.2-.2-.3-.2-.5-.2a5 5 0 0 0-.5 0l-.4-.1c.5-.2 1 0 1.4 0V77a1 1 0 0 0-.4-.1l-1-.3H15v-.1h.6l.7.1a1 1 0 0 0-.4-.3l-.9-.3-.3-.1v-.1h.4s.1.1.2 0l-1.2-.5c-.7-.2-1.5-.2-2.2-.1-.7 0-1.4 0-2.1.2h-.2l.1.1h.1v.1l-1 .1-.5.1c.2.1.3 0 .4 0l1.8.1h.4l-1.7.2H7.7l1.3.4 1.4.1a39.3 39.3 0 0 1-1.2.1c-.5 0-1-.2-1.4-.3l-.3-.1.2.1.3.2h-.1l-.6-.1.1.1 1.4.5 1.4.2.7.1H9.3c-.5 0-1-.2-1.4-.3l.9.4c.3 0 .5.2.8.3H9l-1-.4h-.2c.7.5 1.4.9 2.3 1h1s.2 0 .3.2h-1.2a5.2 5.2 0 0 1-2.2-.8l-1-.8.4.5a5.5 5.5 0 0 0 .6.6l.4.2.4.2c0 .1-.1.1-.2 0ZM6.4 84c0 1 .3 2 .5 2.9.6 2 1.7 3.8 3.2 5.4l1.4 1.3 1.5 1.2s0 .2.2.2V95l-1-1.2-1-1.2-.2-.2.2.1 1.3 1.3.2.2-.3-.6a14 14 0 0 0-.3-.5h.1a107.3 107.3 0 0 1 1.1 1.7v-.2l-.9-1.8-.2-.4.2.1a10.9 10.9 0 0 1 1.1 2c0-.2 0-.4-.2-.6a4 4 0 0 1-.2-.6h.1l.1.1v-.3l-.9-1.8V91l.8 1.4.6 1.4c-.1-.9-.5-1.7-.9-2.6.1 0 0 0 0 0h.1l.3.6v-.2l-.1-.4v-.2c.1 0 0-.1 0-.2 0-.5-.2-1-.3-1.4-.6-1.8-1.5-3.5-2.6-5l-.6-.8-.2-.1.7 1.2H10l-.5-.8A16.9 16.9 0 0 0 8.2 82l.2.4.9 1.3.2.3c0 .1 0 .1-.1 0l-.2-.2-1.8-2.5-.2-.3v.2l.5 1v.2l-.1-.1-.7-1.3-.2-.3v.2L8 83.5V83.8l-.1-.2-.7-1.4L7 82v.2l1 2.3L9 87l1.4 2.4.1.2-.2-.1a31.1 31.1 0 0 1-3.3-6c.2 1.1.6 2.2 1 3.3l.3.7h-.1l-.3-.7a26.1 26.1 0 0 1-1.3-3.5l.7 2.8v.2l-.1-.2a72 72 0 0 1-.8-3.1v1.1Zm-1.1-5-.1.2a9.6 9.6 0 0 1-.7 1.6l.2-.8.3-.9.2-.8H5l-.2.6-.1.2V79l.1-.6v-.2l-.5 1.1-.5 1.3-.6 1 .7-2 .2-.3-.2.2-.3.7-.2.1.4-.9.4-.9c0-.3.2-.6.4-1l-.2.2-.5.8-.3.7v.1c-.1 0-.1 0 0-.1l.1-.5.1-.2-.6.9-.6 1.5-.1.3h-.1V81c-.3.4-.8 1.8-1 2.5l.2-.1v.1l-.2.7v.7l.3-.5c0 .4-.2.7-.3 1v1-.2l.5-1.6c0-.1 0-.3.2-.4v.2L1.7 86c.2 0 .2-.1.2-.2l.7-1.7s0-.2.2-.3l-.3 1-.3 1 .6-1.1-.2.5-.1.5.4-.6c0-.1 0-.3.2-.3h.1c.7-1 1.2-2.1 1.6-3.2a7 7 0 0 0 .5-2.4Zm-1.1.2.1-.3-.1.3ZM2.5 67.9Zm3.8-21.3h-.1l-.2.5c.2-.1.2-.3.3-.5Zm7.2-2v-.4h-.1l-.1.5c-.1-.1 0-.2 0-.2V44h-.1v.4l-.1-.2V44h-.2l-.2.1-.1.1c0 .2-.1.3-.3.4l.2-.3v-.2c.1 0 .2-.1 0-.2v.2c-.2.1-.2.2-.3.4l-.1.2.2-.7V44l-.2.2-.1-.1h-.2v-.3h-.5l-.1.2c0 .1-.1 0-.1 0l-.1.4v.2l.8.4h.5l.2.1h1v-.6Zm.3.2c-.2 0-.1-.2-.2-.3v.6c0 .2.1.2.3.2v-.5Zm.6-.2-.1-.1H14l.1.7c0 .2.2.2.3.2v-.8Zm.8.6v-.5l-.1-.2H15v.8h-.1v-.6c0-.2 0-.2-.3-.2v.8c-.1.1 0 .2 0 .2l.5.2c.2-.2 0-.4 0-.5Zm1.3-.3v-.2h-.1l-.2.6v.1-.3l-.1-.3v-.2H16c0 .2-.1.1-.2 0h-.1v.7c-.2-.2 0-.5-.2-.7v.5c-.2-.2 0-.4-.2-.5v1l.1.2 1 .5h.1V45Zm.4.2c0 .3 0 .7-.2 1v-1 .5a3.7 3.7 0 0 0-.1.5v.2c0 .2.1.2.3.3v-1.5Zm1.4 10.6c.2 0 0-.2.1-.3l.2.3.8 1.1.4.5V57l-.1-.8v-.5.2l.3 1.1.1.2.1-.2.4-1.1c.2-.4.2-.7.2-1l.1-.1.1-.1c0-.1.1-.3 0-.4 0-.6 0-1-.4-1.5h.1l.3.4.1.2h.1c0-1-.2-1.9-.6-2.8a2.5 2.5 0 0 0-1.5-1.5h.5l-.7-.7c-.2-.3-.5-.5-.8-.6l-1-.4h.6l-.1-.1-1-.6a1 1 0 0 0-.5-.2c-.4 0-.8 0-1.2-.2 0 0-.1 0 0 0v-.1a14.7 14.7 0 0 1 .8 0l-.7-.4a9 9 0 0 0-2.7-.5v.1l.4.3 1 .5.5.2v.1h-.4l.1.2.8.7c.4.4.9.6 1.4.7h.6l.1.2h-1.1c.3.4.6.8 1 1 .2.4.6.6 1 .7l1 .3.3.1v.1l-.8-.2-.9-.2.4.5.3.5A12 12 0 0 1 19 53l.2.6-.7-1.1v.4c.1.1.1.2 0 .2v.3-.4l-.4-1-.8-1.4-.3-.3s0-.1-.1 0c-.1 0 0 0 0 .1v.6l-.1-.2-.3-1a3 3 0 0 0-.7-.9l-.5-.4-.2-.2v.3l.1.3a2.8 2.8 0 0 1 0 1v.3a381.6 381.6 0 0 1-.3-1.5 3 3 0 0 0-.5-1c-.2-.4-.6-.7-1-1v.6H13l-.1-.5c-.1-.4-.3-.7-.6-1l-.5-.2h-.1c0 .4 0 .8.3 1.2l.4.4 1.1 1.7c.4.7.6 1.4.7 2.2V51.6h.1l.1-.2v-1.2h.2v1.2c0 .4 0 .9.4 1.3l.5.6c.3-.1.3.1.4.2v-.3a32 32 0 0 0 .3-.9v1.3c0 .3 0 .5.3.7l.9.7v-.5c-.2-.3-.2-.6 0-1v.4l.1.6.7 1.2Zm-4.4-2.1c-.1 0-.2.1-.2.3l-.1.2v.1c0 .1 0 .1 0 0 .1 0 .3 0 .4-.2l.3-.2-.1.2c-.1.1-.3.2-.3.4v.1c-.1 0-.2.1-.1.2 0 0 0 .1.2 0v.2l.4-.1v.2l-.1.1c-.2 0-.3.2-.4.3h.3-.2l-.2.2v.1h.2l.8-.3h.2-.1l-.3.3h-.1l-.3.2s-.1 0 0 0c0 .1 0 0 0 0h.7l-.4.1-.3.1v.1h.4c.7-.2 1.3-.3 1.9-.6l.6-.4V55a.6.6 0 0 1-.3-.2l-.3-.3a8.9 8.9 0 0 1-2-2.3l-.2-.3v.2l-.4 1.1v.3ZM13 55l-.1.1v.4c.1 0 .1 0 0 .1v.1h.5c.1 0 .2 0 .3-.2v-.3c.2 0 .1-.2 0-.4v-.3l-.2.1v.4c-.1.2-.2.2-.3.1h-.2Zm-.5.8.2-.4c-.2-.1-.2-.2-.1-.3V55c-.1 0-.1 0 0 0v-.3h-.3c-.1 0-.2.1-.2 0s-.1 0-.2 0v-.3h-.3s0 .1-.1 0l-.3.1-.6.2h-.1l-.1-.2h-.1v-.2H10c0-.1 0 0 0 0l-.2.2v-.2l-.1.1-.1-.3-.2.2v-.3h-.2l-.1.4V54l-.1-.1h-.2l-.1.3-.2-.3h-.1v.1s.1.2 0 .2l-.1.2c0 .4 0 .4.4.4a8.6 8.6 0 0 1 1 .1H8.4v.1h.3c.2.2.4.2.5 0l.1.1v.1h.8a125.7 125.7 0 0 1-1.2.1v.1h-.4v.2h-.2v.2l.3.2h-.3l.2.2h-.2c0 .2.2.2.2.3H8.1v.2c.1 0 0 0 0 0v.4c-.1 0-.1 0 0 .1v.1c-.2 0-.2 0-.1.2l-.1.2-.1.2.1.3H8l-.1.1v.2c-.2 0-.2 0-.1.1-.2.2-.1.4 0 .6v.3l.1.3c.1 0 .2.1 0 .2v.1c.1 0 .1.1 0 .2v.9l.1.7.1.2.1-.2.4-1.4c.1-.5.2-1 .1-1.6l-.1.2c0 .2 0 .4-.2.6l.2-1.1.1-.5V58c.3-.2.3-.2.2-.6H9v-.5c.1 0 .1-.1 0-.2h.1l.1-.3.2-.3 1.1-.5h.4l.5-.1v.2H11l.3.2h.3s.1 0 0 0l.1.3v.2l-.2.3h.3l-.4.2h.4c.1 0 0 .1 0 .1l-.2.2c.2 0 .1.3.4.2h-.2s0 .2-.2.1v-.1c-.2-.1-.3-.2-.4-.1H11c0-.1 0-.1-.1 0a1 1 0 0 0-.5.3c.2.2.2.2.6.2-.1 0-.1.1 0 .1l.4.3c.2 0 .3 0 .4.2.2 0 .3.2.3.4l-.1.4c0 .1 0 .2-.2.2v.1c0 .2.1.2.2.2h.1l-.4.1v.2h.3l-.1.1v.1c0 .2-.1.2 0 .2s0 .1 0 .2h.2s.2 0 .3-.2l.3-.4.2-.3c.1-.2.1-.4.4-.6v-.8h-.4c0-.2.2-.2.2-.2s.2 0 .1-.2h.1l.2-.3V57.3h-.2c0-.2.1-.2.2-.3h.1c0-.1 0 0-.1 0h-.3l.1-.2h.2v-.1l-.3-.1.1-.1v-.1l-.2-.2-.2-.1-.2-.2h-.1l-.1.1v-.3Zm-3.7 6.6h-.3.3Zm.5 0 1.4.3v-.2l-.7-.9-.8-.5-.3-.1h-.2l-.1.4.1.1H9l-.2.1h-.4v.1c0 .1 0 .2.2.2H9l.2.2-.8.2h.8Zm2 .2-.5-.4-.7-1-.5-1-.2-1a3 3 0 0 0-.2-1.2c-.3.2-.3.5-.3.7v.6c0 .1.2.3 0 .4l.1.2V60.2h-.1c.2.2 0 .2 0 .3v.1l.1.1h-.3c.1.2.2.2.3.2l.6.2s.1.1.2 0l1 1.4.4.4h.1v-.3Zm.5-.7h.2l.5-.1a1 1 0 0 0-.5-.1c-.1 0-.3 0-.4-.2-.4-.2-.9-.3-1.3-.3 0 0-.1 0 0 0v.3h.3v.2l.3.2h.3s0 .1 0 0h.6Zm-1.5-3.7c0 .2.1.2 0 .4l.2.3.1.1.3-.3.4-.3h.1v-.2a2 2 0 0 1-.9-.3l-.2-.1-.1.1v.1h.1v.2Zm1.1 1c.3 0 .4-.1.6-.3V58.6h-.6l-.2.2H11.4a1 1 0 0 1-.3.1l-.3.1-.1.1v.2c.3.1.5.2.8 0-.1 0-.3 0-.5-.2h.4Zm-1.1-1.7h.1l.1-.1c.2-.3.4-.4.7-.4l.3-.1v-.5c.1 0 0-.1 0-.2a.7.7 0 0 0-.5-.3h-.2c-.4 0-.8.2-1.2.4l-.1.1v.5l.1.2.2.1.2.2.3.1Zm.1-1.6H10h.3Zm3 3.8c0-.1 0-.2.2-.3l.4-1V58c.2-.4 0-.9 0-1.3v-.4h.1c0-.5-.2-.6-.5-.6H13c0 .2.1.2.2.2.3.3.5.6.6 1v.6l-.4.4-.2.2c.2 0 .3.2.3.4v.5l-.4.6s-.2.1-.1.2l.3-.2Zm-.6-4.8h.1v-.1h-.1v.1Zm4.4.6c.1 0 .2 0 .3-.2l-.3.2Zm.6.2c.1 0 .1 0 0-.2H17.4l-.8.5v.1h.3v.3h.1l.7-.6Zm-.3 2.4c0-.1-.2-.3-.1-.4v-.1c-.1-.1-.3-.1-.3-.3l-.2-.2h.2l-.1-.2c-.2-.3-.1-.3-.3-.3h-.3c0-.2.2-.2.1-.3l-.1-.2h-1l-.5.2v.1l-.2.2H15l.7.1.7.4v.1c.2 0 .2.1.3.2l.6.7.2.2v-.2Zm0 1-.2-.3v-.1c-.1-.2-.2-.4-.5-.5h.1s.1-.1 0-.2h-.1c-.1-.1 0-.1 0-.1v-.2l-.2-.2-.2-.1v-.2a.8.8 0 0 0-.6-.2h-.2c0-.2-.1-.2-.2-.2h-.4c-.1 0 0 0 0 0h-.4c-.3 0-.4 0-.3.4V57.5h.3c.2 0 .3-.2.5-.1h-.1l-.6.3a24.3 24.3 0 0 0 .9 0l-.5.1a1 1 0 0 0-.5.2h1-.7c-.2.1-.2.2-.2.3h.9-.1l-.3.1h-.2l-.2.1c0 .1.1 0 .2 0 .2.2.3.3.5.2 0 .1-.1.1 0 .2v.2l-.6-.4h-.2c-.3 0-.5 0-.4.5 0 0-.2 0-.1.1v.1l-.5.3h.1c0 .2-.2.3-.3.3h.6l-.6.1-.4.3c.2 0 .4-.2.7 0H13l-1 .3h-.2l-.3-.5-.2-.2c0-.3 0-.3-.2-.2h-.1c0-.1.1-.2 0-.2H11l-.2-.2-.5-.7-.2-.6-.5-.7-.2-.2v.1l.2.3h-.1c0-.1-.1-.2-.2-.1v.2s.1 0 0 .1l.2.2c-.1.1-.1.1 0 .2 0 0 .1 0 0 .2.2 0 .2.1.1.2v.2s.2 0 0 0v.2h.2v.2l-.1.1c-.1.1 0 .2 0 .2l-.1.1.1.1-.1.2h.4l-.2.3v.2l.1.1h.8c0 .2.1.2.2.3l.4.1h.3c.1.2.3.1.4.2h.1V61a33.9 33.9 0 0 1-.6-.3l1 .2.6-.1.3-.1h.2a30 30 0 0 0 1.2-.5l.1-.2s.2 0 .2-.2l.1-.1v-.3s.1 0 0-.2c.2.2.2.5 0 .7l-.2.3-.4.2v.1s.1 0 0 0c-.3.2-.7.2-1 .3l-.2.1v.2H12.5v.1H12c0 .2.2.2.3.3h-.1l-.7-.3-1.6-.4h-.1l.2.2h.3l1.4.5 1 .2 1.6.1.9-.1s.1-.1 0-.2c0 0-.2 0-.1-.1h.3l-.2-.2h.3l.2-.2h.1v-.1l.5-.1.1-.2H16.8v-.2l-.3-.1.6.1v-.2l-.2-.3s0-.2.1-.1l.4-.2c0-.2-.1-.3 0-.4V59Zm-2.2 5-.3-.2c0-.1.1 0 .2 0l.2.2V64l-.6-.7.4.2.3.3H15.7v-.1l-.2-.2c.1-.1.1 0 .2 0l.1.2s.1.1.2 0c.3-.1.4-.1 0-.5l-.2-.3.6.4s.1.1.2 0v-.1l-.1-.3-.1-.1v-.1l.1.2c.2 0 .3.2.4 0l-.1-.2v-.2h.1v.1h.1v-.2c.2 0 .3-.1.3-.3l.1-.3v-.4c0-.1.2-.1.1-.2l-.3-.1c.4-.2.4-.2.4-.5v-1.2l-.1.4-.2.4-.2.3-.2.1a3 3 0 0 1-.3.2c-.4.1-.6.3-.9.6l-.2.2h-.1c0 .2-.1.2-.2.2a1 1 0 0 1-.4.1v.2l-.4-.2h-.2c-.1.1-.3.1-.4 0h-1l.7.3h-.2l-.7-.2h-.2c-.1 0 0 0 0 .1 0 0 .2 0 .3.2h-.8c-.1 0 0 0 0 0h-.5c.2.2.4.2.7.3h-.8v.2l.3.1h-.2V63.2l-.1.1H11L11 63l-.3-.2-1-.2h-.3c-.1.2-.3.2-.4 0l-.2.1c.2.2.5.2.7.2l.8.3-.8-.1-.7-.2s.2 0 .2.2h-.5l.3.3h-.2l.2.2c-.1 0-.2 0-.1.1l.1.1c.2.1.2.2.1.4v.2c.2.4.5.6.9.6h1.2c0-.2.1-.1.2 0h.3v-.1s0-.1 0 0h.4a.4.4 0 0 1-.3-.3c.2 0 .3.1.3.2h.2v-.2l.3.2s.2.2.4.1h.1c0-.2-.2-.3-.3-.5h.1l.4.4.2.1-.1-.4-.1-.2.4.5s.1.1.2 0h.1v-.3l.1.1.1.1c.1.1.1 0 .2 0 0 0 .1 0 0-.1l-.1-.3-.1-.2h.2l.1.1v.1l.2.3.4-.2v-.1l-.2-.3-.2-.3.3.3.2.3h.2s.1 0 0-.1Zm-4 3.2c0 .1 0 .2.2.2 0 0 .2 0 .2-.2v-.2h.1c0 .3.2.4.4.4.5 0 .5 0 .6-.4v.3h.2v.2l.2-.1v-.3c.2.2 0 .2 0 .3 0 .2 0 .3.2.3.4.2.5.3.9-.1v-.2c.2 0 .1 0 .1.1 0 .2-.2.3-.3.4l.2.1c.2 0 .4 0 .5-.2h.1v.1c0 .1 0 .2.1.1h.2v-.3s0-.2.2-.2v.3s0 .1 0 0h.1l.2-.6v.5c.2 0 .2-.1.3-.2l-.1-.9c0-.3-.2-.5-.3-.7l-.7-1.1-.1-.2h-.2v.1s.2.1.1.3l-.2-.2c-.1 0 0 0 0 .1l.1.2-.2-.1.2.7-.7-.8c0 .3.3.6.2 1l-.2-.7-.2-.1h-.1v.3c0 .1.1.2 0 .4l-.1-.5s0-.1 0 0h-.2v.5-.1a9.5 9.5 0 0 0-.3-.6s0-.1 0 0h-.1v.2l-.2-.2h-.1l-.1.3-.2-.3H12v.2l.2.5-.1-.1c0-.3-.3-.4-.4-.6h-.1a3 3 0 0 0-.3 0v.6-.2l-.3-.3-.2-.1v.1H10.1l.1.2.1.2h-.1l-.4-.4.1.3-.2-.1-.2-.2v.3s0-.2-.2-.2l.1.3.7 1.2.3.4.4.1c.1 0 .2 0 .3-.2V67v.3Zm6 2.2c.3.3.5.5.9.6l.8.2.1-.1H19.3l-.2-.3-.2-.4c0-.1 0-.1.1 0l.2.2.4.4c.1.2.3.3.4.3a8.2 8.2 0 0 0 1.1 0v-.1l-.2-.2c-.3-.2-.4-.4-.5-.7.2 0 .3.2.4.4.4.3.9.5 1.4.6l-.1-.2c0-.1.1 0 .1 0l1.5.4h.3v-.1l-.6-.4-.3-.3v-.1h.2l.7.6.2.2v-.2l-.3-1a2 2 0 0 0-.4-.8V68.2l-.2-.3c-.3-.3-.6-.6-1-.7h.1l.5.1a6 6 0 0 0-2.1-1.7c-.4-.2-.9-.3-1.4-.2h-.3l.2-.2-.4-.1h-.4a3.7 3.7 0 0 0-1.4.2l-.4.1v-.1c.2 0 .3-.1.3-.2h-1.2v.3l.5.8c.1.2.1.2.3 0H16.9l-.3.3c-.1 0-.1.1 0 .2l.1.2c.4 0 .7.2 1 .1.4 0 .7 0 1-.2a33 33 0 0 0 1-.4v.1l-1.2.6.1.1a9.6 9.6 0 0 1 2.5 1l.2.2-.5-.2-.4-.2c0 .1 0 .2.2.2 0 .1.2.1.1.3l-.2-.1-.8-.5c-.5-.3-1.1-.5-1.7-.5 0 .2.1.2.2.3 0 0 .2 0 .2.2h-.1l-.6-.3-.8-.4c-.1 0-.2 0-.1.2l.2 1v.5c-.1 0 0 .1 0 .2l.3.4Zm-.4-.3h-.1s-.1.1 0 .2l.4.4c0-.3-.2-.4-.3-.6Zm-2.4 3h.4l.4.1c0-.3-.3-.5-.2-.8l.1.2.2.4c.1.3.3.4.6.4H16.7s0-.1 0 0h.2l1 .3h.1c-.1-.3-.4-.5-.7-.7l.5.2c0-.3 0-.5-.2-.8l-.2-.1-.5-.1-.2-.1h.8l-.1-.3v-.1l-.3-.3h-.2v-.2c.1 0 .1 0 0-.2 0-.2-.2-.3-.3-.4h-.3l-.2.3-.7.8v.6-.1c-.2-.3-.3-.2-.4 0-.2 0-.4.2-.5.3l-.2.2c-.1.1 0 .3.1.3Zm-8-2-.4 1h.5V71l-.2-.1h.4c0-.3-.2-.5-.3-.8Zm1.7.2h-.6l-.8-.3c.4 1.5 1.9 3.2 3 3.7 0-.2-.2-.3-.3-.4L9 73l-.3-.4 1.3 1-.7-.8-.7-.8-.6-1c.2.1.3.2.3.4l.3.3a23.1 23.1 0 0 0 .6.8l.3.3a13 13 0 0 0 .7.6c-.3-.6-.7-1-.9-1.7l.4.5.4.6.4.6-.1-.6.2.2v-.3h.1l.1.1v-.6c0-.2-.2-.4-.4-.5-.7-.3-1.3-.7-1.8-1.2a.4.4 0 0 0-.5-.1Zm.6-.3v.2l.7.5v-.5l.1.3.1.3.2.2h.2v-.3.1c.2.2.2.4.4.4v.1l.2.1v-.1l-.2-.6-.1-.4.1.3.4.9c0 .1 0 .1.1 0h.1V71l.2.6c0 .1 0 .3.2.2l.2.2c.1 0 0 0 0 0V72c.1 0 .2 0 .2.2l.2.1.2.2v-.3l.2.4.1.1v-.3l.1.1h.2v.2c.2 0 .3.2.4.3h.1V71.4v1.4h.2s0 .1 0 0v-.4l.2.2v-.3h.2v-.2c.2-.2.2-.3.2-.5l-.1-.8v-.2l.2 1V71a71 71 0 0 0 .3.2v-.7c.1.2 0 .4.2.6v-.5l.2.1v-.2l.1.3.1-.2v-.2c.2 0 .1.2.2.2l.2-.3v-.5l.1.4v-.4l.1.1h.1v-.4l.1.1v-.2l.1.1c0 .1.1.1.2 0l.3-.3.2-.7v.2h.2V68a10.5 10.5 0 0 0-1.9-3.5h-.1v.2l.9 1.3v.1c0 .3.2.5.3.8 0 0 .1.1 0 .2-.1 0 0 .1 0 .2l.1.6-.3-.3v.5c-.2-.2-.2-.2-.4-.1a2 2 0 0 1-.7.2h-.2l.2.7-.1-.2-.3-.4a.3.3 0 0 0-.4-.1c.1.3.3.5.3.8l-.1-.2c-.1-.3-.4-.5-.6-.7-.1-.1-.2 0-.2 0l-.2-.2-.1.1.2.3a.3.3 0 0 1-.2-.3l-.2-.2c-.1 0 0 0 0 0v.1l-.2.2-.2-.4s0-.1-.1 0l.2 1.5V69a54.7 54.7 0 0 0-.6-1.4v.4l-.1-.4s-.1-.1-.2 0v.6l.1.6v-.2l-.1-.3-.1-.2-.1-.2v-.3c-.2.2 0 .4 0 .6-.2 0-.1-.1-.2-.2V68l-.1-.2H11v.4-.1l-.1-.1h-.1v.2l-.2-.4h-.1l.1.5.1.3-.2-.2a34.2 34.2 0 0 1-.3-1l-.1.2-.3-.7h-.1l.2 1-.2-.4v.7h-.2v.6l-.1-.3c0-.1 0 0-.1 0h-.1l-.2.1v1c-.1.2-.2.5-.4.6Zm-.3-4.3h.1v.5l.3.1-.3.2v.2h.3l-.2.2c-.1 0 0 .1 0 .2-.1 0 0 .2 0 .2l.2.2v.1c-.1 0 0 .1 0 .2v.1c.1.2.3.4.6.3v-.2l.1-.3V67.5c0-.2-.1-.2 0-.2.3-.4.1-.8 0-1.2h-.2v-.4c-.1 0-.2-.1-.1-.2L9 65h-.1v-.2l-.2.1v-.3c0-.1 0-.1 0 0h-.2v-.4l-.2-.1c.2-.1.2-.2 0-.4-.1-.2 0-.2 0-.2 0-.3 0-.5-.2-.7v-.5l-.2-.1-.1-1.2v-.6l-.2-1v-.2.1l-.2.5v.4l.1.2v.3c0 .3.1.5 0 .8v.5c-.2.1 0 .3 0 .5l.1.1v.5l.1.2H8l-.2.1v.3c.1.1.3 0 .3.2l.2.1-.2.2-.1.3c0 .4 0 .7.3 1l.1.3h.1Zm-1.8-2.6v.1c-.1 0-.2 0-.1.2v.1h.6l-.4.2v.1h.5l-.3.1-.2.1.1.3v.1h.3v.2s-.1 0 0 0v.1c.1 0 .1 0 0 .2h.3l-.3.1v.1c.3 0 .6.2.8.3l-.1-1-.1-.3s.1-.1 0-.1l-.2-.8h-.1l-.2-.3v-.2l.1-.2v-.3l.1-.7v-.9l-.2.1-.4 1.5-.3.6v.2l.1.1Zm.7 2.6.9.6h.1v-.1c0-.3 0-.4-.3-.5h-.2l-.2-.1h-.3v.2ZM1.1 53.7v1.5l.1 1.2c0 .4.2.9.4 1.4l.1.1v.5l.2-.1-.2.4v.1H2l-.1.3h.1v.1s-.1.1 0 .2V59.7c.2 0 0 .2.1.3l.3-.2-.1.2-.2.2v.2s0-.1.1 0l-.2.2s-.2.2 0 .4l-.1.1c.2 0 .3 0 .4-.2l.4-.1a44.2 44.2 0 0 1-1 .7H2l-.2.2h-.2v.2h.2v.1l.6-.1-.5.2.8-.2-.4.4c.2 0 .3-.1.4 0h-.3l-.2.2h.9c-.2 0-.5 0-.6.2v.2h.3l.3-.1h.2l-.2.1v.1h.3v.2l-.2.1h.4c-.2.1-.2.2-.1.3.3.3.5.6.9.8l.1.1s0 .1.1 0v-.3l-.2-.5v-2c-.1-.3-.2-.6-.5-.8l-.5-.7V60a1 1 0 0 1-.3-.5l-.2-.1-1.4-3c-.1-.4-.2-.8-.1-1.3V55l.1-.3V54l-.3-.4v.1Zm.8-.2-.2-.1c-.1 0 0 0 0-.1v-.2l-.1-.3-.2-.3-.1.2v.2c0 .2-.2.3 0 .4 0 .2.1.4.3.5.1 0 .2 0 0 .1v.2c.2.2.1.3 0 .5 0 .1 0 .2-.2.3v.4H1.8v.2c-.1 0-.1.1 0 .2-.2.1-.1.2-.1.3l.2.6.2.2h.2l.3-.1c-.2.1-.4.1-.5.3h.5l-.3.1v.3l.1.1h.2l-.1.2c-.1 0-.1 0 0 .1h.3c0 .1-.2 0-.2.3l.3.1h-.1v.2H3c-.1.2-.2.3-.1.4l.2.5v.2l.4.5.2.3.4.5h.1l.1-.1.3 1.2v2h.3v.4c0 .2 0 .2.2.1.1 0 0 .1 0 .2v.1c.2 0 0 .1 0 .2H5.4V65.1h.1l.2.4 1.1 1 .4.1h.1v-.4l-.2-.8c0-.2-.1-.2-.3-.3v-.3c-.2 0-.2 0 0-.2-.1-.1-.1 0-.2 0v-.2l.1-.1-.1-.3h-.1l-.1-.1s-.1 0 0-.1V63.6h-.1l-.3-.1.2-.2h-.2l.1-.1s.1 0 0-.1h-.2l.1-.1v-.2l-.3-.1c.2-.2.2-.3.1-.4 0 0-.2 0-.1-.2H5.3l.2-.2v-.3l-.1-.1c0-.4-.3-.7-.4-1-.2 0-.2-.2-.3-.3V60l-.2-.2-.3-.2h.2s.1 0 0-.1c0-.3 0-.3-.4-.5h.2V59l-.2-.1-.2-.1H4v-.2L4 58c0-.1-.1-.2-.3-.2h-.2l.3-.1-.1-.3-.2-.1V57h-.1l.2-.2a32.4 32.4 0 0 0-.3-.7h-.6l.5-.1v-.2l-.3-.2s.1-.1 0-.2v-.2l-.2-.6c0-.2-.2-.3-.3-.5h-.2V54h.1c0-.2 0-.3-.2-.3v-.2Zm2.8 6.2-.6-2c-.1-.4-.3-.8-.6-1.1l.4 1 .3.8c0 .4.2.8.4 1.3h.1ZM1 48.9l-.1-.2c-.1.3 0 .5 0 .8.2-.2.2-.4 0-.6Zm4.9-2v-.4.3Zm-1.6 2v-.3.4Zm0-.3.1-.4v.4c.2-.2.2-.3.2-.5v-1c-.1 0 0 0 0-.2l.2 1.7V48H5v-1 .2l.1.8v-1l.2.7.1-.3v.2h.1l.2-1.1c0-.2 0-.3-.2-.3L5 46 3.4 45h-.1V45.7c.5.4.7.9.9 1.5l.1 1.4ZM3.4 50l.1.4c.1-.3 0-.5 0-.8l.2.5v-.8l.1.6c.1 0 0-.1 0-.2v-.3a15 15 0 0 0-.4-2l.5 1.6v-.6l.2.6v-1l-.2-.9c0-.3-.2-.7-.4-1l-.1-.1c-.3-.4-.7-.4-1.1-.2-.1 0-.1 0 0 .1v.1H2s-.1 0 0 0V46.4h-.2v.2h.2v.2H2v.6c0 .2.2.3.4.4 0 .1-.1 0-.2 0v.1l.4.4c0 .1 0 0 0 0L2 48H2v.4h-.2l.1.4c-.3 0-.5.2-.6.5l-.2.3v.1h.1c.3-.3.6-.4 1-.3l.2-.1c.3-.3.5-.3.7 0a2.2 2.2 0 0 1 .3.8l.1-.1Zm.6 5.4v-.2h-.4c.1-.1.2 0 .3-.2h-.2v-.6c-.2-.3-.2-.3-.5-.4l.2-.1-.3-.2h.2l.1-.2-.2-.4v-.2l-.1-.8v-1.4c.2-.4.2-.9-.2-1.3l-.1-.1h-.3c-.1.1 0 .2 0 .2v.3h-.2v.1l.2.2v.2c-.1 0-.2.1 0 .2l-.2.1c.1.1.2.2 0 .3 0 .2 0 .4.2.5l-.1.2.1.4h-.2l-.1.2v.2l-.1.2h.2s-.2 0-.2.2c.1 0-.1.1 0 .2v.5c.2 0 .1-.2.2-.2 0-.2 0-.4.2-.6h.2v-.2l.2-.1s.1 0 0 .1l-.2.2-.1.2c-.2.2-.3.4-.2.7l.2.8.1.1.1.2v.2H3l-.1.2.2.4.5.8.6 1.2.2.2c-.1.1 0 .2 0 .2h.1c-.1 0-.1.1 0 .2V58.4l.1.6.3.3.2.1h-.2v.2c.1 0 .2.1 0 .2v.1c.2.1.2.3.2.4l.4.7.1.1.2.8.2.6h.1v-1.2s-.2-.2-.1-.3l-.1-.5-.2-.5-.1-.6-.2-.2-.1-.2h.2a13.7 13.7 0 0 0-.3-.8s-.1 0 0 0V58c0-.1 0-.2-.2-.3v-.3c0-.2 0-.3-.2-.3-.1 0-.1 0 0-.2v-.1l-.4-.1c0-.1.2 0 .2 0 0-.2 0-.1-.1-.1v-.1s.1 0 0 0v-.2l-.3-.1h.2V56s0-.2-.2-.2v-.2l-.1-.2H4c-.1 0 0 0 0-.1Zm3.8-4.6c0-.2-.1-.3-.3-.3.2.2.3.4.2.6l.1.6-.2-.6-.1-.4-.3.1-.1.3c0 .3-.2.5-.4.7l.2-.6h-.1l-.4.3-.2.2c0 .1 0 .2-.2.2l-.3.3-.3.2-.1.1a7 7 0 0 0-.6.8v.1l.3-.2.8-.7H6c0-.2.2-.3.3-.5h.1l.1.1-.2.2.3.1-.4.2-.4.1v.1h.5c-.3.2-.6.2-1 .3H6c-.2.2-.4.1-.5.2l-.6.2h.4c-.1.2-.2.1-.3.1l-.3.1h.1l-.3.1.2.1a4 4 0 0 0-.6.2l1.5-.1-.9.2-.2.1H4l1 .2-1 .1.1.1h.2v.2h.2-.3c0 .2.2 0 .3.2l-.3.1c.3.2.7 0 1 .2h-1l.7.2h.9a2.9 2.9 0 0 1-1.3.1v.2l.7.1-.5.1s-.1.1 0 .2l.1.1.4.1H5c.1.2.3.2.3.2h-.1V57l.7.1h-.6v.2c.2 0 .2 0 .1.1v.2l.2.2.3.2h-.2v.2c-.1 0 0 .1 0 .2l.3.2h-.2c0 .2.2.2.3.3h-.2v.1l.1.2c.1 0 0 0 0 0v.2c.1.1.2.2 0 .3H6l.2.2c-.2 0-.2.1-.2.2l.1.2c.2.1.2.1 0 .3v.2c.1.2.2.3.1.5l.1.3.1-.1.5-1.5c.1-.2 0-.3 0-.4l.1-.2a9.3 9.3 0 0 1 0-1.5v-.1c-.1-.1-.1-.1 0-.2l.1-.2.1-1v-.2H7l.2-.2.2-.2v-.6l.1-.2V55h-.1c.3-.3.3-.7.4-1v-.5h-.2l.1-.1.2-.2v-1.2c0 .1.1.2 0 .4v2.2c0 .3 0 .5-.2.6l-.1.7-.1.9-.1.4V57.7c-.2.2-.2.5-.2.7l-.1 1v.7l-.4 1-.1.4-.4 1.2v.3l.3-.6.1-.1.2-.3.4-1.5.3-1.6v-.4l.1-.1.2-1.1a31.7 31.7 0 0 0 .3-2.1V52c0-.5 0-1-.2-1.3Zm1.7.7c0-.4 0-.4-.2-.6l-.1.4V51l-.1-.2-.1.2-.1.2c-.1 0 0 0 0-.1v-.2h-.2v-.1h-.1v.4l-.1.2-.1-.3-.1-.3H8v.3l.1.9.1.5h.2l.1.2v.3c0 .2-.2.3-.3.4 0 .1 0 .1 0 0h.2l.3-.3h.1l-.3.5H9l.4-.5s.1-.2.2-.1c-.1.1-.2.3-.1.5l.4-.4v.2l-.3.3h.2c0 .2.2 0 .2 0h.2l.3-.2-.3.4v.2h.3v.1l.4-.2.3-.2-.1.2h-.1l-.1.2h.5c.1-.2.2-.1.2 0h.5l.2.1-.1-.1-.8-.8a6.6 6.6 0 0 1-1.5-2.1l-.1-.2c-.2.1 0 .4-.2.5Zm.5-4.3c-.3.6-.4 1.2-.4 2v.1l.2-.3.1-.3c0-.2.1-.3.2-.3v.2l-.3 1.1.1 1.1.1.2c.2 0 .2 0 .2.2v.1h.1l.3-.2h.1l-.3.3s-.1.2 0 .2c0 .3.3.6.5.8l.2-.5.3-.4v.2l-.2.4v.5l.1.4.7.7h.1c0-.1.1-.1.1 0l.7 1h.1v-.9c.1.1 0 .4.3.5 0-.3.2-.5.3-.8l-.1-.3-.3-.4-.2-.2h.1l.4.3.2.2.2-.7v-.1l-.1-.3.2-.1c0-.5 0-.9-.3-1.3l-.3-.6c.2 0 .3.3.4.3l-.1-.7a2.7 2.7 0 0 0-.7-1.1l-.6-.5.4.2V47.8a14.6 14.6 0 0 0-1.9-2.2v.2l.4.6.2.3c-.1.2 0 .3 0 .4l.5 1.2s.1.1 0 .2l.1.9.4.7c0 .3.2.5.1.8l-.4-.9v.9c0 .1 0 .2-.1.1H12l-.1.6-.2.1.1-.8a10.1 10.1 0 0 0 0-1.7 7.5 7.5 0 0 0-.4-1.6l-.2.3-.2.4h-.1V48l.2-.3a1 1 0 0 0 0-.9l-.2-.5-.4.5.1-.4v-.7h-.1c0 .5-.3 1-.5 1.5Zm1.5-1.2c.1 0 0-.1 0-.2 0-.4 0-.7-.4-1l-1-.6c.3.7.8 1.3 1.4 1.8Zm-1-1.8.4.2V43.8H10c0 .2.2.3.3.4ZM3 6.6a9 9 0 0 0-.4 1.1V8L3 7l.5-.8c-.3 0-.4 0-.5.3ZM6.8 4l-1 .7V5c-.3 0-.5.3-.7.4v.3H5c-.1 0-.2 0-.2.2h-.1c-.1.1 0 .1 0 .1V6c0 .1 0 0-.1 0h-.2l.5.5c-.1.1-.2 0-.2 0H4s.2.1 0 .3v-.2h-.2v.1s0 .1 0 0l-.1.1V7l-.1.1-.2.1-.2.2-.4.8.4-.3c.1 0 0-.1 0-.2.1-.1.2-.1.2 0h.2l.3-.1.2-.3H4.5c.2-.2.2-.2.1-.4.3 0 .3 0 .4-.2.2-.1.2-.2.1-.2l-.2-.2h.5V6s-.2 0-.2-.2l.4-.1v-.1c.2-.2.2-.2 0-.4h.2c.1-.1 0-.2 0-.2.2 0 .3-.2.4-.3l.5-.7V4ZM5 10.4l-.4.2c-.3 0-.5.2-.7.4v.2c.1 0 .2 0 .2-.2h.2l.2-.1h.2c.2 0 .4 0 .5-.2.1 0 .2-.2.3 0v-.1l.5-.2c0-.2.2 0 .4-.2h.3c0-.1.1-.3.3-.3h.1c0-.2 0-.3.2-.3l-.1.3c0 .1 0 0 .1 0l.1-.2.2-.1v.1s0 .1 0 0c.2 0 .5 0 .5-.3v.2c.3 0 .5-.2.6-.5v.2H9l.7-.4.3-.2h.3l.3-.2s0-.2.2 0l.4-.2.2-.2v.1c0 .1.1 0 .2 0l.5-.1s0-.1 0 0l.3-.1.2-.4c.1.2 0 .3 0 .4l.8-.2 1.2-.3c.2 0 .3 0 .4-.3h.1c.1 0 0 .1 0 .2h.4c0-.2 0-.3.2-.4v-.2.4h.1c.1 0 .1-.2.3 0V7l.1-.2H16.4V7l.3-.1.1-.2c.1 0 0 .2 0 .2.4-.2.4-.3.3-.5 0-.1-.1-.2-.3-.1l-1.6.2h-.1c-.1 0-.2 0-.2.2v.2h-.1v-.2h-.3c-.3.1-.6.2-.7.6v-.1c0-.1-.2-.1-.2 0l-.2.2c0-.1 0-.2-.2-.2l-.9.2c-.2 0-.3.2-.3.4-.1 0 0 0 0-.1s-.1-.2-.2-.1l-.5.1-.2.2c0 .1-.1.1-.2 0h-.1l-.4.2-.3.1-.6.2v.4c-.2 0-.1-.2-.2-.2v.1s-.1.1-.2 0c-.2-.2-.5 0-.7 0V9l-.1.1-.3-.1-.2.1v.1h-.4l-.7.5c-.5.5-1 .7-1.7.8Zm-1.2 1.7h-.2v.3l-.2-.2v.2c-.3.2-.3.2-.3.5L3 13l-.1.2c0 .2 0 .1-.2 0V14l.1-.2v-.1l.2-.1.4-.5.2-.3c.3 0 .3 0 .3-.2v-.2c.1.1.1.2.2.1l.1-.1v-.2h.2c.4-.6.8-1 1.3-1.4h-.1c-.3 0-.6.2-.8.3-.1.1-.3.1-.3.3h-.2v.3c0 .1 0 0-.1 0 0 0-.1-.2-.2-.1h-.3c0 .2 0 .3.2.4v.1ZM5 17.6c.2-.1.1-.3.2-.4v.7l.2-.2v.4l.1.1v.3l.6.7h.2l.1-.2c0 .3-.2.5 0 .8l.2-.3c0-.2 0-.3.2-.4v.2l-.2.5s-.2.2 0 .3v.2l.2.2s0 .1 0 0H7v-.1H7v.1l.1-.1v-.1h.1v.6c.1 0 0 .2.2.2l.1-.2.2-.8v.3a3.2 3.2 0 0 0 0 .9h.1V21l.1-.1v.3c0 .2 0 .3.3.4l.1-.3v.2c0 .2 0 .2.2.3h.1l.1-.2v.3H9l.2-.7V21c.2 0 .1.1.1.2l-.1.7-.1.3v.4l.2-.5v.6c0 .1 0 .2.1 0v.1l.1.2h.1v-.2l.2.3h.1l-.1-.4-.1-.3.1.2.4.5c0 .2.2.3.4.3V22v.4l.1.8h.1V23l.1.4.2.1.1-.2v-.5l.1.1v.4l.3.2-.1-.9.3.8v.2s0 .1.2 0l.1.1h.1v-.9l.1.5v.5l.2.1.2-.4.1-.2v.3l.2.2h.2v-.3c.2 0 0 .2.2.3.2-.2.2-.4.2-.8l.1.6c.1.1.1 0 .1 0l.1-.3.1.2s0 .1.2 0l.1-.1.1-.3c0 .1 0 .3.1.2h.3c0-.2.2-.2.2-.3h.3l.1-.3h.1v.1h.4v-.2c0-.2 0-.1.2 0 .1 0 .2-.1.2-.3v-.1h.1s.1.1.2 0l.1-.1.1-.1.1-.2V21.4h.2v-.2l-.1-.4-.6-.7h-.1c0 .2 0 .4.2.5 0 0 .1 0 0 .1h-.2v.2c.1 0 .1 0 0 .1l-.1.4-.5.3-.2.1V22.1l-.1-.2H15a1 1 0 0 1-.3 0h-.3l-.1.1s0 .1-.1 0c-.1 0-.3-.2-.4-.1h-.1c-.1-.2-.3-.2-.4-.2-.2 0-.3-.1-.4-.3l-.3-.2v.2h-.1v-.2h-.2V21l-.2-.4s-.1-.1-.2 0c0 .1 0 0 0 0l-.2-.1-.1-.2s0-.1-.1 0v.1l-.5-.6c-.1 0 0 .1 0 .2l-.3-.4c-.1.1 0 .2 0 .4l-.4-.7v1.1c0-.3 0-.5-.2-.7 0-.3-.2-.5-.3-.7-.1.1 0 .2 0 .2-.2 0-.2 0-.3-.3l-.1-.4v.4l.1.3.1.5-.5-1V19l-.2-.4v.9-.1l-.4-1.3v-.1h-.1v.2l.1.7v.1c-.2-.3-.3-.7-.3-1h-.1v1.1l.2.8h-.1c0-.4-.2-.8-.3-1.1-.2-.4-.2-.8-.2-1.2-.2.2-.1.5-.2.7v-.3c0-.2-.1-.3-.3-.3l-.1.2c-.3.2-.5 0-.6-.2v-1.1h-.1s0-.2-.1 0h-.1v-.3c0-.1 0-.1-.1 0h-.1V16l-.2-.1v-.2l-.1-.2v.2h-.1v-.4l-.1-.3c-.1 0 0 .2-.2.2v-.5c0-.2 0-.4-.2-.5-.2.2-.3.4-.2.7l.3.4a29.2 29.2 0 0 1 1.1 2l-.1-.1-.3-.4L5 15.5h-.2V17c.2 0 .1-.3.3-.4v1Zm3.8 9 .6.3c0-.2 0-.3-.2-.5H9c0 .2-.1.2-.2.1h-.1Zm-.2 0s-.1-.1-.2 0l.6.4Zm.7-.7v-.4l-.4-1.2v-.1c-.2.1-.2.3-.3.4v.1l.7 1.2ZM9.2 23V23H9c0 .5 0 .9.2 1.3V23Zm7 7 .3.1v-.8c-.4-.9-.4-1.8-.4-2.6v-.3l-.1-.1c-.6-.3-1.1-.5-1.8-.6a35.5 35.5 0 0 0 .7 3v.4c.3.4.2.3.6.5l.7.4Zm-.2.3c0 .2.2.4.3.5l-.1-.5H16Zm1.6.4.3.2c0 .1.1.1.2 0l.3.3c.3.4.6.7 1 .9 0-.2-.2-.3-.3-.4l-.7-1v-.2l.2.1.7 1 .2.1-.2-.4-.2-.4.2.2.2.3.2.2v-.2a15.7 15.7 0 0 1-1.2-3.2c-.1-.3-.2-.6-.6-.8l-.4-.2h-.1c.2.5.3 1 .6 1.3l.3.3v.2l-.2-.1c-.4-.3-.7-.6-.8-1-.1-.3-.1-.5-.3-.7v.6-.2l-.2-.6-.1-.2c-.1-.2-.2-.2-.3-.2v.2a5 5 0 0 0 1.2 3.9Zm-.8-.3.6.5s0 .1.2 0a7.3 7.3 0 0 1-.9-.9l.1.4Zm3-.6c.2.3.2.6.3 1 0-.2.1-.3 0-.4l.1-1.8-.3-1.8c-.1-.5-.3-1-.6-1.3l-.2-.2.3 1-.2-.2a6.5 6.5 0 0 0-.8-1.5s.1.1 0 .2v.2l.2.8c0 .2 0 .3.2.3l.3.3v.1H19l-.5-.2s-.1-.2-.2-.1c0 1.1 1 4.1 1.4 4.8l-.2-1.3c.2.2.2.5.3.8v-.7Zm-.3-6-.1-.1v-.1s0-.1.1 0h.2l.1.1h.1l-.2-.3a4 4 0 0 1-.4-.4h.1l.5.4c.2.1.3.3.5.2 0 0 .1.2.2.1l-.4-.4-.2-.1h.2l.2.2.5.2h.1l-.6-.6-.1-.2h.1l.6.6.3.2h.1v-.2l-.4-.3V23l.5.4h.2v-.2l-.2-.2-.4-.4h.2l.5.4h.1V22.8h.1c0-.2-.2-.4-.3-.5 0-.1.1 0 .1 0l.2.1s0 .2.1.1c.1 0 .1-.1 0-.2V22l-.1-.2.2.1v-.1c0-.2-.2-.3 0-.5L22 21V21l.3.3.1-.1c0-.2 0-.4-.2-.6l-.1-.1c0-.1 0 0 0 0l.3.1h.1l-.2-.2-.2-.3H22c0-.1 0 0 .1 0l.4.2c.1 0 0 0 0-.1l-.2-.2-.2-.3h.1l.4.3v-.2c.1 0 .1-.1 0-.2l-.2-.2-.1-.1h.3v.1h.2v-.1c-.2-.1 0-.1 0-.1l-.5-.7c.3.1.4.4.6.4v-.4l-.3-.3c0-.1 0 0 0 0h.4v-.2c-.2 0-.3-.2-.4-.3h.3c0 .1 0 .1 0 0l.2-.2V17l-.1-.2s-.1-.1 0-.2l-.3-.3h.3V16l-.3-.3v-.1l.3.2-.1-.6h.1v-.2l-.3-.3h.2l.1.1v-1.5c-.3.1-.4.2-.6.5l.2.2h-.2s0-.1-.1 0v.1H22v.2h-.2l-.1.1v.2c.1 0 .2 0 .2.2l-.2-.1.2.3h-.2v.3l.4.2H22v.1l.2.3-.1.1c0 .2 0 .4.2.5v.3h-.1c0 .2.2.2.3.3h-.3a23 23 0 0 0 0 .8v.2l-.2-.1-.1.2-.2.5v.3c.1 0 0 0 0 0l-.1.2c-.2 0-.2 0-.2.3-.2 0-.2.1-.3.2v.1c.1.2.3.2.2.4l-.2-.2h-.2v.1l.2.4.2.3-.2-.2-.2-.2-.2-.1v.3l-.1-.2h-.2s-.1.1 0 .2l.2.3v.2l-.3-.3-.2-.1c-.1 0 0 .1 0 .2h-.3l.2.2h-.2v-.2h-.2l-.1.1-.3-.1v.1l.2.2.5.6h-.1a6.8 6.8 0 0 0-1-.8l.5.6-.2-.1-.5-.5-.3-.1v.2l.2.2h-.1l-.4-.4a.3.3 0 0 0-.4-.1l.3.3h-.2l-.5-.5v.2l.6.6s.2 0 .1.2l-.3-.3-.4-.3c0 .4.2.7.4 1-.1.1-.1 0-.2 0l-.1-.1s-.1-.1-.2 0v.4l.1.2s.2.1.1.2l-.3-.2v.1h-.2s-.1-.2-.2-.1c0 0 .1 0 0 .1 0 .2.3.3.3.4 0 .1 0 0-.1 0l-.4-.2h-.1c0 .1.2.2 0 .4L16 23v.1h-.2c0 .2.2.2.3.4H16l-.3-.3h-.1v.2H15c0 .1.1.2.2.1l2.9.4H18.4c0-.1 0-.2.1-.1l.3.1h.2v-.2l.5.2Zm.3.4.7.5.4.1 2-.2-.4-.3-.4-.2c-.2-.2-.4-.2-.6-.1-.6.1-1.1.2-1.7.1v.1Zm3.4-11.4c.1.3.2.3.4.2l.2-.1.2-.1-.2.2-.3.2.3.1c-.1.1-.2.1-.1.2h.2l-.3.2.2.3h.2l-.2.1.1.1.2.1v.1l-.1.1.2.1.1.3.3.1.1.2.4.1v.1l1.2.3v-.1a3 3 0 0 0-.4-.4l-.1-.1V15c-.3 0-.3-.2-.4-.4v-.1l-.2-.1v-.8s.2-.2 0-.2c0-.2 0-.3.2-.4l.4-.4v-.1H25.4l.2-.3-.4.1v-.1l.1-.1V12h-.1l.1-.2v-.1c-.2 0-.1 0-.1-.1H25l.2-.2h-.3c.2 0 .3-.2.4-.4H25l.2-.2-.2-.1c-.1 0-.2 0-.1-.1v-.1h-.4l.6-.4-.8.2c.1-.1.3-.2.3-.5l-.7.2c.2-.2.5-.1.6-.4H24l.2-.1v-.1H24c0-.2 0-.2-.2-.2h-.3c0-.2.1-.2.2-.3h-.4c-.1.1 0 0 0 0h.1l.1-.2c-.1 0-.2 0-.2.2-.3 0-.6.1-.8.3l-.2.2v.4l-.2.2c.1 0 .1 0 0 0 0 .2.1.2.2.2l-.2.2v.1l-.1.2v.1h.2v.2s.1 0 0 .1c0 .1 0 .1 0 0h.2l-.2.2v.2l.4.1-.2.2h.2v.1c0 .2 0 .2.2.2l.2-.1h.3-.3l-.2.1s-.1 0 0 .1c0 0 0 .1 0 0h.4c0 .2-.2.1-.2.2h-.2v.1h.1l.5.1-.3.2Zm.2 1.3h-.2l.4.4-.4-.1c0 .3 0 .5.2.7.2.1.2.2.3.4h-.1l-.2-.3-.1.1.1.2.1.3.3.2.1.2h-.2l-.3-.3v.4l.3.3-.3-.1.2.3h-.1c-.1 0 0 0 0 0l.3.5.1.2-.3-.3h-.1c-.1 0 0 .1 0 .2v.2c.1 0 .3.1.2.2l-.2-.1h-.1v.2c.2 0 0 .1 0 .2l.2.1h-.1l-.2.1v.9a117.4 117.4 0 0 0 1.2-.5l-.1-.3s-.1 0 0-.1l.2.1c.2.2.4.2.6 0 0 0 .1 0 0-.1L25 18l-.5-.4h.2l.6.5h.2l-.2-.2h.2l.3.1c0-.2-.2-.2-.3-.3h.2l.2.1h.3s.1-.1 0-.2l-.2-.2-.6-.6.3.2.3.2.3.3c.1 0 0-.1 0-.1v-.1l.3.1h.1c0-.2-.2-.2-.3-.3l-.3-.3.4.2.3.2h.2V17c-.7-.3-1.3-.7-1.9-1.2l-.2-.2.4.2a10.4 10.4 0 0 0 2 1.1l-.6-.4h.2l.5.2h.1l.1-.2-.4-.2-.5-.2v-.2h-.2a5 5 0 0 1-1.5-.4h-.1l-.4-.2c-.3-.2-.5-.4-.6-.7l-.4-.5c0-.2-.2-.3-.3-.4v.2h.2v.2Zm4.4 1.5.4.5.1-.1h.1c0 .3.2.4.3.4l.8.4h.2l.2-.2v.3l.2.1h.1l.1-.2v.3c.2 0 .2-.1.3-.2l.1.2.2-.1v-.2.3h.2l.2-.5v.3c.4-.2.6-.5.6-.8-.2-.1 0-.3-.1-.4-.1 0 0 .2-.2.2v-.3l-.1.1h-.1l-.1-.2v.4l-.1-.2H31v.3H31l-.1-.2-.1.2v.2l-.1-.5c-.2 0-.2.2-.2.3V16l-.1-.1h-.1l-.1.2s0-.2-.2-.2c0-.1-.1 0-.2 0l-.2-.1h-.2l-.1-.1-.1-.2-.7-.4h-.2l-.1.1V15s.1-.1 0-.2l-.2-.1h-.2v-.1l-.3.1v-.1s.1-.1 0-.2v-.2h-.1c-.1 0 0 0 0 0V14h-.2V14c0-.2 0-.2-.2-.2H27v-.1c-.7-.4-.7-.4-1-.9-.2.2-.3.3-.3.7v.3l.1.1-.2.3.1.2h.1l.1-.2c.1 0 0 .1 0 .1 0 .2 0 .2.2.1l-.1.4c0 .1 0 0 0 0 .2 0 .2 0 .2.2v.2l.3-.1v.2h.2l-.1.2v.1h.5v.3l.9.3V16l-.1-.4Zm.2 1.1.2-.1-.2.1Zm4.1-1.7h.3v-.2H32.8s.1 0 0 0v-.2h.2c0 .1 0 .1.2 0h.2v-.4l.3.4v-.1c0-.1-.1-.2 0-.1l.1-.1v-.2c.3 0 .3-.1.2-.4l.2.2h.1c0-.1 0-.2.2-.1h.3v-.1c.1 0 0-.2.2-.3H35.5l-.3-.7.3.3s0 .2.2.2c0-.2.2-.2.1-.4l-.1-.2.3.2v-.2h.1c.1.1.2.1.2 0V12.3h.3l.1-.2h.1c.2-.1.2-.2.1-.4h.2v-.2l.1-.2V11H37l-.5.5-.1.1-1.3.4h-.3c-.2.2-.4.2-.5.2l-.2.1h-.4l-.2.2h-.2c0-.2-.3-.2-.5-.3l-.1.4-.2-.3h-.1l.2.6-.2-.3-.1-.2H32c0 .1 0 0-.1 0l-.2-.2v.2h-.2s0-.1 0 0c-.1 0 0 0 0 0v.1H31.3v.3l-.2-.2H31v.1c.2.2.2.5.3.7v.3l-.1.2-.2.2c-.5.4-1.1.5-1.7.3l-1-.3-.2-.1c0 .2 0 .4.2.4 0 .2.2.2.3.3h.1c0 .1 0 .1.1 0l.2.1s0 .1 0 0l.1.1v.1h.4v.2h.3c0 .1 0 0 0 0 0-.1 0-.2.1-.1l.1-.2v.3l.1.1h.3c0 .1 0 0 0 0v-.1h.4V15l.1.2c.2 0 .2-.1.2-.2l.1-.1c.1.2.3.2.4.3h.1l.1.1h.1V15h.2Zm4.3-1.2c.2 0 0-.1 0-.2l-.1-.2.2.1c0 .1.1.1.2 0h.2v-.2h.6V13v.2h.2V13c.2 0 .2-.2.2-.2 0-.2.3-.3.3-.4H38.5l-.1-.1-.1-.1h.3l.1-.1V11.9l.4-.1s.1 0 0-.1c0-.1.2-.2 0-.3 0 0 .2 0 .2-.2 0-.1-.1-.2 0-.2h.2V10.6h.1v-.2l.1-.7.1-.5h-.1l-.2.5-.2.2h-.1v.3h-.5l-.3.3-.2.2-.4.2V11.3c-.3 0-.2.2-.3.3l-.1.1-.2.4-.2.1-1.2 1h-.1l-.1.2-.6.5-.7.5-1.5.9-.2.1.5-.1.4-.1.2-.1s0-.1.1 0l.5-.2c.2 0 .4 0 .5-.2h.2c0-.2.2-.2.4-.2s.2 0 .2-.2c0 0-.1 0 0 0l.5-.2s0-.1.1 0c.2 0 .2 0 .1-.2Zm-.7.9-.4.2-.1.2s-.1-.1-.2 0h-.2s0 .2-.1 0l-.5.3v-.1l-.2.2-.1.1v-.2h-.5l-.1.2s-.1-.1-.2 0v.2l-.2-.2h-.7s-.1 0 0 0c0 .3.2.5.4.6l.1-.2v.2l.3.1h.2c0 .1.1 0 .2 0V16v.2l.1.2.3-.1c0-.1 0-.1.1 0l.1-.1V16c0-.1.1 0 .2 0 0-.1.1-.2.2-.1l.2-.2c0-.1 0 0 .1 0a7 7 0 0 0 1-1v-.1Zm-3.6-6.9.1.1V8.2h.2l-.1.1h.1v.1c-.1 0-.2 0-.1.2v.2c.1 0 .1 0 0 0V9l.4.1c.2.2.4 0 .6 0 .2-.2.4-.2.7-.2l.4-.2c.2 0 .3-.1.4-.4h-.3l-.4-.1a.5.5 0 0 1-.1-.4v-.5h.2v.2c.2 0 .2.2.2.3h.2l-.1-.4-.1-.1c.2 0 .3.1.3.3v.4s-.1.1-.2 0l-.1.2h.3l.2-.7V7l-.2-.2v-.2h-.2c0-.1 0 0 0 0h-.1l-.1-.2-.2.1h-.3c0 .2 0 .2-.1.1H33.4l.2.3h-.5c-.1 0-.1 0 0 0V7h-.4l-.3.1-.4.4h.2-.1l-.1.1v.1c.2 0 .2 0 0 .1Zm2.4 2.4-.4.1h-.7l.5.1h.5s.2 0 .3-.2Zm-1 0h1l.3-.1.8-.2.6-.6c0-.2.2-.3.3-.5v-.2c.2 0 .2-.1.2-.2s0-.2.2-.2V6.7l-.1-.2c0-.3-.2-.4-.3-.6v.9c.2 0 0 .2.1.3v.4c-.2.2-.1.4-.3.5.1.1 0 .1 0 .2 0 0-.1 0 0 .1v.1l-.1.1-.1.3V9H36c-.2 0-.2.2-.4.3v-.2l.3-.6c0-.1.2-.3.1-.4V8l.2-.1.2-.8v-.9c-.2-.1 0-.3-.1-.4-.1-.2-.1-.3 0-.4v-.2H36V5l-.2-.3-.2-.2c-.2 0-.2-.1-.2-.2h-.1c-.1 0 0-.3-.2-.2l-.1-.4H35c-.1 0-.2 0-.1-.1l-.1-.3h-.2l-.1-.1c0-.1 0-.2-.2-.3 0-.1-.1-.1-.2 0-.2 0-.2-.2-.2-.3 0 0 0 .2-.2.2v-.3h-.2l-.1-.2-.2.1v-.1H33v-.2h-.2l-.2.2c0-.2.1-.3 0-.4v.1h-.1v-.2c-.2.1-.2.3-.3.4l-.3-.4c0-.1 0-.1-.1 0h-.2v.2h-.4v.2c-.2.4-.2.4 0 .8l.3.3.2.1.2.2.3.4v-.3c-.1 0-.2-.1-.2-.3l.2.3c.1 0 .1.2.3.2v-.4c-.1-.1 0-.2.1-.2.4 0 .7 0 1 .3l.4.4.1.1c.2 0 .4.2.4.5l-.4-.5h-.3c0-.1-.1-.2-.2-.1V4c-.1-.2-.3-.1-.3-.2l-.2-.2h-.4l-.1.1.1.3.3.2h.1l.2.2c0 .2.1.2.3 0v.3h.2c.1 0 .2.1.2.3 0 0 0 .1.1 0 .2 0 .2 0 .3.2 0 0 0 .2.2.2l.2.3.1.2.4.9V7.7l-.1.2v-.1c0-.1-.2-.1-.2 0s-.3.2-.3.4l.2-.1.3-.2.3-.1.2-.3v-.7c-.3-.2-.3-.5-.4-.7l-.1-.2-.1-.2c0-.2 0-.3-.2-.4l-.2-.4.3.3c.1.2.3.2.3.4.1 0 .2.1.1.2V6l.1.1c.1 0 .2.1.2.3v.2l.2.1V7c0 .3 0 .6-.3.8-.1.1-.2.2-.1.3.1 0 .1-.2.3-.2V8l-.3.5-.2.1v.2l-.1.1V9H35v.4c0 .1-.3.1-.2.2l-.1.2c.3 0 .5 0 .7-.2 0 .1 0 .2-.2.2l-.4.2h-.7a1 1 0 0 0-.6 0h-.1l-.2-.1c-.1.1-.2 0-.4 0 0 .2.2.3.3.3h.4Zm-1.9-5.4h-.1c-.1 0 0 0 0 0H31c0 .2.1.1.1.1l.1.2h.2l.3.1.2.1c-.4 0-.7-.2-1-.1h.1l-.1.1c-.1 0 0 .1 0 .1h-.4l.2.2h.1l.2.1H30.3c0 .1 0 0 0 0l.6.2h-.6c.2 0 .4 0 .6.2H30l-.3.1-.1.1.5.2-.7.1h.3l-.1.1c-.2 0-.2.1-.3.2 0 .1 0 .2.2.3h-.4v.1s.1 0 0 0v.2c-.3 0-.3.2-.4.3l-.2.7.2-.1c.2-.3.5-.5.9-.7l1.2-1 1-.5v.2h-.3l-.5.4-1.4 1-.4.3c-.3.2-.5.4-.6.7a2 2 0 0 0-.2 1h.1l.2-.1c0-.2 0-.3.2-.3 0-.2 0-.3.2-.3l.1-.3.9-.8 2.2-1.7.8-.5h1.5v-.1l-.5-.1c-.3-.2-.5-.1-.8 0l-.4.1-.2.1c.3-.2.7-.4 1-.4h.4v-.2a2 2 0 0 0-.4-.3h-.2c0 .1 0 .1-.1 0a9.8 9.8 0 0 0-.6-.3v.1c0 .1-.1 0-.2 0a.8.8 0 0 0-.6 0l.5.3h-.3c-.2-.2-.3-.3-.6-.3.2.1.4.1.4.3l-.5-.2Zm-.4-.9.1.5V4ZM30 3.3l-1 2.8-.1 1v.1c.1-.2.3-.3.2-.6.2 0 .3-.2.3-.3l-.1-.3c.2.1.3 0 .4 0l-.2-.3h.3s0-.1.2 0V5l-.1-.2v-.2c0 .1 0 .3.2.3V3.2Zm.3 1.4c0 .1 0 .3.2.4h.2l.2-.2c.3-.3.3-.3.1-.7a81.9 81.9 0 0 0-.6-1.8l-.2.4v1.9Zm-1.8 7.2v.3c-.1.2-.3.3-.6.1a.7.7 0 0 1-.3-.3l-.1-.3c0-.1 0-.1-.1 0 0 0-.1 0 0 0l-.1-.4-.1-.2c0-.1-.2-.2-.1-.3v-.3H27v-.3h-.2l.1-.2.2-.1v-.1l-.4.1v-.2l-1 .6v.1l-.1.1c.1 0 .2 0 .1.1v.8l.1.3h.1s.1 0 0 .1v.4l.2.1v.2l.1.3.3.2.2-.2.1-.1v.3c.1 0 0 0 0 .1v.1h.2s-.1.1 0 .2l.2-.1.3-.2c0 .2-.2.3-.3.4l.3-.1h.1v.2s0 .1 0 0H28c.2.3.3 0 .5 0v.1l.3-.2c0 .1 0 .2-.2.3v.1l.4-.2v.4h.1l.2-.2.1-.1-.1.3v.2h.2l.2-.1v.2c.2 0 .2-.2.3-.2l.1.2.2-.1h.2l.6-.3.1-.4c0-.3-.1-.5-.3-.7 0-.1 0-.3-.2-.3a.6.6 0 0 1-.3-.3h-.1L30 12l-.1.1v.7h-.1V12c-.2.1-.2.3-.2.5v-.7c-.2 0-.2 0-.2.2h-.2l-.1-.1v-.2H29l-.1.2h-.1l.2-.3s0-.1 0 0l-.2-.1c0-.2 0-.2-.2-.3l-.1.2v.5Zm5.1-5.6h-.1l.1.1h.2a5 5 0 0 1 1-.3h.1v-.2h-.2l-.6.2c-.2 0-.3 0-.5.2Zm0-.2c-.1-.1-.2 0-.4 0H33l-.3.2v.1l.9-.2h.1V6Zm-.2.2c-.5.1-.9.2-1.2.6V7l.3-.1.8-.4.2-.1-.1-.1Zm-1.2-2L32 4l.2.2Zm3 3v.1-.8l-.2-.3.1.7v.4ZM33 9.8l.8-.4.5-.3c-.3.4-.5.6-1 .7h.6c.1-.1.2 0 .2 0l.2-.1v-.1c.2 0 .3-.2.3-.3l.1-.1h.1l.1-.2.3-.3.2-.3v-.2c-.3 0-.4.2-.5.4l-.4.4H34l-.8.3c-.1.1-.3.2-.4.1h-.2v.2l.1.1.3.1Zm1.2-2ZM32 7H32l-1 .8-.1.1s-.2 0-.1.2h-.2l.2.1c-.2 0-.3 0-.4.2h.2-.4l.1.2h.2l-.3.1c.2.2.4 0 .5.2H30c.1.2.3.2.4.2l-.1.1v.2H30.5c0 .1-.2 0-.2 0l-.3.2.2.1v.2h.2v.1h-.2v.1s.1 0 0 0l.1.2s.2 0 0 .1h.2l.1.2.1.2.3.1v-.2c-.1-.2-.2-.5-.1-.8 0-.2 0-.4.2-.6.2-.2.2-.4.1-.6-.2-.5 0-.8.3-1.2L32 7Zm-.7 1V9l-.3.6v.1s.1.1 0 .2l.1.5c.1 0 .1 0 0 0v.4h.3v-.7c.2-.1.2-.2 0-.4l.1-.8V8l.2-.2.2-.4c-.3 0-.4.3-.6.6Zm.1 3.3-.2-.1H31s-.2 0-.2-.2l-.2-.2c-.1 0-.3-.1-.3-.3 0 0 0-.1-.2 0v-.2l-.3-.1v-.6h-.2l-.3.2.2-.3s.2-.1 0-.3l.2-.2h-.1l-.3.2c0 .1 0 .2-.2.3 0 .1 0 .2-.2.3l-.2.3s-.1 0 0 0v.2l.1-.1-.1.3v.2l.3.1v.2h.2l.3.2h.1c0 .1.2.2.3.1 0 .1.1 0 .2 0l.1.2h.2c0 .1.2 0 .2.2h.6l.1.1v.1l.2.1h1c0 .1.1 0 .1 0l.1-.2c.1.1.2.3.4.3 0 .2.2.2.3.1h.6c.2 0 .5 0 .6-.2h.4c.3.1.6 0 .8-.1l.5-.2.5-.4H36a1 1 0 0 1-.8.3H35a1 1 0 0 1-.6 0l-.2-.1c-.1 0-.2 0-.2.2l-.2-.1c0-.2-.2-.2-.3-.1h-.2s-.1-.1-.2 0H32c0-.1-.1-.1-.2 0-.2 0-.3 0-.4-.2Zm-3.7 5L27 16c.2.2.4.2.7.3v-.1Zm-5.8-6.8v.1s.1.1.2 0l.2-.3H22c0 .1-.2.1-.1.2Zm0 4 .1.1.7-.6v-.2l-.2-.2-.3-.4v.5c-.2.3-.2.6-.2.9Zm-.4-1.6h.2c.1 0 .2 0 0-.2v-.1h.1v-.3l-.5-.2-.4-.1h.8l-.3-.1c0-.1.2 0 .2 0l.1-.1v-.2h-.2l-.1-.1v-.1h.2l-.1-.2v-.2l-.4-.1h.3l.1-.2-.1-.1H21l.1-.2c.2 0 .3 0 .1-.2v-.2h-.1l-.3-.1.2-.1s.1 0 0-.1L21 8H20.7l.1-.1v-.1c0-.1 0 0 0 0h-.4c0 .1-.1 0-.2 0l.3-.1c.3-.2.3-.2.1-.4v-.1c0-.1-.1-.1-.2 0-.1-.1 0-.1 0-.2h-.2l-.3.1h-.2L20 7l.3-.3v-.1h-.1l-.2.1v-.2c.2-.1.1-.3 0-.4h-.1l-.2.2h-.3l.2-.1.1-.2c.1 0 .1-.1 0-.2a1 1 0 0 0-.2-.3l-.3.1s.1 0 0-.1v-.3L19 5h-.1l-.4.3h-.1l.3-.2v-.4l-.3-.1h-.2c-.1 0 0 0 0 0 0-.2-.1-.2-.2-.2H18l-.2.1a14.1 14.1 0 0 1-.3.3v-.1l.2-.3s.2-.1 0-.2c-.2.1-.2.1-.2 0v-.1H17l-.2.1c0-.1.1-.1 0-.2h-.4l-.2.1V4H16l-.2.2-.7.6-.2.2c0-.2.2-.3.3-.4l.3-.2.2-.3h-.1l-.5.3s0 .2-.2.2c0-.2.2-.2.2-.3h-.2l-.8.4c-.7.4-1.4.9-2.2 1.2l.2.1c-.1.1-.3 0-.5.2.6 0 1-.2 1.6-.4L13 6l-.4.2-.4.1h.5l.5-.1-.5.3h.2l.7-.2.2-.1-.7.4v.1h.4l1.7-1.1.3-.2c-.3.4-.6.6-1.8 1.3l.5-.1.3-.1.6-.3.4-.2.3-.1-.2.2-.4.3h.6l.4-.2.4-.2c0 .1-.2.1-.2.3h.3l.2-.1c.3 0 .4 0 .5.3V7l.6-.2-.2.2c-.1 0-.2 0-.3.2l1-.1h-.1l-.4.2h-.3c.2.3.4.2.7.3h.6l-.2.1h-.4v.1H18V8s.1.1.2 0h.6l.2.1c-.2.1-.4 0-.6.2h.1l-.2.1.2.1.8.2.4.1H19h.2l.1.2h-.7l.3.1-.2.1c.3.2.7.1 1 .3h-.3l-.2.1h-.4c0 .2.3.1.3.3H19c-.1 0-.1 0 0 0 .2.2.5.2.8.3h.2c-.2.1-.3.1-.4 0H18.8l.2.1s.2 0 .3.2h-.6.1v.2l.5.2.2.2-.6-.2h-.2v.1h.3l.4.3-.6-.1h-.2l.3.1v.1h-.2l-.1.1.1.1.8.2.2.1h-.2l-.8-.1h-.2c-.1 0 0 0 0 0l.3.1.1.1-.5.1c.1.1.3 0 .4.2 0 .1 0 0-.1 0h-.5v.1l.7.2c.3 0 .7.1 1 .3h-.2a10.2 10.2 0 0 0-1.5-.3c.1.1.4.1.5.3h-.5c-.1-.1-.2 0-.2 0h.2l.2.2H17.8h.1l.3.2.5.4v.1h-.1l-.8-.5v.1c.2.1.4.1.5.3l-.5-.1s.1 0 0 .2h.2l.5.5h-.2l-.7-.4H17.3v.1l.4.2.4.3-.6-.2-.2-.1h-.1v.2c.1 0 .2 0 .2.2h-.2c0-.1-.1-.1-.2 0v.1l.5.2c.2 0 .3.1.3.2h-.1L17 15c-.2 0-.3 0-.3.2l.2.1.9.5.2.1c0 .1-.1 0-.1 0l-1.4-.5h-.2c.2.1.4.1.5.3h-.2l-.3-.1c0 .1.3.1.3.3l-.3-.1-.4-.2c0 .2.3.1.3.3H15.6l.1.1 1.2.5h.1c0 .1 0 .1-.1 0-.2 0-.4 0-.7-.2l-.6-.1h-.2v.1h-.2l.1.1c.2 0 .3.1.4.3h-.1l-.7-.2v.2h-.4l.3.1c1 .1 1.8.5 2.6 1v.2l-.2-.2c-.6-.3-1.2-.6-1.9-.7l-.9-.1c.2.1.4.1.5.3h-.2a5 5 0 0 0-.7-.3h-.2c0 .2-.1.1-.2.2l1.3.8c-.5-.2-.9-.5-1.4-.6l.1.1 1 .6a3 3 0 0 1 1.4 1.6l.3.3.6.3-.1-.3.3.2.3.3v-.2l.3.1-1-.8h.2a111 111 0 0 1 1.6 1l.1-.1.4.1-1.3-1h.2a12.1 12.1 0 0 1 1.4 1l-.1-.3V20l.5.3.2-.1V20l-.6-.5-.4-.3h.2l.8.6c0 .1.1.2.2 0l.2.2h.1v-.2h.2s.1-.1 0-.2l-.2-.2v-.2l.4.3c-.3-.6-.7-1-1.2-1.4.2 0 .4.1.7.5l.5.6v-.4c-.2 0-.2-.1-.3-.2l-.2-.3h.2l.5.8h.2v-.3l-.3-.4c.2 0 .3.3.4.3l.1-.1v-.3L21 18v-.1l.5.3s0 .1 0 0h.1v-.2l-.1-.2h.1s.1.1.2 0v-.1l-.2-.2-.5-.4h.1c.2 0 .4.2.5.3h.2v-.2l-.4-.2.2-.1h.1c.1 0 0-.1 0-.1l-.1-.2-.4-.2-.2-.2c.3 0 .5.2.7.3V16l-.1-.2-.3-.2h.2l.1-.1-.1-.1-.1-.2h.1v-.4l-.4.2-.4.3V15l.6-.5v-.4l-.4-.3-.2-.2.4.2.3.2h.1l-.1-.2s-.3-.1-.1-.3l-.1-.1-.7-.5-.2-.2c.2 0 .3 0 .6.3.2 0 .4.2.5.4l-.2-.6c.2 0 .3.3.4.3 0 0 .1 0 0-.1v-.2c.2 0 .2-.1 0-.2l-.2-.3h.3c0-.2-.2-.4-.3-.5l-.4-.2-.2-.1.6.2Zm-8.7-3.6v.1h.3c0 .1-.3 0-.4.2h.5l-.3.1c.2 0 .3 0 .4.2v.1h.5c-.2.2-.3.1-.4.1 0 0-.1 0 0 .1h.1l.3.1-.1.1-.1.2.2.2.3.1c-.1.1-.2 0-.4 0l.6.6.6.3h.2s.1 0 0-.1v-.2c.1 0 .1 0 0 0v-.2c-.1 0 0 0 0 0V9.9l-.5-.2h.3c.1 0 .2-.1.1-.2l-.3-.3h-.1c0-.1 0 0 .1 0V9c.1 0 0-.1 0-.2l-.2-.1v-.1h-.2v-.2h.1c-.2 0-.2 0-.1-.2-.2 0-.2-.3-.3-.4h-.4l-.9.2v.1Zm1.4 2.9a3 3 0 0 0-.5-.5h-.3l-.1-.2s-.1-.1-.2 0l.4.5c.1 0 0 0 0 0l-.1.2c.2.5.3 1 .7 1.5 0 0 0 .2.2 0l.3.3v-.3l-.2-.5.2.2.1.2s0 .1 0 0h.2v-.3l-.2-.9c-.2-.5-.5-.8-1-1l-.2-.2 1 1.2c-.2 0-.2-.1-.3-.2Zm-1.4-.5c0-.1 0-.2-.2-.2h-.3l.1.2h.2l-.1.1h-.2v.2l.1.1h-.3c0 .2.2.2.1.3l.3.4.1.3c0 .2 0 .3.2.4h.1c-.2.2-.2.2 0 .3v.2l-.2.1v.1a1.3 1.3 0 0 0 .8-.3c.3-.2.2-.3 0-.4h-.1v-.1c.1 0 .1 0 0 0v-.1s.1-.1 0-.2c0-.2 0-.3-.2-.3H13l.2-.2c0-.3-.2-.6-.4-1Zm.3-.6-.3-.1h-.1c0 .1 0 0 .1 0h.3Zm-2.8.6-.6.3v.2c-.2 0-.3 0-.4.2 0 0-.2 0-.2.2-.4 0-.6.2-.8.4l.3.1h.2a3 3 0 0 0-.8.2h-.3v.1h-.2l-.4.2H7v.2h.7l-.1.1H7a1 1 0 0 0-.5.2v.1h.1v.1a1 1 0 0 0-.5.1l.6.2h-1l-.1.2.6.1c0 .1-.1 0-.2 0h-.3c0 .2.2.2.2.2l-.1.1.9.4h.1c-.2.1-.2.1-1-.1l.2.1.6.2c-.2.1-.3 0-.4 0h-.4s.3 0 .4.2H6c.2.3.5.3.7.4h-.3l.1.3h.3c0 .2-.2 0-.2.1 0 .3.1.4.3.6.1-.3.4-.6.4-.9v-.1c.2 0 .1-.1 0-.2.2 0 .2-.1.3-.2v-.2c.1-.1.1-.2 0-.2v-.2h.2v-.1l-.4-.2h.4v-.3c0-.2.1-.1.2-.2 0-.1 0-.2-.2-.2h.1c.3 0 .2 0 .3-.2 0-.2 0-.3.2-.4v-.2c.3 0 .4-.2.5-.4L9 12s.1-.1 0-.2h.1l.4-.2.8-.6c.1 0 .1 0 0-.1v-.1c.3 0 .4 0 .6-.3l.3-.2-.8.1c-.1 0-.1 0 0 .1v.1Zm-3.2 7c.1 0 0-.2.2-.3-.2-.1 0-.2 0-.2l.2-.5-.3.2c0-.2.1-.2.2-.3v-.4c.2-.2.2-.4.3-.7l.1-.5h-.1l-.5 1-.2.3V16.5l-.2.5.1.1-.1.1c-.1.2-.2.5 0 .7H7s.2 0 0-.2l.1-.1Zm1-.5h-.2l.3.1h.3l-.1.2h.4l-.3.1c0 .1.2.2.3.1H9l.1.1v.2l.2.2.2.2.4.2c.1 0 0 0 0-.1v-.2c-.2-.3-.3-.5-.3-.8l-.4-.4s.1-.1 0-.2c-.1 0 0 0 0 0v-.2H9c0-.1.1-.1 0-.2v-.1h-.2l.1-.1.1-.1h-.4c.1-.2.3-.1.4-.2a.5.5 0 0 0-.4-.2l.3-.1v-.2h-.3c.2-.3.1-.3 0-.4h-.1V15l.2-.2h-.2v-.1l.1-.1v-.2h-.2v-.1c.2 0 .2-.2.1-.3v-.3h-.2l-.2.6-.2.4v.1h.1c-.2.2-.2.4-.2.5l.1.2-.2.2v.1H8l-.3.3V16.3l.2.2-.2.1v.1H8l-.3.3h.5Zm0 1.3v-.6.6Zm2.3.4.6.8h.3v.1l.1-.4v.5c.1 0 0-.2.2-.3v.5l.1.2c.2 0 .4.2.5.4h.2l.1-.4c.1 0 0 .2 0 .2v.5l.3.1c.3.3.3.3.4-.1v-.1l.1.4c0 .1 0 0 0 0h.1v.2h.2l.1-.3v-.3.7c.2 0 .1-.1.2-.2v.2l.1.1c0-.2.1-.3 0-.4v-.4l.2.1v.6h.1v-.1c.2 0 .1.1.2.2h.1v-.4c.2 0 .1.2.2.4v-.8l.2.7H15.3V21c.2.1.1.3.3.4l-.3-1 .3.5v.2l.2.1v-.7l.3.3-.1-.4s-.1-.1 0-.2V20l-.4-.3h.3v-.1l-.5-.7-.6-.6a23 23 0 0 0-.8-.5h-.1c0 .1.2.1.2.3L14 18l-.9-.5H13v.2l-.9-.2h-.2l.2.1.5.1a5.5 5.5 0 0 1 1.3.7h-.1l-.6-.3.1.2c.3 0 .5.2.7.4.1 0 .2 0 .2.2l-.2-.1-.2-.1-.2-.1.2.2.4.2v.1l-.3-.1.1.2-.2.1c0 .2-.2.2-.3.2a1 1 0 0 1-.8-.2l-.4-.2H12v.2h-.2v-.2c0-.2-.1-.3-.3-.4l-.3-.2H11c-.2 0-.3-.2-.4-.3l-.2-.2.1.4.2.3.2.3-.4-.4a11.5 11.5 0 0 1-.6-1l-.3-.7v.4c.2.1.2.2.2.3.2.4.3.8.6 1.1Zm-.2.5-.1-.3.1.3Zm2.6-1.7-.2-.1h-.4c.2 0 .4.2.6.1Zm-1.2-1H12.5c.2 0 .3-.1.2-.4.2 0 .3-.1.3-.2l.2-.4v.3h.2v-.1h.2l.2-.1.6-.4.1-.1.2-.2c.1-.2.3-.3.3-.5 0-.3.1-.6.3-.8v-.2h.1v-.2h-.1.2V13c.3-.1.3-.1.2-.4.3-.2.3-.3.2-.5l-.2-.2c.2 0 .2-.1.2-.2 0-.2-.2-.3-.3-.4l-.7-.5h-.1l.1.3c.1 0 0 0 0 .1v.1c0 .2.2.4.3.5v.2l-.2.2v.4c0 .2 0 .4-.3.5v.2h-.3l.3.2h-.3v.2c.1 0 .2 0 .1.1h-.4v.2c.1 0 .2 0 .3.2h.1l-.5.1.1.1h-.2l-.1.1v.1s.1 0 0 .1v.1c-.1 0 0 .2 0 .2H13l-.2.2c-.1 0-.1 0 0 .1v.1h-.1c-.1 0-.2 0-.1.2 0 .1-.1 0-.1 0-.2 0-.4 0-.5-.2h-.1l.1.3.1.2H12s-.2-.1-.2 0l-.2-.2v.3l-.3-.4v.5a.5.5 0 0 1-.4-.4v.1h-.2l-.1-.1s0 .2-.2.1h-.2c-.3-.2-.3-.4-.1-.7l.3-.8v-.2s0-.2-.2-.3l.1-.1.2-.1v-.3h-.1l.3-.3-.1-.5v-.1c.3 0 .5-.1.7-.3V11.9c.2 0 .2-.2.3-.2l-.1-.1c-.1-.1-.1-.1 0-.2l-.2-.1h.1c.3 0 .3 0 .4-.3v-.3l-.5.2v.2H11l-.3.3c.1 0 0 .2.2.2h-.5v.1l-.1.2-.2.1.4.2H10c-.3 0-.5.1-.6.4h.4c-.1.2-.3 0-.5.2l.5.2h-.6l.1.2c.2 0 .3 0 .4.2h-.6l.1.2v.4c-.1 0 0 0 0 0l.1.2.1.1-.1.1-.1.2.5 2c0 .1 0 .2.2.3.2 0 .3.2.5.4-.1 0-.3-.1-.4 0 .2 0 .4 0 .5.2l.6.2v-.1a37.1 37.1 0 0 0-1.3-1.3 1 1 0 0 1-.2-.6l.1-.7h.1v.2c-.1.6 0 1 .5 1.4l.5.6.8.9c.1.2.3.3.3.5.2 0 .2.2.3.3l.3.3.2-.2.3.2V19h.2V19c0-.1.1 0 .1 0l-.6-.8h-.1l-.3-.1h-.1l.3.4c0 .1 0 .1 0 0l-1-.6a.7.7 0 0 1-.2-.3l-.3-.5-.4-.6-.2-.3c.3.3.7.4 1.2.4Zm1.7-3.3h-.1l-.6.2c.2.2.3.1.5.2h-.5s-.1 0 0 .1v.1h.1v.1h-.2c-.1 0 0 .2-.2.2h.5l.2.1v.3l-.2.4-.7.3c.3 0 .5 0 .7-.2l.6-.3.1-.2v-.2h.2V14c.1 0 .1 0 0-.1l.1-.1.1-.1v-.1c-.2 0-.2-.2-.1-.2l.1-.3V13s-.1-.1-.2 0l-.3.1c-.1 0 0 .1 0 .2Zm-2-.5h-.2v.2s-.2 0 0 .1c0 0-.1.2 0 .2l.2.1h-.1l-.1.1H11.4c.3 0 .3 0 .4.2.1.1.2.3.1.4v.2s-.1.1-.1 0-.2-.2-.1-.4l-.2-.1h-.3.1v.4h.3c0 .2-.1.2-.2.3 0 0 .1.1 0 .1h-.1v.1c.1.2.4.2.6.2l.2-.2v-.4l-.2-1-.1-.6-.2-.2h-.2l.2.4-.3-.1Zm-.4 2V13.3c-.2 0-.2.2-.2.3v1.1l.1.2H11.1v-.1c-.2 0-.2 0-.2-.2Zm-.4.5h-.1c0 .2.1.3.3.3.2 0 .5 0 .6-.2v-.1h-.8ZM12 15s0 .1-.1 0h-.4v.1c.1.2.3.1.5.2h.2c.3-.1.5-.4.6-.6v-.1H12.5c-.1 0 0 .1 0 .1-.1 0-.2 0-.2.2l-.3.1Zm-1.4-4-1 .8-.4.2-.2.1-.1.2a4 4 0 0 0-1 2l.2-.1.5-.9c.1-.2.3-.3.2-.6.2 0 .3-.1.3-.2v-.1h.1c.2 0 .2-.2.2-.3h.2v-.2h.3c0-.2.1-.2.2-.2 0-.1 0-.2.2-.2l.4-.3v-.2Zm-2 2.6.4 1.4v.2-.2a10 10 0 0 1-.2-1.6h-.1v.2Zm.8 2.8v.4-.4Zm-.2-.7c0 .2 0 .5.2.7l-.2-.7Zm2.7 3-.2-.2a2 2 0 0 0-.8-.7h-.2l.1.2h-.2l-.2-.1.3.2a6.2 6.2 0 0 1 1.5 1.1l-.1-.2c0-.1-.2-.1-.2-.3Zm-.8-8.1-.5.4h.4v-.1l.3-.1.2-.1c.1 0 .1-.2.3-.2l.3-.2h-.3c-.1 0-.2 0-.3.2H11ZM12 12v-.2h-.1v.6l.2.8.2.1.1.2.2-.8V12l-.3-.1v.9l-.3-.8ZM14.2 8H14.5v.2c.4-.2.9-.5 1.4-.5l-.2.1a4 4 0 0 0-1 .5c-.1 0-.1 0 0 .1l.3-.1h.4l-.4.2-.2.2h.3c.3-.2.7-.2 1-.2l.4.1c0 .1-.1 0-.2 0a2.8 2.8 0 0 0-1.2.3V9h.7l-.2.1-.2.1c0 .1-.2.1-.1.2 0 .1.1 0 .2 0h.8l-.4.2.3.1.4.2.4.1.3.3-.3-.1c-.3-.2-.6-.3-1-.3h-.5c-.1 0 0 0 0 0l.6.1c.1 0 .3 0 .4.2h-1c0 .1.3 0 .4.2h-.4v.2l.5.1h-.6l1.6.5h-.9l-1-.2.8.3.6.3h-.1l-.5-.1.1.2.2.1v.1l.6.3h.1-.3l-.4-.1v.3c.1 0 .1 0 0 0v.2c.2 0 .3 0 .4.2h-.4l.5.4-.4-.2s-.2 0-.1.1H16v.2l.2.1v.1H16l.2.2H16c-.1-.1-.2 0-.4 0v.5c.2 0 .2.2.3.2 0 .1 0 0 0 0a3 3 0 0 0-.5-.3h-.1v.1l.2.2h-.2c-.1.2.1.3.1.5 0 0-.1-.2-.3-.2v.4l-.3.3v.2c-.3 0-.3 0-.5.3H14v.2h-.1l-.6.2c0 .2 0 .2-.2.2l-.4.4-.4.1H11.1s0 .2.2.3c.1 0 .2.1.4 0h.7c.2 0 .3 0 .5-.2h.1c.3 0 .5-.2.7-.3 0-.3.3-.2.4-.3h.4l.2-.2V16h.4c.1-.1 0-.2 0-.2v-.2h.2s0-.1.2 0h.1c.2-.3.3-.5.1-.7v-.1l.2.1c0 .2.1.2.3.2l.3-.3v-.2s.1.2.2 0l.2-.3a10.8 10.8 0 0 1 .6-1.2l.1-.2c.1-.1.2-.2.1-.3 0-.1.2-.1.2-.3v-.1l-.3-.2h.4v-.3h.2l.1-.4v-.1s-.1-.1 0-.2l-.2-.1-.3-.1h.3c.4 0 .3 0 .3-.4l-.2-.2h.1c.1 0 .1-.1 0-.2V10c-.1 0 0-.2 0-.2l-.3-.1h.3l-.1-.4V9c0-.2-.1-.3-.3-.3v-.1c.1 0 .1 0 0-.1l-.3-.2h-.2.5v-.1a.6.6 0 0 1-.3-.3l-.2-.1-.2-.1.3-.1-.1-.1-.4-.4h-.3c-.7.3-1.4.4-2.2.5h-.2c0 .1-.1.1 0 .2Zm0 16.1.3.7c0 .3 0 .3.3.3h1.5l.2-.5c0-.3 0-.5-.3-.7h-2v.2Zm-.1 0c0-.1 0-.2-.2-.2l-.1.2.2.9.2.1h.2v-.1c0-.4-.2-.7-.3-1Zm.6 1.4 1.3.5.2-.1v-.4h-1.5Zm1.8.7h.1v-.5h-.1v.3s-.1.1 0 .2Zm1.5 0-.2-.2-1-.3v.7l.1.1 1.4 1L18 26Zm.3-.3h.1v-.1c0-.4-.2-.7-.4-1H18a55.7 55.7 0 0 1 .4 1.1Zm-.5-.4-.4-1.2v1l.2.3h.1v-.1Zm-1-.2h.5c0 .1 0 0 0 0A6.6 6.6 0 0 0 17 24v.4h-.2v.8Zm-1.3 4.7c0 .3.2.5.4.7 0-.5-.1-.5-.4-.7Zm-.4-.1.6.9-.6-1Zm0 .5-.3-.6-.2-.2-1.5-.5.3.4 1.5 1.1h.2s.1 0 0-.2Zm-.5-1.1h.2v-.1c-.4-.8-.6-1.7-.8-2.6l-.1-.8-.2-.1c-.4 0-.4 0-.4.3l.2 1.2v.3l-.1-.5-.3-1.1c0-.2 0-.2-.2-.2h-.1c-.5 0-.5 0-.5.5 0 .7 0 1.4.4 2.1 0 .2.2.4.4.4l1.5.6Zm-1.4-4.6v.4l.2.1h.2l.1-.2-.1-.8h-.2c-.1 0-.2 0-.2.2v.3Zm-.1.5a72.6 72.6 0 0 0-.3-.9v.4c-.1 0 0-.2-.2-.2v.2l-.2.7.6-.1v-.1Zm-.8-.8v-.1c-.4 0-.7-.2-1-.4l-.4-.2h-.4l-.3-.3c-.2-.2-.5-.2-.7-.2v2.3c.1.7 0 .6.6.5l1.7-.4h.2l.1-.2.2-1Zm-7.6-9.7c0-.1 0-.2.2-.3l.3-.5.2-.4c.1 0 .1-.2.3-.1l.2-.2s0-.2.2-.1v-.1l.2-.2h.3l.5-.4c.1 0 .2-.1.2-.3h.2c.1 0 .3 0 .4-.2H8.2v-.4h.1c.1.1.1.2.2 0l.2-.3v.3l.2-.2c.3 0 .3-.1.5-.2l.3-.3.6-.4.6-.2H11.2v-.2h.6l.2-.2c-.2-.1-.3-.2-.5 0H11c-.2.2-.5 0-.6.2H10c0 .1-.2.1-.2.3l-.4.1-.1.1-.2.1v.2H9c0-.1-.2-.1-.2 0l-.9.6-.3.3-.3.2c-.1 0-.2 0-.3.2-.2 0-.3.2-.5.3l-.4.2-.3.3-.2.2a53.3 53.3 0 0 0-1.2 1.5c-.1.2-.2.3 0 .7l.2-.6ZM7 11.7c0-.1.1-.3.3-.2l.8-.7 1-.5.2-.3h.1c.2 0 .3-.1.4-.3v-.2s0 .2.1 0h.1c0 .2 0 .2.2.1s.3-.3.5-.3L11 9l.1.2.2.1h.4l.1-.1h.2s0 .1.1 0h.2c0 .1 0 .3.2.4.2 0 .2 0 .3-.2l.2.2c.1.2.4.3.6.4v-.2l-.5-.6-.2-.1-.5-.4-.4-.2c0 .2-.2 0-.3 0h-.1c0 .1-.2.1-.1.2V9l-.3-.3-.5.1V9H10c-.5.9-1.3 1.4-2 1.9-.6.3-1.1.6-1.5 1.1l-.2.2.7-.4Zm3.1-5.5v.2l.2.2v.1a4.9 4.9 0 0 1 .3.4l-.2-.2-.3-.3-.2-.2-.2-.2v.2c-.1 0-.2-.1-.2 0-.1 0 0 0 0 .1v.1h-.2l.5.6-.2-.1-.4-.4v.1l.1.3.2.2-.2-.1-.1-.1-.2-.2-.1.2v.1l.2.4v.1l-.3-.3-.1-.1h-.1l-.1.1v.2l.1.3v.2l-.3-.4-.2.1c-.2.2-.2.2 0 .4-.2.1-.2 0-.2 0h-.2v.1c-.3.1-.4.3-.5.4l-1 .8a1 1 0 0 0-.2.2h.1l.7-.4c.5-.4 1-.6 1.7-.7L9.8 8c.7-.4 1.4-.7 2.2-.8l.6-.2h.3l-.6-.4h-.1c-.2.2-.3 0-.4 0l-.1-.2h-.2v.3l-.3-.2-.2-.3-.3-.1.2.2h-.2l-.2-.2v.1l.4.5h-.2l-.5-.6ZM19 1.5v.1h.2-.2Zm1.7 4L20.5 4l-.2-.8v-.3H20l.2-.2v-.1c-.2 0 0-.2-.1-.3l-.6.5v-.1l.3-.3V2h-.2l-.2.2-.1.2h-.1l.2-.3-.1-.2H19c0 .4-.3.6-.5.8v-.2l.2-.3V2c.1 0 .1-.1 0-.2h-.2l-.1.3-.5.5v-.1l.4-.6c0-.1 0-.1-.1 0 0 0-.1.2-.3.2L18 2v-.2h-.1V2h-.2l-.1-.1h-.2v.3l-.3.2v-.1l.2-.3-.1-.1c-.2 0-.3-.1-.4 0H16.5c0 .2-.1.2-.2.3-.1 0 0-.2 0-.4l-.3.4-.3.4v-.2L16 2l-.1-.2H15v.1l-.3.1-.4.4.2-.4H14l-.3.2v-.2l.2-.1c-.3 0-.3 0-.5.2l-.4.4v-.1l.3-.4h-.1l-.6.5-.7.7-1.4 1.7v.1h.2c0-.2.2-.2.3-.3l-.6.8 1-1 1-1-.7 1-.8.8c0 .1.1 0 .1 0L12.4 4l.3-.3V4l-1.4 1.4c-.1 0-.2 0-.2.2l.5-.2-.3.2c0 .1.1 0 .2 0l.8-.5.3-.2-.4.5c.2 0 .3-.2.4-.1l.2-.1.8-.8h.2l-.5.5.4-.2.4-.2.4-.2.5-.4.2-.3c0 .2 0 .3-.2.3h.1l.3-.1.2.1c.2 0 .5 0 .7-.3h.1l.1.1H17.1c0 .1.1 0 .2 0 0 0 .2-.1.2 0h.2l.5-.3-.1.2c-.2 0-.4.1-.5.3h.1l.5.3s.2.1.4 0h.3l-.3.2.4.1.4-.1.6-.2h.1l-.3.2-.8.3v.1c.1.2.3.3.5.2l-.1.2.5.7H20.5c.2 0 .2 0 .2-.3Zm0 .5h-.4v.1h.4V6Zm.1.4v-.1a2 2 0 0 0-.4 0v.1h.4Zm-.1.3c0 .2 0 .2.2.3v-.1c0-.2 0-.3-.2-.2Zm.7 1c-.2-.1-.2-.4-.4-.6v.1l.3.6Zm1.2.7-.5-.2-.3-.1h-.4.2v.2H22.2a25.6 25.6 0 0 1 .4 0Zm.3 0-.8.1-.4.2.5.1h-.4V9l.6.2.3-.1.7-.4a1 1 0 0 0-.5-.1Zm4.6-2.1c-.5-.2-1-.4-1.6-.4v-.1h.8l.6.2v-.1l-1-.3-.6-.1a.6.6 0 0 1-.5-.4l-.1-.4-.1-.2c-.2 0-.3.1-.4.3.1.1.1.2 0 .2v.2c-.2 0-.2.1-.3.3H24h.8c-.2.2-.4.2-.5.2H24v.1l.2.1h-.6l.2.1h.3l.2.1.2.1h-1c0 .2.2.2.2.3l.4.1h-.9v.2h.3l.6.2c-.4 0-.7 0-1-.2l.1.3.8.2h-.9v.1s-.1 0 0 .1c0 .3.1.3.4.4l.4.1h-.3c-.1 0 0 0 0 .1v.1l.5.2H24l.4.2h-.1l-.2.1.1.1.4.2h-.1v.1l.7.2H25l-.1.2v.1a2 2 0 0 0 .9 0c0 .2-.1.1-.2.2h-.2l-.2.1v.1h.2c-.1.1-.1.1 0 .2h.2l1-.6-.1-.1-.2-.1a13.2 13.2 0 0 0 .4-.1h-.8l-.3-.1h1V8.9l-.1-.2.4-.1h.1v-.1h-.4a1 1 0 0 1-.4 0l.5-.2h-.2v-.1h-1.1L26 8h.4s-.1-.1 0-.1h.2v-.1h-.2l-.2-.1h.5a5 5 0 0 1-.8-.2h1-.3c0-.2.2-.1.2-.2h-.1v-.1l-.6-.2h.7l.4-.1c-.1-.2-.3-.2-.5-.3h.3l.2-.1.1-.1-.6-.3c.2 0 .4 0 .6.2.1 0 .2.2.3 0l-.2-.1ZM30.1 2c.1 0 0-.1 0-.2l-.4-.3.3.1v-.1a.6.6 0 0 0-.7-.1h-.2v.1l.2.1.2.2h-.7l.2.2c-.3.1-.3.1-.3.4v.4-.2l-.1-.2h-.1c-.2 0-.3.2-.3.3v.1l.1.5h-.2v.2h.1V4s.1.2 0 .1H28v.5l.1.2v.4l.1.2v.4l-.1.3-.2.3c-.1.1-.2.2 0 .4h-.2l-.2.2v.6h-.3V8l.2.1.2.2h-.2s-.2-.2-.2 0l.1.1.1.1c.1 0 .1.1 0 .2l-.3.1.1.1V9c-.1.2-.1.3 0 .4l.1.2v.1c-.2 0 0 .1 0 .2v.2l.2.2h-.1v.5c.2.1 0 .2 0 .3 0 0 .2 0 .1.2v.1c.1 0 .2.2.1.3.1.3.3.4.5.5h.1v-1l-.2-.3v-.2h.2v-.1H28v-.2c.2-.3.2-.4 0-.7.2-.2 0-.2-.1-.2 0-.1.2 0 .3-.2h-.1V9h.1V8.7c-.1 0-.1-.1 0-.1l.1-.2v-.2l.1-.4.1-.5v-.1l-.2-.1c.3 0 .3-.1.2-.3v-.1c.1 0 .1 0 0 0v-.3h.2V6l-.1-.1H29l.1-.5V5l-.1-.2.2-.1v-.2l-.1-.3h.2V4l.2-.1-.2-.2h.3v-.2c0-.1 0-.1.1 0 0 0 .2-.1.1-.2 0-.1.1-.3 0-.4H30v-.4s-.1 0 0 0c0-.1 0 0 0 0l.1-.2v-.2s-.1 0 0 0Zm5-.2s0 .1 0 0l-.1-.2c.1-.2 0-.2-.2-.3 0 0-.2 0-.2-.2h-.2c-.1 0-.3 0-.2-.2-.3-.2-.5-.3-.8-.1l-.1-.2-.3-.1h-.5V.5H32.2c0-.1-.1 0-.1 0l-.2.1h-.1V.4s0-.1-.1 0l-.2.1-.1.2V.4c-.3 0-.5.3-.6.6V.5l-.2.1-.1.5-.1-.2c-.2.1-.2.3-.1.6v.4l.9 2v-.3.2l.2.1h.2s.2 0 .2.2h.2c0-.2-.2-.2-.3-.3h-.1c0-.2 0-.3-.2-.3l-.4-.8v-.3l.1-.4h.1v-.4l.1.2.1-.2v-.1l.1.1.1.1.2-.1v-.2.1l.1-.1c.1.1.2.2.3.1h.2v-.1l.1-.1v.3c0 .1 0 .1.1 0l.1.1c0 .1 0 0 .1 0l.2-.2.2-.2v.2l-.1.3s-.1 0 0 .1h.2v.2l.4-.3V2s-.1.1 0 .2c.2-.1.2 0 .2 0v.1h.2s0-.2.2-.2v.2c-.1 0-.2.1-.1.2h.2v-.1h.2l-.2.3h.4l-.1.1v.2h.2L35 3V3l.1.3h.2l.2.1-.1.1v.1h.1l.1.2s.1 0 0 0v.2l.1.1.7-.2h.3l-.5.2s-.1 0 0 .1l-.2.1c.1.2.3.1.4.1l-.3.2.3.1c-.1.2 0 .1 0 .1v.2h.3l-.2.2v.1h.3l-.2.2v.2c.2 0 .2.2.3.2.1 0 0 .1 0 .2v.1c.2.1.2.1.2.3l-.1.1h.1c.2 0 .2 0 .1.1 0 0 .1.1 0 .2v.2s0 .2.2.2H38v-.1c0-.1.2-.1 0-.3.2-.3.2-.3 0-.4l.2-.2-.2-.1h-.1L38 6l.1-.2v-.1l-.1-.1h-.2l.1-.2s.1 0 0-.1l.1-.2L38 5h-.2l.2-.1v-.2h-.3c0-.2.1-.2.2-.2v-.1c-.2 0-.3-.1-.4 0v-.1c.3-.2.3-.2 0-.4-.1-.2-.2-.2-.5-.3.2-.1.2-.2 0-.2 0 0 0-.2-.2-.2 0-.2 0-.3-.2-.4h-.2c0-.3-.1-.3-.3-.3H36v-.2s-.2 0-.2-.2l-.2-.2c0-.1-.2-.1-.4 0Zm5 2.8c-.2 0-.2-.1-.1-.2 0 0 .1 0 0-.1h-.3s.2 0 .3-.2h-.4c-.1.1-.2.1-.2 0h.3l.1-.2.1-.1-.1-.1-.3-.1.1-.2h-.3l.2-.2v-.1c0-.1 0-.1-.1 0h-.3c.1-.2.2-.1.3-.2 0 0 .1 0 0-.2h-.2c0-.1.2-.2 0-.3l-.3-.1.2-.1L39 2h-.3v-.1h-.2v-.2H38v-.1l-.4-.2h-.2l-.2-.1c-.3 0-.4-.1-.5-.2h-.2c-.4-.1-.7 0-1 .3-.1 0-.1.1 0 .2 0 .1 0 .2.2.1h.2v.2h.2l.1.1h.2s.1-.2.2-.1a19.5 19.5 0 0 0-.3.4v.1l.3-.1v.1c-.1 0-.1.1 0 .2 0 .1.1 0 .1 0v.2l.2.1.3-.2-.2.3V3l.3.1v.1c-.1 0-.1.1 0 .2h.2l.2-.2v.1c0 .1 0 .1 0 0l.2.1-.3.2v.1l.1.2h.2v.1c-.1 0-.1 0 0 .1l.3-.1-.2.2v.1h.3l-.1.2c0 .1-.2.1-.1.2 0 .1.1 0 .2 0V5l-.2.4c0 .2 0 .3.2.2h.2l-.1.2-.2.1.3.2-.3.1c.2.1.3 0 .4 0l-.1.1c-.3.2-.3.2-.2.5h.3c-.1 0 0 .2 0 .2l-.2.1s-.2 0-.2.2L39 7l-.2.1-.4.2v.1c-.3 0-.5.1-.8 0l-.2.1v.1h.5l-.3.1c-.2 0-.3 0-.3.2h1.4c0 .2.2.2.3.2v.2l-.1.3c.3 0 .5-.1.7-.3l.4-.2-.6.6h-.1V9l-.6.2-.2.2v.2l-.1-.1H38c0 .1 0 .1 0 0h-.2V9.8h-.4v.2h-.3c-.1 0 0 .3-.2.2v.1h-.6l-.1.2-.1.2h-.5c0 .2-.2.2-.3.3l-.7.1-.9-.1h.6c.4 0 .8-.1 1-.4l.4-.2-.1.2s-.2 0-.2.2h.2l.4-.5.2-.3v-.1c.3 0 .3-.2.4-.3l.4-.3V9l.2-.1v-.3h-.4v.1c0 .2-.2.3-.3.4 0 .2-.2.2-.3.2l-.1.2v.1l-.6.3c0 .2-.2.2-.3.2 0 .1-.2 0-.2.2-.2 0-.4.3-.6.2l-.4.1H34c-.3 0-.6 0-.9-.2a.3.3 0 0 1-.2-.2 1 1 0 0 0-.3-.4l-.2-.4-.2-.2-.2-.4c0-.3 0-.6-.2-1l-.1.5v.8l.1.9v.1c-.1.1 0 .1 0 .2v.3l-.1.2.2.1c0 .1 0 .1 0 0l.5-.2-.3.3v.1h.2l.5-.2c.2 0 .3 0 .4-.2l.5.1-.5.2.3.2h.7c.2.1.3.1.4 0 .1.2.2.1.3 0l.1.1h.7s.2 0 .2-.2h.7c.1 0 .3 0 .3-.2 0 0 .1-.1.1 0h.2l.2-.1s0-.1.1 0c.3 0 .4-.2.6-.4l.1-.1c.1-.1.3-.1.3-.3l.1-.1h.2c.2 0 .3 0 .2-.2l.2-.1h.1v-.3h.1l.2-.1V9l.1-.1h.2l.1-.4v-.1c.3 0 .3-.2.3-.4H40c.1 0 .2-.1.2-.3l-.1-.1H40l.2-.3v-.4H40l.2-.3v-.3c0-.1-.1-.1 0-.2v-.2l-.1-.1c-.1-.1-.1-.2 0-.2.1-.2.1-.2 0-.2h-.1v-.1l.1-.1v-.3l.1-.2Zm-2.3 4h-.2v.2l-.4.4-.4.4-.2.2v.1h.1l.3-.2.3-.1.3-.2h.2s.1 0 0-.2h.1l.2-.1.1-.2H38.5v-.3l.2-.2v-.1c-.1-.2-.3-.2-.4-.2h-.6c-.2 0 0 0 0 .1h-.2l-.2.1.6.2h-.1Zm2.4-3 .1.1h.2v-.3c-.1 0-.2 0-.3.2Zm.2.3h-.2v.2c.1.2.2.2.1.3v.2l.2.7s.2 0 0 .2c0 0 .1.1 0 .2l.1.2c-.2 0-.3.2-.3.4l.1.2c0 .1-.1 0 0 .2l-.1.1s-.1 0 0 0V9s.1 0 0 0v.4H40v.4h-.2v.2l.4.2H40c0 .2.2.2.3.3-.2 0-.3-.1-.4 0l.3.2h-.4v.1c.2.1 0 .1 0 .2l.4.2c-.2.1-.3 0-.4 0h-.1v.2l-.1.2c-.1 0-.1 0 0 .1v.1h-.2v.1l.2.2h-.1c-.2 0-.2 0-.2.2v.1c0 .1-.1 0-.2 0l-.1.1c0 .1-.2 0-.1.2l-.2.2s-.1.1-.2 0l-.3.1-.3.2c-.2.1-.2.2-.1.4v.1c-.1 0-.2-.2-.3-.1l-.1.2v-.1h-.2v.2l-.2-.2-.2.2c0 .1 0 .1-.1 0v.4l-.2-.1-.2.3-.1.4v.1H36c0-.1 0-.1-.1 0l-.3.4c0-.1-.1-.1-.1 0l-.2.1.1.3v.2c-.1 0 0-.3-.2-.3v.1h-.1c-.1 0 0 0 0 .1H35c-.2 0-.2.1-.1.2l.3.3H36s.1 0 0-.1c0 0 0-.1 0 0a.6.6 0 0 0 .5 0s.1-.1 0-.2c0 0 .2 0 .1-.2h.4l-.1-.3h.2v-.1h.1c.2.1.3 0 .3-.2l.1-.2h.2V15s0-.1.1 0l.3-.1v-.2l-.1-.2h.1c0 .1.1.2.1 0h.2c0-.1.2-.2.1-.3V14h.1v-.2l-.2-.3v-.2l.2.2.4.1h.3l.4-.1c0-.2.1-.2.3-.2.1 0 .2 0 .1-.2l.3-.1.1-.3c0-.2 0-.2.3-.2 0-.3.2-.6.4-.9v-.2c0-.1.2-.2.1-.3l-.2-.1h.4l-.1-.2v-.1H41c.1-.2.2 0 .3 0l.1-.2-.1-.1v-.1h.3l-.1-.2-.1-.1c.1-.1.1-.1 0-.2v-.1h.2l-.2-.2h-.1v-.2c.4 0 .3 0 .4-.3l-.1-.3-.3-.2h.2V8l.1-.1-.1-1c0-.2-.2-.3-.4-.1-.1 0 0-.1 0-.2-.1 0 0 0 0 0v-.2c-.2 0-.2-.2-.3-.3-.2.1-.2 0-.1-.1V6l-.4-.1Zm1.3-1.3h-.1c-.3.4-.3.5 0 .8l.2.1v-.1l-.1-.8Zm-1 .5V6l.7.7c.1.1.2.1.2 0l.1-.6V6a7 7 0 0 0-1-.8Zm.5-.8h-.1v.2c-.2.3-.2.3.1.5l.1-.4v-.3Zm13.2 4 .1-.3c0-.2 0-.3-.2-.5a7.2 7.2 0 0 0-.9-1.2l.5.3.4.4A5.6 5.6 0 0 0 52 4l-.3-.2-.8.5.6.4.6.3h-.2l-.8-.3H51l.2.6.7.8.4.2.4.4v.1h-.1l-.2-.1-.6-.4s-.1-.1-.2 0L52 8c0 .4.2.6.5.8.4.4 1 .5 1.4.8 0-.2 0-.3-.2-.4l-.3-.3-.2-.2-.3-.4.6.5.5.5.5.5s.1 0 0 0l.1-.5c0-.3 0-.6-.2-1Zm-4.2-1.9.2-1.2v-.6c-.3.1-.6.2-.7.5h-.1l-.4.1v.1a13 13 0 0 0-.3 1.8l.5-.7v.1l-.3.9-.3.8c0 .1 0 .2.2.2.8 0 1.5 0 2.1.2l.3-.1c.3-.6.3-1.1 0-1.6-.1.1 0 .3-.2.5v-.6c0-.6-.1-1.1-.4-1.7-.2.3-.3.6-.3 1l-.2 1-.2.3.1-1Zm1.6 2.4v-.6l-.2.4.2.2Zm.5 7c0-.1-.2-.3 0-.5l.4.8V16a55.5 55.5 0 0 0 .4-1.3l-1 .1h-1l1.2 1ZM46 9.2l2.2.7 1.6.3s.2 0 .2.2l-1.7-.3-1.7-.4a25.2 25.2 0 0 0 3 1.4l1 .5.3.1-1-.2a14.6 14.6 0 0 1-1.7-.7l-1-.4c.1.2.2.2.3.2a34.9 34.9 0 0 0 2.3 1.6c-1-.5-2-1-3-1.7v.1l-.3-.1-.2-.2v.2c.6.6 1.3 1.1 2 1.5l1 .6.2.2c-.3 0-.5-.1-1.2-.5l-1.1-.7c-.1 0 0 0 0 0 .7 1 1.6 1.9 2.7 2.4 1 .5 2 .7 3 .5 1-.1 2-.5 3-.9l.8-.4h-3.1c0-.2 0-.1.1-.1h1l1.8-.1c.2 0 .3 0 .4-.2h.2l.8-.1h-.2a21.1 21.1 0 0 1-3.4-.2v-.1a16.7 16.7 0 0 0 3.2 0h-1l-.9-.2c-.3 0-.6 0-1-.2h.5c1 .2 2 .2 3 .2h.2l-1.6-.3h1v-.1a5 5 0 0 0-1.3-.4l-.7-.2h-.2H56.4l-.1-.1-2.9-1.5c-1-.4-2-.7-3-.8-1-.2-1.9-.2-2.8 0l-1.7.2-.1.1.2.1Zm-1.1-.5.7.1c.5 0 1 0 1.4-.2l1.4-.2c.2 0 .2 0 .2-.2V7l.2-1.3v-.4h-.3c-1.1.5-2.3.7-3.5.5h-.1l-.1.1a7 7 0 0 1 0 2.4v.3Zm-.1-3a7 7 0 0 0 1.7 0c1.4-.1 2.6-.6 3.8-1.4h.1c0-.2-.1-.1-.2-.1H50c0-.1.3 0 .4-.2l-1 .1-.9.1.4-.1 2-.5h.2c0-.2-.2 0-.2-.2 0 0 .2 0 .3-.2l-4 .5 2.4-.5c.8 0 1.5-.2 2.3-.3h-.2l-2-.1h-1l.6-.1 1.6-.1h.2v-.1a25.2 25.2 0 0 0-4.6-.4c1-.2 2.2-.2 3.4 0a.8.8 0 0 0-.5-.2h-1l-.2-.1v-.1h.5l-.1-.1a12.8 12.8 0 0 0-4.5-.5c-.6 0-1.3.2-1.9.4-.2 0-.3.2-.3.4l-.1.3v.2h.1l-.2.1V2.8h.3l.2.1h-.4l-.3.1.3.1 1.8.1h.5v.1h-2.6v.2h.2L44 4h.2c-.2.1-.5 0-.8 0h-.8l.6.3-1.8-.4 1.2.5a11 11 0 0 0 2.7.5l-.3.1a15 15 0 0 1-2.6-.4H42a7 7 0 0 0 2.8 1.1Zm-.6 2.5.2.1V8l-.1-.5.2.4h.1v-1c0-.2 0-.5-.2-.8l-.3-.3c-.6-.1-1-.3-1.6-.6l-.4-.2V5l.6.8.4.5.2.3-.3-.2-.3-.3-.3-.3.1.5 1.3 1.5.4.4Zm-.3.6-.4-.7a7 7 0 0 0-.8-1s0-.1 0 0c-.1 0 0 0 0 .2L43 9v.1l-.1-.1-.1-.4c-.1 0 0 .1 0 .2l-.1.3h-.1v-1a5.2 5.2 0 0 0-.4-1.7c0-.1-.1-.3-.3-.3v.3a2.7 2.7 0 0 0 0 1.2v1.8c0 .1 0 .3.2.4l.2-.7v-.3c.1-.1.1 0 .1 0v1c0 .3 0 .5.2.7h.2c.3 0 .5 0 .7-.2.2-.1.3-.3.3-.5l-.2-1-.2-.7.5 1v-.4Zm-2.1 2c0 .1.1 0 .2 0 .5 0 .5 0 .2-.4l-.3-.3-.1.7Zm-2.5 4 .7-.3.8-.4.4-.1a2 2 0 0 1-.5.3l-.5.3-.5.3h.1c.5 0 1 0 1.5-.2a3 3 0 0 0 1.8-1.3c.5-.6.7-1.3.8-2v-.2l-.2.3a5.3 5.3 0 0 1-1 1.8h-.1v-.1l.1-.2c.4-.4.6-1 .9-1.4 0-.1.1-.2 0-.4l-.1.2-.5.8h-.1a25 25 0 0 1 .3-.6c-.2 0-.2.2-.3.2l-.2.2-.2.3-.2.1-.3.2.6-.7.5-.7-.2.1-.7.7v-.2l.7-.7c.1 0 .2-.1.2-.3H43l-1.1.3c-.2 0-.3.1-.4.3-.2.3-.5.6-.6 1l-.1.1-.6.9a1 1 0 0 1-.6.3c-.4.1-.4.1-.4.6.2 0 .4 0 .5-.2l.5-.2c0 .2-.1.2-.2.2l-.7.4v.2c-.1 0 0 .1 0 .1Zm-3.5 3.6s.1.2.2.1h.1c0 .1.1.2.2 0 .3.3.6.2.8.2v-.3h.3c.1.2.2.2.4.1v-.2s0-.1.2 0h.3c0-.3-.2-.3-.3-.5h.1l.3.3h.2s.1-.1 0-.2v-.1c.1-.1.2-.2.3-.1v-.2c.2-.1.2-.1 0-.2l-.1-.3h.1l.2.1v-.3c0-.1.2-.1.1-.3v-1c-.1 0-.2-.1 0-.2L39 15l.1-.2v-.6c-.1 0 0-.1 0-.2v-.2h-.4V14.3l-.2.6h-.2v.2l-.2-.1H38v.2s.2.1.2.3l-.3-.2v.3l-.3-.2.1.4h-.1v.2s-.1-.1-.2 0l-.2-.1H37v.4l.1.2-.3-.3h-.1c0 .1 0 .1 0 0h-.2v.1l.2.4h-.1l-.2-.3h-.1v.3l.3.5h-.2a2 2 0 0 1-.3-.6s0-.1-.2 0v.1l-.1-.1c-.1 0 0 0 0 0l-.1.1-.2-.2h-.1v.1l.2.4.2.3h-.1l-.1-.2-.2-.2-.5-.6v.2l-.1-.1s-.1.1-.1 0c-.1 0-.3-.1-.3-.3h-.2v.5l-.2-.2v.2H34c0-.1 0-.2-.2-.2-.1 0-.2 0-.2.2 0 .1-.1.1-.2 0 0-.2-.2-.2-.3-.2-.3 0-.6-.1-.8-.3l-.2-.2v.1l.1.6h.1c.2 0 .2.2.3.2.1.1.2.3.4.2.2.3.4.4.7.5.2-.1.2 0 .2 0l.2.3h.4c0 .1 0 .2.2.3V18c.2.1.4.1.5.3 0 .1.2.2.4.1h.2Zm-4.4.4c0-.1.1-.1.2 0l.1.2h.1c.1-.2.1 0 .2 0v-.2l.2.3.1.1h.2l.2-.1v.1l.2.2h.2l.1-.3.1.2.1-.1v.1s0 .1.1 0v-.1l.2.2h.1v-.2l.1.1.1.1v-.1h.2v.1-.1c.1-.1.1 0 .2 0h.6l.3-.1c0-.2.1-.2.2-.2l.1-.2v-.1a6 6 0 0 0-.5-.1l-.2-.1H34.6l-.1-.2h-.1v.1c-.2 0-.2-.1-.3-.2h-.2v.1c0-.1 0-.2-.2-.3v.1l-.3-.4v.5l-.1-.3c0-.1 0-.2-.2-.3h-.2v.4l-.1-.6-.1-.1-.1.1v-.1h-.1v.4l-.1-.2-.1-.3V17c-.2.1-.2.3-.2.5l-.2-.8v.6-.2h-.2l-.1.2h-.4c0 .1 0 .1 0 0l-.2.1-.1.2s-.2 0-.1.2c-.1-.2 0-.3 0-.4h-.1l-.2.4v-.3l-.2-.1c-.1-.1-.2 0-.2 0v.1c-.2 0 0-.1 0-.2h-.3s0-.2-.1 0c0-.2-.2-.2-.2-.3 0-.2-.2-.2-.4-.3H29s-.1.1 0 .2c0 .2.1.5.3.7l.1.2c0 .1.1.2.2.1.2 0 .2 0 .3.2l.2.3c.2 0 .3.1.4 0l.1.1s0 .1.2 0h.2l.1.2c0 .2.2.2.3 0Zm-2 .4v.3h.3c.1 0 .2-.1.1-.2 0-.1 0-.2-.2-.3h-.2v.2Zm2 1.2-.1-.4-.1-.8-.2-.2-1-.6h-.2c0 .2 0 .4.2.6l.2.4c0 .1 0 .2-.2.3 0 .1-.1.2-.3.2-.1 0-.2 0-.3-.2l-.2-.4v-.4l.2-.1.2-.4c0-.1 0-.3-.2-.4l-.4-.3c-.2-.3-.3-.6-.2-.9 0-.1 0-.2-.2-.2l-.2.2-.2.3h-.6c-.9 1-2 1.5-3.2 1.9l-.7.2h-.2c-.3.1-.4.3-.5.5l-.2.9v.2h.2a9.9 9.9 0 0 1 5.9-.3l1.3.2h1l.1-.3Zm-3 4.1.7-.5v-.2l-.4.2-.4.2a7.4 7.4 0 0 1-1 .3h-.5.3a9 9 0 0 0 2.7-1.4l.3-.3-.5.2.6-.5H30l-1 .6-.4.2.1-.2 1.3-.8.6-.5.1-.1h-.1l.1-.3-.7.5-.8.4c-.3 0-.6.2-.8.3l-1 .2.3-.1 1.1-.5a7 7 0 0 0 1.6-.9l.3-.3-1.5.3h-1.5.4l1.4-.2.9-.2a2 2 0 0 0-1 0h-.8a1 1 0 0 1-.5 0l.5-.1h.1v-.1l-2.7-.3c-1 0-2 .3-3 .7h-.1l.1.1H23.9l-.5.1-.6.1-.2.2v.6c-.1.1 0 .2 0 .2l.6-.1-.3.1-.4.2.3.1c.7 0 1.5 0 2.3-.2l1.7-.3h.2l-.2.2-2.7.4-1.5.1c-.2 0-.2 0-.3.3.4 0 .7 0 1 .2H22.2l-.1.1v.1l.9.2h.2v.1h-1c0-.1 0-.1-.1 0h.2a6 6 0 0 0 1.3.4h-.5v.2l.6.2c.4 0 .8.2 1.1.4l.7.2c1 0 2-.2 2.7-.8Zm-4 10.4h.2c.1 0 .1 0 0 0v-.3l-.4-.7h.1l.4.8.7.6v-.2a9 9 0 0 1-.8-2.4v-.2l.1.4.8 2 .2.4.2.3s.1.1.2 0v-.2l-.3-.4c-.4-1-.7-2-.8-3l-.1-.7v-.2l.2.6c.2 1 .6 2.1 1 3.1l.1.4c.1-.1 0-.2 0-.2v-.3l.2.1-.2-.7-.3-.7V33v.1l.3.7h.1l-.2-1-.2-1 .5 1.6.1-.2.2-1.3.1-2v-1.7l-.4-1.4c-.4-.6-.9-1.1-1.5-1.4h-.2l1 1.3-.2-.1-.8-1-.8-.5h-.5a1 1 0 0 0-.5-.2l1.2 1v.3c.1 0 .1 0 0 0l-.2-.1a7 7 0 0 0-1.1-.9l-.4-.2H22l.2.1.8.7s.2 0 .2.2c-.2 0-.2-.1-.3-.2l-.7-.5a.8.8 0 0 0-.5-.1l.5.3a6 6 0 0 1 .7.7l.3.4.2.4h-.1l-.8-1-1.1-.7h-.2l.4.4.5.5a9.2 9.2 0 0 1 .7.8l.3.5a11.3 11.3 0 0 1 .6 1l-.1-.1-1-1.2-.8-.9.3.6.4.6c0 .2.2.3.3.5h-.2l-.5-.8-.4-.6-.1-.1c.1.4.4.9.4 1.3a.6.6 0 0 1-.2-.3l-.1-.3a4.2 4.2 0 0 0-.4-.7v.3c-.2-.1-.1-.3-.3-.4v1.2c0 1 .2 2 .4 3L22 32a6 6 0 0 0 1.4 2.2l.5.3c-.3-.7-.6-1.3-.7-2l.2.2.5 1.6c.1.3.3.5.6.6ZM16.3 39l-.3-1-.1-.7-.1-.1v.4l-.2 1v.3l.8.3V39ZM9 41.4l.8.3.8-.1.9-.4h.2c-.2.3-.6.4-1 .6h.3c.3.1.5.1.8 0 .1.3.3.2.4.2l.9-.1.6-.3h.3l-.8.5h.4l-.1.2h-.4v.2c-.8-.2-1.6-.4-2.5-.4l-1.1-.2h-.2l.2.1c1 .5 2 .9 3.1 1.1h.3l-.3-.3-.2-.2c.3 0 .4.1.6.3.6.4 1.3.5 2 .4V43h.1c.5.2 1 .2 1.4 0a8.5 8.5 0 0 0 1.3-.5v-.2h.5l.8-.4H19a9 9 0 0 0-1 0h-1.1v-.1l1.2-.2h1l-.5-.4-.4-.4c-.2-.2-.3-.3-.5-.2l-.4.2c-.2 0-.3.2-.5.3h-.1v-.2l.8-.5v-.2l-.9-.6H16.3c0-.1-.1 0-.2 0l-.4.3-.3.2V40l.5-.5-.1-.2a5 5 0 0 0-1.5-.3c-.2 0-.3 0-.3.3l-.2.4-.1.1h-.1v-.1l.1-.3c.1-.4.1-.4-.2-.3-.4 0-.7 0-1 .2-.2 0-.3 0-.4.2l-.2.6c0 .2-.2.3-.3.4v-.3l.3-.6-.1-.1c-.3 0-.5.2-.7.3l-.5.4a12.2 12.2 0 0 1-1.7 1.2Zm-7.6-5.3-1-.5H.4v.1l4.2 4 1.5.9 1.8.5c.5.2.9.1 1.3-.1l.6-.5 1-.7a6 6 0 0 1 3.4-1h1.1V38l.2-1.7v-.7c-.4-1.4-1.1-2.5-2-3.5-1.1-1-2.3-1.9-3.6-2.6L8 29c-.1-.1-.1 0-.1 0l.1.1 1 1.1.4.8c.2.5.5 1 1 1.4l.5.4c1 .8 1.9 1.7 2.5 3l.4.4v.5h-.2v-.1h-.3l-1 .4c-.7.4-1.4.8-2.2 1-1.1.5-2.2.7-3.4.7-1 0-2-.3-2.9-.8l-1.4-1a11 11 0 0 0-1-.7Zm8.8-3.7v.5l.3.6.5.3 1.2.9c.2 0 .3.2.4.3a8.1 8.1 0 0 0-2.4-2.6Zm-4.6 1.4c-.4.2-.6.5-.8.8l-.1.2h-.1v-.3l-1.3.7a9 9 0 0 1-1.4.6c.3.2.7.2 1 .1l.6-.1h.1l-.3.3h.1c.4.1.8.1 1.2-.2l.4-.3.2-.1-.2.3-.3.4v.1h1l.5-.3h.1v.1l-.1.2h.2c.2 0 .3 0 .5-.2l.5-.5.2-.1v.1l-.5.7h.1c.3.1.5.1.8 0a8 8 0 0 0 1.2-.2h.1c0 .2.2.1.3.1h.4v.1l-.8.2h-.4v.2c.1 0 .2 0 .2.2H9c-.5-.2-1-.2-1.4-.2v.2h-.3a2 2 0 0 0-1-.2H5.2v.2a2 2 0 0 0-.8-.3l-1-.2v.3c-.4-.3-.8-.5-1.3-.6v.1c.6.5 1.2 1 1.9 1.3.2.1.4.3.7.3v-.5l.2.3.2.2c.2.3.5.4.8.4H6L6 38l.8.3H7s.1 0 0-.1v-.3c.4.3.8.4 1.2.3l1.3-.3c-.2-.2-.5-.2-.6-.4h.3l.7.1h.5s.2 0 .2-.2l.2-.1.5-.1.6-.2v-.2l.9-.3.4-.2-.5-.2h-1l.2-.1h1.1l-.1-.2a.6.6 0 0 0-.6-.2 1 1 0 0 1-.3 0c-.1 0 0-.1 0-.1h.2c.2 0 .2-.1 0-.3-.2-.3-.5-.6-1-.7h-.1c0-.1-.1-.2 0-.2L11 34l-.9-.4h-.4l-1 1.1-.3.4V35a4.7 4.7 0 0 1 1.2-1.4v-.1a1 1 0 0 0-.4 0l-.7-.1h-.2l-.5.5-.1.2-.1-.1.1-.3.2-.3c-.4-.1-.7 0-1 .2a4 4 0 0 0-.3.6l-.2.2c-.1 0 0 0 0 0 0-.3 0-.5.2-.7 0 0 .1 0 0-.2l-1 .3Zm.7-4.4c-.2.1-.2.1 0 .3a24.2 24.2 0 0 0 1 2c-.2 0-.2-.1-.3-.2l-.6-.9a7 7 0 0 0-.2-.3H6c0 1 .2 1.9.5 2.7 0 .2.1.2.3.2l.6-.1c.7 0 1.5 0 2.2.2h.2V33l-.5-1.6a5.9 5.9 0 0 0-2-2.8c-.4.1-.8.4-1.1.7Zm.7-1.7.2.2 1.3.7a24.7 24.7 0 0 1 5.2 3.2l1.7 1.4 1.2.8c.8.2 1.7.3 2.5.3l1-.2h.5c0-.1.1 0 .2 0l-.4.2-.8.3h-.2c0 .2.2.2.3.2l1 .2.5.2v.1a4 4 0 0 1-2-.4l-.3-.1a1 1 0 0 0-.5-.2c-.6 0-1.2-.1-1.8-.4h-.1v.1c.6.6 1.2 1 2 1.4a6 6 0 0 0 1.9.4 4 4 0 0 0 1.9-.4L24 35 24 35a4.9 4.9 0 0 1-2-2.2 12.7 12.7 0 0 1-1.2-4.9v-1c0-.5 0-1-.2-1.5 0-.2-.2-.4-.4-.5l-1-.7h-.4s-.2-.2-.4 0l.3.2.9 1.1c.4.7.7 1.5.8 2.3v2a67.1 67.1 0 0 0-.3 3l-.3-.2c-.7-.3-1.3-.7-1.8-1.1h-.1c0 .1 0 0-.1 0l-.8-.6-.3-.2v.7l-.2.4.9.6.3.2c.1 0 .2 0 .1.1H17.5l-1.4-.7a16.8 16.8 0 0 1-1.7-1.3 5 5 0 0 1-1-.9l-.5-.3c-.7-.5-1.4-.9-2.3-1l-1.3-.2-2.1-.5H7Zm.4-.9-.2.4.2.1 5 1c-.3-.7-.4-1.4-.3-2.2 0-.5 0-.4-.5-.3l-1.8.4-.1.2c0 .4 0 .7.3 1v.2l-.1.1-2-.8-.3-.1h-.2Zm.8-1.3a18.7 18.7 0 0 0-.3.7h.7l-.4-.7Zm.2-.4c-.1.1-.1.3 0 .4l.4.5c0 .1 0 .2.2.1V26l-.5-1.1v.2Zm.2-2.5v-.3.3l-.2.3.2-.3Zm-6-4c.2 0 .1 0 0 0v.1h.1l.5-.1c0 .2-.2.2-.3.2 0 0-.1 0 0 .1 0 .1 0 .1.1 0h.2c0 .2-.1.2-.2.2-.1.1-.1.1 0 .2.1.3.1.4.5.2h.2-.1c-.2.1-.1.3-.2.4l.2.1h.2c0 .2-.2.1-.2.3h.3l-.2.1v.1c0 .2.1.2.2.2H4l-.2.1v.1l.1.2-.1.3c0 .1 0 .2.2.2h.3-.1s-.1.1 0 .1L4 22s-.1.1 0 .2v.1h.3v.1l.1.1.3-.1.2-.1-.3.2-.3.3h.5s-.2 0-.2.2h.7c0-.1 0 0 .1 0l-.2.1c0 .1.2 0 .2 0l-.2.2v.1l.1.1h.3l.2-.2-.1.2c-.1 0 0 0 0 .1v.1h.8l-.4.3.4-.1h.2l-.3.2.1.1h.2l.5-.3.3-.2-.2.3-.3.2h.2c.3-.1.6-.3.7-.7a6.9 6.9 0 0 0 .5-1.2l-.2.2-.2.2c0-.1.1-.2 0-.4V22l-.4.7.1-.4v-.6c-.2.3-.2.6-.5.8 0-.3.2-.6 0-.9l-.1.3c-.1 0 0 0 0-.1s0-.2-.2-.3c-.1 0 0 .2-.2.2v-.5c.1 0 .1-.1 0-.2v.1h-.1V20.7l-.2.2-.1.2v-.2l.1-.5-.2.1H6v.3a8 8 0 0 1-.4.5l-.3.3v-.2l.6-1V20l-.5.4v-.1l.5-.7c.1 0 .1-.1 0-.2v-.1s-.1-.1-.2 0l-.4.1.1-.3h-.1l-.1.1.2-.4h-.1v-.2H5l-.1.2-.3.2v-.1l.5-.6-.1-.3h-.1c0-.1 0-.1 0 0l-.4.1-.2.1.4-.4c.1-.1 0-.1 0-.1l-.2.1.1-.3h-.1V17h-.1V17c0-.3 0-.3-.2-.2v-.3c.1-.1 0-.2 0-.2v-.1c.2-.3.1-.7 0-1V15H4l-.2.3-.4.9a9 9 0 0 1-.9 1.3l-.2.7s.2.1.1.2Zm-1-2.8v.4c0 .1 0 0-.1 0-.2 0-.3 0-.3.2v.1l.2.3H1l-.2.3V17.4c-.2.2-.1.2 0 .3H1l-.1.1c-.3 0-.3 0-.3.3v.1l.2.2h.4c.1-.2.3-.2.4-.3.1 0 .2 0 .3-.2h.2v-.1h-.4l-.1-.1.4-.1.5-.2.2-.2V17s0-.2.2-.2h-.1c-.1-.1-.1-.1 0-.1l.2-.1.1-.1-.2-.1.2-.1.1-.1.1-.1V16l-.1-.1h.2V15.6c.1 0 0 0 0 0h-.2v-.1h.4c0-.2-.2 0-.2-.2h.3V15l-.1-.1H4l.1-.1v-.1s.2 0 0-.1l-.1-.1c0-.1.1 0 .2 0l.2-.1v-.2H4L4 14h.3l.1.1h.2V14h-.2c.1-.2.2 0 .3-.1v-.2c.2 0 .3 0 .2-.2l.1-.1-.4-.2h.5c.1 0 .2 0 .3-.2.2-.1 0-.2 0-.2.3 0 .4-.2.5-.5.1 0 0-.1 0-.1l-.2-.2h.6c.1-.2.3-.2.2-.4.1 0 0 0 0-.1v-.1c0-.1 0 0 .1 0l.4-.1.2-.2-.2-.2h.4l.3-.1c.1 0 .1 0 0-.2.1-.1.2 0 .2 0 .2 0 .3 0 .4-.2v-.2h-.1l.1-.1h.3s.1.1.2 0V10c-.1 0-.1 0 0 0 .2 0 .4 0 .5-.2l.5-.6-1 .4s-.2 0 0 .2h-.5l-.6.3-.6.2c-.1 0-.1 0 0 .2a2 2 0 0 0-1 .3c0 .2.1.1.2.2-.4 0-.7 0-1 .4h.5c0 .1-.2 0-.2 0l-.2.1c-.2 0-.3.2-.4.3v.1h-.1c0 .2.1.1.2.2h-.3l-.2.4h.5-.3l-.2.2-.3.1c-.3 0-.5.2-.6.4l-.2.2c.2 0 .2.1.1.2l.2.1h-.4L3 14v.4H3c0 .1.2 0 .3.2H3a50.4 50.4 0 0 0-1.4 1.2Zm-.5-1.2c0 .2.1.3.3.2l.2-.2v-.2l.2-.1.2-.5v-.1c.2-.1.2-.3.2-.4l.5-1.7v-.1.1a89.6 89.6 0 0 1 0 1.2c0-.2.2-.4.3-.5V12s-.1 0 0 0V12h.1c0-.3.2-.3.3-.5l.2-.4v-.2h-.1c0-.1.1 0 .2 0l.1-.1v-.1l-.5-.2H4c0-.1 0-.2-.2-.3-.1 0-.2 0-.2-.2l.6.3h.3c.1-.2.2-.3.4-.3l.2-.4-.6-.3H5l.1.1c.1 0 0 0 0 0l.2-.1c.1-.1 0-.1 0-.2L5 9l-.2-.2a36.6 36.6 0 0 1 .7 0h-.1c-.2 0-.2-.2-.2-.4.2 0 .3.2.5.1l.2-.1.1-.2-.3-.3h.5c0-.1-.2-.2-.1-.3.3.1.3 0 .4-.2v-.3l-.2-.3.2.1h.3c.1 0 .2 0 .2-.2v-.1l-.2-.4.2.2.2.2c.3-.3.3-.3.1-.6L7 5.7h.1l.3.3s0 .1.1 0c.2 0 .3 0 .2-.2v-.2s-.1-.1 0-.2v.1l.2.2.2-.1c.2-.1.3-.3.2-.5 0 0 .1.1.2 0V5l-.2-.5-.1-.2.3.3c0 .1 0 .2.2.3.1-.2 0-.3 0-.4L8.4 4c0-.1 0 0 .1 0l.2.2.3.3.1-.3V4c.2 0 .1-.2.2-.1.2-.1.2-.2.1-.4v-.3c.1 0 0 .2.2.2l.2-.3c0-.1.1-.1 0-.2l-.1-.3v-.1h.1c0 .2.1.2.2.3h.1v-.3h.2c.1.1.2 0 .2 0v-.2c.3.1.3-.2.4-.3l.2-.3.6-.9V.7H11V1s.1 0 0 0H11l-.1.1c-.2.1-.1.2 0 .2v.1h-.2l-.1.1.3.2v.1h-.4v.1h-.1l-.2-.2h-.4v.1l.2.1c0 .1-.1 0-.1 0H9.2c-.3.3-.3.3 0 .5v.2h-.1l-.3-.2c-.1 0-.1 0 0 0v.2h-.2v.1l.4.5-.4-.3c-.2-.2-.2-.1-.3 0-.1.1-.1.2 0 .2l.1.2h-.3c0-.1 0-.1-.1 0h-.1c-.1.2-.1.2 0 .4 0 .1 0 0-.1 0l-.3.1V4h-.1l.2.4.1.2h-.1l-.3-.3H7v.4c.1 0 .2 0 .1.2L7 4.6c-.1 0-.1 0 0 0V5l.2.3H7C7 5 7 5 6.8 4.8h-.2c-.3.4-.3.3 0 .6v.1l-.3-.1h-.1s-.1.2 0 .2v.4c.2 0 .2.2.3.3-.2 0-.2-.2-.3-.3-.3-.2-.3-.2-.4 0l-.4.7v.1l.1.2h-.2C5.1 7 5 7 5 7.3c-.2 0-.2 0 0 .2v.2l-.3-.2-.4.1V8l-.2-.1h-.3l.3.3h-.7s.2 0 .2.2h-.5l.7.6c0 .1 0 0-.1 0l-.6-.3h-.4V9h-.1v.1l.3.3.1.1H3l-.4-.2h-.1V9.6h-.1v.2c.1 0 .2 0 .2.2l-.3-.1H2v.3H2v.2c.2 0 .3.1.3.2H2c-.2-.2-.2-.2-.3 0v.2l.2.1s-.1.1 0 .2v.1h-.3c-.1-.1-.2-.1-.2 0s-.1.3 0 .4l.1.2.1.1.4.3c-.3 0-.5-.2-.7-.3-.1.2 0 .4.1.5l.2.1c0 .1 0 0-.1 0h-.2c-.1.2 0 .4.1.6l.2.1h-.3c0 .2.1.2.2.3h-.2l-.1.1v.1c.1.1.1.2 0 .2v.2s.1.1 0 .2H1v.3Zm0 0"/></g><path fill="#c39d35" d="M4.2 69.2ZM14.9 55.8ZM12.6 69.3ZM.6 6.6l-.6-1v-.4l.1.2.6 1.1c.1.2.2.2.4.2 0-.2-.2-.3-.3-.4l-.2-.4A4.4 4.4 0 0 1 .2 5h.2l-.2-.4-.1-.5.3.5v-.3l-.2-.7v-.3l.3.8h.1l.1-.1v-.2a8 8 0 0 1-.5-1.1h.1l.3.5c0-.3-.2-.6-.1-1v.2l.2.5.1.2v-.6L1.3 1V0l.1.4h.1V0h.8v.6L2.1.4s0-.1-.1 0c-.1 0 0 0 0 0V1c0 .1 0 .3.2.5v.1H2c0-.1 0-.2-.1-.1h-.1c-.2 0-.2-.3-.3-.5-.2.2 0 .4 0 .7h-.2v-.1c0 .2 0 .3.2.5l.1.2c-.2 0-.3-.3-.5-.4 0 .3 0 .6-.2 1V3l.3.4v.2-.1H1v.1l.1.5H.9l.2.5s.1.1 0 .2l-.3-.4H.6l.1.3V5H.7c0 .2.2.4.3.5v.2l-.2-.2v.3l.4.4c.4.4.5 1 .6 1.5v.2l-.1-.3a35 35 0 0 0-.5-.7H.6c-.2.1-.2.3-.2.4 0 .1.2.2.1.3l-.2-.2-.3-.1v-.5l.2.1-.2-.4v-.2l.4.4.1.1h.1v-.1ZM.6 38.1c0 .1.2.2 0 .3v.1c.3.4.5.8 1 .8l.1.1-.3.1v.1c.2.5.6.9 1 1.1l.3.2h-.4c.3.5.5.9 1 1.2V42.4l.2.4s.1.1 0 .2l-.3-.4-.1.2-.3-.6a4.3 4.3 0 0 0-.7-1v.6L2 42h-.1v-.6c0-.5-.1-1-.5-1.5l-.4-.5-.1-.2H.7v.3l-.1.4-.1-.2v-.4c0-.4-.1-.7-.3-1L0 38v-.4l.6.5ZM.4 53.1l.1.2c.3.3.3.9 0 1.1V53.5l-.2-.2a2 2 0 0 1-.3-.4v-.5.2l.4.5ZM10.4.5V.2l-.2-.1h.6l-.4.4ZM.5 0c0 .4.2.7.1 1a8 8 0 0 1-.3-1ZM0 22.2v-.1l1-.2c-.2.2-.6.3-1 .3ZM0 25.4v-.1l1-.3-1 .4ZM.6 30c-.2.3-.3.5-.6.6v-.2l.3-.2.3-.2ZM0 70.6v-.2c.2 0 .4-.2.6-.4l-.6.6ZM15 .2l-.2.1V0h.4l-.1.2ZM.7 23.8c-.2.2-.5.2-.7.3v-.2l.5-.1h.2ZM.4 54.5l-.4.4v-.2l.2-.2h.2ZM9 .5V0v.5ZM.3 8 0 7.8v-.1c.3.1.3.1.3.3ZM14.5 0v.4V0Zm0 0"/><path fill="#c39d35" d="M2.5.3a.6.6 0 0 1-.3-.3h.5l.2.7-.4-.6v.2ZM68.5 0h.6-.6ZM.3 76.2c-.1 0-.1.2-.3.2v-.1c.1 0 .1-.2.3-.1ZM18.4 0h.2l-.2.4V0ZM8.3 0v.3V0ZM.3 55.4H0v-.2c.1 0 .2 0 .3.2ZM0 62.7v-.4c.1.2.1.3 0 .4ZM13 68.5l-.1-.3h-.2l.1-.2.2.5ZM34.7 13.3V13l.2.3-.2-.1ZM1.6 66.4l-.5.5.5-.5ZM4.3 70.4l.2-.4c0 .3 0 .3-.2.4ZM2 66.3c0-.1 0-.2.2-.3l-.2.3ZM2.1 67.3l-.3.3c0-.2.1-.3.3-.4l.3-.3ZM2.9 68.2c0-.1 0-.3.2-.3 0 .1 0 .2-.2.3ZM1.6 67.8l.2-.2c0 .1 0 .2-.2.2ZM4.2 69.2ZM4.2 69.2c0 .1 0 .2-.2.3 0-.1 0-.2.2-.3ZM4.4 65.4l.3-.3-.3.3ZM.9 58.3l.3.2c-.2 0-.3 0-.3-.2ZM39.7.3l.2-.2h.1l-.3.2ZM35.3.7l-.2.1.2-.1ZM.3 44.5a12.8 12.8 0 0 1 .4.5H.6a34.5 34.5 0 0 1-.3-.5ZM1.6 44.1l-.3-.2c.2 0 .2 0 .3.2ZM1.3 44l.3.5-.4-.4L1 44c.1 0 .3 0 .4.2ZM9.7 85.8l.2.1a23.3 23.3 0 0 1 1.1 2h-.1a496.9 496.9 0 0 1-1.2-2ZM10.9 89.5c.3.3.5.7.6 1-.2-.2-.5-.6-.6-1ZM5.7 18.4l.1-.6-.1.6ZM6 18.3l.1-.4-.1.4ZM10.2 70l.1.4-.1-.4ZM10.3 70.4ZM12.6 69.3ZM12.6 69.7v-.4.4ZM9.4 63.5ZM9.4 63.5l-.7-.3c.3 0 .5.1.7.3ZM9.9 63.6l-.5-.1.5.1ZM9 63.8H9 9ZM6.1 58.2c-.1 0-.2 0-.3-.2.1 0 .2 0 .3.2ZM8.4 60v-.3.3ZM8.4 59.7ZM37 2.4l-.1.3c0-.2 0-.2.2-.3ZM15 65.6c-.1 0-.2-.1-.2-.3l.2.3ZM11 65.6a.5.5 0 0 1-.3-.2l.2.2ZM23.6 10.2s0-.1.1 0h-.1ZM23.6 7.6l-.5-.1ZM33 14c.2 0 .2 0 .3.2L33 14ZM3 62.1l-.1.1h-.2.3ZM2.7 62.2ZM8.3 50.1l-.1.5V50ZM59.2 5.2l-.1-.2c.3 0 .6.3.9.5l.2.5v.1H60l-.9-1ZM2.5 46.8l-.5-.5.5.5ZM14.9 55.8ZM14.9 55.8h.2-.2ZM14.6 53.7l-.2.1.2-.1ZM32.6 6h-.4.4ZM5 47a1 1 0 0 1-.2-.5c.1.2.2.4.1.5ZM12 14.4ZM11.9 14.7v-.3c.2 0 .1.2 0 .3Zm0 0"/></svg>