<svg xmlns="http://www.w3.org/2000/svg" xmlns:xlink="http://www.w3.org/1999/xlink" width="400" zoomAndPan="magnify" viewBox="0 0 300 74.999997" height="100" preserveAspectRatio="xMidYMid meet" version="1.0"><path fill="#c39d35" d="M 182.292969 17.664062 C 186.753906 17.367188 193.890625 20.902344 191.390625 26.339844 C 188.980469 31.585938 181.308594 27.296875 185.414062 22.742188 C 180.835938 25.128906 183.371094 31.355469 188.195312 31.035156 C 197.382812 30.429688 196.007812 14.210938 182.125 15.125 C 178.851562 15.339844 175.753906 16.65625 172.738281 18.160156 C 172.800781 18.023438 172.859375 17.890625 172.914062 17.753906 C 174.777344 13.359375 171.0625 9.316406 166.386719 11.339844 C 169.3125 10.96875 170.882812 12.304688 171.308594 14.054688 C 172.828125 20.292969 161.59375 22.925781 157.988281 21.117188 C 161.078125 25.433594 167.605469 23.171875 169.933594 21.738281 C 173.574219 20.214844 177.296875 17.992188 182.292969 17.664062 Z M 36.757812 11.789062 C 36.757812 11.789062 74.390625 13.042969 79.222656 13.1875 C 84.058594 13.332031 85.125 12.511719 86.664062 11.789062 C 85.125 11.066406 84.058594 10.246094 79.222656 10.390625 C 74.390625 10.535156 36.757812 11.789062 36.757812 11.789062 Z M 263.242188 11.789062 C 263.242188 11.789062 225.609375 13.042969 220.777344 13.1875 C 215.941406 13.332031 214.875 12.511719 213.335938 11.789062 C 214.875 11.066406 215.941406 10.246094 220.777344 10.390625 C 225.609375 10.535156 263.242188 11.789062 263.242188 11.789062 Z M 159.257812 5.621094 L 280.847656 5.621094 C 281.183594 4.769531 282.050781 4.171875 282.976562 4.171875 C 283.902344 4.171875 284.625 4.671875 285.007812 5.402344 C 286.992188 4.691406 288.847656 3.46875 289.660156 1.683594 C 291.191406 4.957031 294.550781 5.503906 299.945312 6.460938 C 294.550781 7.417969 291.191406 7.964844 289.660156 11.238281 C 288.847656 9.457031 286.992188 8.234375 285.007812 7.523438 C 284.625 8.253906 283.902344 8.753906 282.976562 8.753906 C 282.050781 8.753906 281.183594 8.152344 280.847656 7.304688 L 159.207031 7.304688 C 159.082031 8.0625 158.820312 8.789062 158.429688 9.4375 C 159.960938 9.777344 161.332031 10.722656 162.117188 12.3125 C 163.421875 14.957031 162.289062 18.613281 158.246094 18.4375 C 160.71875 17.367188 161.226562 15.296875 160.574219 13.691406 C 159.367188 10.730469 155.730469 10.953125 153.949219 13.183594 C 151.519531 16.230469 152.335938 20.015625 154.671875 22.460938 C 156.71875 24.605469 159.945312 25.613281 163.074219 25.632812 C 170.144531 25.671875 175.496094 18.828125 184.1875 20.042969 C 175.925781 20.921875 170.019531 27.8125 162.839844 27.8125 C 158.574219 27.808594 154.847656 26.476562 152.542969 23.910156 C 151.242188 22.460938 150.363281 20.71875 150 18.929688 C 149.632812 20.71875 148.757812 22.460938 147.457031 23.910156 C 145.152344 26.476562 141.421875 27.808594 137.160156 27.8125 C 129.976562 27.8125 124.074219 20.921875 115.8125 20.042969 C 124.5 18.828125 129.855469 25.671875 136.925781 25.632812 C 140.054688 25.613281 143.277344 24.605469 145.328125 22.460938 C 147.660156 20.015625 148.480469 16.230469 146.046875 13.183594 C 144.269531 10.953125 140.632812 10.730469 139.425781 13.691406 C 138.773438 15.296875 139.277344 17.367188 141.753906 18.4375 C 137.707031 18.613281 136.574219 14.957031 137.878906 12.3125 C 138.667969 10.722656 140.035156 9.777344 141.566406 9.4375 C 141.175781 8.789062 140.914062 8.0625 140.789062 7.304688 L 19.152344 7.304688 C 18.816406 8.152344 17.945312 8.753906 17.019531 8.753906 C 16.097656 8.753906 15.371094 8.253906 14.992188 7.523438 C 13.007812 8.234375 11.148438 9.457031 10.335938 11.238281 C 8.804688 7.964844 5.449219 7.417969 0.0546875 6.460938 C 5.449219 5.503906 8.804688 4.957031 10.335938 1.683594 C 11.148438 3.46875 13.007812 4.691406 14.992188 5.402344 C 15.371094 4.671875 16.097656 4.171875 17.019531 4.171875 C 17.945312 4.171875 18.816406 4.769531 19.152344 5.621094 L 140.738281 5.621094 C 140.894531 4.109375 141.601562 2.636719 142.917969 1.597656 C 144.753906 0.144531 147.421875 0 149.234375 2.164062 C 149.640625 2.648438 149.886719 3.167969 150 3.679688 C 150.113281 3.167969 150.359375 2.648438 150.765625 2.164062 C 152.574219 0 155.246094 0.144531 157.082031 1.597656 C 158.394531 2.636719 159.101562 4.109375 159.257812 5.621094 Z M 168.878906 37.683594 C 169.589844 36.792969 170.027344 35.726562 170.082031 34.5 C 170.160156 32.554688 169.199219 31.125 167.949219 30.320312 C 164.933594 28.382812 161.539062 31 163.171875 34.3125 C 163.492188 30.351562 168.9375 31.65625 168.003906 34.894531 C 167.367188 37.113281 165.222656 37.695312 163.148438 38.125 C 162.527344 38.226562 161.894531 38.359375 161.253906 38.53125 L 161.210938 38.539062 C 156.636719 39.777344 151.871094 42.988281 150.597656 50.742188 C 156.042969 38.25 173.3125 39.375 169.613281 45.417969 C 172.183594 44.796875 172.332031 42.222656 170.628906 40.316406 C 173.476562 40.0625 177.308594 38.867188 179.320312 36.777344 C 182.722656 33.238281 182.535156 27.382812 178.179688 25.023438 C 172.9375 22.179688 167.113281 29.183594 172.902344 32.097656 C 170.136719 28.476562 174.277344 24.964844 177.199219 26.894531 C 179.871094 28.65625 179.34375 32.28125 176.691406 34.804688 C 174.566406 36.828125 171.738281 37.4375 168.878906 37.683594 Z M 150.441406 40.945312 C 154.722656 40.539062 158.203125 37.683594 159.273438 34.730469 C 160.015625 32.671875 159.792969 30.625 158.65625 29.324219 C 155.027344 25.164062 148.675781 30.515625 153.546875 33.9375 C 150.570312 28.796875 159.5 27.636719 157.257812 34.394531 C 156.382812 37.035156 153.53125 39.851562 150.441406 40.945312 Z M 131.121094 37.683594 C 130.410156 36.792969 129.96875 35.726562 129.917969 34.5 C 129.839844 32.554688 130.800781 31.125 132.050781 30.320312 C 135.066406 28.382812 138.460938 31 136.828125 34.3125 C 136.507812 30.351562 131.0625 31.65625 131.996094 34.894531 C 132.632812 37.113281 134.777344 37.695312 136.851562 38.125 C 137.472656 38.226562 138.105469 38.359375 138.746094 38.53125 L 138.785156 38.539062 C 143.363281 39.777344 148.128906 42.992188 149.402344 50.742188 C 143.957031 38.25 126.6875 39.375 130.386719 45.417969 C 127.816406 44.796875 127.667969 42.222656 129.371094 40.316406 C 126.523438 40.0625 122.691406 38.867188 120.679688 36.777344 C 117.277344 33.238281 117.464844 27.382812 121.820312 25.023438 C 127.0625 22.179688 132.886719 29.183594 127.097656 32.097656 C 129.863281 28.476562 125.722656 24.964844 122.800781 26.894531 C 120.128906 28.65625 120.65625 32.28125 123.308594 34.804688 C 125.429688 36.828125 128.261719 37.4375 131.121094 37.683594 Z M 149.558594 40.945312 C 145.277344 40.539062 141.796875 37.683594 140.726562 34.730469 C 139.984375 32.671875 140.207031 30.625 141.34375 29.324219 C 144.972656 25.164062 151.324219 30.515625 146.453125 33.9375 C 149.429688 28.796875 140.5 27.636719 142.738281 34.394531 C 143.613281 37.035156 146.46875 39.851562 149.558594 40.945312 Z M 150 5 C 150.265625 6.203125 151.257812 7.175781 152.59375 7.328125 C 151.675781 6.570312 151.296875 5.464844 151.441406 4.632812 C 151.722656 3.054688 153.320312 2.226562 154.785156 2.46875 C 157.085938 2.851562 157.976562 5.734375 156.933594 7.636719 C 156.484375 8.457031 155.722656 9.152344 154.78125 9.71875 C 154.335938 9.882812 153.902344 10.097656 153.496094 10.359375 C 152.9375 10.71875 152.445312 11.117188 152.019531 11.550781 C 151.179688 12.3125 150.519531 13.238281 150.257812 14.363281 C 150.152344 14.664062 150.066406 14.96875 150 15.277344 C 149.929688 14.96875 149.84375 14.664062 149.738281 14.363281 C 149.480469 13.242188 148.820312 12.316406 147.980469 11.550781 C 147.554688 11.121094 147.0625 10.71875 146.503906 10.359375 C 146.097656 10.097656 145.664062 9.882812 145.21875 9.71875 C 144.277344 9.152344 143.515625 8.457031 143.066406 7.636719 C 142.023438 5.734375 142.914062 2.851562 145.214844 2.46875 C 146.675781 2.226562 148.277344 3.054688 148.554688 4.632812 C 148.703125 5.464844 148.324219 6.570312 147.40625 7.328125 C 148.742188 7.175781 149.730469 6.203125 150 5 Z M 92.765625 12.679688 C 94.554688 10.328125 99.058594 10.457031 99.125 14.90625 C 101.066406 9.457031 93.898438 7.464844 90.84375 12.03125 C 89.488281 14.058594 89.425781 16.851562 90.90625 19.089844 C 92.753906 21.882812 96.382812 22.65625 99.804688 21.171875 C 99.160156 22.953125 99.117188 25.609375 101.953125 26.929688 C 100.097656 24.152344 101.765625 21.203125 103.652344 19.003906 C 108.871094 12.929688 116.9375 10.707031 124.328125 14.464844 C 117.851562 8.523438 108.273438 10.527344 101.921875 16.457031 C 100.882812 17.425781 99.808594 18.359375 98.796875 18.832031 C 94.019531 21.0625 90.164062 16.109375 92.765625 12.679688 Z M 142.007812 21.117188 C 138.402344 22.925781 127.171875 20.292969 128.6875 14.054688 C 129.113281 12.304688 130.683594 10.96875 133.613281 11.339844 C 128.9375 9.316406 125.222656 13.359375 127.082031 17.753906 C 127.140625 17.890625 127.199219 18.023438 127.257812 18.160156 C 124.246094 16.65625 121.148438 15.339844 117.871094 15.125 C 103.992188 14.210938 102.617188 30.429688 111.800781 31.035156 C 116.628906 31.355469 119.160156 25.128906 114.585938 22.742188 C 118.691406 27.296875 111.015625 31.585938 108.609375 26.339844 C 106.109375 20.902344 113.246094 17.367188 117.707031 17.664062 C 122.699219 17.992188 126.421875 20.214844 130.0625 21.738281 C 132.394531 23.171875 138.921875 25.433594 142.007812 21.117188 Z M 207.230469 12.679688 C 205.445312 10.328125 200.9375 10.457031 200.875 14.90625 C 198.933594 9.457031 206.101562 7.464844 209.15625 12.03125 C 210.511719 14.058594 210.574219 16.851562 209.09375 19.089844 C 207.246094 21.882812 203.617188 22.65625 200.195312 21.171875 C 200.839844 22.953125 200.882812 25.609375 198.046875 26.929688 C 199.902344 24.152344 198.234375 21.203125 196.34375 19.003906 C 191.128906 12.929688 183.0625 10.707031 175.671875 14.464844 C 182.148438 8.523438 191.726562 10.527344 198.074219 16.457031 C 199.117188 17.425781 200.191406 18.359375 201.203125 18.832031 C 205.980469 21.0625 209.835938 16.109375 207.230469 12.679688 Z M 207.230469 12.679688 " fill-opacity="1" fill-rule="evenodd"/></svg>