<svg xmlns="http://www.w3.org/2000/svg" xmlns:xlink="http://www.w3.org/1999/xlink" width="426" zoomAndPan="magnify" viewBox="0 0 319.5 179.999997" height="240" preserveAspectRatio="xMidYMid meet" version="1.0"><defs><clipPath id="5b4536bec7"><path d="M 39.757812 92 L 66 92 L 66 104 L 39.757812 104 Z M 39.757812 92 " clip-rule="nonzero"/></clipPath><clipPath id="baef0a8e8a"><path d="M 117 0.140625 L 130 0.140625 L 130 22 L 117 22 Z M 117 0.140625 " clip-rule="nonzero"/></clipPath><clipPath id="a69586e54b"><path d="M 120 0.140625 L 130 0.140625 L 130 22 L 120 22 Z M 120 0.140625 " clip-rule="nonzero"/></clipPath><clipPath id="1c18bbbda0"><path d="M 119 0.140625 L 130 0.140625 L 130 22 L 119 22 Z M 119 0.140625 " clip-rule="nonzero"/></clipPath><clipPath id="f81cb46bfe"><path d="M 39.757812 94 L 66 94 L 66 102 L 39.757812 102 Z M 39.757812 94 " clip-rule="nonzero"/></clipPath><clipPath id="b205bc7ae8"><path d="M 200 177 L 203 177 L 203 179.855469 L 200 179.855469 Z M 200 177 " clip-rule="nonzero"/></clipPath><clipPath id="f697f8c962"><path d="M 276 112 L 279.382812 112 L 279.382812 115 L 276 115 Z M 276 112 " clip-rule="nonzero"/></clipPath></defs><path fill="#eebb2d" d="M 268.367188 42.105469 L 268.367188 142.5625 L 80.035156 142.5625 L 80.035156 42.097656 L 268.367188 42.097656 Z M 266.722656 140.925781 L 266.722656 43.75 L 81.679688 43.75 L 81.679688 140.917969 L 266.722656 140.917969 Z M 266.722656 140.925781 " fill-opacity="1" fill-rule="nonzero"/><path fill="#eebb2d" d="M 87.472656 146.457031 L 218.3125 146.457031 C 218.570312 146.269531 218.820312 146.082031 219.082031 145.90625 L 88.023438 145.90625 L 88.023438 47.636719 L 126.195312 47.636719 C 126.398438 47.449219 126.601562 47.269531 126.808594 47.085938 L 87.472656 47.085938 Z M 87.472656 146.457031 " fill-opacity="1" fill-rule="nonzero"/><path fill="#eebb2d" d="M 131.433594 47.628906 C 131.433594 47.628906 131.433594 47.628906 131.433594 47.636719 L 274.15625 47.636719 L 274.15625 145.90625 L 226.960938 145.90625 C 226.757812 146.105469 226.550781 146.285156 226.324219 146.457031 L 274.703125 146.457031 L 274.703125 47.085938 L 131.6875 47.085938 L 131.601562 47.269531 C 131.5625 47.394531 131.511719 47.507812 131.433594 47.628906 Z M 131.433594 47.628906 " fill-opacity="1" fill-rule="nonzero"/><path fill="#eebb2d" d="M 77.015625 35.636719 C 76.835938 35.578125 76.648438 35.515625 76.46875 35.449219 L 76.46875 56.519531 C 76.644531 56.328125 76.828125 56.144531 77.015625 55.96875 Z M 77.015625 35.636719 " fill-opacity="1" fill-rule="nonzero"/><path fill="#eebb2d" d="M 236.84375 131.738281 L 77.015625 131.738281 L 77.015625 62.941406 C 76.964844 63.03125 76.917969 63.125 76.867188 63.214844 C 76.734375 63.527344 76.597656 63.839844 76.46875 64.152344 L 76.46875 132.292969 L 237.601562 132.292969 C 237.347656 132.109375 237.089844 131.929688 236.84375 131.742188 Z M 236.84375 131.738281 " fill-opacity="1" fill-rule="nonzero"/><path fill="#eebb2d" d="M 95.316406 33.410156 C 95.316406 33.410156 95.328125 33.410156 95.328125 33.417969 C 95.328125 33.417969 95.371094 33.449219 95.394531 33.464844 L 263.148438 33.464844 L 263.148438 131.738281 L 247.175781 131.738281 C 247.351562 131.917969 247.527344 132.097656 247.703125 132.285156 L 263.699219 132.285156 L 263.699219 32.921875 L 94.648438 32.921875 C 94.875 33.082031 95.097656 33.242188 95.316406 33.410156 Z M 95.316406 33.410156 " fill-opacity="1" fill-rule="nonzero"/><path fill="#eebb2d" d="M 135.507812 42.722656 L 135.507812 43.152344 C 135.507812 43.222656 135.539062 43.292969 135.589844 43.34375 C 135.640625 43.394531 135.714844 43.425781 135.78125 43.425781 C 135.847656 43.425781 135.925781 43.398438 135.972656 43.34375 C 136.023438 43.289062 136.054688 43.222656 136.054688 43.152344 L 136.054688 42.722656 C 136.054688 42.652344 136.023438 42.582031 135.972656 42.53125 C 135.925781 42.484375 135.847656 42.449219 135.78125 42.449219 C 135.714844 42.449219 135.640625 42.476562 135.589844 42.53125 C 135.539062 42.585938 135.507812 42.652344 135.507812 42.722656 Z M 135.507812 42.722656 " fill-opacity="1" fill-rule="nonzero"/><path fill="#eebb2d" d="M 235.730469 141.148438 C 228.855469 142.972656 223.671875 148.171875 219.265625 153.484375 C 214.859375 158.792969 210.640625 164.972656 204.835938 169.253906 C 201.6875 171.578125 198.066406 173.285156 194.136719 173.671875 L 194.402344 174.015625 C 195.480469 170.671875 196.976562 167.464844 198.820312 164.472656 C 200.660156 161.480469 202.847656 158.699219 205.304688 156.191406 C 207.757812 153.679688 210.5 151.425781 213.441406 149.496094 C 216.386719 147.566406 219.535156 145.957031 222.820312 144.722656 C 226.109375 143.488281 229.542969 142.628906 233.023438 142.207031 C 233.449219 142.15625 233.878906 142.109375 234.304688 142.070312 C 234.65625 142.039062 234.65625 141.488281 234.304688 141.523438 C 230.757812 141.84375 227.257812 142.601562 223.886719 143.757812 C 220.515625 144.914062 217.28125 146.457031 214.25 148.324219 C 211.21875 150.195312 208.382812 152.402344 205.824219 154.886719 C 203.265625 157.367188 201 160.097656 199.054688 163.0625 C 197.109375 166.03125 195.492188 169.242188 194.296875 172.597656 C 194.148438 173.019531 194 173.441406 193.863281 173.867188 C 193.8125 174.027344 193.953125 174.230469 194.125 174.214844 C 197.578125 173.875 200.824219 172.570312 203.71875 170.683594 C 206.613281 168.796875 209.316406 166.242188 211.695312 163.601562 C 214.074219 160.960938 216.261719 158.042969 218.519531 155.242188 C 220.777344 152.441406 223.085938 149.761719 225.753906 147.398438 C 228.425781 145.035156 231.308594 143.148438 234.613281 142.046875 C 235.03125 141.910156 235.445312 141.785156 235.867188 141.675781 C 236.207031 141.582031 236.066406 141.054688 235.71875 141.148438 Z M 235.730469 141.148438 " fill-opacity="1" fill-rule="nonzero"/><path fill="#c39d35" d="M 225.738281 141.746094 C 218.78125 140.089844 212 143.632812 205.453125 145.4375 C 198.71875 147.292969 191.683594 148.007812 184.710938 147.578125 C 180.773438 147.335938 176.867188 146.722656 173.039062 145.75 C 172.699219 145.660156 172.550781 146.191406 172.890625 146.273438 C 179.667969 148 186.722656 148.59375 193.6875 148.042969 C 197.121094 147.769531 200.535156 147.226562 203.878906 146.40625 C 207.222656 145.582031 210.625 144.3125 214.007812 143.292969 C 217.746094 142.164062 221.710938 141.347656 225.585938 142.265625 C 225.929688 142.351562 226.074219 141.816406 225.734375 141.742188 Z M 225.738281 141.746094 " fill-opacity="1" fill-rule="nonzero"/><path fill="#c39d35" d="M 179.308594 147.335938 C 176.488281 148.121094 173.378906 147.804688 170.769531 146.464844 C 168.160156 145.128906 166.09375 142.789062 165.082031 140.035156 C 170.371094 140.640625 175.402344 143.253906 178.9375 147.226562 C 178.707031 147.140625 178.476562 147.050781 178.246094 146.964844 " fill-opacity="1" fill-rule="nonzero"/><path fill="#c39d35" d="M 188.914062 147.816406 C 185.464844 148.542969 182.277344 150.296875 179.796875 152.808594 C 179.550781 153.058594 179.933594 153.449219 180.1875 153.199219 C 182.597656 150.753906 185.703125 149.058594 189.0625 148.347656 C 189.40625 148.273438 189.257812 147.742188 188.914062 147.820312 Z M 188.914062 147.816406 " fill-opacity="1" fill-rule="nonzero"/><path fill="#c39d35" d="M 183.785156 150.378906 C 184.011719 152.507812 182.277344 154.359375 180.402344 155.390625 C 178.527344 156.421875 176.382812 156.972656 174.691406 158.277344 C 175.222656 156.035156 175.992188 153.761719 177.5625 152.066406 C 179.128906 150.375 181.65625 149.394531 183.8125 150.222656 " fill-opacity="1" fill-rule="nonzero"/><path fill="#c39d35" d="M 205.324219 145.292969 C 201.75 144.25 198.324219 142.734375 195.140625 140.804688 C 191.957031 138.875 189.027344 136.535156 186.441406 133.851562 C 184.976562 132.335938 183.625 130.707031 182.402344 128.984375 C 182.199219 128.699219 181.722656 128.976562 181.929688 129.261719 C 184.125 132.351562 186.714844 135.140625 189.636719 137.554688 C 192.554688 139.964844 195.78125 142.003906 199.21875 143.589844 C 201.148438 144.476562 203.136719 145.222656 205.175781 145.8125 C 205.515625 145.914062 205.660156 145.386719 205.324219 145.289062 Z M 205.324219 145.292969 " fill-opacity="1" fill-rule="nonzero"/><path fill="#c39d35" d="M 196.496094 141.761719 C 194.71875 136.972656 193.648438 131.929688 193.347656 126.824219 C 193.261719 125.390625 193.238281 123.953125 193.273438 122.511719 C 193.277344 122.160156 192.730469 122.160156 192.722656 122.511719 C 192.601562 127.644531 193.238281 132.796875 194.613281 137.738281 C 195.003906 139.148438 195.457031 140.535156 195.964844 141.90625 C 196.082031 142.234375 196.617188 142.09375 196.488281 141.757812 Z M 196.496094 141.761719 " fill-opacity="1" fill-rule="nonzero"/><path fill="#c39d35" d="M 192.636719 139.0625 C 188.78125 136.933594 184.359375 135.914062 179.960938 136.160156 C 179.613281 136.183594 179.613281 136.730469 179.960938 136.710938 C 184.265625 136.46875 188.585938 137.449219 192.355469 139.539062 C 192.664062 139.707031 192.941406 139.234375 192.628906 139.066406 Z M 192.636719 139.0625 " fill-opacity="1" fill-rule="nonzero"/><path fill="#c39d35" d="M 183.574219 136.210938 C 183.707031 136.941406 183.269531 137.679688 182.660156 138.105469 C 182.050781 138.535156 181.304688 138.699219 180.578125 138.8125 C 177.351562 139.3125 174.003906 138.929688 170.980469 137.71875 C 172.574219 136.570312 174.351562 135.683594 176.21875 135.097656 C 177.519531 134.6875 178.886719 134.421875 180.242188 134.558594 C 181.597656 134.699219 182.945312 135.273438 183.816406 136.320312 " fill-opacity="1" fill-rule="nonzero"/><path fill="#c39d35" d="M 184.675781 132.625 C 179.355469 130.867188 175.339844 125.6875 174.96875 120.09375 C 180.265625 121.726562 184.289062 126.847656 184.628906 132.378906 " fill-opacity="1" fill-rule="nonzero"/><path fill="#c39d35" d="M 192.949219 128.914062 C 194.953125 127.679688 195.898438 125.183594 195.886719 122.824219 C 195.875 120.46875 195.070312 118.199219 194.269531 115.976562 C 192.296875 117.449219 190.980469 119.773438 190.734375 122.222656 C 190.488281 124.671875 191.308594 127.210938 192.949219 129.046875 " fill-opacity="1" fill-rule="nonzero"/><path fill="#c39d35" d="M 205.308594 145.671875 C 201.460938 147.226562 198.195312 150.101562 196.136719 153.707031 C 195.558594 154.726562 195.074219 155.804688 194.703125 156.917969 C 194.585938 157.253906 195.117188 157.394531 195.226562 157.066406 C 196.503906 153.285156 199.085938 149.984375 202.421875 147.796875 C 203.378906 147.171875 204.394531 146.636719 205.453125 146.203125 C 205.773438 146.070312 205.632812 145.539062 205.304688 145.675781 Z M 205.308594 145.671875 " fill-opacity="1" fill-rule="nonzero"/><path fill="#c39d35" d="M 196.46875 154.078125 C 197.019531 155.011719 196.675781 156.222656 196.128906 157.164062 C 195.578125 158.109375 194.84375 158.96875 194.597656 160.023438 C 194.253906 159.050781 193.90625 158.058594 193.875 157.035156 C 193.839844 156.007812 194.164062 154.917969 194.945312 154.246094 C 195.179688 154.046875 195.457031 153.882812 195.765625 153.859375 C 196.074219 153.839844 196.402344 153.976562 196.542969 154.25 " fill-opacity="1" fill-rule="nonzero"/><path fill="#c39d35" d="M 236.4375 141.226562 C 231.769531 140.449219 227.191406 139.148438 222.804688 137.367188 C 218.425781 135.585938 214.242188 133.320312 210.355469 130.628906 C 208.152344 129.105469 206.054688 127.441406 204.058594 125.652344 C 203.796875 125.417969 203.40625 125.804688 203.671875 126.042969 C 207.222656 129.234375 211.128906 132.027344 215.296875 134.359375 C 219.460938 136.6875 223.851562 138.550781 228.402344 139.921875 C 230.988281 140.699219 233.625 141.3125 236.289062 141.757812 C 236.636719 141.816406 236.785156 141.285156 236.4375 141.230469 Z M 236.4375 141.226562 " fill-opacity="1" fill-rule="nonzero"/><path fill="#c39d35" d="M 211.070312 131.398438 C 208.351562 131.492188 205.742188 132.460938 203.613281 134.15625 C 203.339844 134.375 203.730469 134.757812 204.003906 134.542969 C 206.011719 132.945312 208.511719 132.035156 211.070312 131.945312 C 211.421875 131.933594 211.421875 131.386719 211.070312 131.398438 Z M 211.070312 131.398438 " fill-opacity="1" fill-rule="nonzero"/><path fill="#c39d35" d="M 202.90625 136.113281 C 202.101562 136.199219 201.390625 135.234375 201.714844 134.488281 C 202.035156 133.742188 203.226562 133.601562 203.714844 134.253906 C 204.203125 134.90625 203.734375 136.007812 202.929688 136.113281 " fill-opacity="1" fill-rule="nonzero"/><path fill="#c39d35" d="M 202.289062 125.71875 C 201.539062 125.070312 201.773438 123.636719 202.699219 123.273438 C 203.625 122.914062 204.78125 123.785156 204.679688 124.777344 C 204.574219 125.769531 203.257812 126.382812 202.429688 125.828125 " fill-opacity="1" fill-rule="nonzero"/><path fill="#c39d35" d="M 220.601562 136.5625 C 216.492188 135.222656 211.871094 135.746094 208.152344 137.953125 C 207.851562 138.132812 208.125 138.605469 208.429688 138.425781 C 212.023438 136.28125 216.472656 135.789062 220.453125 137.085938 C 220.789062 137.195312 220.9375 136.664062 220.601562 136.5625 Z M 220.601562 136.5625 " fill-opacity="1" fill-rule="nonzero"/><path fill="#c39d35" d="M 207.417969 139.679688 C 206.734375 139.105469 206.953125 137.804688 207.792969 137.488281 C 208.628906 137.167969 209.65625 138.007812 209.511719 138.890625 C 209.371094 139.773438 208.144531 140.253906 207.441406 139.703125 " fill-opacity="1" fill-rule="nonzero"/><path fill="#c39d35" d="M 221.605469 137.078125 C 218.234375 133.628906 215.855469 129.28125 214.753906 124.589844 C 214.671875 124.246094 214.144531 124.390625 214.226562 124.738281 C 215.097656 128.453125 216.765625 131.980469 219.089844 135.003906 C 219.753906 135.863281 220.460938 136.6875 221.222656 137.464844 C 221.46875 137.71875 221.855469 137.328125 221.609375 137.078125 Z M 221.605469 137.078125 " fill-opacity="1" fill-rule="nonzero"/><path fill="#c39d35" d="M 213.839844 124.492188 C 213.027344 124.117188 212.910156 122.804688 213.636719 122.289062 C 214.359375 121.773438 215.558594 122.324219 215.640625 123.214844 C 215.722656 124.101562 214.644531 124.863281 213.839844 124.492188 " fill-opacity="1" fill-rule="nonzero"/><path fill="#c39d35" d="M 217.515625 131.371094 C 217.921875 129.660156 218.824219 128.113281 220.113281 126.925781 C 220.371094 126.683594 219.988281 126.300781 219.726562 126.535156 C 218.371094 127.785156 217.40625 129.429688 216.984375 131.222656 C 216.902344 131.566406 217.433594 131.710938 217.511719 131.371094 Z M 217.515625 131.371094 " fill-opacity="1" fill-rule="nonzero"/><path fill="#c39d35" d="M 218.984375 127.332031 C 218.570312 126.78125 218.898438 125.851562 219.566406 125.679688 C 220.234375 125.511719 220.964844 126.191406 220.847656 126.871094 C 220.734375 127.550781 219.828125 127.949219 219.25 127.570312 " fill-opacity="1" fill-rule="nonzero"/><path fill="#c39d35" d="M 208.070312 129.167969 C 208 126.945312 207.929688 124.726562 207.851562 122.511719 C 207.839844 122.160156 207.292969 122.160156 207.304688 122.511719 C 207.375 124.730469 207.445312 126.953125 207.523438 129.167969 C 207.535156 129.515625 208.082031 129.515625 208.070312 129.167969 Z M 208.070312 129.167969 " fill-opacity="1" fill-rule="nonzero"/><path fill="#c39d35" d="M 206.515625 122.214844 C 207.351562 122.957031 208.949219 122.28125 208.988281 121.164062 C 209.023438 120.046875 207.441406 119.277344 206.597656 120.007812 C 205.753906 120.734375 206.3125 122.429688 207.429688 122.496094 " fill-opacity="1" fill-rule="nonzero"/><path fill="#cc9933" d="M 240.992188 142.476562 C 236.871094 147.632812 235.257812 154.503906 236.746094 160.976562 C 237.207031 162.976562 237.949219 164.910156 238.949219 166.703125 C 239.117188 167.011719 239.59375 166.738281 239.421875 166.429688 C 236.019531 160.3125 235.855469 152.765625 239.023438 146.519531 C 239.765625 145.0625 240.675781 143.710938 241.722656 142.460938 C 241.476562 142.460938 241.234375 142.46875 240.988281 142.476562 Z M 240.992188 142.476562 " fill-opacity="1" fill-rule="nonzero"/><path fill="#cc9933" d="M 236.1875 154.738281 C 233.753906 158.75 233.347656 164.074219 235.140625 168.414062 C 236.929688 172.753906 240.867188 175.984375 245.253906 176.707031 C 244.121094 174.601562 244.464844 171.980469 244.523438 169.542969 C 244.601562 166.488281 244.167969 163.382812 242.878906 160.675781 C 241.589844 157.964844 239.386719 155.695312 236.667969 154.808594 " fill-opacity="1" fill-rule="nonzero"/><path fill="#cc9933" d="M 238.574219 146.371094 C 235.726562 149.394531 232.210938 151.753906 228.332031 153.242188 C 228.003906 153.367188 228.144531 153.894531 228.480469 153.765625 C 232.449219 152.25 236.050781 149.847656 238.964844 146.757812 C 239.207031 146.5 238.824219 146.109375 238.574219 146.367188 Z M 238.574219 146.371094 " fill-opacity="1" fill-rule="nonzero"/><path fill="#cc9933" d="M 233.082031 151.75 C 231.980469 154.164062 229.449219 155.71875 226.824219 156.101562 C 224.199219 156.484375 221.515625 155.828125 219.101562 154.738281 C 221.554688 152.535156 224.476562 150.851562 227.625 149.847656 C 228.582031 149.542969 229.597656 149.292969 230.589844 149.460938 C 231.582031 149.625 232.550781 150.292969 232.792969 151.269531 C 232.558594 151.332031 232.320312 151.398438 232.085938 151.464844 " fill-opacity="1" fill-rule="nonzero"/><path fill="#cc9933" d="M 241.777344 142.460938 C 242.742188 146.3125 244.648438 149.910156 247.296875 152.867188 C 248.058594 153.71875 248.882812 154.511719 249.753906 155.246094 C 250.019531 155.472656 250.410156 155.089844 250.140625 154.859375 C 247.121094 152.320312 244.742188 149.035156 243.285156 145.363281 C 242.90625 144.410156 242.597656 143.433594 242.347656 142.441406 C 242.160156 142.441406 241.96875 142.449219 241.78125 142.453125 Z M 241.777344 142.460938 " fill-opacity="1" fill-rule="nonzero"/><path fill="#cc9933" d="M 246.246094 151.257812 L 245.34375 150.902344 C 245.789062 153.601562 247.433594 156.089844 249.746094 157.5625 C 252.058594 159.03125 255.007812 159.453125 257.644531 158.699219 C 255.957031 155.613281 254.179688 152.425781 251.347656 150.339844 C 250.488281 149.710938 249.515625 149.183594 248.457031 149.074219 C 247.402344 148.964844 246.246094 149.332031 245.628906 150.199219 " fill-opacity="1" fill-rule="nonzero"/><path fill="#cc9933" d="M 246.023438 114.191406 C 246.59375 119.035156 248.320312 123.707031 250.953125 127.8125 C 253.585938 131.914062 257.09375 135.460938 261.191406 138.085938 C 263.027344 139.257812 264.984375 140.238281 267.023438 141.007812 C 267.023438 140.804688 267.023438 140.605469 267.011719 140.402344 C 263.128906 138.902344 259.5625 136.609375 256.542969 133.738281 C 253.085938 130.445312 250.316406 126.410156 248.550781 121.964844 C 247.558594 119.46875 246.878906 116.851562 246.566406 114.1875 C 246.53125 113.839844 245.980469 113.835938 246.019531 114.1875 Z M 246.023438 114.191406 " fill-opacity="1" fill-rule="nonzero"/><path fill="#cc9933" d="M 251.921875 127.921875 C 247.457031 126 244.085938 121.722656 243.257812 116.925781 C 242.429688 112.136719 244.179688 106.972656 247.742188 103.667969 C 247.105469 105.941406 248.476562 108.222656 249.484375 110.359375 C 251.914062 115.519531 252.371094 121.570312 250.75 127.035156 " fill-opacity="1" fill-rule="nonzero"/><path fill="#cc9933" d="M 256.671875 133.152344 C 256.007812 128.777344 256.160156 124.300781 257.109375 119.980469 C 257.183594 119.632812 256.652344 119.488281 256.582031 119.832031 C 255.613281 124.253906 255.46875 128.816406 256.144531 133.292969 C 256.199219 133.640625 256.726562 133.492188 256.671875 133.144531 Z M 256.671875 133.152344 " fill-opacity="1" fill-rule="nonzero"/><path fill="#cc9933" d="M 256.101562 123.207031 C 257.378906 123.515625 258.703125 122.628906 259.324219 121.472656 C 259.941406 120.3125 260.03125 118.949219 260.097656 117.640625 C 260.160156 116.328125 260.222656 114.96875 260.8125 113.792969 C 258.984375 114.679688 257.125 115.710938 255.980469 117.386719 C 254.832031 119.0625 254.625 121.558594 256.039062 123.015625 " fill-opacity="1" fill-rule="nonzero"/><path fill="#c39d35" d="M 232.605469 151.324219 C 228.851562 154.019531 224.070312 155.183594 219.5 154.457031 C 219.15625 154.402344 219.007812 154.929688 219.351562 154.984375 C 224.066406 155.730469 229 154.585938 232.878906 151.792969 C 233.164062 151.589844 232.890625 151.113281 232.605469 151.324219 Z M 232.605469 151.324219 " fill-opacity="1" fill-rule="nonzero"/><path fill="#c39d35" d="M 219.644531 154.792969 C 223.722656 153.105469 228.046875 152.039062 232.449219 151.652344 C 232.796875 151.617188 232.796875 151.070312 232.449219 151.105469 C 227.996094 151.492188 223.628906 152.554688 219.5 154.261719 C 219.175781 154.390625 219.320312 154.925781 219.648438 154.785156 Z M 219.644531 154.792969 " fill-opacity="1" fill-rule="nonzero"/><path fill="#c39d35" d="M 245.300781 176.40625 C 241.570312 171.394531 242.277344 164.636719 239.640625 159.144531 C 238.941406 157.699219 238.015625 156.367188 236.8125 155.300781 C 236.546875 155.070312 236.160156 155.457031 236.421875 155.691406 C 241.054688 159.78125 240.800781 166.628906 242.550781 172.082031 C 243.074219 173.71875 243.792969 175.296875 244.824219 176.683594 C 245.03125 176.964844 245.511719 176.691406 245.296875 176.410156 Z M 245.300781 176.40625 " fill-opacity="1" fill-rule="nonzero"/><path fill="#c39d35" d="M 244.753906 175.976562 C 241.03125 171.511719 238.4375 166.121094 237.234375 160.4375 C 236.894531 158.828125 236.664062 157.195312 236.554688 155.550781 C 236.53125 155.199219 235.984375 155.199219 236.003906 155.550781 C 236.417969 161.46875 238.289062 167.257812 241.421875 172.300781 C 242.304688 173.726562 243.289062 175.078125 244.363281 176.367188 C 244.589844 176.636719 244.976562 176.246094 244.753906 175.976562 Z M 244.753906 175.976562 " fill-opacity="1" fill-rule="nonzero"/><path fill="#c39d35" d="M 244.660156 175.78125 C 239.238281 172.898438 235.675781 167.257812 235.457031 161.113281 C 235.390625 159.277344 235.617188 157.441406 236.121094 155.675781 C 236.21875 155.335938 235.6875 155.191406 235.59375 155.527344 C 234.667969 158.761719 234.667969 162.246094 235.605469 165.480469 C 236.460938 168.441406 238.109375 171.144531 240.320312 173.285156 C 241.53125 174.460938 242.902344 175.464844 244.386719 176.253906 C 244.699219 176.417969 244.972656 175.945312 244.660156 175.78125 Z M 244.660156 175.78125 " fill-opacity="1" fill-rule="nonzero"/><path fill="#c39d35" d="M 250.664062 126.519531 C 251.25 120.617188 248.289062 115.179688 247.613281 109.421875 C 247.421875 107.792969 247.433594 106.144531 247.761719 104.53125 C 247.832031 104.1875 247.308594 104.039062 247.238281 104.386719 C 246.023438 110.261719 248.890625 115.878906 249.878906 121.5625 C 250.164062 123.199219 250.277344 124.863281 250.113281 126.519531 C 250.082031 126.871094 250.628906 126.871094 250.664062 126.519531 Z M 250.664062 126.519531 " fill-opacity="1" fill-rule="nonzero"/><path fill="#c39d35" d="M 250.75 126.535156 C 247.070312 121.855469 245.511719 115.617188 246.363281 109.742188 C 246.605469 108.085938 247.039062 106.46875 247.660156 104.917969 C 247.789062 104.589844 247.257812 104.445312 247.132812 104.769531 C 244.875 110.4375 245.152344 116.976562 247.667969 122.507812 C 248.386719 124.078125 249.292969 125.558594 250.359375 126.917969 C 250.582031 127.199219 250.964844 126.804688 250.75 126.53125 Z M 250.75 126.535156 " fill-opacity="1" fill-rule="nonzero"/><path fill="#c39d35" d="M 250.296875 126.414062 C 248.082031 124.539062 246.402344 122.066406 245.492188 119.3125 C 244.582031 116.554688 244.484375 113.324219 245.28125 110.410156 C 245.738281 108.722656 246.480469 107.121094 247.464844 105.671875 C 247.664062 105.382812 247.191406 105.109375 246.996094 105.398438 C 245.207031 108.019531 244.226562 111.15625 244.179688 114.328125 C 244.128906 117.503906 245 120.390625 246.601562 122.972656 C 247.492188 124.414062 248.613281 125.714844 249.90625 126.804688 C 250.175781 127.027344 250.5625 126.644531 250.296875 126.414062 Z M 250.296875 126.414062 " fill-opacity="1" fill-rule="nonzero"/><path fill="#c39d35" d="M 257.042969 123.226562 C 258.917969 120.617188 260.070312 117.539062 260.398438 114.34375 C 260.4375 113.992188 259.886719 114 259.847656 114.34375 C 259.53125 117.441406 258.386719 120.417969 256.570312 122.945312 C 256.363281 123.230469 256.839844 123.503906 257.042969 123.21875 Z M 257.042969 123.226562 " fill-opacity="1" fill-rule="nonzero"/><path fill="#c39d35" d="M 256.6875 123.371094 C 256.664062 120.203125 257.855469 117.085938 259.992188 114.746094 C 260.226562 114.488281 259.84375 114.097656 259.601562 114.355469 C 257.367188 116.804688 256.117188 120.054688 256.136719 123.371094 C 256.136719 123.722656 256.6875 123.722656 256.6875 123.371094 Z M 256.6875 123.371094 " fill-opacity="1" fill-rule="nonzero"/><path fill="#c39d35" d="M 245.488281 150.578125 C 247.953125 150.128906 250.464844 151.160156 252.34375 152.714844 C 254.226562 154.273438 255.75 156.496094 257.152344 158.613281 C 257.34375 158.902344 257.820312 158.628906 257.625 158.339844 C 255.375 154.957031 252.820312 151.257812 248.65625 150.1875 C 247.570312 149.910156 246.445312 149.855469 245.339844 150.054688 C 244.996094 150.121094 245.144531 150.648438 245.488281 150.582031 Z M 245.488281 150.578125 " fill-opacity="1" fill-rule="nonzero"/><path fill="#c39d35" d="M 257.371094 157.9375 C 252.96875 156.25 249.007812 153.511719 245.859375 150 C 245.625 149.738281 245.234375 150.128906 245.472656 150.390625 C 248.683594 153.96875 252.734375 156.742188 257.222656 158.464844 C 257.550781 158.589844 257.695312 158.058594 257.371094 157.9375 Z M 257.371094 157.9375 " fill-opacity="1" fill-rule="nonzero"/><path fill="#c39d35" d="M 257.042969 158.03125 C 253.199219 158.03125 249.457031 156.082031 247.144531 153.023438 C 246.492188 152.15625 245.949219 151.203125 245.554688 150.195312 C 245.425781 149.871094 244.894531 150.007812 245.027344 150.339844 C 246.492188 154.097656 249.78125 156.992188 253.640625 158.101562 C 254.746094 158.421875 255.890625 158.582031 257.042969 158.585938 C 257.394531 158.585938 257.394531 158.039062 257.042969 158.039062 Z M 257.042969 158.03125 " fill-opacity="1" fill-rule="nonzero"/><path fill="#cc9933" d="M 80.160156 55.113281 C 80.140625 63.179688 79.410156 71.410156 76.460938 78.984375 C 73.890625 85.582031 69.449219 91.515625 63.34375 95.214844 C 60.082031 97.1875 56.40625 98.449219 52.585938 98.664062 C 52.234375 98.683594 52.234375 99.234375 52.585938 99.210938 C 56.023438 99.019531 59.355469 98.015625 62.386719 96.394531 C 65.417969 94.769531 68.195312 92.507812 70.503906 89.910156 C 72.8125 87.308594 74.859375 84.085938 76.320312 80.753906 C 77.957031 77.003906 79.027344 73.035156 79.695312 69.003906 C 80.363281 64.96875 80.640625 60.808594 80.703125 56.683594 C 80.710938 56.160156 80.714844 55.632812 80.714844 55.105469 C 80.714844 54.757812 80.167969 54.757812 80.167969 55.105469 Z M 80.160156 55.113281 " fill-opacity="1" fill-rule="nonzero"/><g clip-path="url(#5b4536bec7)"><path fill="#cc9933" d="M 65.421875 94.171875 C 65.042969 97.472656 62.445312 100.148438 59.511719 101.699219 C 53.269531 105.011719 45.007812 104 39.746094 99.289062 C 44.070312 97.988281 47.804688 95.21875 51.976562 93.488281 C 56.148438 91.753906 61.386719 91.25 64.824219 94.179688 " fill-opacity="1" fill-rule="nonzero"/></g><path fill="#cc9933" d="M 73.484375 84.921875 C 71.703125 88.625 70.328125 92.519531 69.378906 96.519531 C 68.4375 100.519531 67.917969 104.621094 67.84375 108.726562 C 67.808594 111.066406 67.910156 113.40625 68.15625 115.738281 C 68.195312 116.082031 68.742188 116.089844 68.707031 115.738281 C 67.839844 107.628906 68.742188 99.363281 71.335938 91.628906 C 72.070312 89.433594 72.949219 87.28125 73.953125 85.195312 C 74.105469 84.875 73.632812 84.597656 73.480469 84.921875 Z M 73.484375 84.921875 " fill-opacity="1" fill-rule="nonzero"/><path fill="#cc9933" d="M 68.753906 103.089844 C 71.632812 105.042969 72.160156 109.066406 71.820312 112.523438 C 71.484375 115.984375 70.574219 119.546875 71.605469 122.863281 C 69.761719 120.988281 67.90625 119.09375 66.503906 116.871094 C 65.097656 114.652344 64.160156 112.046875 64.347656 109.421875 C 64.535156 106.796875 65.992188 104.1875 68.367188 103.0625 " fill-opacity="1" fill-rule="nonzero"/><path fill="#c39d35" d="M 92.265625 42.269531 C 90.066406 40.445312 87.214844 39.78125 84.40625 39.820312 C 81.191406 39.867188 78.117188 40.839844 75.089844 41.832031 C 71.984375 42.84375 68.863281 43.820312 65.570312 43.953125 C 62.609375 44.074219 59.632812 43.628906 56.828125 42.679688 C 53.679688 41.617188 50.757812 39.90625 48.316406 37.652344 C 48.058594 37.414062 47.667969 37.800781 47.925781 38.042969 C 52.226562 42.023438 57.976562 44.320312 63.832031 44.503906 C 66.996094 44.609375 70.046875 43.992188 73.058594 43.054688 C 76.222656 42.070312 79.367188 40.828125 82.683594 40.472656 C 86 40.113281 89.332031 40.542969 91.875 42.652344 C 92.144531 42.878906 92.535156 42.488281 92.265625 42.265625 Z M 92.265625 42.269531 " fill-opacity="1" fill-rule="nonzero"/><path fill="#c39d35" d="M 74.816406 41.953125 C 69.296875 43.601562 64.519531 47.445312 61.617188 52.414062 C 60.800781 53.820312 60.136719 55.308594 59.644531 56.855469 C 59.535156 57.191406 60.066406 57.335938 60.171875 57.003906 C 61.875 51.664062 65.695312 47.085938 70.574219 44.347656 C 71.96875 43.5625 73.4375 42.9375 74.964844 42.484375 C 75.300781 42.382812 75.15625 41.851562 74.816406 41.957031 Z M 74.816406 41.953125 " fill-opacity="1" fill-rule="nonzero"/><path fill="#c39d35" d="M 64.671875 44.121094 C 61.046875 40.609375 58.421875 36.113281 57.113281 31.234375 C 56.746094 29.859375 56.480469 28.457031 56.328125 27.042969 C 56.289062 26.695312 55.742188 26.691406 55.78125 27.042969 C 56.328125 32.171875 58.285156 37.128906 61.398438 41.246094 C 62.277344 42.40625 63.234375 43.496094 64.28125 44.503906 C 64.535156 44.753906 64.921875 44.363281 64.671875 44.117188 Z M 64.671875 44.121094 " fill-opacity="1" fill-rule="nonzero"/><path fill="#c39d35" d="M 55.03125 42.457031 C 52.300781 43.03125 49.316406 42.246094 47.21875 40.40625 C 45.125 38.5625 43.960938 35.707031 44.179688 32.921875 C 49.132812 33.757812 53.429688 37.644531 54.765625 42.476562 " fill-opacity="1" fill-rule="nonzero"/><path fill="#c39d35" d="M 62.5625 51.15625 C 63.726562 51.90625 64.171875 53.460938 63.957031 54.832031 C 63.746094 56.203125 62.992188 57.429688 62.203125 58.570312 C 60.964844 60.363281 59.589844 62.058594 58.089844 63.636719 C 57.527344 61.242188 56.96875 58.757812 57.425781 56.339844 C 57.878906 53.921875 59.628906 51.566406 62.0625 51.214844 " fill-opacity="1" fill-rule="nonzero"/><path fill="#c39d35" d="M 57.222656 32.988281 C 55.019531 31.699219 53.488281 29.328125 53.226562 26.789062 C 52.964844 24.25 53.972656 21.613281 55.863281 19.898438 C 57.183594 21.769531 58.328125 23.820312 58.707031 26.078125 C 59.085938 28.335938 58.59375 30.824219 56.992188 32.457031 C 56.925781 32.289062 56.859375 32.113281 56.792969 31.941406 " fill-opacity="1" fill-rule="nonzero"/><path fill="#c39d35" d="M 92.144531 42.199219 C 87.695312 40.398438 83.660156 37.636719 80.238281 34.289062 C 76.78125 30.90625 73.917969 26.90625 71.863281 22.523438 C 70.722656 20.101562 69.847656 17.554688 69.265625 14.945312 C 69.1875 14.597656 68.660156 14.746094 68.738281 15.09375 C 69.800781 19.851562 71.847656 24.371094 74.59375 28.394531 C 77.339844 32.417969 80.835938 36.015625 84.855469 38.832031 C 87.085938 40.394531 89.480469 41.710938 92.007812 42.730469 C 92.335938 42.859375 92.480469 42.328125 92.15625 42.203125 Z M 92.144531 42.199219 " fill-opacity="1" fill-rule="nonzero"/><path fill="#c39d35" d="M 69.136719 14.699219 C 69.136719 14.347656 68.589844 14.347656 68.589844 14.699219 C 68.589844 15.046875 69.136719 15.046875 69.136719 14.699219 Z M 69.136719 14.699219 " fill-opacity="1" fill-rule="nonzero"/><path fill="#c39d35" d="M 70.886719 21.40625 C 71.917969 21.136719 72.585938 20.070312 72.703125 19.007812 C 72.816406 17.941406 72.492188 16.890625 72.148438 15.882812 C 71.085938 12.761719 69.785156 9.726562 68.261719 6.804688 C 67.46875 9.550781 66.703125 12.375 66.917969 15.222656 C 67.132812 18.074219 68.523438 20.996094 71.066406 22.292969 " fill-opacity="1" fill-rule="nonzero"/><path fill="#c39d35" d="M 79.535156 33.515625 C 75.765625 32.472656 71.691406 32.820312 68.148438 34.464844 C 67.828125 34.613281 68.101562 35.082031 68.421875 34.933594 C 71.835938 33.351562 75.765625 33.039062 79.390625 34.042969 C 79.730469 34.136719 79.875 33.609375 79.535156 33.515625 Z M 79.535156 33.515625 " fill-opacity="1" fill-rule="nonzero"/><path fill="#c39d35" d="M 74.121094 33.492188 C 73.191406 35.242188 71.390625 36.398438 69.496094 36.980469 C 67.597656 37.5625 65.59375 37.636719 63.613281 37.707031 C 64.113281 35.613281 65.59375 33.777344 67.527344 32.835938 C 69.460938 31.894531 71.820312 31.871094 73.777344 32.769531 " fill-opacity="1" fill-rule="nonzero"/><path fill="#c39d35" d="M 129.324219 41.941406 C 124.207031 38.585938 117.554688 39.242188 112.109375 41.371094 C 105.886719 43.796875 100.542969 47.960938 94.386719 50.507812 C 90.917969 51.945312 87.1875 52.871094 83.414062 52.535156 C 83.0625 52.503906 83.0625 53.050781 83.414062 53.085938 C 90.082031 53.675781 96.289062 50.496094 101.902344 47.28125 C 107.515625 44.0625 113.0625 40.613281 119.558594 40.191406 C 122.867188 39.976562 126.246094 40.574219 129.050781 42.417969 C 129.347656 42.609375 129.621094 42.136719 129.324219 41.945312 Z M 129.324219 41.941406 " fill-opacity="1" fill-rule="nonzero"/><path fill="#c39d35" d="M 82.585938 53.664062 C 81.640625 53.597656 80.980469 52.421875 81.410156 51.582031 C 81.84375 50.742188 83.1875 50.59375 83.785156 51.324219 C 84.382812 52.054688 83.988281 53.347656 83.082031 53.609375 " fill-opacity="1" fill-rule="nonzero"/><path fill="#c39d35" d="M 98.398438 48.804688 C 95.230469 51.558594 93.371094 55.6875 93.273438 59.875 C 93.246094 61.066406 93.367188 62.253906 93.628906 63.417969 C 93.707031 63.761719 94.238281 63.613281 94.15625 63.269531 C 93.261719 59.3125 94.183594 55.042969 96.496094 51.726562 C 97.148438 50.789062 97.921875 49.9375 98.78125 49.1875 C 99.050781 48.957031 98.660156 48.566406 98.394531 48.796875 Z M 98.398438 48.804688 " fill-opacity="1" fill-rule="nonzero"/><path fill="#c39d35" d="M 93.285156 64.492188 C 92.253906 64.035156 92.046875 62.390625 92.9375 61.695312 C 93.832031 61 95.378906 61.597656 95.570312 62.710938 C 95.761719 63.824219 94.507812 64.902344 93.433594 64.546875 " fill-opacity="1" fill-rule="nonzero"/><path fill="#c39d35" d="M 102.324219 46.445312 C 97.636719 46.984375 92.835938 45.96875 88.773438 43.570312 C 88.464844 43.386719 88.191406 43.863281 88.5 44.039062 C 92.636719 46.484375 97.550781 47.542969 102.324219 46.996094 C 102.667969 46.957031 102.675781 46.40625 102.324219 46.445312 Z M 102.324219 46.445312 " fill-opacity="1" fill-rule="nonzero"/><path fill="#c39d35" d="M 88.503906 44.90625 C 87.621094 44.835938 87.03125 43.699219 87.472656 42.9375 C 87.917969 42.175781 89.199219 42.132812 89.695312 42.867188 C 90.1875 43.601562 89.671875 44.773438 88.796875 44.902344 " fill-opacity="1" fill-rule="nonzero"/><path fill="#c39d35" d="M 93.832031 56.109375 C 91.816406 57.222656 89.792969 58.335938 87.777344 59.441406 C 87.46875 59.613281 87.742188 60.085938 88.050781 59.914062 C 90.066406 58.800781 92.089844 57.6875 94.105469 56.582031 C 94.414062 56.410156 94.140625 55.941406 93.832031 56.109375 Z M 93.832031 56.109375 " fill-opacity="1" fill-rule="nonzero"/><path fill="#c39d35" d="M 86.617188 61.214844 C 85.691406 60.949219 85.34375 59.5625 86.039062 58.890625 C 86.734375 58.214844 88.105469 58.609375 88.339844 59.546875 C 88.574219 60.484375 87.546875 61.476562 86.617188 61.214844 " fill-opacity="1" fill-rule="nonzero"/><path fill="#c39d35" d="M 99.175781 48.566406 C 97.640625 51.8125 97.789062 55.722656 99.582031 58.839844 C 99.757812 59.148438 100.234375 58.867188 100.054688 58.566406 C 98.367188 55.628906 98.195312 51.917969 99.648438 48.847656 C 99.796875 48.527344 99.324219 48.25 99.175781 48.574219 Z M 99.175781 48.566406 " fill-opacity="1" fill-rule="nonzero"/><path fill="#c39d35" d="M 99.175781 59.601562 C 98.359375 59.128906 98.261719 57.789062 99.007812 57.199219 C 99.753906 56.613281 101.035156 57.03125 101.296875 57.933594 C 101.5625 58.839844 100.699219 59.882812 99.761719 59.789062 " fill-opacity="1" fill-rule="nonzero"/><path fill="#c39d35" d="M 113.527344 40.90625 C 108.59375 39.933594 104.136719 37.523438 100.503906 34.058594 C 99.457031 33.058594 98.480469 31.992188 97.570312 30.867188 C 97.347656 30.59375 96.960938 30.984375 97.183594 31.257812 C 100.386719 35.1875 104.410156 38.4375 109.1875 40.242188 C 110.546875 40.757812 111.949219 41.144531 113.378906 41.429688 C 113.726562 41.496094 113.871094 40.96875 113.527344 40.90625 Z M 113.527344 40.90625 " fill-opacity="1" fill-rule="nonzero"/><path fill="#c39d35" d="M 96.308594 31.324219 C 95.1875 31.203125 94.472656 29.710938 95.085938 28.761719 C 95.703125 27.816406 97.351562 27.851562 97.921875 28.828125 C 98.492188 29.804688 97.714844 31.261719 96.585938 31.328125 " fill-opacity="1" fill-rule="nonzero"/><path fill="#c39d35" d="M 105.367188 37.8125 C 104.378906 34.589844 103.929688 31.222656 104.042969 27.851562 C 104.054688 27.503906 103.507812 27.503906 103.496094 27.851562 C 103.382812 31.269531 103.835938 34.695312 104.832031 37.960938 C 104.9375 38.296875 105.464844 38.152344 105.359375 37.8125 Z M 105.367188 37.8125 " fill-opacity="1" fill-rule="nonzero"/><path fill="#c39d35" d="M 102.652344 27.765625 C 101.617188 27.289062 101.414062 25.644531 102.300781 24.925781 C 103.1875 24.207031 104.75 24.757812 105 25.867188 C 105.246094 26.980469 104.066406 28.144531 102.960938 27.875 " fill-opacity="1" fill-rule="nonzero"/><path fill="#cc9933" d="M 154.242188 43.058594 C 153.257812 44.621094 151.589844 45.570312 149.816406 45.953125 C 147.820312 46.386719 145.773438 46.058594 143.882812 45.339844 C 141.789062 44.550781 139.886719 43.3125 138.0625 42.039062 C 136.238281 40.765625 134.390625 39.320312 132.636719 37.867188 C 129.136719 34.96875 125.800781 31.886719 122.28125 29.019531 C 118.761719 26.152344 115.371094 23.746094 111.472656 21.8125 C 107.679688 19.925781 103.5625 18.613281 99.3125 18.402344 C 98.792969 18.375 98.265625 18.371094 97.746094 18.382812 C 97.394531 18.382812 97.394531 18.933594 97.746094 18.929688 C 102.105469 18.863281 106.375 20.019531 110.300781 21.851562 C 114.222656 23.683594 117.972656 26.253906 121.410156 29.019531 C 125.011719 31.921875 128.410156 35.0625 131.960938 38.019531 C 133.703125 39.472656 135.480469 40.882812 137.332031 42.199219 C 139.167969 43.503906 141.070312 44.757812 143.15625 45.636719 C 145.046875 46.433594 147.105469 46.890625 149.15625 46.621094 C 150.917969 46.390625 152.652344 45.671875 153.902344 44.386719 C 154.210938 44.066406 154.484375 43.710938 154.71875 43.339844 C 154.914062 43.035156 154.433594 42.761719 154.25 43.0625 Z M 154.242188 43.058594 " fill-opacity="1" fill-rule="nonzero"/><path fill="#cc9933" d="M 111.042969 21.488281 C 106.757812 23.90625 101.371094 24.277344 96.785156 22.480469 C 92.203125 20.679688 88.515625 16.738281 87.023438 12.050781 C 91.699219 11.8125 96.476562 11.589844 100.984375 12.855469 C 105.496094 14.121094 109.777344 17.152344 111.292969 21.582031 C 111.015625 21.53125 110.75 21.488281 110.472656 21.441406 " fill-opacity="1" fill-rule="nonzero"/><path fill="#cc9933" d="M 122.609375 29.125 C 121.265625 24.570312 121.15625 19.679688 122.28125 15.066406 C 122.597656 13.761719 123.015625 12.488281 123.519531 11.246094 C 123.652344 10.914062 123.125 10.777344 122.992188 11.097656 C 121.179688 15.546875 120.570312 20.457031 121.21875 25.222656 C 121.402344 26.59375 121.695312 27.941406 122.085938 29.265625 C 122.183594 29.605469 122.714844 29.460938 122.609375 29.121094 Z M 122.609375 29.125 " fill-opacity="1" fill-rule="nonzero"/><g clip-path="url(#baef0a8e8a)"><path fill="#cc9933" d="M 120.652344 21.335938 C 123.464844 21.867188 126.246094 19.75 127.429688 17.140625 C 128.613281 14.53125 128.585938 11.5625 128.523438 8.695312 C 128.464844 5.828125 128.414062 2.863281 129.5625 0.238281 C 126.980469 1.792969 124.417969 3.4375 122.296875 5.582031 C 120.175781 7.726562 118.515625 10.421875 118.089844 13.410156 C 117.660156 16.398438 118.636719 19.660156 120.972656 21.558594 " fill-opacity="1" fill-rule="nonzero"/></g><path fill="#cc9933" d="M 123.855469 30.425781 C 122.257812 29.992188 120.566406 29.96875 118.925781 30.105469 C 117.074219 30.257812 115.230469 30.617188 113.445312 31.121094 C 112.453125 31.398438 111.476562 31.722656 110.519531 32.101562 C 110.195312 32.226562 110.335938 32.757812 110.667969 32.628906 C 112.804688 31.789062 115.039062 31.1875 117.308594 30.839844 C 119.402344 30.523438 121.644531 30.390625 123.710938 30.949219 C 124.050781 31.042969 124.199219 30.511719 123.859375 30.425781 Z M 123.855469 30.425781 " fill-opacity="1" fill-rule="nonzero"/><path fill="#cc9933" d="M 116.453125 31.058594 C 116.507812 33.925781 114.359375 36.464844 111.789062 37.734375 C 109.222656 39.007812 106.285156 39.269531 103.429688 39.507812 C 103.101562 36.289062 104.652344 32.945312 107.316406 31.113281 C 109.988281 29.285156 113.664062 29.046875 116.546875 30.515625 " fill-opacity="1" fill-rule="nonzero"/><path fill="#c39d35" d="M 165.082031 42.828125 C 160.894531 43.835938 156.832031 45.367188 153.003906 47.355469 C 149.179688 49.347656 145.597656 51.796875 142.367188 54.640625 C 140.535156 56.253906 138.8125 57.984375 137.222656 59.835938 C 136.992188 60.105469 137.382812 60.496094 137.613281 60.226562 C 140.402344 56.980469 143.59375 54.082031 147.089844 51.609375 C 150.582031 49.136719 154.375 47.082031 158.359375 45.519531 C 160.597656 44.644531 162.894531 43.925781 165.226562 43.359375 C 165.574219 43.277344 165.425781 42.746094 165.082031 42.832031 Z M 165.082031 42.828125 " fill-opacity="1" fill-rule="nonzero"/><path fill="#c39d35" d="M 142.722656 54.390625 C 143.53125 55.8125 143.242188 57.660156 142.402344 59.074219 C 141.566406 60.488281 140.265625 61.554688 138.984375 62.578125 C 137.699219 63.601562 136.386719 64.644531 135.507812 66.03125 C 135.523438 63.476562 135.558594 60.839844 136.609375 58.511719 C 137.664062 56.179688 140.007812 54.242188 142.546875 54.5 C 142.375 54.664062 142.210938 54.828125 142.042969 54.984375 " fill-opacity="1" fill-rule="nonzero"/><path fill="#c39d35" d="M 150 49.476562 C 148.492188 53.792969 148.429688 58.558594 149.796875 62.917969 C 149.902344 63.253906 150.433594 63.109375 150.324219 62.769531 C 148.976562 58.496094 149.046875 53.851562 150.527344 49.621094 C 150.640625 49.285156 150.117188 49.144531 150 49.472656 Z M 150 49.476562 " fill-opacity="1" fill-rule="nonzero"/><path fill="#c39d35" d="M 148.691406 56.144531 C 147.675781 58.007812 147.398438 60.257812 147.929688 62.316406 C 148.460938 64.371094 149.796875 66.207031 151.589844 67.339844 C 152.050781 64.875 152.25 62.359375 152.175781 59.847656 C 152.144531 58.734375 152.027344 57.535156 151.300781 56.691406 C 150.570312 55.847656 149.019531 55.660156 148.421875 56.597656 " fill-opacity="1" fill-rule="nonzero"/><path fill="#c39d35" d="M 147.4375 50.617188 C 144.109375 49.859375 140.972656 48.347656 138.324219 46.1875 C 138.050781 45.96875 137.664062 46.351562 137.9375 46.578125 C 140.660156 48.792969 143.867188 50.367188 147.292969 51.144531 C 147.636719 51.21875 147.78125 50.695312 147.441406 50.617188 Z M 147.4375 50.617188 " fill-opacity="1" fill-rule="nonzero"/><path fill="#c39d35" d="M 140.78125 48.167969 C 139.054688 49.417969 136.449219 48.699219 135.0625 47.078125 C 133.675781 45.453125 133.28125 43.207031 133.246094 41.074219 C 135.558594 42.410156 137.765625 43.929688 139.832031 45.625 C 140.253906 45.96875 140.683594 46.335938 140.921875 46.824219 C 141.164062 47.3125 141.171875 47.964844 140.785156 48.355469 " fill-opacity="1" fill-rule="nonzero"/><path fill="#cc9933" d="M 165.222656 42.71875 C 163.210938 38.839844 162.40625 34.382812 162.894531 30.039062 C 163.347656 26.003906 164.980469 22.128906 167.503906 18.953125 C 168.890625 17.207031 170.527344 15.667969 172.371094 14.417969 C 172.660156 14.222656 172.386719 13.742188 172.097656 13.945312 C 168.730469 16.238281 166.011719 19.433594 164.292969 23.121094 C 162.445312 27.082031 161.824219 31.507812 162.445312 35.824219 C 162.800781 38.324219 163.585938 40.75 164.746094 42.992188 C 164.910156 43.304688 165.382812 43.03125 165.21875 42.71875 Z M 165.222656 42.71875 " fill-opacity="1" fill-rule="nonzero"/><path fill="#cc9933" d="M 163.730469 25.398438 C 166.578125 25.722656 169.351562 24.070312 171.1875 21.871094 C 173.023438 19.675781 174.113281 16.96875 175.292969 14.359375 C 176.472656 11.75 177.832031 9.113281 180.023438 7.277344 C 176.445312 7.296875 172.804688 7.480469 169.425781 8.664062 C 166.050781 9.847656 162.925781 12.171875 161.523438 15.460938 C 160.121094 18.75 160.820312 23.03125 163.675781 25.183594 " fill-opacity="1" fill-rule="nonzero"/><path fill="#cc9933" d="M 162.710938 34.34375 C 161.972656 30.101562 159.089844 26.34375 155.28125 24.378906 C 154.210938 23.824219 153.074219 23.417969 151.898438 23.171875 C 151.550781 23.101562 151.402344 23.625 151.75 23.699219 C 155.824219 24.554688 159.324219 27.421875 161.117188 31.160156 C 161.621094 32.214844 161.976562 33.335938 162.179688 34.492188 C 162.242188 34.835938 162.765625 34.6875 162.707031 34.34375 Z M 162.710938 34.34375 " fill-opacity="1" fill-rule="nonzero"/><path fill="#cc9933" d="M 156.199219 25.34375 C 154.453125 27.28125 151.261719 27.25 148.980469 25.976562 C 146.703125 24.707031 145.117188 22.507812 143.609375 20.375 C 147.921875 18.234375 153.789062 20.183594 155.964844 24.480469 " fill-opacity="1" fill-rule="nonzero"/><path fill="#c39d35" d="M 193.957031 43.789062 C 192.949219 45.164062 191.234375 45.828125 189.570312 45.902344 C 187.707031 45.992188 185.933594 45.328125 184.398438 44.320312 C 180.917969 42.027344 178.90625 38.21875 175.792969 35.527344 C 174.191406 34.144531 172.300781 33.042969 170.183594 32.730469 C 169.839844 32.683594 169.691406 33.207031 170.035156 33.257812 C 174.359375 33.90625 177.105469 37.5625 179.75 40.675781 C 182.214844 43.578125 185.425781 46.621094 189.523438 46.453125 C 191.414062 46.375 193.292969 45.617188 194.433594 44.0625 C 194.640625 43.777344 194.164062 43.503906 193.960938 43.789062 Z M 193.957031 43.789062 " fill-opacity="1" fill-rule="nonzero"/><path fill="#c39d35" d="M 177.660156 37.1875 C 177.703125 33.253906 175.324219 29.542969 171.855469 27.742188 C 171.542969 27.578125 171.261719 28.054688 171.582031 28.214844 C 174.882812 29.925781 177.15625 33.433594 177.113281 37.183594 C 177.113281 37.535156 177.65625 37.535156 177.660156 37.183594 Z M 177.660156 37.1875 " fill-opacity="1" fill-rule="nonzero"/><path fill="#c39d35" d="M 171.988281 26.804688 C 172.792969 27.089844 173.078125 28.230469 172.496094 28.835938 C 171.914062 29.4375 170.699219 29.25 170.34375 28.503906 C 169.988281 27.761719 170.628906 26.761719 171.488281 26.730469 " fill-opacity="1" fill-rule="nonzero"/><path fill="#c39d35" d="M 169.085938 31.628906 C 170.179688 31.351562 171.207031 32.792969 170.566406 33.679688 C 169.925781 34.566406 168.199219 34.238281 167.929688 33.191406 C 167.664062 32.144531 168.941406 31.082031 170.003906 31.445312 " fill-opacity="1" fill-rule="nonzero"/><path fill="#c39d35" d="M 187.269531 45.789062 C 183.726562 46.160156 180.347656 47.628906 177.710938 50.035156 C 177.445312 50.273438 177.835938 50.660156 178.097656 50.425781 C 180.621094 48.125 183.882812 46.691406 187.269531 46.34375 C 187.613281 46.304688 187.621094 45.753906 187.269531 45.792969 Z M 187.269531 45.789062 " fill-opacity="1" fill-rule="nonzero"/><path fill="#c39d35" d="M 176.882812 50.210938 C 175.820312 50.453125 175.265625 51.84375 175.894531 52.695312 C 176.527344 53.542969 178.089844 53.515625 178.675781 52.632812 C 179.261719 51.753906 178.648438 50.386719 177.574219 50.195312 " fill-opacity="1" fill-rule="nonzero"/><path fill="#c39d35" d="M 185.109375 44.835938 C 178.285156 45.082031 171.566406 47.363281 165.980469 51.296875 C 164.40625 52.40625 162.925781 53.636719 161.5625 54.992188 C 161.308594 55.238281 161.699219 55.628906 161.949219 55.382812 C 166.726562 50.671875 172.863281 47.425781 179.425781 46.066406 C 181.300781 45.679688 183.203125 45.453125 185.109375 45.382812 C 185.460938 45.371094 185.460938 44.824219 185.109375 44.835938 Z M 185.109375 44.835938 " fill-opacity="1" fill-rule="nonzero"/><path fill="#c39d35" d="M 160.152344 56.914062 C 161.210938 57.261719 162.453125 56.21875 162.296875 55.113281 C 162.136719 54.003906 160.652344 53.359375 159.730469 53.988281 C 158.808594 54.617188 158.882812 56.242188 159.855469 56.785156 " fill-opacity="1" fill-rule="nonzero"/><path fill="#c39d35" d="M 169.125 49.714844 C 168.292969 53.132812 168.386719 56.742188 169.410156 60.105469 C 169.515625 60.441406 170.042969 60.296875 169.9375 59.957031 C 168.9375 56.683594 168.835938 53.183594 169.652344 49.855469 C 169.734375 49.511719 169.207031 49.367188 169.125 49.707031 Z M 169.125 49.714844 " fill-opacity="1" fill-rule="nonzero"/><path fill="#c39d35" d="M 169.179688 60.910156 C 168.398438 60.453125 168.363281 59.128906 169.121094 58.632812 C 169.875 58.132812 171.078125 58.675781 171.199219 59.578125 C 171.320312 60.484375 170.292969 61.316406 169.433594 61.03125 " fill-opacity="1" fill-rule="nonzero"/><path fill="#c39d35" d="M 110.386719 21.171875 C 107.082031 21.964844 103.605469 21.910156 100.304688 21.109375 C 97.023438 20.3125 93.902344 18.785156 91.289062 16.644531 C 89.808594 15.425781 88.492188 14.023438 87.402344 12.449219 C 87.199219 12.164062 86.730469 12.433594 86.929688 12.722656 C 88.921875 15.582031 91.605469 17.910156 94.675781 19.542969 C 97.746094 21.175781 101.210938 22.140625 104.707031 22.277344 C 106.664062 22.355469 108.632812 22.164062 110.539062 21.703125 C 110.886719 21.621094 110.738281 21.089844 110.390625 21.175781 Z M 110.386719 21.171875 " fill-opacity="1" fill-rule="nonzero"/><path fill="#c39d35" d="M 110.550781 21.09375 C 104.082031 20.453125 97.746094 18.507812 92.027344 15.410156 C 90.421875 14.539062 88.867188 13.578125 87.371094 12.539062 C 87.078125 12.335938 86.804688 12.8125 87.097656 13.007812 C 92.496094 16.765625 98.644531 19.421875 105.074219 20.792969 C 106.882812 21.175781 108.714844 21.460938 110.554688 21.644531 C 110.90625 21.675781 110.90625 21.128906 110.554688 21.09375 Z M 110.550781 21.09375 " fill-opacity="1" fill-rule="nonzero"/><path fill="#c39d35" d="M 110.902344 20.734375 C 105.367188 17.308594 99.222656 14.878906 92.839844 13.597656 C 91.027344 13.230469 89.199219 12.960938 87.359375 12.777344 C 87.007812 12.746094 87.007812 13.292969 87.359375 13.328125 C 93.761719 13.964844 100.054688 15.746094 105.835938 18.566406 C 107.476562 19.367188 109.070312 20.25 110.621094 21.210938 C 110.921875 21.394531 111.199219 20.917969 110.894531 20.738281 Z M 110.902344 20.734375 " fill-opacity="1" fill-rule="nonzero"/><path fill="#c39d35" d="M 103.714844 39.453125 C 107.695312 38.519531 111.402344 36.488281 114.332031 33.640625 C 115.171875 32.832031 115.933594 31.953125 116.636719 31.019531 C 116.847656 30.742188 116.371094 30.46875 116.164062 30.746094 C 113.761719 33.925781 110.472656 36.429688 106.773438 37.917969 C 105.734375 38.332031 104.660156 38.671875 103.566406 38.925781 C 103.222656 39.007812 103.371094 39.535156 103.714844 39.453125 Z M 103.714844 39.453125 " fill-opacity="1" fill-rule="nonzero"/><path fill="#c39d35" d="M 116.203125 30.472656 C 112.46875 31.886719 108.988281 33.914062 105.917969 36.464844 C 105.035156 37.195312 104.199219 37.972656 103.386719 38.78125 C 103.140625 39.035156 103.523438 39.417969 103.777344 39.171875 C 106.539062 36.394531 109.75 34.078125 113.265625 32.34375 C 114.265625 31.84375 115.296875 31.398438 116.34375 31 C 116.671875 30.875 116.53125 30.347656 116.195312 30.472656 Z M 116.203125 30.472656 " fill-opacity="1" fill-rule="nonzero"/><path fill="#c39d35" d="M 104.179688 39.011719 C 104.433594 36.953125 105.386719 34.996094 106.828125 33.503906 C 108.34375 31.9375 110.390625 30.945312 112.558594 30.699219 C 113.789062 30.554688 115.039062 30.648438 116.242188 30.976562 C 116.582031 31.070312 116.730469 30.542969 116.390625 30.453125 C 114.121094 29.828125 111.679688 30.019531 109.527344 30.964844 C 107.464844 31.871094 105.765625 33.511719 104.722656 35.5 C 104.148438 36.601562 103.785156 37.785156 103.632812 39.011719 C 103.589844 39.363281 104.136719 39.359375 104.179688 39.011719 Z M 104.179688 39.011719 " fill-opacity="1" fill-rule="nonzero"/><g clip-path="url(#a69586e54b)"><path fill="#c39d35" d="M 121.257812 21.609375 C 123.722656 20.15625 125.152344 17.574219 125.996094 14.917969 C 126.933594 11.960938 127.097656 8.867188 127.691406 5.839844 C 128.042969 4.050781 128.574219 2.292969 129.554688 0.746094 C 129.746094 0.445312 129.269531 0.171875 129.082031 0.472656 C 127.378906 3.160156 127.015625 6.371094 126.585938 9.453125 C 126.179688 12.3125 125.636719 15.246094 124.183594 17.785156 C 123.398438 19.148438 122.347656 20.339844 120.980469 21.136719 C 120.679688 21.320312 120.953125 21.789062 121.257812 21.609375 Z M 121.257812 21.609375 " fill-opacity="1" fill-rule="nonzero"/><path fill="#c39d35" d="M 121.441406 21.285156 C 122.148438 15.523438 124.019531 9.914062 126.890625 4.871094 C 127.703125 3.449219 128.589844 2.074219 129.550781 0.753906 C 129.757812 0.46875 129.28125 0.195312 129.078125 0.480469 C 125.613281 5.246094 123.109375 10.707031 121.753906 16.445312 C 121.375 18.042969 121.09375 19.660156 120.894531 21.285156 C 120.851562 21.636719 121.398438 21.632812 121.441406 21.285156 Z M 121.441406 21.285156 " fill-opacity="1" fill-rule="nonzero"/></g><g clip-path="url(#1c18bbbda0)"><path fill="#c39d35" d="M 121.246094 21.238281 C 120.269531 18.097656 120.214844 14.703125 121.085938 11.535156 C 121.871094 8.691406 123.421875 6.082031 125.511719 3.996094 C 126.65625 2.859375 127.949219 1.894531 129.363281 1.113281 C 129.671875 0.945312 129.394531 0.472656 129.089844 0.644531 C 123.585938 3.667969 120.042969 9.511719 119.925781 15.792969 C 119.886719 17.683594 120.160156 19.582031 120.71875 21.390625 C 120.824219 21.726562 121.355469 21.582031 121.246094 21.242188 Z M 121.246094 21.238281 " fill-opacity="1" fill-rule="nonzero"/></g><path fill="#c39d35" d="M 155.949219 25.085938 C 151.5625 25.199219 147.222656 23.433594 144.15625 20.292969 C 143.910156 20.042969 143.523438 20.429688 143.769531 20.683594 C 146.929688 23.921875 151.421875 25.75 155.941406 25.632812 C 156.292969 25.621094 156.292969 25.074219 155.941406 25.085938 Z M 155.949219 25.085938 " fill-opacity="1" fill-rule="nonzero"/><path fill="#c39d35" d="M 156.277344 25.035156 C 152.765625 22.34375 148.558594 20.652344 144.164062 20.113281 C 143.8125 20.070312 143.816406 20.617188 144.164062 20.660156 C 148.457031 21.1875 152.566406 22.882812 155.996094 25.507812 C 156.277344 25.722656 156.550781 25.242188 156.273438 25.035156 Z M 156.277344 25.035156 " fill-opacity="1" fill-rule="nonzero"/><path fill="#c39d35" d="M 163.917969 24.9375 C 166.882812 24.363281 169.222656 22.21875 170.917969 19.816406 C 172.820312 17.121094 174.054688 14.023438 175.9375 11.320312 C 176.953125 9.867188 178.164062 8.535156 179.660156 7.570312 C 179.957031 7.378906 179.683594 6.910156 179.386719 7.101562 C 173.871094 10.652344 172.929688 17.886719 168.183594 22.121094 C 166.929688 23.238281 165.441406 24.085938 163.777344 24.410156 C 163.429688 24.476562 163.578125 25.007812 163.925781 24.9375 Z M 163.917969 24.9375 " fill-opacity="1" fill-rule="nonzero"/><path fill="#c39d35" d="M 163.960938 25.003906 C 165.585938 19.054688 169.417969 13.777344 174.503906 10.308594 C 175.945312 9.324219 177.484375 8.488281 179.097656 7.820312 C 179.421875 7.6875 179.277344 7.15625 178.949219 7.292969 C 173.117188 9.703125 168.242188 14.242188 165.371094 19.855469 C 164.554688 21.449219 163.902344 23.128906 163.429688 24.859375 C 163.335938 25.199219 163.863281 25.347656 163.957031 25.007812 Z M 163.960938 25.003906 " fill-opacity="1" fill-rule="nonzero"/><path fill="#c39d35" d="M 163.667969 24.417969 C 163.28125 21.019531 164.09375 17.53125 165.914062 14.636719 C 167.734375 11.742188 170.609375 9.554688 173.882812 8.5 C 175.703125 7.910156 177.609375 7.664062 179.511719 7.789062 C 179.863281 7.8125 179.863281 7.265625 179.511719 7.242188 C 175.976562 7.011719 172.382812 8.042969 169.488281 10.09375 C 166.59375 12.144531 164.546875 15.125 163.601562 18.507812 C 163.0625 20.425781 162.886719 22.4375 163.113281 24.417969 C 163.152344 24.761719 163.699219 24.765625 163.660156 24.417969 Z M 163.667969 24.417969 " fill-opacity="1" fill-rule="nonzero"/><path fill="#cc9933" d="M 78.15625 74.007812 C 79.230469 78.6875 81.675781 83.03125 85.09375 86.402344 C 86.054688 87.34375 87.089844 88.210938 88.1875 88.988281 C 88.476562 89.191406 88.75 88.71875 88.460938 88.515625 C 84.652344 85.804688 81.636719 81.972656 79.875 77.636719 C 79.378906 76.40625 78.984375 75.148438 78.6875 73.859375 C 78.609375 73.511719 78.078125 73.660156 78.160156 74.007812 Z M 78.15625 74.007812 " fill-opacity="1" fill-rule="nonzero"/><path fill="#cc9933" d="M 82.789062 84.058594 C 82.914062 87.496094 84.804688 90.820312 87.699219 92.675781 C 90.59375 94.535156 94.402344 94.878906 97.582031 93.566406 C 94.351562 91.570312 93.445312 87.15625 90.476562 84.789062 C 88.421875 83.148438 85.457031 82.738281 83.035156 83.746094 " fill-opacity="1" fill-rule="nonzero"/><g clip-path="url(#f81cb46bfe)"><path fill="#c39d35" d="M 40.121094 99.796875 C 47.179688 101.617188 55.265625 102.785156 61.710938 98.496094 C 63.203125 97.507812 64.5 96.261719 65.5 94.777344 C 65.695312 94.484375 65.226562 94.207031 65.027344 94.503906 C 63.257812 97.128906 60.503906 98.925781 57.527344 99.917969 C 54.066406 101.074219 50.359375 101.113281 46.769531 100.621094 C 44.570312 100.316406 42.40625 99.824219 40.261719 99.269531 C 39.921875 99.183594 39.773438 99.710938 40.113281 99.796875 Z M 40.121094 99.796875 " fill-opacity="1" fill-rule="nonzero"/></g><path fill="#c39d35" d="M 65.152344 94.417969 C 59.304688 97.652344 52.660156 99.402344 45.980469 99.496094 C 44.097656 99.523438 42.214844 99.414062 40.351562 99.175781 C 40 99.132812 40.003906 99.683594 40.351562 99.726562 C 47.046875 100.570312 53.949219 99.714844 60.253906 97.304688 C 62.035156 96.625 63.761719 95.816406 65.433594 94.890625 C 65.738281 94.722656 65.464844 94.246094 65.160156 94.417969 Z M 65.152344 94.417969 " fill-opacity="1" fill-rule="nonzero"/><path fill="#c39d35" d="M 40.519531 99.796875 C 46.554688 97.226562 52.996094 95.585938 59.523438 94.96875 C 61.382812 94.792969 63.246094 94.699219 65.109375 94.683594 C 65.460938 94.683594 65.460938 94.136719 65.109375 94.136719 C 58.457031 94.183594 51.804688 95.269531 45.480469 97.339844 C 43.703125 97.921875 41.960938 98.585938 40.242188 99.320312 C 39.917969 99.457031 40.195312 99.929688 40.515625 99.792969 Z M 40.519531 99.796875 " fill-opacity="1" fill-rule="nonzero"/><path fill="#c39d35" d="M 96.742188 93.394531 C 92.308594 93.246094 88.039062 90.910156 85.402344 87.355469 C 84.664062 86.355469 84.054688 85.269531 83.597656 84.113281 C 83.472656 83.792969 82.941406 83.933594 83.074219 84.261719 C 84.761719 88.570312 88.488281 91.929688 92.894531 93.296875 C 94.140625 93.683594 95.4375 93.898438 96.742188 93.941406 C 97.09375 93.953125 97.09375 93.40625 96.742188 93.394531 Z M 96.742188 93.394531 " fill-opacity="1" fill-rule="nonzero"/><path fill="#c39d35" d="M 97.214844 93.585938 C 93.132812 91.976562 89.375 89.550781 86.222656 86.5 C 85.332031 85.636719 84.492188 84.722656 83.699219 83.769531 C 83.472656 83.496094 83.082031 83.882812 83.308594 84.160156 C 86.152344 87.589844 89.675781 90.457031 93.617188 92.539062 C 94.738281 93.132812 95.886719 93.652344 97.066406 94.117188 C 97.394531 94.25 97.539062 93.71875 97.214844 93.59375 Z M 97.214844 93.585938 " fill-opacity="1" fill-rule="nonzero"/><path fill="#c39d35" d="M 97.308594 93.609375 C 94.441406 90.15625 90.917969 87.253906 86.96875 85.105469 C 85.851562 84.5 84.699219 83.957031 83.523438 83.46875 C 83.199219 83.332031 83.054688 83.863281 83.375 83.992188 C 87.457031 85.683594 91.207031 88.15625 94.375 91.242188 C 95.269531 92.113281 96.117188 93.03125 96.914062 93.992188 C 97.136719 94.265625 97.527344 93.871094 97.300781 93.601562 Z M 97.308594 93.609375 " fill-opacity="1" fill-rule="nonzero"/><path fill="#c39d35" d="M 71.636719 122.113281 C 68.234375 118.148438 66.710938 112.734375 67.347656 107.570312 C 67.527344 106.105469 67.894531 104.664062 68.425781 103.289062 C 68.550781 102.960938 68.027344 102.816406 67.898438 103.140625 C 65.964844 108.144531 66.335938 113.917969 68.722656 118.703125 C 69.402344 120.066406 70.25 121.34375 71.25 122.5 C 71.480469 122.769531 71.863281 122.378906 71.636719 122.113281 Z M 71.636719 122.113281 " fill-opacity="1" fill-rule="nonzero"/><path fill="#c39d35" d="M 71.429688 121.914062 C 70.652344 117.046875 69.878906 112.175781 69.101562 107.308594 C 68.875 105.910156 68.65625 104.511719 68.429688 103.113281 C 68.375 102.769531 67.851562 102.917969 67.90625 103.261719 C 68.683594 108.128906 69.457031 113.003906 70.234375 117.871094 C 70.460938 119.265625 70.679688 120.664062 70.902344 122.0625 C 70.957031 122.40625 71.484375 122.261719 71.429688 121.914062 Z M 71.429688 121.914062 " fill-opacity="1" fill-rule="nonzero"/><path fill="#c39d35" d="M 71.117188 120.417969 C 71.914062 115.796875 71.5 110.996094 69.910156 106.582031 C 69.46875 105.34375 68.929688 104.136719 68.304688 102.980469 C 68.140625 102.667969 67.664062 102.949219 67.835938 103.257812 C 69.984375 107.269531 71.058594 111.824219 70.964844 116.371094 C 70.9375 117.683594 70.808594 118.980469 70.589844 120.277344 C 70.53125 120.621094 71.0625 120.769531 71.117188 120.425781 Z M 71.117188 120.417969 " fill-opacity="1" fill-rule="nonzero"/><path fill="#c39d35" d="M 47.984375 65.367188 C 47.125 65.375 46.417969 64.382812 46.707031 63.570312 C 47 62.757812 48.171875 62.441406 48.835938 62.988281 C 49.5 63.539062 49.394531 64.753906 48.648438 65.1875 " fill-opacity="1" fill-rule="nonzero"/><path fill="#cc9933" d="M 78.894531 9.003906 C 78.214844 8.941406 77.765625 8.066406 78.105469 7.472656 C 78.445312 6.882812 79.433594 6.84375 79.820312 7.40625 C 80.210938 7.972656 79.828125 8.875 79.160156 8.992188 " fill-opacity="1" fill-rule="nonzero"/><path fill="#c39d35" d="M 52.589844 111.910156 C 53.375 111.816406 53.867188 110.792969 53.449219 110.117188 C 53.035156 109.445312 51.898438 109.433594 51.464844 110.089844 C 51.035156 110.75 51.5 111.789062 52.277344 111.90625 " fill-opacity="1" fill-rule="nonzero"/><path fill="#cc9933" d="M 94.324219 81.390625 C 95.203125 81.269531 95.734375 80.109375 95.257812 79.367188 C 94.78125 78.628906 93.5 78.632812 93.03125 79.382812 C 92.566406 80.136719 93.113281 81.285156 93.992188 81.394531 " fill-opacity="1" fill-rule="nonzero"/><path fill="#cc9933" d="M 134.339844 15.761719 C 133.386719 15.707031 132.75 14.441406 133.277344 13.644531 C 133.804688 12.851562 135.21875 12.925781 135.644531 13.78125 C 136.074219 14.636719 135.300781 15.820312 134.339844 15.765625 " fill-opacity="1" fill-rule="nonzero"/><path fill="#c39d35" d="M 111.722656 8.519531 C 112.332031 8.386719 112.652344 7.542969 112.277344 7.046875 C 111.90625 6.546875 111.007812 6.613281 110.703125 7.160156 C 110.402344 7.707031 110.839844 8.5 111.460938 8.542969 " fill-opacity="1" fill-rule="nonzero"/><path fill="#c39d35" d="M 127.882812 62.730469 C 127.148438 62.472656 126.914062 61.359375 127.476562 60.828125 C 128.042969 60.296875 129.136719 60.589844 129.359375 61.328125 C 129.578125 62.066406 128.820312 62.917969 128.058594 62.777344 " fill-opacity="1" fill-rule="nonzero"/><path fill="#c39d35" d="M 179.550781 18.96875 C 178.828125 18.492188 178.859375 17.230469 179.605469 16.792969 C 180.351562 16.351562 181.46875 16.933594 181.535156 17.800781 C 181.601562 18.667969 180.585938 19.410156 179.78125 19.089844 " fill-opacity="1" fill-rule="nonzero"/><path fill="#cc9933" d="M 186.164062 28.300781 C 186.648438 28.164062 186.917969 27.53125 186.683594 27.085938 C 186.445312 26.640625 185.765625 26.511719 185.382812 26.832031 C 184.886719 27.304688 185.460938 28.328125 186.125 28.148438 " fill-opacity="1" fill-rule="nonzero"/><path fill="#c39d35" d="M 153.832031 7.117188 C 153.082031 7.285156 152.308594 6.449219 152.539062 5.707031 C 152.769531 4.96875 153.882812 4.722656 154.402344 5.292969 C 154.921875 5.863281 154.582031 6.945312 153.832031 7.117188 " fill-opacity="1" fill-rule="nonzero"/><path fill="#c39d35" d="M 80.589844 17.5625 C 81.152344 17.535156 81.566406 16.835938 81.3125 16.324219 C 81.0625 15.816406 80.25 15.722656 79.886719 16.160156 C 79.527344 16.601562 79.765625 17.378906 80.308594 17.53125 " fill-opacity="1" fill-rule="nonzero"/><path fill="#cc9933" d="M 58.027344 15.015625 C 58.679688 15.257812 59.457031 14.5 59.21875 13.847656 C 58.976562 13.195312 57.851562 13.164062 57.589844 13.808594 C 57.324219 14.457031 58.191406 15.210938 58.785156 14.851562 " fill-opacity="1" fill-rule="nonzero"/><path fill="#c39d35" d="M 166.949219 153.082031 C 166.0625 153.214844 165.234375 152.167969 165.5625 151.328125 C 165.890625 150.488281 167.210938 150.296875 167.773438 151.003906 C 168.332031 151.710938 167.835938 152.949219 166.949219 153.078125 " fill-opacity="1" fill-rule="nonzero"/><path fill="#cc9933" d="M 185.542969 162.554688 C 186.007812 162.082031 185.84375 161.160156 185.246094 160.875 C 184.648438 160.59375 183.832031 161.050781 183.761719 161.710938 C 183.691406 162.367188 184.390625 162.988281 185.039062 162.832031 " fill-opacity="1" fill-rule="nonzero"/><g clip-path="url(#b205bc7ae8)"><path fill="#c39d35" d="M 201.558594 179.761719 C 200.675781 179.734375 200.058594 178.585938 200.523438 177.835938 C 200.988281 177.085938 202.289062 177.125 202.707031 177.902344 C 203.121094 178.679688 202.4375 179.789062 201.558594 179.761719 " fill-opacity="1" fill-rule="nonzero"/></g><path fill="#c39d35" d="M 223.574219 164.238281 C 224.285156 164.09375 224.734375 163.207031 224.429688 162.546875 C 224.121094 161.890625 223.144531 161.671875 222.585938 162.125 C 222.109375 162.796875 222.476562 163.890625 223.261719 164.132812 " fill-opacity="1" fill-rule="nonzero"/><path fill="#c39d35" d="M 219.335938 120.910156 C 219.894531 120.707031 220.242188 120.039062 220.09375 119.464844 C 219.945312 118.890625 219.308594 118.484375 218.722656 118.582031 C 218.285156 118.789062 218.035156 119.34375 218.179688 119.808594 C 218.320312 120.277344 218.820312 120.605469 219.304688 120.539062 " fill-opacity="1" fill-rule="nonzero"/><path fill="#cc9933" d="M 237.046875 113.140625 C 238.050781 113.253906 238.96875 112.125 238.65625 111.164062 C 238.34375 110.207031 236.929688 109.839844 236.191406 110.523438 C 235.453125 111.210938 235.703125 112.644531 236.636719 113.035156 " fill-opacity="1" fill-rule="nonzero"/><g clip-path="url(#f697f8c962)"><path fill="#c39d35" d="M 278.394531 114.269531 C 279.09375 113.972656 279.25 112.859375 278.652344 112.386719 C 278.054688 111.917969 277.007812 112.316406 276.875 113.066406 C 276.742188 113.820312 277.609375 114.542969 278.328125 114.289062 " fill-opacity="1" fill-rule="nonzero"/></g><path fill="#cc9933" d="M 267.019531 154.832031 C 267.917969 154.941406 268.746094 153.925781 268.460938 153.066406 C 268.175781 152.207031 266.902344 151.886719 266.25 152.511719 C 265.597656 153.136719 265.847656 154.417969 266.691406 154.75 " fill-opacity="1" fill-rule="nonzero"/><path fill="#cc9933" d="M 249.589844 167.765625 C 250.3125 167.988281 251.132812 167.246094 250.992188 166.5 C 250.847656 165.753906 249.808594 165.378906 249.214844 165.855469 C 248.625 166.332031 248.777344 167.425781 249.472656 167.730469 " fill-opacity="1" fill-rule="nonzero"/><path fill="#cc9933" d="M 141.503906 152.601562 C 140.695312 152.601562 140.089844 151.554688 140.496094 150.851562 C 140.902344 150.148438 142.109375 150.148438 142.511719 150.851562 C 142.917969 151.554688 142.316406 152.601562 141.503906 152.59375 " fill-opacity="1" fill-rule="nonzero"/><path fill="#cc9933" d="M 73.4375 137.246094 C 72.636719 137.269531 71.96875 136.332031 72.261719 135.578125 C 72.558594 134.828125 73.683594 134.589844 74.253906 135.152344 C 74.824219 135.71875 74.609375 136.847656 73.871094 137.152344 " fill-opacity="1" fill-rule="nonzero"/><path fill="#cc9933" d="M 215.816406 37.855469 C 215.03125 37.730469 214.609375 36.632812 215.109375 36.015625 C 215.609375 35.394531 216.769531 35.582031 217.054688 36.320312 C 217.339844 37.0625 216.601562 37.976562 215.816406 37.851562 " fill-opacity="1" fill-rule="nonzero"/><path fill="#eebb2d" d="M 132.425781 42.542969 C 127.40625 47.269531 121.046875 50.210938 115.050781 53.460938 C 109.054688 56.714844 103.199219 60.199219 99.582031 65.894531 C 97.808594 68.683594 96.6875 71.984375 97.183594 75.316406 C 97.203125 75.460938 97.390625 75.550781 97.523438 75.507812 C 104.023438 73.277344 110.167969 70.027344 115.652344 65.890625 C 121.140625 61.75 125.511719 57.226562 129.15625 51.796875 C 131.105469 48.890625 132.757812 45.789062 134.027344 42.53125 C 134.152344 42.203125 133.628906 42.0625 133.5 42.382812 C 131.226562 48.207031 127.714844 53.5 123.488281 58.082031 C 118.996094 62.949219 113.691406 67.054688 107.914062 70.28125 C 104.550781 72.152344 101.023438 73.726562 97.382812 74.976562 L 97.722656 75.167969 C 97.285156 72.21875 98.230469 69.265625 99.714844 66.738281 C 101.359375 63.949219 103.671875 61.628906 106.214844 59.652344 C 111.582031 55.480469 117.878906 52.75 123.746094 49.382812 C 126.96875 47.53125 130.109375 45.480469 132.828125 42.921875 C 133.085938 42.679688 132.695312 42.292969 132.4375 42.53125 Z M 132.425781 42.542969 " fill-opacity="1" fill-rule="nonzero"/><path fill="#eebb2d" d="M 97.660156 74.992188 C 103.105469 71.765625 108.308594 68.128906 113.199219 64.113281 C 118.089844 60.09375 122.457031 55.878906 126.539062 51.230469 C 128.789062 48.675781 130.914062 46.011719 132.90625 43.257812 C 133.113281 42.972656 132.636719 42.695312 132.433594 42.980469 C 128.882812 47.898438 124.894531 52.492188 120.570312 56.746094 C 116.152344 61.09375 111.378906 65.082031 106.335938 68.691406 C 103.4375 70.761719 100.441406 72.707031 97.378906 74.523438 C 97.078125 74.703125 97.351562 75.175781 97.652344 74.992188 Z M 97.660156 74.992188 " fill-opacity="1" fill-rule="nonzero"/><path fill="#eebb2d" d="M 98.125 74.324219 C 100.777344 68.976562 105.375 64.851562 110.042969 61.269531 C 114.910156 57.523438 120.128906 54.246094 124.835938 50.289062 C 127.382812 48.144531 129.769531 45.804688 131.746094 43.117188 C 131.957031 42.832031 131.480469 42.558594 131.277344 42.84375 C 127.660156 47.757812 122.679688 51.484375 117.765625 55.007812 C 112.808594 58.554688 107.695312 61.976562 103.386719 66.316406 C 101.117188 68.601562 99.082031 71.15625 97.652344 74.054688 C 97.5 74.367188 97.972656 74.648438 98.125 74.332031 Z M 98.125 74.324219 " fill-opacity="1" fill-rule="nonzero"/><path fill="#eebb2d" d="M 105.84375 41.683594 C 99.894531 38.613281 93.167969 37.851562 86.617188 37.027344 C 80.730469 36.285156 74.730469 35.394531 69.363281 32.710938 C 66.511719 31.285156 63.910156 29.34375 61.957031 26.800781 C 61.746094 26.527344 61.265625 26.800781 61.488281 27.074219 C 65.023438 31.671875 70.40625 34.226562 75.898438 35.691406 C 82.097656 37.339844 88.539062 37.597656 94.824219 38.746094 C 98.53125 39.417969 102.203125 40.417969 105.5625 42.152344 C 105.875 42.3125 106.15625 41.839844 105.835938 41.683594 Z M 105.84375 41.683594 " fill-opacity="1" fill-rule="nonzero"/><path fill="#eebb2d" d="M 61.800781 27.101562 C 63.898438 24.859375 67.136719 24.589844 70.027344 24.855469 C 71.621094 24.996094 73.195312 25.320312 74.75 25.664062 C 76.445312 26.039062 78.121094 26.472656 79.785156 26.964844 C 86.367188 28.921875 92.675781 31.800781 98.46875 35.484375 C 101.730469 37.554688 104.828125 39.886719 107.722656 42.449219 C 107.984375 42.6875 108.375 42.296875 108.113281 42.0625 C 102.84375 37.402344 96.917969 33.5 90.558594 30.496094 C 87.371094 28.988281 84.074219 27.707031 80.703125 26.667969 C 77.332031 25.632812 74.144531 24.800781 70.789062 24.382812 C 67.433594 23.964844 63.792969 24.167969 61.414062 26.714844 C 61.175781 26.96875 61.5625 27.359375 61.804688 27.101562 Z M 61.800781 27.101562 " fill-opacity="1" fill-rule="nonzero"/><path fill="#eebb2d" d="M 106.636719 41.863281 C 101.894531 37.820312 95.878906 35.9375 89.871094 34.699219 C 83.664062 33.417969 77.3125 32.738281 71.253906 30.820312 C 67.949219 29.773438 64.765625 28.324219 61.96875 26.253906 C 61.683594 26.042969 61.410156 26.515625 61.695312 26.722656 C 66.714844 30.441406 72.851562 32.074219 78.890625 33.234375 C 85.039062 34.417969 91.347656 35.148438 97.28125 37.25 C 100.527344 38.398438 103.617188 40.003906 106.25 42.246094 C 106.515625 42.476562 106.90625 42.089844 106.636719 41.859375 Z M 106.636719 41.863281 " fill-opacity="1" fill-rule="nonzero"/><path fill="#eebb2d" d="M 62.863281 27.171875 C 69.175781 27.398438 75.453125 28.375 81.539062 30.054688 C 87.621094 31.738281 93.515625 34.128906 99.050781 37.171875 C 102.148438 38.871094 105.128906 40.777344 107.976562 42.871094 C 108.261719 43.082031 108.535156 42.605469 108.25 42.402344 C 103.140625 38.640625 97.585938 35.5 91.738281 33.03125 C 85.890625 30.566406 79.738281 28.761719 73.46875 27.707031 C 69.960938 27.113281 66.414062 26.75 62.863281 26.625 C 62.511719 26.613281 62.511719 27.164062 62.863281 27.171875 Z M 62.863281 27.171875 " fill-opacity="1" fill-rule="nonzero"/><path fill="#eebb2d" d="M 80.539062 50.707031 C 77.058594 56.664062 71.277344 60.691406 65.804688 64.660156 C 60.308594 68.652344 54.664062 72.972656 51.691406 79.269531 C 50.132812 82.570312 49.390625 86.257812 50.046875 89.882812 C 50.078125 90.066406 50.304688 90.117188 50.445312 90.046875 C 56.335938 87.136719 61.679688 83.160156 66.222656 78.417969 C 70.765625 73.679688 74.519531 68.175781 77.242188 62.195312 C 78.765625 58.851562 79.960938 55.363281 80.796875 51.785156 C 80.878906 51.441406 80.347656 51.296875 80.273438 51.636719 C 78.785156 57.988281 76.15625 64.046875 72.597656 69.519531 C 69.050781 74.960938 64.59375 79.816406 59.449219 83.785156 C 56.558594 86.015625 53.449219 87.957031 50.179688 89.574219 L 50.578125 89.738281 C 49.363281 83.011719 53.074219 76.539062 57.695312 71.957031 C 62.542969 67.148438 68.535156 63.746094 73.714844 59.332031 C 76.542969 56.925781 79.136719 54.203125 81.015625 50.980469 C 81.199219 50.671875 80.722656 50.398438 80.546875 50.707031 Z M 80.539062 50.707031 " fill-opacity="1" fill-rule="nonzero"/><path fill="#eebb2d" d="M 50.714844 90.035156 C 55.5 86.054688 59.988281 81.730469 64.140625 77.09375 C 68.289062 72.457031 72.082031 67.542969 75.503906 62.363281 C 77.421875 59.460938 79.222656 56.476562 80.894531 53.425781 C 81.066406 53.117188 80.59375 52.835938 80.425781 53.148438 C 77.449219 58.570312 74.082031 63.773438 70.351562 68.699219 C 66.605469 73.640625 62.5 78.308594 58.078125 82.652344 C 55.59375 85.089844 53.007812 87.425781 50.328125 89.652344 C 50.050781 89.875 50.445312 90.265625 50.714844 90.039062 Z M 50.714844 90.035156 " fill-opacity="1" fill-rule="nonzero"/><path fill="#eebb2d" d="M 50.59375 90.394531 C 51.117188 83.894531 55.140625 78.398438 59.632812 73.945312 C 64.261719 69.363281 69.675781 65.667969 74.230469 61.015625 C 76.742188 58.449219 78.976562 55.582031 80.519531 52.328125 C 80.667969 52.011719 80.195312 51.730469 80.046875 52.054688 C 77.21875 58.039062 72.152344 62.484375 67.160156 66.652344 C 62.183594 70.800781 57.050781 74.9375 53.542969 80.480469 C 51.640625 83.484375 50.332031 86.84375 50.046875 90.402344 C 50.019531 90.753906 50.566406 90.753906 50.59375 90.402344 Z M 50.59375 90.394531 " fill-opacity="1" fill-rule="nonzero"/><path fill="#eebb2d" d="M 160.1875 42.609375 C 153.191406 41.628906 147.65625 36.722656 143.0625 31.707031 C 138.160156 26.355469 133.648438 20.34375 127.089844 16.902344 C 123.679688 15.113281 119.816406 14.078125 115.949219 14.570312 C 115.753906 14.597656 115.597656 14.785156 115.714844 14.984375 C 119.171875 20.863281 123.746094 26.066406 129.078125 30.320312 C 134.410156 34.574219 140.398438 37.855469 146.828125 40.011719 C 150.433594 41.222656 154.160156 42.054688 157.9375 42.5 C 158.289062 42.539062 158.285156 41.988281 157.9375 41.953125 C 151.265625 41.167969 144.765625 39.113281 138.820312 36.007812 C 132.871094 32.90625 127.46875 28.78125 122.9375 23.828125 C 120.378906 21.035156 118.117188 17.976562 116.191406 14.707031 L 115.957031 15.121094 C 123.164062 14.203125 129.734375 18.457031 134.648438 23.296875 C 139.558594 28.136719 143.917969 34.371094 149.761719 38.65625 C 152.800781 40.886719 156.273438 42.609375 160.039062 43.136719 C 160.382812 43.183594 160.53125 42.652344 160.1875 42.609375 Z M 160.1875 42.609375 " fill-opacity="1" fill-rule="nonzero"/><path fill="#eebb2d" d="M 155.011719 41.839844 C 149.402344 39.453125 143.980469 36.617188 138.828125 33.363281 C 133.675781 30.105469 128.707031 26.363281 124.171875 22.207031 C 121.671875 19.910156 119.292969 17.480469 117.070312 14.917969 C 116.839844 14.648438 116.449219 15.039062 116.679688 15.304688 C 120.691406 19.933594 125.199219 24.113281 130.039062 27.871094 C 134.878906 31.625 140.042969 34.957031 145.433594 37.851562 C 148.464844 39.480469 151.570312 40.96875 154.738281 42.320312 C 155.058594 42.457031 155.339844 41.984375 155.011719 41.847656 Z M 155.011719 41.839844 " fill-opacity="1" fill-rule="nonzero"/><path fill="#eebb2d" d="M 157.421875 41.886719 C 150.910156 40.847656 145.332031 36.761719 140.535156 32.457031 C 135.75 28.164062 131.507812 23.269531 126.222656 19.554688 C 123.316406 17.507812 120.117188 15.871094 116.644531 15.058594 C 116.300781 14.976562 116.160156 15.507812 116.5 15.585938 C 122.855469 17.078125 128.046875 21.292969 132.683594 25.6875 C 135.019531 27.902344 137.257812 30.214844 139.636719 32.386719 C 142.015625 34.558594 144.605469 36.683594 147.382812 38.433594 C 150.402344 40.339844 153.726562 41.847656 157.273438 42.410156 C 157.621094 42.464844 157.769531 41.941406 157.421875 41.886719 Z M 157.421875 41.886719 " fill-opacity="1" fill-rule="nonzero"/><path fill="#eebb2d" d="M 264.054688 141.050781 C 257.34375 140.574219 251.773438 136.148438 247.28125 131.5 C 242.488281 126.550781 238.253906 120.894531 232.253906 117.292969 C 229.175781 115.441406 225.695312 114.195312 222.066406 114.175781 C 221.839844 114.175781 221.742188 114.40625 221.828125 114.585938 C 223.265625 117.660156 225.082031 120.539062 227.195312 123.191406 C 229.3125 125.84375 231.789062 128.332031 234.464844 130.503906 C 237.140625 132.675781 240.050781 134.59375 243.113281 136.183594 C 246.179688 137.773438 249.414062 139.0625 252.75 139.980469 C 256.089844 140.902344 259.40625 141.433594 262.796875 141.570312 C 263.214844 141.585938 263.636719 141.597656 264.054688 141.605469 C 264.40625 141.605469 264.40625 141.0625 264.054688 141.054688 C 257.277344 140.984375 250.570312 139.234375 244.496094 136.269531 C 238.367188 133.277344 232.832031 129.046875 228.425781 123.832031 C 225.980469 120.945312 223.90625 117.75 222.308594 114.316406 L 222.070312 114.730469 C 228.855469 114.777344 234.660156 119.046875 239.238281 123.667969 C 244.085938 128.554688 248.238281 134.21875 254.082031 138.015625 C 257.082031 139.960938 260.464844 141.351562 264.058594 141.605469 C 264.410156 141.632812 264.410156 141.082031 264.058594 141.054688 Z M 264.054688 141.050781 " fill-opacity="1" fill-rule="nonzero"/><path fill="#eebb2d" d="M 260.242188 141.46875 C 254.476562 139.464844 248.953125 136.808594 243.777344 133.574219 C 238.601562 130.339844 233.789062 126.53125 229.453125 122.238281 C 227.027344 119.832031 224.757812 117.277344 222.652344 114.589844 C 222.433594 114.3125 222.050781 114.707031 222.261719 114.980469 C 226.0625 119.832031 230.414062 124.25 235.199219 128.125 C 239.945312 131.972656 245.113281 135.300781 250.589844 138.015625 C 253.671875 139.539062 256.851562 140.875 260.097656 142 C 260.429688 142.113281 260.574219 141.585938 260.242188 141.472656 Z M 260.242188 141.46875 " fill-opacity="1" fill-rule="nonzero"/><path fill="#eebb2d" d="M 261.230469 141.367188 C 255.101562 140.164062 249.964844 136.335938 245.488281 132.160156 C 240.964844 127.949219 236.929688 123.21875 232.015625 119.441406 C 229.3125 117.363281 226.351562 115.617188 223.105469 114.535156 C 222.773438 114.425781 222.628906 114.953125 222.960938 115.0625 C 228.867188 117.035156 233.648438 121.21875 238.011719 125.523438 C 242.40625 129.859375 246.578125 134.496094 251.769531 137.914062 C 254.609375 139.785156 257.734375 141.238281 261.082031 141.894531 C 261.429688 141.960938 261.574219 141.433594 261.230469 141.367188 Z M 261.230469 141.367188 " fill-opacity="1" fill-rule="nonzero"/><path fill="#eebb2d" d="M 194.597656 174.140625 C 197.46875 172.738281 200.097656 170.890625 202.519531 168.820312 C 204.941406 166.746094 207.25 164.367188 209.449219 161.980469 C 211.644531 159.589844 213.816406 157.09375 216.050781 154.703125 C 218.234375 152.375 220.507812 150.113281 222.996094 148.105469 C 225.484375 146.097656 228.167969 144.398438 231.097656 143.195312 C 231.472656 143.039062 231.84375 142.898438 232.222656 142.761719 C 232.550781 142.640625 232.410156 142.113281 232.074219 142.234375 C 229.085938 143.3125 226.320312 144.898438 223.78125 146.804688 C 221.242188 148.714844 218.910156 150.921875 216.695312 153.226562 C 214.480469 155.527344 212.25 158.070312 210.042969 160.503906 C 207.839844 162.9375 205.625 165.296875 203.210938 167.476562 C 200.792969 169.660156 198.230469 171.59375 195.386719 173.117188 C 195.03125 173.308594 194.675781 173.488281 194.3125 173.671875 C 193.996094 173.824219 194.273438 174.300781 194.585938 174.140625 Z M 194.597656 174.140625 " fill-opacity="1" fill-rule="nonzero"/><path fill="#eebb2d" d="M 194.609375 173.714844 C 198.175781 168.171875 202.421875 163.082031 207.207031 158.554688 C 211.992188 154.023438 217.3125 150.066406 223.035156 146.800781 C 226.242188 144.96875 229.570312 143.351562 232.988281 141.972656 C 233.3125 141.839844 233.171875 141.308594 232.84375 141.445312 C 226.671875 143.933594 220.808594 147.167969 215.410156 151.058594 C 210.042969 154.929688 205.132812 159.429688 200.832031 164.457031 C 198.398438 167.296875 196.160156 170.300781 194.132812 173.441406 C 193.941406 173.738281 194.417969 174.011719 194.605469 173.714844 Z M 194.609375 173.714844 " fill-opacity="1" fill-rule="nonzero"/></svg>