<svg xmlns="http://www.w3.org/2000/svg" xmlns:xlink="http://www.w3.org/1999/xlink" width="400" zoomAndPan="magnify" viewBox="0 0 300 74.999997" height="100" preserveAspectRatio="xMidYMid meet" version="1.0"><defs><clipPath id="bddc78cdf7"><path d="M 0 7.550781 L 300 7.550781 L 300 66.699219 L 0 66.699219 Z M 0 7.550781 " clip-rule="nonzero"/></clipPath><clipPath id="a0ed2cc498"><path d="M 149.9375 66.6875 C 157.855469 66.6875 149.9375 47.542969 149.9375 47.542969 C 149.9375 47.542969 142.015625 66.6875 149.9375 66.6875 Z M 149.9375 37.6875 C 157.558594 20.011719 170.617188 22.617188 170.617188 22.617188 C 169.703125 19.640625 165.945312 19.457031 165.945312 19.457031 C 157.582031 13.503906 152.429688 28.570312 152.429688 28.570312 C 152.929688 20.570312 159.1875 15.734375 159.1875 15.734375 C 157.566406 14.058594 153.410156 15.734375 153.410156 15.734375 C 153.410156 15.734375 154.707031 7.550781 149.9375 7.550781 C 145.167969 7.550781 146.460938 15.734375 146.460938 15.734375 C 146.460938 15.734375 142.304688 14.058594 140.683594 15.734375 C 140.683594 15.734375 146.945312 20.570312 147.441406 28.570312 C 147.441406 28.570312 142.292969 13.503906 133.925781 19.457031 C 133.925781 19.457031 130.167969 19.640625 129.253906 22.617188 C 129.253906 22.617188 142.316406 20.011719 149.9375 37.6875 Z M 20.660156 40.804688 C 15.132812 34.089844 10.1875 34.207031 10.1875 34.207031 L 12.226562 39.027344 C 3.351562 36.6875 0 48.941406 0 48.941406 C 0 48.941406 4.808594 44.464844 11.207031 44.464844 C 17.605469 44.464844 28.953125 50.253906 33.898438 50.253906 C 36.519531 50.253906 38.804688 50.253906 40.382812 50.253906 C 34.0625 49.925781 25.578125 46.773438 20.660156 40.804688 Z M 42.625 50.253906 C 42.625 50.253906 41.78125 50.253906 40.382812 50.253906 C 41.164062 50.296875 41.921875 50.300781 42.625 50.253906 Z M 42.878906 48.929688 C 43.035156 48.933594 43.191406 48.941406 43.351562 48.941406 C 43.351562 48.941406 43.179688 48.941406 42.878906 48.929688 Z M 42.878906 48.929688 C 42.628906 48.921875 42.285156 48.902344 41.867188 48.867188 C 42.191406 48.902344 42.53125 48.921875 42.878906 48.929688 Z M 35.644531 36.929688 C 38.84375 36.929688 40.296875 40.179688 40.296875 40.179688 C 40.296875 40.179688 43.402344 35.625 39.425781 32.148438 C 35.738281 28.929688 26.042969 31.269531 28.515625 40.179688 C 30.460938 47.179688 38.503906 48.585938 41.867188 48.867188 C 32.957031 47.921875 32.605469 36.929688 35.644531 36.929688 Z M 61.246094 50.253906 C 61.378906 50.214844 60.765625 50.253906 59.757812 50.3125 C 60.34375 50.367188 60.859375 50.363281 61.246094 50.253906 Z M 49.316406 47.316406 C 47.136719 46.828125 42.625 47.316406 42.625 47.316406 C 42.625 47.316406 47.863281 49.5625 50.335938 50.253906 C 52.109375 50.75 57.203125 50.464844 59.757812 50.3125 C 56.609375 50.019531 51.15625 47.730469 49.316406 47.316406 Z M 66.769531 50.460938 C 63.863281 50.460938 60.078125 54.246094 60.078125 54.246094 C 60.078125 54.246094 68.417969 57.0625 76.660156 50.460938 C 77.242188 49.996094 69.679688 50.460938 66.769531 50.460938 Z M 61.246094 47.316406 C 53.386719 40.683594 45.242188 40.804688 45.242188 40.804688 C 45.242188 40.804688 50.042969 44.441406 52.082031 46.34375 C 54.117188 48.246094 61.246094 47.316406 61.246094 47.316406 Z M 59.207031 37.140625 C 55.34375 28.378906 58.332031 19.476562 58.332031 19.476562 C 49.460938 21.433594 52.226562 33.753906 52.226562 33.753906 C 49.460938 31.707031 45.242188 33.761719 45.242188 33.761719 C 48.734375 33.613281 55.714844 39.90625 61.679688 44.929688 C 67.644531 49.957031 82.625 48.832031 82.625 48.832031 C 82.625 48.832031 63.066406 45.90625 59.207031 37.140625 Z M 80.734375 46.34375 C 74.617188 41.890625 69.535156 37.855469 70.410156 41.753906 C 71.28125 45.652344 80.734375 46.34375 80.734375 46.34375 Z M 113.753906 45.464844 C 114.335938 40.929688 116.246094 36.929688 116.246094 36.929688 C 106.519531 45.847656 113.171875 50 113.753906 45.464844 Z M 113.753906 25.710938 C 113.753906 25.710938 109.535156 22.273438 107.5 19.96875 C 105.460938 17.664062 99.355469 24.101562 113.753906 25.710938 Z M 112.15625 32.734375 C 112.15625 32.734375 106.480469 31.710938 101.972656 36.246094 C 97.460938 40.785156 92.664062 42.976562 88.296875 42.976562 C 83.933594 42.976562 80.878906 34.785156 86.992188 28.929688 C 86.992188 28.929688 82.59375 30.441406 81.898438 37.855469 C 81.203125 45.269531 90.335938 46.050781 94.117188 43.855469 C 97.898438 41.660156 103.863281 33.464844 112.15625 32.734375 Z M 134.347656 38.5625 C 132.117188 40.886719 134.890625 42.917969 134.890625 42.917969 C 134.792969 40.679688 137.351562 39.773438 138.210938 41.226562 C 138.910156 42.414062 138.308594 44.820312 135.214844 44.417969 C 132.121094 44.019531 131.058594 37.238281 136.566406 37.140625 C 139.953125 37.082031 142.28125 39.847656 143.570312 41.988281 C 140.042969 35.769531 134.992188 33.644531 130.09375 32.570312 C 123.425781 31.113281 118.691406 36.558594 118.109375 41.753906 C 117.53125 46.949219 119.316406 50.945312 122.84375 51.140625 C 126.375 51.335938 126.519531 49.585938 126.519531 49.585938 C 125.644531 49.585938 123.617188 49.195312 123.617188 46.667969 C 123.617188 44.140625 126.097656 43.050781 128.257812 45.113281 C 130.261719 47.03125 129.609375 51.820312 123.328125 52.015625 C 117.046875 52.210938 114.34375 45.210938 116.246094 39.085938 C 118.148438 32.960938 129.8125 28.234375 138.5 34.320312 C 143.007812 37.480469 145.042969 41.699219 145.964844 45.03125 C 145 40.054688 143.378906 37.425781 140.046875 34.128906 C 134.816406 28.957031 129.167969 29.203125 123.648438 29.101562 C 123.4375 29.484375 116.082031 31.273438 111.425781 38.734375 C 106.773438 46.199219 106.046875 48.539062 102.699219 49.414062 C 102.699219 49.414062 103.863281 43.273438 103.863281 42.832031 C 103.863281 42.390625 98.917969 55.160156 85.824219 50.460938 C 85.824219 50.460938 89.316406 49.269531 90.191406 47.511719 C 90.191406 47.511719 78.40625 48.976562 75.207031 36.101562 L 78.261719 38.148438 C 78.261719 38.148438 75.933594 23.515625 93.242188 28.34375 C 93.242188 28.34375 86.84375 32.003906 86.84375 36.246094 C 86.84375 40.488281 93.535156 41.058594 97.171875 35.210938 C 100.808594 29.371094 107.207031 29.515625 107.207031 29.515625 C 107.207031 29.515625 96.445312 29.394531 94.988281 19.96875 L 97.171875 20.882812 C 97.171875 20.882812 95.425781 10.539062 101.390625 10.539062 C 107.351562 10.539062 106.480469 18.542969 102.117188 18.394531 C 102.117188 18.394531 106.21875 14.003906 102.117188 14.003906 C 98.019531 14.003906 96.863281 29.523438 119.054688 28.347656 C 119.054688 28.347656 119.0625 28.347656 119.066406 28.347656 C 116.195312 27.015625 115.773438 24.128906 116.660156 21.976562 C 117.820312 19.15625 122.554688 19.351562 123.039062 22.269531 C 123.519531 25.183594 119.945312 24.894531 119.851562 23.4375 C 119.753906 21.976562 120.71875 21.585938 120.71875 21.585938 C 119.851562 20.519531 117.335938 21.101562 117.335938 24.019531 C 117.335938 26.933594 119.753906 28.003906 124.777344 28.003906 C 129.804688 28.003906 134.441406 28.199219 139.851562 32.667969 C 144.765625 36.730469 146.40625 44.0625 146.667969 49.015625 C 146.738281 49.917969 146.714844 50.460938 146.714844 50.460938 C 146.101562 47.804688 145.328125 45.554688 144.421875 43.636719 C 142.589844 40.238281 136.8125 35.996094 134.347656 38.5625 Z M 259.617188 50.253906 C 258.21875 50.253906 257.375 50.253906 257.375 50.253906 C 258.078125 50.300781 258.835938 50.296875 259.617188 50.253906 Z M 287.773438 39.027344 L 289.8125 34.207031 C 289.8125 34.207031 284.867188 34.089844 279.339844 40.804688 C 274.421875 46.773438 265.9375 49.925781 259.617188 50.253906 C 261.195312 50.253906 263.480469 50.253906 266.101562 50.253906 C 271.046875 50.253906 282.394531 44.464844 288.792969 44.464844 C 295.191406 44.464844 300 48.941406 300 48.941406 C 300 48.941406 296.648438 36.6875 287.773438 39.027344 Z M 257.121094 48.929688 C 257.46875 48.921875 257.808594 48.902344 258.132812 48.867188 C 257.714844 48.902344 257.371094 48.921875 257.121094 48.929688 Z M 271.484375 40.179688 C 273.957031 31.269531 264.261719 28.929688 260.574219 32.148438 C 256.597656 35.625 259.703125 40.179688 259.703125 40.179688 C 259.703125 40.179688 261.15625 36.929688 264.355469 36.929688 C 267.394531 36.929688 267.042969 47.921875 258.132812 48.867188 C 261.496094 48.585938 269.539062 47.179688 271.484375 40.179688 Z M 257.121094 48.929688 C 256.820312 48.941406 256.648438 48.941406 256.648438 48.941406 C 256.808594 48.941406 256.960938 48.933594 257.121094 48.929688 Z M 238.753906 50.253906 C 239.140625 50.363281 239.65625 50.367188 240.242188 50.3125 C 239.234375 50.253906 238.621094 50.214844 238.753906 50.253906 Z M 250.683594 47.316406 C 248.84375 47.730469 243.390625 50.019531 240.242188 50.3125 C 242.796875 50.464844 247.890625 50.75 249.664062 50.253906 C 252.136719 49.5625 257.375 47.316406 257.375 47.316406 C 257.375 47.316406 252.863281 46.828125 250.683594 47.316406 Z M 223.339844 50.460938 C 231.582031 57.0625 239.921875 54.246094 239.921875 54.246094 C 239.921875 54.246094 236.136719 50.460938 233.230469 50.460938 C 230.320312 50.460938 222.757812 49.996094 223.339844 50.460938 Z M 247.917969 46.34375 C 249.957031 44.441406 254.757812 40.804688 254.757812 40.804688 C 254.757812 40.804688 246.613281 40.683594 238.753906 47.316406 C 238.753906 47.316406 245.886719 48.246094 247.917969 46.34375 Z M 254.757812 33.761719 C 254.757812 33.761719 250.539062 31.707031 247.773438 33.753906 C 247.773438 33.753906 250.539062 21.433594 241.664062 19.476562 C 241.664062 19.476562 244.65625 28.378906 240.792969 37.140625 C 236.933594 45.90625 217.375 48.832031 217.375 48.832031 C 217.375 48.832031 232.355469 49.957031 238.320312 44.929688 C 244.285156 39.90625 251.265625 33.613281 254.757812 33.761719 Z M 229.589844 41.753906 C 230.464844 37.855469 225.382812 41.890625 219.265625 46.34375 C 219.265625 46.34375 228.71875 45.652344 229.589844 41.753906 Z M 183.753906 36.929688 C 183.753906 36.929688 185.664062 40.929688 186.246094 45.464844 C 186.828125 50 193.480469 45.847656 183.753906 36.929688 Z M 218.101562 37.855469 C 217.40625 30.441406 213.007812 28.929688 213.007812 28.929688 C 219.121094 34.785156 216.0625 42.976562 211.703125 42.976562 C 207.335938 42.976562 202.539062 40.785156 198.027344 36.246094 C 193.519531 31.710938 187.84375 32.734375 187.84375 32.734375 C 196.136719 33.464844 202.101562 41.660156 205.882812 43.855469 C 209.664062 46.050781 218.796875 45.269531 218.101562 37.855469 Z M 214.175781 50.460938 C 201.082031 55.160156 196.136719 42.390625 196.136719 42.832031 C 196.136719 43.273438 197.300781 49.414062 197.300781 49.414062 C 193.953125 48.539062 193.226562 46.199219 188.574219 38.734375 C 183.917969 31.273438 176.5625 29.484375 176.351562 29.101562 C 170.832031 29.203125 165.183594 28.957031 159.953125 34.128906 C 156.621094 37.425781 155 40.054688 154.035156 45.03125 C 154.957031 41.699219 156.992188 37.480469 161.5 34.320312 C 170.1875 28.234375 181.851562 32.960938 183.753906 39.085938 C 185.65625 45.210938 182.953125 52.210938 176.671875 52.015625 C 170.390625 51.820312 169.738281 47.03125 171.742188 45.113281 C 173.902344 43.050781 176.382812 44.140625 176.382812 46.667969 C 176.382812 49.195312 174.355469 49.585938 173.484375 49.585938 C 173.484375 49.585938 173.625 51.335938 177.15625 51.140625 C 180.683594 50.945312 182.46875 46.949219 181.890625 41.753906 C 181.308594 36.558594 176.574219 31.113281 169.90625 32.570312 C 165.007812 33.644531 159.957031 35.769531 156.429688 41.988281 C 157.71875 39.847656 160.046875 37.082031 163.433594 37.140625 C 168.941406 37.238281 167.878906 44.019531 164.785156 44.417969 C 161.691406 44.820312 161.089844 42.414062 161.789062 41.226562 C 162.648438 39.773438 165.207031 40.679688 165.113281 42.917969 C 165.113281 42.917969 167.882812 40.886719 165.652344 38.5625 C 163.1875 35.996094 157.410156 40.238281 155.578125 43.636719 C 154.671875 45.554688 153.898438 47.804688 153.285156 50.460938 C 153.285156 50.460938 153.261719 49.917969 153.332031 49.015625 C 153.59375 44.0625 155.234375 36.730469 160.144531 32.667969 C 165.558594 28.199219 170.195312 28.003906 175.222656 28.003906 C 180.246094 28.003906 182.664062 26.933594 182.664062 24.019531 C 182.664062 21.101562 180.148438 20.519531 179.28125 21.585938 C 179.28125 21.585938 180.246094 21.976562 180.148438 23.4375 C 180.054688 24.894531 176.480469 25.183594 176.960938 22.269531 C 177.445312 19.351562 182.179688 19.15625 183.339844 21.976562 C 184.226562 24.128906 183.804688 27.015625 180.933594 28.347656 C 180.9375 28.347656 180.945312 28.347656 180.945312 28.347656 C 203.136719 29.523438 201.980469 14.003906 197.882812 14.003906 C 193.785156 14.003906 197.882812 18.394531 197.882812 18.394531 C 193.519531 18.542969 192.648438 10.539062 198.609375 10.539062 C 204.574219 10.539062 202.828125 20.882812 202.828125 20.882812 L 205.011719 19.96875 C 203.554688 29.394531 192.792969 29.515625 192.792969 29.515625 C 192.792969 29.515625 199.191406 29.371094 202.828125 35.210938 C 206.464844 41.058594 213.15625 40.488281 213.15625 36.246094 C 213.15625 32.003906 206.757812 28.34375 206.757812 28.34375 C 224.066406 23.515625 221.738281 38.148438 221.738281 38.148438 L 224.792969 36.101562 C 221.59375 48.976562 209.808594 47.511719 209.808594 47.511719 C 210.683594 49.269531 214.175781 50.460938 214.175781 50.460938 Z M 186.246094 25.710938 C 186.246094 25.710938 190.464844 22.273438 192.5 19.96875 C 194.539062 17.664062 200.644531 24.101562 186.246094 25.710938 Z M 186.246094 25.710938 " clip-rule="nonzero"/></clipPath><clipPath id="8eb0ae9f5f"><path d="M 149.9375 66.6875 C 157.855469 66.6875 149.9375 47.542969 149.9375 47.542969 C 149.9375 47.542969 142.015625 66.6875 149.9375 66.6875 Z M 149.9375 37.6875 C 157.558594 20.011719 170.617188 22.617188 170.617188 22.617188 C 169.703125 19.640625 165.945312 19.457031 165.945312 19.457031 C 157.582031 13.503906 152.429688 28.570312 152.429688 28.570312 C 152.929688 20.570312 159.1875 15.734375 159.1875 15.734375 C 157.566406 14.058594 153.410156 15.734375 153.410156 15.734375 C 153.410156 15.734375 154.707031 7.550781 149.9375 7.550781 C 145.167969 7.550781 146.460938 15.734375 146.460938 15.734375 C 146.460938 15.734375 142.304688 14.058594 140.683594 15.734375 C 140.683594 15.734375 146.945312 20.570312 147.441406 28.570312 C 147.441406 28.570312 142.292969 13.503906 133.925781 19.457031 C 133.925781 19.457031 130.167969 19.640625 129.253906 22.617188 C 129.253906 22.617188 142.316406 20.011719 149.9375 37.6875 Z M 20.660156 40.804688 C 15.132812 34.089844 10.1875 34.207031 10.1875 34.207031 L 12.226562 39.027344 C 3.351562 36.6875 0 48.941406 0 48.941406 C 0 48.941406 4.808594 44.464844 11.207031 44.464844 C 17.605469 44.464844 28.953125 50.253906 33.898438 50.253906 C 36.519531 50.253906 38.804688 50.253906 40.382812 50.253906 C 34.0625 49.925781 25.578125 46.773438 20.660156 40.804688 Z M 42.625 50.253906 C 42.625 50.253906 41.78125 50.253906 40.382812 50.253906 C 41.164062 50.296875 41.921875 50.300781 42.625 50.253906 Z M 42.878906 48.929688 C 43.035156 48.933594 43.191406 48.941406 43.351562 48.941406 C 43.351562 48.941406 43.179688 48.941406 42.878906 48.929688 Z M 42.878906 48.929688 C 42.628906 48.921875 42.285156 48.902344 41.867188 48.867188 C 42.191406 48.902344 42.53125 48.921875 42.878906 48.929688 Z M 35.644531 36.929688 C 38.84375 36.929688 40.296875 40.179688 40.296875 40.179688 C 40.296875 40.179688 43.402344 35.625 39.425781 32.148438 C 35.738281 28.929688 26.042969 31.269531 28.515625 40.179688 C 30.460938 47.179688 38.503906 48.585938 41.867188 48.867188 C 32.957031 47.921875 32.605469 36.929688 35.644531 36.929688 Z M 61.246094 50.253906 C 61.378906 50.214844 60.765625 50.253906 59.757812 50.3125 C 60.34375 50.367188 60.859375 50.363281 61.246094 50.253906 Z M 49.316406 47.316406 C 47.136719 46.828125 42.625 47.316406 42.625 47.316406 C 42.625 47.316406 47.863281 49.5625 50.335938 50.253906 C 52.109375 50.75 57.203125 50.464844 59.757812 50.3125 C 56.609375 50.019531 51.15625 47.730469 49.316406 47.316406 Z M 66.769531 50.460938 C 63.863281 50.460938 60.078125 54.246094 60.078125 54.246094 C 60.078125 54.246094 68.417969 57.0625 76.660156 50.460938 C 77.242188 49.996094 69.679688 50.460938 66.769531 50.460938 Z M 61.246094 47.316406 C 53.386719 40.683594 45.242188 40.804688 45.242188 40.804688 C 45.242188 40.804688 50.042969 44.441406 52.082031 46.34375 C 54.117188 48.246094 61.246094 47.316406 61.246094 47.316406 Z M 59.207031 37.140625 C 55.34375 28.378906 58.332031 19.476562 58.332031 19.476562 C 49.460938 21.433594 52.226562 33.753906 52.226562 33.753906 C 49.460938 31.707031 45.242188 33.761719 45.242188 33.761719 C 48.734375 33.613281 55.714844 39.90625 61.679688 44.929688 C 67.644531 49.957031 82.625 48.832031 82.625 48.832031 C 82.625 48.832031 63.066406 45.90625 59.207031 37.140625 Z M 80.734375 46.34375 C 74.617188 41.890625 69.535156 37.855469 70.410156 41.753906 C 71.28125 45.652344 80.734375 46.34375 80.734375 46.34375 Z M 113.753906 45.464844 C 114.335938 40.929688 116.246094 36.929688 116.246094 36.929688 C 106.519531 45.847656 113.171875 50 113.753906 45.464844 Z M 113.753906 25.710938 C 113.753906 25.710938 109.535156 22.273438 107.5 19.96875 C 105.460938 17.664062 99.355469 24.101562 113.753906 25.710938 Z M 112.15625 32.734375 C 112.15625 32.734375 106.480469 31.710938 101.972656 36.246094 C 97.460938 40.785156 92.664062 42.976562 88.296875 42.976562 C 83.933594 42.976562 80.878906 34.785156 86.992188 28.929688 C 86.992188 28.929688 82.59375 30.441406 81.898438 37.855469 C 81.203125 45.269531 90.335938 46.050781 94.117188 43.855469 C 97.898438 41.660156 103.863281 33.464844 112.15625 32.734375 Z M 134.347656 38.5625 C 132.117188 40.886719 134.890625 42.917969 134.890625 42.917969 C 134.792969 40.679688 137.351562 39.773438 138.210938 41.226562 C 138.910156 42.414062 138.308594 44.820312 135.214844 44.417969 C 132.121094 44.019531 131.058594 37.238281 136.566406 37.140625 C 139.953125 37.082031 142.28125 39.847656 143.570312 41.988281 C 140.042969 35.769531 134.992188 33.644531 130.09375 32.570312 C 123.425781 31.113281 118.691406 36.558594 118.109375 41.753906 C 117.53125 46.949219 119.316406 50.945312 122.84375 51.140625 C 126.375 51.335938 126.519531 49.585938 126.519531 49.585938 C 125.644531 49.585938 123.617188 49.195312 123.617188 46.667969 C 123.617188 44.140625 126.097656 43.050781 128.257812 45.113281 C 130.261719 47.03125 129.609375 51.820312 123.328125 52.015625 C 117.046875 52.210938 114.34375 45.210938 116.246094 39.085938 C 118.148438 32.960938 129.8125 28.234375 138.5 34.320312 C 143.007812 37.480469 145.042969 41.699219 145.964844 45.03125 C 145 40.054688 143.378906 37.425781 140.046875 34.128906 C 134.816406 28.957031 129.167969 29.203125 123.648438 29.101562 C 123.4375 29.484375 116.082031 31.273438 111.425781 38.734375 C 106.773438 46.199219 106.046875 48.539062 102.699219 49.414062 C 102.699219 49.414062 103.863281 43.273438 103.863281 42.832031 C 103.863281 42.390625 98.917969 55.160156 85.824219 50.460938 C 85.824219 50.460938 89.316406 49.269531 90.191406 47.511719 C 90.191406 47.511719 78.40625 48.976562 75.207031 36.101562 L 78.261719 38.148438 C 78.261719 38.148438 75.933594 23.515625 93.242188 28.34375 C 93.242188 28.34375 86.84375 32.003906 86.84375 36.246094 C 86.84375 40.488281 93.535156 41.058594 97.171875 35.210938 C 100.808594 29.371094 107.207031 29.515625 107.207031 29.515625 C 107.207031 29.515625 96.445312 29.394531 94.988281 19.96875 L 97.171875 20.882812 C 97.171875 20.882812 95.425781 10.539062 101.390625 10.539062 C 107.351562 10.539062 106.480469 18.542969 102.117188 18.394531 C 102.117188 18.394531 106.21875 14.003906 102.117188 14.003906 C 98.019531 14.003906 96.863281 29.523438 119.054688 28.347656 C 119.054688 28.347656 119.0625 28.347656 119.066406 28.347656 C 116.195312 27.015625 115.773438 24.128906 116.660156 21.976562 C 117.820312 19.15625 122.554688 19.351562 123.039062 22.269531 C 123.519531 25.183594 119.945312 24.894531 119.851562 23.4375 C 119.753906 21.976562 120.71875 21.585938 120.71875 21.585938 C 119.851562 20.519531 117.335938 21.101562 117.335938 24.019531 C 117.335938 26.933594 119.753906 28.003906 124.777344 28.003906 C 129.804688 28.003906 134.441406 28.199219 139.851562 32.667969 C 144.765625 36.730469 146.40625 44.0625 146.667969 49.015625 C 146.738281 49.917969 146.714844 50.460938 146.714844 50.460938 C 146.101562 47.804688 145.328125 45.554688 144.421875 43.636719 C 142.589844 40.238281 136.8125 35.996094 134.347656 38.5625 Z M 259.617188 50.253906 C 258.21875 50.253906 257.375 50.253906 257.375 50.253906 C 258.078125 50.300781 258.835938 50.296875 259.617188 50.253906 Z M 287.773438 39.027344 L 289.8125 34.207031 C 289.8125 34.207031 284.867188 34.089844 279.339844 40.804688 C 274.421875 46.773438 265.9375 49.925781 259.617188 50.253906 C 261.195312 50.253906 263.480469 50.253906 266.101562 50.253906 C 271.046875 50.253906 282.394531 44.464844 288.792969 44.464844 C 295.191406 44.464844 300 48.941406 300 48.941406 C 300 48.941406 296.648438 36.6875 287.773438 39.027344 Z M 257.121094 48.929688 C 257.46875 48.921875 257.808594 48.902344 258.132812 48.867188 C 257.714844 48.902344 257.371094 48.921875 257.121094 48.929688 Z M 271.484375 40.179688 C 273.957031 31.269531 264.261719 28.929688 260.574219 32.148438 C 256.597656 35.625 259.703125 40.179688 259.703125 40.179688 C 259.703125 40.179688 261.15625 36.929688 264.355469 36.929688 C 267.394531 36.929688 267.042969 47.921875 258.132812 48.867188 C 261.496094 48.585938 269.539062 47.179688 271.484375 40.179688 Z M 257.121094 48.929688 C 256.820312 48.941406 256.648438 48.941406 256.648438 48.941406 C 256.808594 48.941406 256.960938 48.933594 257.121094 48.929688 Z M 238.753906 50.253906 C 239.140625 50.363281 239.65625 50.367188 240.242188 50.3125 C 239.234375 50.253906 238.621094 50.214844 238.753906 50.253906 Z M 250.683594 47.316406 C 248.84375 47.730469 243.390625 50.019531 240.242188 50.3125 C 242.796875 50.464844 247.890625 50.75 249.664062 50.253906 C 252.136719 49.5625 257.375 47.316406 257.375 47.316406 C 257.375 47.316406 252.863281 46.828125 250.683594 47.316406 Z M 223.339844 50.460938 C 231.582031 57.0625 239.921875 54.246094 239.921875 54.246094 C 239.921875 54.246094 236.136719 50.460938 233.230469 50.460938 C 230.320312 50.460938 222.757812 49.996094 223.339844 50.460938 Z M 247.917969 46.34375 C 249.957031 44.441406 254.757812 40.804688 254.757812 40.804688 C 254.757812 40.804688 246.613281 40.683594 238.753906 47.316406 C 238.753906 47.316406 245.886719 48.246094 247.917969 46.34375 Z M 254.757812 33.761719 C 254.757812 33.761719 250.539062 31.707031 247.773438 33.753906 C 247.773438 33.753906 250.539062 21.433594 241.664062 19.476562 C 241.664062 19.476562 244.65625 28.378906 240.792969 37.140625 C 236.933594 45.90625 217.375 48.832031 217.375 48.832031 C 217.375 48.832031 232.355469 49.957031 238.320312 44.929688 C 244.285156 39.90625 251.265625 33.613281 254.757812 33.761719 Z M 229.589844 41.753906 C 230.464844 37.855469 225.382812 41.890625 219.265625 46.34375 C 219.265625 46.34375 228.71875 45.652344 229.589844 41.753906 Z M 183.753906 36.929688 C 183.753906 36.929688 185.664062 40.929688 186.246094 45.464844 C 186.828125 50 193.480469 45.847656 183.753906 36.929688 Z M 218.101562 37.855469 C 217.40625 30.441406 213.007812 28.929688 213.007812 28.929688 C 219.121094 34.785156 216.0625 42.976562 211.703125 42.976562 C 207.335938 42.976562 202.539062 40.785156 198.027344 36.246094 C 193.519531 31.710938 187.84375 32.734375 187.84375 32.734375 C 196.136719 33.464844 202.101562 41.660156 205.882812 43.855469 C 209.664062 46.050781 218.796875 45.269531 218.101562 37.855469 Z M 214.175781 50.460938 C 201.082031 55.160156 196.136719 42.390625 196.136719 42.832031 C 196.136719 43.273438 197.300781 49.414062 197.300781 49.414062 C 193.953125 48.539062 193.226562 46.199219 188.574219 38.734375 C 183.917969 31.273438 176.5625 29.484375 176.351562 29.101562 C 170.832031 29.203125 165.183594 28.957031 159.953125 34.128906 C 156.621094 37.425781 155 40.054688 154.035156 45.03125 C 154.957031 41.699219 156.992188 37.480469 161.5 34.320312 C 170.1875 28.234375 181.851562 32.960938 183.753906 39.085938 C 185.65625 45.210938 182.953125 52.210938 176.671875 52.015625 C 170.390625 51.820312 169.738281 47.03125 171.742188 45.113281 C 173.902344 43.050781 176.382812 44.140625 176.382812 46.667969 C 176.382812 49.195312 174.355469 49.585938 173.484375 49.585938 C 173.484375 49.585938 173.625 51.335938 177.15625 51.140625 C 180.683594 50.945312 182.46875 46.949219 181.890625 41.753906 C 181.308594 36.558594 176.574219 31.113281 169.90625 32.570312 C 165.007812 33.644531 159.957031 35.769531 156.429688 41.988281 C 157.71875 39.847656 160.046875 37.082031 163.433594 37.140625 C 168.941406 37.238281 167.878906 44.019531 164.785156 44.417969 C 161.691406 44.820312 161.089844 42.414062 161.789062 41.226562 C 162.648438 39.773438 165.207031 40.679688 165.113281 42.917969 C 165.113281 42.917969 167.882812 40.886719 165.652344 38.5625 C 163.1875 35.996094 157.410156 40.238281 155.578125 43.636719 C 154.671875 45.554688 153.898438 47.804688 153.285156 50.460938 C 153.285156 50.460938 153.261719 49.917969 153.332031 49.015625 C 153.59375 44.0625 155.234375 36.730469 160.144531 32.667969 C 165.558594 28.199219 170.195312 28.003906 175.222656 28.003906 C 180.246094 28.003906 182.664062 26.933594 182.664062 24.019531 C 182.664062 21.101562 180.148438 20.519531 179.28125 21.585938 C 179.28125 21.585938 180.246094 21.976562 180.148438 23.4375 C 180.054688 24.894531 176.480469 25.183594 176.960938 22.269531 C 177.445312 19.351562 182.179688 19.15625 183.339844 21.976562 C 184.226562 24.128906 183.804688 27.015625 180.933594 28.347656 C 180.9375 28.347656 180.945312 28.347656 180.945312 28.347656 C 203.136719 29.523438 201.980469 14.003906 197.882812 14.003906 C 193.785156 14.003906 197.882812 18.394531 197.882812 18.394531 C 193.519531 18.542969 192.648438 10.539062 198.609375 10.539062 C 204.574219 10.539062 202.828125 20.882812 202.828125 20.882812 L 205.011719 19.96875 C 203.554688 29.394531 192.792969 29.515625 192.792969 29.515625 C 192.792969 29.515625 199.191406 29.371094 202.828125 35.210938 C 206.464844 41.058594 213.15625 40.488281 213.15625 36.246094 C 213.15625 32.003906 206.757812 28.34375 206.757812 28.34375 C 224.066406 23.515625 221.738281 38.148438 221.738281 38.148438 L 224.792969 36.101562 C 221.59375 48.976562 209.808594 47.511719 209.808594 47.511719 C 210.683594 49.269531 214.175781 50.460938 214.175781 50.460938 Z M 186.246094 25.710938 C 186.246094 25.710938 190.464844 22.273438 192.5 19.96875 C 194.539062 17.664062 200.644531 24.101562 186.246094 25.710938 " clip-rule="nonzero"/></clipPath><clipPath id="3b8337f3b7"><path d="M 0.519531 -5.003906 L -2.445312 66.585938 L 299.480469 79.242188 L 302.445312 7.652344 Z M 0.519531 -5.003906 " clip-rule="nonzero"/></clipPath><radialGradient gradientTransform="matrix(0.99616, 0.0417554, -0.0415076, 1.002106, 157.830887, 34.214243)" gradientUnits="userSpaceOnUse" r="131.413624" cx="0" id="4d953fecd9" cy="0" fx="0" fy="0"><stop stop-opacity="1" stop-color="rgb(95.503235%, 88.804626%, 37.103271%)" offset="0"/><stop stop-opacity="1" stop-color="rgb(95.303345%, 88.60321%, 36.903381%)" offset="0.0078125"/><stop stop-opacity="1" stop-color="rgb(95.298767%, 88.598633%, 36.717224%)" offset="0.0117188"/><stop stop-opacity="1" stop-color="rgb(95.121765%, 88.421631%, 36.517334%)" offset="0.015625"/><stop stop-opacity="1" stop-color="rgb(94.900513%, 88.021851%, 36.499023%)" offset="0.0195312"/><stop stop-opacity="1" stop-color="rgb(94.659424%, 87.785339%, 36.482239%)" offset="0.0234375"/><stop stop-opacity="1" stop-color="rgb(94.281006%, 87.631226%, 36.282349%)" offset="0.0273438"/><stop stop-opacity="1" stop-color="rgb(94.099426%, 87.295532%, 36.099243%)" offset="0.03125"/><stop stop-opacity="1" stop-color="rgb(94.099426%, 87.098694%, 36.099243%)" offset="0.0429688"/><stop stop-opacity="1" stop-color="rgb(93.910217%, 87.098694%, 35.910034%)" offset="0.046875"/><stop stop-opacity="1" stop-color="rgb(93.710327%, 86.914062%, 35.710144%)" offset="0.0507812"/><stop stop-opacity="1" stop-color="rgb(93.699646%, 86.714172%, 35.519409%)" offset="0.0546875"/><stop stop-opacity="1" stop-color="rgb(93.699646%, 86.523438%, 35.319519%)" offset="0.0585938"/><stop stop-opacity="1" stop-color="rgb(93.499756%, 86.303711%, 35.27832%)" offset="0.0625"/><stop stop-opacity="1" stop-color="rgb(93.299866%, 86.077881%, 35.07843%)" offset="0.0664062"/><stop stop-opacity="1" stop-color="rgb(93.287659%, 85.888672%, 34.899902%)" offset="0.0703125"/><stop stop-opacity="1" stop-color="rgb(93.087769%, 85.688782%, 34.899902%)" offset="0.0742188"/><stop stop-opacity="1" stop-color="rgb(92.89856%, 85.499573%, 34.898376%)" offset="0.078125"/><stop stop-opacity="1" stop-color="rgb(92.89856%, 85.499573%, 34.701538%)" offset="0.0820312"/><stop stop-opacity="1" stop-color="rgb(92.89856%, 85.307312%, 34.501648%)" offset="0.0859375"/><stop stop-opacity="1" stop-color="rgb(92.710876%, 85.107422%, 34.310913%)" offset="0.0898438"/><stop stop-opacity="1" stop-color="rgb(92.510986%, 84.916687%, 34.111023%)" offset="0.09375"/><stop stop-opacity="1" stop-color="rgb(92.498779%, 84.715271%, 34.098816%)" offset="0.0976562"/><stop stop-opacity="1" stop-color="rgb(92.480469%, 84.498596%, 34.075928%)" offset="0.101562"/><stop stop-opacity="1" stop-color="rgb(92.330933%, 84.280396%, 33.876038%)" offset="0.105469"/><stop stop-opacity="1" stop-color="rgb(92.199707%, 84.080505%, 33.699036%)" offset="0.109375"/><stop stop-opacity="1" stop-color="rgb(92.199707%, 83.889771%, 33.68988%)" offset="0.113281"/><stop stop-opacity="1" stop-color="rgb(92.195129%, 83.68988%, 33.48999%)" offset="0.117188"/><stop stop-opacity="1" stop-color="rgb(91.995239%, 83.36792%, 33.16803%)" offset="0.121094"/><stop stop-opacity="1" stop-color="rgb(91.799927%, 83.172607%, 32.972717%)" offset="0.132812"/><stop stop-opacity="1" stop-color="rgb(91.618347%, 83.103943%, 32.904053%)" offset="0.136719"/><stop stop-opacity="1" stop-color="rgb(91.416931%, 82.922363%, 32.899475%)" offset="0.140625"/><stop stop-opacity="1" stop-color="rgb(91.19873%, 82.705688%, 32.876587%)" offset="0.144531"/><stop stop-opacity="1" stop-color="rgb(90.982056%, 82.531738%, 32.676697%)" offset="0.148438"/><stop stop-opacity="1" stop-color="rgb(90.782166%, 82.38678%, 32.499695%)" offset="0.152344"/><stop stop-opacity="1" stop-color="rgb(90.59906%, 82.18689%, 32.493591%)" offset="0.15625"/><stop stop-opacity="1" stop-color="rgb(90.59906%, 81.996155%, 32.342529%)" offset="0.160156"/><stop stop-opacity="1" stop-color="rgb(90.59906%, 81.797791%, 32.199097%)" offset="0.164062"/><stop stop-opacity="1" stop-color="rgb(90.405273%, 81.600952%, 32.199097%)" offset="0.167969"/><stop stop-opacity="1" stop-color="rgb(90.205383%, 81.410217%, 32.009888%)" offset="0.171875"/><stop stop-opacity="1" stop-color="rgb(90.19928%, 81.210327%, 31.809998%)" offset="0.175781"/><stop stop-opacity="1" stop-color="rgb(90.19928%, 81.019592%, 31.799316%)" offset="0.179688"/><stop stop-opacity="1" stop-color="rgb(90.023804%, 80.819702%, 31.799316%)" offset="0.183594"/><stop stop-opacity="1" stop-color="rgb(89.804077%, 80.59845%, 31.599426%)" offset="0.1875"/><stop stop-opacity="1" stop-color="rgb(89.578247%, 80.383301%, 31.399536%)" offset="0.191406"/><stop stop-opacity="1" stop-color="rgb(89.387512%, 80.183411%, 31.387329%)" offset="0.195312"/><stop stop-opacity="1" stop-color="rgb(89.187622%, 79.992676%, 31.187439%)" offset="0.199219"/><stop stop-opacity="1" stop-color="rgb(88.999939%, 79.792786%, 30.999756%)" offset="0.203125"/><stop stop-opacity="1" stop-color="rgb(88.999939%, 79.598999%, 30.999756%)" offset="0.207031"/><stop stop-opacity="1" stop-color="rgb(88.999939%, 79.406738%, 30.807495%)" offset="0.210938"/><stop stop-opacity="1" stop-color="rgb(88.812256%, 79.206848%, 30.607605%)" offset="0.214844"/><stop stop-opacity="1" stop-color="rgb(88.61084%, 79.016113%, 30.41687%)" offset="0.21875"/><stop stop-opacity="1" stop-color="rgb(88.598633%, 78.816223%, 30.215454%)" offset="0.222656"/><stop stop-opacity="1" stop-color="rgb(88.575745%, 78.599548%, 30.175781%)" offset="0.226562"/><stop stop-opacity="1" stop-color="rgb(88.375854%, 78.379822%, 29.975891%)" offset="0.230469"/><stop stop-opacity="1" stop-color="rgb(88.18512%, 78.179932%, 29.798889%)" offset="0.234375"/><stop stop-opacity="1" stop-color="rgb(87.985229%, 77.999878%, 29.798889%)" offset="0.238281"/><stop stop-opacity="1" stop-color="rgb(87.796021%, 77.993774%, 29.794312%)" offset="0.242188"/><stop stop-opacity="1" stop-color="rgb(87.646484%, 77.793884%, 29.594421%)" offset="0.246094"/><stop stop-opacity="1" stop-color="rgb(87.306213%, 77.453613%, 29.205322%)" offset="0.25"/><stop stop-opacity="1" stop-color="rgb(87.106323%, 77.116394%, 29.005432%)" offset="0.261719"/><stop stop-opacity="1" stop-color="rgb(87.001038%, 76.812744%, 28.900146%)" offset="0.269531"/><stop stop-opacity="1" stop-color="rgb(86.801147%, 76.591492%, 28.700256%)" offset="0.273438"/><stop stop-opacity="1" stop-color="rgb(86.694336%, 76.286316%, 28.594971%)" offset="0.277344"/><stop stop-opacity="1" stop-color="rgb(86.495972%, 75.895691%, 28.396606%)" offset="0.285156"/><stop stop-opacity="1" stop-color="rgb(86.299133%, 75.505066%, 28.005981%)" offset="0.292969"/><stop stop-opacity="1" stop-color="rgb(86.108398%, 75.114441%, 27.804565%)" offset="0.300781"/><stop stop-opacity="1" stop-color="rgb(85.809326%, 74.809265%, 27.723694%)" offset="0.308594"/><stop stop-opacity="1" stop-color="rgb(85.598755%, 74.598694%, 27.46582%)" offset="0.3125"/><stop stop-opacity="1" stop-color="rgb(85.395813%, 74.395752%, 27.191162%)" offset="0.320312"/><stop stop-opacity="1" stop-color="rgb(85.195923%, 74.098206%, 27.000427%)" offset="0.328125"/><stop stop-opacity="1" stop-color="rgb(85.005188%, 73.707581%, 26.800537%)" offset="0.335938"/><stop stop-opacity="1" stop-color="rgb(84.814453%, 73.414612%, 26.699829%)" offset="0.34375"/><stop stop-opacity="1" stop-color="rgb(84.707642%, 73.205566%, 26.699829%)" offset="0.347656"/><stop stop-opacity="1" stop-color="rgb(84.686279%, 72.98584%, 26.687622%)" offset="0.351562"/><stop stop-opacity="1" stop-color="rgb(84.480286%, 72.68219%, 26.480103%)" offset="0.355469"/><stop stop-opacity="1" stop-color="rgb(84.089661%, 72.340393%, 26.091003%)" offset="0.363281"/><stop stop-opacity="1" stop-color="rgb(83.699036%, 71.998596%, 25.898743%)" offset="0.371094"/><stop stop-opacity="1" stop-color="rgb(83.500671%, 71.607971%, 25.704956%)" offset="0.378906"/><stop stop-opacity="1" stop-color="rgb(83.309937%, 71.217346%, 25.505066%)" offset="0.386719"/><stop stop-opacity="1" stop-color="rgb(83.110046%, 71.009827%, 25.39978%)" offset="0.394531"/><stop stop-opacity="1" stop-color="rgb(82.992554%, 70.892334%, 25.19989%)" offset="0.398438"/><stop stop-opacity="1" stop-color="rgb(82.792664%, 70.591736%, 25.099182%)" offset="0.40625"/><stop stop-opacity="1" stop-color="rgb(82.626343%, 70.297241%, 25.001526%)" offset="0.414062"/><stop stop-opacity="1" stop-color="rgb(82.476807%, 70.106506%, 24.710083%)" offset="0.421875"/><stop stop-opacity="1" stop-color="rgb(82.398987%, 69.917297%, 24.417114%)" offset="0.429688"/><stop stop-opacity="1" stop-color="rgb(82.298279%, 69.709778%, 24.308777%)" offset="0.433594"/><stop stop-opacity="1" stop-color="rgb(82.098389%, 69.488525%, 24.28894%)" offset="0.4375"/><stop stop-opacity="1" stop-color="rgb(81.993103%, 69.18335%, 24.082947%)" offset="0.441406"/><stop stop-opacity="1" stop-color="rgb(81.793213%, 68.792725%, 23.692322%)" offset="0.449219"/><stop stop-opacity="1" stop-color="rgb(81.407166%, 68.406677%, 23.3078%)" offset="0.464844"/><stop stop-opacity="1" stop-color="rgb(81.207275%, 68.106079%, 23.10791%)" offset="0.472656"/><stop stop-opacity="1" stop-color="rgb(81.089783%, 67.814636%, 22.988892%)" offset="0.476562"/><stop stop-opacity="1" stop-color="rgb(80.784607%, 67.462158%, 22.789001%)" offset="0.484375"/><stop stop-opacity="1" stop-color="rgb(80.493164%, 67.094421%, 22.624207%)" offset="0.492188"/><stop stop-opacity="1" stop-color="rgb(80.39856%, 66.798401%, 22.47467%)" offset="0.5"/><stop stop-opacity="1" stop-color="rgb(80.212402%, 66.513062%, 22.399902%)" offset="0.507812"/><stop stop-opacity="1" stop-color="rgb(80.012512%, 66.313171%, 22.218323%)" offset="0.511719"/><stop stop-opacity="1" stop-color="rgb(79.821777%, 66.122437%, 22.016907%)" offset="0.515625"/><stop stop-opacity="1" stop-color="rgb(79.484558%, 65.783691%, 21.861267%)" offset="0.519531"/><stop stop-opacity="1" stop-color="rgb(79.26178%, 65.560913%, 21.661377%)" offset="0.53125"/><stop stop-opacity="1" stop-color="rgb(79.199219%, 65.306091%, 21.598816%)" offset="0.542969"/><stop stop-opacity="1" stop-color="rgb(79.01001%, 65.104675%, 21.598816%)" offset="0.546875"/><stop stop-opacity="1" stop-color="rgb(78.81012%, 64.91394%, 21.598816%)" offset="0.550781"/><stop stop-opacity="1" stop-color="rgb(78.799438%, 64.71405%, 21.418762%)" offset="0.554688"/><stop stop-opacity="1" stop-color="rgb(78.623962%, 64.523315%, 21.218872%)" offset="0.558594"/><stop stop-opacity="1" stop-color="rgb(78.40271%, 64.303589%, 21.179199%)" offset="0.5625"/><stop stop-opacity="1" stop-color="rgb(78.178406%, 64.073181%, 20.973206%)" offset="0.566406"/><stop stop-opacity="1" stop-color="rgb(77.807617%, 63.693237%, 20.593262%)" offset="0.578125"/><stop stop-opacity="1" stop-color="rgb(77.606201%, 63.311768%, 20.211792%)" offset="0.589844"/><stop stop-opacity="1" stop-color="rgb(77.598572%, 63.111877%, 20.011902%)" offset="0.59375"/><stop stop-opacity="1" stop-color="rgb(77.598572%, 62.921143%, 19.999695%)" offset="0.597656"/><stop stop-opacity="1" stop-color="rgb(77.449036%, 62.702942%, 19.799805%)" offset="0.601562"/><stop stop-opacity="1" stop-color="rgb(77.279663%, 62.532043%, 19.599915%)" offset="0.605469"/><stop stop-opacity="1" stop-color="rgb(77.079773%, 62.385559%, 19.584656%)" offset="0.609375"/><stop stop-opacity="1" stop-color="rgb(76.899719%, 62.185669%, 19.384766%)" offset="0.613281"/><stop stop-opacity="1" stop-color="rgb(76.899719%, 61.994934%, 19.198608%)" offset="0.617188"/><stop stop-opacity="1" stop-color="rgb(76.899719%, 61.795044%, 19.198608%)" offset="0.621094"/><stop stop-opacity="1" stop-color="rgb(76.704407%, 61.599731%, 19.003296%)" offset="0.625"/><stop stop-opacity="1" stop-color="rgb(76.504517%, 61.413574%, 18.803406%)" offset="0.628906"/><stop stop-opacity="1" stop-color="rgb(76.318359%, 61.032104%, 18.617249%)" offset="0.636719"/><stop stop-opacity="1" stop-color="rgb(75.941467%, 60.816956%, 18.417358%)" offset="0.640625"/><stop stop-opacity="1" stop-color="rgb(75.721741%, 60.588074%, 18.199158%)" offset="0.644531"/><stop stop-opacity="1" stop-color="rgb(75.692749%, 60.188293%, 17.993164%)" offset="0.648438"/><stop stop-opacity="1" stop-color="rgb(75.492859%, 59.997559%, 17.793274%)" offset="0.65625"/><stop stop-opacity="1" stop-color="rgb(75.299072%, 59.80072%, 17.599487%)" offset="0.664062"/><stop stop-opacity="1" stop-color="rgb(75.106812%, 59.410095%, 17.454529%)" offset="0.671875"/><stop stop-opacity="1" stop-color="rgb(74.906921%, 59.01947%, 17.304993%)" offset="0.679688"/><stop stop-opacity="1" stop-color="rgb(74.801636%, 58.714294%, 17.201233%)" offset="0.6875"/><stop stop-opacity="1" stop-color="rgb(74.594116%, 58.493042%, 17.001343%)" offset="0.691406"/><stop stop-opacity="1" stop-color="rgb(74.291992%, 58.190918%, 16.896057%)" offset="0.695312"/><stop stop-opacity="1" stop-color="rgb(74.099731%, 57.998657%, 16.697693%)" offset="0.703125"/><stop stop-opacity="1" stop-color="rgb(73.907471%, 57.806396%, 16.500854%)" offset="0.710938"/><stop stop-opacity="1" stop-color="rgb(73.707581%, 57.606506%, 16.316223%)" offset="0.714844"/><stop stop-opacity="1" stop-color="rgb(73.521423%, 57.4646%, 16.116333%)" offset="0.722656"/><stop stop-opacity="1" stop-color="rgb(73.309326%, 57.302856%, 15.887451%)" offset="0.726562"/><stop stop-opacity="1" stop-color="rgb(73.086548%, 57.080078%, 15.487671%)" offset="0.730469"/><stop stop-opacity="1" stop-color="rgb(72.895813%, 56.689453%, 15.296936%)" offset="0.738281"/><stop stop-opacity="1" stop-color="rgb(72.698975%, 56.298828%, 15.098572%)" offset="0.746094"/><stop stop-opacity="1" stop-color="rgb(72.50061%, 55.909729%, 14.900208%)" offset="0.753906"/><stop stop-opacity="1" stop-color="rgb(72.499084%, 55.708313%, 14.898682%)" offset="0.757812"/><stop stop-opacity="1" stop-color="rgb(72.499084%, 55.699158%, 14.717102%)" offset="0.761719"/><stop stop-opacity="1" stop-color="rgb(72.499084%, 55.699158%, 14.517212%)" offset="0.765625"/><stop stop-opacity="1" stop-color="rgb(72.348022%, 55.499268%, 14.477539%)" offset="0.769531"/><stop stop-opacity="1" stop-color="rgb(72.198486%, 55.299377%, 14.277649%)" offset="0.773438"/><stop stop-opacity="1" stop-color="rgb(72.186279%, 55.28717%, 14.099121%)" offset="0.777344"/><stop stop-opacity="1" stop-color="rgb(71.986389%, 55.079651%, 14.091492%)" offset="0.78125"/><stop stop-opacity="1" stop-color="rgb(71.795654%, 54.692078%, 13.891602%)" offset="0.785156"/><stop stop-opacity="1" stop-color="rgb(71.59729%, 54.499817%, 13.699341%)" offset="0.789062"/><stop stop-opacity="1" stop-color="rgb(71.400452%, 54.304504%, 13.504028%)" offset="0.792969"/><stop stop-opacity="1" stop-color="rgb(71.398926%, 54.103088%, 13.304138%)" offset="0.804688"/><stop stop-opacity="1" stop-color="rgb(71.398926%, 53.923035%, 13.299561%)" offset="0.808594"/><stop stop-opacity="1" stop-color="rgb(71.188354%, 53.713989%, 13.09967%)" offset="0.8125"/><stop stop-opacity="1" stop-color="rgb(70.788574%, 53.483582%, 12.89978%)" offset="0.816406"/><stop stop-opacity="1" stop-color="rgb(70.597839%, 53.092957%, 12.898254%)" offset="0.824219"/><stop stop-opacity="1" stop-color="rgb(70.402527%, 52.702332%, 12.702942%)" offset="0.832031"/><stop stop-opacity="1" stop-color="rgb(70.011902%, 52.359009%, 12.503052%)" offset="0.839844"/><stop stop-opacity="1" stop-color="rgb(69.807434%, 52.104187%, 12.5%)" offset="0.847656"/><stop stop-opacity="1" stop-color="rgb(69.787598%, 51.885986%, 12.5%)" offset="0.851562"/><stop stop-opacity="1" stop-color="rgb(69.584656%, 51.585388%, 12.348938%)" offset="0.855469"/><stop stop-opacity="1" stop-color="rgb(69.198608%, 51.199341%, 12.199402%)" offset="0.871094"/><stop stop-opacity="1" stop-color="rgb(69.000244%, 51.000977%, 12.199402%)" offset="0.878906"/><stop stop-opacity="1" stop-color="rgb(68.998718%, 50.813293%, 12.013245%)" offset="0.882812"/><stop stop-opacity="1" stop-color="rgb(68.817139%, 50.613403%, 11.813354%)" offset="0.886719"/><stop stop-opacity="1" stop-color="rgb(68.617249%, 50.59967%, 11.799622%)" offset="0.890625"/><stop stop-opacity="1" stop-color="rgb(68.598938%, 50.39978%, 11.799622%)" offset="0.894531"/><stop stop-opacity="1" stop-color="rgb(68.582153%, 50.18158%, 11.781311%)" offset="0.898438"/><stop stop-opacity="1" stop-color="rgb(68.382263%, 49.969482%, 11.581421%)" offset="0.902344"/><stop stop-opacity="1" stop-color="rgb(68.19458%, 49.581909%, 11.399841%)" offset="0.90625"/><stop stop-opacity="1" stop-color="rgb(67.996216%, 49.195862%, 11.399841%)" offset="0.910156"/><stop stop-opacity="1" stop-color="rgb(67.654419%, 48.999023%, 11.399841%)" offset="0.917969"/><stop stop-opacity="1" stop-color="rgb(67.503357%, 48.808289%, 11.399841%)" offset="0.925781"/><stop stop-opacity="1" stop-color="rgb(67.498779%, 48.509216%, 11.399841%)" offset="0.933594"/><stop stop-opacity="1" stop-color="rgb(67.478943%, 48.298645%, 11.399841%)" offset="0.9375"/><stop stop-opacity="1" stop-color="rgb(67.279053%, 48.182678%, 11.399841%)" offset="0.941406"/><stop stop-opacity="1" stop-color="rgb(67.098999%, 47.982788%, 11.399841%)" offset="0.945312"/><stop stop-opacity="1" stop-color="rgb(67.092896%, 47.795105%, 11.399841%)" offset="0.949219"/><stop stop-opacity="1" stop-color="rgb(66.891479%, 47.644043%, 11.399841%)" offset="0.953125"/><stop stop-opacity="1" stop-color="rgb(66.50238%, 47.302246%, 11.399841%)" offset="0.957031"/><stop stop-opacity="1" stop-color="rgb(66.30249%, 47.102356%, 11.399841%)" offset="0.964844"/><stop stop-opacity="1" stop-color="rgb(66.299438%, 46.920776%, 11.399841%)" offset="0.972656"/><stop stop-opacity="1" stop-color="rgb(66.099548%, 46.708679%, 11.399841%)" offset="0.976562"/><stop stop-opacity="1" stop-color="rgb(65.899658%, 46.577454%, 11.399841%)" offset="0.980469"/><stop stop-opacity="1" stop-color="rgb(65.884399%, 46.374512%, 11.399841%)" offset="0.984375"/><stop stop-opacity="1" stop-color="rgb(65.684509%, 46.084595%, 11.399841%)" offset="0.988281"/><stop stop-opacity="1" stop-color="rgb(65.499878%, 45.899963%, 11.399841%)" offset="1"/></radialGradient></defs><g clip-path="url(#bddc78cdf7)"><g clip-path="url(#a0ed2cc498)"><g clip-path="url(#8eb0ae9f5f)"><g clip-path="url(#3b8337f3b7)"><path fill="url(#4d953fecd9)" d="M 0.519531 -5.003906 L -2.445312 66.585938 L 299.480469 79.242188 L 302.445312 7.652344 Z M 0.519531 -5.003906 " fill-rule="nonzero"/></g></g></g></g></svg>