<svg xmlns="http://www.w3.org/2000/svg" xmlns:xlink="http://www.w3.org/1999/xlink" width="400" zoomAndPan="magnify" viewBox="0 0 300 74.999997" height="100" preserveAspectRatio="xMidYMid meet" version="1.0"><defs><clipPath id="89a8184792"><path d="M 123 37 L 177 37 L 177 61.5 L 123 61.5 Z M 123 37 " clip-rule="nonzero"/></clipPath></defs><path fill="#c39d35" d="M 18.398438 8.035156 C 21.910156 7.953125 25.347656 9.222656 25.347656 9.222656 C 25.347656 9.222656 17.078125 3.25 8.261719 8.179688 C 8.261719 8.179688 5.167969 10.015625 3.429688 7.90625 C 3.429688 7.90625 2.828125 6.8125 1.484375 7.894531 C 0.144531 8.972656 1.253906 10.136719 1.484375 10.234375 C 1.71875 10.328125 4.019531 11.125 5.988281 10.082031 C 7.960938 9.042969 10.21875 8.589844 10.21875 8.589844 C 10.21875 8.589844 6.632812 10.589844 7.90625 11.328125 C 9.179688 12.070312 10.726562 10.097656 11.179688 9.371094 C 11.179688 9.371094 11.5625 12.574219 14.601562 12.574219 C 17.640625 12.574219 17.394531 9.023438 15.15625 9.90625 C 15.15625 9.90625 14.886719 8.117188 18.398438 8.035156 " fill-opacity="1" fill-rule="nonzero"/><path fill="#c39d35" d="M 24.855469 12.230469 C 24.855469 12.230469 22.363281 13.710938 22.992188 15.683594 C 23.714844 17.941406 25.511719 16.640625 25.511719 16.640625 C 24.28125 14.613281 24.855469 12.230469 24.855469 12.230469 " fill-opacity="1" fill-rule="nonzero"/><path fill="#c39d35" d="M 77.125 21.898438 C 82.460938 24.917969 88.515625 26.691406 92.84375 27.101562 C 97.167969 27.511719 99.960938 26.28125 101.523438 24.417969 C 103.082031 22.554688 101.277344 21.132812 100.511719 20.886719 C 99.742188 20.640625 97.664062 20.363281 97.140625 21.542969 C 96.621094 22.71875 97.855469 23.320312 97.855469 23.320312 C 97.46875 24.855469 93.363281 25.183594 94.320312 24.554688 C 95.28125 23.925781 95.144531 22.554688 93.472656 22.28125 C 91.804688 22.007812 91.582031 22.828125 90.761719 23.066406 C 89.941406 23.300781 90.160156 22.746094 90.160156 22.746094 C 90.925781 21.871094 89.859375 20.859375 88.761719 20.0625 C 87.667969 19.269531 85.394531 19.84375 85.148438 21.023438 C 84.902344 22.199219 86.136719 22.527344 86.136719 22.527344 C 84.082031 24.035156 77.125 21.898438 77.125 21.898438 " fill-opacity="1" fill-rule="nonzero"/><path fill="#c39d35" d="M 71.238281 24.554688 C 71.238281 24.554688 80 28.714844 80.550781 33.507812 C 81.097656 38.300781 79.726562 39.695312 76.851562 38.328125 C 76.851562 38.328125 78.660156 38.382812 78.414062 37.066406 C 78.167969 35.753906 77.265625 34.601562 75.265625 35.152344 C 73.265625 35.699219 73.785156 37.671875 74.140625 38.300781 C 74.496094 38.929688 76.167969 41.777344 80.082031 41.667969 C 84 41.558594 85.75 39.96875 85.722656 38.136719 C 85.695312 36.300781 84.300781 28.402344 71.238281 24.554688 " fill-opacity="1" fill-rule="nonzero"/><path fill="#c39d35" d="M 86.957031 35.726562 C 86.957031 35.726562 89.449219 39.148438 90.269531 42.269531 C 91.089844 45.390625 93.554688 43.96875 93.554688 43.96875 C 93.554688 43.96875 95.226562 43.285156 93.335938 40.847656 C 91.445312 38.410156 86.957031 35.726562 86.957031 35.726562 " fill-opacity="1" fill-rule="nonzero"/><path fill="#c39d35" d="M 118.746094 39.722656 C 116.800781 39.148438 116.691406 38.546875 116.691406 38.546875 C 116.609375 34.464844 108.613281 36.410156 108.613281 36.410156 C 109.738281 33.5625 107.054688 33.644531 107.054688 33.644531 C 99.660156 39.96875 85.121094 31.71875 85.121094 31.71875 C 97.582031 38.878906 106.039062 39.285156 108.121094 39.613281 C 110.203125 39.941406 119.046875 40.957031 122.90625 43.035156 C 126.769531 45.117188 126.660156 47.773438 126.140625 49.007812 C 125.621094 50.238281 123.019531 51.195312 121.839844 50.183594 C 120.664062 49.171875 122.800781 48.652344 123.8125 48.511719 C 124.824219 48.375 124.085938 46.652344 124.085938 46.652344 C 121.238281 42.242188 114.640625 46.980469 119.320312 50.648438 C 124.003906 54.316406 128.769531 51.523438 128.769531 51.523438 C 128.769531 51.523438 131.699219 49.746094 130.191406 46.078125 C 128.6875 42.40625 120.691406 40.300781 118.746094 39.722656 " fill-opacity="1" fill-rule="nonzero"/><path fill="#c39d35" d="M 123.921875 25.265625 C 123.921875 25.265625 122.714844 24.335938 120.855469 27.179688 C 118.992188 30.023438 112.3125 32.054688 112.3125 32.054688 C 118.335938 32.113281 121.675781 30.03125 123.539062 28.277344 C 125.398438 26.527344 123.921875 25.265625 123.921875 25.265625 " fill-opacity="1" fill-rule="nonzero"/><path fill="#c39d35" d="M 128.082031 35.507812 C 128.082031 32.496094 118.171875 35.507812 118.171875 35.507812 C 118.171875 35.507812 128.082031 38.519531 128.082031 35.507812 " fill-opacity="1" fill-rule="nonzero"/><path fill="#c39d35" d="M 298.515625 8.058594 C 297.171875 6.976562 296.570312 8.070312 296.570312 8.070312 C 294.832031 10.179688 291.738281 8.34375 291.738281 8.34375 C 282.921875 3.417969 274.652344 9.386719 274.652344 9.386719 C 274.652344 9.386719 278.089844 8.121094 281.597656 8.203125 C 285.113281 8.285156 284.847656 10.070312 284.847656 10.070312 C 282.609375 9.1875 282.359375 12.738281 285.398438 12.738281 C 288.4375 12.738281 288.820312 9.535156 288.820312 9.535156 C 289.273438 10.261719 290.820312 12.234375 292.09375 11.496094 C 293.367188 10.753906 289.78125 8.757812 289.78125 8.757812 C 289.78125 8.757812 292.039062 9.207031 294.011719 10.25 C 295.980469 11.289062 298.28125 10.496094 298.515625 10.398438 C 298.746094 10.304688 299.855469 9.140625 298.515625 8.058594 " fill-opacity="1" fill-rule="nonzero"/><path fill="#c39d35" d="M 249.828125 10.097656 C 251.097656 9.527344 251.597656 9.414062 251.597656 9.414062 C 251.597656 9.414062 258.964844 6.101562 265.179688 7.550781 C 267.453125 8.082031 269.023438 9.015625 270.058594 10.097656 Z M 239.523438 13.109375 L 229.964844 19.214844 C 229.964844 19.214844 214.390625 18.160156 209.332031 11.824219 L 241.347656 11.824219 C 240.75 12.230469 240.140625 12.65625 239.523438 13.109375 Z M 60.476562 12.945312 C 59.859375 12.488281 59.25 12.066406 58.648438 11.65625 L 90.667969 11.65625 C 85.609375 17.996094 70.035156 19.050781 70.035156 19.050781 Z M 29.941406 9.933594 C 30.976562 8.851562 32.546875 7.917969 34.820312 7.386719 C 41.039062 5.933594 48.402344 9.246094 48.402344 9.246094 C 48.402344 9.246094 48.902344 9.359375 50.175781 9.933594 Z M 279.773438 9.195312 C 279.113281 9.195312 278.542969 9.5625 278.238281 10.097656 L 272.839844 10.097656 C 272.652344 9.75 272.449219 9.394531 272.214844 9.03125 C 269.3125 4.511719 262.167969 4.511719 262.167969 4.511719 C 262.167969 4.511719 254.894531 3.601562 244.046875 10.097656 L 208.292969 10.097656 C 208.015625 9.449219 207.839844 8.757812 207.785156 8.015625 C 207.785156 8.015625 207.308594 2.703125 212.023438 4.292969 C 212.023438 4.292969 209.921875 6.949219 213.289062 8.289062 C 216.65625 9.632812 217.042969 6.019531 217.042969 6.019531 C 217.042969 6.019531 217.890625 2.839844 213.425781 1.5 C 208.964844 0.15625 206.253906 1.28125 204.71875 3.800781 C 203.746094 5.398438 203.273438 7.8125 203.800781 10.097656 L 203.390625 10.097656 C 203.089844 9.5625 202.519531 9.195312 201.859375 9.195312 C 200.882812 9.195312 200.09375 9.984375 200.09375 10.960938 C 200.09375 11.933594 200.882812 12.726562 201.859375 12.726562 C 202.519531 12.726562 203.089844 12.359375 203.390625 11.824219 L 204.421875 11.824219 C 204.765625 12.507812 205.222656 13.160156 205.816406 13.738281 C 208.746094 16.613281 212.453125 19.351562 227.035156 21.324219 C 227.035156 21.324219 211.019531 31.730469 198.476562 30.578125 C 185.9375 29.429688 182.429688 18.148438 184.621094 14.207031 C 186.8125 10.261719 190.589844 10.097656 190.589844 10.097656 C 190.589844 10.097656 196.78125 9.769531 196.613281 13.710938 C 196.613281 13.710938 192.589844 12.480469 192.316406 15.765625 C 192.042969 19.050781 196.722656 18.09375 196.722656 18.09375 C 196.722656 18.09375 201.105469 17.464844 199.269531 11.632812 C 197.4375 5.800781 188.648438 6.8125 188.648438 6.8125 C 188.648438 6.8125 182.648438 7.496094 180.953125 10.507812 C 180.953125 10.507812 178.679688 3.445312 175.585938 4.949219 C 172.492188 6.457031 176.050781 8.015625 177.199219 9.003906 C 178.351562 9.988281 179.554688 13.164062 179.554688 13.164062 C 179.554688 13.164062 180.046875 14.039062 177.941406 12.699219 C 175.832031 11.359375 169.328125 7.769531 163.042969 7.769531 C 157.394531 7.769531 151.214844 12.386719 150.027344 15.886719 C 148.984375 12.371094 142.695312 7.605469 136.957031 7.605469 C 130.671875 7.605469 124.167969 11.191406 122.058594 12.535156 C 119.953125 13.875 120.445312 13 120.445312 13 C 120.445312 13 121.648438 9.824219 122.800781 8.835938 C 123.949219 7.851562 127.507812 6.289062 124.414062 4.785156 C 121.320312 3.277344 119.046875 10.34375 119.046875 10.34375 C 117.351562 7.332031 111.351562 6.648438 111.351562 6.648438 C 111.351562 6.648438 102.5625 5.632812 100.730469 11.464844 C 98.894531 17.296875 103.277344 17.929688 103.277344 17.929688 C 103.277344 17.929688 107.957031 18.886719 107.683594 15.601562 C 107.410156 12.316406 103.386719 13.546875 103.386719 13.546875 C 103.21875 9.605469 109.410156 9.933594 109.410156 9.933594 C 109.410156 9.933594 113.1875 10.097656 115.378906 14.039062 C 117.570312 17.984375 114.0625 29.265625 101.523438 30.414062 C 88.980469 31.5625 72.964844 21.160156 72.964844 21.160156 C 87.546875 19.1875 91.253906 16.449219 94.183594 13.574219 C 94.777344 12.992188 95.234375 12.34375 95.578125 11.65625 L 96.609375 11.65625 C 96.910156 12.195312 97.480469 12.5625 98.140625 12.5625 C 99.117188 12.5625 99.90625 11.769531 99.90625 10.796875 C 99.90625 9.820312 99.117188 9.027344 98.140625 9.027344 C 97.480469 9.027344 96.910156 9.394531 96.609375 9.933594 L 96.199219 9.933594 C 96.726562 7.648438 96.253906 5.234375 95.28125 3.636719 C 93.746094 1.117188 91.035156 -0.0078125 86.574219 1.335938 C 82.109375 2.675781 82.957031 5.851562 82.957031 5.851562 C 82.957031 5.851562 83.34375 9.46875 86.710938 8.125 C 90.078125 6.785156 87.976562 4.128906 87.976562 4.128906 C 92.691406 2.539062 92.214844 7.851562 92.214844 7.851562 C 92.160156 8.59375 91.984375 9.285156 91.707031 9.933594 L 55.953125 9.933594 C 45.105469 3.433594 37.835938 4.347656 37.835938 4.347656 C 37.835938 4.347656 30.6875 4.347656 27.785156 8.863281 C 27.550781 9.230469 27.34375 9.585938 27.160156 9.933594 L 21.761719 9.933594 C 21.457031 9.394531 20.886719 9.027344 20.226562 9.027344 C 19.253906 9.027344 18.460938 9.820312 18.460938 10.796875 C 18.460938 11.769531 19.253906 12.5625 20.226562 12.5625 C 20.886719 12.5625 21.457031 12.195312 21.761719 11.65625 L 26.40625 11.65625 C 25.363281 14.765625 26.332031 17.105469 28.085938 18.558594 C 30.332031 20.417969 33.316406 20.390625 34.546875 19.488281 C 35.78125 18.585938 37.011719 17.214844 35.425781 15.519531 C 33.835938 13.820312 31.808594 16.148438 32.300781 17.214844 C 32.300781 17.214844 29.234375 17.984375 28.441406 15.628906 C 28.085938 14.570312 28.085938 13.09375 28.75 11.65625 L 53.578125 11.65625 C 56.285156 13.144531 60.242188 15.53125 65.871094 19.351562 C 65.871094 19.351562 55.082031 21.214844 39.039062 13.492188 C 39.039062 13.492188 56.945312 22.0625 49.308594 22.515625 C 49.308594 22.515625 52.714844 25.757812 55.097656 22.023438 C 55.097656 22.023438 58.875 25.644531 60.847656 22.597656 C 60.847656 22.597656 65.761719 25.472656 65.871094 21.363281 L 69.269531 21.324219 L 82.082031 28.441406 C 82.082031 28.441406 92.105469 33.316406 98.949219 33.207031 C 105.796875 33.097656 112.039062 32.933594 118.0625 26.03125 C 124.085938 19.132812 119.429688 16.777344 122.058594 14.972656 C 124.6875 13.164062 131.917969 9.660156 134.109375 12.5625 C 136.296875 15.464844 134.710938 17.269531 131.699219 16.613281 C 131.699219 16.613281 130.492188 20.335938 134.65625 19.84375 C 138.816406 19.351562 139.472656 17.816406 139.472656 17.816406 C 139.472656 17.816406 141.007812 22.582031 145.332031 20.28125 C 145.332031 20.28125 145.703125 23.171875 144.800781 24.734375 C 143.894531 26.292969 145.085938 28.304688 146.320312 29.085938 C 147.550781 29.867188 143.15625 34.136719 139.828125 33.890625 C 136.503906 33.644531 135.230469 31.632812 135.683594 29.824219 C 136.132812 28.019531 134.65625 26.210938 132.847656 26.210938 C 131.039062 26.210938 127.878906 27.402344 128.660156 30.320312 C 129.4375 33.234375 133.011719 35.371094 136.175781 35.78125 C 139.265625 36.183594 146.597656 35.875 149.953125 30.027344 C 153.269531 36.03125 160.707031 36.351562 163.824219 35.945312 C 166.988281 35.535156 170.5625 33.398438 171.339844 30.484375 C 172.121094 27.566406 168.960938 26.375 167.152344 26.375 C 165.34375 26.375 163.867188 28.183594 164.316406 29.992188 C 164.769531 31.796875 163.496094 33.808594 160.171875 34.054688 C 156.84375 34.304688 152.449219 30.03125 153.679688 29.25 C 154.914062 28.46875 156.105469 26.457031 155.199219 24.898438 C 154.296875 23.335938 154.667969 20.449219 154.667969 20.449219 C 158.992188 22.746094 160.527344 17.984375 160.527344 17.984375 C 160.527344 17.984375 161.183594 19.515625 165.34375 20.011719 C 169.507812 20.503906 168.300781 16.777344 168.300781 16.777344 C 165.289062 17.4375 163.703125 15.628906 165.890625 12.726562 C 168.082031 9.824219 175.3125 13.328125 177.941406 15.136719 C 180.570312 16.945312 175.914062 19.296875 181.9375 26.199219 C 187.960938 33.097656 194.203125 33.261719 201.050781 33.371094 C 207.894531 33.480469 217.917969 28.605469 217.917969 28.605469 L 230.730469 21.488281 L 234.128906 21.527344 C 234.238281 25.636719 239.152344 22.761719 239.152344 22.761719 C 241.125 25.808594 244.902344 22.1875 244.902344 22.1875 C 247.28125 25.925781 250.695312 22.679688 250.695312 22.679688 C 243.054688 22.226562 260.960938 13.65625 260.960938 13.65625 C 244.917969 21.378906 234.128906 19.515625 234.128906 19.515625 C 239.757812 15.695312 243.714844 13.308594 246.421875 11.824219 L 271.25 11.824219 C 271.914062 13.257812 271.914062 14.734375 271.554688 15.792969 C 270.761719 18.148438 267.699219 17.382812 267.699219 17.382812 C 268.1875 16.3125 266.164062 13.988281 264.578125 15.683594 C 262.988281 17.382812 264.222656 18.75 265.453125 19.652344 C 266.683594 20.558594 269.667969 20.585938 271.914062 18.722656 C 273.667969 17.269531 274.636719 14.929688 273.59375 11.824219 L 278.238281 11.824219 C 278.542969 12.359375 279.113281 12.726562 279.773438 12.726562 C 280.746094 12.726562 281.539062 11.933594 281.539062 10.960938 C 281.539062 9.984375 280.746094 9.195312 279.773438 9.195312 " fill-opacity="1" fill-rule="nonzero"/><path fill="#c39d35" d="M 275.144531 12.398438 C 275.144531 12.398438 275.71875 14.78125 274.488281 16.808594 C 274.488281 16.808594 276.285156 18.105469 277.007812 15.847656 C 277.636719 13.875 275.144531 12.398438 275.144531 12.398438 " fill-opacity="1" fill-rule="nonzero"/><path fill="#c39d35" d="M 202.859375 21.707031 C 202.335938 20.53125 200.257812 20.804688 199.488281 21.050781 C 198.722656 21.296875 196.917969 22.71875 198.476562 24.582031 C 200.039062 26.445312 202.832031 27.675781 207.15625 27.265625 C 211.484375 26.855469 217.539062 25.082031 222.875 22.0625 C 222.875 22.0625 215.917969 24.199219 213.863281 22.695312 C 213.863281 22.695312 215.097656 22.363281 214.851562 21.1875 C 214.605469 20.011719 212.332031 19.433594 211.238281 20.230469 C 210.140625 21.023438 209.074219 22.035156 209.839844 22.914062 C 209.839844 22.914062 210.058594 23.46875 209.238281 23.230469 C 208.417969 22.996094 208.195312 22.171875 206.527344 22.445312 C 204.855469 22.71875 204.71875 24.089844 205.675781 24.71875 C 206.636719 25.347656 202.527344 25.019531 202.148438 23.488281 C 202.148438 23.488281 203.378906 22.882812 202.859375 21.707031 " fill-opacity="1" fill-rule="nonzero"/><path fill="#c39d35" d="M 228.761719 24.71875 C 215.699219 28.566406 214.304688 36.464844 214.277344 38.300781 C 214.25 40.136719 216 41.722656 219.917969 41.832031 C 223.832031 41.941406 225.503906 39.09375 225.859375 38.464844 C 226.214844 37.835938 226.734375 35.863281 224.734375 35.316406 C 222.734375 34.769531 221.832031 35.917969 221.585938 37.234375 C 221.339844 38.546875 223.148438 38.492188 223.148438 38.492188 C 220.273438 39.859375 218.902344 38.464844 219.449219 33.671875 C 220 28.882812 228.761719 24.71875 228.761719 24.71875 " fill-opacity="1" fill-rule="nonzero"/><path fill="#c39d35" d="M 206.664062 41.011719 C 204.773438 43.449219 206.445312 44.132812 206.445312 44.132812 C 206.445312 44.132812 208.910156 45.558594 209.730469 42.4375 C 210.550781 39.3125 213.042969 35.890625 213.042969 35.890625 C 213.042969 35.890625 208.554688 38.574219 206.664062 41.011719 " fill-opacity="1" fill-rule="nonzero"/><path fill="#c39d35" d="M 177.09375 43.203125 C 180.953125 41.121094 189.796875 40.109375 191.878906 39.777344 C 193.957031 39.449219 202.421875 39.046875 214.878906 31.882812 C 214.878906 31.882812 200.339844 40.136719 192.945312 33.808594 C 192.945312 33.808594 190.261719 33.726562 191.382812 36.574219 C 191.382812 36.574219 183.390625 34.632812 183.308594 38.710938 C 183.308594 38.710938 183.199219 39.3125 181.253906 39.890625 C 179.308594 40.464844 171.3125 42.574219 169.808594 46.242188 C 168.300781 49.910156 171.230469 51.691406 171.230469 51.691406 C 171.230469 51.691406 175.996094 54.484375 180.679688 50.8125 C 185.359375 47.144531 178.761719 42.40625 175.914062 46.816406 C 175.914062 46.816406 175.175781 48.542969 176.1875 48.679688 C 177.199219 48.816406 179.335938 49.335938 178.160156 50.347656 C 176.980469 51.363281 174.378906 50.402344 173.859375 49.171875 C 173.339844 47.9375 173.230469 45.285156 177.09375 43.203125 " fill-opacity="1" fill-rule="nonzero"/><path fill="#c39d35" d="M 187.6875 32.222656 C 187.6875 32.222656 181.007812 30.191406 179.144531 27.34375 C 177.285156 24.5 176.078125 25.429688 176.078125 25.429688 C 176.078125 25.429688 174.597656 26.691406 176.460938 28.445312 C 178.324219 30.195312 181.664062 32.277344 187.6875 32.222656 " fill-opacity="1" fill-rule="nonzero"/><path fill="#c39d35" d="M 171.917969 35.671875 C 171.917969 38.683594 181.828125 35.671875 181.828125 35.671875 C 181.828125 35.671875 171.917969 32.660156 171.917969 35.671875 " fill-opacity="1" fill-rule="nonzero"/><g clip-path="url(#89a8184792)"><path fill="#c39d35" d="M 176.871094 39.175781 C 176.871094 39.175781 166.605469 38.082031 158.171875 42.738281 C 158.171875 42.738281 152.695312 42.847656 154.613281 41.585938 C 156.527344 40.328125 157.019531 38.410156 154.558594 37.644531 C 152.09375 36.875 150.886719 38.574219 150.722656 39.285156 C 150.558594 40 149.519531 42.078125 151.488281 43.667969 C 152.9375 44.835938 151.132812 47.183594 150.074219 48.347656 C 149.054688 47.257812 146.988281 44.726562 148.511719 43.503906 C 150.480469 41.914062 149.441406 39.832031 149.277344 39.121094 C 149.113281 38.410156 147.90625 36.710938 145.441406 37.480469 C 142.980469 38.246094 143.472656 40.160156 145.386719 41.421875 C 147.304688 42.679688 141.828125 42.570312 141.828125 42.570312 C 133.394531 37.917969 123.128906 39.011719 123.128906 39.011719 C 138.050781 41.804688 133.449219 46.078125 133.394531 46.734375 C 133.339844 47.390625 135.039062 48.265625 138.105469 46.953125 C 141.171875 45.636719 147.6875 50.074219 147.6875 50.074219 C 144.292969 56.222656 147.492188 59.378906 149.402344 60.613281 C 149.6875 60.792969 150.117188 61.117188 150.132812 61.109375 C 150.15625 61.121094 150.496094 60.832031 150.703125 60.707031 C 152.617188 59.429688 155.648438 56.277344 152.3125 50.238281 C 152.3125 50.238281 158.828125 45.804688 161.894531 47.117188 C 164.960938 48.429688 166.660156 47.554688 166.605469 46.898438 C 166.550781 46.242188 161.949219 41.96875 176.871094 39.175781 " fill-opacity="1" fill-rule="nonzero"/></g></svg>