<svg xmlns="http://www.w3.org/2000/svg" xmlns:xlink="http://www.w3.org/1999/xlink" width="128" zoomAndPan="magnify" viewBox="0 0 96 95.999999" height="128" preserveAspectRatio="xMidYMid meet" version="1.0"><defs><clipPath id="2e0ed1fca1"><path d="M 0.03125 6.195312 L 95.96875 6.195312 L 95.96875 89.441406 L 0.03125 89.441406 Z M 0.03125 6.195312 " clip-rule="nonzero"/></clipPath><clipPath id="0dde29ed51"><path d="M 65.320312 27.5 C 65.625 27.5 65.625 27.027344 65.320312 27.027344 C 65.015625 27.027344 65.011719 27.5 65.320312 27.5 Z M 63.90625 27.578125 C 64.3125 27.578125 64.3125 26.949219 63.90625 26.949219 C 63.5 26.949219 63.496094 27.578125 63.90625 27.578125 Z M 62.1875 27.257812 C 61.9375 27.257812 61.699219 27.472656 61.710938 27.730469 C 61.722656 27.984375 61.921875 28.199219 62.1875 28.199219 C 62.203125 28.199219 62.214844 28.199219 62.230469 28.199219 C 62.476562 28.199219 62.714844 27.984375 62.703125 27.730469 C 62.691406 27.472656 62.496094 27.257812 62.230469 27.257812 C 62.214844 27.257812 62.203125 27.257812 62.1875 27.257812 Z M 80.613281 47.007812 C 81.222656 47.007812 81.222656 46.0625 80.613281 46.0625 C 80.003906 46.0625 80 47.007812 80.613281 47.007812 Z M 82.390625 48.695312 C 82.394531 48.695312 82.402344 48.695312 82.410156 48.695312 C 82.574219 48.695312 82.734375 48.550781 82.726562 48.382812 C 82.71875 48.210938 82.585938 48.066406 82.410156 48.066406 C 82.402344 48.066406 82.394531 48.066406 82.390625 48.066406 C 82.222656 48.066406 82.066406 48.210938 82.074219 48.382812 C 82.082031 48.554688 82.210938 48.695312 82.390625 48.695312 Z M 83.855469 50.160156 C 83.878906 50.160156 83.90625 50.160156 83.929688 50.160156 C 84.234375 50.160156 84.234375 49.6875 83.929688 49.6875 C 83.90625 49.6875 83.878906 49.6875 83.855469 49.6875 C 83.550781 49.6875 83.550781 50.160156 83.855469 50.160156 Z M 78.152344 45.609375 C 78.964844 45.609375 78.96875 44.351562 78.152344 44.351562 C 77.339844 44.351562 77.339844 45.609375 78.152344 45.609375 Z M 81.707031 62.367188 C 81.867188 62.367188 81.996094 62.238281 81.996094 62.082031 C 81.996094 61.925781 81.867188 61.796875 81.707031 61.796875 C 81.550781 61.796875 81.421875 61.925781 81.421875 62.082031 C 81.421875 62.242188 81.550781 62.367188 81.707031 62.367188 Z M 80.023438 62.554688 C 80.210938 62.554688 80.359375 62.40625 80.359375 62.222656 C 80.359375 62.035156 80.207031 61.886719 80.023438 61.886719 C 79.835938 61.886719 79.6875 62.035156 79.6875 62.222656 C 79.6875 62.40625 79.839844 62.554688 80.023438 62.554688 Z M 78.199219 62.507812 C 78.433594 62.507812 78.625 62.320312 78.625 62.085938 C 78.625 61.851562 78.433594 61.660156 78.199219 61.660156 C 77.964844 61.660156 77.773438 61.851562 77.773438 62.085938 C 77.773438 62.320312 77.964844 62.507812 78.199219 62.507812 Z M 76.304688 62.222656 C 76.617188 62.222656 76.867188 61.972656 76.867188 61.660156 C 76.867188 61.351562 76.617188 61.101562 76.304688 61.101562 C 75.992188 61.101562 75.738281 61.351562 75.738281 61.660156 C 75.742188 61.972656 75.992188 62.222656 76.304688 62.222656 Z M 95.558594 53.746094 C 95.160156 54.660156 94.300781 55.523438 92.660156 56.078125 C 87.601562 57.777344 83.734375 53.574219 80.515625 49.550781 C 79.054688 47.730469 76.816406 47.195312 74.851562 47.144531 C 74.296875 47.808594 73.683594 48.457031 73.003906 49.078125 C 75.75 48.882812 79.6875 49.6875 82.488281 53.296875 C 86.730469 58.757812 92.5625 57.800781 92.5625 57.800781 C 89.015625 64.597656 80.460938 64.460938 75.722656 63.792969 C 75.914062 64.257812 76.082031 64.71875 76.234375 65.179688 C 79.96875 65.480469 85.722656 64.734375 89.792969 62.351562 C 94.433594 59.628906 95.367188 55.324219 95.558594 53.746094 Z M 75.417969 63.089844 C 88.167969 64.554688 91.699219 58.441406 91.855469 58.160156 C 81.078125 65.046875 70.785156 56.855469 70.785156 56.855469 C 70.210938 56.449219 66.964844 54.117188 66.074219 53.476562 C 65.113281 53.957031 64.183594 54.367188 63.660156 54.464844 C 63.660156 54.464844 69.230469 54.59375 73.398438 59.769531 C 74.546875 60.039062 75.59375 60.523438 75.195312 61.386719 C 75.089844 61.609375 74.941406 61.738281 74.765625 61.800781 C 75.003906 62.230469 75.21875 62.660156 75.417969 63.089844 Z M 69.320312 51.714844 C 68.894531 51.960938 67.917969 52.519531 66.867188 53.070312 L 67.453125 53.527344 C 70.785156 53.234375 71.347656 51.722656 71.167969 50.554688 C 70.921875 50.726562 70.671875 50.898438 70.410156 51.0625 C 70.40625 51.082031 70.40625 51.09375 70.402344 51.113281 C 70.269531 51.640625 69.800781 51.8125 69.320312 51.714844 Z M 85.929688 59.171875 C 85.792969 59.523438 85.578125 59.796875 85.316406 60.011719 C 87.421875 59.65625 89.117188 59.050781 90.113281 58.632812 C 88.714844 58.789062 87.398438 58.386719 86.132812 57.660156 C 86.207031 58.058594 86.167969 58.550781 85.929688 59.171875 Z M 82.09375 57.175781 C 81.214844 59.46875 78.117188 59.539062 76.449219 59.394531 C 79.121094 60.308594 81.734375 60.421875 84 60.1875 C 85.820312 59.523438 85.808594 58.128906 85.484375 57.261719 C 85.03125 56.957031 84.585938 56.621094 84.144531 56.253906 C 83.726562 56.261719 83.328125 56.496094 83.167969 57.226562 C 82.894531 58.5 84.519531 58.992188 84.710938 58.242188 C 84.902344 57.492188 83.878906 57.328125 83.878906 57.328125 C 83.878906 57.328125 85.207031 57.253906 84.898438 58.359375 C 84.585938 59.464844 82.734375 58.839844 82.753906 57.542969 C 82.765625 56.683594 83.40625 56.253906 83.984375 56.125 C 83.425781 55.652344 82.871094 55.140625 82.320312 54.613281 C 82.519531 55.25 82.511719 56.085938 82.09375 57.175781 Z M 80.554688 55.96875 C 80.089844 57.617188 77.328125 56.679688 77.355469 54.746094 C 77.382812 52.8125 79.5625 52.332031 80.300781 52.660156 C 80.320312 52.667969 80.339844 52.679688 80.359375 52.6875 C 79.949219 52.285156 79.542969 51.890625 79.132812 51.511719 C 77.996094 50.457031 76.757812 49.882812 75.574219 49.59375 C 76.4375 50.039062 77.273438 50.976562 77.089844 53.035156 C 76.835938 55.828125 73.007812 56.609375 71.652344 56.800781 C 73.085938 57.90625 74.554688 58.695312 76.011719 59.242188 C 83.828125 58.9375 81.542969 53.746094 80.738281 53.238281 C 79.914062 52.714844 78.386719 52.371094 77.976562 54.273438 C 77.566406 56.175781 79.992188 56.910156 80.277344 55.792969 C 80.558594 54.675781 79.039062 54.429688 79.039062 54.429688 C 79.039062 54.429688 81.019531 54.316406 80.554688 55.96875 Z M 73.265625 49.34375 C 73.0625 49.347656 72.867188 49.355469 72.675781 49.371094 C 72.351562 49.652344 72.011719 49.929688 71.65625 50.199219 C 71.65625 50.199219 71.65625 50.195312 71.65625 50.195312 C 71.785156 50.636719 71.78125 51.203125 71.527344 51.941406 C 70.960938 53.566406 68.8125 53.703125 67.609375 53.644531 L 70.976562 56.253906 C 71.175781 56.425781 71.375 56.585938 71.574219 56.738281 C 79.3125 54.351562 75.632812 49.886719 74.710938 49.613281 C 73.773438 49.332031 72.210938 49.414062 72.335938 51.355469 C 72.457031 53.300781 74.992188 53.347656 74.960938 52.195312 C 74.929688 51.042969 73.398438 51.21875 73.398438 51.21875 C 73.398438 51.21875 75.273438 50.578125 75.277344 52.289062 C 75.277344 54.003906 72.367188 53.847656 71.867188 51.980469 C 71.503906 50.632812 72.425781 49.710938 73.265625 49.34375 Z M 62.777344 54.003906 C 78.203125 48.703125 79.4375 34.320312 79.4375 34.320312 C 78.023438 33.195312 63.726562 29.425781 56.664062 35.222656 C 52.144531 38.929688 49.867188 45.453125 48.765625 49.75 C 49.886719 45.871094 52.230469 40.230469 56.871094 36.734375 C 64.808594 30.757812 77.289062 33.648438 77.289062 33.648438 C 77.289062 33.648438 65.933594 32.183594 58.304688 36.6875 C 51.402344 40.757812 48.414062 51.632812 47.910156 53.671875 C 47.875 53.84375 47.851562 53.953125 47.835938 53.996094 C 48 53.589844 52.65625 42.3125 58.722656 39.507812 C 57.839844 39.953125 53.804688 42.476562 49.332031 53.117188 C 50.464844 52.03125 53.75 48.746094 58.21875 46.03125 C 58.21875 46.03125 53.542969 50.484375 50.171875 53.738281 C 51.316406 53.632812 52.816406 53.527344 54.507812 53.492188 C 56.664062 53.023438 63.476562 51.320312 67.648438 47.792969 C 67.648438 47.792969 62.941406 52.347656 57.367188 53.503906 C 59.121094 53.558594 60.96875 53.703125 62.777344 54.003906 Z M 49.027344 53.855469 L 49.023438 53.855469 C 49.027344 53.855469 49.027344 53.855469 49.027344 53.855469 Z M 56.074219 33.445312 C 60.339844 23.449219 63.816406 17.738281 66.515625 14.394531 C 64.636719 14.976562 62.667969 16.035156 60.761719 17.691406 C 55.269531 22.457031 55.636719 30.222656 56.074219 33.445312 Z M 90.574219 62.621094 C 85.78125 66.375 80.121094 66.519531 76.519531 66.105469 C 77.746094 70.464844 77.402344 74.253906 77.402344 74.503906 C 77.402344 74.921875 70.503906 79.914062 61.308594 75.960938 C 55.691406 73.546875 53.488281 70.476562 51.972656 67.148438 C 62.636719 82.855469 76.882812 74.5625 76.933594 74.25 C 76.988281 73.9375 78.316406 64.183594 70.507812 58.25 C 63.410156 52.855469 50.484375 53.761719 48.183594 53.972656 C 49.328125 53.972656 59.453125 54.050781 65.625 56.660156 C 72.171875 59.425781 75.347656 67.625 76.933594 71.476562 C 76.933594 71.476562 72.535156 62.734375 66.328125 58.578125 C 60.125 54.417969 47.828125 54.007812 47.828125 54.007812 C 47.828125 54.007812 41.1875 45.441406 40.902344 38.800781 C 40.902344 38.800781 42.277344 45.160156 47.972656 52.722656 L 47.929688 53.125 C 48.074219 51.976562 48.402344 49.808594 49.050781 47.261719 C 48.675781 45.773438 47.644531 41.535156 47.609375 39.726562 C 47.609375 39.726562 49.023438 43.199219 49.589844 45.328125 C 50.101562 43.621094 50.757812 41.828125 51.589844 40.113281 C 51.550781 38.492188 51.410156 35.289062 50.96875 33.871094 C 51.15625 34.441406 51.855469 36.699219 52.109375 39.101562 C 53.085938 37.296875 54.269531 35.625 55.714844 34.292969 C 54.132812 27.0625 56.75 18.824219 63.539062 15.121094 C 64.765625 14.449219 65.960938 13.984375 67.101562 13.691406 C 69.359375 11.0625 71.023438 10.144531 72.09375 9.648438 C 74.910156 8.339844 76.820312 9.765625 77.136719 10.425781 C 77.429688 11.039062 76.851562 11.628906 76.265625 11.382812 C 75.707031 11.144531 76.007812 10.714844 76.007812 10.714844 C 76.007812 10.839844 76.054688 10.964844 76.148438 11.058594 C 76.339844 11.25 76.648438 11.25 76.839844 11.058594 C 77.03125 10.871094 77.03125 10.5625 76.839844 10.371094 C 76.628906 10.160156 74.074219 7.617188 68.59375 13.394531 C 73.195312 12.761719 76.636719 14.949219 77.179688 17.589844 C 77.910156 21.132812 76.417969 23.042969 74.304688 23.703125 C 72.191406 24.363281 68.929688 22.589844 69.851562 19.804688 C 70.773438 17.019531 74.089844 17.636719 74.25 19.144531 C 74.414062 20.648438 73.167969 20.792969 73.167969 20.792969 C 73.519531 20.578125 74.164062 19.765625 73.738281 19.019531 C 73.308594 18.269531 71.296875 17.832031 70.574219 19.585938 C 69.851562 21.339844 71.300781 23.128906 72.777344 23.226562 C 74.253906 23.324219 77.667969 22.375 76.710938 17.976562 C 76.082031 15.085938 72.4375 13.222656 68.007812 14.027344 C 64.933594 17.472656 60.996094 23.460938 56.105469 33.679688 C 56.117188 33.765625 56.128906 33.84375 56.144531 33.917969 C 56.539062 33.582031 56.957031 33.269531 57.390625 32.988281 C 57.859375 31.984375 58.9375 29.78125 59.851562 28.8125 C 59.769531 28.703125 59.71875 28.574219 59.710938 28.429688 C 59.695312 28.09375 60.011719 27.800781 60.34375 27.800781 C 60.359375 27.800781 60.375 27.800781 60.386719 27.800781 C 60.742188 27.800781 61.003906 28.089844 61.019531 28.429688 C 61.035156 28.773438 60.71875 29.0625 60.386719 29.0625 C 60.375 29.0625 60.359375 29.0625 60.34375 29.0625 C 60.242188 29.0625 60.152344 29.035156 60.070312 28.996094 C 59.574219 29.632812 58.265625 31.390625 57.75 32.765625 C 58.46875 32.339844 59.234375 31.988281 60.054688 31.738281 C 70.609375 28.511719 80.015625 34.132812 80.015625 34.132812 C 80.015625 34.132812 79.738281 40.386719 75.757812 45.964844 C 76.421875 45.957031 77.113281 46.050781 77.804688 46.289062 C 81.3125 47.503906 83.667969 52.1875 86.597656 54.347656 C 89.527344 56.515625 95.339844 55.183594 95.492188 52.820312 C 95.648438 50.457031 93.335938 49.121094 91.867188 49.421875 C 90.402344 49.722656 90.023438 51.261719 90.878906 52.25 C 91.734375 53.234375 92.949219 52.460938 92.949219 52.460938 C 90.566406 54.105469 89.203125 50.753906 90.449219 49.613281 C 91.65625 48.511719 94.035156 48.871094 95.023438 49.875 C 95.171875 50.023438 95.347656 50.300781 95.5 50.660156 C 95.5 50.660156 95.511719 50.6875 95.535156 50.742188 C 95.542969 50.765625 95.550781 50.785156 95.558594 50.808594 C 95.566406 50.828125 95.574219 50.847656 95.582031 50.867188 C 95.617188 50.972656 95.652344 51.078125 95.683594 51.191406 C 96.140625 52.78125 96.863281 57.695312 90.574219 62.621094 Z M 34.933594 24.039062 C 35.238281 24.039062 35.238281 23.566406 34.933594 23.566406 C 34.628906 23.566406 34.625 24.039062 34.933594 24.039062 Z M 34.332031 25.65625 C 34.742188 25.65625 34.742188 25.027344 34.332031 25.027344 C 33.925781 25.027344 33.925781 25.65625 34.332031 25.65625 Z M 33.527344 26.273438 C 32.917969 26.273438 32.917969 27.21875 33.527344 27.21875 C 34.136719 27.21875 34.140625 26.273438 33.527344 26.273438 Z M 32.566406 28.25 C 32.542969 28.25 32.519531 28.25 32.492188 28.25 C 32.164062 28.25 31.847656 28.539062 31.863281 28.878906 C 31.875 29.21875 32.140625 29.507812 32.492188 29.507812 C 32.519531 29.507812 32.542969 29.507812 32.566406 29.507812 C 32.898438 29.507812 33.214844 29.21875 33.199219 28.878906 C 33.183594 28.539062 32.921875 28.25 32.566406 28.25 Z M 17.445312 40.34375 C 17.75 40.34375 17.75 39.871094 17.445312 39.871094 C 17.140625 39.871094 17.140625 40.34375 17.445312 40.34375 Z M 12.847656 28.441406 C 12.867188 28.441406 12.890625 28.441406 12.914062 28.441406 C 13.214844 28.441406 13.21875 27.96875 12.914062 27.96875 C 12.890625 27.96875 12.867188 27.96875 12.847656 27.96875 C 12.542969 27.96875 12.539062 28.441406 12.847656 28.441406 Z M 19.636719 39.949219 C 19.75 39.917969 19.84375 39.816406 19.863281 39.699219 C 19.917969 39.628906 19.945312 39.535156 19.917969 39.4375 C 19.875 39.285156 19.6875 39.152344 19.527344 39.214844 C 19.320312 39.300781 19.171875 39.5 19.246094 39.730469 C 19.300781 39.894531 19.464844 39.996094 19.636719 39.949219 Z M 14.554688 28.320312 C 14.960938 28.320312 14.960938 27.691406 14.554688 27.691406 C 14.148438 27.691406 14.148438 28.320312 14.554688 28.320312 Z M 16.394531 27.601562 C 15.78125 27.601562 15.78125 28.546875 16.394531 28.546875 C 17.003906 28.546875 17.003906 27.601562 16.394531 27.601562 Z M 21.320312 39.664062 C 21.929688 39.664062 21.929688 38.71875 21.320312 38.71875 C 20.710938 38.71875 20.710938 39.664062 21.320312 39.664062 Z M 23.804688 39.570312 C 23.824219 39.550781 23.847656 39.527344 23.867188 39.507812 C 24.101562 39.273438 24.121094 38.847656 23.867188 38.617188 C 23.617188 38.386719 23.226562 38.367188 22.976562 38.617188 C 22.953125 38.636719 22.929688 38.660156 22.910156 38.683594 C 22.675781 38.914062 22.65625 39.34375 22.910156 39.570312 C 23.160156 39.800781 23.554688 39.820312 23.804688 39.570312 Z M 18.429688 27.964844 C 17.617188 27.964844 17.613281 29.226562 18.429688 29.226562 C 19.242188 29.226562 19.246094 27.964844 18.429688 27.964844 Z M 25.371094 39.800781 C 25.285156 39.78125 25.210938 39.765625 25.148438 39.753906 C 25.148438 39.753906 25.230469 39.769531 25.371094 39.800781 Z M 25.976562 38.382812 C 25.207031 38.015625 24.429688 37.710938 23.699219 37.535156 C 23.699219 37.535156 24.667969 37.855469 25.976562 38.382812 Z M 25.417969 18.515625 C 25.421875 18.550781 25.421875 18.589844 25.425781 18.628906 C 25.421875 18.554688 25.417969 18.515625 25.417969 18.515625 Z M 69.621094 71.898438 C 69.738281 72.015625 69.941406 72.015625 70.058594 71.898438 C 70.175781 71.78125 70.175781 71.582031 70.058594 71.464844 C 70.027344 71.433594 69.992188 71.402344 69.960938 71.367188 C 69.84375 71.25 69.644531 71.25 69.527344 71.367188 C 69.40625 71.488281 69.40625 71.683594 69.527344 71.800781 C 69.558594 71.835938 69.589844 71.867188 69.621094 71.898438 Z M 67.339844 61.558594 C 67.339844 61.527344 67.339844 61.492188 67.339844 61.460938 C 67.339844 61.300781 67.199219 61.148438 67.03125 61.15625 C 66.863281 61.164062 66.722656 61.289062 66.722656 61.460938 C 66.722656 61.492188 66.722656 61.527344 66.722656 61.558594 C 66.722656 61.71875 66.867188 61.871094 67.03125 61.863281 C 67.199219 61.855469 67.339844 61.730469 67.339844 61.558594 Z M 69.285156 65.582031 C 69.164062 65.464844 68.964844 65.464844 68.847656 65.582031 C 68.730469 65.699219 68.730469 65.898438 68.847656 66.015625 C 68.878906 66.050781 68.910156 66.082031 68.945312 66.113281 C 69.0625 66.230469 69.261719 66.230469 69.378906 66.113281 C 69.496094 65.996094 69.496094 65.796875 69.378906 65.679688 C 69.347656 65.648438 69.316406 65.617188 69.285156 65.582031 Z M 60.640625 62.890625 C 60.480469 62.890625 60.324219 63.03125 60.332031 63.195312 C 60.339844 63.363281 60.46875 63.503906 60.640625 63.503906 C 60.707031 63.503906 60.769531 63.503906 60.835938 63.503906 C 60.996094 63.503906 61.152344 63.363281 61.144531 63.195312 C 61.136719 63.03125 61.007812 62.890625 60.835938 62.890625 C 60.769531 62.890625 60.707031 62.890625 60.640625 62.890625 Z M 57.832031 71.023438 C 57.996094 71.023438 58.148438 70.882812 58.140625 70.71875 C 58.132812 70.550781 58.007812 70.410156 57.832031 70.410156 C 57.769531 70.410156 57.703125 70.410156 57.640625 70.410156 C 57.476562 70.410156 57.324219 70.550781 57.332031 70.71875 C 57.339844 70.882812 57.46875 71.023438 57.640625 71.023438 C 57.703125 71.023438 57.769531 71.023438 57.832031 71.023438 Z M 63.039062 72.960938 C 63.070312 72.992188 63.101562 73.023438 63.136719 73.054688 C 63.253906 73.171875 63.453125 73.171875 63.570312 73.054688 C 63.6875 72.9375 63.6875 72.738281 63.570312 72.621094 C 63.539062 72.589844 63.507812 72.558594 63.472656 72.527344 C 63.355469 72.410156 63.15625 72.410156 63.039062 72.527344 C 62.921875 72.644531 62.921875 72.84375 63.039062 72.960938 Z M 63.351562 66.941406 C 62.957031 66.941406 62.957031 67.554688 63.351562 67.554688 C 63.75 67.554688 63.75 66.941406 63.351562 66.941406 Z M 44.179688 74.847656 C 43.785156 74.847656 43.78125 75.460938 44.179688 75.460938 C 44.578125 75.460938 44.578125 74.847656 44.179688 74.847656 Z M 36.335938 73.59375 C 35.941406 73.59375 35.941406 74.207031 36.335938 74.207031 C 36.734375 74.207031 36.734375 73.59375 36.335938 73.59375 Z M 40.792969 67.90625 C 40.394531 67.90625 40.394531 68.519531 40.792969 68.519531 C 41.1875 68.519531 41.1875 67.90625 40.792969 67.90625 Z M 44.277344 65.011719 C 43.878906 65.011719 43.878906 65.625 44.277344 65.625 C 44.671875 65.625 44.675781 65.011719 44.277344 65.011719 Z M 39.53125 65.109375 C 39.46875 65.109375 39.402344 65.109375 39.339844 65.109375 C 39.179688 65.109375 39.023438 65.25 39.03125 65.414062 C 39.039062 65.582031 39.167969 65.722656 39.339844 65.722656 C 39.402344 65.722656 39.46875 65.722656 39.53125 65.722656 C 39.695312 65.722656 39.847656 65.582031 39.839844 65.414062 C 39.832031 65.25 39.703125 65.109375 39.53125 65.109375 Z M 26.074219 52.667969 C 25.675781 52.667969 25.675781 53.285156 26.074219 53.285156 C 26.46875 53.285156 26.46875 52.667969 26.074219 52.667969 Z M 32.367188 51.222656 C 31.96875 51.222656 31.96875 51.835938 32.367188 51.835938 C 32.761719 51.835938 32.765625 51.222656 32.367188 51.222656 Z M 27.332031 47.460938 C 26.933594 47.460938 26.933594 48.074219 27.332031 48.074219 C 27.726562 48.074219 27.730469 47.460938 27.332031 47.460938 Z M 38.25 53.386719 C 38.367188 53.503906 38.566406 53.503906 38.683594 53.386719 C 38.804688 53.269531 38.804688 53.070312 38.683594 52.953125 C 38.652344 52.921875 38.621094 52.886719 38.589844 52.855469 C 38.46875 52.738281 38.269531 52.738281 38.152344 52.855469 C 38.035156 52.972656 38.035156 53.171875 38.152344 53.289062 C 38.183594 53.320312 38.21875 53.355469 38.25 53.386719 Z M 35.273438 47.945312 C 34.875 47.945312 34.875 48.558594 35.273438 48.558594 C 35.667969 48.558594 35.667969 47.945312 35.273438 47.945312 Z M 33.699219 53.050781 C 33.667969 53.082031 33.632812 53.113281 33.601562 53.144531 C 33.484375 53.261719 33.484375 53.460938 33.601562 53.578125 C 33.71875 53.695312 33.917969 53.695312 34.035156 53.578125 C 34.070312 53.546875 34.101562 53.515625 34.132812 53.484375 C 34.253906 53.367188 34.253906 53.164062 34.132812 53.050781 C 34.015625 52.929688 33.816406 52.929688 33.699219 53.050781 Z M 42.515625 37.355469 C 42.515625 37.386719 42.515625 37.421875 42.515625 37.453125 C 42.515625 37.613281 42.65625 37.765625 42.824219 37.757812 C 42.992188 37.75 43.132812 37.625 43.132812 37.453125 C 43.132812 37.421875 43.132812 37.386719 43.132812 37.355469 C 43.132812 37.195312 42.992188 37.042969 42.824219 37.050781 C 42.65625 37.058594 42.515625 37.183594 42.515625 37.355469 Z M 49.023438 29.144531 C 48.625 29.144531 48.625 29.757812 49.023438 29.757812 C 49.417969 29.757812 49.417969 29.144531 49.023438 29.144531 Z M 49.117188 38.242188 C 49.515625 38.242188 49.515625 37.628906 49.117188 37.628906 C 48.722656 37.628906 48.722656 38.242188 49.117188 38.242188 Z M 39.726562 33.191406 C 39.566406 33.191406 39.410156 33.332031 39.417969 33.5 C 39.425781 33.664062 39.554688 33.804688 39.726562 33.804688 C 39.757812 33.804688 39.789062 33.804688 39.824219 33.804688 C 39.984375 33.804688 40.136719 33.664062 40.128906 33.5 C 40.125 33.332031 39.996094 33.191406 39.824219 33.191406 C 39.789062 33.191406 39.757812 33.191406 39.726562 33.191406 Z M 45.4375 34.480469 C 45.601562 34.480469 45.753906 34.339844 45.746094 34.175781 C 45.738281 34.007812 45.613281 33.867188 45.4375 33.867188 C 45.40625 33.867188 45.375 33.867188 45.34375 33.867188 C 45.179688 33.867188 45.027344 34.007812 45.035156 34.175781 C 45.042969 34.339844 45.167969 34.480469 45.34375 34.480469 C 45.375 34.480469 45.40625 34.480469 45.4375 34.480469 Z M 45.941406 43.007812 C 45.941406 42.988281 45.941406 42.96875 45.941406 42.949219 C 45.941406 42.554688 45.324219 42.554688 45.324219 42.949219 C 45.324219 42.96875 45.324219 42.988281 45.324219 43.007812 C 45.324219 43.402344 45.941406 43.402344 45.941406 43.007812 Z M 60.835938 48.8125 C 60.667969 48.820312 60.527344 48.949219 60.527344 49.121094 C 60.527344 49.152344 60.527344 49.183594 60.527344 49.214844 C 60.527344 49.375 60.667969 49.53125 60.835938 49.523438 C 61.003906 49.515625 61.144531 49.386719 61.144531 49.214844 C 61.144531 49.183594 61.144531 49.152344 61.144531 49.121094 C 61.144531 48.960938 61 48.804688 60.835938 48.8125 Z M 68.96875 42.640625 C 68.570312 42.640625 68.570312 43.253906 68.96875 43.253906 C 69.367188 43.253906 69.367188 42.640625 68.96875 42.640625 Z M 61.722656 41.117188 C 61.714844 40.949219 61.589844 40.808594 61.414062 40.808594 C 61.382812 40.808594 61.351562 40.808594 61.320312 40.808594 C 61.15625 40.808594 61.003906 40.953125 61.011719 41.117188 C 61.019531 41.28125 61.148438 41.421875 61.320312 41.421875 C 61.351562 41.421875 61.382812 41.421875 61.414062 41.421875 C 61.578125 41.421875 61.730469 41.28125 61.722656 41.117188 Z M 61.804688 44.570312 C 61.769531 44.570312 61.738281 44.570312 61.707031 44.570312 C 61.546875 44.570312 61.390625 44.710938 61.398438 44.878906 C 61.40625 45.042969 61.535156 45.183594 61.707031 45.183594 C 61.738281 45.183594 61.769531 45.183594 61.804688 45.183594 C 61.964844 45.183594 62.117188 45.042969 62.113281 44.878906 C 62.105469 44.710938 61.976562 44.570312 61.804688 44.570312 Z M 58.722656 39.507812 C 58.78125 39.480469 58.839844 39.453125 58.898438 39.429688 C 58.898438 39.429688 58.839844 39.449219 58.722656 39.507812 Z M 17.214844 55.769531 C 17.613281 56.066406 22.050781 59.488281 29.828125 60.015625 C 37.609375 60.546875 47.828125 54.007812 47.828125 54.007812 C 47.828125 54.007812 38.167969 59.019531 30.386719 59.0625 C 22.609375 59.105469 17.214844 55.769531 17.214844 55.769531 Z M 48.851562 72.710938 C 46.359375 78.863281 41.265625 82.441406 41.265625 82.441406 C 41.265625 82.441406 45.832031 79.785156 48.664062 74.933594 C 52.929688 67.625 47.828125 54.007812 47.828125 54.007812 C 47.828125 54.007812 51.34375 66.554688 48.851562 72.710938 Z M 36.292969 37.277344 C 34.894531 30.746094 36.195312 27.261719 36.195312 27.261719 C 36.195312 27.261719 32.957031 33.777344 36.976562 41.113281 C 40.992188 48.449219 47.828125 54.007812 47.828125 54.007812 C 47.828125 54.007812 37.941406 44.976562 36.292969 37.277344 Z M 33.371094 35.554688 C 33.324219 35.105469 33.300781 34.65625 33.300781 34.207031 C 32.800781 32.851562 31.292969 29.820312 27.304688 27.253906 C 28.183594 30.269531 30.128906 33.277344 33.371094 35.554688 Z M 27.125 18.453125 C 27.863281 15.289062 24.53125 11.195312 24.746094 11.980469 C 24.757812 12.023438 24.765625 12.066406 24.773438 12.113281 C 24.890625 12.953125 24.285156 14.652344 24.191406 17.398438 C 24.089844 20.300781 25.859375 21.546875 25.859375 21.546875 C 25.605469 21.144531 25.460938 19.128906 25.425781 18.628906 C 25.496094 19.375 26.011719 20.714844 26.257812 21.3125 C 26.449219 20.210938 26.746094 19.261719 27.125 18.453125 Z M 20.398438 20.265625 C 19.371094 20.101562 17.578125 18.785156 17.578125 18.785156 C 18.777344 24.121094 24.371094 25.644531 24.371094 25.644531 C 23.882812 25.445312 22.535156 23.742188 22.535156 23.742188 C 22.914062 24.128906 24.90625 25.269531 24.90625 25.269531 C 25.066406 22.6875 21.425781 20.433594 20.398438 20.265625 Z M 29.601562 14.910156 C 29.601562 14.910156 29.675781 13.539062 30.980469 12.902344 C 30.980469 12.902344 30.378906 14.417969 30.378906 15.039062 C 30.832031 14.816406 31.300781 14.652344 31.777344 14.535156 C 32.878906 13.636719 35.125 11.28125 33.492188 7.996094 C 33.492188 7.996094 32.675781 9.070312 31.269531 10.234375 C 29.867188 11.398438 28.957031 13.027344 29.601562 14.910156 Z M 47.828125 54.007812 C 47.828125 54.007812 47.574219 53.859375 47.128906 53.566406 C 42.886719 55.910156 36.097656 55.617188 36.097656 55.617188 C 41.511719 55.054688 46.136719 52.886719 46.136719 52.886719 L 46.140625 52.886719 C 45.472656 52.414062 44.652344 51.789062 43.734375 51.015625 C 42.121094 51.140625 37.996094 50.953125 37.996094 50.953125 C 39.046875 50.429688 41.835938 50.277344 42.839844 50.238281 C 41.636719 49.160156 40.320312 47.851562 39.027344 46.320312 C 37.167969 46.195312 32.734375 46.472656 32.824219 46.402344 C 33.769531 45.699219 36.695312 45.414062 38.207031 45.316406 C 37.773438 44.765625 37.347656 44.191406 36.933594 43.59375 C 36.890625 43.527344 36.84375 43.460938 36.800781 43.394531 L 36.632812 43.152344 C 35.851562 41.984375 35.113281 40.726562 34.453125 39.375 C 33.925781 38.300781 33.601562 37.1875 33.433594 36.0625 C 31.671875 34.925781 27.410156 31.714844 26.289062 26.644531 C 25.992188 26.480469 25.691406 26.316406 25.375 26.15625 C 25.375 26.15625 22 26.445312 18.988281 23.035156 C 15.980469 19.625 15.976562 15.929688 15.976562 15.929688 C 15.976562 15.929688 17.5 18.515625 20.363281 19.5625 C 23.226562 20.609375 26.199219 23.972656 25.640625 25.882812 C 25.640625 25.882812 25.847656 25.972656 26.1875 26.148438 C 26.0625 25.433594 26 24.683594 26.015625 23.898438 C 26.027344 23.375 26.058594 22.878906 26.105469 22.40625 C 22.371094 20.242188 23.808594 14.234375 23.917969 12.730469 C 24.03125 11.203125 23.753906 10.496094 23.753906 10.496094 C 27.480469 12.753906 27.902344 15.78125 27.882812 17.160156 C 28.328125 16.539062 28.835938 16.039062 29.382812 15.636719 L 29.378906 15.640625 C 29.378906 15.640625 28.160156 12.453125 30.535156 10.140625 C 32.90625 7.824219 33.246094 7.015625 33.34375 6.195312 C 33.34375 6.195312 36.089844 11.503906 32.785156 14.359375 C 33.507812 14.285156 34.230469 14.304688 34.921875 14.40625 C 38.761719 14.976562 39.046875 20.585938 35.941406 21.742188 C 32.835938 22.898438 31.992188 20.660156 32.074219 19.632812 C 32.15625 18.609375 33.292969 18.058594 34.027344 17.832031 C 34.027344 17.832031 32.308594 18.609375 32.773438 20.269531 C 33.238281 21.925781 36.152344 21.777344 37.152344 19.820312 C 38.152344 17.863281 35.992188 12.679688 30.539062 15.65625 C 27.398438 17.371094 25.984375 21.976562 27.148438 26.679688 C 28.996094 27.785156 32.039062 30.050781 33.316406 33.566406 C 33.707031 25.40625 41.171875 17.316406 42.605469 17.066406 C 44.378906 16.753906 55.144531 20.90625 55.144531 34.851562 C 55.144531 34.851562 51.601562 19.765625 42.679688 17.367188 C 42.679688 17.367188 34.164062 24.054688 34.292969 33.945312 C 34.421875 43.765625 47.828125 54.007812 47.828125 54.007812 Z M 36.902344 60.824219 C 34.832031 61.601562 32.59375 62.144531 30.304688 62.203125 C 31.558594 62.742188 33.078125 63.28125 33.960938 63.402344 C 33.960938 63.402344 33.984375 63.457031 34.011719 63.523438 C 34.125 63.457031 34.238281 63.394531 34.355469 63.324219 L 34.355469 63.339844 C 35.414062 62.195312 36.359375 61.3125 36.902344 60.824219 Z M 33.628906 64.152344 C 33.199219 64.382812 32.585938 64.710938 31.832031 65.105469 L 31.398438 67.0625 C 32.101562 66.003906 32.875 65.023438 33.628906 64.152344 Z M 31.289062 67.222656 C 31.421875 66.273438 31.519531 65.617188 31.578125 65.238281 C 30.824219 65.632812 29.949219 66.089844 28.984375 66.582031 C 28.636719 67.886719 27.09375 73.160156 23.765625 78.480469 C 25.167969 78.015625 26.328125 77.539062 27.191406 77.148438 C 27.699219 76.375 28.347656 75.472656 28.8125 74.613281 C 28.8125 74.613281 28.8125 74.609375 28.8125 74.609375 C 28.65625 72.101562 29.792969 69.503906 31.289062 67.222656 Z M 23.710938 78.5 C 24.464844 76.984375 27.359375 71.039062 28.289062 66.9375 C 27.445312 67.367188 26.546875 67.820312 25.609375 68.285156 C 25.113281 69.878906 23.269531 75.316406 20.066406 79.515625 C 21.40625 79.210938 22.628906 78.859375 23.710938 78.5 Z M 19.964844 79.539062 C 23.066406 74.921875 24.636719 70.046875 25.074219 68.550781 C 24.074219 69.042969 23.039062 69.546875 21.992188 70.042969 C 21.113281 71.90625 18.453125 77.308594 15.921875 80.226562 C 17.359375 80.0625 18.714844 79.820312 19.964844 79.539062 Z M 15.742188 80.246094 C 17.371094 77.886719 20.386719 72.273438 21.433594 70.308594 C 20.484375 70.753906 19.53125 71.191406 18.585938 71.613281 C 17.660156 73.488281 15.261719 78.070312 12.871094 80.445312 C 13.070312 80.4375 13.265625 80.433594 13.46875 80.425781 C 14.25 80.386719 15.003906 80.328125 15.742188 80.246094 Z M 12.679688 80.449219 C 14.644531 78.117188 17.003906 73.742188 17.964844 71.890625 C 17.179688 72.238281 16.40625 72.570312 15.652344 72.878906 C 14.546875 74.683594 12.121094 78.449219 10.0625 80.382812 C 10.878906 80.441406 11.75 80.46875 12.679688 80.449219 Z M 9.855469 80.363281 C 12.84375 76.949219 14.242188 74.472656 14.839844 73.210938 C 14.378906 73.398438 13.929688 73.574219 13.492188 73.738281 C 12.714844 74.03125 11.964844 74.300781 11.246094 74.542969 C 10.332031 76.003906 8.511719 78.605469 6.484375 79.835938 C 7.472656 80.074219 8.597656 80.261719 9.855469 80.363281 Z M 6.261719 79.78125 C 7.300781 78.957031 9.355469 77.132812 10.691406 74.730469 C 8.699219 75.390625 6.957031 75.871094 5.496094 76.214844 C 5.164062 77.007812 4.53125 78.339844 3.816406 78.984375 C 4.511719 79.269531 5.328125 79.546875 6.261719 79.78125 Z M 3.605469 78.898438 C 4.042969 78.359375 4.726562 77.390625 4.925781 76.351562 C 2.667969 76.859375 1.167969 77.039062 0.574219 77.09375 C 0.785156 77.285156 1.757812 78.113281 3.605469 78.898438 Z M 0.535156 77.054688 C 1.082031 76.910156 2.527344 76.519531 4.617188 75.886719 C 3.75 75.515625 1.53125 74.554688 0.742188 74.1875 C 0.480469 75.101562 0.394531 76.058594 0.53125 77.054688 C 0.53125 77.054688 0.535156 77.054688 0.535156 77.054688 Z M 0.757812 74.136719 C 1.660156 74.414062 4.417969 75.25 5.664062 75.566406 C 7.035156 75.140625 8.621094 74.625 10.367188 74.023438 C 8.722656 73.9375 4.460938 73.511719 2.109375 71.425781 C 1.507812 72.277344 1.035156 73.183594 0.757812 74.136719 Z M 2.164062 71.351562 C 3.257812 72.039062 6.34375 73.589844 11.871094 73.492188 C 11.871094 73.492188 11.867188 73.496094 11.863281 73.503906 C 12.941406 73.121094 14.066406 72.710938 15.234375 72.269531 C 9.542969 71.625 6.144531 69.722656 4.640625 68.707031 C 3.703125 69.511719 2.851562 70.398438 2.164062 71.351562 Z M 4.816406 68.558594 C 6.875 69.480469 11.566406 71.378906 16.265625 71.863281 C 16.265625 71.863281 16.261719 71.871094 16.257812 71.875 C 16.960938 71.605469 17.679688 71.320312 18.402344 71.027344 C 18.390625 71.023438 16.113281 70.28125 12.675781 68.71875 C 10.5 67.726562 9.046875 66.730469 8.273438 66.128906 C 7.09375 66.828125 5.902344 67.640625 4.816406 68.558594 Z M 8.421875 66.042969 C 10.300781 67.109375 15.0625 69.6875 18.988281 70.785156 C 18.988281 70.785156 18.984375 70.789062 18.984375 70.792969 C 19.910156 70.417969 20.847656 70.023438 21.800781 69.609375 C 21.792969 69.609375 21 69.242188 17.320312 67.339844 C 14.625 65.949219 12.976562 64.714844 12.246094 64.128906 C 11.128906 64.59375 9.789062 65.242188 8.421875 66.042969 Z M 12.351562 64.085938 C 14.046875 65.074219 19.300781 68.105469 22.296875 69.390625 C 22.296875 69.390625 22.292969 69.390625 22.292969 69.398438 C 23.253906 68.976562 24.226562 68.539062 25.203125 68.085938 C 25.191406 68.078125 24.789062 67.921875 20.84375 66.21875 C 17.816406 64.910156 16.128906 63.628906 15.480469 63.074219 C 15.128906 63.167969 14.800781 63.25 14.507812 63.324219 C 14.007812 63.453125 13.253906 63.710938 12.351562 64.085938 Z M 15.605469 63.039062 C 17.175781 63.9375 22.605469 66.972656 25.746094 67.828125 C 25.746094 67.828125 25.746094 67.832031 25.746094 67.832031 C 26.617188 67.417969 27.496094 66.996094 28.371094 66.554688 C 28.367188 66.554688 23.820312 65.371094 19.882812 61.859375 C 18.445312 62.265625 16.878906 62.699219 15.605469 63.039062 Z M 19.917969 61.851562 C 20.898438 62.488281 26.355469 66.046875 28.949219 66.265625 C 29.847656 65.808594 30.746094 65.339844 31.636719 64.855469 C 28.988281 64.546875 23.429688 60.871094 23.429688 60.871094 L 23.5 60.84375 C 23.492188 60.84375 23.484375 60.839844 23.480469 60.835938 C 22.757812 61.042969 21.410156 61.429688 19.917969 61.851562 Z M 24.675781 61.285156 C 26.140625 62.234375 29.253906 64.101562 31.921875 64.699219 C 32.457031 64.410156 32.988281 64.109375 33.519531 63.808594 C 31.914062 63.484375 30.597656 62.519531 30.203125 62.207031 C 28.683594 62.238281 27.140625 62.054688 25.609375 61.589844 C 25.289062 61.492188 24.980469 61.390625 24.675781 61.285156 Z M 12.5 50.355469 C 12.628906 50.289062 12.753906 50.214844 12.871094 50.136719 C 13.664062 49.613281 13.941406 48.621094 13.828125 47.664062 C 12.972656 48.605469 12.449219 49.335938 12.355469 49.519531 C 12.300781 49.617188 12.347656 49.917969 12.5 50.355469 Z M 12.171875 50.511719 C 11.910156 49.898438 11.808594 49.5 11.832031 49.417969 C 11.878906 49.28125 12.554688 48.273438 13.6875 46.996094 C 13.347656 45.933594 12.519531 45.09375 11.398438 45.308594 C 9.097656 45.75 9.933594 48.023438 11.28125 48.386719 C 11.28125 48.386719 9.375 48.808594 9.078125 47.082031 C 8.785156 45.359375 11.167969 43.671875 13.132812 45.015625 C 13.632812 45.355469 14.019531 45.828125 14.269531 46.363281 C 16.511719 43.992188 20.097656 41.082031 24.125 40.878906 C 25.140625 40.828125 26.140625 40.855469 27.113281 40.941406 C 26.917969 40.734375 26.605469 40.421875 26.195312 40.050781 C 25.875 39.945312 25.589844 39.855469 25.371094 39.800781 C 25.539062 39.835938 25.789062 39.890625 26.097656 39.960938 C 24.558594 38.601562 21.683594 36.53125 17.820312 35.792969 C 17.371094 36.015625 16.851562 36.21875 16.261719 36.363281 C 14.84375 36.710938 12.695312 36.40625 10.554688 36.226562 C 4.527344 38.378906 3.476562 44.953125 5.464844 47.941406 C 7.476562 50.96875 10.238281 51.34375 12.171875 50.511719 Z M 13.40625 35.601562 C 13.148438 35.625 12.898438 35.660156 12.652344 35.699219 C 13.535156 35.804688 14.382812 35.875 15.089844 35.808594 C 15.496094 35.769531 15.886719 35.6875 16.253906 35.582031 C 15.347656 35.503906 14.398438 35.5 13.40625 35.601562 Z M 10.652344 35.453125 C 10.703125 35.4375 10.746094 35.417969 10.792969 35.402344 C 12.976562 34.703125 15.269531 34.695312 17.460938 35.125 C 18.410156 34.679688 19.03125 34.1875 19.03125 34.1875 C 17.882812 33.511719 14.792969 34.074219 14.792969 34.074219 C 15.511719 33.160156 18.585938 33.429688 18.585938 33.429688 C 14.003906 30.839844 7.601562 35.535156 7.601562 35.535156 C 8.421875 35.277344 9.507812 35.324219 10.652344 35.453125 Z M 18.558594 35.378906 C 21.929688 36.277344 24.964844 38.171875 26.835938 40.136719 C 28.230469 40.480469 30.066406 41 30.585938 41.472656 C 30.742188 41.503906 30.894531 41.539062 31.042969 41.574219 C 30.074219 40.832031 28.050781 39.371094 25.976562 38.382812 C 27.980469 39.1875 30.78125 40.476562 32.121094 41.847656 C 32.855469 42.046875 33.523438 42.257812 34.117188 42.460938 C 33.488281 41.351562 29.539062 35.082031 20.042969 34.054688 C 20.042969 34.054688 19.566406 34.726562 18.558594 35.378906 Z M 29.285156 41.21875 C 28.800781 41.023438 27.890625 40.664062 27.027344 40.347656 C 27.222656 40.558594 27.398438 40.769531 27.5625 40.984375 C 28.152344 41.042969 28.726562 41.125 29.285156 41.21875 Z M 47.375 54.40625 L 47.828125 54.007812 C 49.519531 60.1875 46.109375 69.234375 46.136719 69.058594 C 48.023438 58.371094 46.914062 54.8125 46.914062 54.8125 L 46.917969 54.8125 C 46.363281 55.277344 45.578125 55.90625 44.605469 56.609375 C 44.605469 56.609375 43.332031 60.707031 42.511719 62.210938 C 42.511719 62.210938 43.070312 58.683594 43.546875 57.339844 C 42.582031 57.988281 41.492188 58.65625 40.296875 59.289062 L 36.542969 65.308594 C 36.542969 65.144531 37.804688 61.839844 39.03125 59.921875 C 38.375 60.230469 37.699219 60.523438 37 60.789062 C 35.855469 61.953125 32.480469 65.609375 30.742188 69.957031 C 28.628906 75.246094 31.445312 84.09375 32.855469 85.222656 C 34.261719 86.351562 45.183594 85.066406 49.292969 74.777344 C 53.402344 64.492188 47.828125 54.007812 47.828125 54.007812 C 47.828125 54.007812 60.628906 57.683594 65.136719 64.382812 C 65.136719 64.382812 58.765625 58.210938 48.855469 55.566406 C 49.421875 56.539062 50.132812 57.941406 50.730469 59.691406 C 52.707031 60.800781 58.613281 65.132812 58.613281 65.132812 C 56.832031 64.578125 52.5625 61.816406 51.09375 60.851562 C 51.273438 61.476562 51.433594 62.140625 51.570312 62.839844 C 52.984375 64.371094 56.90625 68.292969 61.1875 69.65625 C 61.1875 69.65625 56.542969 68.769531 51.785156 64.191406 C 51.976562 65.652344 52.03125 67.238281 51.886719 68.921875 C 54.1875 71.199219 55.828125 74.105469 56.351562 77.472656 C 57.570312 85.289062 52.96875 89.925781 49.375 89.402344 C 45.78125 88.878906 44.484375 86.832031 44.578125 84.628906 C 44.675781 82.425781 47.460938 79.976562 49.777344 81.785156 C 52.09375 83.597656 50.382812 86.492188 48.90625 86.128906 C 47.429688 85.769531 47.714844 84.554688 47.714844 84.554688 C 47.800781 84.957031 48.347656 85.835938 49.195312 85.691406 C 50.046875 85.546875 51.148438 83.808594 49.738281 82.535156 C 48.328125 81.261719 46.144531 82.011719 45.550781 83.359375 C 44.953125 84.707031 44.6875 88.230469 49.167969 88.832031 C 53.644531 89.433594 58.253906 82.699219 54.871094 73.996094 C 54.15625 72.15625 53.085938 70.652344 51.839844 69.414062 C 51.660156 71.0625 51.289062 72.800781 50.648438 74.609375 C 46.472656 86.472656 33.511719 86.191406 32.78125 85.757812 C 32.0625 85.335938 29.328125 81.511719 28.835938 74.964844 C 28.515625 75.765625 27.980469 76.773438 27.976562 76.78125 C 28.617188 76.46875 28.964844 76.265625 28.964844 76.265625 C 26.957031 77.539062 24.617188 78.789062 21.949219 79.675781 C 7.113281 84.605469 0.0507812 77.285156 0.0507812 77.285156 C -0.171875 73.394531 1.328125 70.375 3.765625 68.070312 C 3.75 68.058594 3.738281 68.050781 3.730469 68.046875 C 3.730469 68.046875 3.746094 68.054688 3.765625 68.066406 C 7.015625 64.988281 11.925781 63.175781 16.621094 62.257812 C 19.203125 61.753906 21.71875 61.183594 23.417969 60.8125 C 16.917969 58.164062 13.714844 53.628906 12.46875 51.148438 C 12.433594 51.167969 12.398438 51.191406 12.359375 51.210938 C 9.40625 52.746094 5.34375 50.722656 4.320312 47.050781 C 3.398438 43.742188 4.058594 38.644531 9.011719 36.128906 C 7.777344 36.089844 6.609375 36.15625 5.65625 36.496094 C 5.65625 36.496094 13.433594 28.679688 19.984375 33.710938 C 19.984375 33.710938 31.054688 34.648438 34.550781 42.378906 C 34 40.714844 31.085938 33.796875 19.429688 29.148438 C 19.03125 28.988281 32.632812 33.082031 34.863281 41.773438 L 35.25 42.871094 C 36.3125 43.285156 36.933594 43.59375 36.933594 43.59375 C 36.933594 43.59375 31.546875 41.773438 24.820312 41.773438 C 20.496094 41.773438 16.722656 44.707031 14.488281 46.972656 C 14.835938 48.339844 14.363281 49.949219 12.757812 50.976562 C 13.996094 53.644531 18.105469 59.085938 27.152344 60.589844 C 37.292969 62.277344 45.414062 56.070312 47.375 54.40625 Z M 50.925781 33.734375 C 50.933594 33.761719 50.945312 33.796875 50.953125 33.828125 C 50.933594 33.765625 50.925781 33.734375 50.925781 33.734375 Z M 50.925781 33.734375 " clip-rule="nonzero"/></clipPath><clipPath id="582bf4b8a9"><path d="M 65.320312 27.5 C 65.625 27.5 65.625 27.027344 65.320312 27.027344 C 65.015625 27.027344 65.011719 27.5 65.320312 27.5 Z M 63.90625 27.578125 C 64.3125 27.578125 64.3125 26.949219 63.90625 26.949219 C 63.5 26.949219 63.496094 27.578125 63.90625 27.578125 Z M 62.1875 27.257812 C 61.9375 27.257812 61.699219 27.472656 61.710938 27.730469 C 61.722656 27.984375 61.921875 28.199219 62.1875 28.199219 C 62.203125 28.199219 62.214844 28.199219 62.230469 28.199219 C 62.476562 28.199219 62.714844 27.984375 62.703125 27.730469 C 62.691406 27.472656 62.496094 27.257812 62.230469 27.257812 C 62.214844 27.257812 62.203125 27.257812 62.1875 27.257812 Z M 80.613281 47.007812 C 81.222656 47.007812 81.222656 46.0625 80.613281 46.0625 C 80.003906 46.0625 80 47.007812 80.613281 47.007812 Z M 82.390625 48.695312 C 82.394531 48.695312 82.402344 48.695312 82.410156 48.695312 C 82.574219 48.695312 82.734375 48.550781 82.726562 48.382812 C 82.71875 48.210938 82.585938 48.066406 82.410156 48.066406 C 82.402344 48.066406 82.394531 48.066406 82.390625 48.066406 C 82.222656 48.066406 82.066406 48.210938 82.074219 48.382812 C 82.082031 48.554688 82.210938 48.695312 82.390625 48.695312 Z M 83.855469 50.160156 C 83.878906 50.160156 83.90625 50.160156 83.929688 50.160156 C 84.234375 50.160156 84.234375 49.6875 83.929688 49.6875 C 83.90625 49.6875 83.878906 49.6875 83.855469 49.6875 C 83.550781 49.6875 83.550781 50.160156 83.855469 50.160156 Z M 78.152344 45.609375 C 78.964844 45.609375 78.96875 44.351562 78.152344 44.351562 C 77.339844 44.351562 77.339844 45.609375 78.152344 45.609375 Z M 81.707031 62.367188 C 81.867188 62.367188 81.996094 62.238281 81.996094 62.082031 C 81.996094 61.925781 81.867188 61.796875 81.707031 61.796875 C 81.550781 61.796875 81.421875 61.925781 81.421875 62.082031 C 81.421875 62.242188 81.550781 62.367188 81.707031 62.367188 Z M 80.023438 62.554688 C 80.210938 62.554688 80.359375 62.40625 80.359375 62.222656 C 80.359375 62.035156 80.207031 61.886719 80.023438 61.886719 C 79.835938 61.886719 79.6875 62.035156 79.6875 62.222656 C 79.6875 62.40625 79.839844 62.554688 80.023438 62.554688 Z M 78.199219 62.507812 C 78.433594 62.507812 78.625 62.320312 78.625 62.085938 C 78.625 61.851562 78.433594 61.660156 78.199219 61.660156 C 77.964844 61.660156 77.773438 61.851562 77.773438 62.085938 C 77.773438 62.320312 77.964844 62.507812 78.199219 62.507812 Z M 76.304688 62.222656 C 76.617188 62.222656 76.867188 61.972656 76.867188 61.660156 C 76.867188 61.351562 76.617188 61.101562 76.304688 61.101562 C 75.992188 61.101562 75.738281 61.351562 75.738281 61.660156 C 75.742188 61.972656 75.992188 62.222656 76.304688 62.222656 Z M 95.558594 53.746094 C 95.160156 54.660156 94.300781 55.523438 92.660156 56.078125 C 87.601562 57.777344 83.734375 53.574219 80.515625 49.550781 C 79.054688 47.730469 76.816406 47.195312 74.851562 47.144531 C 74.296875 47.808594 73.683594 48.457031 73.003906 49.078125 C 75.75 48.882812 79.6875 49.6875 82.488281 53.296875 C 86.730469 58.757812 92.5625 57.800781 92.5625 57.800781 C 89.015625 64.597656 80.460938 64.460938 75.722656 63.792969 C 75.914062 64.257812 76.082031 64.71875 76.234375 65.179688 C 79.96875 65.480469 85.722656 64.734375 89.792969 62.351562 C 94.433594 59.628906 95.367188 55.324219 95.558594 53.746094 Z M 75.417969 63.089844 C 88.167969 64.554688 91.699219 58.441406 91.855469 58.160156 C 81.078125 65.046875 70.785156 56.855469 70.785156 56.855469 C 70.210938 56.449219 66.964844 54.117188 66.074219 53.476562 C 65.113281 53.957031 64.183594 54.367188 63.660156 54.464844 C 63.660156 54.464844 69.230469 54.59375 73.398438 59.769531 C 74.546875 60.039062 75.59375 60.523438 75.195312 61.386719 C 75.089844 61.609375 74.941406 61.738281 74.765625 61.800781 C 75.003906 62.230469 75.21875 62.660156 75.417969 63.089844 Z M 69.320312 51.714844 C 68.894531 51.960938 67.917969 52.519531 66.867188 53.070312 L 67.453125 53.527344 C 70.785156 53.234375 71.347656 51.722656 71.167969 50.554688 C 70.921875 50.726562 70.671875 50.898438 70.410156 51.0625 C 70.40625 51.082031 70.40625 51.09375 70.402344 51.113281 C 70.269531 51.640625 69.800781 51.8125 69.320312 51.714844 Z M 85.929688 59.171875 C 85.792969 59.523438 85.578125 59.796875 85.316406 60.011719 C 87.421875 59.65625 89.117188 59.050781 90.113281 58.632812 C 88.714844 58.789062 87.398438 58.386719 86.132812 57.660156 C 86.207031 58.058594 86.167969 58.550781 85.929688 59.171875 Z M 82.09375 57.175781 C 81.214844 59.46875 78.117188 59.539062 76.449219 59.394531 C 79.121094 60.308594 81.734375 60.421875 84 60.1875 C 85.820312 59.523438 85.808594 58.128906 85.484375 57.261719 C 85.03125 56.957031 84.585938 56.621094 84.144531 56.253906 C 83.726562 56.261719 83.328125 56.496094 83.167969 57.226562 C 82.894531 58.5 84.519531 58.992188 84.710938 58.242188 C 84.902344 57.492188 83.878906 57.328125 83.878906 57.328125 C 83.878906 57.328125 85.207031 57.253906 84.898438 58.359375 C 84.585938 59.464844 82.734375 58.839844 82.753906 57.542969 C 82.765625 56.683594 83.40625 56.253906 83.984375 56.125 C 83.425781 55.652344 82.871094 55.140625 82.320312 54.613281 C 82.519531 55.25 82.511719 56.085938 82.09375 57.175781 Z M 80.554688 55.96875 C 80.089844 57.617188 77.328125 56.679688 77.355469 54.746094 C 77.382812 52.8125 79.5625 52.332031 80.300781 52.660156 C 80.320312 52.667969 80.339844 52.679688 80.359375 52.6875 C 79.949219 52.285156 79.542969 51.890625 79.132812 51.511719 C 77.996094 50.457031 76.757812 49.882812 75.574219 49.59375 C 76.4375 50.039062 77.273438 50.976562 77.089844 53.035156 C 76.835938 55.828125 73.007812 56.609375 71.652344 56.800781 C 73.085938 57.90625 74.554688 58.695312 76.011719 59.242188 C 83.828125 58.9375 81.542969 53.746094 80.738281 53.238281 C 79.914062 52.714844 78.386719 52.371094 77.976562 54.273438 C 77.566406 56.175781 79.992188 56.910156 80.277344 55.792969 C 80.558594 54.675781 79.039062 54.429688 79.039062 54.429688 C 79.039062 54.429688 81.019531 54.316406 80.554688 55.96875 Z M 73.265625 49.34375 C 73.0625 49.347656 72.867188 49.355469 72.675781 49.371094 C 72.351562 49.652344 72.011719 49.929688 71.65625 50.199219 C 71.65625 50.199219 71.65625 50.195312 71.65625 50.195312 C 71.785156 50.636719 71.78125 51.203125 71.527344 51.941406 C 70.960938 53.566406 68.8125 53.703125 67.609375 53.644531 L 70.976562 56.253906 C 71.175781 56.425781 71.375 56.585938 71.574219 56.738281 C 79.3125 54.351562 75.632812 49.886719 74.710938 49.613281 C 73.773438 49.332031 72.210938 49.414062 72.335938 51.355469 C 72.457031 53.300781 74.992188 53.347656 74.960938 52.195312 C 74.929688 51.042969 73.398438 51.21875 73.398438 51.21875 C 73.398438 51.21875 75.273438 50.578125 75.277344 52.289062 C 75.277344 54.003906 72.367188 53.847656 71.867188 51.980469 C 71.503906 50.632812 72.425781 49.710938 73.265625 49.34375 Z M 62.777344 54.003906 C 78.203125 48.703125 79.4375 34.320312 79.4375 34.320312 C 78.023438 33.195312 63.726562 29.425781 56.664062 35.222656 C 52.144531 38.929688 49.867188 45.453125 48.765625 49.75 C 49.886719 45.871094 52.230469 40.230469 56.871094 36.734375 C 64.808594 30.757812 77.289062 33.648438 77.289062 33.648438 C 77.289062 33.648438 65.933594 32.183594 58.304688 36.6875 C 51.402344 40.757812 48.414062 51.632812 47.910156 53.671875 C 47.875 53.84375 47.851562 53.953125 47.835938 53.996094 C 48 53.589844 52.65625 42.3125 58.722656 39.507812 C 57.839844 39.953125 53.804688 42.476562 49.332031 53.117188 C 50.464844 52.03125 53.75 48.746094 58.21875 46.03125 C 58.21875 46.03125 53.542969 50.484375 50.171875 53.738281 C 51.316406 53.632812 52.816406 53.527344 54.507812 53.492188 C 56.664062 53.023438 63.476562 51.320312 67.648438 47.792969 C 67.648438 47.792969 62.941406 52.347656 57.367188 53.503906 C 59.121094 53.558594 60.96875 53.703125 62.777344 54.003906 Z M 49.027344 53.855469 L 49.023438 53.855469 C 49.027344 53.855469 49.027344 53.855469 49.027344 53.855469 Z M 56.074219 33.445312 C 60.339844 23.449219 63.816406 17.738281 66.515625 14.394531 C 64.636719 14.976562 62.667969 16.035156 60.761719 17.691406 C 55.269531 22.457031 55.636719 30.222656 56.074219 33.445312 Z M 90.574219 62.621094 C 85.78125 66.375 80.121094 66.519531 76.519531 66.105469 C 77.746094 70.464844 77.402344 74.253906 77.402344 74.503906 C 77.402344 74.921875 70.503906 79.914062 61.308594 75.960938 C 55.691406 73.546875 53.488281 70.476562 51.972656 67.148438 C 62.636719 82.855469 76.882812 74.5625 76.933594 74.25 C 76.988281 73.9375 78.316406 64.183594 70.507812 58.25 C 63.410156 52.855469 50.484375 53.761719 48.183594 53.972656 C 49.328125 53.972656 59.453125 54.050781 65.625 56.660156 C 72.171875 59.425781 75.347656 67.625 76.933594 71.476562 C 76.933594 71.476562 72.535156 62.734375 66.328125 58.578125 C 60.125 54.417969 47.828125 54.007812 47.828125 54.007812 C 47.828125 54.007812 41.1875 45.441406 40.902344 38.800781 C 40.902344 38.800781 42.277344 45.160156 47.972656 52.722656 L 47.929688 53.125 C 48.074219 51.976562 48.402344 49.808594 49.050781 47.261719 C 48.675781 45.773438 47.644531 41.535156 47.609375 39.726562 C 47.609375 39.726562 49.023438 43.199219 49.589844 45.328125 C 50.101562 43.621094 50.757812 41.828125 51.589844 40.113281 C 51.550781 38.492188 51.410156 35.289062 50.96875 33.871094 C 51.15625 34.441406 51.855469 36.699219 52.109375 39.101562 C 53.085938 37.296875 54.269531 35.625 55.714844 34.292969 C 54.132812 27.0625 56.75 18.824219 63.539062 15.121094 C 64.765625 14.449219 65.960938 13.984375 67.101562 13.691406 C 69.359375 11.0625 71.023438 10.144531 72.09375 9.648438 C 74.910156 8.339844 76.820312 9.765625 77.136719 10.425781 C 77.429688 11.039062 76.851562 11.628906 76.265625 11.382812 C 75.707031 11.144531 76.007812 10.714844 76.007812 10.714844 C 76.007812 10.839844 76.054688 10.964844 76.148438 11.058594 C 76.339844 11.25 76.648438 11.25 76.839844 11.058594 C 77.03125 10.871094 77.03125 10.5625 76.839844 10.371094 C 76.628906 10.160156 74.074219 7.617188 68.59375 13.394531 C 73.195312 12.761719 76.636719 14.949219 77.179688 17.589844 C 77.910156 21.132812 76.417969 23.042969 74.304688 23.703125 C 72.191406 24.363281 68.929688 22.589844 69.851562 19.804688 C 70.773438 17.019531 74.089844 17.636719 74.25 19.144531 C 74.414062 20.648438 73.167969 20.792969 73.167969 20.792969 C 73.519531 20.578125 74.164062 19.765625 73.738281 19.019531 C 73.308594 18.269531 71.296875 17.832031 70.574219 19.585938 C 69.851562 21.339844 71.300781 23.128906 72.777344 23.226562 C 74.253906 23.324219 77.667969 22.375 76.710938 17.976562 C 76.082031 15.085938 72.4375 13.222656 68.007812 14.027344 C 64.933594 17.472656 60.996094 23.460938 56.105469 33.679688 C 56.117188 33.765625 56.128906 33.84375 56.144531 33.917969 C 56.539062 33.582031 56.957031 33.269531 57.390625 32.988281 C 57.859375 31.984375 58.9375 29.78125 59.851562 28.8125 C 59.769531 28.703125 59.71875 28.574219 59.710938 28.429688 C 59.695312 28.09375 60.011719 27.800781 60.34375 27.800781 C 60.359375 27.800781 60.375 27.800781 60.386719 27.800781 C 60.742188 27.800781 61.003906 28.089844 61.019531 28.429688 C 61.035156 28.773438 60.71875 29.0625 60.386719 29.0625 C 60.375 29.0625 60.359375 29.0625 60.34375 29.0625 C 60.242188 29.0625 60.152344 29.035156 60.070312 28.996094 C 59.574219 29.632812 58.265625 31.390625 57.75 32.765625 C 58.46875 32.339844 59.234375 31.988281 60.054688 31.738281 C 70.609375 28.511719 80.015625 34.132812 80.015625 34.132812 C 80.015625 34.132812 79.738281 40.386719 75.757812 45.964844 C 76.421875 45.957031 77.113281 46.050781 77.804688 46.289062 C 81.3125 47.503906 83.667969 52.1875 86.597656 54.347656 C 89.527344 56.515625 95.339844 55.183594 95.492188 52.820312 C 95.648438 50.457031 93.335938 49.121094 91.867188 49.421875 C 90.402344 49.722656 90.023438 51.261719 90.878906 52.25 C 91.734375 53.234375 92.949219 52.460938 92.949219 52.460938 C 90.566406 54.105469 89.203125 50.753906 90.449219 49.613281 C 91.65625 48.511719 94.035156 48.871094 95.023438 49.875 C 95.171875 50.023438 95.347656 50.300781 95.5 50.660156 C 95.5 50.660156 95.511719 50.6875 95.535156 50.742188 C 95.542969 50.765625 95.550781 50.785156 95.558594 50.808594 C 95.566406 50.828125 95.574219 50.847656 95.582031 50.867188 C 95.617188 50.972656 95.652344 51.078125 95.683594 51.191406 C 96.140625 52.78125 96.863281 57.695312 90.574219 62.621094 Z M 34.933594 24.039062 C 35.238281 24.039062 35.238281 23.566406 34.933594 23.566406 C 34.628906 23.566406 34.625 24.039062 34.933594 24.039062 Z M 34.332031 25.65625 C 34.742188 25.65625 34.742188 25.027344 34.332031 25.027344 C 33.925781 25.027344 33.925781 25.65625 34.332031 25.65625 Z M 33.527344 26.273438 C 32.917969 26.273438 32.917969 27.21875 33.527344 27.21875 C 34.136719 27.21875 34.140625 26.273438 33.527344 26.273438 Z M 32.566406 28.25 C 32.542969 28.25 32.519531 28.25 32.492188 28.25 C 32.164062 28.25 31.847656 28.539062 31.863281 28.878906 C 31.875 29.21875 32.140625 29.507812 32.492188 29.507812 C 32.519531 29.507812 32.542969 29.507812 32.566406 29.507812 C 32.898438 29.507812 33.214844 29.21875 33.199219 28.878906 C 33.183594 28.539062 32.921875 28.25 32.566406 28.25 Z M 17.445312 40.34375 C 17.75 40.34375 17.75 39.871094 17.445312 39.871094 C 17.140625 39.871094 17.140625 40.34375 17.445312 40.34375 Z M 12.847656 28.441406 C 12.867188 28.441406 12.890625 28.441406 12.914062 28.441406 C 13.214844 28.441406 13.21875 27.96875 12.914062 27.96875 C 12.890625 27.96875 12.867188 27.96875 12.847656 27.96875 C 12.542969 27.96875 12.539062 28.441406 12.847656 28.441406 Z M 19.636719 39.949219 C 19.75 39.917969 19.84375 39.816406 19.863281 39.699219 C 19.917969 39.628906 19.945312 39.535156 19.917969 39.4375 C 19.875 39.285156 19.6875 39.152344 19.527344 39.214844 C 19.320312 39.300781 19.171875 39.5 19.246094 39.730469 C 19.300781 39.894531 19.464844 39.996094 19.636719 39.949219 Z M 14.554688 28.320312 C 14.960938 28.320312 14.960938 27.691406 14.554688 27.691406 C 14.148438 27.691406 14.148438 28.320312 14.554688 28.320312 Z M 16.394531 27.601562 C 15.78125 27.601562 15.78125 28.546875 16.394531 28.546875 C 17.003906 28.546875 17.003906 27.601562 16.394531 27.601562 Z M 21.320312 39.664062 C 21.929688 39.664062 21.929688 38.71875 21.320312 38.71875 C 20.710938 38.71875 20.710938 39.664062 21.320312 39.664062 Z M 23.804688 39.570312 C 23.824219 39.550781 23.847656 39.527344 23.867188 39.507812 C 24.101562 39.273438 24.121094 38.847656 23.867188 38.617188 C 23.617188 38.386719 23.226562 38.367188 22.976562 38.617188 C 22.953125 38.636719 22.929688 38.660156 22.910156 38.683594 C 22.675781 38.914062 22.65625 39.34375 22.910156 39.570312 C 23.160156 39.800781 23.554688 39.820312 23.804688 39.570312 Z M 18.429688 27.964844 C 17.617188 27.964844 17.613281 29.226562 18.429688 29.226562 C 19.242188 29.226562 19.246094 27.964844 18.429688 27.964844 Z M 25.371094 39.800781 C 25.285156 39.78125 25.210938 39.765625 25.148438 39.753906 C 25.148438 39.753906 25.230469 39.769531 25.371094 39.800781 Z M 25.976562 38.382812 C 25.207031 38.015625 24.429688 37.710938 23.699219 37.535156 C 23.699219 37.535156 24.667969 37.855469 25.976562 38.382812 Z M 25.417969 18.515625 C 25.421875 18.550781 25.421875 18.589844 25.425781 18.628906 C 25.421875 18.554688 25.417969 18.515625 25.417969 18.515625 Z M 69.621094 71.898438 C 69.738281 72.015625 69.941406 72.015625 70.058594 71.898438 C 70.175781 71.78125 70.175781 71.582031 70.058594 71.464844 C 70.027344 71.433594 69.992188 71.402344 69.960938 71.367188 C 69.84375 71.25 69.644531 71.25 69.527344 71.367188 C 69.40625 71.488281 69.40625 71.683594 69.527344 71.800781 C 69.558594 71.835938 69.589844 71.867188 69.621094 71.898438 Z M 67.339844 61.558594 C 67.339844 61.527344 67.339844 61.492188 67.339844 61.460938 C 67.339844 61.300781 67.199219 61.148438 67.03125 61.15625 C 66.863281 61.164062 66.722656 61.289062 66.722656 61.460938 C 66.722656 61.492188 66.722656 61.527344 66.722656 61.558594 C 66.722656 61.71875 66.867188 61.871094 67.03125 61.863281 C 67.199219 61.855469 67.339844 61.730469 67.339844 61.558594 Z M 69.285156 65.582031 C 69.164062 65.464844 68.964844 65.464844 68.847656 65.582031 C 68.730469 65.699219 68.730469 65.898438 68.847656 66.015625 C 68.878906 66.050781 68.910156 66.082031 68.945312 66.113281 C 69.0625 66.230469 69.261719 66.230469 69.378906 66.113281 C 69.496094 65.996094 69.496094 65.796875 69.378906 65.679688 C 69.347656 65.648438 69.316406 65.617188 69.285156 65.582031 Z M 60.640625 62.890625 C 60.480469 62.890625 60.324219 63.03125 60.332031 63.195312 C 60.339844 63.363281 60.46875 63.503906 60.640625 63.503906 C 60.707031 63.503906 60.769531 63.503906 60.835938 63.503906 C 60.996094 63.503906 61.152344 63.363281 61.144531 63.195312 C 61.136719 63.03125 61.007812 62.890625 60.835938 62.890625 C 60.769531 62.890625 60.707031 62.890625 60.640625 62.890625 Z M 57.832031 71.023438 C 57.996094 71.023438 58.148438 70.882812 58.140625 70.71875 C 58.132812 70.550781 58.007812 70.410156 57.832031 70.410156 C 57.769531 70.410156 57.703125 70.410156 57.640625 70.410156 C 57.476562 70.410156 57.324219 70.550781 57.332031 70.71875 C 57.339844 70.882812 57.46875 71.023438 57.640625 71.023438 C 57.703125 71.023438 57.769531 71.023438 57.832031 71.023438 Z M 63.039062 72.960938 C 63.070312 72.992188 63.101562 73.023438 63.136719 73.054688 C 63.253906 73.171875 63.453125 73.171875 63.570312 73.054688 C 63.6875 72.9375 63.6875 72.738281 63.570312 72.621094 C 63.539062 72.589844 63.507812 72.558594 63.472656 72.527344 C 63.355469 72.410156 63.15625 72.410156 63.039062 72.527344 C 62.921875 72.644531 62.921875 72.84375 63.039062 72.960938 Z M 63.351562 66.941406 C 62.957031 66.941406 62.957031 67.554688 63.351562 67.554688 C 63.75 67.554688 63.75 66.941406 63.351562 66.941406 Z M 44.179688 74.847656 C 43.785156 74.847656 43.78125 75.460938 44.179688 75.460938 C 44.578125 75.460938 44.578125 74.847656 44.179688 74.847656 Z M 36.335938 73.59375 C 35.941406 73.59375 35.941406 74.207031 36.335938 74.207031 C 36.734375 74.207031 36.734375 73.59375 36.335938 73.59375 Z M 40.792969 67.90625 C 40.394531 67.90625 40.394531 68.519531 40.792969 68.519531 C 41.1875 68.519531 41.1875 67.90625 40.792969 67.90625 Z M 44.277344 65.011719 C 43.878906 65.011719 43.878906 65.625 44.277344 65.625 C 44.671875 65.625 44.675781 65.011719 44.277344 65.011719 Z M 39.53125 65.109375 C 39.46875 65.109375 39.402344 65.109375 39.339844 65.109375 C 39.179688 65.109375 39.023438 65.25 39.03125 65.414062 C 39.039062 65.582031 39.167969 65.722656 39.339844 65.722656 C 39.402344 65.722656 39.46875 65.722656 39.53125 65.722656 C 39.695312 65.722656 39.847656 65.582031 39.839844 65.414062 C 39.832031 65.25 39.703125 65.109375 39.53125 65.109375 Z M 26.074219 52.667969 C 25.675781 52.667969 25.675781 53.285156 26.074219 53.285156 C 26.46875 53.285156 26.46875 52.667969 26.074219 52.667969 Z M 32.367188 51.222656 C 31.96875 51.222656 31.96875 51.835938 32.367188 51.835938 C 32.761719 51.835938 32.765625 51.222656 32.367188 51.222656 Z M 27.332031 47.460938 C 26.933594 47.460938 26.933594 48.074219 27.332031 48.074219 C 27.726562 48.074219 27.730469 47.460938 27.332031 47.460938 Z M 38.25 53.386719 C 38.367188 53.503906 38.566406 53.503906 38.683594 53.386719 C 38.804688 53.269531 38.804688 53.070312 38.683594 52.953125 C 38.652344 52.921875 38.621094 52.886719 38.589844 52.855469 C 38.46875 52.738281 38.269531 52.738281 38.152344 52.855469 C 38.035156 52.972656 38.035156 53.171875 38.152344 53.289062 C 38.183594 53.320312 38.21875 53.355469 38.25 53.386719 Z M 35.273438 47.945312 C 34.875 47.945312 34.875 48.558594 35.273438 48.558594 C 35.667969 48.558594 35.667969 47.945312 35.273438 47.945312 Z M 33.699219 53.050781 C 33.667969 53.082031 33.632812 53.113281 33.601562 53.144531 C 33.484375 53.261719 33.484375 53.460938 33.601562 53.578125 C 33.71875 53.695312 33.917969 53.695312 34.035156 53.578125 C 34.070312 53.546875 34.101562 53.515625 34.132812 53.484375 C 34.253906 53.367188 34.253906 53.164062 34.132812 53.050781 C 34.015625 52.929688 33.816406 52.929688 33.699219 53.050781 Z M 42.515625 37.355469 C 42.515625 37.386719 42.515625 37.421875 42.515625 37.453125 C 42.515625 37.613281 42.65625 37.765625 42.824219 37.757812 C 42.992188 37.75 43.132812 37.625 43.132812 37.453125 C 43.132812 37.421875 43.132812 37.386719 43.132812 37.355469 C 43.132812 37.195312 42.992188 37.042969 42.824219 37.050781 C 42.65625 37.058594 42.515625 37.183594 42.515625 37.355469 Z M 49.023438 29.144531 C 48.625 29.144531 48.625 29.757812 49.023438 29.757812 C 49.417969 29.757812 49.417969 29.144531 49.023438 29.144531 Z M 49.117188 38.242188 C 49.515625 38.242188 49.515625 37.628906 49.117188 37.628906 C 48.722656 37.628906 48.722656 38.242188 49.117188 38.242188 Z M 39.726562 33.191406 C 39.566406 33.191406 39.410156 33.332031 39.417969 33.5 C 39.425781 33.664062 39.554688 33.804688 39.726562 33.804688 C 39.757812 33.804688 39.789062 33.804688 39.824219 33.804688 C 39.984375 33.804688 40.136719 33.664062 40.128906 33.5 C 40.125 33.332031 39.996094 33.191406 39.824219 33.191406 C 39.789062 33.191406 39.757812 33.191406 39.726562 33.191406 Z M 45.4375 34.480469 C 45.601562 34.480469 45.753906 34.339844 45.746094 34.175781 C 45.738281 34.007812 45.613281 33.867188 45.4375 33.867188 C 45.40625 33.867188 45.375 33.867188 45.34375 33.867188 C 45.179688 33.867188 45.027344 34.007812 45.035156 34.175781 C 45.042969 34.339844 45.167969 34.480469 45.34375 34.480469 C 45.375 34.480469 45.40625 34.480469 45.4375 34.480469 Z M 45.941406 43.007812 C 45.941406 42.988281 45.941406 42.96875 45.941406 42.949219 C 45.941406 42.554688 45.324219 42.554688 45.324219 42.949219 C 45.324219 42.96875 45.324219 42.988281 45.324219 43.007812 C 45.324219 43.402344 45.941406 43.402344 45.941406 43.007812 Z M 60.835938 48.8125 C 60.667969 48.820312 60.527344 48.949219 60.527344 49.121094 C 60.527344 49.152344 60.527344 49.183594 60.527344 49.214844 C 60.527344 49.375 60.667969 49.53125 60.835938 49.523438 C 61.003906 49.515625 61.144531 49.386719 61.144531 49.214844 C 61.144531 49.183594 61.144531 49.152344 61.144531 49.121094 C 61.144531 48.960938 61 48.804688 60.835938 48.8125 Z M 68.96875 42.640625 C 68.570312 42.640625 68.570312 43.253906 68.96875 43.253906 C 69.367188 43.253906 69.367188 42.640625 68.96875 42.640625 Z M 61.722656 41.117188 C 61.714844 40.949219 61.589844 40.808594 61.414062 40.808594 C 61.382812 40.808594 61.351562 40.808594 61.320312 40.808594 C 61.15625 40.808594 61.003906 40.953125 61.011719 41.117188 C 61.019531 41.28125 61.148438 41.421875 61.320312 41.421875 C 61.351562 41.421875 61.382812 41.421875 61.414062 41.421875 C 61.578125 41.421875 61.730469 41.28125 61.722656 41.117188 Z M 61.804688 44.570312 C 61.769531 44.570312 61.738281 44.570312 61.707031 44.570312 C 61.546875 44.570312 61.390625 44.710938 61.398438 44.878906 C 61.40625 45.042969 61.535156 45.183594 61.707031 45.183594 C 61.738281 45.183594 61.769531 45.183594 61.804688 45.183594 C 61.964844 45.183594 62.117188 45.042969 62.113281 44.878906 C 62.105469 44.710938 61.976562 44.570312 61.804688 44.570312 Z M 58.722656 39.507812 C 58.78125 39.480469 58.839844 39.453125 58.898438 39.429688 C 58.898438 39.429688 58.839844 39.449219 58.722656 39.507812 Z M 17.214844 55.769531 C 17.613281 56.066406 22.050781 59.488281 29.828125 60.015625 C 37.609375 60.546875 47.828125 54.007812 47.828125 54.007812 C 47.828125 54.007812 38.167969 59.019531 30.386719 59.0625 C 22.609375 59.105469 17.214844 55.769531 17.214844 55.769531 Z M 48.851562 72.710938 C 46.359375 78.863281 41.265625 82.441406 41.265625 82.441406 C 41.265625 82.441406 45.832031 79.785156 48.664062 74.933594 C 52.929688 67.625 47.828125 54.007812 47.828125 54.007812 C 47.828125 54.007812 51.34375 66.554688 48.851562 72.710938 Z M 36.292969 37.277344 C 34.894531 30.746094 36.195312 27.261719 36.195312 27.261719 C 36.195312 27.261719 32.957031 33.777344 36.976562 41.113281 C 40.992188 48.449219 47.828125 54.007812 47.828125 54.007812 C 47.828125 54.007812 37.941406 44.976562 36.292969 37.277344 Z M 33.371094 35.554688 C 33.324219 35.105469 33.300781 34.65625 33.300781 34.207031 C 32.800781 32.851562 31.292969 29.820312 27.304688 27.253906 C 28.183594 30.269531 30.128906 33.277344 33.371094 35.554688 Z M 27.125 18.453125 C 27.863281 15.289062 24.53125 11.195312 24.746094 11.980469 C 24.757812 12.023438 24.765625 12.066406 24.773438 12.113281 C 24.890625 12.953125 24.285156 14.652344 24.191406 17.398438 C 24.089844 20.300781 25.859375 21.546875 25.859375 21.546875 C 25.605469 21.144531 25.460938 19.128906 25.425781 18.628906 C 25.496094 19.375 26.011719 20.714844 26.257812 21.3125 C 26.449219 20.210938 26.746094 19.261719 27.125 18.453125 Z M 20.398438 20.265625 C 19.371094 20.101562 17.578125 18.785156 17.578125 18.785156 C 18.777344 24.121094 24.371094 25.644531 24.371094 25.644531 C 23.882812 25.445312 22.535156 23.742188 22.535156 23.742188 C 22.914062 24.128906 24.90625 25.269531 24.90625 25.269531 C 25.066406 22.6875 21.425781 20.433594 20.398438 20.265625 Z M 29.601562 14.910156 C 29.601562 14.910156 29.675781 13.539062 30.980469 12.902344 C 30.980469 12.902344 30.378906 14.417969 30.378906 15.039062 C 30.832031 14.816406 31.300781 14.652344 31.777344 14.535156 C 32.878906 13.636719 35.125 11.28125 33.492188 7.996094 C 33.492188 7.996094 32.675781 9.070312 31.269531 10.234375 C 29.867188 11.398438 28.957031 13.027344 29.601562 14.910156 Z M 47.828125 54.007812 C 47.828125 54.007812 47.574219 53.859375 47.128906 53.566406 C 42.886719 55.910156 36.097656 55.617188 36.097656 55.617188 C 41.511719 55.054688 46.136719 52.886719 46.136719 52.886719 L 46.140625 52.886719 C 45.472656 52.414062 44.652344 51.789062 43.734375 51.015625 C 42.121094 51.140625 37.996094 50.953125 37.996094 50.953125 C 39.046875 50.429688 41.835938 50.277344 42.839844 50.238281 C 41.636719 49.160156 40.320312 47.851562 39.027344 46.320312 C 37.167969 46.195312 32.734375 46.472656 32.824219 46.402344 C 33.769531 45.699219 36.695312 45.414062 38.207031 45.316406 C 37.773438 44.765625 37.347656 44.191406 36.933594 43.59375 C 36.890625 43.527344 36.84375 43.460938 36.800781 43.394531 L 36.632812 43.152344 C 35.851562 41.984375 35.113281 40.726562 34.453125 39.375 C 33.925781 38.300781 33.601562 37.1875 33.433594 36.0625 C 31.671875 34.925781 27.410156 31.714844 26.289062 26.644531 C 25.992188 26.480469 25.691406 26.316406 25.375 26.15625 C 25.375 26.15625 22 26.445312 18.988281 23.035156 C 15.980469 19.625 15.976562 15.929688 15.976562 15.929688 C 15.976562 15.929688 17.5 18.515625 20.363281 19.5625 C 23.226562 20.609375 26.199219 23.972656 25.640625 25.882812 C 25.640625 25.882812 25.847656 25.972656 26.1875 26.148438 C 26.0625 25.433594 26 24.683594 26.015625 23.898438 C 26.027344 23.375 26.058594 22.878906 26.105469 22.40625 C 22.371094 20.242188 23.808594 14.234375 23.917969 12.730469 C 24.03125 11.203125 23.753906 10.496094 23.753906 10.496094 C 27.480469 12.753906 27.902344 15.78125 27.882812 17.160156 C 28.328125 16.539062 28.835938 16.039062 29.382812 15.636719 L 29.378906 15.640625 C 29.378906 15.640625 28.160156 12.453125 30.535156 10.140625 C 32.90625 7.824219 33.246094 7.015625 33.34375 6.195312 C 33.34375 6.195312 36.089844 11.503906 32.785156 14.359375 C 33.507812 14.285156 34.230469 14.304688 34.921875 14.40625 C 38.761719 14.976562 39.046875 20.585938 35.941406 21.742188 C 32.835938 22.898438 31.992188 20.660156 32.074219 19.632812 C 32.15625 18.609375 33.292969 18.058594 34.027344 17.832031 C 34.027344 17.832031 32.308594 18.609375 32.773438 20.269531 C 33.238281 21.925781 36.152344 21.777344 37.152344 19.820312 C 38.152344 17.863281 35.992188 12.679688 30.539062 15.65625 C 27.398438 17.371094 25.984375 21.976562 27.148438 26.679688 C 28.996094 27.785156 32.039062 30.050781 33.316406 33.566406 C 33.707031 25.40625 41.171875 17.316406 42.605469 17.066406 C 44.378906 16.753906 55.144531 20.90625 55.144531 34.851562 C 55.144531 34.851562 51.601562 19.765625 42.679688 17.367188 C 42.679688 17.367188 34.164062 24.054688 34.292969 33.945312 C 34.421875 43.765625 47.828125 54.007812 47.828125 54.007812 Z M 36.902344 60.824219 C 34.832031 61.601562 32.59375 62.144531 30.304688 62.203125 C 31.558594 62.742188 33.078125 63.28125 33.960938 63.402344 C 33.960938 63.402344 33.984375 63.457031 34.011719 63.523438 C 34.125 63.457031 34.238281 63.394531 34.355469 63.324219 L 34.355469 63.339844 C 35.414062 62.195312 36.359375 61.3125 36.902344 60.824219 Z M 33.628906 64.152344 C 33.199219 64.382812 32.585938 64.710938 31.832031 65.105469 L 31.398438 67.0625 C 32.101562 66.003906 32.875 65.023438 33.628906 64.152344 Z M 31.289062 67.222656 C 31.421875 66.273438 31.519531 65.617188 31.578125 65.238281 C 30.824219 65.632812 29.949219 66.089844 28.984375 66.582031 C 28.636719 67.886719 27.09375 73.160156 23.765625 78.480469 C 25.167969 78.015625 26.328125 77.539062 27.191406 77.148438 C 27.699219 76.375 28.347656 75.472656 28.8125 74.613281 C 28.8125 74.613281 28.8125 74.609375 28.8125 74.609375 C 28.65625 72.101562 29.792969 69.503906 31.289062 67.222656 Z M 23.710938 78.5 C 24.464844 76.984375 27.359375 71.039062 28.289062 66.9375 C 27.445312 67.367188 26.546875 67.820312 25.609375 68.285156 C 25.113281 69.878906 23.269531 75.316406 20.066406 79.515625 C 21.40625 79.210938 22.628906 78.859375 23.710938 78.5 Z M 19.964844 79.539062 C 23.066406 74.921875 24.636719 70.046875 25.074219 68.550781 C 24.074219 69.042969 23.039062 69.546875 21.992188 70.042969 C 21.113281 71.90625 18.453125 77.308594 15.921875 80.226562 C 17.359375 80.0625 18.714844 79.820312 19.964844 79.539062 Z M 15.742188 80.246094 C 17.371094 77.886719 20.386719 72.273438 21.433594 70.308594 C 20.484375 70.753906 19.53125 71.191406 18.585938 71.613281 C 17.660156 73.488281 15.261719 78.070312 12.871094 80.445312 C 13.070312 80.4375 13.265625 80.433594 13.46875 80.425781 C 14.25 80.386719 15.003906 80.328125 15.742188 80.246094 Z M 12.679688 80.449219 C 14.644531 78.117188 17.003906 73.742188 17.964844 71.890625 C 17.179688 72.238281 16.40625 72.570312 15.652344 72.878906 C 14.546875 74.683594 12.121094 78.449219 10.0625 80.382812 C 10.878906 80.441406 11.75 80.46875 12.679688 80.449219 Z M 9.855469 80.363281 C 12.84375 76.949219 14.242188 74.472656 14.839844 73.210938 C 14.378906 73.398438 13.929688 73.574219 13.492188 73.738281 C 12.714844 74.03125 11.964844 74.300781 11.246094 74.542969 C 10.332031 76.003906 8.511719 78.605469 6.484375 79.835938 C 7.472656 80.074219 8.597656 80.261719 9.855469 80.363281 Z M 6.261719 79.78125 C 7.300781 78.957031 9.355469 77.132812 10.691406 74.730469 C 8.699219 75.390625 6.957031 75.871094 5.496094 76.214844 C 5.164062 77.007812 4.53125 78.339844 3.816406 78.984375 C 4.511719 79.269531 5.328125 79.546875 6.261719 79.78125 Z M 3.605469 78.898438 C 4.042969 78.359375 4.726562 77.390625 4.925781 76.351562 C 2.667969 76.859375 1.167969 77.039062 0.574219 77.09375 C 0.785156 77.285156 1.757812 78.113281 3.605469 78.898438 Z M 0.535156 77.054688 C 1.082031 76.910156 2.527344 76.519531 4.617188 75.886719 C 3.75 75.515625 1.53125 74.554688 0.742188 74.1875 C 0.480469 75.101562 0.394531 76.058594 0.53125 77.054688 C 0.53125 77.054688 0.535156 77.054688 0.535156 77.054688 Z M 0.757812 74.136719 C 1.660156 74.414062 4.417969 75.25 5.664062 75.566406 C 7.035156 75.140625 8.621094 74.625 10.367188 74.023438 C 8.722656 73.9375 4.460938 73.511719 2.109375 71.425781 C 1.507812 72.277344 1.035156 73.183594 0.757812 74.136719 Z M 2.164062 71.351562 C 3.257812 72.039062 6.34375 73.589844 11.871094 73.492188 C 11.871094 73.492188 11.867188 73.496094 11.863281 73.503906 C 12.941406 73.121094 14.066406 72.710938 15.234375 72.269531 C 9.542969 71.625 6.144531 69.722656 4.640625 68.707031 C 3.703125 69.511719 2.851562 70.398438 2.164062 71.351562 Z M 4.816406 68.558594 C 6.875 69.480469 11.566406 71.378906 16.265625 71.863281 C 16.265625 71.863281 16.261719 71.871094 16.257812 71.875 C 16.960938 71.605469 17.679688 71.320312 18.402344 71.027344 C 18.390625 71.023438 16.113281 70.28125 12.675781 68.71875 C 10.5 67.726562 9.046875 66.730469 8.273438 66.128906 C 7.09375 66.828125 5.902344 67.640625 4.816406 68.558594 Z M 8.421875 66.042969 C 10.300781 67.109375 15.0625 69.6875 18.988281 70.785156 C 18.988281 70.785156 18.984375 70.789062 18.984375 70.792969 C 19.910156 70.417969 20.847656 70.023438 21.800781 69.609375 C 21.792969 69.609375 21 69.242188 17.320312 67.339844 C 14.625 65.949219 12.976562 64.714844 12.246094 64.128906 C 11.128906 64.59375 9.789062 65.242188 8.421875 66.042969 Z M 12.351562 64.085938 C 14.046875 65.074219 19.300781 68.105469 22.296875 69.390625 C 22.296875 69.390625 22.292969 69.390625 22.292969 69.398438 C 23.253906 68.976562 24.226562 68.539062 25.203125 68.085938 C 25.191406 68.078125 24.789062 67.921875 20.84375 66.21875 C 17.816406 64.910156 16.128906 63.628906 15.480469 63.074219 C 15.128906 63.167969 14.800781 63.25 14.507812 63.324219 C 14.007812 63.453125 13.253906 63.710938 12.351562 64.085938 Z M 15.605469 63.039062 C 17.175781 63.9375 22.605469 66.972656 25.746094 67.828125 C 25.746094 67.828125 25.746094 67.832031 25.746094 67.832031 C 26.617188 67.417969 27.496094 66.996094 28.371094 66.554688 C 28.367188 66.554688 23.820312 65.371094 19.882812 61.859375 C 18.445312 62.265625 16.878906 62.699219 15.605469 63.039062 Z M 19.917969 61.851562 C 20.898438 62.488281 26.355469 66.046875 28.949219 66.265625 C 29.847656 65.808594 30.746094 65.339844 31.636719 64.855469 C 28.988281 64.546875 23.429688 60.871094 23.429688 60.871094 L 23.5 60.84375 C 23.492188 60.84375 23.484375 60.839844 23.480469 60.835938 C 22.757812 61.042969 21.410156 61.429688 19.917969 61.851562 Z M 24.675781 61.285156 C 26.140625 62.234375 29.253906 64.101562 31.921875 64.699219 C 32.457031 64.410156 32.988281 64.109375 33.519531 63.808594 C 31.914062 63.484375 30.597656 62.519531 30.203125 62.207031 C 28.683594 62.238281 27.140625 62.054688 25.609375 61.589844 C 25.289062 61.492188 24.980469 61.390625 24.675781 61.285156 Z M 12.5 50.355469 C 12.628906 50.289062 12.753906 50.214844 12.871094 50.136719 C 13.664062 49.613281 13.941406 48.621094 13.828125 47.664062 C 12.972656 48.605469 12.449219 49.335938 12.355469 49.519531 C 12.300781 49.617188 12.347656 49.917969 12.5 50.355469 Z M 12.171875 50.511719 C 11.910156 49.898438 11.808594 49.5 11.832031 49.417969 C 11.878906 49.28125 12.554688 48.273438 13.6875 46.996094 C 13.347656 45.933594 12.519531 45.09375 11.398438 45.308594 C 9.097656 45.75 9.933594 48.023438 11.28125 48.386719 C 11.28125 48.386719 9.375 48.808594 9.078125 47.082031 C 8.785156 45.359375 11.167969 43.671875 13.132812 45.015625 C 13.632812 45.355469 14.019531 45.828125 14.269531 46.363281 C 16.511719 43.992188 20.097656 41.082031 24.125 40.878906 C 25.140625 40.828125 26.140625 40.855469 27.113281 40.941406 C 26.917969 40.734375 26.605469 40.421875 26.195312 40.050781 C 25.875 39.945312 25.589844 39.855469 25.371094 39.800781 C 25.539062 39.835938 25.789062 39.890625 26.097656 39.960938 C 24.558594 38.601562 21.683594 36.53125 17.820312 35.792969 C 17.371094 36.015625 16.851562 36.21875 16.261719 36.363281 C 14.84375 36.710938 12.695312 36.40625 10.554688 36.226562 C 4.527344 38.378906 3.476562 44.953125 5.464844 47.941406 C 7.476562 50.96875 10.238281 51.34375 12.171875 50.511719 Z M 13.40625 35.601562 C 13.148438 35.625 12.898438 35.660156 12.652344 35.699219 C 13.535156 35.804688 14.382812 35.875 15.089844 35.808594 C 15.496094 35.769531 15.886719 35.6875 16.253906 35.582031 C 15.347656 35.503906 14.398438 35.5 13.40625 35.601562 Z M 10.652344 35.453125 C 10.703125 35.4375 10.746094 35.417969 10.792969 35.402344 C 12.976562 34.703125 15.269531 34.695312 17.460938 35.125 C 18.410156 34.679688 19.03125 34.1875 19.03125 34.1875 C 17.882812 33.511719 14.792969 34.074219 14.792969 34.074219 C 15.511719 33.160156 18.585938 33.429688 18.585938 33.429688 C 14.003906 30.839844 7.601562 35.535156 7.601562 35.535156 C 8.421875 35.277344 9.507812 35.324219 10.652344 35.453125 Z M 18.558594 35.378906 C 21.929688 36.277344 24.964844 38.171875 26.835938 40.136719 C 28.230469 40.480469 30.066406 41 30.585938 41.472656 C 30.742188 41.503906 30.894531 41.539062 31.042969 41.574219 C 30.074219 40.832031 28.050781 39.371094 25.976562 38.382812 C 27.980469 39.1875 30.78125 40.476562 32.121094 41.847656 C 32.855469 42.046875 33.523438 42.257812 34.117188 42.460938 C 33.488281 41.351562 29.539062 35.082031 20.042969 34.054688 C 20.042969 34.054688 19.566406 34.726562 18.558594 35.378906 Z M 29.285156 41.21875 C 28.800781 41.023438 27.890625 40.664062 27.027344 40.347656 C 27.222656 40.558594 27.398438 40.769531 27.5625 40.984375 C 28.152344 41.042969 28.726562 41.125 29.285156 41.21875 Z M 47.375 54.40625 L 47.828125 54.007812 C 49.519531 60.1875 46.109375 69.234375 46.136719 69.058594 C 48.023438 58.371094 46.914062 54.8125 46.914062 54.8125 L 46.917969 54.8125 C 46.363281 55.277344 45.578125 55.90625 44.605469 56.609375 C 44.605469 56.609375 43.332031 60.707031 42.511719 62.210938 C 42.511719 62.210938 43.070312 58.683594 43.546875 57.339844 C 42.582031 57.988281 41.492188 58.65625 40.296875 59.289062 L 36.542969 65.308594 C 36.542969 65.144531 37.804688 61.839844 39.03125 59.921875 C 38.375 60.230469 37.699219 60.523438 37 60.789062 C 35.855469 61.953125 32.480469 65.609375 30.742188 69.957031 C 28.628906 75.246094 31.445312 84.09375 32.855469 85.222656 C 34.261719 86.351562 45.183594 85.066406 49.292969 74.777344 C 53.402344 64.492188 47.828125 54.007812 47.828125 54.007812 C 47.828125 54.007812 60.628906 57.683594 65.136719 64.382812 C 65.136719 64.382812 58.765625 58.210938 48.855469 55.566406 C 49.421875 56.539062 50.132812 57.941406 50.730469 59.691406 C 52.707031 60.800781 58.613281 65.132812 58.613281 65.132812 C 56.832031 64.578125 52.5625 61.816406 51.09375 60.851562 C 51.273438 61.476562 51.433594 62.140625 51.570312 62.839844 C 52.984375 64.371094 56.90625 68.292969 61.1875 69.65625 C 61.1875 69.65625 56.542969 68.769531 51.785156 64.191406 C 51.976562 65.652344 52.03125 67.238281 51.886719 68.921875 C 54.1875 71.199219 55.828125 74.105469 56.351562 77.472656 C 57.570312 85.289062 52.96875 89.925781 49.375 89.402344 C 45.78125 88.878906 44.484375 86.832031 44.578125 84.628906 C 44.675781 82.425781 47.460938 79.976562 49.777344 81.785156 C 52.09375 83.597656 50.382812 86.492188 48.90625 86.128906 C 47.429688 85.769531 47.714844 84.554688 47.714844 84.554688 C 47.800781 84.957031 48.347656 85.835938 49.195312 85.691406 C 50.046875 85.546875 51.148438 83.808594 49.738281 82.535156 C 48.328125 81.261719 46.144531 82.011719 45.550781 83.359375 C 44.953125 84.707031 44.6875 88.230469 49.167969 88.832031 C 53.644531 89.433594 58.253906 82.699219 54.871094 73.996094 C 54.15625 72.15625 53.085938 70.652344 51.839844 69.414062 C 51.660156 71.0625 51.289062 72.800781 50.648438 74.609375 C 46.472656 86.472656 33.511719 86.191406 32.78125 85.757812 C 32.0625 85.335938 29.328125 81.511719 28.835938 74.964844 C 28.515625 75.765625 27.980469 76.773438 27.976562 76.78125 C 28.617188 76.46875 28.964844 76.265625 28.964844 76.265625 C 26.957031 77.539062 24.617188 78.789062 21.949219 79.675781 C 7.113281 84.605469 0.0507812 77.285156 0.0507812 77.285156 C -0.171875 73.394531 1.328125 70.375 3.765625 68.070312 C 3.75 68.058594 3.738281 68.050781 3.730469 68.046875 C 3.730469 68.046875 3.746094 68.054688 3.765625 68.066406 C 7.015625 64.988281 11.925781 63.175781 16.621094 62.257812 C 19.203125 61.753906 21.71875 61.183594 23.417969 60.8125 C 16.917969 58.164062 13.714844 53.628906 12.46875 51.148438 C 12.433594 51.167969 12.398438 51.191406 12.359375 51.210938 C 9.40625 52.746094 5.34375 50.722656 4.320312 47.050781 C 3.398438 43.742188 4.058594 38.644531 9.011719 36.128906 C 7.777344 36.089844 6.609375 36.15625 5.65625 36.496094 C 5.65625 36.496094 13.433594 28.679688 19.984375 33.710938 C 19.984375 33.710938 31.054688 34.648438 34.550781 42.378906 C 34 40.714844 31.085938 33.796875 19.429688 29.148438 C 19.03125 28.988281 32.632812 33.082031 34.863281 41.773438 L 35.25 42.871094 C 36.3125 43.285156 36.933594 43.59375 36.933594 43.59375 C 36.933594 43.59375 31.546875 41.773438 24.820312 41.773438 C 20.496094 41.773438 16.722656 44.707031 14.488281 46.972656 C 14.835938 48.339844 14.363281 49.949219 12.757812 50.976562 C 13.996094 53.644531 18.105469 59.085938 27.152344 60.589844 C 37.292969 62.277344 45.414062 56.070312 47.375 54.40625 Z M 50.925781 33.734375 C 50.933594 33.761719 50.945312 33.796875 50.953125 33.828125 C 50.933594 33.765625 50.925781 33.734375 50.925781 33.734375 " clip-rule="nonzero"/></clipPath><radialGradient gradientTransform="matrix(0, -0.997893, 1.002107, 0, 50.093784, 52.480077)" gradientUnits="userSpaceOnUse" r="45.76144" cx="0" id="5caeee3a6e" cy="0" fx="0" fy="0"><stop stop-opacity="1" stop-color="rgb(95.503235%, 88.804626%, 37.103271%)" offset="0"/><stop stop-opacity="1" stop-color="rgb(95.303345%, 88.60321%, 36.903381%)" offset="0.0078125"/><stop stop-opacity="1" stop-color="rgb(95.298767%, 88.598633%, 36.717224%)" offset="0.0117188"/><stop stop-opacity="1" stop-color="rgb(95.121765%, 88.421631%, 36.517334%)" offset="0.015625"/><stop stop-opacity="1" stop-color="rgb(94.900513%, 88.021851%, 36.499023%)" offset="0.0195312"/><stop stop-opacity="1" stop-color="rgb(94.659424%, 87.785339%, 36.482239%)" offset="0.0234375"/><stop stop-opacity="1" stop-color="rgb(94.281006%, 87.631226%, 36.282349%)" offset="0.0273438"/><stop stop-opacity="1" stop-color="rgb(94.099426%, 87.295532%, 36.099243%)" offset="0.03125"/><stop stop-opacity="1" stop-color="rgb(94.099426%, 87.098694%, 36.099243%)" offset="0.0429688"/><stop stop-opacity="1" stop-color="rgb(93.910217%, 87.098694%, 35.910034%)" offset="0.046875"/><stop stop-opacity="1" stop-color="rgb(93.710327%, 86.914062%, 35.710144%)" offset="0.0507812"/><stop stop-opacity="1" stop-color="rgb(93.699646%, 86.714172%, 35.519409%)" offset="0.0546875"/><stop stop-opacity="1" stop-color="rgb(93.699646%, 86.523438%, 35.319519%)" offset="0.0585938"/><stop stop-opacity="1" stop-color="rgb(93.499756%, 86.303711%, 35.27832%)" offset="0.0625"/><stop stop-opacity="1" stop-color="rgb(93.299866%, 86.077881%, 35.07843%)" offset="0.0664062"/><stop stop-opacity="1" stop-color="rgb(93.287659%, 85.888672%, 34.899902%)" offset="0.0703125"/><stop stop-opacity="1" stop-color="rgb(93.087769%, 85.688782%, 34.899902%)" offset="0.0742188"/><stop stop-opacity="1" stop-color="rgb(92.89856%, 85.499573%, 34.898376%)" offset="0.078125"/><stop stop-opacity="1" stop-color="rgb(92.89856%, 85.499573%, 34.701538%)" offset="0.0820312"/><stop stop-opacity="1" stop-color="rgb(92.89856%, 85.307312%, 34.501648%)" offset="0.0859375"/><stop stop-opacity="1" stop-color="rgb(92.710876%, 85.107422%, 34.310913%)" offset="0.0898438"/><stop stop-opacity="1" stop-color="rgb(92.510986%, 84.916687%, 34.111023%)" offset="0.09375"/><stop stop-opacity="1" stop-color="rgb(92.498779%, 84.715271%, 34.098816%)" offset="0.0976562"/><stop stop-opacity="1" stop-color="rgb(92.480469%, 84.498596%, 34.075928%)" offset="0.101562"/><stop stop-opacity="1" stop-color="rgb(92.330933%, 84.280396%, 33.876038%)" offset="0.105469"/><stop stop-opacity="1" stop-color="rgb(92.199707%, 84.080505%, 33.699036%)" offset="0.109375"/><stop stop-opacity="1" stop-color="rgb(92.199707%, 83.889771%, 33.68988%)" offset="0.113281"/><stop stop-opacity="1" stop-color="rgb(92.195129%, 83.68988%, 33.48999%)" offset="0.117188"/><stop stop-opacity="1" stop-color="rgb(91.995239%, 83.36792%, 33.16803%)" offset="0.121094"/><stop stop-opacity="1" stop-color="rgb(91.799927%, 83.172607%, 32.972717%)" offset="0.132812"/><stop stop-opacity="1" stop-color="rgb(91.618347%, 83.103943%, 32.904053%)" offset="0.136719"/><stop stop-opacity="1" stop-color="rgb(91.416931%, 82.922363%, 32.899475%)" offset="0.140625"/><stop stop-opacity="1" stop-color="rgb(91.19873%, 82.705688%, 32.876587%)" offset="0.144531"/><stop stop-opacity="1" stop-color="rgb(90.982056%, 82.531738%, 32.676697%)" offset="0.148438"/><stop stop-opacity="1" stop-color="rgb(90.782166%, 82.38678%, 32.499695%)" offset="0.152344"/><stop stop-opacity="1" stop-color="rgb(90.59906%, 82.18689%, 32.493591%)" offset="0.15625"/><stop stop-opacity="1" stop-color="rgb(90.59906%, 81.996155%, 32.342529%)" offset="0.160156"/><stop stop-opacity="1" stop-color="rgb(90.59906%, 81.797791%, 32.199097%)" offset="0.164062"/><stop stop-opacity="1" stop-color="rgb(90.405273%, 81.600952%, 32.199097%)" offset="0.167969"/><stop stop-opacity="1" stop-color="rgb(90.205383%, 81.410217%, 32.009888%)" offset="0.171875"/><stop stop-opacity="1" stop-color="rgb(90.19928%, 81.210327%, 31.809998%)" offset="0.175781"/><stop stop-opacity="1" stop-color="rgb(90.19928%, 81.019592%, 31.799316%)" offset="0.179688"/><stop stop-opacity="1" stop-color="rgb(90.023804%, 80.819702%, 31.799316%)" offset="0.183594"/><stop stop-opacity="1" stop-color="rgb(89.804077%, 80.59845%, 31.599426%)" offset="0.1875"/><stop stop-opacity="1" stop-color="rgb(89.578247%, 80.383301%, 31.399536%)" offset="0.191406"/><stop stop-opacity="1" stop-color="rgb(89.387512%, 80.183411%, 31.387329%)" offset="0.195312"/><stop stop-opacity="1" stop-color="rgb(89.187622%, 79.992676%, 31.187439%)" offset="0.199219"/><stop stop-opacity="1" stop-color="rgb(88.999939%, 79.792786%, 30.999756%)" offset="0.203125"/><stop stop-opacity="1" stop-color="rgb(88.999939%, 79.598999%, 30.999756%)" offset="0.207031"/><stop stop-opacity="1" stop-color="rgb(88.999939%, 79.406738%, 30.807495%)" offset="0.210938"/><stop stop-opacity="1" stop-color="rgb(88.812256%, 79.206848%, 30.607605%)" offset="0.214844"/><stop stop-opacity="1" stop-color="rgb(88.61084%, 79.016113%, 30.41687%)" offset="0.21875"/><stop stop-opacity="1" stop-color="rgb(88.598633%, 78.816223%, 30.215454%)" offset="0.222656"/><stop stop-opacity="1" stop-color="rgb(88.575745%, 78.599548%, 30.175781%)" offset="0.226562"/><stop stop-opacity="1" stop-color="rgb(88.375854%, 78.379822%, 29.975891%)" offset="0.230469"/><stop stop-opacity="1" stop-color="rgb(88.18512%, 78.179932%, 29.798889%)" offset="0.234375"/><stop stop-opacity="1" stop-color="rgb(87.985229%, 77.999878%, 29.798889%)" offset="0.238281"/><stop stop-opacity="1" stop-color="rgb(87.796021%, 77.993774%, 29.794312%)" offset="0.242188"/><stop stop-opacity="1" stop-color="rgb(87.646484%, 77.793884%, 29.594421%)" offset="0.246094"/><stop stop-opacity="1" stop-color="rgb(87.306213%, 77.453613%, 29.205322%)" offset="0.25"/><stop stop-opacity="1" stop-color="rgb(87.106323%, 77.116394%, 29.005432%)" offset="0.261719"/><stop stop-opacity="1" stop-color="rgb(87.001038%, 76.812744%, 28.900146%)" offset="0.269531"/><stop stop-opacity="1" stop-color="rgb(86.801147%, 76.591492%, 28.700256%)" offset="0.273438"/><stop stop-opacity="1" stop-color="rgb(86.694336%, 76.286316%, 28.594971%)" offset="0.277344"/><stop stop-opacity="1" stop-color="rgb(86.495972%, 75.895691%, 28.396606%)" offset="0.285156"/><stop stop-opacity="1" stop-color="rgb(86.299133%, 75.505066%, 28.005981%)" offset="0.292969"/><stop stop-opacity="1" stop-color="rgb(86.108398%, 75.114441%, 27.804565%)" offset="0.300781"/><stop stop-opacity="1" stop-color="rgb(85.809326%, 74.809265%, 27.723694%)" offset="0.308594"/><stop stop-opacity="1" stop-color="rgb(85.598755%, 74.598694%, 27.46582%)" offset="0.3125"/><stop stop-opacity="1" stop-color="rgb(85.395813%, 74.395752%, 27.191162%)" offset="0.320312"/><stop stop-opacity="1" stop-color="rgb(85.195923%, 74.098206%, 27.000427%)" offset="0.328125"/><stop stop-opacity="1" stop-color="rgb(85.005188%, 73.707581%, 26.800537%)" offset="0.335938"/><stop stop-opacity="1" stop-color="rgb(84.814453%, 73.414612%, 26.699829%)" offset="0.34375"/><stop stop-opacity="1" stop-color="rgb(84.707642%, 73.205566%, 26.699829%)" offset="0.347656"/><stop stop-opacity="1" stop-color="rgb(84.686279%, 72.98584%, 26.687622%)" offset="0.351562"/><stop stop-opacity="1" stop-color="rgb(84.480286%, 72.68219%, 26.480103%)" offset="0.355469"/><stop stop-opacity="1" stop-color="rgb(84.089661%, 72.340393%, 26.091003%)" offset="0.363281"/><stop stop-opacity="1" stop-color="rgb(83.699036%, 71.998596%, 25.898743%)" offset="0.371094"/><stop stop-opacity="1" stop-color="rgb(83.500671%, 71.607971%, 25.704956%)" offset="0.378906"/><stop stop-opacity="1" stop-color="rgb(83.309937%, 71.217346%, 25.505066%)" offset="0.386719"/><stop stop-opacity="1" stop-color="rgb(83.110046%, 71.009827%, 25.39978%)" offset="0.394531"/><stop stop-opacity="1" stop-color="rgb(82.992554%, 70.892334%, 25.19989%)" offset="0.398438"/><stop stop-opacity="1" stop-color="rgb(82.792664%, 70.591736%, 25.099182%)" offset="0.40625"/><stop stop-opacity="1" stop-color="rgb(82.626343%, 70.297241%, 25.001526%)" offset="0.414062"/><stop stop-opacity="1" stop-color="rgb(82.476807%, 70.106506%, 24.710083%)" offset="0.421875"/><stop stop-opacity="1" stop-color="rgb(82.398987%, 69.917297%, 24.417114%)" offset="0.429688"/><stop stop-opacity="1" stop-color="rgb(82.298279%, 69.709778%, 24.308777%)" offset="0.433594"/><stop stop-opacity="1" stop-color="rgb(82.098389%, 69.488525%, 24.28894%)" offset="0.4375"/><stop stop-opacity="1" stop-color="rgb(81.993103%, 69.18335%, 24.082947%)" offset="0.441406"/><stop stop-opacity="1" stop-color="rgb(81.793213%, 68.792725%, 23.692322%)" offset="0.449219"/><stop stop-opacity="1" stop-color="rgb(81.407166%, 68.406677%, 23.3078%)" offset="0.464844"/><stop stop-opacity="1" stop-color="rgb(81.207275%, 68.106079%, 23.10791%)" offset="0.472656"/><stop stop-opacity="1" stop-color="rgb(81.089783%, 67.814636%, 22.988892%)" offset="0.476562"/><stop stop-opacity="1" stop-color="rgb(80.784607%, 67.462158%, 22.789001%)" offset="0.484375"/><stop stop-opacity="1" stop-color="rgb(80.493164%, 67.094421%, 22.624207%)" offset="0.492188"/><stop stop-opacity="1" stop-color="rgb(80.39856%, 66.798401%, 22.47467%)" offset="0.5"/><stop stop-opacity="1" stop-color="rgb(80.212402%, 66.513062%, 22.399902%)" offset="0.507812"/><stop stop-opacity="1" stop-color="rgb(80.012512%, 66.313171%, 22.218323%)" offset="0.511719"/><stop stop-opacity="1" stop-color="rgb(79.821777%, 66.122437%, 22.016907%)" offset="0.515625"/><stop stop-opacity="1" stop-color="rgb(79.484558%, 65.783691%, 21.861267%)" offset="0.519531"/><stop stop-opacity="1" stop-color="rgb(79.26178%, 65.560913%, 21.661377%)" offset="0.53125"/><stop stop-opacity="1" stop-color="rgb(79.199219%, 65.306091%, 21.598816%)" offset="0.542969"/><stop stop-opacity="1" stop-color="rgb(79.01001%, 65.104675%, 21.598816%)" offset="0.546875"/><stop stop-opacity="1" stop-color="rgb(78.81012%, 64.91394%, 21.598816%)" offset="0.550781"/><stop stop-opacity="1" stop-color="rgb(78.799438%, 64.71405%, 21.418762%)" offset="0.554688"/><stop stop-opacity="1" stop-color="rgb(78.623962%, 64.523315%, 21.218872%)" offset="0.558594"/><stop stop-opacity="1" stop-color="rgb(78.40271%, 64.303589%, 21.179199%)" offset="0.5625"/><stop stop-opacity="1" stop-color="rgb(78.178406%, 64.073181%, 20.973206%)" offset="0.566406"/><stop stop-opacity="1" stop-color="rgb(77.807617%, 63.693237%, 20.593262%)" offset="0.578125"/><stop stop-opacity="1" stop-color="rgb(77.606201%, 63.311768%, 20.211792%)" offset="0.589844"/><stop stop-opacity="1" stop-color="rgb(77.598572%, 63.111877%, 20.011902%)" offset="0.59375"/><stop stop-opacity="1" stop-color="rgb(77.598572%, 62.921143%, 19.999695%)" offset="0.597656"/><stop stop-opacity="1" stop-color="rgb(77.449036%, 62.702942%, 19.799805%)" offset="0.601562"/><stop stop-opacity="1" stop-color="rgb(77.279663%, 62.532043%, 19.599915%)" offset="0.605469"/><stop stop-opacity="1" stop-color="rgb(77.079773%, 62.385559%, 19.584656%)" offset="0.609375"/><stop stop-opacity="1" stop-color="rgb(76.899719%, 62.185669%, 19.384766%)" offset="0.613281"/><stop stop-opacity="1" stop-color="rgb(76.899719%, 61.994934%, 19.198608%)" offset="0.617188"/><stop stop-opacity="1" stop-color="rgb(76.899719%, 61.795044%, 19.198608%)" offset="0.621094"/><stop stop-opacity="1" stop-color="rgb(76.704407%, 61.599731%, 19.003296%)" offset="0.625"/><stop stop-opacity="1" stop-color="rgb(76.504517%, 61.413574%, 18.803406%)" offset="0.628906"/><stop stop-opacity="1" stop-color="rgb(76.318359%, 61.032104%, 18.617249%)" offset="0.636719"/><stop stop-opacity="1" stop-color="rgb(75.941467%, 60.816956%, 18.417358%)" offset="0.640625"/><stop stop-opacity="1" stop-color="rgb(75.721741%, 60.588074%, 18.199158%)" offset="0.644531"/><stop stop-opacity="1" stop-color="rgb(75.692749%, 60.188293%, 17.993164%)" offset="0.648438"/><stop stop-opacity="1" stop-color="rgb(75.492859%, 59.997559%, 17.793274%)" offset="0.65625"/><stop stop-opacity="1" stop-color="rgb(75.299072%, 59.80072%, 17.599487%)" offset="0.664062"/><stop stop-opacity="1" stop-color="rgb(75.106812%, 59.410095%, 17.454529%)" offset="0.671875"/><stop stop-opacity="1" stop-color="rgb(74.906921%, 59.01947%, 17.304993%)" offset="0.679688"/><stop stop-opacity="1" stop-color="rgb(74.801636%, 58.714294%, 17.201233%)" offset="0.6875"/><stop stop-opacity="1" stop-color="rgb(74.594116%, 58.493042%, 17.001343%)" offset="0.691406"/><stop stop-opacity="1" stop-color="rgb(74.291992%, 58.190918%, 16.896057%)" offset="0.695312"/><stop stop-opacity="1" stop-color="rgb(74.099731%, 57.998657%, 16.697693%)" offset="0.703125"/><stop stop-opacity="1" stop-color="rgb(73.907471%, 57.806396%, 16.500854%)" offset="0.710938"/><stop stop-opacity="1" stop-color="rgb(73.707581%, 57.606506%, 16.316223%)" offset="0.714844"/><stop stop-opacity="1" stop-color="rgb(73.521423%, 57.4646%, 16.116333%)" offset="0.722656"/><stop stop-opacity="1" stop-color="rgb(73.309326%, 57.302856%, 15.887451%)" offset="0.726562"/><stop stop-opacity="1" stop-color="rgb(73.086548%, 57.080078%, 15.487671%)" offset="0.730469"/><stop stop-opacity="1" stop-color="rgb(72.895813%, 56.689453%, 15.296936%)" offset="0.738281"/><stop stop-opacity="1" stop-color="rgb(72.698975%, 56.298828%, 15.098572%)" offset="0.746094"/><stop stop-opacity="1" stop-color="rgb(72.50061%, 55.909729%, 14.900208%)" offset="0.753906"/><stop stop-opacity="1" stop-color="rgb(72.499084%, 55.708313%, 14.898682%)" offset="0.757812"/><stop stop-opacity="1" stop-color="rgb(72.499084%, 55.699158%, 14.717102%)" offset="0.761719"/><stop stop-opacity="1" stop-color="rgb(72.499084%, 55.699158%, 14.517212%)" offset="0.765625"/><stop stop-opacity="1" stop-color="rgb(72.348022%, 55.499268%, 14.477539%)" offset="0.769531"/><stop stop-opacity="1" stop-color="rgb(72.198486%, 55.299377%, 14.277649%)" offset="0.773438"/><stop stop-opacity="1" stop-color="rgb(72.186279%, 55.28717%, 14.099121%)" offset="0.777344"/><stop stop-opacity="1" stop-color="rgb(71.986389%, 55.079651%, 14.091492%)" offset="0.78125"/><stop stop-opacity="1" stop-color="rgb(71.795654%, 54.692078%, 13.891602%)" offset="0.785156"/><stop stop-opacity="1" stop-color="rgb(71.59729%, 54.499817%, 13.699341%)" offset="0.789062"/><stop stop-opacity="1" stop-color="rgb(71.400452%, 54.304504%, 13.504028%)" offset="0.792969"/><stop stop-opacity="1" stop-color="rgb(71.398926%, 54.103088%, 13.304138%)" offset="0.804688"/><stop stop-opacity="1" stop-color="rgb(71.398926%, 53.923035%, 13.299561%)" offset="0.808594"/><stop stop-opacity="1" stop-color="rgb(71.188354%, 53.713989%, 13.09967%)" offset="0.8125"/><stop stop-opacity="1" stop-color="rgb(70.788574%, 53.483582%, 12.89978%)" offset="0.816406"/><stop stop-opacity="1" stop-color="rgb(70.597839%, 53.092957%, 12.898254%)" offset="0.824219"/><stop stop-opacity="1" stop-color="rgb(70.402527%, 52.702332%, 12.702942%)" offset="0.832031"/><stop stop-opacity="1" stop-color="rgb(70.011902%, 52.359009%, 12.503052%)" offset="0.839844"/><stop stop-opacity="1" stop-color="rgb(69.807434%, 52.104187%, 12.5%)" offset="0.847656"/><stop stop-opacity="1" stop-color="rgb(69.787598%, 51.885986%, 12.5%)" offset="0.851562"/><stop stop-opacity="1" stop-color="rgb(69.584656%, 51.585388%, 12.348938%)" offset="0.855469"/><stop stop-opacity="1" stop-color="rgb(69.198608%, 51.199341%, 12.199402%)" offset="0.871094"/><stop stop-opacity="1" stop-color="rgb(69.000244%, 51.000977%, 12.199402%)" offset="0.878906"/><stop stop-opacity="1" stop-color="rgb(68.998718%, 50.813293%, 12.013245%)" offset="0.882812"/><stop stop-opacity="1" stop-color="rgb(68.817139%, 50.613403%, 11.813354%)" offset="0.886719"/><stop stop-opacity="1" stop-color="rgb(68.617249%, 50.59967%, 11.799622%)" offset="0.890625"/><stop stop-opacity="1" stop-color="rgb(68.598938%, 50.39978%, 11.799622%)" offset="0.894531"/><stop stop-opacity="1" stop-color="rgb(68.582153%, 50.18158%, 11.781311%)" offset="0.898438"/><stop stop-opacity="1" stop-color="rgb(68.382263%, 49.969482%, 11.581421%)" offset="0.902344"/><stop stop-opacity="1" stop-color="rgb(68.19458%, 49.581909%, 11.399841%)" offset="0.90625"/><stop stop-opacity="1" stop-color="rgb(67.996216%, 49.195862%, 11.399841%)" offset="0.910156"/><stop stop-opacity="1" stop-color="rgb(67.654419%, 48.999023%, 11.399841%)" offset="0.917969"/><stop stop-opacity="1" stop-color="rgb(67.503357%, 48.808289%, 11.399841%)" offset="0.925781"/><stop stop-opacity="1" stop-color="rgb(67.498779%, 48.509216%, 11.399841%)" offset="0.933594"/><stop stop-opacity="1" stop-color="rgb(67.478943%, 48.298645%, 11.399841%)" offset="0.9375"/><stop stop-opacity="1" stop-color="rgb(67.279053%, 48.182678%, 11.399841%)" offset="0.941406"/><stop stop-opacity="1" stop-color="rgb(67.098999%, 47.982788%, 11.399841%)" offset="0.945312"/><stop stop-opacity="1" stop-color="rgb(67.092896%, 47.795105%, 11.399841%)" offset="0.949219"/><stop stop-opacity="1" stop-color="rgb(66.891479%, 47.644043%, 11.399841%)" offset="0.953125"/><stop stop-opacity="1" stop-color="rgb(66.50238%, 47.302246%, 11.399841%)" offset="0.957031"/><stop stop-opacity="1" stop-color="rgb(66.30249%, 47.102356%, 11.399841%)" offset="0.964844"/><stop stop-opacity="1" stop-color="rgb(66.299438%, 46.920776%, 11.399841%)" offset="0.972656"/><stop stop-opacity="1" stop-color="rgb(66.099548%, 46.708679%, 11.399841%)" offset="0.976562"/><stop stop-opacity="1" stop-color="rgb(65.899658%, 46.577454%, 11.399841%)" offset="0.980469"/><stop stop-opacity="1" stop-color="rgb(65.884399%, 46.374512%, 11.399841%)" offset="0.984375"/><stop stop-opacity="1" stop-color="rgb(65.684509%, 46.084595%, 11.399841%)" offset="0.988281"/><stop stop-opacity="1" stop-color="rgb(65.499878%, 45.899963%, 11.399841%)" offset="1"/></radialGradient></defs><g clip-path="url(#2e0ed1fca1)"><g clip-path="url(#0dde29ed51)"><g clip-path="url(#582bf4b8a9)"><path fill="url(#5caeee3a6e)" d="M 0.03125 89.441406 L 95.96875 89.441406 L 95.96875 6.195312 L 0.03125 6.195312 Z M 0.03125 89.441406 " fill-rule="nonzero"/></g></g></g></svg>