<svg xmlns="http://www.w3.org/2000/svg" width="128" height="128" version="1.0" viewBox="0 0 96 96"><defs><clipPath id="a"><path d="M88 93h7.7v3H88Zm0 0"/></clipPath><clipPath id="b"><path d="M94 52h1.7v9H94Zm0 0"/></clipPath><clipPath id="c"><path d="M93 48h2.7v13H93Zm0 0"/></clipPath><clipPath id="d"><path d="M90 47h5.7v14H90Zm0 0"/></clipPath><clipPath id="e"><path d="M87 49h8.7v12H87Zm0 0"/></clipPath><clipPath id="f"><path d="M95 56h.7v5H95Zm0 0"/></clipPath><clipPath id="g"><path d="M93 48h2.7v3H93Zm0 0"/></clipPath><clipPath id="h"><path d="M95 73h.7v3H95Zm0 0"/></clipPath><clipPath id="i"><path d="M92 63h3.7v5H92Zm0 0"/></clipPath><clipPath id="j"><path d="M82 59h13.7v4H82Zm0 0"/></clipPath><clipPath id="k"><path d="M95 59h.7v6H95Zm0 0"/></clipPath><clipPath id="l"><path d="M95 59h.7v1H95Zm0 0"/></clipPath><clipPath id="m"><path d="M95 57h.7v3H95Zm0 0"/></clipPath><clipPath id="n"><path d="M92 38h3.7v7H92Zm0 0"/></clipPath><clipPath id="o"><path d="M80 37h15.7v24H80Zm0 0"/></clipPath><clipPath id="p"><path d="M69 50h26.7v11H69Zm0 0"/></clipPath><clipPath id="q"><path d="M95 57h.7v3H95Zm0 0"/></clipPath><clipPath id="r"><path d="M94 41h1.7v20H94Zm0 0"/></clipPath><clipPath id="s"><path d="M95 59h.7v2H95Zm0 0"/></clipPath><clipPath id="t"><path d="M83 38h12.7v22H83Zm0 0"/></clipPath><clipPath id="u"><path d="M83 38h12.7v21H83Zm0 0"/></clipPath><clipPath id="v"><path d="M86 60h9.7v6H86Zm0 0"/></clipPath><clipPath id="w"><path d="M89 60h6.7v7H89Zm0 0"/></clipPath><clipPath id="x"><path d="M85 60h10.7v5H85Zm0 0"/></clipPath><clipPath id="y"><path d="M94 88h1.7v8H94Zm0 0"/></clipPath><clipPath id="z"><path d="M95 80h.7v7H95Zm0 0"/></clipPath><clipPath id="A"><path d="M95 74h.7v2H95Zm0 0"/></clipPath><clipPath id="B"><path d="M94 65h1.7v10H94Zm0 0"/></clipPath><clipPath id="C"><path d="M94 72h1.7v3H94Zm0 0"/></clipPath><clipPath id="D"><path d="M95 73h.7v2H95Zm0 0"/></clipPath><clipPath id="E"><path d="M94 88h1.7v8H94Zm0 0"/></clipPath><clipPath id="F"><path d="M94 82h1.7v5H94Zm0 0"/></clipPath><clipPath id="G"><path d="M94 82h1.7v2H94Zm0 0"/></clipPath><clipPath id="H"><path d="M92 34h3.7v12H92Zm0 0"/></clipPath><clipPath id="I"><path d="M89 0h6.7v43H89Zm0 0"/></clipPath><clipPath id="J"><path d="M92 22h3.7v21H92Zm0 0"/></clipPath><clipPath id="K"><path d="M93 23h2.7v17H93Zm0 0"/></clipPath><clipPath id="L"><path d="M94 29h1.7v11H94Zm0 0"/></clipPath><clipPath id="M"><path d="M95 38h.7v1H95Zm0 0"/></clipPath><clipPath id="N"><path d="M7.2 87H51v7H7.2Zm0 0"/></clipPath><clipPath id="O"><path d="M90 89h5.7v7H90Zm0 0"/></clipPath><clipPath id="P"><path d="M91 88h4.7v2H91Zm0 0"/></clipPath><clipPath id="Q"><path d="M94 73h1.7v2H94Zm0 0"/></clipPath><clipPath id="R"><path d="M91 77h4.7v2H91Zm0 0"/></clipPath><clipPath id="S"><path d="M91 76h4.7v3H91Zm0 0"/></clipPath><clipPath id="T"><path d="M91 75h4.7v4H91Zm0 0"/></clipPath><clipPath id="U"><path d="M91 78h4.7v2H91Zm0 0"/></clipPath><clipPath id="V"><path d="M91 78h4.7v3H91Zm0 0"/></clipPath><clipPath id="W"><path d="M91 78h4.7v5H91Zm0 0"/></clipPath><clipPath id="X"><path d="M91 78h4.7v7H91Zm0 0"/></clipPath><clipPath id="Y"><path d="M91 78h4.7v10H91Zm0 0"/></clipPath></defs><path fill="#c39d35" d="M55.4 90.5c-1.4-1-3.3-1-5-1-2 .3-3.9.8-5.9.9h-3.4c-.4 0-.5-.7 0-.7 2 .1 4.1.1 6.2-.2 2-.4 3.9-.8 5.8-.5 1 .1 2 .5 2.8 1 .3.3-.2.8-.5.5Zm0 0"/><path fill="#c39d35" d="M55.6 90.2a4 4 0 0 1-2.5-.3c-1-.3-1.9-.8-2.8-1.2-.9-.4-1.7-1-2.7-1.1-1-.2-1.9 0-2.8 0-.4.1-.5-.5 0-.6.9-.1 1.8-.2 2.7 0 1 0 1.8.5 2.7 1l2.8 1.2c.8.4 1.6.7 2.5.4.3 0 .5.5.1.6Zm0 0"/><path fill="#c39d35" d="M55.6 90.7a17 17 0 0 0-3.9-3 393 393 0 0 0-7.2-4.2c-.3-.2 0-.7.3-.5l4.7 2.7 4.4 2.6 2 1.9c.4.3 0 .8-.3.5Zm0 0"/><path fill="#c39d35" d="M55.5 90.2c-.4-1.6-1.7-2.6-3-3.4l-2-1.4a14 14 0 0 1-1.8-1.7L47 81.5c-.2-.4.3-.7.5-.4 1 1.4 2 2.7 3.3 3.8 1.3 1 2.8 1.7 4 2.9.6.6 1.1 1.4 1.3 2.2 0 .4-.5.6-.6.2Zm0 0"/><path fill="#c39d35" d="M55.6 90.8a8 8 0 0 0-2.9-.4c-1 0-2 0-3 .2-1 0-2 .3-3 .7l-2.5 1.4c-1 .6-1.9 1-3 1.1-.4 0-.4-.5 0-.6 2-.2 3.6-1.6 5.3-2.4 1.9-.9 4-1 6-1 1 0 2.2 0 3.2.4.4 0 .3.7-.1.6ZM46 83.5a1 1 0 0 1-.3.7 1 1 0 0 1-.7.3 1 1 0 0 1-1-.6V83a1 1 0 0 1 1.4-.5c.1 0 .2 0 .3.2a1 1 0 0 1 .3.7ZM42.1 90a1 1 0 0 1-.6 1 1 1 0 0 1-1.4-.5v-.8l.3-.3a1 1 0 0 1 .7-.3 1 1 0 0 1 1 .6v.4ZM46.1 87.1a1 1 0 0 1-.6 1 1 1 0 0 1-.8 0 1 1 0 0 1-.6-.5 1 1 0 0 1 0-.9l.3-.3a1 1 0 0 1 .7-.3h.4l.4.3.2.3v.4Zm0 0"/><path fill="#c39d35" d="M42.2 93.5v.4l-.3.3a1 1 0 0 1-.7.3h-.4a1 1 0 0 1-.3-.3 1 1 0 0 1 .3-1.6 1 1 0 0 1 1.3.5l.1.4ZM48.1 81.2a1 1 0 0 1-.6.9 1 1 0 0 1-1.3-.5 1 1 0 0 1 .5-1.3 1 1 0 0 1 .8 0c.1 0 .2 0 .3.2l.2.3.1.4ZM67.6 88.9V88.6h-.1v-.2l-.1-.2V88l-.6-.6-.1-.1v.4l.1.2v.2l.2.2.3.2.2.2.1.2ZM69 93.6h-.2V93l-.3.1v.2h-.2c-.3 0-.5 0-.7.2l-.9.3-4 1.4h-.2c-.2.1-.3.3-.2.5 0 .1.2.2.4.1h.3l.2-.1 3.6-1.2 1.5-.6.3-.1.2-.1h.1ZM69.7 93.3l-.1-.3h-.1v-.2l-.3.1H69v.2l.2.3v.2l.5-.3ZM63.7 89.8l-.3-.2v-.1l-.2-.1-.3.3a4.9 4.9 0 0 1-2.5 1.3h-.8c-.6.1-1.3 0-1.9-.2l-.4-.4-.1-.2-.2-.2v-.6c0-.2 0-.3-.2-.3a17.5 17.5 0 0 1 2-8.6c.4-.7.8-1.2 1.4-1.7v-.1l.4-.3a5 5 0 0 1-.3-.5 7.4 7.4 0 0 0-2.4 3c-.6 1.1-1 2.5-1.3 3.8l-.1.4c-.2 1-.4 2-.4 3.1v.9l.1.3.1.3v.2l.1.2v.1l.1.2.1.1a2.4 2.4 0 0 0 .4.5l.7.4c.7.3 1.6.3 2.4.3h.1l.8-.2c.2 0 .5-.1.7-.3l.4-.1.2-.1.9-.7.2-.1V90l.3-.3ZM64.7 88.3l-.2-.2-.6.3c0 .2-.2.3-.3.5l.3-.2.8-.4Zm0 0"/><path fill="#c39d35" d="M63 95.9v-.2l-.2-.6-.2-.5v-.1l-.2-.3a15.7 15.7 0 0 0-.6-1.5c-.2-.5-.5-.9-.8-1.2l-.1-.1-.5-.4H60l-1.4-.3-1.2-.3h-.2l-.6-.1h-.4l-.1-.1h-.4l-.2.2h-.2v.1l-.2.2-.2.2c0 .3-.2.5-.4.8l-.3.6-.7 1.6a8 8 0 0 0-.5 1.8v.2h.6v-.2l.1-.3.4-1.3a15 15 0 0 1 1-2.2l.2-.2.3-.6.2-.2h.6l.5.1h.1l1.5.3 1 .2.6.2.2.1c1 1 1.3 2.3 1.7 3.5l.2.4v.2h.7Zm0 0"/><path fill="#c39d35" d="M53.3 91.4h-.4l-.1.1h.4Zm0 0Zm-1.1.2h-.6c-.5 0-.8.2-1.2.3l-.4.1-.3.1c.2 0 .4 0 .6-.2h.7l.3-.1h.4l.5-.2Zm1-.2Zm0 0H53l-.1.1h.4Zm-1 .2h-.6c-.5 0-.8.2-1.2.3l-.4.1-.3.1c.2 0 .4 0 .6-.2h.7l.3-.1h.4l.5-.2Zm1-.2H53l-.1.1h.4Zm-1 .2h-.6c-.5 0-.8.2-1.2.3l-.4.1-.3.1c.2 0 .4 0 .6-.2h.7l.3-.1h.4l.5-.2Zm1.7-.3c0-.1-.1-.2-.3-.2h-.5l-.3-.2h-.6l-.5.2H51.1l-.2.1h-.3v.2c0 .1 0 .3-.2.3H50l-.7.2-.1.1-.5.4.7-.2h.2V92l.7-.2h.7l.3-.1h.3l.6-.2h.6l.4-.1h.3l.3-.1.1-.2ZM47 93l-3 1.2-.4.4-.9 1-.1.1h.8l.2-.2c.5-.6 1.1-1 1.8-1.6l1.6-1Zm8.8-3-.1-.1-.3-.1h-.2V90.3H55v.1h-.1v.1l-.4.2-.7.1-.3.1H53l-.2.1h-.2l-.3.1h-.6l-.2.1h-.4l-.2.1h-.3l-1.2.4H49l-.5.3-1 .3-.5.3-.3.1-.4.3a7.3 7.3 0 0 0-1 .7l-1.1.8-.5.4-.9.9-.1.2h.8l.2-.2a10.5 10.5 0 0 1 3.5-2.6l1.6-.7.7-.2h.2l.7-.2.7-.1h.3l.2-.1h.1l.6-.1h.6l.4-.2h.6l.1-.1h.2l.3-.1-.2.3v.1l-.3.5-.1.4-.6 1.7-.5 1.5v.2h.6v-.2l.4-1.2c.4-1.2.8-2.5 1.5-3.5v-.2h.2v-.1h.2V90.1Zm-8.8 3-3 1.2-.4.4-.9 1-.1.1h.8l.2-.2c.5-.6 1.1-1 1.8-1.6l1.6-1Zm7-1.8-.4-.2h-.5l-.3-.2h-.6l-.5.2H51.1l-.2.1h-.3v.2c0 .1 0 .3-.2.3H50l-.7.2-.1.1-.5.4.7-.2h.2V92l.7-.2h.7l.3-.1h.3l.6-.2h.6l.4-.1h.3l.3-.1.1-.2ZM47 93l-3 1.2-.4.4-.9 1-.1.1h.8l.2-.2c.5-.6 1.1-1 1.8-1.6l1.6-1Zm7-1.8-.4-.2h-.5l-.3-.2h-.6l-.5.2H51.1l-.2.1h-.3v.2c0 .1 0 .3-.2.3H50l-.7.2-.1.1-.5.4.7-.2h.2V92l.7-.2h.7l.3-.1h.3l.6-.2h.6l.4-.1h.3l.3-.1.1-.2Zm-1.8.3h-.6c-.5 0-.8.2-1.2.3l-.4.1-.3.1c.2 0 .4 0 .6-.2h.7l.3-.1h.4l.5-.2Zm1-.2H53l-.1.1h.4Zm-1 .2h-.6c-.5 0-.8.2-1.2.3l-.4.1-.3.1c.2 0 .4 0 .6-.2h.7l.3-.1h.4l.5-.2Zm1-.2H53l-.1.1h.4Zm0 0Zm0 0Zm0 0Zm0 0H53l-.7.2h-.6c-.5 0-.8.2-1.2.3l-.4.1-.3.1c.2 0 .4 0 .6-.2h.7l.3-.1h.4l.5-.1.6-.1.5-.1Zm0 0Zm0 0Zm0 0ZM41 84.4l-1.5-.4h-.8a5.3 5.3 0 0 0-1.4.3c-1.2.5-2.4 1-3.2 2a3 3 0 0 0-.7 1.3V89.8l.1 1V91.7c0 .2.1.3.3.4.4.1.8 0 1.2-.3h.3c.5-.2 1-.3 1.6-.3h.1c-.7 0-1.4-.2-2-.3-.3 0-.5.2-.7.3H34v-2L34 89v-1.4c.2-.5.5-1 .9-1.3a8.7 8.7 0 0 1 3.6-1.7h.6c.4 0 .8 0 1.1.2l.4.2h.1c.2.1.3 0 .4-.2l-.1-.4ZM46.2 91.7H40h.3l1 .1a23 23 0 0 0 4.8-.1ZM46.1 91H48 46ZM49.3 91h-.4.4Zm0 0"/><path fill="#c39d35" d="M56 90.7c0-.2-.2-.3-.3-.3l-.7-.2a14.7 14.7 0 0 0-2.3-.2H51v.1l-.6.1-.7.1c-.4 0-.8.2-1.1.3l1 .4a10.5 10.5 0 0 1 1.8-.3h2.3l1.5.3h.2c.2 0 .4-.1.4-.3Zm0 0"/><path fill="#c39d35" d="m55.4 89.9-.4-.1h-.2l-.3-.2H54l-1-.3-.5-.2-.9-.2-1.2-.3-1-.3-.4-.1-.9-.2-.8-.3-.6-.2h-.2l-.5-.2-.6-.2-.2-.1-1-.5-.5-.2a17.2 17.2 0 0 1-5.3-4.4l-1-.5a15 15 0 0 0 2 2.5l1.6 1s-.2.2-.4.1l.4.3a91.4 91.4 0 0 1 3.4 2 10.4 10.4 0 0 0 .9.4h.1l.3.1.8.3.6.2.6.2h.1l.9.2 1 .3 1.5.4H51.6l.8.3h.3l.2.1.5.1.3.1.4.1.5.2h.4V90l.2-.1.2-.2Zm0 0-.4-.1h-.2l-.3-.2H54l-1-.3-.5-.2-.9-.2-1.2-.3-1-.3-.4-.1-.9-.2-.8-.3-.6-.2h-.2l-.5-.2-.6-.2-.2-.1-1-.5-.5-.2a17.2 17.2 0 0 1-5.3-4.4l-1-.5a15 15 0 0 0 2 2.5l1.6 1s-.2.2-.4.1l.4.3a91.4 91.4 0 0 1 3.4 2 10.4 10.4 0 0 0 .9.4h.1l.3.1.8.3.6.2.6.2h.1l.9.2 1 .3 1.5.4H51.6l.8.3h.3l.2.1.5.1.3.1.4.1.5.2h.4V90l.2-.1.2-.2Zm0 0-.4-.1h-.2l-.3-.2H54l-1-.3-.5-.2-.9-.2-1.2-.3-1-.3-.4-.1-.9-.2-.8-.3-.6-.2h-.2l-.5-.2-.6-.2-.2-.1-1-.5-.5-.2a17.2 17.2 0 0 1-5.3-4.4l-1-.5a15 15 0 0 0 2 2.5l1.6 1s-.2.2-.4.1l.4.3a91.4 91.4 0 0 1 3.4 2 10.4 10.4 0 0 0 .9.4h.1l.3.1.8.3.6.2.6.2h.1l.9.2 1 .3 1.5.4H51.6l.8.3h.3l.2.1.5.1.3.1.4.1.5.2h.4V90l.2-.1.2-.2Zm.5.1h-.2.1Zm-.2 0-.3-.1-.4-.1h-.2l-.3-.2H54l-1-.3-.5-.2-.9-.2-1.2-.3-1-.3-.4-.1-.9-.2-.8-.3-.6-.2h-.2l-.5-.2-.6-.2.7.4.4.3.8.5.4.2h.1l.9.3 1 .2 1.5.4h.1l.2.1.8.2.3.1h.2l.5.2.7-.1h.1l.2.1H55.7Zm-14.9-5.7c-.8-.7-1.6-1.5-2.3-2.4a19 19 0 0 0-1.1-.4l1.4 1.7 2 1.1Zm15 5.7Zm-.1 0-.3-.1-.4-.1-.2-.1h-.3v-.1H54v-.1l-1-.2-.5-.2-.9-.2-1.2-.3-1-.3-.4-.1-.9-.3-.8-.2-.6-.2h-.2l-.5-.2-.6-.3.7.5.4.2.8.5.4.3h.1l.9.3 1 .2 1.5.4h.1l.2.1.8.2h.3l.2.1.5.2.7-.2h.1v.1h.2v.1h1.3Zm-14.9-5.7c-.8-.7-1.6-1.5-2.3-2.4a19 19 0 0 0-1.1-.4l1.4 1.7 2 1.1Zm15 5.7Zm-.1 0-.3-.1-.4-.1-.2-.1h-.3v-.1H54v-.1l-1-.2-.5-.2-.9-.2-1.2-.3-1-.3-.4-.1-.9-.3-.8-.2-.6-.2h-.2l-.5-.2-.6-.3.7.5.4.2.8.5.4.3h.1l.9.3 1 .2 1.5.4h.1l.2.1.8.2h.3l.2.1.5.2.7-.2h.1v.1h.2v.1h1.3Zm-14.9-5.7c-.8-.7-1.6-1.5-2.3-2.4a19 19 0 0 0-1.1-.4l1.4 1.7 2 1.1Zm15 5.7Zm-.1 0-.3-.1-.4-.1-.2-.1h-.3v-.1H54v-.1l-1-.2-.5-.2-.9-.2-1.2-.3-1-.3-.4-.1-.9-.3-.8-.2-.6-.2h-.2l-.5-.2-.6-.3.7.5.4.2.8.5.4.3h.1l.9.3 1 .2 1.5.4h.1l.2.1.8.2h.3l.2.1.5.2.7-.2h.1v.1h.2v.1h1.3Zm-14.9-5.7c-.8-.7-1.6-1.5-2.3-2.4a19 19 0 0 0-1.1-.4l1.4 1.7 2 1.1Zm15 5.7Zm-.1 0-.3-.1-.4-.1-.2-.1h-.3v-.1H54v-.1l-1-.2-.5-.2-.9-.2-1.2-.3-1-.3-.4-.1-.9-.3-.8-.2-.6-.2h-.2l-.5-.2-.6-.3.7.5.4.2.8.5.4.3h.1l.9.3 1 .2 1.5.4h.1l.2.1.8.2h.3l.2.1.5.2.7-.2h.1v.1h.2v.1h1.3Zm-14.9-5.7c-.8-.7-1.6-1.5-2.3-2.4a19 19 0 0 0-1.1-.4l1.4 1.7 2 1.1Zm15 5.7Zm-.1 0-.3-.1-.4-.1-.2-.1h-.3v-.1H54v-.1l-1-.2-.5-.2-.9-.2-1.2-.3-1-.3-.4-.1-.9-.3-.8-.2-.6-.2h-.2l-.5-.2-.6-.3.7.5.4.2.8.5.4.3h.1l.9.3 1 .2 1.5.4h.1l.2.1.8.2h.3l.2.1.5.2.7-.2h.1v.1h.2v.1h1.3Zm-14.9-5.7c-.8-.7-1.6-1.5-2.3-2.4a19 19 0 0 0-1.1-.4l1.4 1.7 2 1.1Zm15 5.7Zm-.1 0-.3-.1-.4-.1-.2-.1h-.3v-.1H54v-.1l-1-.2-.5-.2-.9-.2-1.2-.3-1-.3-.4-.1-.9-.3-.8-.2-.6-.2h-.2l-.5-.2-.6-.3.7.5.4.2.8.5.4.3h.1l.9.3 1 .2 1.5.4h.1l.2.1.8.2h.3l.2.1.5.2.7-.2h.1v.1h.2v.1h1.3Zm-14.9-5.7c-.8-.7-1.6-1.5-2.3-2.4a19 19 0 0 0-1.1-.4l1.4 1.7 2 1.1Zm15 5.7Zm-.1 0-.3-.1-.4-.1-.2-.1h-.3v-.1H54v-.1l-1-.2-.5-.2-.9-.2-1.2-.3-1-.3-.4-.1-.9-.3-.8-.2-.6-.2h-.2l-.5-.2-.6-.3.7.5.4.2.8.5.4.3h.1l.9.3 1 .2 1.5.4h.1l.2.1.8.2h.3l.2.1.5.2.7-.2h.1v.1h.2v.1h1.3Zm-14.9-5.7c-.8-.7-1.6-1.5-2.3-2.4a19 19 0 0 0-1.1-.4l1.4 1.7 2 1.1Zm15 5.7Zm-.1 0-.3-.1-.4-.1-.2-.1h-.3v-.1H54v-.1l-1-.2-.5-.2-.9-.2-1.2-.3-1-.3-.4-.1-.9-.3-.8-.2-.6-.2h-.2l-.5-.2-.6-.3.7.5.4.2.8.5.4.3h.1l.9.3 1 .2 1.5.4h.1l.2.1.8.2h.3l.2.1.5.2.7-.2h.1v.1h.2v.1h1.3Zm-14.9-5.7c-.8-.7-1.6-1.5-2.3-2.4a19 19 0 0 0-1.1-.4l1.4 1.7 2 1.1Zm15 5.7Zm-.1 0-.3-.1-.4-.1-.2-.1h-.3v-.1H54v-.1l-1-.2-.5-.2-.9-.2-1.2-.3-1-.3-.4-.1-.9-.3-.8-.2-.6-.2h-.2l-.5-.2-.6-.3.7.5.4.2.8.5.4.3h.1l.9.3 1 .2 1.5.4h.1l.2.1.8.2h.3l.2.1.5.2.7-.2h.1v.1h.2v.1h1.3Zm-14.9-5.7c-.8-.7-1.6-1.5-2.3-2.4a19 19 0 0 0-1.1-.4l1.4 1.7 2 1.1Zm15 5.7Zm-.1 0-.3-.1-.4-.1-.2-.1h-.3v-.1H54v-.1l-1-.2-.5-.2-.9-.2-1.2-.3-1-.3-.4-.1-.9-.3-.8-.2-.6-.2h-.2l-.5-.2-.6-.3.7.5.4.2.8.5.4.3h.1l.9.3 1 .2 1.5.4h.1l.2.1.8.2h.3l.2.1.5.2.7-.2h.1v.1h.2v.1h1.3Zm-14.9-5.7c-.8-.7-1.6-1.5-2.3-2.4a19 19 0 0 0-1.1-.4l1.4 1.7 2 1.1Zm15 5.7Zm-.1 0-.3-.1-.4-.1-.2-.1h-.3v-.1H54v-.1l-1-.2-.5-.2-.9-.2-1.2-.3-1-.3-.4-.1-.9-.3-.8-.2-.6-.2h-.2l-.5-.2-.6-.3.7.5.4.2.8.5.4.3h.1l.9.3 1 .2 1.5.4h.1l.2.1.8.2h.3l.2.1.5.2.7-.2h.1v.1h.2v.1h1.3Zm-14.9-5.7c-.8-.7-1.6-1.5-2.3-2.4a19 19 0 0 0-1.1-.4l1.4 1.7 2 1.1Zm15 5.7Zm-.1 0-.3-.1-.4-.1-.2-.1h-.3v-.1H54v-.1l-1-.2-.5-.2-.9-.2-1.2-.3-1-.3-.4-.1-.9-.3-.8-.2-.6-.2h-.2l-.5-.2-.6-.3.7.5.4.2.8.5.4.3h.1l.9.3 1 .2 1.5.4h.1l.2.1.8.2h.3l.2.1.5.2.7-.2h.1v.1h.2v.1h1.3Zm-14.9-5.7c-.8-.7-1.6-1.5-2.3-2.4a19 19 0 0 0-1.1-.4l1.4 1.7 2 1.1Zm15 5.7Zm-.1 0-.3-.1-.4-.1h-.2l-.3-.2H54l-1-.3-.5-.2-.9-.2-1.2-.3-1-.3-.4-.1-.9-.2-.8-.3-.6-.2h-.2l-.5-.2-.6-.2.7.4.4.3.8.5.4.2h.1l.9.3 1 .2 1.5.4h.1l.2.1.8.2.3.1h.2l.5.2.7-.1h.1l.2.1h1.3Zm-17-6.8 2.2 1.1c-.9-.7-1.7-1.5-2.4-2.4a19 19 0 0 0-1.1-.4l1.4 1.7Zm18 6.9V89.8l-.2-.4c0-.2-.2-.3-.3-.5V88.6l-.4-.5v-.2l-.3-.5-.2-.4V87l-1.7-3-.6-1-1.5-2.9c-.5-1-1-2-1.6-2.8a10.4 10.4 0 0 0-4.7-3.7 9 9 0 0 0-2.8-.7l-3 .1c-1.7.2-3.7.9-4 2.8a5 5 0 0 0 .3 2.4 11.5 11.5 0 0 0 .9 2c0 .2.2.4.3.5 0 .2 0 .3.2.4 0 .2.2.3.3.5a14.5 14.5 0 0 0 3.3 3.5l.4.3a16.1 16.1 0 0 0 4.3 2.4l.4.1.8.3.6.2.6.2h.1l.9.3 1 .2 1.5.4h.1l.2.1.8.2h.3l.2.1a21.3 21.3 0 0 1 .6.2h.2a16.8 16.8 0 0 1 .9.3H55l.4.2H55.6v.1h.4l.1.1H56.4l.2-.1.2-.3V90Zm-1.5-1.8.3.6.3.5v.2l.1.1.1.3H55.6l-.3-.1-.3-.1H54.8l-.3-.1-.3-.1H54l-1-.3-.5-.1-.8-.3h-.1l-1.2-.3-1-.3-.4-.1-.9-.2-.8-.3-.6-.2h-.2l-.5-.2-.6-.2-.2-.1-1-.4-.5-.3a17.2 17.2 0 0 1-5.3-4.4l-.4-.5-.6-1-.5-.8-.3-.7c-.4-1-.9-2.2-.6-3.2 0-.2 0-.4.2-.5l.2-.4.2-.2.2-.2.2-.2h.2l.3-.2 1.5-.4 2.7-.2c1.9.1 3.6.8 5 1.8 1 .5 1.7 1.1 2.2 1.9l1.6 2.6 2.8 5.2 1.2 2.3.6 1.1Zm-14.4-4c-.8-.7-1.6-1.5-2.3-2.4a19 19 0 0 0-1.1-.4l1.4 1.7 2 1.1ZM55.7 90h-.3l-.4-.1-.2-.1h-.3v-.1H54v-.1l-1-.2-.5-.2-.9-.2-1.2-.3-1-.3-.4-.1-.9-.3-.8-.2-.6-.2h-.2l-.5-.2-.6-.3.7.5.4.2.8.5.4.3h.1l.9.3 1 .2 1.5.4h.1l.2.1.8.2h.3l.2.1.5.2.7-.2h.1v.1h.2v.1h1.3Zm.2.1h-.1Zm-15-5.7c-1-.7-1.7-1.5-2.4-2.4a19 19 0 0 0-1.1-.4l1.4 1.7 2 1.1ZM55.6 90h-.3l-.4-.1-.2-.1h-.3v-.1H54v-.1l-1-.2-.5-.2-.9-.2-1.2-.3-1-.3-.4-.1-.9-.3-.8-.2-.6-.2h-.2l-.5-.2-.6-.3.7.5.4.2.8.5.4.3h.1l.9.3 1 .2 1.5.4h.1l.2.1.8.2h.3l.2.1.5.2.7-.2h.1v.1h.2v.1h1.3Zm.2.1h-.1Zm-15-5.7c-1-.7-1.7-1.5-2.4-2.4a19 19 0 0 0-1.1-.4l1.4 1.7 2 1.1ZM55.6 90h-.3l-.4-.1-.2-.1h-.3v-.1H54v-.1l-1-.2-.5-.2-.9-.2-1.2-.3-1-.3-.4-.1-.9-.3-.8-.2-.6-.2h-.2l-.5-.2-.6-.3.7.5.4.2.8.5.4.3h.1l.9.3 1 .2 1.5.4h.1l.2.1.8.2h.3l.2.1.5.2.7-.2h.1v.1h.2v.1h1.3Zm.2.1h-.1Zm-15-5.7c-1-.7-1.7-1.5-2.4-2.4a19 19 0 0 0-1.1-.4l1.4 1.7 2 1.1ZM55.6 90h-.3l-.4-.1-.2-.1h-.3v-.1H54v-.1l-1-.2-.5-.2-.9-.2-1.2-.3-1-.3-.4-.1-.9-.3-.8-.2-.6-.2h-.2l-.5-.2-.6-.3.7.5.4.2.8.5.4.3h.1l.9.3 1 .2 1.5.4h.1l.2.1.8.2h.3l.2.1.5.2.7-.2h.1v.1h.2v.1h1.3Zm.2.1h-.1Zm-15-5.7c-1-.7-1.7-1.5-2.4-2.4a19 19 0 0 0-1.1-.4l1.4 1.7 2 1.1ZM55.6 90h-.3l-.4-.1-.2-.1h-.3v-.1H54v-.1l-1-.2-.5-.2-.9-.2-1.2-.3-1-.3-.4-.1-.9-.3-.8-.2-.6-.2h-.2l-.5-.2-.6-.3.7.5.4.2.8.5.4.3h.1l.9.3 1 .2 1.5.4h.1l.2.1.8.2h.3l.2.1.5.2.7-.2h.1v.1h.2v.1h1.3Zm.2.1h-.1Zm-15-5.7c-1-.7-1.7-1.5-2.4-2.4a19 19 0 0 0-1.1-.4l1.4 1.7 2 1.1ZM55.6 90h-.3l-.4-.1-.2-.1h-.3v-.1H54v-.1l-1-.2-.5-.2-.9-.2-1.2-.3-1-.3-.4-.1-.9-.3-.8-.2-.6-.2h-.2l-.5-.2-.6-.3.7.5.4.2.8.5.4.3h.1l.9.3 1 .2 1.5.4h.1l.2.1.8.2h.3l.2.1.5.2.7-.2h.1v.1h.2v.1h1.3Zm.2.1h-.1Zm-15-5.7c-1-.7-1.7-1.5-2.4-2.4a19 19 0 0 0-1.1-.4l1.4 1.7 2 1.1ZM55.6 90h-.3l-.4-.1-.2-.1h-.3v-.1H54v-.1l-1-.2-.5-.2-.9-.2-1.2-.3-1-.3-.4-.1-.9-.3-.8-.2-.6-.2h-.2l-.5-.2-.6-.3.7.5.4.2.8.5.4.3h.1l.9.3 1 .2 1.5.4h.1l.2.1.8.2h.3l.2.1.5.2.7-.2h.1v.1h.2v.1h1.3Zm.2.1h-.1Zm-15-5.7c-1-.7-1.7-1.5-2.4-2.4a19 19 0 0 0-1.1-.4l1.4 1.7 2 1.1ZM55.6 90h-.3l-.4-.1-.2-.1h-.3v-.1H54v-.1l-1-.2-.5-.2-.9-.2-1.2-.3-1-.3-.4-.1-.9-.3-.8-.2-.6-.2h-.2l-.5-.2-.6-.3.7.5.4.2.8.5.4.3h.1l.9.3 1 .2 1.5.4h.1l.2.1.8.2h.3l.2.1.5.2.7-.2h.1v.1h.2v.1h1.3Zm.2.1h-.1Zm-15-5.7c-1-.7-1.7-1.5-2.4-2.4a19 19 0 0 0-1.1-.4l1.4 1.7 2 1.1ZM55.6 90h-.3l-.4-.1-.2-.1h-.3v-.1H54v-.1l-1-.2-.5-.2-.9-.2-1.2-.3-1-.3-.4-.1-.9-.3-.8-.2-.6-.2h-.2l-.5-.2-.6-.3.7.5.4.2.8.5.4.3h.1l.9.3 1 .2 1.5.4h.1l.2.1.8.2h.3l.2.1.5.2.7-.2h.1v.1h.2v.1h1.3Zm.2.1h-.1Zm-15-5.7c-1-.7-1.7-1.5-2.4-2.4a19 19 0 0 0-1.1-.4l1.4 1.7 2 1.1ZM55.6 90h-.3l-.4-.1-.2-.1h-.3v-.1H54v-.1l-1-.2-.5-.2-.9-.2-1.2-.3-1-.3-.4-.1-.9-.3-.8-.2-.6-.2h-.2l-.5-.2-.6-.3.7.5.4.2.8.5.4.3h.1l.9.3 1 .2 1.5.4h.1l.2.1.8.2h.3l.2.1.5.2.7-.2h.1v.1h.2v.1h1.3Zm.2.1h-.1Zm-15-5.7c-1-.7-1.7-1.5-2.4-2.4a19 19 0 0 0-1.1-.4l1.4 1.7 2 1.1ZM55.6 90h-.3l-.4-.1-.2-.1h-.3v-.1H54v-.1l-1-.2-.5-.2-.9-.2-1.2-.3-1-.3-.4-.1-.9-.3-.8-.2-.6-.2h-.2l-.5-.2-.6-.3.7.5.4.2.8.5.4.3h.1l.9.3 1 .2 1.5.4h.1l.2.1.8.2h.3l.2.1.5.2.7-.2h.1v.1h.2v.1h1.3Zm.2.1h-.1Zm-15-5.7c-1-.7-1.7-1.5-2.4-2.4a19 19 0 0 0-1.1-.4l1.4 1.7 2 1.1ZM55.6 90h-.3l-.4-.1-.2-.1h-.3v-.1H54v-.1l-1-.2-.5-.2-.9-.2-1.2-.3-1-.3-.4-.1-.9-.3-.8-.2-.6-.2h-.2l-.5-.2-.6-.3.7.5.4.2.8.5.4.3h.1l.9.3 1 .2 1.5.4h.1l.2.1.8.2h.3l.2.1.5.2.7-.2h.1v.1h.2v.1h1.3Zm.2.1h-.1Zm-15-5.7c-1-.7-1.7-1.5-2.4-2.4a19 19 0 0 0-1.1-.4l1.4 1.7 2 1.1ZM55.6 90l-.3-.1-.4-.1h-.2l-.3-.2H54l-1-.3-.5-.2-.9-.2-1.2-.3-1-.3-.4-.1-.9-.2-.8-.3-.6-.2h-.2l-.5-.2-.6-.2.7.4.4.3.8.5.4.2h.1l.9.3 1 .2 1.5.4h.1l.2.1.8.2.3.1h.2l.5.2.7-.1h.1l.2.1H55.7Zm.2 0h-.2.1Zm-15-5.7c-1-.7-1.7-1.5-2.4-2.4a19 19 0 0 0-1.1-.4l1.4 1.7 2 1.1ZM55.6 90l-.3-.1-.4-.1h-.2l-.3-.2H54l-1-.3-.5-.2-.9-.2-1.2-.3-1-.3-.4-.1-.9-.2-.8-.3-.6-.2h-.2l-.5-.2-.6-.2.7.4.4.3.8.5.4.2h.1l.9.3 1 .2 1.5.4h.1l.2.1.8.2.3.1h.2l.5.2.7-.1h.1l.2.1H55.7Zm.2 0h-.2.1Zm-.5-.1-.4-.1h-.2l-.3-.2H54l-1-.3-.5-.2-.9-.2-1.2-.3-1-.3-.4-.1-.9-.2-.8-.3-.6-.2h-.2l-.5-.2-.6-.2-.2-.1-1-.5-.5-.2a17.2 17.2 0 0 1-5.3-4.4l-1-.5a15 15 0 0 0 2 2.5l1.6 1s-.2.2-.4.1l.4.3a91.4 91.4 0 0 1 3.4 2 10.4 10.4 0 0 0 .9.4h.1l.3.1.8.3.6.2.6.2h.1l.9.2 1 .3 1.5.4H51.6l.8.3h.3l.2.1.5.1.3.1.4.1.5.2h.4V90l.2-.1.2-.2Zm0 0-.4-.1h-.2l-.3-.2H54l-1-.3-.5-.2-.9-.2-1.2-.3-1-.3-.4-.1-.9-.2-.8-.3-.6-.2h-.2l-.5-.2-.6-.2-.2-.1-1-.5-.5-.2a17.2 17.2 0 0 1-5.3-4.4l-1-.5a15 15 0 0 0 2 2.5l1.6 1s-.2.2-.4.1l.4.3a91.4 91.4 0 0 1 3.4 2 10.4 10.4 0 0 0 .9.4h.1l.3.1.8.3.6.2.6.2h.1l.9.2 1 .3 1.5.4H51.6l.8.3h.3l.2.1.5.1.3.1.4.1.5.2h.4V90l.2-.1.2-.2Zm0 0-.4-.1h-.2l-.3-.2H54l-1-.3-.5-.2-.9-.2-1.2-.3-1-.3-.4-.1-.9-.2-.8-.3-.6-.2h-.2l-.5-.2-.6-.2-.2-.1-1-.5-.5-.2a17.2 17.2 0 0 1-5.3-4.4l-1-.5a15 15 0 0 0 2 2.5l1.6 1s-.2.2-.4.1l.4.3a91.4 91.4 0 0 1 3.4 2 10.4 10.4 0 0 0 .9.4h.1l.3.1.8.3.6.2.6.2h.1l.9.2 1 .3 1.5.4H51.6l.8.3h.3l.2.1.5.1.3.1.4.1.5.2h.4V90l.2-.1.2-.2Zm0 0"/><path fill="#c39d35" d="M55.9 89.8c-.3-1.8-.1-3.6.1-5.4a74.6 74.6 0 0 0 .3-9l-.4-2.6c0-1.7.2-3.4 1-5 .2-.6.9-1.5.6-2.3l-.3-.4h-.6l-1.4.4c-1 .3-1.8.8-2.7 1.3a4 4 0 0 0-1.7 2c-.4.8-.5 1.7-.5 2.6V74c.3 1.9 1 3.6 1.8 5.3a29 29 0 0 1 2.4 5.4l1 2.9c0 .5.2 1 .4 1.5 0 .3.4.9.1 1.2-.2.4-.7.3-.8-.1-.1-.4.5-.5.6-.1V90l-.3.1v-.2l-.2-.3-.2-.8-.5-1.5-.9-3c-.7-1.8-1.6-3.6-2.5-5.4a15.4 15.4 0 0 1-1.6-7.8c.1-.9.3-1.8.6-2.6.8-1.8 2.7-2.7 4.4-3.3l1.5-.5c.4 0 .8-.2 1.2 0 .9.2 1 1.2.9 1.9l-.6 1.2-.5 1.2a10.2 10.2 0 0 0-.4 5c.2 1 .4 1.9.4 2.8v3l-.3 3.1c-.1 1.8-.5 3.7-.4 5.6l.1 1.3c0 .4-.6.5-.6 0Zm0 0"/><path fill="#c39d35" d="M55.4 90.3H51a28 28 0 0 1-4.3-.7c-2.7-.6-5.5-1.3-8.2-.6-.7.2-1.4.5-2.1 1l-2.1 1.4c-.2 0-.4-.2-.2-.3l2-1.4L38 89a10 10 0 0 1 3.8-.5c2.9.2 5.7 1.2 8.6 1.5 1.7.2 3.4.2 5 .1.3 0 .3.3.1.3Zm0 0"/><path fill="#c39d35" d="M55 90c-2.8.6-5.7.8-8.5.7l-4-.5c-1.3-.1-2.6-.3-4-.2-.7 0-1.4.2-2 .5-.9.3-1.6.8-2.3 1.2-.2.1-.4 0-.2-.2a9.8 9.8 0 0 1 3.8-1.7c1.3-.2 2.6-.1 3.9 0l4 .5a29.2 29.2 0 0 0 9.2-.6c.2 0 .2.3 0 .3Zm0 0"/><path fill="#c39d35" d="M55.8 90a56.8 56.8 0 0 1-7.3-1.2l-2.4-.9-2.5-.6-2.4-.5c-1.5-.1-3 0-4.2.8-1.4.8-2.5 2-3 3.4 0 .2-.4 0-.3 0a7 7 0 0 1 6.3-4.5 36.5 36.5 0 0 1 5 .8c1.7.4 3.3 1.2 5 1.6 2 .4 3.9.6 5.8.8.2 0 .2.4 0 .3ZM57.7 95.9h.4l-.1-.2a12 12 0 0 1-1.8-4.8v-.2c0-.1 0-.2-.1-.1h-.2V91c.1 1 .4 2.1.9 3.2l.8 1.6.1.2ZM56 95.9h.3l-.1-.2a10 10 0 0 1-.4-4.7V90.1h-.2v.1l-.1.2v.5l-.2.6A9.8 9.8 0 0 0 56 96Zm0 0"/><path fill="#c39d35" d="M60.3 95.9h.4l-.2-.2-.6-1c-.6-1.2-1.3-2.4-2.3-3.3a4.2 4.2 0 0 0-.8-.5l-.4-.2h-.2v.2h.1c1 .5 1.7 1.2 2.2 2 .6.8 1 1.6 1.5 2.5 0 0 0 .2.2.3v.2ZM56 90V89.7h-.2v.2h-.1v.2h-.1l-.1.1-.1.2-.2.2-.1.3-.5.8-.2.5c-.3.6-.5 1.2-.5 2v1.6h.4v-.2a6 6 0 0 1 0-2.3l1.1-2.4.1-.1v-.1l.1-.1v-.1h.1v-.1l.1-.2.1-.1V90h.1ZM55 90.4h-.2l-.2.2v.2l-.3.3v.1l-.5.7-.3.6-.8 1a152.8 152.8 0 0 0-1.7 2.2l-.3.2h.5v-.1l.2-.1.8-1 .4-.5.4-.5.8-1.2c0-.2.2-.3.3-.4 0-.2.2-.4.3-.5l.2-.3.2-.4.1-.3c.1 0 .1-.1 0-.2Zm0 0"/><path fill="#c39d35" d="M54.8 91c0-.2-.1-.2-.2-.1-.1 0-.2 0-.3.2l-.1.1-.2.2h-.1l-.3.3-.2.2c-1 .9-2.2 1.7-3.4 2.4l-2.5 1.4-.3.2h.6l.4-.2L51 94a29.7 29.7 0 0 0 2.8-2.2c.2 0 .3-.2.5-.3l.3-.3.2-.1v-.3Zm0 0"/><path fill="#c39d35" d="M53.9 91.3c0-.2-.3-.2-.3 0l-.2.4v.2l-.3.6-.4 1-.4 1.2-.3.6-.2.3v.2h.3l.1-.2.8-2 .5-1.2.1-.3v-.3l.1-.1.1-.2v-.1Zm0 0"/><path fill="#c39d35" d="m53.9 90.8-.2.2a3 3 0 0 1-.4.4A14.9 14.9 0 0 1 49 94l-3.5 1.6-.4.2h.6l.4-.2h.1c2.4-1.3 5.2-2 7.2-3.8l.4-.5.2-.2c.2-.2 0-.4-.1-.3ZM55.2 89.7a8 8 0 0 1-3.8-1.1 27 27 0 0 1-5.8-4L44 82.4l-3-4a19.6 19.6 0 0 0-4.5-3.7c-.1-.1 0-.4.2-.3 3 1.8 5 4.3 7 7 1 1.4 2 2.8 3.2 3.8 1.3 1 2.6 1.9 4 2.7 1.3.7 2.8 1.4 4.3 1.4.3 0 .2.3 0 .3Zm0 0"/><path fill="#c39d35" d="M55.2 89c-.6-.4-1.1-1-1.5-1.7l-1.4-2.2-2.6-4.1a15 15 0 0 0-3.5-3.6 23.8 23.8 0 0 0-9.4-3.3c-.2 0-.2-.2 0-.2 3.1.3 6.2 1.2 8.9 2.8 2.9 1.7 4.7 4.6 6.4 7.4l1.4 2.4c.5.8 1 1.7 1.9 2.2.2.2 0 .4-.2.3Zm0 0"/><path fill="#c39d35" d="M36.8 74c3 .4 5.6 1.9 7.6 4 1.2 1.2 2.2 2.6 3.3 4L51 86c1 1.4 2.4 2.8 4.2 3 .2 0 .2.3 0 .3-1.5-.1-2.7-1-3.7-2l-1.5-2-1.6-2.2-3.3-4c-1-1.3-2.2-2.3-3.5-3.1-1.4-1-3-1.5-4.7-1.7-.2 0-.2-.4 0-.3Zm0 0"/><path fill="#c39d35" d="M54.7 89.5c-1.6 0-3.1-.2-4.6-.7-1.5-.6-3-1.4-4.4-2.2-1.5-.9-2.7-2.1-3.9-3.4a77 77 0 0 1-5.2-6.4c-.4-.6-.8-1.3-.7-2 0-.2.4-.2.3 0 0 .7.3 1.3.7 1.9a55.4 55.4 0 0 0 4.9 6c1 1.2 2.2 2.5 3.6 3.4a36.3 36.3 0 0 0 4.4 2.2c1.6.6 3.2 1 4.9 1 .2 0 .2.2 0 .2ZM55.6 89.2l-.8-5.5c-.3-1.8-.9-3.5-1.2-5.3-.3-1.6-.4-3.3-.4-5 0-1.7.2-3.3.8-4.8a7 7 0 0 1 3.6-3.9v.3l-.5.2c-.2 0-.3-.3-.1-.3l.6-.2c.2 0 .3.2.1.3-3.2 1.4-4.1 5-4.2 8.1 0 1.7.1 3.4.4 5 .3 1.7.9 3.4 1.2 5l.8 6c0 .3-.3.3-.3.1Zm0 0"/><path fill="#c39d35" d="M55.5 88.3c-.4-6.3-.2-12.6.6-18.8.2-1.5.3-3.3 1.7-4.3.1-.1.3.1.2.2-1.2 1-1.3 2.7-1.5 4a118 118 0 0 0-.9 13.6c0 1.8 0 3.5.2 5.2 0 .2-.3.3-.3.1Zm0 0"/><path fill="#c39d35" d="M57.3 65c-1.8.1-3.5 1-4.5 2.4-1.1 1.3-1.6 3-1.7 4.7-.1 1.9.4 3.7 1.1 5.4.8 1.8 2 3.4 2.7 5.2.8 2 1 4.2 1.3 6.3 0 .2-.3.2-.3 0-.3-2-.5-4-1.2-5.9-.7-1.9-2-3.6-2.8-5.5-1.4-3.2-1.8-7.2.4-10.2 1.2-1.5 3-2.6 5-2.7.2 0 .2.3 0 .4ZM61.4 86.1l.2-.4-.2-.4-.2.5-1.2 1.8c-.7.8-1.6 1.4-2.6 1.8l-.4.2-.2.1h-.2l-.1.1h-.2l-.1.2v.1h.5l.3-.1.1-.1a8.3 8.3 0 0 0 4.3-3.8ZM62.4 86.8h.2v-.1l-.2.1Zm0 0"/><path fill="#c39d35" d="M62.8 86.9h-.5v.1l-.2.2-.1.2-.3.3C60.5 89 58.9 90 57 90H56.3l-.1.1v.2h.8c1 0 1.9-.2 2.7-.6a7.2 7.2 0 0 0 2.3-2v-.3l.5-.2.2-.2Zm0 0"/><path fill="#c39d35" d="m62.4 81 .4-.3v-.1l-.2-.1c-.2 0-.3.1-.4.3a3 3 0 0 0-.5.4l-.5.6c-.3.3-.6.7-.8 1.2-1.3 2-1.9 4.6-3.4 6.5l-.2.2-.1.2-.3.2v.1l-.1.2s.2.2.2 0h.1l.1-.1.3-.3.4-.5c.6-.8 1.1-1.7 1.5-2.7.6-1.3 1.2-2.8 2-4a9.7 9.7 0 0 1 1.5-1.9ZM81.8 94.6l-.2-.1-.1-.1c-.1-.1-.3 0-.2.1h.5v.1Zm0 0"/><path fill="#c39d35" d="M82 94.4h.5l-.5-.1H81.7c-.1 0-.1 0 0 .1l.2.2h.5c-.1 0-.2 0-.3-.2ZM87.1 94.5h-.3l-.5.3-.4.1-.3.1h.8l.5-.3.2-.2ZM88.5 93h-.3l-.4.5h.3l.3-.4V93ZM89.1 93H88.8l-.3.6h.2l.3-.4.1-.2ZM89.6 93h-.2l-.2.3-.2.3h.3l.2-.2.1-.3ZM88 94.6h-.3l-.5.5.3.1.5-.6ZM88.4 95l.2-.3h-.2l-.4.4-.1.1h.3l.2-.2Zm0 0"/><g clip-path="url(#a)"><path fill="#c39d35" d="m95.9 94.8-.2-.2-.7-.4-.6-.3h-.1l-.6-.2h-.3l-.2-.1-.4-.1-2.3-.4h-.6v.2l-.1.2-.1.2h.6l1 .2h.7l.7.2h.1l.6.1.3.1.4.1.2.1h.1a3.3 3.3 0 0 1 .6.4h.1v.1H95l-.2.1a3 3 0 0 1-.4 0H92.6l-.5-.1-2.5-.2-.6-.1-.2.3-.2.3h.5l3 .3h.7l.4.1h.6l.4.1h.6l.4-.2.4-.2.2-.2v-.4Zm0 0"/></g><path fill="#c39d35" d="M63.5 89.6h-.1ZM64.7 89.4h-.3l-.3.3h.3l.3-.3ZM65.9 89.6h-.3l-.2.3h.3l.2-.3ZM67 89.9h-.2l-.2.2h.3l.1-.2ZM67.5 90h-.2v.3h.2V90ZM68.5 90.7v-.1l-.2-.3-.3-.1-.3-.1v.3h.1l.2.1c.3 0 .4.1.5.2ZM65.3 90.5h-.2l-.1.3-.6-.5-1-.2h-.2c-.1 0-.2.1 0 .2l.6.2 1.2.3h.2l.1-.3ZM66.6 90.7h-.2l-.1.3h.2l.1-.3ZM67.4 90.8h-.2v.3h.2v-.3ZM68.9 91.4v-.1l-.1-.3H68.2l-.3-.1v.3H68.6l.3.2ZM66.6 92l-.2-.1v-.2h-1.1l-3.2-.6-.4-.2c-.2 0-.3.2-.1.3h.1c1.3.5 2.7.7 4 .8h.7ZM67.5 92v-.3h-.3v.3h.3ZM68.5 92l-.1-.3H68l.1.4h.3ZM69 92v-.3h-.5v.4h.6ZM70.7 91.9h-.1l-.5-.2h-1l.7.2h1ZM67.7 92.9l-.1-.3h-.2l-.7.1h-.3c-.8.1-1.6.2-2.4.1-.7 0-1.4 0-2.2-.2h-.2c-.2 0-.3.3 0 .3h.4l2 .2h2.5l.5-.1h.5l.2-.1ZM68.6 92.7v-.3h-.3v.3h.3ZM69.3 92.6v-.2l-.1-.1h-.5v.4h.2l.4-.1ZM68.4 93.3h-.2L68 93l-.3.1H67.4l-.6.3c-1.5.3-3 .3-4.4.7-.2 0 0 .4.1.3 1.4-.4 2.9-.4 4.3-.7h.2l.8-.3.6-.2ZM68.8 93.2V93l-.1-.2-.3.1v.2l.1.1h.3Zm0 0"/><path fill="#c39d35" d="M69.5 93v-.2l-.2-.2a4 4 0 0 1-.4.2V93h.3l.3-.2ZM67.3 89.3V89l-.1-.1v.2h.1ZM67.7 89.2l-.2-.1-.1.3.2.1v-.3ZM68 89.7v-.2l-.2-.2v.3l.2.1ZM81.8 94.2h-.1ZM87.1 94.5h-.3l-.5.3-.4.1.5.1a3.8 3.8 0 0 0 .7-.5ZM88 94.6h-.3l-.5.5h.3l.5-.5ZM88.6 94.7h-.2a4 4 0 0 1-.5.5h.3l.2-.3.2-.2ZM94.1 95.5c0-.2-.1-.3-.3-.3h-.5l-.7-.1h-.4l-2.6-.3h-.5l-.2.2-.2.3h.5l2.6.3.8.1h.6l.4.1h.2l.2-.1.1-.2ZM87.9 93.8H87.6l-.6.5h.3l.6-.5ZM88.6 93.9h-.3l-.4.5h.3l.4-.5ZM89.1 94l-.2-.1a6 6 0 0 1-.4.6h.2l.4-.6ZM92.2 94.4h-.3l-.8-.2c-.3 0-.7 0-1-.2h-.6l-.1.3-.2.3h.6l2.2.4h.2l.2-.2c0-.2 0-.4-.2-.4Zm0 0"/><g clip-path="url(#b)"><path fill="#c39d35" d="M95.9 59.4v-.2h-.1l-.1-.4v-.2l-.1-.4v-2.4l.3-.9v-2l-.3.6v.3l-.1.1-.2.7V54.9l-.3.9v.5l-.1.8v1.3l.1.5.2.4v.1l.1.2v.2h.1v.1l.1.1h.1c0 .1.1 0 .2 0h.1v-.1Zm0 0"/></g><g clip-path="url(#c)"><path fill="#c39d35" d="M95.9 57.8v-.5l-.1-.2v-.2l-.2-.4v-.2c0-.4-.2-.7-.3-1v-.4l-.2-.5-.1-.3-.1-.4v-.1c-.3-.7-.5-1.3-.5-2v-1l.1-.2V50l.1-.2.2-.7v-.1l.2-.2c0-.2 0-.3-.2-.3H94.5l-.2.1v.5c-.2.3-.3.5-.3.8l-.2.7v.7c0 1 .3 1.8.5 2.7l.2.5.4 1.7.1.3.1.5v.1l.2.5V59.2l-.1.3v.2c-.2 0-.1.2 0 .3l.2.1h.2v-.1l.1-.2v-.2h.1v-1.7Zm0 0"/></g><g clip-path="url(#d)"><path fill="#c39d35" d="M95.9 60v-.6l-.2-.1V59h-.1V59l-.2-.2v-.1l-.1-.1v-.1c-.2-.2-.3-.3-.3-.5l-.2-.4-.7-1.5-.2-.5-2-4.8-.5-1.5v-.1l-.3-.8-.2-.5c-.1-.2-.3-.2-.5-.2 0 0-.2.2-.1.3v.1l.5 1.3 1.4 3.7.5 1.3.4.8a33.6 33.6 0 0 0 1.5 3.4l.3.5.1.3.1.1a10.6 10.6 0 0 0 .3.4l.1.2h.1v.1h.3V60Zm0 0"/></g><g clip-path="url(#e)"><path fill="#c39d35" d="M95.9 60v-.2l-.1-.1h-.1v-.1h-.2v-.1h-.2v-.1c-.2 0-.3-.1-.3-.2l-.4-.3a8.1 8.1 0 0 1-1.8-2.8l-1-2.2-.2-.3a17 17 0 0 0-2.6-3l-.6-.7c-.1-.1-.3-.1-.4 0-.1 0-.2.3 0 .5l.5.5c1 1 2 2 2.6 3.3l1.3 2.5a61.6 61.6 0 0 0 1 1.8l.5.6.3.3a3.7 3.7 0 0 0 1 .7h.6l.1-.2Zm0 0"/></g><g clip-path="url(#f)"><path fill="#c39d35" d="m96 57.3-.1.1v-1.1l-.1.4v.2l-.2.5V60l.1.2h.1V57.6l.1-.3Zm0 0"/></g><path fill="#c39d35" d="M91.8 48.4a1 1 0 0 1-1 1 1 1 0 0 1-.8-.3 1 1 0 0 1-.2-.3 1 1 0 0 1 1-1.4 1 1 0 0 1 .9.6v.4Zm0 0"/><g clip-path="url(#g)"><path fill="#c39d35" d="M95.4 49.1a1 1 0 0 1-1 1 1 1 0 0 1-1-.6 1 1 0 0 1 0-.8 1 1 0 0 1 .6-.5l.3-.1a1 1 0 0 1 1 .6v.4Zm0 0"/></g><path fill="#c39d35" d="M89 50v.4a1 1 0 0 1-.5.5 1 1 0 0 1-1.3-.5 1 1 0 0 1 0-.8l.1-.3.4-.2a1 1 0 0 1 1.3.5v.4Zm0 0"/><g clip-path="url(#h)"><path fill="#c39d35" d="M96 74.7h-.1v-1l-.3.3v.2l-.4.4.1.1h.1v.1a9.7 9.7 0 0 1 .2.3l.1-.1v-.1l.1-.1h.1Zm0 0"/></g><g clip-path="url(#i)"><path fill="#c39d35" d="m95.7 65.9-.3.3v.2a5 5 0 0 1-1.2 1l-.5.2-.3.2-.8-.3.7-.4c.7-.4 1.3-.8 1.7-1.4l.6-1.2v-.1l.2-.3v-.3h.1v1.7l-.2.4Zm0 0"/></g><g clip-path="url(#j)"><path fill="#c39d35" d="M95.9 62v-1.2h-.2v-.1h-.2v-.1l-.2-.1H95c0-.2 0-.2-.2-.3h-.3L94 60l-.5-.1c-1-.2-2.1-.3-3.2-.2H90c-1.4 0-2.8.3-4.1.6-1.2.4-2.4.9-3.3 1.7l-.1.2-.3.2.8.2.4-.4c.6-.5 1.3-.9 2-1.1a17.8 17.8 0 0 1 9-.4s.1.2.3.2h.2l.3.1.3.2.1.2h.1l.2.4Zm0 0"/></g><g clip-path="url(#k)"><path fill="#c39d35" d="M95.9 60V59.6l-.1.1-.1.1v.2l-.1.1V64.7l.3.4v-5Zm0 0"/></g><g clip-path="url(#l)"><path fill="#c39d35" d="M95.9 59.3v-.1h-.2l-.2.1-.1.2v.3l.2.1h.2v-.5Zm0 0"/></g><g clip-path="url(#m)"><path fill="#c39d35" d="m96 58.3-.1-.3v-.2V60v-1.6Zm0 0"/></g><g clip-path="url(#n)"><path fill="#c39d35" d="M95.9 38.7V38l-.3.1-.2.1-.1.1-.5.3-.2.3-.2.1-.4.4-.1.1-.2.3-.2.2-.4.7-.1.1-.1.1v.1l-.1.2-.3.4v.2c-.2.2-.2.5-.3.8V44l.1.2v.2h.1c0 .2.1.2.2.3l.4-.1v-.4l-.1-.4-.1-.7V42.6l.5-1.2.2-.2V41l.6-.8.4-.6a5.7 5.7 0 0 1 1-.8l.2-.2c0 .1.1 0 .2 0Zm0 0"/></g><g clip-path="url(#o)"><path fill="#c39d35" d="M92.6 44.8v-.3l-.1-.4V44h-.1v.1l-.2-.3-.1.2-.4-1.3-.2-.4-.6-.7-.6-.6a13.4 13.4 0 0 0-4.4-3l.7 1 1 .6A14.7 14.7 0 0 1 92 44l.1.2.1.1c0 .1 0 .2.2.2v.1l.2.2Zm-.1-.7V44h-.1v.1l-.2-.3-.1.2-.4-1.3-.2-.4-.6-.7-.6-.6a13.4 13.4 0 0 0-4.4-3l.7 1 1 .6A14.7 14.7 0 0 1 92 44l.1.2.1.1c0 .1 0 .2.2.2v.1-.5Zm0 0V44h-.1v.1l-.2-.3-.1.2-.4-1.3-.2-.4-.6-.7-.6-.6a13.4 13.4 0 0 0-4.4-3l.7 1 1 .6A14.7 14.7 0 0 1 92 44l.1.2.1.1c0 .1 0 .2.2.2v.1-.5Zm0 0V44h-.1v.1l-.2-.3-.1.2-.4-1.3-.2-.4-.6-.7-.6-.6a13.4 13.4 0 0 0-4.4-3l.7 1 1 .6A14.7 14.7 0 0 1 92 44l.1.2.1.1c0 .1 0 .2.2.2v.1-.5Zm3 15.5h-.1v.1h.1Zm0 .3v-.1.2-.1Zm-.2-4v-1.1l-.1-.5V54l-.1-.3v-.2l-.1-.3-.3-1v.9l.1.4.2 2.3.1.8v.6l.1.9v.4-.7l.1-.4v-1.5Zm-.5-6.7-.1-.7-.1-.4-.1-.3-1-2.5-.3-.5v-.1l-.2.1v-.4l-.2-.3-.2.4v.1l-.1-.2v-.3l-.1-.2v.1l-.2-.4-.2.3-.3-1.3-.2-.4-.6-.7-.7-.7a12.6 12.6 0 0 0-4.4-2.9l.8 1 1 .6A14.7 14.7 0 0 1 92 44v.2l.2.1.1.2v.1l.3.3v.2l.3.5v.1l.2.2a13.6 13.6 0 0 1 .7 1.7l.1.6.3 1 .2.9v.5l.1-.2v-.1l.1-.2v-.3l.2-.6Zm.7 10.4h-.1v.1h.1Zm0 .3v-.1.2-.1Zm-.2-4v-1.1l-.1-.5V54l-.1-.3v-.2l-.1-.3-.3-1v.9l.1.4.2 2.3.1.8v.6l.1.9v.4-.7l.1-.4v-1.5Zm-.5-6.7-.1-.7-.1-.4-.1-.3-1-2.5-.3-.5v-.1l-.2.1v-.4l-.2-.3-.2.4v.1l-.1-.2v-.3l-.1-.2v.1l-.2-.4-.2.3-.3-1.3-.2-.4-.6-.7-.7-.7a12.6 12.6 0 0 0-4.4-2.9l.8 1 1 .6A14.7 14.7 0 0 1 92 44v.2l.2.1.1.2v.1l.3.3v.2l.3.5v.1l.2.2a13.6 13.6 0 0 1 .7 1.7l.1.6.3 1 .2.9v.5l.1-.2v-.1l.1-.2v-.3l.2-.6Zm.7 10.4h-.1v.1h.1Zm0 .3v-.1.2-.1Zm-.2-4v-1.1l-.1-.5V54l-.1-.3v-.2l-.1-.3-.3-1v.9l.1.4.2 2.3.1.8v.6l.1.9v.4-.7l.1-.4v-1.5Zm-.5-6.7-.1-.7-.1-.4-.1-.3-1-2.5-.3-.5v-.1l-.2.1v-.4l-.2-.3-.2.4v.1l-.1-.2v-.3l-.1-.2v.1l-.2-.4-.2.3-.3-1.3-.2-.4-.6-.7-.7-.7a12.6 12.6 0 0 0-4.4-2.9l.8 1 1 .6A14.7 14.7 0 0 1 92 44v.2l.2.1.1.2v.1l.3.3v.2l.3.5v.1l.2.2a13.6 13.6 0 0 1 .7 1.7l.1.6.3 1 .2.9v.5l.1-.2v-.1l.1-.2v-.3l.2-.6Zm.7 10.4h-.1v.1h.1Zm0 .3v-.1.2-.1Zm-.2-4v-1.1l-.1-.5V54l-.1-.3v-.2l-.1-.3-.3-1v.9l.1.4.2 2.3.1.8v.6l.1.9v.4-.7l.1-.4v-1.5Zm-.5-6.7-.1-.7-.1-.4-.1-.3-1-2.5-.3-.5v-.1l-.2.1v-.4l-.2-.3-.2.4v.1l-.1-.2v-.3l-.1-.2v.1l-.2-.4-.2.3-.3-1.3-.2-.4-.6-.7-.7-.7a12.6 12.6 0 0 0-4.4-2.9l.8 1 1 .6A14.7 14.7 0 0 1 92 44v.2l.2.1.1.2v.1l.3.3v.2l.3.5v.1l.2.2a13.6 13.6 0 0 1 .7 1.7l.1.6.3 1 .2.9v.5l.1-.2v-.1l.1-.2v-.3l.2-.6Zm.7 10.4h-.1v.1h.1Zm0 .3v-.1.2-.1Zm-.2-4v-1.1l-.1-.5V54l-.1-.3v-.2l-.1-.3-.3-1v.9l.1.4.2 2.3.1.8v.6l.1.9v.4-.7l.1-.4v-1.5Zm-.5-6.7-.1-.7-.1-.4-.1-.3-1-2.5-.3-.5v-.1l-.2.1v-.4l-.2-.3-.2.4v.1l-.1-.2v-.3l-.1-.2v.1l-.2-.4-.2.3-.3-1.3-.2-.4-.6-.7-.7-.7a12.6 12.6 0 0 0-4.4-2.9l.8 1 1 .6A14.7 14.7 0 0 1 92 44v.2l.2.1.1.2v.1l.3.3v.2l.3.5v.1l.2.2a13.6 13.6 0 0 1 .7 1.7l.1.6.3 1 .2.9v.5l.1-.2v-.1l.1-.2v-.3l.2-.6Zm.7 10.4h-.1v.1h.1Zm0 .3v-.1.2-.1Zm-.2-4v-1.1l-.1-.5V54l-.1-.3v-.2l-.1-.3-.3-1v.9l.1.4.2 2.3.1.8v.6l.1.9v.4-.7l.1-.4v-1.5Zm-.5-6.7-.1-.7-.1-.4-.1-.3-1-2.5-.3-.5v-.1l-.2.1v-.4l-.2-.3-.2.4v.1l-.1-.2v-.3l-.1-.2v.1l-.2-.4-.2.3-.3-1.3-.2-.4-.6-.7-.7-.7a12.6 12.6 0 0 0-4.4-2.9l.8 1 1 .6A14.7 14.7 0 0 1 92 44v.2l.2.1.1.2v.1l.3.3v.2l.3.5v.1l.2.2a13.6 13.6 0 0 1 .7 1.7l.1.6.3 1 .2.9v.5l.1-.2v-.1l.1-.2v-.3l.2-.6Zm.7 10.4h-.1v.1h.1Zm0 .3v-.1.2-.1Zm-.2-4v-1.1l-.1-.5V54l-.1-.3v-.2l-.1-.3-.3-1v.9l.1.4.2 2.3.1.8v.6l.1.9v.4-.7l.1-.4v-1.5Zm-.5-6.7-.1-.7-.1-.4-.1-.3-1-2.5-.3-.5v-.1l-.2.1v-.4l-.2-.3-.2.4v.1l-.1-.2v-.3l-.1-.2v.1l-.2-.4-.2.3-.3-1.3-.2-.4-.6-.7-.7-.7a12.6 12.6 0 0 0-4.4-2.9l.8 1 1 .6A14.7 14.7 0 0 1 92 44v.2l.2.1.1.2v.1l.3.3v.2l.3.5v.1l.2.2a13.6 13.6 0 0 1 .7 1.7l.1.6.3 1 .2.9v.5l.1-.2v-.1l.1-.2v-.3l.2-.6Zm.7 10.4h-.1v.1h.1Zm0 .3v-.1.2-.1Zm-.2-4v-1.1l-.1-.5V54l-.1-.3v-.2l-.1-.3-.3-1v.9l.1.4.2 2.3.1.8v.6l.1.9v.4-.7l.1-.4v-1.5Zm-.5-6.7-.1-.7-.1-.4-.1-.3-1-2.5-.3-.5v-.1l-.2.1v-.4l-.2-.3-.2.4v.1l-.1-.2v-.3l-.1-.2v.1l-.2-.4-.2.3-.3-1.3-.2-.4-.6-.7-.7-.7a12.6 12.6 0 0 0-4.4-2.9l.8 1 1 .6A14.7 14.7 0 0 1 92 44v.2l.2.1.1.2v.1l.3.3v.2l.3.5v.1l.2.2a13.6 13.6 0 0 1 .7 1.7l.1.6.3 1 .2.9v.5l.1-.2v-.1l.1-.2v-.3l.2-.6Zm.7 10.8Zm0-.2h-.1Zm-.2-2-.1-.6v1-.3Zm-2.9-13.5v-.4.1l-.2-.3-.1.2-.4-1.3-.2-.4-.6-.7-.6-.6a13.4 13.4 0 0 0-4.4-3l.7 1 1 .6A14.7 14.7 0 0 1 92 44l.1.2.1.1c0 .1 0 .2.2.2v.1-.4Zm3.1 15.3h-.1v.1h.1Zm0 .4Zm-.2-4.1v-1l-.2-.5-.1-.3-.1-.4v-.2l.1 2.3.1.8v.6l.1.9v-.3l.1-1.9Zm-2.7-11v-.4l-.2-.2V44l-.2-.3-.1.2-.4-1.2-.2-.4-.6-.7-.6-.7a13.4 13.4 0 0 0-4.4-3l.7 1 1 .6a14.7 14.7 0 0 1 4.4 4.6l.1.1.1.1c0 .1 0 .2.2.3l.2.2Zm3 14.7h-.2v.1h.1Zm-.1.4Zm-.2-4.1v-1l-.2-.5-.1-.3-.1-.4v-.2l.1 2.3.1.8v.6l.1.9v-.3l.1-1.9Zm-2.7-11v-.4l-.2-.2V44l-.2-.3-.1.2-.4-1.2-.2-.4-.6-.7-.6-.7a13.4 13.4 0 0 0-4.4-3l.7 1 1 .6a14.7 14.7 0 0 1 4.4 4.6l.1.1.1.1c0 .1 0 .2.2.3l.2.2Zm3 14.7h-.2v.1h.1v-.1Zm-.3-1.8v-2.9l-.2-.5-.1-.3-.1-.4v-.2l.1 2.3.1.8v.6l.1.9v-.3Zm-2.9-13.1.2.1v-.3l-.2-.2V44l-.2-.3-.1.2-.4-1.2-.2-.4-.6-.7-.6-.7a13.4 13.4 0 0 0-4.4-3l.7 1 1 .6a14.7 14.7 0 0 1 4.4 4.6l.1.1.1.1c0 .1 0 .2.2.3ZM96 58.4v-.7l-.1-.1v-.8l-.2-1v-1.9l-.4-2.5a19.3 19.3 0 0 0-.3-1.8v-.4l-.2-.7-.1-.4-.1-.3-1-2.6-.3-.4v-.2l-.2-.1v-.1l-.2-.3-.2-.4-.2-.1v-.2l-.2-.1V43l-.6-.7-.1-.1-.6-.7-.7-.7a12.6 12.6 0 0 0-5.3-3.1h-.3c-2 0-3 1.7-3.5 3.4l-.6 2.8c0 1 0 2 .3 2.8.5 2 1.3 3.9 2.8 5.3l2.6 2 2.6 2 .9.6 2.7 2.2h.2l.3.3.4.3.2.1.4.4h.2l.1.2c.2 0 .4.2.5.3l.4.2.2.1.2.1h.4v-2.6Zm-2-10.2.3 1 .2 1v.4l.3 1.6v.9l.1.4.2 2.3.1.8v.6l.1.9v.4l.1.4V60l-.2-.2h-.2l-.2-.2-.4-.3-.5-.4-1-.8-2.1-1.5-4.8-3.7c-.8-.6-1.6-1.2-2.3-2a8 8 0 0 1-1.6-2.3 9.7 9.7 0 0 1-.3-7.8 5.7 5.7 0 0 1 .9-1.7l.1-.1.2-.2.2-.2.2-.1.5-.2.6-.1 1 .1 1.1.5 1 .6a14.7 14.7 0 0 1 4.4 4.5l.1.1.1.2.2.2.2.4v.1l.4.6v.2l.2.3c0 .2.2.3.3.5 0 .4.2.7.3 1l.2.6Zm-1.3-3.4v-.3l-.2-.2V44l-.2-.3-.1.2-.4-1.2-.2-.4-.6-.7-.6-.7a13.4 13.4 0 0 0-4.4-3l.7 1 1 .6a14.7 14.7 0 0 1 4.4 4.6l.1.1.1.1c0 .1 0 .2.2.3l.2.2ZM95.3 56v-1l-.2-.5-.1-.3-.1-.4v-.2l.1 2.3.1.8v.6l.1.9v-.3l.1-1.9Zm.2 3.7h-.1v.1h.1v-.1Zm-3-14.8v-.5l-.1-.2V44l-.2-.3-.1.2-.4-1.2-.2-.4-.6-.7-.6-.7a13.4 13.4 0 0 0-4.4-3l.7 1 1 .6a14.7 14.7 0 0 1 4.4 4.6l.1.1.1.1c0 .1 0 .2.2.3l.2.2ZM95.4 56v-1l-.2-.5-.1-.3-.1-.4v-.2l.1 2.3.1.8v.6l.1.9v-.3l.1-1.9Zm.2 4v.1Zm0-.3h-.1v.1h.1Zm-3-14.8v-.5l-.1-.2V44l-.2-.3-.1.2-.4-1.2-.2-.4-.6-.7-.6-.7a13.4 13.4 0 0 0-4.4-3l.7 1 1 .6a14.7 14.7 0 0 1 4.4 4.6l.1.1.1.1c0 .1 0 .2.2.3l.2.2ZM95.4 56v-1l-.2-.5-.1-.3-.1-.4v-.2l.1 2.3.1.8v.6l.1.9v-.3l.1-1.9Zm.2 4v.1Zm0-.3h-.1v.1h.1Zm-.7-10.4-.1-.7-.1-.4-.1-.3-1-2.5-.3-.5v-.1l-.2.1v-.4l-.2-.3-.2.4v.1l-.1-.2v-.3l-.1-.2v.1l-.2-.4-.2.3-.3-1.3-.2-.4-.6-.7-.7-.7a12.6 12.6 0 0 0-4.4-2.9l.8 1 1 .6A14.7 14.7 0 0 1 92 44v.2l.2.1.1.2v.1l.3.3v.2l.3.5v.1l.2.2a13.6 13.6 0 0 1 .7 1.7l.1.6.3 1 .2.9v.5l.1-.2v-.1l.1-.2v-.3l.2-.6Zm.5 6.7v-1.1l-.1-.5V54l-.1-.3v-.2l-.1-.3-.3-1v.9l.1.4.2 2.3.1.8v.6l.1.9v.4-.7l.1-.4v-1.5Zm.2 4v-.1.2-.1Zm0-.3h-.1v.1h.1Zm-.7-10.4-.1-.7-.1-.4-.1-.3-1-2.5-.3-.5v-.1l-.2.1v-.4l-.2-.3-.2.4v.1l-.1-.2v-.3l-.1-.2v.1l-.2-.4-.2.3-.3-1.3-.2-.4-.6-.7-.7-.7a12.6 12.6 0 0 0-4.4-2.9l.8 1 1 .6A14.7 14.7 0 0 1 92 44v.2l.2.1.1.2v.1l.3.3v.2l.3.5v.1l.2.2a13.6 13.6 0 0 1 .7 1.7l.1.6.3 1 .2.9v.5l.1-.2v-.1l.1-.2v-.3l.2-.6Zm.5 6.7v-1.1l-.1-.5V54l-.1-.3v-.2l-.1-.3-.3-1v.9l.1.4.2 2.3.1.8v.6l.1.9v.4-.7l.1-.4v-1.5Zm.2 4v-.1.2-.1Zm0-.3h-.1v.1h.1Zm-.7-10.4-.1-.7-.1-.4-.1-.3-1-2.5-.3-.5v-.1l-.2.1v-.4l-.2-.3-.2.4v.1l-.1-.2v-.3l-.1-.2v.1l-.2-.4-.2.3-.3-1.3-.2-.4-.6-.7-.7-.7a12.6 12.6 0 0 0-4.4-2.9l.8 1 1 .6A14.7 14.7 0 0 1 92 44v.2l.2.1.1.2v.1l.3.3v.2l.3.5v.1l.2.2a13.6 13.6 0 0 1 .7 1.7l.1.6.3 1 .2.9v.5l.1-.2v-.1l.1-.2v-.3l.2-.6Zm.5 6.7v-1.1l-.1-.5V54l-.1-.3v-.2l-.1-.3-.3-1v.9l.1.4.2 2.3.1.8v.6l.1.9v.4-.7l.1-.4v-1.5Zm.2 4v-.1.2-.1Zm0-.3h-.1v.1h.1Zm-.7-10.4-.1-.7-.1-.4-.1-.3-1-2.5-.3-.5v-.1l-.2.1v-.4l-.2-.3-.2.4v.1l-.1-.2v-.3l-.1-.2v.1l-.2-.4-.2.3-.3-1.3-.2-.4-.6-.7-.7-.7a12.6 12.6 0 0 0-4.4-2.9l.8 1 1 .6A14.7 14.7 0 0 1 92 44v.2l.2.1.1.2v.1l.3.3v.2l.3.5v.1l.2.2a13.6 13.6 0 0 1 .7 1.7l.1.6.3 1 .2.9v.5l.1-.2v-.1l.1-.2v-.3l.2-.6Zm.5 6.7v-1.1l-.1-.5V54l-.1-.3v-.2l-.1-.3-.3-1v.9l.1.4.2 2.3.1.8v.6l.1.9v.4-.7l.1-.4v-1.5Zm.2 4v-.1.2-.1Zm0-.3h-.1v.1h.1Zm-.7-10.4-.1-.7-.1-.4-.1-.3-1-2.5-.3-.5v-.1l-.2.1v-.4l-.2-.3-.2.4v.1l-.1-.2v-.3l-.1-.2v.1l-.2-.4-.2.3-.3-1.3-.2-.4-.6-.7-.7-.7a12.6 12.6 0 0 0-4.4-2.9l.8 1 1 .6A14.7 14.7 0 0 1 92 44v.2l.2.1.1.2v.1l.3.3v.2l.3.5v.1l.2.2a13.6 13.6 0 0 1 .7 1.7l.1.6.3 1 .2.9v.5l.1-.2v-.1l.1-.2v-.3l.2-.6Zm.5 6.7v-1.1l-.1-.5V54l-.1-.3v-.2l-.1-.3-.3-1v.9l.1.4.2 2.3.1.8v.6l.1.9v.4-.7l.1-.4v-1.5Zm.2 4v-.1.2-.1Zm0-.3h-.1v.1h.1Zm-.7-10.4-.1-.7-.1-.4-.1-.3-1-2.5-.3-.5v-.1l-.2.1v-.4l-.2-.3-.2.4v.1l-.1-.2v-.3l-.1-.2v.1l-.2-.4-.2.3-.3-1.3-.2-.4-.6-.7-.7-.7a12.6 12.6 0 0 0-4.4-2.9l.8 1 1 .6A14.7 14.7 0 0 1 92 44v.2l.2.1.1.2v.1l.3.3v.2l.3.5v.1l.2.2a13.6 13.6 0 0 1 .7 1.7l.1.6.3 1 .2.9v.5l.1-.2v-.1l.1-.2v-.3l.2-.6Zm.5 6.7v-1.1l-.1-.5V54l-.1-.3v-.2l-.1-.3-.3-1v.9l.1.4.2 2.3.1.8v.6l.1.9v.4-.7l.1-.4v-1.5Zm.2 4v-.1.2-.1Zm0-.3h-.1v.1h.1Zm-.7-10.4-.1-.7-.1-.4-.1-.3-1-2.5-.3-.5v-.1l-.2.1v-.4l-.2-.3-.2.4v.1l-.1-.2v-.3l-.1-.2v.1l-.2-.4-.2.3-.3-1.3-.2-.4-.6-.7-.7-.7a12.6 12.6 0 0 0-4.4-2.9l.8 1 1 .6A14.7 14.7 0 0 1 92 44v.2l.2.1.1.2v.1l.3.3v.2l.3.5v.1l.2.2a13.6 13.6 0 0 1 .7 1.7l.1.6.3 1 .2.9v.5l.1-.2v-.1l.1-.2v-.3l.2-.6Zm.5 6.7v-1.1l-.1-.5V54l-.1-.3v-.2l-.1-.3-.3-1v.9l.1.4.2 2.3.1.8v.6l.1.9v.4-.7l.1-.4v-1.5Zm.2 4v-.1.2-.1Zm0-.3h-.1v.1h.1Zm-.7-10.4-.1-.7-.1-.4-.1-.3-1-2.5-.3-.5v-.1l-.2.1v-.4l-.2-.3-.2.4v.1l-.1-.2v-.3l-.1-.2v.1l-.2-.4-.2.3-.3-1.3-.2-.4-.6-.7-.7-.7a12.6 12.6 0 0 0-4.4-2.9l.8 1 1 .6A14.7 14.7 0 0 1 92 44v.2l.2.1.1.2v.1l.3.3v.2l.3.5v.1l.2.2a13.6 13.6 0 0 1 .7 1.7l.1.6.3 1 .2.9v.5l.1-.2v-.1l.1-.2v-.3l.2-.6Zm.5 6.7v-1.1l-.1-.5V54l-.1-.3v-.2l-.1-.3-.3-1v.9l.1.4.2 2.3.1.8v.6l.1.9v.4-.7l.1-.4v-1.5Zm.2 4v-.1.2-.1Zm0-.3h-.1v.1h.1Zm-3-15.5V44h-.1v.1l-.2-.3-.1.2-.4-1.3-.2-.4-.6-.7-.6-.6a13.4 13.4 0 0 0-4.4-3l.7 1 1 .6A14.7 14.7 0 0 1 92 44l.1.2.1.1c0 .1 0 .2.2.2v.1-.5Zm0 0V44h-.1v.1l-.2-.3-.1.2-.4-1.3-.2-.4-.6-.7-.6-.6a13.4 13.4 0 0 0-4.4-3l.7 1 1 .6A14.7 14.7 0 0 1 92 44l.1.2.1.1c0 .1 0 .2.2.2v.1-.5Zm0 0V44h-.1v.1l-.2-.3-.1.2-.4-1.3-.2-.4-.6-.7-.6-.6a13.4 13.4 0 0 0-4.4-3l.7 1 1 .6A14.7 14.7 0 0 1 92 44l.1.2.1.1c0 .1 0 .2.2.2v.1-.5Zm0 .7V44h-.1v.1l-.2-.3-.1.2-.4-1.3-.2-.4-.6-.7-.6-.6a13.4 13.4 0 0 0-4.4-3l.7 1 1 .6A14.7 14.7 0 0 1 92 44l.1.2.1.1c0 .1 0 .2.2.2v.1l.2.2Zm0 0V44h-.1v.1l-.2-.3-.1.2-.4-1.3-.2-.4-.6-.7-.6-.6a13.4 13.4 0 0 0-4.4-3l.7 1 1 .6A14.7 14.7 0 0 1 92 44l.1.2.1.1c0 .1 0 .2.2.2v.1l.2.2Zm0 0"/></g><g clip-path="url(#p)"><path fill="#c39d35" d="M95.9 60v-.6h-.5v.1h-.2l-.2-.1-.1-.1-.3-.1-.3-.2-.2-.1-.6-.3-.6-.3-2.8-1.4-.4-.2-4.6-3.1a16.1 16.1 0 0 0-7.7-2.9c-.8 0-1.8 0-2.6.2-2 .4-3.2 2-4.2 3.7l-.7 1.2c-.2.4-.4.8-.3 1.3.2.8 1 1.1 1.8 1l1.3-.2 1.3-.3a11 11 0 0 1 5.1.4l2.8 1 3 .3 3.1.4h2a23 23 0 0 1 5.1.8h.2v-.2H95.7l.1-.1h.1V60Zm-3.1-1 .3.2h.2l.6.3.3.2-.4-.1a3 3 0 0 0-.4 0v-.1H93l-.5-.1-1-.1-1.7-.2a89.8 89.8 0 0 1-9-1.2l-2-.6-.7-.2a11.8 11.8 0 0 0-5 0c-.7.1-1.6.6-2.2.4l-.3-.1v-.1l-.3-.2v-.4l.1-.3v-.1l.5-1 .1-.2a16 16 0 0 1 1.8-2.4c.6-.7 1.4-1.1 2.3-1.3.9-.2 1.8-.1 2.7 0a14.6 14.6 0 0 1 7.6 3.1l2.4 1.7a29 29 0 0 0 5 2.8Zm0 0"/></g><g fill="#c39d35" clip-path="url(#q)"><path d="m96 57.3-.1.2v.2l-.2.9v.4l-.1.1V59.7h.2v-.5h.1V57.3Zm0 0"/><path d="m96 57.3-.1.1v.2l-.2.4-.1.2-.2.6-.1.2v.2h.2V59l.1-.2v-.1l.2-.3v-.9l.1-.3Zm0 0"/></g><g clip-path="url(#r)"><path fill="#c39d35" d="M95.9 41.8v-.6l-.3.3a6 6 0 0 0-1 2.5c-.2.8-.2 1.7-.2 2.5a30.5 30.5 0 0 0 .1 1.6v.9l.2.9v.2c.2 1.3.5 2.6.6 4V59.4l-.1.2V59.9l.1.2h.1v-.7l.1-.2V58l.1-1.6v-2.7l-.2-1-.2-1.4-.2-1.2v-.6l-.2-.5v-3.9c0-1.1.3-2.1.8-3l.3-.4Zm0 0"/></g><g fill="#c39d35" clip-path="url(#s)"><path d="M95.9 60v-.2h-.2v.2h.2Zm0 0"/><path d="M95.9 60v-.4h-.2v.1H95.3v.1h-.2V60.2h.4l.3-.2Zm0 0"/></g><g clip-path="url(#t)"><path fill="#c39d35" d="M95.2 59.3c.2-1.3 0-2.6-.4-3.9a29.9 29.9 0 0 0-3.1-6.3l-1.8-1.9a46.4 46.4 0 0 1-3.5-3.6 19.3 19.3 0 0 1-3-5c0-.1-.3 0-.2.2 1.3 3 3.4 5.6 5.8 8 1.2 1.2 2.4 2.3 3.3 3.8.8 1.3 1.4 2.8 2 4.2.5 1.4.9 3 .6 4.5 0 .2.2.2.3 0Zm0 0"/></g><path fill="#c39d35" d="M94.5 59.2c-.3-.7-.8-1.3-1.4-1.8l-2-1.6-3.7-3.3a15 15 0 0 1-3-4 21.5 21.5 0 0 1-1.6-9.7c0-.1-.3-.2-.3 0-.2 3 .2 6.3 1.3 9.1 1.3 3.1 3.8 5.3 6.4 7.4l2.2 1.9c.7.6 1.5 1.2 1.8 2.1.1.2.4 0 .3-.1Zm0 0"/><path fill="#c39d35" d="M82.7 38.8c-.2 3 .9 5.7 2.6 8 1 1.4 2.3 2.7 3.4 4l3.7 3.7c1.2 1.3 2.4 2.8 2.2 4.6 0 .2.2.2.3 0 .1-1.4-.6-2.8-1.5-3.8l-1.7-1.9-1.8-2-3.6-3.8c-1-1.2-1.9-2.5-2.5-4a11 11 0 0 1-.8-4.8c0-.1-.3-.2-.3 0Zm0 0"/><g clip-path="url(#u)"><path fill="#c39d35" d="M95.2 58.8c.2-1.5.2-3 0-4.6-.3-1.6-.9-3.1-1.5-4.7s-1.6-2.9-2.7-4.2a63 63 0 0 0-3.5-4l-2-2.2c-.6-.5-1.2-1-2-1-.2 0-.2.3 0 .3.7 0 1.3.5 1.8 1a134 134 0 0 1 5.2 5.7c1 1.3 2.1 2.6 2.8 4.1l.8 2.3.7 2.3a14 14 0 0 1 0 5c0 .1.3.2.4 0Zm0 0"/></g><path fill="#c39d35" d="m94.7 59.6-5.4-1.7-5-2c-1.7-.7-3.4-1.1-5-1.4a14 14 0 0 0-5 0 7 7 0 0 0-4.5 2.8l.3.1.2-.5c.1-.2-.2-.3-.2-.1l-.3.5c-.1.2.1.3.3.2 1.9-2.9 5.7-3.2 8.8-2.7 1.7.2 3.3.7 5 1.2l4.8 2 5.9 1.9c.2 0 .3-.2 0-.3Zm0 0"/><path fill="#c39d35" d="M93.8 59.4a98 98 0 0 0-19-2.6c-1.5-.1-3.4-.3-4.6.8-.1.1 0 .4.2.2 1.1-1 2.9-.8 4.3-.7a91.4 91.4 0 0 1 19 2.6c.2 0 .3-.3 0-.3Zm0 0"/><path fill="#c39d35" d="M70.2 57.1a6 6 0 0 1 3-4c1.6-.8 3.4-1 5.1-.8 1.9.2 3.6 1 5.2 2 1.7 1 3.1 2.5 4.8 3.5 1.9 1.1 4 1.8 6 2.4.3 0 .3-.3.1-.3-1.9-.6-3.9-1.2-5.7-2.2-1.8-1-3.2-2.5-5-3.6-3-2-7-3-10.3-1.4a6.4 6.4 0 0 0-3.5 4.4c0 .2.2.2.3 0Zm0 0"/><g clip-path="url(#v)"><path fill="#c39d35" d="M95.5 60.5v-.1h-.2l-.1.1-.2.2v.1l-.2.2-.2.4c-.7.9-1.4 1.6-2.3 2.2-1 .6-2.3.9-3.4 1.3l-1.2.3c-.2.1-1.1.2-1.4.4.2 0 .4.3.6.4l1.4-.6c1.4-.5 2.9-.8 4.2-1.6 1-.6 1.9-1.5 2.6-2.6V61l.2-.2.2-.3v-.1Zm0 0"/></g><g clip-path="url(#w)"><path fill="#c39d35" d="m95.5 60.6-.2-.2h-.1v.8c-.4 2.1-2.2 3.7-4 4.6l-1 .4-.4.2.2.2.5-.2 1-.4c1-.6 2-1.3 2.8-2.2.6-.7 1-1.6 1.1-2.5v-.7Zm0 0"/></g><g clip-path="url(#x)"><path fill="#c39d35" d="M95.7 60.5h-.2l-.3.2-.2.1-.3.2c-2.2 1.2-4.8 1.3-7.1 2.1l-2 1-.3.2.2.3.4-.3c1.7-1.1 3.9-1.4 5.8-2a13.4 13.4 0 0 0 3.4-1.2h.1l.3-.2.2-.1c.2-.2.1-.3 0-.3Zm0 0"/></g><path fill="#c39d35" d="M93.7 88.9H93v.5l-.2 3.2v1l-.1.6v1.7h.6v-2.6l.3-3.9V89Zm0 0"/><g clip-path="url(#y)"><path fill="#c39d35" d="m95.3 88.4-.5.2v.5l-.3 3V94l-.1.5v.8l-.1.5v.1h.6V94.2l.2-1v-.3c0-1.4.2-2.7.3-4v-.6h-.1Zm0 0"/></g><g clip-path="url(#z)"><path fill="#c39d35" d="M95.7 82v-1.5.1l-.2.5V81.4l-.2.2-.1.4-.2.3v2.6l.2.8v.5h.1c0 .3.2.5.3.7V82Zm0 0"/></g><g clip-path="url(#A)"><path fill="#c39d35" d="M95.8 74.1v.2h-.2c0 .2 0 .3-.2.4v.1a9.7 9.7 0 0 1 .2.3l.1.2V74Zm0 0"/></g><path fill="#c39d35" d="m93.7 68.2-.3-.3v-.6c0-.2.3-.2.3 0V68.2ZM94.6 73.6v.5l-.3-.2v-6.6l-.1-.1c0-.2.2-.2.3 0 .3 2 0 4.2 0 6.4Zm0 0"/><g clip-path="url(#B)"><path fill="#c39d35" d="M95.7 65.9v-.2c-.1-.2-.4-.1-.4 0l.1.6a28.6 28.6 0 0 1-.6 7.5l-.2.4c.2 0 .2 0 .3.2l.2-.5.6-3.5c.1-1.6.2-3 0-4.5Zm0 0"/></g><g clip-path="url(#C)"><path fill="#c39d35" d="M95.9 73v-.9l-.3.6v.2l-.5 1c0 .2 0 .4-.2.5l.2.1c.2 0 .2-.2.3-.3l.1-.4.1-.2.2-.5Zm0 0"/></g><g clip-path="url(#D)"><path fill="#c39d35" d="M95.9 73.9v-.6l-.3.4-.3.4-.2.4.1.1.1.1.3-.4.3-.4Zm0 0"/></g><g clip-path="url(#E)"><path fill="#c39d35" d="M94.7 88.6v.5a165.6 165.6 0 0 1-.3 4.8V95.7l-.1.1h.6V94.8l.1-.7v-1.4l.2-3.9v-.5a11.2 11.2 0 0 1-.5.2Zm0 0"/></g><g clip-path="url(#F)"><path fill="#c39d35" d="M95.3 86.1V83l-.1-1-.1.3-.2.4-.2.3.2.7v.1l.1.6v.5a5.5 5.5 0 0 0 .3 1.2Zm0 0"/></g><path fill="#c39d35" d="M94.5 89.2v-.6l-.4.2V86.9l-.2 1.9v.5l-.2 2.3v4.2h.5V93.9l.3-4.7ZM94.4 84v-.5h-.1v.8l-.2 1.5.3-1.8Zm0 0"/><g clip-path="url(#G)"><path fill="#c39d35" d="m95 82.4-.1.3-.2.3.2.7V83l.1-.6Zm0 0"/></g><path fill="#c39d35" d="m93.7 46.2-.4-.6V45l-.1-.2V44.2l-.1-.3v-.1l-.2-.6v-.3l-.1-.1v-.1l-.1-.2-.1-.3V42l-.1-.2c-.4-1.1-1-2.1-1.5-3.1L87.2 33A45.1 45.1 0 0 1 80.3 12c0-.3-.5-.4-.6 0a38.4 38.4 0 0 0 3.5 22.8c.5 1 1.1 2 1.8 2.9l.5.7 1.1.5-.7-1c-2.4-3.3-4-7-5-11a37 37 0 0 1-1-11.2l.1-.8v.6a40.2 40.2 0 0 0 1 4.7c1.3 4.8 3.3 9.3 6 13.4 1.8 3 4.2 5.9 5.2 9.3v.3l.1.2.1.4v.3l.1.3v.3-.1.3l.2.1c0 .3.2.4.3.6v.2l.2.3c0 .2.2.3.3.5.1 0 .4-.2.2-.5Zm0 0"/><path fill="#c39d35" d="M94 35.3v-.2l-.1-1.6A50.6 50.6 0 0 0 89.2 14l-1.9-4.2a12.4 12.4 0 0 1-.7-8.6c.2-.4-.4-.6-.6-.2v.4a26.6 26.6 0 0 0 .2 18c1 2.8 2.4 5.5 3.6 8.2a28 28 0 0 1 2.3 8.8l.1.2v.7l.3 2.7V44.1l-.1.1v.4l.1.3v.1l.1.1.3.5.1.3.2-.3v-2.3l.2-1v-1.1l.1-.2.1-1V39c.2-.7.2-1.4.2-2v-1l.1-.8Zm-.7 0-.1 3-.1 1.2a49 49 0 0 0-.4-4.1V35l-.4-2.1-.6-2.1v-.1l-.6-1.9-1-2.2c-1.2-2.7-2.6-5.3-3.5-8.1a26.5 26.5 0 0 1-1.1-12.7v-.6l.3 1.6c.3 1.3.7 2.5 1.2 3.7l1.9 4.1A53.5 53.5 0 0 1 92.6 27v.3c.5 2.6.7 5.3.7 8Zm0 0"/><g clip-path="url(#H)"><path fill="#c39d35" d="M93.1 43.6v.1l-.2.2v.5l.2-.5v-.3Zm0 0v.1l-.2.2v.5l.2-.5v-.3Zm0 0v.1l-.2.2v.5l.2-.5v-.3Zm0 0v.1l-.2.2v.5l.2-.5v-.3Zm2.8-7.4v-1.8l-.3.6-.3.9-.5 1.1-.5 1.1-.2.6-.1.3v.1l-.3.5-.1.4-.2.3-.2.7-.2.5-.2.7-.1.3-.1.5-.1.5-.1.3v.7l.2.4v.1l.3.6c.1 0 .2 0 .3-.2l.2-.2-.2-.5v-.2.1l-.2.2v-1.3l.2-.4.1-.7.3-1 .3-.7.1-.4.8-1.7v-.2l.8-1.7.3-.5ZM93 43.6v.1l-.2.2v.5l.2-.5v-.3Zm0 0v.1l-.2.2v.5l.2-.5v-.3Zm0 0v.1l-.2.2v.5l.2-.5v-.3Zm0 0v.1l-.2.2v.5l.2-.5v-.3Zm0 0v.1l-.2.2v.5l.2-.5v-.3Zm0 0"/></g><g clip-path="url(#I)"><path fill="#c39d35" d="M92.4 40.8c.3-5.4.5-10.8 0-16.2-.2-2.7-.6-5.4-1.2-8-.6-2.6-1.6-5.2-2-7.9C89 6 89.3 3 90.4.2l.4-.2.3.3c-.4 3 .5 5.8 1.4 8.6a44.3 44.3 0 0 1 2.2 8 55.6 55.6 0 0 1-1.4 25.5c-.1.4-.7.2-.6-.1A56.1 56.1 0 0 0 92 9.9c-1-3.1-2.2-6.3-1.8-9.6l.7.1c-1 2.4-1.4 5-1.2 7.6.3 2.7 1.2 5.2 1.9 7.8a63.5 63.5 0 0 1 1.7 15.9l-.3 9.1c0 .4-.7.4-.7 0Zm0 0"/></g><g clip-path="url(#J)"><path fill="#c39d35" d="M95.9 36.8v-1.7l-.3.5-.8 2.2-.1.3-.4.9-.3.4-.1.3-.2.3v.1-1a291 291 0 0 0 1.3-6.6l.1-.3.5-3.1.2-1.4v-5.2l-.1 1.7v.2a358.7 358.7 0 0 1-1.2 7.6l-.2 1.3-.2 1-.2 1-.2 1.3-.6 2.7-.3 1.8v.2l-.3.9v.1l.1.3h.2c.2.1.3 0 .4-.1V42l.2-.6v-.2h.1a9.1 9.1 0 0 0 2-3.4l.2-.5.2-.6Zm0 0"/></g><path fill="#c39d35" d="M92.7 45v-.2h-.1v-.1l-.1-.2v-.2l-.1-.2-.2-.4-.5-1-.2-.4-1.3-2-.9-1-4-4.8a22 22 0 0 1-3-5.9 32.4 32.4 0 0 1-1.6-8l-.2-2.8-.1-2.2c0-.2-.3-.2-.3-.1v1a58.3 58.3 0 0 0 .6 6.5c.6 4.3 2 8.5 4.7 12 1.5 2 3.4 3.8 4.8 5.9a17.5 17.5 0 0 1 1.8 3V44.3l.2.1.1.2v.1l.3.3v.1Zm0 0"/><path fill="#c39d35" d="M92.1 44.2v-.3a9.5 9.5 0 0 0-.5-1.5c-.5-1.3-1.3-2.6-2.1-3.8A96.2 96.2 0 0 1 83.4 28c-1-1.9-1.7-3.8-2.3-5.7l-.4-1.7c-.4-1.3-.6-2.7-.6-4.1v-.7H79.8a16.9 16.9 0 0 0 .6 5l.6 2a53 53 0 0 0 5.1 11c1 1.8 2.2 3.5 3.3 5.2l.8 1.2a17.8 17.8 0 0 1 1.2 2.5l.3.8a4.8 4.8 0 0 1 .3.5l.1.2ZM92.2 36.7c-.5-4.1-1-8.3-2.2-12.3-.6-2-1.4-4-2.2-6a27.4 27.4 0 0 1-2.4-12.9c0-.2.3-.2.3 0 0 2.1.1 4.3.4 6.4.3 2 1 4 1.8 6a52.7 52.7 0 0 1 3.6 12l1 6.8c0 .2-.3.2-.3 0Zm0 0"/><path fill="#c39d35" d="M92.2 37.2a81.5 81.5 0 0 0-3.8-21.4L87 13c-1-2-1.7-4.2-2-6.5-.1-.2.2-.2.2 0 .3 2 1 4 1.8 5.8.4.9 1 1.8 1.3 2.7l1 3a79.8 79.8 0 0 1 3.2 19.2c0 .2-.3.2-.4 0ZM93.6 36.4c.5-4.5 1-9 .6-13.6-.1-2.3-.6-4.6-1.3-6.8-.7-2.1-1.7-4.3-2.3-6.4-.7-2.4-1-5-.4-7.4.1-.2.4 0 .3.1-1.3 4.5 1 9 2.5 13.1 1.5 4.3 1.8 8.8 1.6 13.3l-.7 7.7c0 .2-.4.2-.3 0Zm0 0"/><g clip-path="url(#K)"><path fill="#c39d35" d="M95.9 25v-1.6l-.1.2c0 .3 0 .5-.2.8l-.2 1.3A101.7 101.7 0 0 0 94 36l-.1 1a58.5 58.5 0 0 1 0 2V39a238.2 238.2 0 0 1 1.5-11.4l.2-1.5.3-1.1Zm0 0"/></g><g clip-path="url(#L)"><path fill="#c39d35" d="M95.9 30.8v-1.6l-.3 1v.4l-1.3 7.6V39h.3V38l.2-1a229.3 229.3 0 0 1 1-6.3Zm0 0"/></g><path fill="#c39d35" d="m93.4 42.4.3-1-.2.3-.2.3-.1.1-.3.5-.1.1-.1.2-.1.2s-.2.1-.2.3l-.2.2-.1.3v.2l.1.2.1-.2V44h.1v-.1l.2-.2.2-.5a9.5 9.5 0 0 1 .6-.8Zm0 0"/><g clip-path="url(#M)"><path fill="#c39d35" d="M95.9 38.7v-.3l-.3.3-.1.2h.1l.3-.2Zm0 0"/></g><path fill="#c39d35" d="M93.2 43.6v-.3l-.1.3-.1.1-.1.2-.1.2-.2.5v.1c0 .1.2.1.2 0 0 0 0-.2.2-.2v-.3l.2-.2v-.4ZM54.6 91.7l-.3-.2-.1-.3h-.4l-.3-.3-.1-.1-.1-.1-.7-.7-.2-.3-.8-.8-1-.3a15.2 15.2 0 0 1 .7.8l.5.6.2.3h.1l.2.3.2.2.3.2H52.2l-.3-.1-.5-.1-.3-.1a15.1 15.1 0 0 1-4.5-1.9l-3.2-2-2.3-1.5-.4-.2-.4-.3-1.6-.9a45 45 0 0 0-15.8-5.1l-.6-.1h.9l2-.2 2.9.1a38.6 38.6 0 0 1 9.3 1.8l-.4-.8-.8-.3-1.5-.4c-5-1.1-10.2-1.3-15.2-.5h-.1c-.4 0-.2.6 0 .6a47.1 47.1 0 0 1 18.3 5.1l.8.5c1 .5 2 1 2.9 1.7 2.3 1.4 4.6 3.1 7.2 4.2l1 .5h.4l.4.2h.2l.5.2.5.1h.5l.4.2h.9l.5.3.2.2c.5.2.8-.3.5-.5ZM39 90.3h-.4.3ZM47.9 91H46 48Zm0 0"/><path fill="#c39d35" d="M54 91.4v-.1l-.3-.2H53c0-.1-.1-.2-.3-.2h-.6l-.5.2H49l-1 .3-1 .2h.5l-1.3.1-2.9.1h-3.2a52.9 52.9 0 0 1-5.1-.6h-.2l-.6-.1-.6-.1a52.6 52.6 0 0 1-12.3-4L17 85.2a19.8 19.8 0 0 0-4.3-1h.5l.7-.1 1.2-.2a28.8 28.8 0 0 1 12 1.7c2.2.8 4.2 1.8 6.3 2.7l.6.3v-.7l-.5-.2c-2.5-1.2-5-2.4-7.5-3.2a29 29 0 0 0-17.4 0v.1l-.4.1c-.3.2-.2.8.2.6h.4c3.2-1 6.5 0 9.5 1.2l4.2 1.8a52.2 52.2 0 0 0 11 3.3l1.2.2h.4l.2.1 6 .6h3.8l2-.2h.8l1-.2h.8l.6-.1.7-.1h2.6c.3-.2.4-.4.3-.5Zm0 0"/><path fill="#c39d35" d="m54 91.1-.1-.3H52l-.2.1-.8.2h-.5l-.1.1c-.4 0-.7.2-1 .3l-1.2.4-.7.3c-.3 0-.5.2-.7.3l-.3.1-.4.2h-.1a63.9 63.9 0 0 0-3.2 1.3 58 58 0 0 1-5.1 1.6l-.8.2h2.3l.8-.2h.1l3.6-1.3h.3l3-1.3 1.5-.6.8-.3h.2V92l.4-.1.3-.1 1.2-.3H51.8l.6-.1h.4l-.2.1h.4l.4.1.2-.2.2-.1.1-.2h.1Zm0 0"/><g clip-path="url(#N)"><path fill="#c39d35" d="m43.8 91.3-1-.1h-1.4 2.4Zm0 0-1-.1h-1.4 2.4Zm0 0-1-.1h-1.4 2.4Zm0 0-1-.1h-1.4 2.4Zm0 0-1-.1h-1.4 2.4Zm0 0-1-.1h-1.4 2.4Zm0 0-1-.1h-1.4 2.4Zm0 0-1-.1h-1.4 2.4Zm0 0-1-.1h-1.4 2.4Zm0 0-1-.1h-1.4 2.4Zm0 0-1-.1h-1.4 2.4Zm0 0-1-.1h-1.4 2.4Zm6.8 0v-.1l-.2-.1H50l-.8.2-.3.1V91l-1 .3-1.1.2-.7.1h2l-3.2.6h-.5l-.6.2h-.7l-1.3.3H41l-.7.1-.6.1-1.5.1a56.6 56.6 0 0 1-18-1.6l-4-1.2a27.6 27.6 0 0 0-6.5-1.5l2.3-.4a17 17 0 0 1 4.2.1c2.7.4 5.3 1.4 8 2a54.4 54.4 0 0 0 9.7 1.2H35c2 .2 4.2.2 6.3.1h1.9H40l-3-.3-2-.3h-.4L34 91H33.5a79.7 79.7 0 0 1-10.4-1.6c-2.6-.6-5.2-1.5-8-1.7-2.5-.2-5.2.1-7.6 1.1-.2 0-.3.2-.3.3 0 .2.2.3.4.3 3.3-.4 6.6.8 9.7 1.8a53.7 53.7 0 0 0 16 2.6h2l4.5-.3h1.1l1.3-.2 1.2-.2 3.2-.6 1-.2L49 92l.2-.1.7-.2.5-.1c.2 0 .2-.2.2-.4Zm-6.8 0-1-.1h-1.4 2.4Zm0 0-1-.1h-1.4 2.4Zm0 0-1-.1h-1.4 2.4Zm0 0-1-.1h-1.4 2.4Zm0 0-1-.1h-1.4 2.4Zm0 0-1-.1h-1.4 2.4Zm0 0-1-.1h-1.4 2.4Zm0 0-1-.1h-1.4 2.4Zm0 0-1-.1h-1.4 2.4Zm0 0-1-.1h-1.4 2.4Zm0 0-1-.1h-1.4 2.4Zm0 0-1-.1h-1.4 2.4Zm-.5.5h-.6l-2.6-.1-3-.3h-.2a5 5 0 0 0-1.6.3H35c2 .1 4.2.2 6.3.1h1.9Zm5.7-.5V91l-1 .2-1.2.3h-.7 1c.7 0 1.3-.2 2-.3Zm1.6 0v-.1l-.2-.1h-.1.2v.1Zm0 0"/></g><path fill="#c39d35" d="M47.4 92.2H47l-1.9.1h-.2l-.6.4-1 .1-1 .1-.1.1v.2L44 93l1.2-.2 1.9-.4h.4Zm0 0H47l-1.9.1h-.2l-.6.4-1 .1-1 .1-.1.1v.2L44 93l1.2-.2 1.9-.4h.4Zm3.2-.9v-.1h-.1V91H50c-.3 0-.7 0-1 .2-.7 0-1.3.2-2 .3l-1.6.3-1 .2-.7.2H43l-1.1.3h-.3l-.7.2h-.6l-.4.1h-.2a141.4 141.4 0 0 1-7.9 1.2c-3.4.4-6.9.6-10.3.5-3.2 0-6.3-.4-9.4.1-1 .2-2 .5-3 1l-.5.2h1.7l.6-.2c.9-.3 1.8-.4 2.7-.5 3-.3 6.2 0 9.4 0h4.3l2-.2a133 133 0 0 0 10.4-1.4h.4l.7-.2 1.3-.2L44 93l1.2-.2 1.8-.4h.6l.4-.2-.4.3a9 9 0 0 1-1.5.8c-.3 0-.5.2-.8.3L41 95a27.8 27.8 0 0 1-3 .8h2.4l.7-.2a42.4 42.4 0 0 0 2.6-.9l1.8-.6.8-.3 2.4-1.3.5-.4.2-.2.7-.1h.3c.2-.2.2-.3.2-.5Zm-3.2 1h-2.6l-.6.4-1 .1-1 .1-.1.1v.2L44 93l1.2-.2 1.9-.4h.4ZM37.4 81.5l1.1.4-.4-.5-1-.4-.8-.3a38.5 38.5 0 0 0-13-1.9H23c-.2 0-.1.3 0 .3l2.3.1 3 .2 2.1.3h.2c2.3.4 4.6 1 6.8 1.8ZM53 90.9h-.1l-.5-.2-.4-.2-1-.4-.2-.1a17 17 0 0 1-3.4-2.3l-.8-.2 1.4 1 .2.2c.7.6 1.5 1 2.3 1.5h.1l1 .5.4.2h.3l.1.1h.2v.1H53c0 .1.2 0 .2 0L53 91Zm0 0"/><path fill="#c39d35" d="M52.4 90.3H52l-.9-.2-.4-.1a14 14 0 0 1-2.5-1.3l-.4-.2-1.5-1-.8-.4-4.7-2.8-2-1.1a68.3 68.3 0 0 0-8.4-3.5l-.7-.2a42.3 42.3 0 0 0-4.6-1h-1.8l-.1.1v.2h.1a21.1 21.1 0 0 1 7.3 1.3c3 1 6 2.3 8.9 3.8l1.6 1c.3 0 .5.2.7.3l4.8 3c.2 0 .3.2.5.3 1 .6 2.2 1.3 3.3 1.7h.2l1.3.4h.6l-.1-.3ZM34 89.4v-.3l-.6-.2-2.2-.6c-2-.6-4-1.4-6-2.2a25.5 25.5 0 0 0-8.8-2H12.6c0 .1 0 .2.2.2h1.5l2 .1 1.4.1 2.4.3c2 .4 4 1.1 6 2 2 .7 4 1.5 6 2l1.3.4.7.2ZM44.7 90.8h-.1l-2.4-.4.9.2a160.9 160.9 0 0 1 1.6.2Zm0 0"/><path fill="#c39d35" d="M34.1 90v-.4l-.7-.1a76.5 76.5 0 0 1-10.9-2.8l-2.8-1.3a16.3 16.3 0 0 0-3.3-1.2 26.5 26.5 0 0 0-2.5-.5c-.2 0-.3.2-.1.3l.9.1 1.6.4.9.3c1.1.3 2.2.8 3.2 1.3a29.4 29.4 0 0 0 5.8 2.1 81.5 81.5 0 0 0 8 1.7ZM45.2 90.8h-.7.7ZM44.3 92.3c-4.6.6-9.2 1-13.9.7-2.2-.2-4.5-.5-6.6-1.2l-6.6-2.3c-2.5-.7-5.1-1.1-7.7-.4-.2 0-.2-.3 0-.3 4.5-1.3 9 .9 13.2 2.3 2.2.8 4.5 1.3 6.8 1.5 2.3.3 4.6.3 7 .2l7.8-.8c.2 0 .2.3 0 .3Zm0 0"/><path fill="#c39d35" d="m47 92.3-.2-.1-1.8.1h-.2l-1 .2h-.5l-1.5.2H41l-.5.1-2.2.3h-.2a76 76 0 0 0-6.1 1l-1.7.4-3 .7-.8.1a20.9 20.9 0 0 1-3.7.5h-1.7 4a27.9 27.9 0 0 0 2.4-.3l2-.5a42.4 42.4 0 0 1 5.8-1.1 131.9 131.9 0 0 1 6.8-.9h.2l1-.1 1-.1.9-.1 1.7-.2v-.2ZM20 95.9l-1.1-.3-1.8-.2a17 17 0 0 0-6.4.4h1.5l1.7-.2H16.5l1.8.2h.2l.2.1h1.4ZM46.9 92.8H46l-2.9.4-1 .2-1.3.2-.7.1a142.9 142.9 0 0 0-8.6 2l-.7.2H32l.7-.2 1.7-.5 4.1-.9 1.8-.3 1.9-.3 2.7-.4h.7l.4-.1.8-.2c.2 0 .2-.2 0-.2ZM52.6 90.2l-.3.1-.1.1-.2.1h-.1l-.2.2-.3.1-.4.3h-.2l-.1.2h-.1l-.6.5h-.1a9.7 9.7 0 0 1-.5.4h.2V92l.7-.2.8-.5.6-.3.2-.2.5-.2.1-.1.3-.1c.2-.1 0-.4-.2-.3ZM52.7 91h-.1a10.4 10.4 0 0 0-1.1.6l-.2.1h.7l.2-.1.2-.1.3-.1V91ZM87.6 92.2l.2-.2-.5-.2-.7.4.6.2.3-.1ZM88.6 92.7l.2-.3h-.2l-.2.2v.2h-.2l.2.1.2-.2ZM89.3 92.6h-.2l-.1.2-.1.2-.1.1.2.1.1-.2.2-.4ZM89.8 92.8h-.3l-.1.2-.2.3h.3l.1-.2.2-.3ZM92.7 94.6a7 7 0 0 0-2.2-1.4h-.1l-.5-.3V93.2l-.1.2v.1l.4.2h.1l.8.5 1 .8h.1c.1.2.3.2.4 0 .2 0 .2-.2 0-.4ZM91 90l.1-.1-.2-.2c0-.1 0-.2-.2-.3v.1l-.3.2h-.2c0 .2.2.3.3.4l.1.2.2-.2.2-.1Zm0 0"/><g clip-path="url(#O)"><path fill="#c39d35" d="m95.9 95.2-.2-.2-.7-.5-.6-.5-.1-.1-.4-.4v-.1l-.2-.2-.3-.4-.3-.4-.3-.3-.6-.9-.7-.8a9.7 9.7 0 0 0-.2-.3l-.1-.1v-.1l-.1.1-.1.2c-.1 0-.2 0-.3.2l.1.1.1.2.3.3.6.8.7 1h.1l.2.3.3.3.1.2.2.2.1.1.2.2.4.4.2.2h.1v.1l.4.3.2.2.4.3h.1v.1h.5l-.1-.5Zm0 0"/></g><path fill="#c39d35" d="m91.7 89 .5-.6-.2-.8-.4.9.1.6ZM93.2 93l-.1-.6-.2-1-.4-1.9-.1-.4h-.7l.1.4V89.8l.4 1.5v.4l.3 1v.6l.2.2h.3v-.1c.2-.1.2-.2.2-.3ZM90.4 90.6l.2-.3h-.2v-.1l-.5-.3-.3.2-.4.1.5.3h.1l.5-.3a12091.5 12091.5 0 0 1-.4.4l.3.2c0-.1 0-.2.2-.2Zm0 0"/><path fill="#c39d35" d="m93.8 93.2-.1-.1-.3-.3-.3-.4-.3-.2-.5-.5-1-.8-.2-.2H91l-.1-.1h-.1v-.1h-.2l-.2.2-.2.2.2.1.2.1.4.4 1.4 1.3h.1l.2.2.3.4.3.2c0 .1.2.2.3.1.2 0 .2-.1.3-.2v-.3ZM79.8 75.5c-.3 0-.6.3-.8.5 0 .3 0 .6.2.9.2.2.5.3.6.6v.2c-.4.2-.8 0-1.2-.1-.7-.2-1.5.1-2.3 0-.2 0-.5-.2-.5-.5-.1-.3 0-.6.3-.8a4 4 0 0 1 3.3-1c.2 0 .4 0 .5.2Zm0 0"/><path fill="#c39d35" d="M82.4 79.1c-.5-1.4-1.4-3-3-3.5l-1-.2c-.4 0-.8.2-1.1.4l-1 .7c0 .2-.2.3-.1.4l.2.4c0 .3-.4.4-.5.1-.1-.2-.3-.4-.2-.7 0-.3.4-.6.6-.8.6-.4 1.2-.8 1.9-1 1.4-.1 2.7.8 3.5 1.8.5.7.9 1.5 1.1 2.3.1.2-.3.4-.4.1Zm0 0"/><path fill="#c39d35" d="M80.8 75.9c.2.2.3.6.3 1 .1.3 0 .6-.1 1l-.6.7-.8.8c-.1 0-.3 0-.4-.2 0-.1 0-.2.2-.3l.6-.5.5-.7c.2-.3.2-.5.1-.8 0-.2 0-.5-.2-.7-.2-.3.2-.6.4-.3Zm0 0"/><path fill="#c39d35" d="M76 76.3c-.6.5 1-1.5 1.8-2 .3-.1.6-.3 1-.3l1 .1.4.6c.3.4.6 1 .7 1.5 0 0-2.2-1.9-4.8.1Zm0 0"/><path fill="#c39d35" d="M84.4 78c-.3-1-.8-1.9-1.2-2.7-.6-1-1.2-1.8-2-2.5a4.6 4.6 0 0 0-2.7-1.5c-1.5-.2-2.6 1-3.4 2-.5.7-1 1.3-1.3 2a5 5 0 0 0-.4 2.2c0 .3-.5.4-.5 0 0-.6 0-1.3.3-2 .2-.7.6-1.3 1-1.9 1-1.2 2-2.5 3.5-2.8 1.2-.1 2.5.4 3.4 1.2.8.7 1.6 1.7 2.2 2.6.6 1 1.2 2 1.5 3.2.1.3-.4.4-.4.1Zm0 0"/><path fill="#c39d35" d="M84.4 78c.2-.6 0-1.3-.1-2l-.3-1-.1-1c-.1-.5-.3-1-.6-1.3-.3-.4-.7-.7-1.1-.9-.5-.3-.9-.5-1.2-1l-1.2-1a14 14 0 0 0-1.2-1c-.3-.3-.7-.7-1.2-.9-.4-.2-.9-.3-1.4-.1-.4.1-.6.5-.8 1a3 3 0 0 1-.8 1l-1.1.8c-.9.4-1.7.8-2.3 1.5-.6.8-1.1 1.8-1.3 2.8 0 .5 0 1 .2 1.5.3.5.8 1 1.2 1.3.3.2 0 .6-.3.4-.8-.6-1.6-1.5-1.6-2.6 0-1 .4-2 .8-2.8.5-.9 1.2-1.6 2.1-2 .8-.6 1.8-.9 2.4-1.7.3-.4.4-.9.7-1.2.4-.4.8-.6 1.4-.6 1 0 1.9.8 2.7 1.4l1.2 1.1 1.2 1.2 1.4.9 1 1.1.4 1.5.2 1.2.3 1.4v1c-.1.4-.6.3-.6 0Zm0 0"/><path fill="#c39d35" d="M78 71.3c-1-.2-2-.3-3 .1-.6.2-1 .4-1.4.8l-1 1.3-1 1.1c-.4.4-.7.8-.8 1.3 0 .4 0 .8.2 1.2.3.4.7.7 1.1.9l1.7.5 1.5.9c.3.2 0 .6-.2.4-.5-.4-1-.7-1.6-.9l-1.5-.5c-.5-.1-1-.4-1.3-.8-.3-.4-.4-1-.5-1.4 0-.5.2-1 .5-1.4l1.2-1.3 1.1-1.4a4 4 0 0 1 1.3-1c1.2-.5 2.5-.6 3.8-.3 0 0 .2.1.2.3l-.3.2Zm0 0"/><path fill="#c39d35" d="M82.5 80.2c-.6.4-1.3.5-2 .5h-2.2l-2.2-.2-2.5-.3c-.3 0-.3-.6 0-.5 1.6.2 3.1.5 4.7.6h2c.7 0 1.4-.2 2-.5.2-.2.5.3.2.4ZM77 67.2c.7-.5 1.3-1 2-1.3l.9-.4c.2 0 .5.1.6.3l.6.5.9.2a3 3 0 0 1 1.5.9c.5.5.8 1.1 1.2 1.7l1.2 1.8c.7 1.3 1 2.7 1 4.1a19 19 0 0 1-.2 4.7c0 .3-.5.3-.5 0a18.4 18.4 0 0 0-.4-7.9l-1-1.7-1.1-1.8c-.4-.4-.8-1-1.3-1.1-.5-.3-1-.2-1.6-.5l-.6-.5c-.3-.2-.5-.1-.8 0l-2 1.3c-.2.2-.5-.1-.3-.3Zm0 0"/><path fill="#c39d35" d="M86.8 75.7c-.8.5-1.2 1.4-1.7 2.1l-.7 1c-.3.4-.8.7-1.2 1l-1.2.8a3 3 0 0 0-.7 1.3l-.6 1.3-.8 1.5a9 9 0 0 0-1.2 2.3v.4l-.1.2v.1c0 .1-.1.1-.2 0 .3 0 .3.5 0 .5-1 0 .2-2.4.4-2.7l1-1.5.7-1.6c.2-.5.3-1 .6-1.4.3-.5.6-.9 1-1.2.5-.3 1-.5 1.4-.9l1-1c.5-.9 1-2 2-2.6.2-.2.5.2.3.4Zm0 0"/><path fill="#c39d35" d="M81.6 80.8a4.7 4.7 0 0 0-2.6 1l-.7.7c-1 .6-2 .8-3.1 1.2-.9.3-1.9.7-2.3 1.6l-.7 1.9-.5 1.2-.4.8c-.2.2-.6 0-.4-.3l.3-.7.5-1 .7-2c1-2.1 3.6-2 5.3-3l.9-.6.8-.6a5 5 0 0 1 2-.6c.4 0 .5.4.2.4Zm0 0"/><path fill="#c39d35" d="M77.7 82.8c-.9 0-1.7 0-2.6-.3l-2.4-.9c-.3 0-.3-.6 0-.5.9.2 1.6.6 2.4.9a6 6 0 0 0 2.5.3c.3 0 .4.4 0 .5Zm0 0"/><path fill="#c39d35" d="M78.4 82.4c-.5.1-1.1 0-1.6-.1-.6-.2-1.2-.5-1.7-.9l-.7-.6a5 5 0 0 0-.8-.7L71.8 79l-2-1.3c-.4-.2 0-.6.2-.4 1.2.6 2.3 1.4 3.4 2.1.6.4 1.1.7 1.5 1.2.5.5 1 .8 1.5 1 .6.3 1.2.5 1.8.3.3-.1.5.4.2.5ZM77.8 66.8a4.4 4.4 0 0 0-4.2-.7c-.3 0-.6.2-.9.4h-1l-1-.1c-.8 0-1.6.1-2.1.6l-.8.9-.8.9c-.5.5-1 1.1-1.2 1.8l-.4 2V75c0 .5.2.9.3 1.3l.2.5.2.4v.2H65.8v.3c-.1-.4.4-.6.5-.3.1.4-.4.6-.6.3l-.2-.6a10.8 10.8 0 0 1-.7-3c0-.8 0-1.6.2-2.4.1-.8.3-1.5.7-2.1.5-.8 1.1-1.4 1.7-2l.8-1c.3-.3.7-.5 1-.6a5 5 0 0 1 2.5 0h.6l.5-.2a4.9 4.9 0 0 1 5.2.6c.3.2 0 .6-.2.4ZM71.5 89.4l.6.2 1.3.3h.2a14.5 14.5 0 0 0 3.1.1c.5 0 1-.2 1.5-.4.8-.3 1.9-.6 2.7-.1h.2c.2 0 .3-.3 0-.4l-.2-.2c-.8-.3-1.6-.2-2.4 0v.1l-.6.2h-.4l-.2.2h-.5l-.2.1h-2.8l-.3-.1-.6-.1h-.2a11.6 11.6 0 0 1-1.7-.6l-.8-.5-.2-.2-.2-.1-.7-.5-.6-.3h-.2l-.3-.2-.4-.6-.2-.4-.2-.3a11.2 11.2 0 0 1-.4-1l-.1-.4-.3-1v-.3c0-.4 0-.8.4-1.2.5-.7 1.4-1.2 2.3-1.3.8-.1 1.4.3 2.1.7l1.4.5c.2 0 .3-.1.3-.2l-.1-.3-.8-.2H72l-1-.5a4 4 0 0 0-1.1-.5 3.1 3.1 0 0 0-1.5.1 4 4 0 0 0-1.3.7c-.4.3-.7.6-.9 1-.4.9-.2 1.8.1 2.7l.6 1.4.2.4c.1.3.3.7.6 1l.3.2.9.3 1.1.9h.2l.6.4.8.4Zm0 0"/><path fill="#c39d35" d="M73.6 89.7v-.2h-.3a2.8 2.8 0 0 1-.6 0h-.2l-.5.1h-1.2l-2.4-.7h-.1l-1-.8-.5-.6-.2-.2-1.4-1.6a6 6 0 0 1-1-1.4 3.7 3.7 0 0 1-.3-1c-.1-.6 0-1.2.1-1.7l.1-.3a5.3 5.3 0 0 1 .7-1.7 5 5 0 0 1 3.2-2l1-.1a2.2 2.2 0 0 1 .5 0l.2.1.1.2.1.1.4-.1v-.2c0-.2-.1-.3-.3-.4h-.3c-.3-.2-.6-.2-1-.2-.7 0-1.6.3-2.3.7h-.2l-.2.2h-.2l-.1.2c-.4.3-.8.6-1 1a5 5 0 0 0-1.1 2l-.3 1.7v1l.2.4.3.7.4.5c0 .2.2.3.4.5l.1.1.4.5.3.3.3.3.3.4.2.2.2.2.2.2.2.2v.1l.2.2h.1l.2.2.1.1.2.1.2.1v.1l.5.2a9.5 9.5 0 0 0 5 .5c.2 0 .2-.1.3-.2Zm0 0"/><path fill="#c39d35" d="M65 71.8c-1.1.4-2 1-3 1.8l-.3.3-.1.2-.3.3-.2.3c-.5.5-.9 1.2-1 1.8v.5l-.1.4a6.4 6.4 0 0 0 .8 3.1c.1.2.2.5.4.6l.2.4.8 1 .6.5.4.3h.1l.2.2.3.3v.5c0 .2.2.2.3.2 0 0 .2-.1.2-.3V83.6l-.4-.4-.2-.2-1-.8-.1-.1-1-1.3-.3-.6-.3-.6c-.3-.6-.4-1.3-.5-2v-.4l.1-.7a4.5 4.5 0 0 1 1.2-2l.3-.2.3-.3.2-.2a9 9 0 0 1 2.6-1.6c.2 0 0-.5-.3-.4ZM88.3 71.3v-.5l-.2-1-.1-.8v-.2l-.1-.4a10.5 10.5 0 0 0-.6-1.5v-.3l-.1-.1v-.1l-.3-.4c0-.2 0-.3-.2-.5a9 9 0 0 0-1.5-2 6 6 0 0 0-1.6-1.1l-.2-.1-.8-.2-1-.1a15.8 15.8 0 0 0-4.6.5c-.8.2-1.5.6-2 1.1-.5.6-1 1.2-1.3 1.8-.2.3.2.6.4.3.4-.7.8-1.4 1.4-1.9.7-.5 1.5-.9 2.3-1l2.1-.3h2.3l.8.2a5 5 0 0 1 1.8 1.1l.5.5.2.3a8.9 8.9 0 0 1 1.4 2.4l.1.4.2.5.3 1v.5a50.9 50.9 0 0 0 .3 1.7v1.1c.1.2.4.2.4 0v-.9Zm0 0"/><path fill="#c39d35" d="M86.2 70.8c.7.1 1.4.3 1.9.8.5.4.7 1 .6 1.7l-.6 2.3-.3 1.1c0 .4-.3.7-.4 1-.4.8-.5 1.6-.6 2.5 0 .3-.5.2-.5-.1 0-.7.2-1.3.4-2l.4-1 .3-1 .6-2c.1-.7.4-1.3 0-1.9-.5-.6-1.3-.8-2-1-.1 0-.2-.1-.1-.3 0-.1.2-.2.3-.1Zm0 0"/><path fill="#c39d35" d="M81.1 89.5h.1c.2 0 .3-.3.2-.4v-.5l.2-.6.4-1c.3-.7 1.1-1 1.7-1.5 1-.9 1.8-2 2.5-3.2.4-.6.7-1.3 1.2-1.9 0-.2.2-.3.4-.5l.8-.6.3-.2h.1c.5-.3 1-.5 1.3-.9l.2-.3a3.5 3.5 0 0 0 .2-2.2l-.3-.7a2.6 2.6 0 0 0-.9-1h-.3a1 1 0 0 0-.4-.1h-.4c-.3 0-.3.5 0 .5l.9.1.4.3.1.2.2.2.2.5v.2c0 .3.1.5 0 .8V77.3l-.5.8-1 .5-.8.5-.5.5-.2.2-.1.2-.3.3-.8 1.4-.1.2-.4.6-.3.5-.1.1-.2.3-.2.3h-.1v.2h-.1v.1h-.1l-.1.2-.1.1-.2.2-.3.3-.2.1v.1l-.7.5c-.3.2-.6.3-.8.6l-.3.3-.3.6-.2.9-.3 1c0 .3 0 .6.2.6Zm0 0"/><path fill="#c39d35" d="M93.4 81c0-.3-.1-.5-.3-.8l-.2-.4-.2-.3-.7-.7-.1-.1-.1-.1-.4-.2h-.2l-.1-.1h-.2l-.6-.1c-.5 0-1 0-1.4.3-.2.1 0 .5.2.5.7-.5 1.7-.4 2.4 0h.1l.3.3c.5.4.8 1 1 1.6v.3l.2.3V83.4l-.3 2.1v.2l-.8 1.9-.4.8c-.3.4-.5.8-.8 1h-.1l-.3.2-.2.1-.3.2-.4.1-.3.2-.5.4-.2.2-.3.3a15.2 15.2 0 0 1-1.6 1.1l-1 .5-2.3 1-.6.1-.9.2c-.1 0-.2 0-.2.2l.1.2h.8l.3-.1 1.6-.5c.3 0 .7-.3 1-.4l1-.4.8-.6.3-.1.3-.3.4-.3.3-.3 1-.8h.2v-.1l.6-.3h.2l.3-.2.3-.2.1-.1.1-.1.1-.1.3-.4.5-.7c.5-1 1-2.1 1.2-3.2v-.5l.2-.8c.1-1 .1-2-.2-3Zm0 0"/><path fill="#c39d35" d="m87 87.3-.3.1c-.6.5-.9 1.2-1.1 2a8 8 0 0 1-1.3 2.3l-.6.7-.4.3-.3.3-.2.2-.4.3h-.2l-.1.2h-.2l-.3.2-.3.2-.4.2-.3.1-.6.3h-.2l-1 .4-.3.1-.6.2-1 .2h-3.4l-.4-.1h-.3v-.1h-.2l-.3-.1-.5-.2-.5-.2-.4-.2-.4-.3-.4-.3V94l-.3-.4-.1-.2v-.1h-.1V93l-.1-.2h-.1v-.2h-.1v-.1l-.1-.2-.1-.2V92l-.1-.3-.2-.4V91l-.2-.4-.2-1.2v-.3c0-.2-.3-.2-.4-.1h-.1V90.3l.2.4v.4a4.2 4.2 0 0 0 .2.3v.5l.2.3v.1l.1.2v.1l.2.2V93l.2.1v.3l.2.2a1.5 1.5 0 0 0 .2.3l.2.3v.1l.3.3v.1l.6.4h.2l.6.4.3.1h.1l.3.1.2.1h.2l4.8.2h.4l.2-.1h.3l.2-.1.3-.1h.1l.4-.1.2-.1.6-.2.2-.1.4-.2.8-.4.2-.1h.1l.2-.2h.2l.3-.3s.2 0 .3-.2l.3-.2a5.5 5.5 0 0 0 .7-.6 15.9 15.9 0 0 0 1.1-1.1c.5-.7 1-1.4 1.2-2.2l.6-1.5.5-.4c.4-.2.2-.7 0-.5Zm0 0"/><path fill="#c39d35" d="m70 94.1-.6-.2-.4-.2h-.2v-.2h-.2l-.2-.2h-.2L68 93l-.3-.2-.3-.3-.7-.5h-.1l-.2-.2-.2-.2-.2-.1-.5-.5h-.2V91h-.1l-.1-.2H65l-.6-.5-.3-.2-.1-.1-.3-.2-.2-.2h-.1l-.2-.2v-.2H63l-.2-.2-.3-.3v-.2l-.2-.2-.2-.6v-.4L62 87v-.7l.1-.3v-.3h.1l.2-.6.1-.4.1-.2v-.8l.1-.2V82.7l-.1-.4-.1-.1c-.2-.1-.3 0-.4 0v.6c.1.2.1.6 0 .8V84.8l-.2.3-.1.4-.2.7v.2a3.6 3.6 0 0 0 .5 2.5l.2.3.6.6.3.3h.1v.1l.3.2.2.2h.1l1.3 1h.1v.1l.4.3 1 .8h.1l.2.2.4.3.3.2.6.4.7.4a9.5 9.5 0 0 0 1 .4l.2-.2-.3-.4ZM94.8 70.4V69.8l-.2-.3-.3-.9-.2-.3c0-.1 0-.2-.2-.2l-.1-.2-.2-.3-.6-.3-1.5-.6H91l-.2-.1h-.1l-1.5-.3h-.4l-.7-.2h-.5l-.4-.1H87c-.3 0-.3.4 0 .5h.7l.4.1h.3l.4.1h.3c.3.2.7.2 1 .3h.5l.1.1h.3l.2.1h.2c.6.2 1.2.4 1.6.7a2.2 2.2 0 0 1 .6.5v.1h.1v.1l.2.5.1.2v.1l.1.4.1.3v.2l.1.1c0 .3.1.6 0 .8V71.6l-.2.6v1.6l-.2.6-.1.4-.5 1-.3.4-.2.1-.2.2-1 .9-.1.2a3 3 0 0 0-.6.9v.1c-.2.3.3.5.4.2v-.2l.1-.1c0-.2.1-.2.2-.3l.1-.1.1-.1c0-.2.2-.3.3-.4h.2l.1-.2.2-.1.2-.3h.2v-.2a5.6 5.6 0 0 0 1.4-2.3V74l.1-.1v-1.5l.2-.5.1-.4v-1.1Zm0 0"/><g clip-path="url(#P)"><path fill="#c39d35" d="M95.9 88.6v-.5l-.3.1-.1.1-.2.1-.5.2h-.2l-.5.2h-.2l-.3.1H93l-.5.1h-.2l-.3.1h-.3l-.5.2c-.1 0-.2.2-.1.3l.1.1h.4l.2-.1H92.2l.3-.1h.6l.5-.1h.4v-.1h.2l.4-.1H94.8l.4-.3h.2l.2-.2h.3Zm0 0"/></g><g clip-path="url(#Q)"><path fill="#c39d35" d="M96 74.7h-.1v-.3l-.1-.1h-.1l-.2-.1-.1-.1h-.1l-.1-.1H95l-.3-.2-.1-.1c-.2 0-.3.1-.3.2v.2h.1l.8.4.2.1.3.2h.2Zm0 0"/></g><path fill="#c39d35" d="M78.4 95.9h.2-.2l-.2-.1H77.3v.2h.1l.3-.1h.7ZM91.9 89.6l-.1-.1h-.3l-.2.2v.2h-.1c0 .2-.1.2-.2.3l-.1.3-.1.2-.2.4-.1.3-.4 1-.1.5v.1l-.1.2v.1l-.1.2-.1.1-.1.3-.2.3-.1.3-.1.1-.2.3-.3.3c0 .1 0 .2-.2.2v.2l-.4.2h.8l.1-.1.1-.2.2-.2.2-.3.2-.3.1-.1.3-.6.1-.3v-.1l.1-.3.1-.3.5-1.1.1-.4v-.2l.2-.3V91l.1-.2v-.1h.1l.1-.3.4-.6ZM78.8 62.4c-.4 1.2 0 2.4.6 3.5 0 .1-.2.2-.3 0-.5-1-1-2.3-.5-3.6l.2.1ZM73.1 66c.8.6 1.3 1.6 1.2 2.5 0 .2-.3.2-.3 0 .2-.8-.3-1.7-1-2.2-.2 0 0-.3.1-.2ZM72.7 66.2l.4.6v.1h-.2l-.4-.6v-.2h.2ZM66.3 69.7c.7 1 1.6 1.7 2.6 2.3.1.1 0 .3-.1.2-1.1-.6-2-1.4-2.7-2.4 0 0 .1-.3.2-.1Zm0 0"/><path fill="#c39d35" d="M66 69.8a5 5 0 0 0 1.4 1.6c.2 0 0 .2-.1.2a5 5 0 0 1-1.6-1.7l.2-.1ZM88.5 83c.6-.4 1.3-.8 2-1l.2-.1.3-.1.9-.3H93c.2 0 .2-.2 0-.3-.6 0-1.3 0-2 .3l-.3.1c-.9.4-1.7.8-2.4 1.3-.1.1 0 .3.2.2ZM91.7 82.6a4 4 0 0 1 1.4-.4h.2c.2 0 .1-.3 0-.3H93a4 4 0 0 0-1.5.5c-.1 0 0 .3.1.2ZM74.8 91a44.5 44.5 0 0 1-4.8.6c-.4 0-.8 0-1.1-.2l-.2-.2c-.2 0-.3.1-.2.2l.5.3.8.1h1.6l3.5-.5c.1 0 .1-.3 0-.2ZM69.2 92.4V92l-.1.1v.1h.1ZM76.6 67.4c.6.5 1 1.3.9 2 0 .2-.3.2-.2 0 0-.6-.3-1.4-.8-1.8-.1-.1 0-.3.1-.2Zm0 0"/><path fill="#c39d35" d="M76.5 67.6c.2.3.3.5.3.8v.1h-.2c0-.3-.2-.6-.3-.8v-.1h.2ZM64.8 86.1h-.4c-.8 0-1.6.3-2.3.6H62c-.2.1 0 .3 0 .3l.4-.1.2-.1c.7-.3 1.5-.4 2.2-.4h.1V86ZM79.9 71.5c.4.6.6 1.3.5 2 0 .2-.3.2-.3 0 .2-.6 0-1.3-.4-1.9-.1 0 0-.2.2-.1Zm0 0"/><path fill="#c39d35" d="m79.5 71.3.2.5v.1h-.2v-.2l-.1-.1V71.3h.1ZM75.7 72.7l1 1.2s-.1.2-.2.1l-1-1.1c-.1-.2 0-.3.2-.2ZM75.5 73.1l.4.5v.2h-.2l-.4-.5v-.2h.2ZM91.3 89.6s-.1-.1-.2 0H91l-.2.2-.2.2h-.1l-.1.2h-.1l-.2.2-.2.2-.7.8-.6 1-.2.2v.1l-.2.1a14.8 14.8 0 0 1-.5.8l-.7.6-.1.2h-.1l-.5.3-.4.2h-.3c-.5.2-1.1.3-1.7.2-.5 0-1-.2-1.4-.5l-.4-.2-.2-.1v-.1h-.2s-.1.1 0 .2l.2.1c.6.5 1.3.8 2.1.9.8 0 1.5-.1 2.2-.4h.2v-.1c.2 0 .4-.2.5-.3l.3-.2.2-.1.5-.6.2-.2.3-.4.1-.2.2-.3.2-.2v-.2a8.8 8.8 0 0 1 1.3-1.5l.2-.2.2-.2.3-.3h.1l.1-.2h.1l.1-.1v-.1ZM83.9 95.9l-.5-.2-1.6-1-.2-.2-.1-.1c-.2-.1-.3 0-.2.1v.1l1.3.9.2.1.3.2H84Zm0 0"/><path fill="#c39d35" d="M91.4 90v-.1h-.2l-.1.1-.2.1-.2.3-.3.2-.2.3-.6.8c0 .2-.2.3-.3.5l-.2.4-.2.2v.2l-.1.1-.3.5-.2.3-.5.5v.2l-.6.5-.8.6-.4.2h.6l.3-.2.6-.5.5-.6.1-.1.5-.6.1-.3.3-.4.1-.2.2-.3.3-.5a13 13 0 0 1 .8-1.1l.2-.3.2-.2.3-.2.2-.2.1-.3ZM82.6 95.9l-.2-.1-.3-.1-.1-.1-.6-.2a3.8 3.8 0 0 0-3 .2l-.1.1-.1.1v.1h.2l.4-.2.4-.1.3-.1h.7c.4 0 .8 0 1.2.2l.6.2h.6Zm0 0"/><path fill="#c39d35" d="M91.5 89.5h-.1v.1l-.1.1-.1.1-.1.2-.1.1-.2.3-.2.3-.2.3v.1l-.4.8-.3.6-.2.2-.1.3-.2.3s0 .2-.2.3l-.1.3a6 6 0 0 1-.4.5l-.1.2-.4.4-.1.2a3.6 3.6 0 0 1-.9.6h.5l.2-.2.4-.4.3-.3.2-.3.2-.2.4-.5.1-.3.2-.3.1-.3.2-.3.7-1.3.1-.3.2-.3.1-.3h.1l.1-.3.2-.2.1-.2.2-.2-.1-.1ZM84.6 77.8c.4-.7.4-1.6.4-2.4a11 11 0 0 0-.7-2.5c-.1-.4-.4-1-.7-1.3-.3-.5-.8-.7-1.2-1-.9-.7-1.4-1.6-2.2-2.3-.8-.7-2-1-3-.9-.2 0-.2-.2 0-.2.9-.1 1.9 0 2.7.6 1 .6 1.5 1.6 2.3 2.3l1.4 1 .9 1.5c.3.8.6 1.6.7 2.5.1 1 .1 2-.3 2.8-.1.1-.3 0-.3-.1Zm0 0"/><path fill="#c39d35" d="M84.8 77.7c.2-1 .1-1.8.2-2.7 0-1 .1-1.9-.2-2.7-.4-1-1.2-1.8-2-2.4l-1-.8-1-1.1c-.5-.7-1.3-1.5-2.3-1.4-.2 0-.2-.2 0-.2.8-.1 1.5.3 2 .9.8.7 1.3 1.6 2.1 2.2.5.3.9.6 1.2 1 .4.3.7.7 1 1.2.4.8.6 1.8.5 2.8l-.1 1.5-.1 1.7c0 .2-.3.1-.3 0Zm0 0"/><path fill="#c39d35" d="m84.8 77.7.6-2.6c.1-1 .3-1.9.1-2.8-.1-1-.6-1.8-1.3-2.5l-2.5-2.1-1.2-1c-.4-.3-.8-.5-1.3-.4-.1 0-.2-.2 0-.2.8-.2 1.6.4 2.2 1l2.6 2.2c.4.4.8.7 1 1.2.4.4.6.8.7 1.3.2 1 .2 1.9 0 2.8-.1 1-.3 2.2-.7 3.2 0 .1-.3 0-.2-.1Zm0 0"/><path fill="#c39d35" d="M84.5 78c-.4-1.5-1-3-1.7-4.2-.3-.7-.7-1.3-1.2-1.9l-1-.7c-.5-.3-.8-.6-1.1-1-.7-.8-1-2-2.2-2.4-.1 0 0-.2 0-.2 1 .3 1.5 1.2 2 2 .3.5.7.9 1.1 1.2l1.2.8c.5.5 1 1.1 1.3 1.7a19 19 0 0 1 1.9 4.7c0 .1-.2.2-.3 0Zm0 0"/><path fill="#c39d35" d="M83.1 75c-.6-1.2-1.1-2.3-2-3.2-.5-.5-1-.8-1.6-1.1a5 5 0 0 1-1.4-1.3l-1-1.8c-.1-.2.1-.3.2-.1l1 1.7c.3.5.7 1 1.3 1.3l1.5 1 1.2 1.5 1 1.8c.1.2-.1.3-.2.1ZM70.7 77.4c-.5-.6-.9-1.3-.7-2.1.2-.7.7-1.4 1.1-2a9 9 0 0 1 1.7-1.9c.3-.2.6-.5 1-.6l1.2-.6c.8-.4.9-1.7.7-2.6 0-.1.3-.2.3 0 0 .7 0 1.5-.3 2.2-.4.7-1.2.9-1.9 1.2a9.2 9.2 0 0 0-3.2 3.7c-.3.3-.4.8-.4 1.2 0 .5.4 1 .7 1.4 0 0-.1.2-.2.1Zm0 0"/><path fill="#c39d35" d="M70 77.1c-.3-.6-.4-1.3-.3-2 0-.8.3-1.5.6-2.2.4-.7 1-1.1 1.7-1.6l2.1-1.5c.6-.5 1.2-1.3 1.3-2.1 0-.2.3-.1.3 0-.3 1.5-1.6 2.5-2.8 3.3l-1 .7-1 .7c-.3.3-.4.7-.5 1l-.3 1.1c-.2.9-.2 1.7.2 2.5 0 .2-.2.3-.2.1ZM87 80.5l.3-.9c.2-.4.4-.9.8-1.3.2-.3.5-.6.9-.8l1.2-.5h.2v-.3h-.2a4.1 4.1 0 0 0-2 1v.1l-.2.2-.6.9a12.6 12.6 0 0 0-.7 1.4v.1c0 .2.2.3.3.1Zm0 0"/><path fill="#c39d35" d="M86.7 80.3h.2l.2-.3v-.2l1-1.9h.1l.1-.2.8-1h.1c.3-.3.6-.6 1-.7h.2v-.3h-.2a2 2 0 0 0-.8.5l-.3.3-.8.8-.2.3-.5.8-.7 1.3v.2l-.2.3v.1Zm0 0"/><path fill="#c39d35" d="M86.8 80.3h.2l.1-.4v-.1l.3-1 .2-.4a9.7 9.7 0 0 1 1-2.3c.4-.4.8-.8 1.2-1l.2-.2c.1 0 0-.2 0-.2h-.2l-.1.1-.8.6-1 1.6a15.4 15.4 0 0 0-1 3.1h-.1v.2ZM86.7 78.2c.2-2 .7-3.9 1.5-5.7.1-.1.3 0 .3.1-.9 1.8-1.4 3.7-1.5 5.7h-.3Zm0 0"/><path fill="#c39d35" d="M86.8 77.5c0-2 .3-3.9 1.1-5.7 0-.1.3 0 .2.1a12 12 0 0 0-1 5.6c0 .1-.3.2-.3 0Zm0 0"/><path fill="#c39d35" d="m86.8 76.3-.3-3V72c0-.3 0-.8.4-1 .1 0 .2.2 0 .3-.2 0-.3-.1-.2-.2h.2v.2l-.1.4v.7a29.6 29.6 0 0 0 .3 3.8c0 .2-.3.2-.3 0ZM81.2 81c-.8.8-1.6 2-2.2 3-.7 1-1.1 2.2-1.4 3.4l-.1 2c0 .2-.2.2-.2 0-.2-2.5.9-4.9 2.3-7l1.5-1.7c.1 0 .3.1.1.2Zm0 0"/><path fill="#c39d35" d="M81.2 81c-2.6 1.2-3.8 4-4.4 6.5-.2.8-.3 1.5-.1 2.3 0 .1-.2.2-.3 0a5 5 0 0 1 .1-2l.5-2a9.8 9.8 0 0 1 2.1-3.6 7 7 0 0 1 2-1.4c.1-.1.2 0 0 .2Zm0 0"/><path fill="#c39d35" d="M80.2 81.2a7.9 7.9 0 0 0-3.4 2.7c-.4.6-1 1.2-1.2 1.8-.3.6-.5 1.2-.6 1.9l-.2 2.2c0 .1-.2.1-.2 0 0-1.4.1-2.8.7-4 .3-.7.7-1.3 1.2-1.8l1.4-1.6c.7-.6 1.4-1 2.2-1.4.1 0 .2.2 0 .2Zm0 0"/><path fill="#c39d35" d="M80.2 81.2c-1.3.7-2.5 1.5-3.6 2.4l-1.4 1.6a7.5 7.5 0 0 0-1.3 3.2v.6l-.1.4v.1s0 .1 0 0h-.2l.1.2c-.2 0-.2-.2 0-.2l.1.1-.1.2h-.1c-.1-.1 0-.3 0-.4v-.6l.2-1.2c.2-.7.5-1.5.9-2.1.7-1.3 2-2.3 3.2-3.2L80 81c.2 0 .3.2.2.2Zm0 0"/><path fill="#c39d35" d="M76.5 83.2C74 84.4 73 87 72.9 89.5c0 .1-.3.1-.2 0 .1-2.6 1.2-5.3 3.7-6.5.1 0 .2.2 0 .2ZM85 83.5l.7-4.3c.1-.6.2-1.3.1-2l-.1-.6v-.5c.2-.2.4 0 .3.1v3.2l-.7 4.2H85Zm0 0"/><path fill="#c39d35" d="M85.3 83c.2-1.3.8-2.4 1-3.7v-2c0-.5-.2-1 0-1.6 0-.1.2 0 .1 0l.1 1 .1.8v2c-.2 1.1-.8 2.2-1 3.5h-.3ZM84.4 84l.7-1.8a4 4 0 0 0 .1-1.7c0-1-.4-2.1-.2-3.2 0-.2.3-.1.2 0-.2 1.1.2 2.2.3 3.3l-.1 1.6-.7 1.9s-.3 0-.3-.2Zm0 0"/><path fill="#c39d35" d="M84.7 83.3c-.1-1.5-.2-3-.6-4.4 0-.1.1-.2.2 0 .4 1.4.5 2.9.6 4.3 0 .2-.2.3-.2 0Zm0 0"/><path fill="#c39d35" d="M84.7 84c-.1-.8-.2-1.6-.6-2.2-.1-.4-.4-.7-.6-1l-.7-1c-.1-.1 0-.3.2-.2l.7 1 .7 1L85 84c0 .2-.3.2-.3 0Zm0 0"/><path fill="#c39d35" d="M84.3 84c0-.8-.3-1.5-.7-2.1l-.8-.8-1.1-.6c-.1-.1 0-.3.1-.2l1.2.7.8.8c.5.7.8 1.4.7 2.2 0 .1-.2 0-.2 0Zm0 0"/><path fill="#c39d35" d="m84.5 84.2-.7-1.1c-.2-.3-.5-.5-.9-.7-.6-.3-1.2-.5-1.7-1l.2-.1c.2.2 0 .3-.1.2h-.1c-.1-.2 0-.3.2-.2.5.5 1.2.7 1.8 1 .8.4 1.2 1 1.5 1.8 0 .1-.2.2-.2 0Zm0 0"/><path fill="#c39d35" d="M84.5 84.2a3 3 0 0 0-2-.8h-1.2c-.3 0-.6 0-.8-.3 0-.1 0-.2.2-.1l.4.1H83c.6.2 1.3.5 1.8 1 0 0-.1.2-.2.1Zm0 0"/><path fill="#c39d35" d="M84.6 84.2a6.8 6.8 0 0 0-3.6 0l-1.2.4c-.1 0-.2-.3 0-.3L81 84l1.3-.2c.8 0 1.6 0 2.3.2.2 0 .1.2 0 .2Zm0 0"/><path fill="#c39d35" d="M84.6 84.2c-1 .1-2 .4-3 .8l-1.4.7c-.4.2-.8.4-1.3.4-.1 0-.2-.2 0-.2.5 0 1-.3 1.4-.5l1.3-.6 3-.9v.3Zm0 0"/><path fill="#c39d35" d="M84.3 84.3c-1.2.2-2.2 1-3.1 1.6l-1.4.9a5 5 0 0 1-.8.4c-.1 0-.4.2-.6.1l-.1-.1V87h.2c.2 0 0 .3-.1.2h.1V87l.4-.1.4-.2.7-.4 1.4-1c.8-.5 1.8-1 2.8-1.3.2 0 .2.2 0 .2Zm0 0"/><path fill="#c39d35" d="M84.5 84.3c-.7.3-1.3.6-1.8 1.1l-1.3 1.4c-.9 1-2 1.4-3.2 1.3-.2 0-.2-.3 0-.3.6.1 1.2 0 1.8-.3.6-.2 1-.6 1.4-1.1.4-.5.8-1 1.3-1.3.5-.4 1-.8 1.7-1 .1 0 .2.2 0 .2Zm0 0"/><path fill="#c39d35" d="M83.6 85c-1 .5-1.7 1.6-2.6 2.5-.4.4-1 .8-1.5 1l-.9.4c-.2.1-.5.2-.6.5 0 .2-.3.1-.2 0 0-.6.7-.7 1.2-.9.7-.2 1.3-.6 1.8-1.1 1-1 1.6-2 2.8-2.7 0 0 .2.2 0 .2ZM80.4 81.2c-1.5.3-2.5 1.4-3.2 2.7a9.9 9.9 0 0 0-1 5.8c0 .2-.2.2-.2.1l-.1-.2c-.1-.1.1-.2.2 0v.1H76c-.1-1.3 0-2.6.3-4a8 8 0 0 1 2-3.6c.6-.5 1.3-1 2.2-1.1.2 0 .2.2 0 .2ZM66 77.8a7.8 7.8 0 0 0-5.7-.7c-.1 0-.2-.2 0-.2a8 8 0 0 1 5.9.7c.1.1 0 .3-.2.2Zm0 0"/><path fill="#c39d35" d="M66.3 77.8c-2-.2-4 1-6 .4 0 0 0-.3.2-.2 1.9.6 3.8-.6 5.8-.4.2 0 .1.3 0 .2Zm0 0"/><path fill="#c39d35" d="M66.2 78a6.1 6.1 0 0 0-3.9 1.4l-.5.4-.7.4-.1-.2h.1c.2-.1.3.1.1.2h-.1c-.1 0-.3 0-.2-.1l.5-.4.7-.4 1.2-.9c.9-.4 1.9-.7 2.9-.7.2 0 .2.2 0 .2Zm0 0"/><path fill="#c39d35" d="M66.3 78c-2 0-3 2.1-4.4 3.4 0 0-.2 0-.1-.2v-.1c.1-.1.3 0 .2.1v.2l-.2-.2c1.3-1.3 2.4-3.4 4.5-3.5.1 0 .2.3 0 .3ZM65.7 77.5c-1.2-1.3-3-1.6-4.4-2.5-.2-.1 0-.3 0-.2 1.5 1 3.4 1.3 4.6 2.5.1.1 0 .3-.2.2Zm0 0"/><path fill="#c39d35" d="M66.1 77.6c-1.3-1.3-2.2-3-2.7-4.6 0-.2.2-.2.2 0a11 11 0 0 0 2.7 4.4c.1.2 0 .3-.2.2ZM88.5 74h.1l.1-.1.2-.2.1-.1 1.1-.8 1.1-.5c1-.4 2-.6 3.1-.8.1 0 .1-.2 0-.2-1 .1-2 .3-2.9.7l-1 .4-1.3.8-.1.1-.2.2h-.1v.1h-.1l-.1.2h-.1v.1c-.1.1 0 .2.1.2Zm0 0"/><path fill="#c39d35" d="M88.5 73.6h.1v-.1l.1-.1.1-.2.4-.4.2-.3c.4-.4 1-.7 1.5-1l.2-.1 1.1-.5.4-.2a4.4 4.4 0 0 1 1.3-.4h.4v.1c.3 0 .3-.2.1-.3h-1l-.9.3-1 .6h-.3l-1.3.8-.6.5-.1.1-.3.3-.1.2h-.1v.2c-.2 0-.2.1-.3.2V73.6ZM88.4 73.9H89l.2-.1.5-.2.8-.1c1.2-.2 2.4-.2 3.6.1.2 0 .3-.2.1-.2h-.1a9.9 9.9 0 0 0-3.5-.2l-.8.1-.8.3-.4.1h-.1v.1Zm0 0"/><path fill="#c39d35" d="M88.6 73.9h.2a18.6 18.6 0 0 0 .7.2 4.5 4.5 0 0 1 1.4.5c.4.3.8.5 1 .8l.7 1h.1c.1.2.3 0 .2 0v-.2h-.1l-.8-1-1-.8-.8-.4-.6-.2h-.8l-.1-.1h-.1v.2Zm0 0"/><path fill="#c39d35" d="M89 73.8c.6.5 1.3 1 1.8 1.7a5 5 0 0 1 1 2.3h-.2c-.2-.2 0-.4 0-.3.2.1.2.2.2.4 0 .1-.2.1-.2 0-.1-.8-.5-1.6-1-2.3a9.8 9.8 0 0 0-1.8-1.6c-.1 0 0-.3.1-.2ZM88.4 73.5c.2-1.2.4-2.4.4-3.5l-.3-1.8-.4-1.8c0-.2.2-.2.2 0l.5 1.8.2 1.8-.3 3.5c0 .2-.3.2-.3 0ZM88.8 73.4a23 23 0 0 1 2.4-6.3c0-.1.3 0 .2.2-1.1 1.9-1.9 4-2.4 6.1 0 .2-.3.2-.2 0Zm0 0"/><path fill="#c39d35" d="M88.6 73.5h.2l.1-.2.2-.3.3-.5.6-.7 1-1.2c.6-.6 1.3-1.4 2.2-1.8l.5-.2H94v-.3h-.4c-1.1.5-2 1.3-2.8 2.1l-1.5 1.9-.1.1-.3.5-.2.2v.4Zm0 0"/><path fill="#c39d35" d="M88.6 73c0-2.2 0-4.7-1.3-6.6 0-.2.1-.3.2-.2 1.4 2 1.4 4.5 1.4 6.9h-.3ZM67.8 88.8h-.1l-.1.1-.1.2-.1.3-.1.3v.6l-.1.5V92l.1.6.1.2v.2c0 .2 0 .3.2.3.2-.2.1-.3.1-.4v-.3l-.2-.6v-2l.1-.4v-.1l.1-.3v-.1h.1V89c.1 0 0-.2 0-.2Zm0 0"/><path fill="#c39d35" d="m68.9 93.7-.1-.5V93l-.1-.1v-.2l-.1-.3-.1-.3-.1-.4-.2-.5V91l-.1-.4v-.3l-.1-.3V89c0-.2-.1-.2-.2-.1v1.6l.2.5v.3l.2.5v.4l.2.3v.3l.1.3V93.3l.1.1v.4h.3ZM67.5 88.4h-.1v.1l-.1.2-.6 1.1-.1.3a5.6 5.6 0 0 0-.3.9l-.1.7v.3c-.1.2.1.3.2.1v-1h.1l.1-.4.2-.5.2-.3.3-.6v-.2l.2-.2v-.4c.1 0 0-.1 0-.1Zm0 0"/><path fill="#c39d35" d="m67.4 88.2-.3.1-.1.1c-.6.3-1 .7-1.4 1.2l-.2.3-.3.6-.2.2v.2c0 .2 0 .3.2.2l.1-.2v-.1l.1-.3.4-.6.2-.3c.3-.4.7-.8 1.2-1l.1-.1h.2v-.1c.1-.1 0-.2 0-.2Zm0 0"/><path fill="#c39d35" d="M67 88h-.1l-.2.1c-.8.2-1.6.7-2.3 1.3l-.3.3-.2.2v.2h.2l.2-.1v-.1l.1-.2.3-.3c.6-.5 1.4-.9 2.2-1h.1v-.1c.2 0 .1-.3 0-.2ZM66.8 87.7h-1.1a5.7 5.7 0 0 0-1.2.4l-.6.3a6.4 6.4 0 0 0-1 .6s-.2.1-.2.3v.1h.1l.1-.1.2-.1.3-.2.2-.1.3-.2.8-.4h.1c.5-.3 1.1-.4 1.7-.4h.3c.2 0 .2-.2 0-.2Zm0 0"/><path fill="#c39d35" d="M66.5 87.5h-.3c-1.3 0-2.6.2-3.8.8h-.1c-.2.1 0 .4 0 .3h.2c1-.6 2.1-.8 3.2-.9H66.6l-.1-.2ZM66.3 87l-.8-.2-1.3-.1-1.5.1-.4.2h-.2l-.3.2c-.1 0 0 .3.1.2h.2c.1-.2.3-.2.5-.3A7 7 0 0 1 64 87c.6 0 1.2 0 1.7.2l.3.1c.2.1.3 0 .2-.2ZM65.6 86.6c-1-.5-2.4-1-3.6-.5-.1 0-.3-.2 0-.2 1.2-.6 2.6 0 3.8.5.1.1 0 .3-.2.2ZM64.5 85.5c-.6-.5-1.3-.8-2-.8-.2 0-.2-.2 0-.2.8 0 1.6.3 2.2.9v.2h-.2ZM64 84.5l-.6-.5-.8-.3c-.1 0-.2 0-.1-.1l.1-.1 1 .3.6.6c0 .2-.2.3-.3.1Zm0 0"/><g clip-path="url(#R)"><path fill="#c39d35" d="M95.9 78.1v-.3h-.5c-1-.2-2-.3-2.9-.1h-.4l-.3.1-.1.1-.4.2-.2.2c-.2.1 0 .3.1.2h.1v-.1h.2v-.1l.2-.1.3-.1.4-.2h1l2 .1h.3l.2.1Zm0 0"/></g><g clip-path="url(#S)"><path fill="#c39d35" d="M95.7 77h.2v-.2h-.7c-.8 0-1.7.1-2.4.4h-.2l-.3.1h-.1l-.4.3-.2.2-.3.3v.2h.2v-.1a2.2 2.2 0 0 1 .6-.5l.5-.2c.9-.4 1.9-.4 2.7-.4h.4Zm0 0"/></g><g clip-path="url(#T)"><path fill="#c39d35" d="M95.9 75.7v-.2h-.3l-1.6.6-1.1.7c-.1 0-.3 0-.4.2a4.2 4.2 0 0 0-1 .6l-.2.4v.1h.2l.1-.2h.1l.1-.2.7-.5h.2a28.7 28.7 0 0 1 3-1.4h.2Zm0 0"/></g><g clip-path="url(#U)"><path fill="#c39d35" d="M95.9 79.1V79h-.2c-1.1-.4-2.3-.5-3.4-.7h-.9v.2h.8a24.7 24.7 0 0 1 3.5.6l.2.1Zm0 0"/></g><g clip-path="url(#V)"><path fill="#c39d35" d="m95.7 80.5.2.2v-.3l-.3-.2-.4-.3-.3-.2-2.8-1.1-.2-.2c-.2 0-.3-.1-.3-.2h-.2s-.1.1 0 .1v.1l.4.2a1.7 1.7 0 0 0 .3.2h.2l.2.1h.1c.2.2.4.2.7.3l1.7.8.2.1.3.2.2.2Zm0 0"/></g><g clip-path="url(#W)"><path fill="#c39d35" d="M95.9 82.7v-.5l-.2-.2-.4-.4-.3-.3-.2-.2a1618.5 1618.5 0 0 0-2.4-2.1l-.3-.3h-.2v.2l.8.6v.1l.6.4.5.4.9.9.2.2.3.3.2.3.2.2.3.4Zm0 0"/></g><g clip-path="url(#X)"><path fill="#c39d35" d="M95.9 84.8v-.5l-.2-.4-.5-1-.2-.2v-.2l-.3-.4-.1-.4a14.1 14.1 0 0 0-1.7-2.3l-.3-.3-.5-.4-.3-.2-.3-.2-.2.1v.1l.4.3h.2l.1.2c.3.1.5.4.7.6l.3.2.1.2c.6.6 1 1.3 1.4 2l.2.4c0 .1 0 .3.2.4l.1.3v.1l.2.4.5.9c0 .1 0 .3.2.4Zm0 0"/></g><g clip-path="url(#Y)"><path fill="#c39d35" d="M95.9 87.7v-.6l-.1-.3-.1-.3v-.2l-.2-.2V85.5c-.2-.4-.2-.7-.2-1.1v-.5l-.2-.6V83l-.2-.3-.2-.4c0-.1 0-.3-.2-.4l-.3-.6a11.2 11.2 0 0 0-2-2.3v-.2l-.2-.1-.2-.1v-.1l-.2-.2h-.1l-.1-.1-.1-.1c-.2-.1-.3 0-.2.2l.2.1.1.1.4.3.3.2.9 1 .2.3.7.8c0 .3.2.5.3.7l.2.4.2.4.2.4.2.7v.2l.1.5v.6a5 5 0 0 0 .3 1.2v.1l.3.7v.3l.2.3c-.1 0 0 0 0 .1Zm0 0"/></g><path fill="#c39d35" d="M94.4 83.4v-.3l-.2-.7-.1-.5c0-.3-.2-.6-.3-.8l-.8-1.3-.2-.2-.7-.8a8811.5 8811.5 0 0 1-.6-.5v-.1h-.2v.2a5.2 5.2 0 0 1 .7.6c.4.4.8.8 1 1.3l.5.6a5.5 5.5 0 0 1 .6 2.7v1l-.3 2.2v1.1l.1.9v.1c0 .2.3.2.3 0V88.6l-.1-.9v-2l.2-1.8v-.5ZM78 82.2a3.7 3.7 0 0 1-1.6-1.2 2 2 0 0 1-.3-.6c0-.1.2-.1.2 0 0 .2.2.4.4.5 0 .2.2.3.4.4l1 .7c.2 0 0 .3 0 .2Zm0 0"/><path fill="#c39d35" d="m78 82.5-1.7-1c-.5-.2-1-.7-1-1.2-.1-.1 0-.2.1-.2l.1.1c.1.1 0 .3-.1.2h-.1l.2-.2c.1.6.6 1 1 1.2l1.6.8v.3Zm0 0"/><path fill="#c39d35" d="M78 82.3v-1l-.1-.8c0-.1.2-.2.2 0l.2.9v.9H78Zm0 0"/><path fill="#c39d35" d="M78 82.4c.1-.4.4-.6.7-1 .2-.2.5-.5.6-.9 0-.1.3-.1.2 0-.2.8-1 1.3-1.3 2 0 .1-.3 0-.2-.1Zm0 0"/><path fill="#c39d35" d="m78.3 82 .6-.5.8-.5.8-.4c.3 0 .5-.1.7-.4 0 0 .3 0 .2.2l-.6.4-.8.3-.7.5-.7.5c-.2.1-.4 0-.3-.2Zm0 0"/><path fill="#c39d35" d="m81.1 80.6.3-.2.2-.1.1-.2h.2v.2l-.3.3-.3.2H81v-.2ZM77 82.6c-.3.3-.6.4-1 .4h-3.4c-1.5.2-3 .4-4 1.5-.6.5-1 1.1-1 1.8 0 .2-.3.2-.3 0 .2-1.2 1-2.2 2.2-2.8 1.4-.7 3-.7 4.6-.7h1.4c.4 0 1 0 1.3-.4.1 0 .3.1.2.2Zm0 0"/><path fill="#c39d35" d="M77 82.7c-1.3.3-2.6 0-4-.1-1.4-.2-3 0-4.3.7-.8.4-1.5 1-1.9 1.7 0 .1-.3 0-.2 0 .7-1.5 2.2-2.2 3.7-2.6l2.2-.2c.7 0 1.4.2 2 .3l2.5-.1c.1 0 .2.2 0 .3Zm0 0"/><path fill="#c39d35" d="M77.2 82.6c-3 .6-5.8-1-8.7-.4-.8.2-1.6.6-2.2 1.1-.1.1-.3 0-.2-.2 1.1-1 2.6-1.3 4-1.2 1.5 0 3 .4 4.5.6l2.5-.1c.2 0 .2.2 0 .2Zm0 0"/><path fill="#c39d35" d="M76.6 82.7c-.5.4-1.2.5-1.8.6l-2 .5c-1.3.3-2.6.8-3.4 1.8-.4.5-.8 1-.9 1.7 0 .1-.2.1-.2 0 .2-1.2 1-2 2-2.7 1-.8 2.5-1 3.8-1.4l1.2-.2c.4 0 .8-.2 1.2-.4 0-.2.2 0 0 .1Zm0 0"/><path fill="#c39d35" d="M76 83.1c-2.2.8-5 1.8-5.8 4.3l-.1.4-.1.4c-.1.2-.3.1-.3-.1V88c.2 0 .3.2.2.2V88h-.1v-.5l.2-.4.4-.9 1.3-1.4c1.2-1 2.8-1.5 4.3-2 0 0 .2.2 0 .2Zm0 0"/><path fill="#c39d35" d="M77.3 82.4c-1.7-.3-3.4-1-4.8-1.9-1.4-.9-3-2.3-4.9-1.8-.9.2-1.7.9-2.2 1.6-.6.7-.7 1.5-.5 2.4a6 6 0 0 0 1.3 2.3l.9 1.2.7 1c.3.4.6.8 1 1 .4.3.8.4 1.2.5.8.2 1.6.2 2.3.6.2.1 0 .3-.1.2-.7-.4-1.5-.4-2.3-.6-.3 0-.7-.1-1-.3a4 4 0 0 1-1-.8l-.8-1.1-.9-1.2a8.2 8.2 0 0 1-1.5-2.3c-.2-.8-.3-1.6 0-2.4.4-.8 1.1-1.4 1.9-1.9.8-.5 1.6-.6 2.5-.4a7 7 0 0 1 2.4 1c1 .7 1.8 1.3 2.8 1.7 1 .4 2 .8 3 1 .1 0 .1.2 0 .2Zm0 0"/><path fill="#c39d35" d="M77.2 82c0 .5-.8.3-1.1.3l-1.7-.4c-1.2-.2-2.1-.9-3.1-1.4-1-.4-2.1-.8-3.2-.5-.6.3-1 .7-1.5 1.1-.3.5-.6 1-.7 1.5 0 .6.2 1.1.4 1.7l.9 1.8c0 .1-.2.2-.3 0l-.8-1.6c-.2-.5-.4-1-.4-1.5-.2-1 .5-2 1.4-2.6a3 3 0 0 1 1.4-.7c.6-.1 1 0 1.6.1 1 .3 2 1 3 1.4.7.3 1.3.5 2 .6l1 .2s.9.2.9 0c0-.1.2-.1.2 0Zm0 0"/><path fill="#c39d35" d="m70 89.5 3.4.4h.2v-.2h-.1l-1-.1h-.4l-.6-.2-1.6-.2c-.4 0-1-.1-1.3-.5-.4-.3-.6-.7-.9-1.1l-.8-1-1-1a5.5 5.5 0 0 1-1.4-2.4c-.2-.8-.3-1.8 0-2.6.4-.9 1.3-1.5 2-2 .9-.4 1.8-.7 2.7-.5.9.2 1.6.7 2.3 1.2l2.4 1.6a13.1 13.1 0 0 0 2.4 1c.2 0 .3-.2.1-.2a11.6 11.6 0 0 1-3-1.4c-1-.6-1.8-1.4-2.8-1.9-.7-.4-1.5-.7-2.4-.6a5 5 0 0 0-2.6 1.2c-.4.3-.9.8-1.2 1.3l-.3.8v.2c-.1.9 0 1.8.4 2.6a6 6 0 0 0 1.6 2.3l1 1 .8 1.2.4.4c0 .2.3.3.4.4l1.4.3Zm0 0"/></svg>