<svg xmlns="http://www.w3.org/2000/svg" width="128" height="128" version="1.0" viewBox="0 0 96 96"><defs><clipPath id="a"><path d="M88 13h8v3h-8Zm0 0"/></clipPath><clipPath id="b"><path d="M84 0h12v5H84Zm0 0"/></clipPath><clipPath id="c"><path d="M94 9h2v3h-2Zm0 0"/></clipPath><clipPath id="d"><path d="M92 18h4v3h-4Zm0 0"/></clipPath><clipPath id="e"><path d="M94 6h2v3h-2Zm0 0"/></clipPath><clipPath id="f"><path d="M94 1h2v2h-2Zm0 0"/></clipPath><clipPath id="g"><path d="M87 21h9v4h-9Zm0 0"/></clipPath><clipPath id="h"><path d="M85 24h11v4H85Zm0 0"/></clipPath><clipPath id="i"><path d="M85 23h11v5H85Zm0 0"/></clipPath><clipPath id="j"><path d="M88 14h8v5h-8Zm0 0"/></clipPath><clipPath id="k"><path d="M89 14h7v4h-7Zm0 0"/></clipPath><clipPath id="l"><path d="M89 14h7v3h-7Zm0 0"/></clipPath><clipPath id="m"><path d="M92 14h4v2h-4Zm0 0"/></clipPath><clipPath id="n"><path d="M89 14h7v5h-7Zm0 0"/></clipPath><clipPath id="o"><path d="M92 11h4v4h-4Zm0 0"/></clipPath><clipPath id="p"><path d="M91 10h5v5h-5Zm0 0"/></clipPath><clipPath id="q"><path d="M92 12h4v3h-4Zm0 0"/></clipPath><clipPath id="r"><path d="M92 13h4v2h-4Zm0 0"/></clipPath><clipPath id="s"><path d="M91 7h5v8h-5Zm0 0"/></clipPath><clipPath id="t"><path d="M91 8h5v7h-5Zm0 0"/></clipPath><clipPath id="u"><path d="M92 7h4v7h-4Zm0 0"/></clipPath><clipPath id="v"><path d="M91 27h5v69h-5Zm0 0"/></clipPath><clipPath id="w"><path d="M74 56h22v40H74Zm0 0"/></clipPath><clipPath id="x"><path d="M51 62h45v34H51Zm0 0"/></clipPath><clipPath id="y"><path d="M70 68h26v28H70Zm0 0"/></clipPath><clipPath id="z"><path d="M26 61h70v35H26Zm0 0"/></clipPath><clipPath id="A"><path d="M9.2 49H29v13H9.2Zm0 0"/></clipPath></defs><path fill="#c39d35" d="M87.4 10.8h.7c.2.2.3.4.2.6V12.2c.4 0 .5-.4.7-.6.4-.4 1-.5 1.4-1 .2 0 .3-.3.2-.5 0-.2-.3-.3-.6-.4-.8-.2-1.8.1-2.5.7l-.2.4Zm0 0"/><path fill="#c39d35" d="M87.3 14.3c-.3-1.2-.4-2.5.3-3.6l.6-.5.9-.3.9.1s.2 0 .2.2v.3c.2.2.5 0 .4-.1 0-.2 0-.4-.2-.6l-.7-.2c-.5 0-1 0-1.5.2-1 .4-1.4 1.6-1.5 2.6 0 .7.1 1.3.3 2 0 .2.4.1.3-.1Zm0 0"/><path fill="#c39d35" d="M87 11.5c-.1.2 0 .5.1.8l.5.6.7.2.9.2.1-.3-.2-.1-.6-.1-.6-.2a.8.8 0 0 1-.4-.5l-.2-.6c0-.3-.4-.3-.4 0Zm0 0"/><path fill="#c39d35" d="M90 9.7c.7 0-1.2-.5-1.9-.5l-.7.1a1 1 0 0 0-.6.6v.5c0 .5 0 .9.2 1.3 0 0 .5-2.1 3-2Zm0 0"/><path fill="#c39d35" d="M85.6 14.3c-.3-.7-.4-1.4-.4-2.2l.1-2.5c.1-.8.5-1.6 1-2.1 1-.7 2.1-.4 3-.1L91 8c.5.3 1 .8 1.2 1.3.1.2.5 0 .3-.2-.3-.4-.6-.9-1-1.2L90 7.2c-1-.4-2.3-.8-3.4-.3-.8.4-1.3 1.3-1.6 2.2-.2.8-.2 1.7-.2 2.6 0 1 .1 1.9.4 2.8 0 .2.4 0 .4-.2Zm0 0"/><path fill="#c39d35" d="M85.6 14.4c-.4-.3-.6-.9-.8-1.3l-.3-.8-.3-.7-.2-1.2.3-1 .4-1.1.2-1.2.3-1.2.4-1c.2-.4.5-.7.8-.7.4-.1.7 0 1 .2.2.2.6.4.9.4h1c.8-.1 1.4-.2 2.1 0 .7.3 1.5.7 2 1.3.3.3.5.7.5 1 0 .5 0 1-.2 1.4 0 .2.3.4.4.1.2-.7.3-1.6-.1-2.3-.4-.7-1-1.2-1.7-1.5a4 4 0 0 0-2.2-.5c-.7 0-1.5.3-2.2 0l-1-.5c-.3-.1-.7 0-1 .2-.7.4-.9 1.3-1.1 2l-.3 1.3-.3 1.3c0 .4-.3.8-.5 1.2v1.1c0 .5.1.8.3 1.2l.4.9.4 1 .4.7c.2.2.5 0 .4-.3Zm0 0"/><path fill="#c39d35" d="M86.7 7.3c.5-.6 1.2-1 2-1.3h1.1c.4 0 .8.2 1.2.4l1.2.3c.3 0 .7.2 1 .5.2.2.3.6.3 1l-.3 1-.8 1-.6 1.2c-.1.3.2.4.3.2.2-.5.3-.9.6-1.2l.8-1c.2-.4.4-.7.4-1.2a1.8 1.8 0 0 0-1.2-1.8c-.5-.1-1-.1-1.3-.3L90 5.7c-.4-.2-.8-.2-1.2-.1-1 .2-1.8.7-2.5 1.4v.3h.3Zm0 0"/><path fill="#c39d35" d="M87.7 15c.5 0 1-.2 1.5-.5l1.3-.9c.5-.3 1-.7 1.3-1.1l1.4-1.3c.2-.2 0-.5-.2-.3l-2.6 2.4-1.3.9c-.5.2-1 .5-1.4.5-.3 0-.2.3 0 .3ZM85.5 4.2a8 8 0 0 0-1.7 0l-.7.1c-.2.1-.3.3-.3.5s0 .4-.2.6l-.4.5c-.3.3-.5.7-.6 1.2v3.3a8 8 0 0 0 1.1 3.1c.6 1.1 1.3 2.2 2.2 3 .1.2.4 0 .2-.2a15.4 15.4 0 0 1-3-5.3L82 9.4V7.8c0-.4 0-1 .2-1.3l.8-1c0-.2 0-.4.2-.6 0-.3.2-.3.5-.3a8 8 0 0 1 1.8 0c.2 0 .2-.4 0-.4Zm0 0"/><path fill="#c39d35" d="M83.1 14c.7 0 1.3.3 2 .6l.8.4h2.3l1 .6.9.7 1 .5 1.3.7c.2 0 .3.2.5.3l.3.3.1.1c0 .1.1 0 .1 0-.2 0 0 .4.2.2.6-.3-1.2-1.4-1.4-1.5l-1.2-.6-1.2-.7-1-.7c-.3-.2-.7-.3-1-.3h-1.3a3 3 0 0 1-1-.2c-.8-.4-1.5-.9-2.4-.9-.2 0-.2.4 0 .4Zm0 0"/><g clip-path="url(#a)"><path fill="#c39d35" d="M88.3 14.9c0 .1.1.2.2.1H88.8l.2-.2h.3l.2-.1h2.6l.5-.2.3-.1.7-.2h.1c.7-.3 1.5-.4 2.1 0l.2.1V14l-.5-.2c-.3-.1-.6-.2-.9-.1H94l-.5.2H93l-.3.2h-.3v.1l-.4.1h-.2l-.3.1h-2.1l-.8.2-.3.2h-.1v.1Zm0 0"/></g><path fill="#c39d35" d="m91.8 14.6 1.5-1.2 1.1-1.7c.2-.2 0-.5-.2-.3-.5.5-.7 1-1.1 1.6-.4.5-.9 1-1.5 1.3-.2 0 0 .4.2.3Zm0 0"/><path fill="#c39d35" d="M91.1 14.7a2 2 0 0 0 1-.8c.3-.4.6-.8.7-1.3l.2-.7c0-.3 0-.5.2-.8l.6-1.5.8-1.7c.1-.2-.2-.4-.3-.2l-1.3 3-.4 1.3-.5 1.3c-.3.4-.6.8-1 1-.2 0-.2.5 0 .4Zm0 0"/><g clip-path="url(#b)"><path fill="#c39d35" d="M85 4.3v-.1A3.3 3.3 0 0 1 87.2 2h.5l.1-.1h.1l.7-.4.6-.6c.5-.3 1-.5 1.6-.4l.8.2.9.3.8.2.2.1h.1l.2.2.2.1c.5.3.8.7 1.1 1.1L96 4v-.7A9.6 9.6 0 0 0 95 2V2c-.4-.4-.8-.8-1.3-1l-2-.7-.9-.2a2 2 0 0 0-.9 0c-.6.3-1.1.6-1.5 1l-.3.4h-.5l-.6.2h-.2l-.3.2c-1 .4-1.7 1.2-2 2.2 0 .3.4.4.4.2Zm0 0"/></g><g clip-path="url(#c)"><path fill="#c39d35" d="M96 9.5v-.4a2 2 0 0 0-.5.3 3.5 3.5 0 0 0-.5.8l-.4.7v.1l-.4.4v.3h.2l.7-1c.3-.4.4-.9.9-1.2Zm0 0"/></g><g clip-path="url(#d)"><path fill="#c39d35" d="m92.5 20.5.2-.1c.3-.7 1-1 1.7-1.1a5.9 5.9 0 0 0 1.6-.7v-.4h-.2l-.1.1-.2.2h-.2v.1l-.4.1h-.2l-.3.2H94v.1c-.7.2-1.3.5-1.6 1l-.1.2c0 .2 0 .3.2.3Zm0 0"/></g><g clip-path="url(#e)"><path fill="#c39d35" d="M94 8.1h.1v.1h.4v-.4h.1l.3-.3.7-.4.4-.1v-.4a3.5 3.5 0 0 0-1.7 1l-.1.2c-.1 0-.2.2-.1.3Zm0 0"/></g><g clip-path="url(#f)"><path fill="#c39d35" d="M95.1 2.4h.2l.7-.1v-.4a7.8 7.8 0 0 0-1 .1c-.2.1 0 .5.1.4Zm0 0"/></g><path fill="#c39d35" d="M86.8 2c-.6-.3-1.1-.6-1.7-.7-.7 0-1.3 0-1.9.3l-1.4.8-1.3.8-1 1.2-.3 1.4a7.1 7.1 0 0 0 .2 2.5l.1.6a10.6 10.6 0 0 0 1 2.4l.4.6c.2.2-.1.5-.3.3l-.9-1.6-.2-.5a10.7 10.7 0 0 1-.6-2V5.1c0-.4.3-.9.5-1.3.3-.5.7-.9 1.1-1.2a13.7 13.7 0 0 1 3-1.6c.7-.2 1.2-.2 1.8-.1.6.1 1.1.4 1.6.6.2.1 0 .5-.1.4Zm0 0"/><path fill="#c39d35" d="M81.4 10.5c-.4.3-.7.8-.9 1.3-.1.5 0 1 .4 1.4l1.3 1.2a90.5 90.5 0 0 0 2.8 2.4c.1.2.4 0 .2-.2l-1-1.2-.7-.4-.7-.5-1.2-1.2c-.4-.3-.8-.6-.8-1.2s.5-1 .8-1.4v-.3h-.2Zm0 0"/><path fill="#c39d35" d="M92.5 20.5a1618.5 1618.5 0 0 0-.4-.3l-.2-.1a5 5 0 0 1-.3-.3l-.7-.6c-.5-.3-1.1-.1-1.7-.2-1-.1-2-.6-2.9-1l-1.5-.7-.5-.2H82l-.3-.2c-.4-.2-.7-.7-1-1v-.3l-.1-.6a2 2 0 0 1 .2-1l.1-.2.2-.2h.1l.1-.1c.3-.2.4.2.2.3-.2 0-.3.2-.4.4l-.2.4v.4l.1.4.1.2a2.5 2.5 0 0 0 .4.6l.2.2c.2.2.4.3.7.3H84.7l.4.2 1 .5.3.1.5.2.4.2h.1l.2.2h.3v.1H88.3l.1.1h.1l.2.1h.3l.2.1h.7l.7.1h.3l.5.4.5.4.6.6c.2.2.2.4.1.5Zm0 0"/><path fill="#c39d35" d="M94.1 24v.1a6.9 6.9 0 0 1-1.8.6 18.6 18.6 0 0 1-1.6.3h-2l-1-.2h-.2l-.4.1h-.9l-.4-.1c-1-.4-2-1.1-2.7-1.9l-.3-.2-.4-.5a6 6 0 0 1-1.1-2l-.2-.6V19l.1-.8V18l.1-.1.2-.3v-.1l.1-.1h.1l.4-.4c.3-.2.6-.4 1-.4.2 0 .2.3 0 .4-.6 0-1.1.4-1.4 1v.1l-.1.3a2.9 2.9 0 0 0 .1 1.7v.2l.2.3v.2l.6.8 1.2 1.3 1.3 1c.5.3 1 .6 1.6.6h1.9a11.9 11.9 0 0 0 2 0h.6a9 9 0 0 0 2-.4s.2 0 .3-.2l.7-.2h.2v.2h-.2Zm0 0"/><g clip-path="url(#g)"><path fill="#c39d35" d="M88 22h.5l1 .7a5.8 5.8 0 0 0 3.6 1.3H94.5l.6-.1h.3l.5-.2v-.4h-.3l-.2.1-.7.1h-.3a7 7 0 0 1-.9.1h-1l-1-.3c-.7-.2-1.3-.6-1.9-1-.4-.3-1-.7-1.5-.7h-.2c-.2 0-.1.4.1.3Zm0 0"/></g><path fill="#c39d35" d="M81.5 17.8v-.1h-.2v-.1l-.3-.1h-.2l-.4-.1H80l-.3-.1h-.2l-.8-.3a4 4 0 0 1-1-.7l-.2-.2V16l-.4-.4c0-.2-.2-.3-.4-.5l-.5-.5a2 2 0 0 1-.4-.6l-.4-1.4v-.7l.2-.8 1-1.2.1-.2.8-.8.2-.2 1-.9.1-.1c.2-.1.4.1.2.3l-.2.2-.2.1-.2.3-.2.1-.2.2-.2.2-.8.9-.2.2-.2.2c-.3.3-.6.7-.8 1.2v1.3l.2.6v.2h.1l.3.6.2.1.3.3.5.6.1.2.1.2.4.3.2.3a4.3 4.3 0 0 0 1.2.5H79.8l1 .2h.2l.7.4h.1c.2.2 0 .5-.2.4Zm0 0"/><path fill="#c39d35" d="M86.3 25H86l-.3.2c-.2 0-.3 0-.4.2l-.7.3-.3.2-1 .3h-.9a5.5 5.5 0 0 1-3.6-1.2 8.8 8.8 0 0 1-1-.8l-1.3-1.3a3.8 3.8 0 0 1-.5-.7l-.2-.4-.2-.6V21l-.1-.4v-1l.4-.9.2-.4.1-.2.1-.3.5-.8.2-.5.3-.5c.2-.1.3 0 .3.2 0 .3-.2.4-.3.6l-.3.5-.3.6-.1.3-.2.3c-.2.5-.5 1-.5 1.5v.3a2.6 2.6 0 0 0 .1 1v.1l.2.2V21.9c.2.1.2.3.3.4l.5.5.3.4.2.2 1.2 1 .1.2h.1l.2.2.8.5.2.1h.2l.8.4h2.5l.5-.2h.1l.3-.2.4-.2.3-.2a4.9 4.9 0 0 1 1-.4l.1.2-.1.3Zm0 0"/><g clip-path="url(#h)"><path fill="#c39d35" d="M85.8 25.2h.2l.6.4.5.3.1.1.3.2.7.6.2.1.2.2a6 6 0 0 0 1.3.7l.4.1H90.6l.2.1h.9c.3 0 .5-.2.7-.3a10.5 10.5 0 0 0 2.6-1.2 4.8 4.8 0 0 0 .9-1v-.8V25l-.6.8h-.1l-.2.2a17 17 0 0 1-3.4 1.6h-1.1l-.4-.2-.6-.2a8 8 0 0 1-.6-.4c-.2 0-.2-.1-.3-.2a3 3 0 0 1-.4-.3l-.6-.5-.5-.4H87l-.4-.3H86.3v-.2h-.1c-.3 0-.4.1-.4.3Zm0 0"/></g><path fill="#c39d35" d="M79.3 4.4c0 1 .6 1.7 1.2 2.3 0 0 .2 0 .2-.2-.6-.5-1.2-1.2-1.2-2 0-.2-.2-.2-.2 0Zm0 0"/><path fill="#c39d35" d="M79.4 4.2c0 .3.2.7.4 1h.1V5l-.3-.8c0-.1-.2 0-.2 0ZM82.4 1.9c.8.5 1 1.5 1.1 2.4 0 .1.2.1.2 0 0-1-.4-2-1.1-2.6-.1 0-.3 0-.2.2Zm0 0"/><path fill="#c39d35" d="m82.8 1.6.4.8h.1s.1 0 0-.1c0-.3-.2-.5-.3-.8h-.2v.1ZM87.5 1.8a2 2 0 0 0 .4 2c0 .2.2 0 .1 0-.4-.5-.5-1.3-.3-2 0 0-.1-.1-.2 0Zm0 0"/><path fill="#c39d35" d="M87.8 1.7v.7l.2-.1v-.7h-.2ZM93.3 1.2c0 1-.2 1.9-.6 2.7 0 0 .1.1.2 0 .4-.8.6-1.7.6-2.7h-.2Zm0 0"/><path fill="#c39d35" d="M93.6 1.2c0 .5 0 1.1-.3 1.6 0 .2.2.2.2.1a4 4 0 0 0 .3-1.8h-.2ZM85.2 19.5l-1.8.1H83l-.7.3a2 2 0 0 0-.7.5c-.1 0-.2-.1-.1-.2a3 3 0 0 1 1.3-.7h.3c.7-.2 1.4-.3 2-.2.2 0 .1.2 0 .2ZM83 20.5a2.8 2.8 0 0 0-1.2.4c-.1 0-.2-.1 0-.2a3 3 0 0 1 1.2-.4s.1.2 0 .2ZM85.9 4.1a2 2 0 0 0 .4 1.8s.2 0 .1-.1c-.3-.4-.5-1-.3-1.6 0-.1-.2-.2-.2 0Zm0 0"/><path fill="#c39d35" d="m86 4.3.2.6h.1v-.1a3 3 0 0 1 0-.6H86ZM92.8 23.8l-.3-.3c-.5-.5-.9-1.1-1-1.9-.1 0 0-.1.1 0 .2.8.6 1.5 1.2 2 .2.1 0 .3 0 .2ZM93.2 23.7H93v-.1l-.1-.2-.5-.6c0-.1 0-.3.1-.2l.4.6.2.3h.1l.2.1v.1h-.3ZM85.6 8.2c0 .6.2 1.2.6 1.6l.2-.1c-.4-.4-.6-.9-.6-1.4 0-.2-.2-.2-.2 0Zm0 0"/><path fill="#c39d35" d="M85.8 8v.4h.2V8.1c0-.1 0 0 0 0V8l-.1-.1h-.1ZM88.8 7.2a108.4 108.4 0 0 0 0 1.2l.1-1.2s-.1-.1-.1 0ZM89 7.4a145.8 145.8 0 0 0 .1.5l.1-.4v-.1H89ZM93.3 25.6a4 4 0 0 1-1.6.7H91c-.4 0-.8 0-1.2-.2l-.4-.1-.7-.3a8.3 8.3 0 0 0-2.3-.6h-.2l-.1-.2H87.2l1.1.4c.3 0 .6.2.8.3l.4.1c.2.2.5.2.7.3l1 .2h.4l.3-.1a4 4 0 0 0 1.4-.7c.4-.3.6-.8.8-1.2V24l.2-.1v.1a3 3 0 0 1-1 1.6Zm0 0"/><path fill="#c39d35" d="M92.3 26.9c-.6.2-1.3 0-2 0l-2-1-.8-.4h-.2a5 5 0 0 0-.4-.1h-.3l-.3-.1V25H86.7l1.5.5.4.2.3.1c1.1.6 2.3 1.2 3.5.8.6-.2 1-.6 1.4-1.2l.6-1.5v-.1c.1-.2.3 0 .2 0l-.4 1.2v.2H94l-.1.2-.2.4c-.3.5-.8.8-1.4 1Zm0 0"/><g clip-path="url(#i)"><path fill="#c39d35" d="m86 25 .3.2.3.1.2.1.7.4c1 .5 1.8 1.1 2.8 1.4l1.2.2c.5 0 1-.2 1.3-.4l.5-.3.6-.5.6-.8.1-.3.3-.5.6-.6.5-.3v-.2a2.8 2.8 0 0 0-1.2 1l-.2.4-.2.3h-.1l-.1.3-1 1c-.4.3-.9.6-1.3.7h-1.3l-2.2-1-.4-.3-.6-.3-.8-.5h-.2l-.1-.1H86c-.1 0-.1 0 0 0Zm0 0"/></g><path fill="#c39d35" d="M85.3 14.4c-.5-.4-.9-.9-1.2-1.4a7.2 7.2 0 0 1-.8-3.1c0-.5.3-.8.4-1.2l.4-2.4a3 3 0 0 1 1.5-1.9s0-.2-.1-.1A3 3 0 0 0 84 5.8c-.3.8-.2 1.7-.4 2.5l-.4 1.3v1.3l.6 2c.4.6.8 1.3 1.4 1.6.1.1.2 0 .1-.1Zm0 0"/><path fill="#c39d35" d="m85.2 14.4-1.3-1.7c-.4-.6-.8-1.1-1-1.9-.2-.8 0-1.6.2-2.3.2-.3.3-.7.3-1l.1-1.1c0-.7.3-1.6 1-2 0 0 0-.2-.1-.1-.6.3-.9.9-1 1.5-.2.8 0 1.6-.3 2.3l-.4 1.2v1.2c0 .7.4 1.4.8 2l.7 1 .8 1c.1.1.2 0 .2-.1Zm0 0"/><path fill="#c39d35" d="M85.2 14.4a11 11 0 0 1-2.8-3.2c-.3-.7-.4-1.5-.2-2.2l.6-2.5.3-1.1c.2-.4.3-.7.7-.8.1 0 0-.2 0-.2-.7.2-.9 1-1 1.5L82 8.6l-.2 1.2c0 .4 0 .7.2 1 .3.8.7 1.4 1.2 2 .5.6 1.1 1.2 1.8 1.7 0 0 .2 0 .1-.1Zm0 0"/><path fill="#c39d35" d="M85.5 14.5c-.4-1.2-.6-2.3-.8-3.5V9.2l.4-.9.2-1.1c0-.8-.2-1.8.3-2.5.1 0 0-.2-.1 0-.4.6-.4 1.3-.4 2L85 8l-.4 1v1.7a13.5 13.5 0 0 0 .7 3.9l.2-.1Zm0 0"/><path fill="#c39d35" d="M85 11.8c0-1-.2-1.9 0-2.9l.5-1.4c.2-.4.3-.9.3-1.4V4.5h-.3l.1 1.5c0 .5 0 1-.3 1.5l-.5 1.3V12h.3ZM93.9 8.2c0-.7 0-1.3-.5-1.7-.5-.4-1-.6-1.6-.9-.6-.2-1.2-.4-1.8-.4h-1l-.9.1c-.7 0-1.3-.8-1.6-1.4 0 0-.2 0-.1.1.2.5.6 1 1 1.4.6.3 1.2 0 1.8 0 1.2-.2 2.5.3 3.6.9.3.1.5.4.7.6.2.4.2.8.2 1.2 0 .2.2.2.2 0Zm0 0"/><path fill="#c39d35" d="M94.2 7.7c-.1-.6-.4-1-.7-1.5l-1.3-1.1c-.5-.4-1.2-.3-1.8-.3l-1.9-.1c-.6-.1-1.3-.3-1.7-.8-.1-.1-.3 0-.2 0 .8 1 2 1 3.1 1h1l.9.1c.3 0 .5.2.8.4l.6.6c.5.4.9 1 1 1.7 0 .1.2.1.2 0ZM85 17.2l-.6-.5-1-.5a2.8 2.8 0 0 0-2 0c-.2.1-.2 0-.1-.1a3 3 0 0 1 1.7-.2H83.3l.7.4 1 .7c.2 0 .1.2 0 .2Zm0 0"/><path fill="#c39d35" d="M85.1 16.9v.1H85l-.2-.2h-.2l-1.4-.8H83a5 5 0 0 0-.9-.4H81c-.1.1-.2 0 0-.1l.7-.1h.4l.7.2.3.1a12.8 12.8 0 0 1 1.7.9h.1l.2.2Zm0 0"/><path fill="#c39d35" d="M85 17c-.2 0-.2-.1-.3-.2l-.6-.5-.3-.3-.8-.5-.9-.5-1.2-.2h-.1c-.1 0-.2-.1-.1-.2H81.6l1.4.7c.6.3 1.1.8 1.7 1.3l.2.2.2.1ZM84.2 15.6a13 13 0 0 0-3.3-3.1c-.1 0-.3 0-.2.1a13 13 0 0 1 3.4 3c0 .2.2 0 .1 0Zm0 0"/><path fill="#c39d35" d="M83.8 15.1a9.4 9.4 0 0 0-3-3.2c-.1 0-.3 0-.2.1 1.3.8 2.3 2 3 3.2.1.1.3 0 .2 0Zm0 0"/><path fill="#c39d35" d="M83.3 14.3a20 20 0 0 0-1-2l-.6-1c-.2-.1-.4-.5-.6-.4-.2 0-.1.2 0 .2h.1c.1 0 .1-.2 0-.2H81v.2c.2 0 .2.1.3.2l.3.4a20.8 20.8 0 0 1 1.5 2.7c0 .1.2 0 .1-.1ZM88.8 15c1 .2 1.9.6 2.7 1a8 8 0 0 1 3.2 2.9c.1.1.3 0 .2 0a8.4 8.4 0 0 0-4.4-3.6l-1.7-.5c-.1 0-.1.1 0 .2Zm0 0"/><g clip-path="url(#j)"><path fill="#c39d35" d="M88.9 15c2-.3 4 .9 5.5 2.3.4.5.8 1 1 1.5l.2-.1c-.2-.5-.5-1-1-1.3l-1.1-1.1a7 7 0 0 0-2.9-1.4c-.6-.2-1.2-.2-1.8-.1-.1 0 0 .1 0 .1Zm0 0"/></g><g clip-path="url(#k)"><path fill="#c39d35" d="m89.5 14.6.1.1h.5l.9-.1h.6l.9.3h.3l1.6.7a5.5 5.5 0 0 1 1.6 1.5v-.3c-.4-.5-.9-1-1.4-1.3-.4-.3-1-.5-1.5-.6l-.7-.3H92l-.3-.2h-1a5 5 0 0 0-.7 0h-.3v.1l-.1.1Zm0 0"/></g><g clip-path="url(#l)"><path fill="#c39d35" d="M89.5 14.6v.1h3.3l1.6.4 1.4 1h.2V16l-1.2-.8a6.3 6.3 0 0 0-2.8-.6h-2.4l-.1.1Zm0 0"/></g><g clip-path="url(#m)"><path fill="#c39d35" d="M92.8 14.4h.1c1.2-.1 2.2.3 3 1V15c-.7-.5-1.5-.8-2.3-.9h-.9c-.1 0 0 .2 0 .2Zm0 0"/></g><path fill="#c39d35" d="m87.5 18.3-2.2-2.5-1-1.3v-.4c-.1-.2-.3-.3-.4-.3l-.1.1c.2.1.2.2.3.4l.2.6.9 1a237.8 237.8 0 0 1 2.3 2.4Zm0 0"/><path fill="#c39d35" d="M87 18c-.5-.7-1.4-1.2-2-2L84 15c-.1-.4-.2-1-.5-1.2-.1 0-.2 0-.1.1l.3.6.3.6c.2.4.5.9.9 1.3.6.7 1.4 1.1 2 1.9.1 0 .3 0 .2-.2Zm0 0"/><path fill="#c39d35" d="m88 18.3-1-.9c-.4-.2-.7-.6-.9-1-.4-.8-.6-1.6-1.2-2.2 0 0-.2 0-.1.1.6.7.8 1.5 1.2 2.3l.7 1 1.3.9s.2-.1 0-.2Zm0 0"/><path fill="#c39d35" d="M87.7 18c-.6-1-1.2-2-1.5-3.1 0-.2-.2-.1-.2 0 .3 1.1 1 2.1 1.5 3.1 0 .1.2 0 .2 0Zm0 0"/><path fill="#c39d35" d="M88 18.4c-.3-.5-.6-1-.7-1.7v-1.9s-.2-.1-.2 0v2c.1.6.4 1.1.7 1.7 0 .1.2 0 .1 0Zm0 0"/><path fill="#c39d35" d="M88.2 18.2c-.4-.4-.5-1-.5-1.6l.2-.9.4-.8c0-.2-.1-.2-.2-.1 0 .3-.3.6-.4 1l-.2.8c0 .7.2 1.2.5 1.7 0 .2.2 0 .2 0Zm0 0"/><path fill="#c39d35" d="M88.2 18.5v-1c0-.3 0-.6.2-.8.2-.5.6-.9.6-1.4H89c0 .2.1.2.1 0 0-.1-.1-.1-.1 0-.1.5-.5 1-.8 1.4-.2.6-.2 1.2-.1 1.8 0 .1.2 0 .2 0Zm0 0"/><path fill="#c39d35" d="M88.2 18.5c0-.6.4-1 .9-1.4l.7-.5c.2-.2.4-.3.4-.5s-.2-.2-.2 0l-.2.2-.4.2-.7.6c-.3.4-.6.8-.7 1.4 0 0 .2.1.2 0Zm0 0"/><path fill="#c39d35" d="M88.1 18.5a5 5 0 0 1 2.2-1.5l.9-.3c.1 0 0-.2 0-.1l-1 .2-.8.4c-.6.3-1 .7-1.4 1.2-.1 0 0 .2.1.1Zm0 0"/><path fill="#c39d35" d="M88.1 18.5c.7-.4 1.4-.6 2.2-.7l1.1-.2c.4 0 .7 0 1-.2.1 0 0-.3 0-.2l-1 .3a10.2 10.2 0 0 0-3.4.8s0 .3.1.2Zm0 0"/><path fill="#c39d35" d="M88.4 18.5c.8-.4 1.7-.3 2.5-.3h1.3l.6-.1c.1 0 .4 0 .5-.2v-.1H93c0 .1.1.2.2 0l-.1.1v-.1h-.4l-.3.1-.6.1h-1.3c-.8 0-1.6 0-2.3.3-.1 0 0 .2 0 .2Zm0 0"/><path fill="#c39d35" d="M88.2 18.6c.5-.2 1-.2 1.6-.1l1.5.3c.8.3 1.8 0 2.5-.5l-.1-.2c-.4.3-.8.5-1.3.6l-1.4-.1c-.4-.2-.9-.3-1.3-.3h-1.5v.3Zm0 0"/><path fill="#c39d35" d="M89 18.6c1-.1 1.8.3 2.7.5.5.1 1 .2 1.5 0h.6c.2-.1.5-.2.6 0 .1 0 .3 0 .2-.1-.3-.3-.8-.2-1.1 0h-1.7c-1-.3-1.8-.7-2.8-.6-.1 0-.1.2 0 .2Zm0 0"/><g clip-path="url(#n)"><path fill="#c39d35" d="M89.4 14.8c1-.5 2.2-.2 3.2.4a8 8 0 0 1 3.1 3.3c0 .1.2 0 .2 0v-.2h-.2v.2h.2c-.5-1-1.1-1.8-2-2.5a6.1 6.1 0 0 0-2.7-1.6c-.7 0-1.3 0-1.9.2 0 0 0 .3.1.2Zm0 0"/></g><path fill="#c39d35" d="M81.3 13.6h-.5l-1-.1-1 .1-2.2.8-.1-.1a16.3 16.3 0 0 1 3-1 5.7 5.7 0 0 1 1.2 0h.5v.1h.1c.1 0 .1.2 0 .2Zm0 0"/><path fill="#c39d35" d="M81.1 13.3H80.7l-.4-.2H80c-.4-.2-.9-.2-1.3-.1h-.2l-1 .1h-.3l-.6.3-.3.1-.3.1v.1c-.1.1-.3 0-.2-.2h.1l.2-.2.4-.1.7-.2.9-.2h.2a6.4 6.4 0 0 1 1.8 0h.2l.1.1h.2l.1.1.2.1h.1c.1 0 0 .2 0 .2ZM81.3 13.5h-.1l-.1.1h-.2a8.7 8.7 0 0 1-.5.2l-.6.3a7 7 0 0 0-2.1 1.6c-.2.1-.3 0-.2-.1v-.1a7.5 7.5 0 0 1 2.7-1.8l.6-.2.3-.1h.2Zm0 0"/><path fill="#c39d35" d="M81.2 13.5v.1l-.3.3h-.1l-.4.5-.3.6c-.2.3-.3.6-.3 1v.9c0 .2-.2.1-.2 0v-1.1l.3-.9a4 4 0 0 1 .7-1l.2-.2.2-.2h.2Zm0 0"/><path fill="#c39d35" d="M81 13.6c-.3.7-.5 1.3-.5 2 0 .6 0 1.3.4 1.9l.1-.1v-.1c0-.1-.1-.2-.2-.1v.3c.1.1.3 0 .2 0a4 4 0 0 1-.3-2c0-.6.2-1.2.4-1.8 0-.1-.1-.2-.2 0ZM81.1 13.2 79.4 11l-.6-1.2-.5-1.4c0-.1-.2 0-.2 0l.5 1.5.7 1.3c.4.8 1 1.4 1.7 2.1 0 .1.2 0 .1-.1ZM80.9 13.3a18.1 18.1 0 0 0-4.2-3c0-.1-.1 0 0 .1 1.4.8 2.8 1.8 4 3 .1 0 .3 0 .2-.1Zm0 0"/><path fill="#c39d35" d="M81 13.3H80.7l-.2-.1-.4-.2-.7-.3-1-.3c-.7-.2-1.5-.3-2.2-.2h-.5l-.1.1c-.1 0-.2-.1-.1-.2h.2c.9-.3 1.8-.1 2.6 0l1.7.7h.2l.4.2.2.1.1.1h.1Zm0 0"/><path fill="#c39d35" d="M80.8 13c-1-1.5-2-3.1-2-5h-.2c0 2 1 3.6 2 5.1.1.1.3 0 .2-.1ZM81.5 17.7h-1l-.6.4-1.1 1-.4.3-.2.2-.7.6-1 1-.1.2-.2.2-.1.1c-.2 0-.2-.1-.1-.2l.1-.1.1-.1v-.1l.2-.1c0-.1 0-.2.2-.2l.6-.6.8-.8.2-.2.4-.4c.5-.4 1-1 1.7-1.3h.3l.1-.1h.8c.2 0 .2.2 0 .2Zm0 0"/><path fill="#c39d35" d="M81.4 17.6h-1.2c-.7.2-1.3.6-1.9 1l-.7.4-.2.2-1.5 1.2-.2.1c0 .1-.2 0-.1-.1l.3-.3 1.3-1 .3-.2.8-.6c.5-.3 1-.7 1.7-.8h.1l.2-.1h1v.1h.1Zm0 0"/><path fill="#c39d35" d="M81.2 17.3H78.8c-.9.2-1.7.4-2.4.9-.1 0 0 .2 0 .1.8-.5 1.6-.6 2.4-.8h2.4s.1 0 0-.2ZM77.3 23.5v-.3l.1-.1.2-.5.1-.4V22l.2-.4.7-1.5.3-.3 1.9-1.8.2-.2h.1v-.1h.1v-.1h.1v.2h-.1l-.1.1-.2.2-1.9 1.8-.1.2-.5.8c-.2.2-.2.5-.3.8l-.1.4-.1.2a11.8 11.8 0 0 0-.3.9V23.5h-.3Zm0 0"/><path fill="#c39d35" d="M79 24.9v-2.2l.5-2.1.1-.3.2-.2c.3-.7.8-1.3 1.2-2l.1-.2.1-.2v-.1h.2a2 2 0 0 1-.2.5v.1l-.1.1-.1.2-.4.5-.7 1.2-.1.2-.1.3-.3 1-.2 1V24l-.1.6V24.8c0 .2-.2.2-.2 0Zm0 0"/><path fill="#c39d35" d="M80.1 25.6V25l.1-.5v-2l.1-1.2v-.3a20.3 20.3 0 0 1 .7-2.4v-.3h.1V18h.1v.2l-.2.7-.1.5-.2.5-.2 1v.3l-.1.6V25l-.1.5v.2H80Zm0 0"/><path fill="#c39d35" d="M81.2 26v-2l-.1-.3-.3-2.2v-.3a11.4 11.4 0 0 1 0-2.2v-.4l.2-.4.1-.3.1-.2c.1-.1.1 0 .2 0l-.1.3v.1l-.1.2-.2.7v3.3l.1.3.2 1.2V26c.1.2-.1.2-.1 0Zm0 0"/><path fill="#c39d35" d="M82.6 26v.1h-.2v-.7l-.2-.4-.1-.6-.2-.4-.4-.8a4 4 0 0 1-.4-.8v-.1l-.2-.7v-.9a8.4 8.4 0 0 1 .1-2.3v-.2l.1-.1v-.2l.1-.2V17.3h.3v.2h-.1v.1l-.1.3-.1.3-.2 1v2.1l.1.3c0 .4.2.7.3 1l.4.8.3.6v.2l.1.1.2.7v.4l.1.3h.1v.3Zm0 0"/><path fill="#c39d35" d="M84.1 25.7v-.1l-.4-.7-.2-.3-.4-.6-1.2-1.4a6.5 6.5 0 0 1-.6-1l-.1-.5-.2-.6V19l.1-.9V18l.1-.2v-.2h.2v.4l-.1.3-.2 1.3v.6c.1.5.2 1 .5 1.5l.2.5.5.6 1.1 1.4.3.4.2.3.3.6v.1c.1.2 0 .3 0 .1ZM91.3 14.4l.5-1v-1l-.2.1v1l-.4.8s0 .2.1.1Zm0 0"/><path fill="#c39d35" d="m91.5 14.6.7-1.3c.1-.4.2-1 0-1.3 0-.1 0-.1-.1 0 0 .1.1.2.2.1H92c.2.4 0 .8-.2 1.2-.1.4-.4.8-.6 1.1 0 .2.1.3.2.2Zm0 0"/><path fill="#c39d35" d="M91.4 14.4 91 14l-.3-.6c0-.1-.2 0-.2 0l.3.7.5.5c0 .2.2 0 0 0Zm0 0"/><path fill="#c39d35" d="m91.4 14.5-.8-.3c-.3 0-.6-.2-.8-.4 0 0-.2 0-.1.1.4.5 1 .4 1.6.7.1.1.3 0 .1 0Zm0 0"/><path fill="#c39d35" d="M91 14.4h-.5a8.2 8.2 0 0 0-1.4 0c-.2.1-.3.2-.6.1 0 0-.1.1 0 .2h.5l.6-.1H91s.1-.2 0-.2ZM88.7 14.7H88.1v.1h.7l-.1-.1Zm0 0"/><g fill="#c39d35" clip-path="url(#o)"><path d="M92.1 14.2H92.8l.1-.1c.2 0 .3-.1.3-.2l.4-.2 1.6-1 .8-.5V12L94 13l-.7.5-.1.1-.2.1-.3.1-.4.2h-.2v.1Zm0 0"/><path d="M92 14.2s.1.1.2 0h.3l.1-.1.2-.2c.2 0 .4-.2.5-.3l1.3-1c.4-.5.9-.8 1.4-1v-.2c-.3 0-.5.2-.7.3l-.5.4-1.2 1-.4.3c-.3.3-.6.5-1 .6l-.1.1v.1Zm0 0"/></g><g clip-path="url(#p)"><path fill="#c39d35" d="M92 14.3h.3l.1-.2.3-.1.3-.3c.9-.5 1.6-1.3 2.3-2l.7-.6V11L93.6 13a14.8 14.8 0 0 1-1.4 1H92v.2Zm0 0"/></g><g clip-path="url(#q)"><path fill="#c39d35" d="M92.4 14v.1h.4c.4 0 .7-.2 1-.3l.1-.1h.1a25.2 25.2 0 0 1 2-.7v-.2l-1.8.6-.6.3h-.2l-.6.2h-.3l-.1.1Zm0 0"/></g><g clip-path="url(#r)"><path fill="#c39d35" d="M92.9 14v.1c.9-.2 1.8-.4 2.6-.4h.5v-.2h-1.4l-.7.2-.4.1h-.3a2 2 0 0 0-.3.1v.1Zm0 0"/></g><g clip-path="url(#s)"><path fill="#c39d35" d="m91.8 14.2.3-.2a9.3 9.3 0 0 0 2-3c.4-1.1.8-2.5 1.9-3.2v-.2l-.7.5c-.4.5-.7 1.2-1 1.8l-1 2.3a8 8 0 0 1-.6.8l-.4.5-.4.4-.1.1v.2Zm0 0"/></g><g clip-path="url(#t)"><path fill="#c39d35" d="M91.8 14a2472.7 2472.7 0 0 0 .2 0c.3 0 .5-.3.6-.4l.9-1c.3-.2.5-.6.7-.9l.1-.3.3-.5c0-.2.2-.3.3-.5l.1-.2c.2-.4.6-.9 1-1.1v-.3l-.7.7c-.6.6-.9 1.4-1.3 2.2l-.4.5-.6.7-.5.6c-.2 0-.4.4-.5.4l-.1-.1c-.1 0-.2 0-.1.2Zm0 0"/></g><g clip-path="url(#u)"><path fill="#c39d35" d="M92.2 13.5h.1l.5-.7.6-1 .7-2c.3-.7.5-1.4 1-1.8l.9-.6v-.2c-.2 0-.3 0-.4.2-.6.3-1 .8-1.3 1.4l-1 2.4a11.9 11.9 0 0 1-1.3 2.2l.2.1Zm0 0"/></g><g clip-path="url(#v)"><path fill="#c39d35" d="M91.2 27.6c0-.2.3-.2.4 0l.1.2v.1a531.7 531.7 0 0 1 3.6 67v1h-.6v-9.7a440 440 0 0 0-2-42 462 462 0 0 0-.6-7.3l1 21.4 1 22.1v2l.3 6.4.1 2.7v1.9l.1.6v1.9h-.5V93.6l-.1-.9v-.4l-.2-4.2-.2-3.7v-2l-.2-3.6-.2-3.4-.5-11.5-.9-19v-1.1l-.1-3.2L91 28v-.3Zm0 0"/></g><path fill="#c39d35" d="M65 42.5c.2-.2.5-.3.7-.2.2 0 .4.2.5.4l.1.7h.2c.2-.1.3-.5.4-.8.2-.5.7-.9 1-1.4l-.1-.6H67a3 3 0 0 0-2 1.6c-.1.1-.2.3-.1.4Zm0 0"/><path fill="#c39d35" d="M66.3 45.8c-.7-1-1.3-2.2-1-3.4 0-.3.1-.6.3-.8.2-.3.4-.4.7-.5.3-.2.5-.3.8-.3h.3l.2.3c.2.2.4 0 .3-.3l-.4-.4h-.8a3 3 0 0 0-1.3.9c-.7.8-.7 2-.4 3 .2.6.6 1.1 1 1.7.1.2.5 0 .3-.2Zm0 0"/><path fill="#c39d35" d="M64.9 43.3c0 .3.2.5.4.7.2.2.5.3.7.3h.8l.8-.2v-.3s-.1-.1-.2 0l-.6.1H66c-.2 0-.4 0-.5-.2l-.4-.5c0-.2-.4-.2-.3.1Zm0 0"/><path fill="#c39d35" d="M67.1 40.5c.6-.2-1.4 0-2 .2l-.6.5a1 1 0 0 0-.3.7l.1.6.7 1s-.2-2.2 2.1-3Zm0 0"/><path fill="#c39d35" d="M64.7 46.5a10.1 10.1 0 0 1-2-4.2c-.2-.8-.2-1.7.2-2.4.5-1 1.7-1.3 2.7-1.3h1.8c.6.1 1.1.3 1.6.7.2.1.4-.1.2-.3-.4-.3-.9-.6-1.4-.7a6 6 0 0 0-1.7-.1c-1 0-2.4.1-3.2 1-.6.7-.8 1.8-.6 2.6 0 1 .4 1.8.7 2.6.4.8.8 1.7 1.4 2.4.2.1.5-.1.3-.3Zm0 0"/><path fill="#c39d35" d="M64.7 46.6c-.4-.2-.8-.6-1.2-1L63 45l-.6-.5c-.2-.3-.5-.6-.6-1a3 3 0 0 1 0-1c0-.5 0-.8-.2-1.2l-.2-1.2-.1-1.3v-1.1c0-.4.1-.8.4-1 .3-.2.6-.1 1 0l1-.1a4 4 0 0 0 1-.4 5 5 0 0 1 1.9-.8c.7 0 1.5 0 2.3.4.3.1.6.4.8.8.2.4.3.8.3 1.3 0 .2.4.2.4 0 0-.9-.3-1.7-1-2.2-.5-.5-1.4-.6-2-.7-.8 0-1.6 0-2.3.4-.6.4-1.3.9-2 .9l-1-.1c-.5 0-.8.3-1 .6-.4.7-.3 1.6-.2 2.4l.1 1.3.3 1.2V43c0 .4.2.8.4 1.1l.7 1c.3.1.5.4.7.6l.7.7.7.5c.3.1.5-.2.2-.3Zm0 0"/><path fill="#c39d35" d="M63.1 39.6c.3-.8.7-1.5 1.4-2a3 3 0 0 1 1-.5l1.2-.1 1.2-.2H69c.3.2.6.5.7.8.2.3.2.7.1 1l-.4 1.3v1.4c0 .3.4.3.4 0V40l.4-1.3v-1.1l-.8-1c-.3-.2-.7-.2-1.1-.2l-1.3.2h-1.3a3 3 0 0 0-1.2.5c-.8.5-1.4 1.4-1.7 2.3v.3l.3-.1Zm0 0"/><path fill="#c39d35" d="M67 46.3c.4-.2.8-.6 1.1-1a12.8 12.8 0 0 0 1.7-3l.8-1.7c0-.3-.2-.4-.3-.2l-1.6 3.2L68 45c-.3.4-.7.8-1.1 1-.3.2 0 .5.2.4ZM60.9 37.2c-.6.1-1.1.3-1.6.6-.2.1-.5.2-.6.4-.1.2-.2.4-.1.6v.6c0 .2 0 .4-.2.6-.1.5-.2 1 0 1.4 0 .5.3 1 .6 1.5l.6 1.6c.5 1 1.3 1.7 2.2 2.4l3.1 2c.2 0 .4-.3.2-.4a14.4 14.4 0 0 1-4.9-3.7l-.7-1.4-.6-1.5c-.2-.4-.3-.9-.3-1.3.1-.5.4-.8.4-1.2v-.7c-.1-.2 0-.3.3-.5.5-.3 1-.5 1.6-.6.3-.1.2-.5 0-.4Zm0 0"/><path fill="#c39d35" d="M62.3 47c.6-.2 1.4 0 2 0h1l1-.4 1-.5 1.2.1 1.1.3h1.3c.4 0 .9 0 1.3.2l.6.1.3.1h.2v.1h.1c-.1.1.2.3.3 0 .4-.5-1.6-.8-1.9-.8h-1.4a6 6 0 0 1-1.3-.2l-1.1-.3c-.4 0-.8 0-1.2.2l-1 .5-1.1.1c-.9 0-1.7-.1-2.5.2-.2 0-.1.5 0 .4Zm0 0"/><path fill="#c39d35" d="M67.7 46a3.5 3.5 0 0 1 1.8-1.2l.6-.2c.8-.4 1.4-1 2-1.5.6-.4 1.3-.9 2-.7.6 0 1 .2 1.6.3l1 .2h.6c.2 0 .2-.3 0-.3h-.6l-.8-.2-1.7-.4c-1.6-.3-2.7 1.5-4 2.1l-.8.3-.7.3a4 4 0 0 0-1.3 1c-.1.2.2.5.3.3Zm0 0"/><path fill="#c39d35" d="M70.5 44.3a5 5 0 0 0 1-1.7l.4-2c0-.2-.3-.4-.3-.2-.3.7-.3 1.3-.5 2-.1.6-.4 1.2-.8 1.7-.2.1 0 .4.2.2Zm0 0"/><path fill="#c39d35" d="M70 44.6c.3-.3.5-.7.6-1.1l.2-1.4-.2-.8V37c0-.2-.3-.2-.3 0l-.1 3.1.1 1.5V43c0 .5-.1 1-.5 1.3-.2.1 0 .5.2.3ZM60.4 37.5a3.4 3.4 0 0 1 1.2-3l.6-.4c.3-.2.4-.4.5-.7l.4-.7c.3-.4.7-.9 1.2-1l1-.2h.8c.6-.1 1.1-.2 1.7 0 .5 0 1 .3 1.4.5l1.6 1.1.6.8.3.3.2.2v.2l.1-.1H72.3c-.1-.2-.5 0-.3.2.2.3.5 0 .3-.3l-.2-.3-.3-.4-1.4-1.4-1.6-.9c-.5-.2-1-.4-1.6-.4l-2 .1-1 .2c-.3 0-.5.2-.8.4-.4.4-.8 1-1 1.6 0 0 0 .2-.2.3-.1.2-.3.2-.4.3l-.6.5c-.8.8-1.3 2-1.2 3.1 0 .3.4.2.4 0ZM77.4 43.2l-.1.5-.4 1-.7 1.2a6 6 0 0 1-.6.9l-.9.8c-.5.4-1.2 1-1.2 1.7v.1c-.2.1-.4 0-.4-.1V49c.2-.6.6-1.1 1-1.5h.1l.4-.3.2-.2.1-.1.3-.3.2-.2.1-.1.1-.2.3-.5.1-.2.1-.2.3-.5v-.2c.2-.1.2-.3.3-.4v-.2c.2-.3.3-.6.3-1v-.3l.1-.8V40l-.1-.6-.2-.2-.1-.2-.4-.6v-.2c-.2 0-.2-.2-.3-.2l-.5-.6-.2-.2c-.2-.2-.6-.3-.9-.3-.7 0-1.4.4-1.8 1-.4.4-.4 1-.4 1.6 0 .4-.2.8-.3 1.1 0 .2-.1.2-.2.2s-.2-.1-.1-.2l.1-.6v-.1l.1-.8.2-1 .3-.5a3.1 3.1 0 0 1 1.4-.9c.3-.1.7-.2 1-.1.7 0 1.2.7 1.7 1.2l.6 1 .2.3.4.8v.3l-.2.7v2.4Zm0 0"/><path fill="#c39d35" d="M78 43c-.2.7-.6 1.2-1 1.6h-.1c-.1.1-.2.1-.2 0h-.1v-.2l.2-.2.1-.1.1-.1.2-.3.5-.9c.3-.5.5-1.2.6-1.8 0-.6-.1-1.1-.3-1.6l-.4-1.8-.5-1.2a2 2 0 0 0-.5-.7l-1.2-.7h-.2l-.8-.2a3 3 0 0 0-.6-.1c-.5 0-1 .1-1.4.3a4.4 4.4 0 0 0-1.7 1.5l-.2.3v.5c0 .1 0 .2-.2.2h-.1c-.1-.2-.1-.3 0-.4v-.3l.3-.6c.4-.5.9-1 1.4-1.3h.2l.1-.1h.1l.2-.1a4 4 0 0 1 1-.3 4 4 0 0 1 1.8.2l1.2.6.4.3.2.2.2.2c0 .2.2.4.3.5l.2.5.1.4v.2l.2.4v.3l.1.4.1.4v.2l.1.2v.2l.1.2v.1l.1.2V41.3c0 .6-.3 1.2-.6 1.8Zm0 0"/><path fill="#c39d35" d="M77.3 36.3H77l-.2-.2-.1-.5-.1-1.2v-.1a5.5 5.5 0 0 0-2-3.2l-.3-.2-.5-.3h-2.4l-.2.1a7 7 0 0 0-2 1c-.3.1-.5-.2-.2-.3.7-.5 1.5-.9 2.3-1l.3-.2h.8c.5-.1 1 0 1.6.1l.3.1.3.2c.5.3 1 .8 1.3 1.3a6.3 6.3 0 0 1 1 2.3v.6l.1.5.1.5.1.1.2.1v.3ZM61.2 34.6l-1.8.1c-.6.2-1.2.5-1.6 1-.4.4-.8.8-1 1.3l-1 1.3c-.2.4-.3 1-.3 1.4l.1 1.5a7 7 0 0 0 1.1 2.2l.4.5 1.3 1.4.5.4.6.4c.3.2 0 .5-.1.4a9.8 9.8 0 0 1-3.2-3.1v-.1L56 43l-.2-.3a7 7 0 0 1-.6-1.9c-.1-.5-.2-1 0-1.5 0-.5.2-1 .5-1.5a13.4 13.4 0 0 1 2.2-2.7c.5-.4 1-.7 1.6-.8h1.7c.2 0 .2.3 0 .3Zm0 0"/><path fill="#c39d35" d="M59.4 44.6c-.2.5-.4 1-.3 1.5 0 .6.3 1 .8 1.2l1.7.6.9.3.8.2c.6 0 1.2.3 1.8.6.2.1.4-.2.1-.3-.4-.3-.9-.5-1.4-.6l-.8-.2-.7-.2-1.6-.6c-.5-.1-1-.3-1.2-.8-.2-.5 0-1.1.2-1.7l-.1-.2c-.1 0-.2 0-.2.2Zm0 0"/><path fill="#c39d35" d="M73.4 49.4v.1c-.1.1-.3 0-.3-.1H73l-.3-.1-.4-.2-.8-.2c-.6-.1-1.1.3-1.6.4-1 .3-2.1.3-3.2.2h-2.1c-.3 0-.5.2-.8.3l-.2.1h-.1l-1 .5a1 1 0 0 1-.4 0c-.4 0-.9-.4-1.2-.7-.1 0-.2 0-.2-.2-.2-.1-.3-.3-.3-.4l-.2-.5v-1h.1v-.1l.1-.2c.2-.2.5 0 .4.2a1 1 0 0 0-.3.6V48.7l.1.2.3.3.1.1.5.4h.1l.3.2h.7l.7-.4a5.3 5.3 0 0 1 1.3-.4H69.3l.2-.1.6-.3.7-.2H71.8l.6.3.7.2h.1c.3.1.4.3.3.4Zm0 0"/><path fill="#c39d35" d="M76.3 52v.2l-.5.4-1 .8-.7.5-.6.4-1 .4-.6.2-.3.1-1 .3h-.1c-.1.2-.2.2-.4.3l-.3.2h-.1l-.3.1h-.1l-.1.1h-.3a8.3 8.3 0 0 1-6-2.4c0-.2-.2-.4-.3-.5l-.2-.3v-.3a3 3 0 0 1-.2-.7V50.9h.1l.2-.5c.2-.3.5-.6.8-.7.2-.1.4.1.3.2h-.1c-.6.3-.9 1-1 1.6v.4c.1.5.4 1 .7 1.3l.1.2.2.2.2.2h.1a8.5 8.5 0 0 0 2.3 1.3l.1.1 1.6.4h1.7l.3-.2.6-.4.7-.3h.2l.3-.1a7.5 7.5 0 0 0 2-.9 8.5 8.5 0 0 0 2.5-2h.2v.4Zm0 0"/><path fill="#c39d35" d="M79.9 49a9.8 9.8 0 0 1-1.2 1.3c-.2 0-.3.2-.4.3l-.2.2-.2.1-.5.4-.2.2-.6.3-.1.1h-.1l-.2.1-.1.1-.5.2-.2.1a6.2 6.2 0 0 1-3.8.2l-1.2-.2a1 1 0 0 0-.5.2c-.2 0-.5-.3-.2-.4h.2c.5-.3 1-.1 1.7 0 .6.2 1.3.3 2 .2a7 7 0 0 0 1.4-.3h.2l.3-.2h.1l.8-.4.3-.2.6-.3.1-.2.8-.6.4-.3 1.3-1.6v-.1A7 7 0 0 0 81 45v-.8l-.4-.6-.3-.7-.1-.1-.1-.1-.1-.2-.2-.2-1-1.2h-.2c-.1-.2 0-.4 0-.4h.2l.4.3a10 10 0 0 1 1.4 1.7l.3.4.2.5v.1h.1l.1.3.1.4v.5a8.4 8.4 0 0 1-1.5 4Zm0 0"/><path fill="#c39d35" d="m81.3 44.4-.2.1s-.2 0-.1-.2v-.5l.1-.6v-2l-.2-1.3v-1.3a4.5 4.5 0 0 0-.4-1.4c0-.4-.3-.7-.6-1l-.6-.3a5 5 0 0 0-.5-.2l-.4-.1-.5-.2a11 11 0 0 1-.9-.5h-.1l-.2-.2-.2-.3v-.1c0-.1 0-.2.2-.2l.1.1.2.2.5.3.6.4h.2l.3.1h.3a5.2 5.2 0 0 1 .7.3c.4.2.7.5 1 .9l.1.2.2.3c.3.6.4 1.3.4 2v1.3l.2 1.4a7.5 7.5 0 0 1-.2 2.8ZM62.3 51.2h-.8l-.3.1H61l-.1.1h-.4l-.1.1h-.1a4 4 0 0 1-2.1-.1l-.2-.1h-.1l-.4-.3-.6-.3-.7-.3a2 2 0 0 1-.6-.4l-.9-1.1-.1-.3-.1-.2v-.2c-.1-.2-.2-.5-.1-.8a6.9 6.9 0 0 1 .5-1.7 18.6 18.6 0 0 1 .5-1.3l.6-1.2V43c.2-.1.5 0 .4.2v.1h-.1v.2l-.2.2-.1.3-.1.2-.1.3-.2.3-.4 1.1v.3H55v.2c-.2.5-.4 1-.4 1.4l.1.5v.1l.1.1.2.3.1.2.4.5h.1v.1h.1l.5.4h.2l.4.2.7.4.2.2h.2l.4.2.4.1.7.1H60.4l.8-.3h1.1c.3 0 .2.4 0 .3Zm0 0"/><path fill="#c39d35" d="m69.4 56-.1.1h-.1l-.2.2-.3.4-.5.6-.2.3h-.1l-.8.7-.8.4c-1 .5-2.2.6-3.3.4l-.4-.1-1.2-.4a16 16 0 0 1-2.4-1v-.2l-.4-.2-.4-.5-.2-.2-.2-.4a3 3 0 0 1-.3-1V53.2l.1-.9.1-.5v-.6c.2-.2.4-.1.4 0v.7l-.1.6V53.5l-.1.3a4.3 4.3 0 0 0 0 1.7l.2.3.2.4.2.3.1.1v.1l.2.1.1.1.1.1.4.3a8.2 8.2 0 0 0 1 .5h.1l.2.1 1.5.6H62.5l.2.1a6.9 6.9 0 0 0 1.2.2H65l.1-.1.5-.1.5-.2h.1l.1-.1.4-.2a5.2 5.2 0 0 0 .9-.7l.1-.1.2-.3.2-.2.3-.4.4-.4.3-.3h.2v.3Zm0 0"/><path fill="#c39d35" d="M78.8 51v.1l-.1.4v.4l-.2.8-.1.2-.4 1-.3.3-.6.9-1 1-.7.5-.2.2H75l-.3.2H74.4l-.2.1h-1.9l-.2-.1h-.3c-.2-.2-.5-.2-.8-.3l-.4-.1h-.1l-.6-.1h-.7l-.2-.1V56h.5l.6.1h.1l.6.1.8.3h.5l.2.1h.1l.7.2h.6a2.4 2.4 0 0 0 .9-.2h.2v-.1l.3-.1 1-.9 1-1 .6-1 .1-.2v-.1l.3-.9v-.2l.1-.1v-.1l.1-.4v-.2a5.8 5.8 0 0 1 .3-1l.3-.5h.3v.2l-.4 1ZM55.2 39.8c.3.9 1.2 1.3 2 1.6 0 0 .2-.1 0-.2-.7-.2-1.5-.6-1.8-1.4 0-.1-.3 0-.2 0Zm0 0"/><path fill="#c39d35" d="M55.3 39.6c.1.3.3.5.6.7h.2V40l-.7-.6c0-.1-.2 0-.1 0ZM57.1 36.2c1 .3 1.5 1 2 1.9 0 0 .2 0 .1-.1-.4-.9-1-1.7-2-2-.1 0-.2.2 0 .2Zm0 0"/><path fill="#c39d35" d="m57.4 35.9.6.5h.2v-.2l-.7-.5h-.1v.2ZM61.8 34.1A2 2 0 0 0 63 36c.1.1.2 0 .1-.1-.6-.3-1-1-1-1.7h-.2Zm0 0"/><path fill="#c39d35" d="m62 34 .2.4s0 .1.1 0h.1l-.2-.5s0-.1-.1 0c0 0-.1 0 0 0ZM67 31.3c.3.9.4 1.8.4 2.7 0 .1.1.1.2 0 0-1-.1-1.9-.5-2.7 0-.1-.2 0-.2 0Zm0 0"/><path fill="#c39d35" d="m67.2 31.2.4 1.6c0 .1.1.1.1 0 0-.6-.1-1.2-.4-1.7 0-.1-.2 0-.1 0ZM66.3 51.4a6.6 6.6 0 0 0-1.6.9l-.2.1-.6.5-.5.7c0 .1-.2 0-.1 0v-.2c.2-.4.5-.8 1-1l.2-.3 1.8-1v.3ZM64.7 53.2l-1 .7v.1c0 .1-.2 0-.1 0v-.2l1-.7s.2 0 0 .1ZM79.9 42.6l-.3.6-.7 1a34 34 0 0 1-1.7 2c0 .1-.2 0-.1-.1a25.8 25.8 0 0 0 2.3-2.9c.2-.2.3-.5.3-.8v-.2c0-.1.2-.1.2 0v.4ZM80.2 43a5 5 0 0 1-.5 1h-.1l.4-1 .1-.1.1.1ZM61.2 37a2 2 0 0 0 1 1.4s.1 0 0-.1c-.4-.3-.8-.8-.8-1.4h-.2Zm0 0"/><path fill="#c39d35" d="M61.4 37c0 .2.2.4.3.5h.2l-.4-.6-.1.1ZM79.6 36c-.6.4-1.1.9-1.6 1.5 0 .1.1.2.2.1.4-.6 1-1.1 1.5-1.5.1 0 0-.2 0-.1ZM74.9 52.4l-.3-.2c-.7-.2-1.3-.7-1.7-1.3-.1-.1 0-.2.1-.1a4 4 0 0 0 2 1.4l-.1.2ZM75.3 52.1H75L75 52l-.7-.4s0-.3.1-.2l.6.3.3.2H75.6c0 .2-.1.3-.2.2ZM62.5 40.8c.2.6.6 1 1 1.3.2 0 .3-.2.2-.2-.5-.2-.9-.6-1-1.1-.1-.1-.3 0-.2 0Zm0 0"/><path fill="#c39d35" d="m62.5 40.5.2.4h.1V40.5l-.1-.1v-.1h-.1l-.1.1ZM65 38.7l.3 1c0 .2.2.1.2 0l-.4-1.1c0-.1-.2 0-.1 0ZM65.3 38.8l.1.4h.2l-.1-.5h-.1s-.1 0 0 0ZM76 53.8a4 4 0 0 1-1.1 1.3l-.1.1-.4.2c-.4.2-.8.2-1.3.2h-1.8l-1.6.3-.2.1h-.1c-.1 0-.1-.1 0-.1l.3-.1h.2l.2-.1 1.2-.2h2.1l1-.3.3-.2.3-.2c.4-.3.7-.7 1-1.2.2-.4.2-1 .2-1.4v-.4h.2c0 .8 0 1.5-.3 2Zm0 0"/><path fill="#c39d35" d="M75.7 55.4c-.5.4-1.2.6-1.8.7h-2.3a7 7 0 0 0-.9 0H69.8l-.2.2-.1-.1V56h.1l.2-.1a6 6 0 0 1 2-.1h.3c1.2 0 2.5.1 3.5-.7.5-.4.8-1 .8-1.6v-1.8c0-.2.2-.2.2 0V54c-.1.6-.4 1.1-1 1.5Zm0 0"/><path fill="#c39d35" d="M78.7 50.4h-.1l-.3.2-.2.2-.2.2c-.1 0-.3.2-.3.4a3.1 3.1 0 0 0-.5 1.3v.5a3.6 3.6 0 0 1-.6 1.6l-.3.5-1 .8-1.3.4-3-.2-.9-.1h-.8v-.1h2.2l.5.1a8 8 0 0 0 2.3 0c.4 0 .9-.2 1.2-.4l1-1.1A3.4 3.4 0 0 0 77 53v-.9l.4-.9.7-.7.3-.2.2-.1h.1v.1ZM64.5 46.6c-.6 0-1.2-.4-1.6-.8a6.8 6.8 0 0 1-2-2.5V42l-.6-2.4a3 3 0 0 1 .7-2.3s0-.2-.1-.1c-.5.5-.8 1.3-.8 2 0 .9.4 1.7.5 2.5l.1 1.3c0 .5.3.9.6 1.2.3.6.8 1.1 1.3 1.6.5.4 1.1.9 1.9 1 0 0 .2-.2 0-.2Zm0 0"/><path fill="#c39d35" d="m64.4 46.7-1.8-1c-.7-.4-1.2-.8-1.7-1.4-.4-.6-.6-1.4-.6-2.2 0-.4 0-.7-.2-1 0-.4-.2-.8-.3-1.1-.2-.7-.4-1.6.1-2.2.1 0 0-.2 0 0-.5.4-.5 1-.4 1.7.1.8.5 1.5.6 2.3v1.1l.5 1.1a4 4 0 0 0 1.5 1.6l1 .6 1.2.7s.2-.1 0-.2Zm0 0"/><path fill="#c39d35" d="M64.4 46.7a12.8 12.8 0 0 1-3.7-1.9c-.6-.5-1-1.1-1.1-1.9-.2-.8-.2-1.7-.3-2.5l-.2-1.2c0-.4 0-.7.3-1 .1 0 0-.2-.1-.1-.5.4-.4 1.2-.3 1.8l.4 2.7c0 .4 0 .8.2 1.2l.7 1a11.9 11.9 0 0 0 4.1 2.1s.1-.2 0-.2Zm0 0"/><path fill="#c39d35" d="M64.7 46.7c-.8-1-1.5-2-2-3a6 6 0 0 1-.7-1.6v-1c0-.3 0-.7-.2-1-.3-.8-.8-1.6-.6-2.4 0-.2-.2-.2-.2 0-.2.7.2 1.4.4 2l.4 1.3v1c0 .6.3 1.1.6 1.6l1 1.7 1.2 1.5s.2 0 0-.1Zm0 0"/><path fill="#c39d35" d="M63.3 44.4c-.5-.8-1-1.7-1.1-2.7l-.1-1.5c0-.5 0-1-.3-1.4-.1-.5-.4-1-.7-1.5 0 0-.2 0-.1.1l.7 1.4.2 1.5v1.4l.5 1.4.8 1.4c0 .1.2 0 .1-.1ZM70 37.5c-.2-.6-.5-1.1-1-1.3-.6-.2-1.3-.2-1.8-.2a6.4 6.4 0 0 0-2.7.6l-.8.5c-.7.4-1.5-.1-2-.6l-.2.1c.4.4 1 .7 1.6.8.6.1 1-.4 1.6-.7 1-.5 2.4-.6 3.6-.5.3 0 .7 0 1 .3l.6 1c0 .2.2.1.1 0Zm0 0"/><path fill="#c39d35" d="M70.1 37c-.2-.5-.7-.9-1.1-1.1-.5-.3-1-.5-1.6-.6-.7 0-1.2.2-1.8.4l-1.8.7c-.6.2-1.3.2-1.9 0-.1-.1-.2 0 0 .1 1 .5 2.1.1 3.2-.3l.9-.4.8-.3h1l.7.4c.6.2 1.2.6 1.5 1.2 0 0 .2 0 .1-.1ZM65.3 49.3a7.6 7.6 0 0 0-1.9-.2c-.3 0-.6 0-.9.2l-.8.5-.1.1c-.1.1-.3 0-.2-.1l.9-.6.6-.3H64l1.2.2c.2 0 .2.2 0 .2Zm0 0"/><path fill="#c39d35" d="M65.3 49v.1H64.6l-1.6-.2h-.2l-.9.1h-.1l-.9.4c-.1.2-.3 0-.2 0l.1-.2.6-.3h.3l.9-.1h.2a9.1 9.1 0 0 1 1.9 0l.1.1h.3v.1Zm0 0"/><path fill="#c39d35" d="M65.2 49s0 .1 0 0v.2h-.4V49l-.7-.2-.4-.1a7.2 7.2 0 0 0-2-.3c-.3 0-.7 0-1.1.2h-.1v.1l-.2-.1.1-.1h.1l.7-.3h1.5l2 .6.4.1h.1ZM64 48.1c-1.4-.7-2.8-1.2-4.3-1.4-.2 0-.2.1 0 .1 1.4.3 2.8.8 4.2 1.5 0 0 .2-.1 0-.2Zm0 0"/><path fill="#c39d35" d="M63.4 47.9a9.8 9.8 0 0 0-4-1.8c-.2 0-.2.2-.1.2 1.4.3 2.8.9 4 1.7 0 .1.2 0 .1-.1Zm0 0"/><path fill="#c39d35" d="M62.6 47.3a26.3 26.3 0 0 0-2.6-2c-.2-.1-.5-.4-.7-.2-.1.1 0 .3 0 .2h.2c0-.1 0-.3-.1-.2h-.1v.2h.5c0 .2.2.3.4.4l.8.6 1.5 1.2c.1 0 .2 0 .1-.2ZM68 45.8c.9-.2 1.9-.2 2.8-.1 1 0 1.9.2 2.8.6l1.3.8s.2 0 .1-.2a8.3 8.3 0 0 0-5.4-1.4l-1.7.1c-.1 0 0 .2 0 .2Zm0 0"/><path fill="#c39d35" d="M68 45.8c1.8-1.1 4-.8 6 0l1.5.9s.2 0 0-.1a4 4 0 0 0-1.2-.9l-1.5-.5a7 7 0 0 0-3.2-.2c-.6.1-1.2.3-1.7.6-.1 0 0 .2 0 .2Zm0 0"/><path fill="#c39d35" d="M68.6 45.2a6 6 0 0 1 3-1h1.7c.5 0 1 .2 1.5.5l1.4.8c.1 0 .2-.1.1-.2a8 8 0 0 0-2.8-1.2 9.1 9.1 0 0 0-3.3.2c-.6.1-1.2.4-1.7.8-.1 0 0 .2 0 .1Zm0 0"/><path fill="#c39d35" d="M68.6 45.2c1-.5 2-1 3-1.2.5-.2 1-.3 1.6-.3a6.1 6.1 0 0 1 3 .8l.2.1v.1h.1v-.1h.1v.2c.1-.1 0-.3 0-.2-.1 0-.1.2 0 .2l.1-.1-.2-.2-.4-.2-.8-.4a6 6 0 0 0-1.7-.3c-1.2-.1-2.3.2-3.4.7l-1.7.8c-.1 0 0 .2 0 .1Zm0 0"/><path fill="#c39d35" d="M71.4 43.7c1.7-1 3.8-.5 5.4.4.1.1.2 0 .1-.1-1.7-1-3.8-1.5-5.6-.4-.1 0 0 .2 0 .1ZM68 49.4l-3-1.5a5 5 0 0 1-1.3-.8l-.4-.3-.4-.2v.2l.4.2.5.5c.3.3.8.4 1.2.7a415.5 415.5 0 0 1 3 1.2Zm0 0"/><path fill="#c39d35" d="M67.5 49.3c-.9-.4-1.8-.5-2.7-1l-1.2-.8c-.4-.2-.6-.7-1-.8-.2 0-.2.2-.1.2.2 0 .4.3.5.4l.5.5 1.3.7 2.6 1 .1-.2ZM68.5 49.2l-1.4-.4c-.4-.1-.8-.4-1.1-.6-.7-.6-1.2-1.2-2-1.6 0 0-.1.1 0 .2.7.3 1.3 1 2 1.6l1 .6 1.5.3c.1 0 .1-.1 0-.1Zm0 0"/><path fill="#c39d35" d="M68 49c-.9-.7-1.8-1.4-2.5-2.3-.1 0-.3 0-.2.1.8 1 1.7 1.6 2.6 2.4 0 0 .2-.1.1-.2Zm0 0"/><path fill="#c39d35" d="M68.4 49.3c-.4-.4-.9-.8-1.2-1.3l-.3-.8-.4-1s-.2 0-.1.1c0 .4.2.7.3 1l.4.8c.3.6.8 1 1.2 1.4 0 0 .2 0 .1-.2Zm0 0"/><path fill="#c39d35" d="M68.6 49c-.5-.2-.9-.7-1-1.3a3 3 0 0 1-.2-.8v-1c0-.1-.2-.1-.2 0v1c0 .4 0 .7.2 1 .2.5.6 1 1 1.3.2.1.3 0 .2-.1Zm0 0"/><path fill="#c39d35" d="m68.7 49.3-.5-1v-.8c0-.5.2-1 0-1.5v.1c0 .2.1.1.1 0V46c0-.1-.2 0-.2 0 .1.6 0 1.2-.1 1.7 0 .6.2 1.2.5 1.7l.2-.1Zm0 0"/><path fill="#c39d35" d="M68.7 49.3c-.2-.6 0-1.1.3-1.6l.4-.8c.2-.2.3-.4.2-.6 0-.1-.2 0-.1 0l-.1.4-.3.3-.4.8c-.2.5-.3 1-.2 1.6l.2-.1Zm0 0"/><path fill="#c39d35" d="M68.6 49.3a5.1 5.1 0 0 1 1.5-2.2l.7-.6c.1-.1 0-.2-.1-.2l-.7.7-.7.7c-.4.5-.6 1-.8 1.6-.1.1 0 .2.1 0Zm0 0"/><path fill="#c39d35" d="M68.6 49.3c.5-.6 1.1-1 1.8-1.5l1-.6.8-.6c0-.1 0-.3-.2-.2l-.8.7-1 .6c-.6.4-1.2.9-1.7 1.5 0 0 0 .2.1.1Zm0 0"/><path fill="#c39d35" d="M68.8 49.2c.6-.6 1.5-1 2.3-1.3a12.3 12.3 0 0 0 1.7-.8c.1 0 .4-.2.4-.4l-.2-.1v.1c0 .1.2.1.2 0H73l-.3.2-.3.2a3 3 0 0 1-.5.2l-1.2.5c-.8.3-1.5.7-2 1.3-.2 0 0 .2 0 .1Zm0 0"/><path fill="#c39d35" d="M68.7 49.3a5 5 0 0 1 1.5-.6l1.4-.3a3 3 0 0 0 2.2-1.5c0-.1-.2-.2-.2 0l-1 1a3 3 0 0 1-1.3.4c-.5 0-1 0-1.4.2a5 5 0 0 0-1.3.7s0 .2.1.1Zm0 0"/><path fill="#c39d35" d="M69.5 49c.8-.4 1.8-.3 2.7-.5l1.3-.5.6-.4c.2-.1.4-.3.6-.2.1 0 .2-.1 0-.2-.3-.1-.6.2-1 .4a4 4 0 0 1-1.5.7c-1 .2-2 .1-2.8.6-.1 0 0 .3 0 .2ZM68.4 45.4c.8-.8 2-1 3-.9a7.5 7.5 0 0 1 4.2 1.9l.2-.1v-.1c-.2-.2-.3 0-.2 0v.2l.1-.1a8.1 8.1 0 0 0-2.6-1.6c-1-.3-2.1-.5-3.2-.3-.6.1-1.2.4-1.6 1-.1 0 0 .1.1 0ZM72.3 34.7a6 6 0 0 1 1.9-4s0-.2-.2-.1a6.2 6.2 0 0 0-2 4.1h.3Zm0 0"/><path fill="#c39d35" d="M72.2 34.9c.6-1.4 2.2-2.1 2.6-3.7 0 0-.1-.1-.2 0-.4 1.5-2 2.2-2.6 3.6 0 0 .1.2.2 0Zm0 0"/><path fill="#c39d35" d="M72.2 34.9a4.7 4.7 0 0 1 2.6-1.9l.5-.2.5-.2v-.2h-.2c0 .2 0 .3.1.2h.1c.1 0 0-.2 0-.2-.2 0-.3 0-.5.2l-.5.2a5 5 0 0 0-2.7 2s0 .2.1 0Zm0 0"/><path fill="#c39d35" d="M72.2 35c1-1.3 2.7-1 4-1.4.1 0 0-.2 0-.2H76c-.2 0-.2.2 0 .2v-.2c-1.3.3-3.1.1-4 1.4-.1.1 0 .2.1.1ZM72.1 34.4c-.3-1.4.3-2.7.3-4 0-.1-.2-.1-.2 0 0 1.3-.6 2.6-.3 4 0 .1.3 0 .2 0Zm0 0"/><path fill="#c39d35" d="M72 34.6c-.2-1.3-.9-2.6-1.8-3.7 0-.1-.2 0-.1.1.9 1 1.5 2.4 1.8 3.7 0 .1.2 0 .2 0ZM60.5 47.5H60l-1 .4a16 16 0 0 0-2.6 2.1c0 .1-.1 0-.1 0 .5-.6 1-1.1 1.7-1.6a6.7 6.7 0 0 1 1.7-1h.5l.1-.1h.2s.1.1 0 .2Zm0 0"/><path fill="#c39d35" d="M60.2 47.3h-.8l-.3.1-1.2.5-.2.1-.8.5s-.2 0-.3.2l-.5.4-.2.2-.2.2v.1c0 .2-.2.1-.2 0v-.2l.2-.2.3-.3.5-.4.8-.5.2-.1a8.2 8.2 0 0 1 1.5-.7H60.2ZM60.4 47.3v.2h-.1l-.1.2h-.1l-.3.3a7 7 0 0 0-1.8 2.8v.1h-.3v-.2a7.4 7.4 0 0 1 2.3-3.1l.3-.2.1-.1Zm0 0"/><path fill="#c39d35" d="M60.4 47.4v.2l-.2.3v.2l-.2.5-.1.7v1l.4.8v.1c0 .2-.1.2-.2.1v-.1c-.1-.3-.3-.6-.3-1l-.1-1a4 4 0 0 1 .2-1.1l.1-.3.2-.2v-.1c.1-.1.2-.1.2 0Zm0 0"/><path fill="#c39d35" d="M60.2 47.7c0 .6 0 1.3.3 2l1 1.6.2-.2h-.1c0-.2-.2-.2-.2 0l.2.2s.2 0 0-.2c-.4-.4-.7-1-1-1.6l-.2-1.8c0-.2-.2-.2-.2 0ZM60.2 47.2c-.8-.4-1.7-.8-2.4-1.3l-1-1-1-1s-.2 0-.1.2l1 1 1 1 2.4 1.3c.1 0 .2-.1.1-.2ZM60 47.4c-1.6-.7-3.3-1-5-1.2-.1 0-.1.2 0 .2 1.7.1 3.3.5 4.9 1.1.1 0 .2 0 0-.1Zm0 0"/><path fill="#c39d35" d="M60.1 47.3v.1h-1.6l-1.2.1c-.7.2-1.4.3-2 .7l-.4.2-.1.1h-.1c0 .2-.2 0-.1 0l.1-.2c.8-.6 1.7-.8 2.5-1l1.8-.1h1l.1.1Zm0 0"/><path fill="#c39d35" d="M59.8 47.1c-1.4-1-3-2-3.7-3.7 0-.1-.2 0-.2 0a9 9 0 0 0 3.8 4c.1 0 .2-.2.1-.3ZM78.6 40.7h.5l.5.3a4.9 4.9 0 0 1 1.6 1.2l.2.2V42h-.1v.1c0 .1 0 .2.2.1h-.2V42L81 42c0-.2-.2-.3-.3-.3L80 41l-.8-.4c-.2 0-.5-.2-.7-.1-.1 0 0 .2 0 .2Zm0 0"/><path fill="#c39d35" d="M78.5 40.7c1.2.6 1.8 1.8 2.7 2.7l.2-.1c-1-1-1.6-2.2-2.8-2.7-.1 0-.2 0-.1.1ZM78.4 40.3l1.4.3.7.1.7.4v-.2c-.1 0-.2.1 0 .2.1 0 .2-.1.1-.2l-1.4-.5c-.5-.1-1-.1-1.4-.3-.1 0-.2.2 0 .2Zm0 0"/><path fill="#c39d35" d="M78.4 40.2a3 3 0 0 1 2.6-.4v-.2c-.1 0 0 .3 0 .2.2 0 .2-.1 0-.2-.8-.2-1.9-.1-2.7.4 0 0 0 .3.1.2Zm0 0"/><path fill="#c39d35" d="M78.5 39.9c.6-.7 1.5-1 2.3-1.1v-.1c-.2 0-.2 0 0 .1l.1-.1v-.1c-1 0-1.9.5-2.5 1.1-.1.1 0 .2.1.2ZM78.4 39.6c.2-.5.6-.9 1-1.2l.7-.4.4-.2h.2l.2-.2v-.1c-.1.1 0 .2 0 .1.1 0 0-.1 0-.1h-.2l-.4.2-1 .5c-.4.3-.8.7-1.1 1.2 0 .2.1.3.2.2Zm0 0"/><path fill="#c39d35" d="M78.4 39.2a6 6 0 0 1 2.2-2.2c.1 0 0-.2 0-.2-1 .6-1.8 1.4-2.4 2.4 0 0 .1.2.2 0ZM78.2 38.8c0-.5.3-1 .6-1.4.4-.4.7-1 1.3-1.2L80 36c-.6.3-1 .9-1.4 1.4-.3.4-.5.9-.6 1.4 0 .1.2.1.2 0ZM78 38.3c.1-1 .4-2 1.2-2.6.1 0 0-.2 0-.2-1 .6-1.2 1.7-1.3 2.8h.1ZM77.8 37c-.1-.5 0-1.1.3-1.6 0-.1 0-.2-.1-.1-.4.5-.5 1.2-.4 1.8h.2ZM77.4 36.3l-.1-.7c0-.2 0-.4.2-.6l-.1-.1h-.1l-.2.8c0 .2 0 .4.2.7 0 0 .2 0 .1-.1ZM62.3 51.1h-.1l-.1.1h-.2l-.3.2-.2.2-.5.6-.7 1.3-.2.5v.3l-.5.8-.5 1.3V56.7l-.1.2-.1.2-.2-.2h.1V56.5l.1-.1v-.2l.1-.2.4-.8.5-1V54l.3-.5c.3-.6.6-1.4 1.1-1.9l.2-.2.2-.1h.1c.1-.2.2-.2.3-.2l.2-.1c.1 0 .2.1 0 .1Zm0 0"/><path fill="#c39d35" d="M62.1 51v.2H62l-.5.1h-.1l-.4.3c-.5.4-1 1-1.4 1.6l-.4.6-.2.3a19 19 0 0 0-1 1.7v.2c0 .1-.2 0-.2 0l.2-.5.8-1.5.2-.2.6-.9c.3-.4.7-1 1.2-1.4h.1l.2-.2.3-.2h.7Zm0 0"/><path fill="#c39d35" d="M61.8 51c-.4 0-.7.1-1 .3l-1.2.6c-.8.5-1.5 1-2 1.7l.2.1c.5-.7 1.2-1.2 1.9-1.6l1-.6 1.2-.3V51Zm0 0"/><path fill="#c39d35" d="M60.5 58.2v-1.6l-.1-.4.1-1.7.1-.3 1-2.5.2-.2v-.2h.1v-.1h.2v.2l-.1.1v.1l-.1.2c-.4.8-.8 1.6-1 2.5l-.2.2-.1 1V56.8l.1.4V58.2h-.2Zm0 0"/><path fill="#c39d35" d="M62.5 58.8v-.2h-.1c0-.3-.2-.5-.3-.7l-.1-.6-.1-.2V57l-.1-.3-.3-2V54c0-.8.3-1.6.4-2.3V51h.2V52l-.1.2v.5l-.3 1.5v1.5a9 9 0 0 0 .4 1.3l.1.3.2.6.2.6v.1l.1.1c0 .2-.1.2-.2.1Zm0 0"/><path fill="#c39d35" d="m64 59-.1-.1-.1-.5-.2-.5-.2-.4v-.1l-.1-.3-.1-.2-.4-.8a8 8 0 0 1-.3-1.2v-.3h-.1A17 17 0 0 1 62 52v-.4h.1V52.7l.1.5.1.5.2 1v.3l.2.5.5 1.4.2.3v.2l.3.6.1.4a3.2 3.2 0 0 0 .2.5v.2c0 .1-.1.2-.1 0Zm0 0"/><path fill="#c39d35" d="M65 59v-.2l-.1-.3-.1-.3-.1-.2-.1-.2c0-.2-.2-.3-.3-.5v-.2L64 57l-1-2-.2-.2-.5-1-.3-1-.1-.4v-1.1h.1v.7l.2.7v.2l.1.2.7 1.8.2.3.3.5.2.3.6 1 .1.3v.1l.2.2.1.3.2.4.1.5.1.1v.1h.1c0 .2-.2.3-.2.1Zm0 0"/><path fill="#c39d35" d="M66.4 58.5h-.2v-.1l-.3-.4-.2-.3-.4-.5-.3-.3-.7-.6-.6-.6-.5-.7s0-.2-.2-.3a8.2 8.2 0 0 1-1-2.7V51c0-.1.2-.2.2 0V52l.3 1v.3a5.5 5.5 0 0 0 .6 1.3l.2.3.2.3.6.8.7.6.5.4.1.2h.1v.1l.4.5.2.4.2.2h.1v.2Zm0 0"/><path fill="#c39d35" d="m67.7 57.6-.1-.1h-.1L67 57l-.4-.2-.6-.4-1.6-.8a3.5 3.5 0 0 1-.9-.8l-.3-.3-.4-.6-.5-1v-.2l-.2-.8v-.5l-.1-.1v-.1c0-.1.1-.1.1 0h.1v.7a6 6 0 0 0 .7 1.8c.2.4.6.8 1 1.2l.4.3.6.4 1.6.8.4.4s.2 0 .3.2a5.8 5.8 0 0 1 .5.4c.2.1 0 .3 0 .2ZM70 44.3a3 3 0 0 0 0-1.6l-.3-.4c0-.1-.2 0-.1 0l.2.5v1.4c0 .2.2.2.3 0Zm0 0"/><path fill="#c39d35" d="m70.2 44.4.2-1.5c0-.5-.1-1-.4-1.3l-.2.1v.1c0 .1.2.1.2 0H70c.3.3.3.8.3 1.2l-.1 1.4s.1.1.1 0ZM70.1 44.3l-.6-.4-.5-.4c0-.1-.2 0 0 .1 0 .2.2.3.4.5l.6.3c.1.1.2 0 .1-.1Zm0 0"/><path fill="#c39d35" d="M70.2 44.3h-.9c-.3.1-.5.1-.8 0l-.1.2c.6.3 1.2 0 1.8 0 0 0 .1-.2 0-.2Zm0 0"/><path fill="#c39d35" d="m69.8 44.4-.6.1-.6.4-.6.3-.5.3c-.1 0-.1.2 0 .2l.5-.2.5-.4.6-.3.7-.2v-.2Zm0 0"/><path fill="#c39d35" d="M67.7 45.6h-.2l-.2.1h-.1v.2h.3l.3-.1v-.2ZM70.8 43.8c.2 0 .4-.3.6-.5l.4-.6 1-1.5c.7-1 1.5-1.8 2.6-2 .6-.1 1.1-.1 1.6.2l.1-.2c-.8-.5-1.9-.3-2.7.2-1 .6-1.7 1.6-2.3 2.6l-.6.9c-.2.3-.4.6-.8.7-.1 0 0 .2 0 .2Zm0 0"/><path fill="#c39d35" d="M70.8 43.8c.7-.7 1-1.7 1.5-2.5.6-1 1.3-2 2.4-2.5a3 3 0 0 1 1.8-.5c.1 0 .2-.1 0-.2-1.1-.1-2.2.5-3 1.3-.4.4-.8.9-1 1.4l-.8 1.4a5 5 0 0 1-1 1.5c-.2 0 0 .2 0 .1Zm0 0"/><path fill="#c39d35" d="M70.7 44c1.6-1.7 1.8-4.2 3.3-5.8.5-.5 1-.8 1.6-1 .2 0 .1-.2 0-.2-1 .3-1.9 1.1-2.5 2-.6 1-1 2.1-1.4 3.2l-1.1 1.6c-.1 0 0 .2.1.1Zm0 0"/><path fill="#c39d35" d="M71 43.6c.5-.1.8-.6 1.1-.9l1.1-1.1a5 5 0 0 1 2.6-1.4c.5 0 1 0 1.4.2l.1-.2c-.8-.4-1.7-.3-2.5 0a8 8 0 0 0-2.5 2l-.6.7c-.2.2-.4.4-.8.5l.1.2Zm0 0"/><path fill="#c39d35" d="M71.5 43.4c1.4-1.1 3.2-2.4 5.1-2l.4.2.2.1c.2 0 .2-.2.1-.2h-.1c-.1 0 0 .2 0 .1h.1-.1v-.1l-.3-.1-.3-.1a4.4 4.4 0 0 0-2.1.1c-1.2.3-2.2 1-3.1 1.8-.1.1 0 .3 0 .2Zm0 0"/><path fill="#c39d35" d="M70.5 43.9c.5-1.3.8-2.6.8-3.9 0-1.3-.2-3 .9-4 .5-.4 1.2-.6 2-.7.6 0 1.2.2 1.7.7l1 1.9c0 .4.2.7.3 1 0 .4.2.7.3 1 .2.3.3.7.3 1l-.2 1c-.3.6-.6 1.2-.6 1.8 0 .1.2.1.2 0 0-.6.4-1.1.6-1.7l.2-.9c0-.3 0-.6-.2-.9l-.3-1-.4-1c-.2-.8-.4-1.5-.9-2-.4-.5-.9-1-1.5-1-.6-.1-1.4 0-2 .3-.6.3-1 .8-1.3 1.4l-.3 2-.1 2.6-.6 2.3c-.1 0 0 .2.1 0Zm0 0"/><path fill="#c39d35" d="M70.3 43.7c.3.2.5-.4.6-.6l.5-1.3c.3-.8.3-1.7.4-2.6 0-.8.3-1.7 1-2.2.4-.3.9-.4 1.3-.5.4 0 .9 0 1.2.2.4.2.7.6 1 1L77 39c0 .1.3 0 .2 0l-.8-1.3-.7-1c-.6-.5-1.5-.4-2.3-.2-.4.1-.7.3-1 .7-.3.2-.5.6-.6 1-.3.8-.2 1.7-.4 2.6 0 .5-.2 1-.4 1.5l-.3.7s-.2.6-.3.5c-.1 0-.2.1-.1.2Zm0 0"/><path fill="#c39d35" d="m78 42.4-1 2.2-.1.1h-.2l.3-.7.1-.2v-.2l.3-.4.5-1c.1-.4.3-.7.3-1.1 0-.4-.3-.8-.4-1a4 4 0 0 1-.3-1l-.2-1c-.2-.8-.5-1.5-1-2-.4-.5-1-1-1.7-1.1-.7-.1-1.4.1-2 .4-.7.3-1.2.8-1.5 1.4-.3.7-.3 1.4-.2 2v2.3l-.1 1.1-.2.8v.1c-.1.1-.2 0-.2 0l.3-1.5V38c0-.6.2-1.3.7-1.8.4-.6 1-.9 1.7-1.1.5-.2 1-.3 1.4-.2l.6.1h.1a4 4 0 0 1 1.5 1.4c.5.6.7 1.3.9 2 0 .5 0 .9.2 1.2l.4 1 .1.4v.4c0 .4-.2.7-.3 1Zm0 0"/><g clip-path="url(#w)"><path fill="#c39d35" d="M74.9 56.7v.2l5.9 12.5.9 2 .3.8a1011.5 1011.5 0 0 0 4.4 9.4l1.5 3.3.3.8.3.6.8 1.7.6 1.2L91 92l.7 1.5.5 1.2.7 1.3h.6l-.2-.5-.6-1.2-1.2-2.6-.6-1.4-1.2-2.5v-.2l-.4-.7-.1-.3-.3-.6-.6-1.4-.2-.4-1.6-3.4-1.9-4-2.5-5.6-3-6.3 3 5.8.4.7L85 76l2.4 4.9.4.7.2.5.4.9.2.3.4.9.8 1.5 1 2v.4l.2.2v.2l.3.4.4 1 .5 1 1.7 3.7v.2l.2.2v.1l.2.3.2.5h.6l-.4-.7V95l-.3-.7-.3-.7-.1-.2-.3-.6-1.5-3.2-.5-1-.2-.6-.1-.2-.2-.3-.3-.6-.4-1v-.2l-.7-1.3-.3-.5-.5-1.2-.4-.8-.6-1.2-.7-1.5-.2-.3a709 709 0 0 0-4.3-8.6l-1.2-2.4-6-11.3-.1-.2-.2-.1c-.1 0-.3 0-.4.2v.2Zm0 0"/></g><g clip-path="url(#x)"><path fill="#c39d35" d="m52.2 62.1 9.6 1.6 4.3.7 1.1.2 1.4.3 1 .2 1.6.3 4.4 1.3c1.4.4 2.8 1 4 1.8a9 9 0 0 1 3 3.2l.8 1.4L85 76l1.2 2 1.1 2 .2.3.6 1 .6 1.1.8 1.5.2.3.3.5.4 1 .3.4v.1l.5 1 .2.3.1.2.3.6 1.3 2.5.5 1 .4.9.6 1.3.1.2.6 1.2.3.5h-1l-.1-.3-.2-.2-.2-.4-.1-.2-.6-1c0-.3-.2-.5-.3-.7a842 842 0 0 1-2.7-4.8l-.3-.5-.8-1.2-.2-.4-.2-.4a125.3 125.3 0 0 0-3.7-6l-3-3.6c-1-1.2-2-2.5-3.2-3.6-.5-.5-1-1-1.7-1.3l-2.1-.9-.3-.1-1.3-.5-.6-.2-1.5-.6-.7-.2c-3-1-5.9-2-8.9-2.8l-4.5-1.2a35.5 35.5 0 0 1-5.4-2.2c-.4 0-.1-.5.2-.5Zm4.4 1.8a138.3 138.3 0 0 1 20.2 6.5 9 9 0 0 1 1.8 1l1.6 1.7 1.6 1.8 3 3.7c.2 0 .2.2.3.2l1.5 2 .4.4.6.8.8 1-.7-1.2-.2-.3-1.8-3.1-.5-.9-.5-.8-2-3.5-1-1.7c-.5-.7-1-1.4-1.7-2-1-.9-2.4-1.5-3.7-2-1.4-.5-2.9-1-4.4-1.3-3-.7-6-1.2-9.2-1.8L54.3 63l2.4 1Zm0 0"/></g><path fill="#c39d35" d="M91.6 40.9a14 14 0 0 0 .2-.3c0 .2 0 .3.2.4v.5l.2.2v.5a35.2 35.2 0 0 1-2.1 6.8l-.8 2.2-.5-.6.3-.6c1-2.6 1.9-5.2 2.5-8l-3.2 6.8-.5 1-.4-.3 4.1-8.6ZM81.5 67.4v.4c.1 1 .4 1.9.8 2.8l.5 1.3.6 1.2 1.5 3.5.8 1.8 1.3 2.8 1 2.2 1 2 .4 1 .7 1.6.2.3 1 2.4.6 1.3 1 2.3v.2l.5 1 .2.4h.7l-.2-.3-.1-.3-.1-.2-.5-1c0-.3-.2-.5-.3-.8l-.1-.2-1.3-2.8c0-.3-.2-.5-.3-.8l-.2-.5c-.3-.4-.4-.9-.6-1.3v-.1l-.8-1.8a8.7 8.7 0 0 0-.2-.4v-.1l-.4-1.1-.5-1.7-.2-.6-.7-2.4-.7-2.7-.1-.4-.8-3.2v-.3l-.4-1.3A92.6 92.6 0 0 1 85 67c0-.8.2-1.5.4-2.2l.5-2.3.9-3.3.3-.9V58l.2-.6.3-1.1.2-.7c-.2 0-.3 0-.5-.2l-.1.4-.2.6-.3 1v.1l-.3.9-.2.6-1.2 4.6c-.3 1.5-.7 3-.5 4.5 0 .8.3 1.6.5 2.4l.5 2.4 1.2 4.8.4 1.2.2.8c0 .2 0 .4.2.7L88 82l-.2-.5-.4-.9-.4-1-.8-1.7-1.2-2.8-2-4.5-.2-.5c-.3-.6-.5-1.1-.6-1.7a8 8 0 0 1-.1-2.3c0-1.5.5-3 .9-4.4a47 47 0 0 1 2.3-6.1l.3-.7.2-.4.1-.1.2-.4c-.2 0-.4-.2-.5-.3l-.2.3v.2l-.4.7a125.8 125.8 0 0 0-2.9 8 14 14 0 0 0-.6 4.4Zm0 0"/><path fill="#c39d35" d="M79.5 49.4v-.1l.3-.4 1.2.9 5 4 .2.2.6.5 1 1c.5.6 1 1.1 1.3 1.8.5 1.2.8 2.5 1.2 3.7 1.4 5.4 2.3 10.8 2.9 16.3l.1 1.3v.8-1.7A175.4 175.4 0 0 0 91 56.5c-.2-1.3-.5-2.6-1.1-3.7-1-2-3-3.4-4.8-4.6a121.3 121.3 0 0 0-3.8-2.3l-.1-.1s-.1-.1 0-.2c0 0-.1-.3 0-.4l.1.2 1.3.7.8.5.6.3c1.2.7 2.5 1.4 3.6 2.3l.4.4a16 16 0 0 1 1.4 1.3v.1c1.7 2 2 4.7 2.5 7.2a140.3 140.3 0 0 1 1.8 17l.3 5.2.1 2 .5 9a105.3 105.3 0 0 1 0 2.2l.1.6v1.2l.1.3v.2h-.5l-.2-.6V95c-.2-.5-.3-1.1-.3-1.7l-.1-.3v-.2l-.2-1v-.2c-.3-2.3-.3-4.6-.4-6.9l-.2-3.8v-1.2l-.2-1a95.3 95.3 0 0 0-3.4-19.1 8.8 8.8 0 0 0-1.6-3.3l-.1-.1a7.5 7.5 0 0 0-1-1l-.7-.7h-.2c0-.2-.2-.3-.3-.4l-.3-.2-.2-.2-.7-.6-2.2-1.7-2.5-2ZM93.8 88l.1 1.3V88l-.1-1.6v1.6ZM55 34.5l2.8.9a1 1 0 0 0-.7.7 8 8 0 0 0-.6-.3l-1.7-.7c-.3-.2 0-.7.2-.6ZM68.8 65.1a297.6 297.6 0 0 0-7-6.6l.6.3h.6l3 2.8 3.8 3.7-1-.2Zm0 0"/><g clip-path="url(#y)"><path fill="#c39d35" d="m88.5 86.3 1 1 .3.4.5.6.7 1a32.3 32.3 0 0 1 1.1 1.6l1.8 3.7-.5-.8-.3-.5-1.4-2-.4-.6c0-.2-.2-.4-.4-.6L89.3 88l-2.1-2.6-.5-.6c.6.5 1.3 1 1.8 1.6Zm0 0 1 1 .3.4.5.6.7 1a32.3 32.3 0 0 1 1.1 1.6l1.8 3.7-.5-.8-.3-.5-1.4-2-.4-.6c0-.2-.2-.4-.4-.6L89.3 88l-2.1-2.6-.5-.6c.6.5 1.3 1 1.8 1.6Zm0 0 1 1 .3.4.5.6.7 1a32.3 32.3 0 0 1 1.1 1.6l1.8 3.7-.5-.8-.3-.5-1.4-2-.4-.6c0-.2-.2-.4-.4-.6L89.3 88l-2.1-2.6-.5-.6c.6.5 1.3 1 1.8 1.6Zm0 0 1 1 .3.4.5.6.7 1a32.3 32.3 0 0 1 1.1 1.6l1.8 3.7-.5-.8-.3-.5-1.4-2-.4-.6c0-.2-.2-.4-.4-.6L89.3 88l-2.1-2.6-.5-.6c.6.5 1.3 1 1.8 1.6Zm0 0 1 1 .3.4.5.6.7 1a32.3 32.3 0 0 1 1.1 1.6l1.8 3.7-.5-.8-.3-.5-1.4-2-.4-.6c0-.2-.2-.4-.4-.6L89.3 88l-2.1-2.6-.5-.6c.6.5 1.3 1 1.8 1.6Zm0 0 1 1 .3.4.5.6.7 1a32.3 32.3 0 0 1 1.1 1.6l1.8 3.7-.5-.8-.3-.5-1.4-2-.4-.6c0-.2-.2-.4-.4-.6L89.3 88l-2.1-2.6-.5-.6c.6.5 1.3 1 1.8 1.6ZM71.1 68.7l1.2.3.7.6a93.1 93.1 0 0 1 .5.2h.7l.6.5 1.8 1.8c3.4 3.7 6.7 7.4 9.8 11.3l.7.9a463 463 0 0 1 2.3 3l.4.4.5.6.7 1 .7 1 .4.6 1.6 2.4.3.5.3.5.3.6.1.1.4.8.1.1h-.6l-.2-.3-.1-.2-.2-.4v.1l-.1.1h-.1c-.1.1-.3.1-.4 0l-.6-.8-.2-.2-1.6-2.3-6-8.2-.2-.2v-.1l-.2-.2-.1-.2-.1-.2-.5-.7-.3-.3-2.8-3.7c-1.5-1.8-3-3.4-4.7-5a240 240 0 0 0-4.8-4l-.4-.5h.1Zm15.2 15.6 3.6 5 1.7 2.3.3.4 1.1 1.5.4.6.6.7-.1-.2-.5-.8-.3-.5-1.3-2-.4-.6-.4-.5-1.7-2.2-2-2.7-.6-.6-1.5-1.9-.4-.4.3.3 1.2 1.6Zm2.2 2 1 1 .3.4.5.6.7 1a32.3 32.3 0 0 1 1.1 1.6l1.8 3.7-.5-.8-.3-.5-1.4-2-.4-.6c0-.2-.2-.4-.4-.6L89.3 88l-2.1-2.6-.5-.6c.6.5 1.3 1 1.8 1.6Zm0 0 1 1 .3.4.5.6.7 1a32.3 32.3 0 0 1 1.1 1.6l1.8 3.7-.5-.8-.3-.5-1.4-2-.4-.6c0-.2-.2-.4-.4-.6L89.3 88l-2.1-2.6-.5-.6c.6.5 1.3 1 1.8 1.6Zm0 0 1 1 .3.4.5.6.7 1a32.3 32.3 0 0 1 1.1 1.6l1.8 3.7-.5-.8-.3-.5-1.4-2-.4-.6c0-.2-.2-.4-.4-.6L89.3 88l-2.1-2.6-.5-.6c.6.5 1.3 1 1.8 1.6Zm0 0 1 1 .3.4.5.6.7 1a32.3 32.3 0 0 1 1.1 1.6l1.8 3.7-.5-.8-.3-.5-1.4-2-.4-.6c0-.2-.2-.4-.4-.6L89.3 88l-2.1-2.6-.5-.6c.6.5 1.3 1 1.8 1.6Zm0 0 1 1 .3.4.5.6.7 1a32.3 32.3 0 0 1 1.1 1.6l1.8 3.7-.5-.8-.3-.5-1.4-2-.4-.6c0-.2-.2-.4-.4-.6L89.3 88l-2.1-2.6-.5-.6c.6.5 1.3 1 1.8 1.6Zm0 0"/></g><path fill="#c39d35" d="m51 50.9 3.2 2.5L65 62.6l2.7 2.3a3 3 0 0 1-1.1-.3 1 1 0 0 0-.4-.1l-.4-.4-10.6-9.2-4.5-3.6.4-.4ZM57.6 54.8l-1-.8c-1.5-1.4-3.2-2.7-4.8-4l.3-.5v-.1l2.8 2.3 2.7 2.3a1 1 0 0 0 0 .8Zm0 0"/><path fill="#c39d35" d="M44 42.7c-.8.3-1.7.8-2 1.6-.4.9 0 1.7.6 2.3l2.3 1.7a51.3 51.3 0 0 0 3.6 2.4c.4.2.8.5 1.2.5 1 0 1.6-1 2-1.7.2-.3.5-.7.4-1.1 0-.4-.4-.8-.7-1l-2-1.8a21.3 21.3 0 0 0-5.3-2.8c-.4-.2-.2-.7.1-.6A22 22 0 0 1 52 47c.3.3.7.7.8 1.2.1.4 0 .9-.2 1.3-.5.9-1.1 1.9-2.1 2.2-1 .4-2-.3-2.7-.8L44.9 49l-2.6-2c-.7-.7-1.3-1.8-1-2.9.5-1 1.5-1.7 2.6-2 .3-.1.4.4 0 .5Zm0 0"/><path fill="#c39d35" d="M51.8 49.3c-2-2.1-4-4.3-6.8-5.6a9 9 0 0 0-2.2-.7c-.2 0-.1-.4 0-.3 3 .6 5.3 2.4 7.3 4.5l1.9 2c.2 0 0 .3-.2.1Zm0 0"/><path fill="#c39d35" d="M51.5 50a40.3 40.3 0 0 0-9.2-6.4c-.2 0 0-.3.1-.2a39.2 39.2 0 0 1 9.3 6.5c.1.1 0 .3-.2.2ZM42 43.7c1 1.1 2.3 1.8 3.6 2.7l3.7 2.7a9.7 9.7 0 0 0 1.5 1l.7.2c.1 0 .2.2 0 .3l-.8-.2-1-.6-1.9-1.5-4-2.8c-.8-.5-1.5-1-2-1.6-.2-.2 0-.4.2-.2ZM41.6 44.5c.9 1.1 2.2 1.9 3.5 2.6l3.6 2.5 1 .6.5.3.3.2.3.1v.2h.1c-.2.1-.3-.1-.2-.2h.2v.2c-.2.1-.3 0-.4 0l-.5-.2a30.3 30.3 0 0 0-4.8-3.2l-2-1.3c-.7-.4-1.4-1-1.9-1.6 0-.2.2-.4.3-.2ZM74.3 31l-.8-1.7h.6l1.1 2.3a1 1 0 0 0-.9-.6ZM81 45.7V44.8c.3.3.4.7.6 1.1l-.6-.2ZM84.8 53.2l.3.6.2.5.3.7 1 2.4.5.9-.4-1-.9-2.7v-.2l-.3-.6v-.2l.4.2.2.1.1.1a28.8 28.8 0 0 1 .8 2.3l.3 1 .8 2.4c1.6 4.7 3 9.5 4.1 14.3v.3c.5 1.4.8 2.9 1.1 4.3v.2l.6 2.8.2.8a50 50 0 0 1 .9 6.9v2l-.2.2h-.2c-.2 0-.2 0-.2-.2V88c-.1.2-.4.2-.6 0V88l-.7-3.3L91 74l-1.4-7a43.2 43.2 0 0 0-3.1-8.7l-1.2-2.6-.3-.7-.8-2-.3-.5 1 .7ZM93 80.8l.7 3.6.4 1.8.3 1.7c0-1.4-.3-2.9-.5-4.3l-.2-1.2a85 85 0 0 0-2.3-9.9l1.6 8.3ZM82.9 46.8 81 42c.3-.3.3-.9.1-1.2v-.2l2 4.8.6 1.7-.8-.4ZM78.5 35.4h-.3l-.4-1-2.7-5.7.5-.3a210 210 0 0 1 3.3 7h-.4Zm0 0"/><path fill="#c39d35" d="M71.1 18.7c-.9-.1-1.8 0-2.5.5-.7.6-.6 1.6-.3 2.4.3.9.8 1.7 1.3 2.6l1.4 2.5.8 1.2c.3.4.5.8 1 1 .8.5 1.8-.1 2.5-.6.3-.2.7-.5.8-1 0-.3 0-.8-.2-1.2a23 23 0 0 0-4.7-7.4c-.3-.2.1-.7.4-.4a22 22 0 0 1 4.8 7.7l.3 1.4c-.1.5-.4.9-.8 1.1-.8.6-1.8 1.2-2.8 1.1-1-.1-1.6-1.1-2.1-2a68.8 68.8 0 0 1-3.2-5.7c-.4-1-.5-2.2.3-3 .8-.8 2-1 3.1-.7.4 0 .3.6-.1.5Zm0 0"/><path fill="#c39d35" d="M75.4 28.2c-.9-2.9-1.8-5.8-3.7-8.1-.5-.6-1.1-1.2-1.8-1.7-.1-.1 0-.3.2-.2 2.4 1.8 3.7 4.5 4.7 7.2l.9 2.6c0 .2-.2.3-.3.2Zm0 0"/><path fill="#c39d35" d="M74.8 28.7c-1-2.8-2.5-5.4-4.1-7.9l-1.5-2c0-.2.1-.3.2-.2a41.6 41.6 0 0 1 5.7 10c0 .2-.2.3-.3 0ZM69 18.7c.3 1.5 1.3 2.7 2 4l2.3 4.1a18.5 18.5 0 0 0 1 1.6c0 .2.2.4.4.5.2 0 .1.3 0 .3-.4-.1-.5-.4-.7-.6l-.7-1-1-2-2.5-4.4c-.5-.8-1-1.5-1.1-2.4-.1-.2.2-.3.2-.1ZM68.2 19.2c.4 1.5 1.2 2.7 2 4 .9 1.2 1.6 2.5 2.3 3.8l.6 1 .4.5.2.3.2.2-.1.1v.1h.1c-.2 0-.2-.2 0-.2h.1v.2l-.1.1-.3-.2-.4-.5-.6-1-1.2-2-1.1-2c-.5-.6-1-1.3-1.3-2-.5-.7-.8-1.4-1-2.3 0-.1.2-.2.2 0Zm0 0"/><g clip-path="url(#z)"><path fill="#c39d35" d="m26.7 61.3.4.3.5.3c1.8 1.4 3.8 2.7 5.7 4l2.4 1.5 1 .7.6.3.1.1h.2l.6.4 2 1.1 5.9 3h.2l.5.2 1.7.6a47 47 0 0 0 7 2l1 .1 1 .2h.2l.6.1 10.4 1.4h.9c2.2.4 4.5.9 6.7 1.5a28.2 28.2 0 0 1 7.6 3.5l.4.3h.1l.3.2.3.3h.2l1 .9a35.9 35.9 0 0 1 2.3 2l1 .9.2.3.3.3.1.1.4.4.6.7.3.4.3.5 2 3 .2.4.1.2.7 1.3v.2l.4.6v.3h.7l-.5-1-.5-1v-.3h-.1l-.1-.2a12 12 0 0 0-1.1-2l-.5-.6-.8-1.2-.7-.9-.2-.2v-.1l-.2-.2-.2-.2-.2-.3-.2-.1-.1-.2-.5-.5-.5-.5-.5-.5-.1-.1-1-.9-.7-.7-2-1.4-1.4-1a32 32 0 0 0-8.6-3.6c-1.8-.5-3.7-.8-5.6-1l-.4-.1H69l-.3-.1-2-.3-8.5-1a82.5 82.5 0 0 1-2.7-.5c-3-.6-6-1.5-8.8-2.7l-.6-.2-.3-.2c-2.5-1-4.9-2.2-7.2-3.6l-.7-.4-2-1.2c-2.6-1.6-5.2-3.4-7.7-5.2l-.2-.2-.3-.2h-1Zm0 0"/></g><g clip-path="url(#A)"><path fill="#c39d35" d="M9.8 49.6c3.2.5 6.5 1 9.6 2.3 2.6 1 5.2 2.6 7 5 1 1.3 1.8 2.9 1.8 4.6v.2c-.2.1-.3.1-.4 0l-.2.2H27.3a19.4 19.4 0 0 1-14.7-8l-1-1.6-.3-.5-.6-.8-1.1-1c-.4 0-.1-.5.2-.4Zm3.7 4.5 1.9 2a19.4 19.4 0 0 0 11 5.1h.3l.5.1h.4v-.4c-.4-2.6-2.5-4.9-4.5-6.3A22.3 22.3 0 0 0 15 51l-2.1-.4-1.7-.3h-.4v.1h.1l.2.2v.1l.3.3 1.2 1.8.1.2.8 1Zm0 0"/></g><path fill="#c39d35" d="M37.6 68.5c-4.6-3-10.3-3-15.5-2.3l-5 1v-.7C20 66.3 22.3 68 25 69c2.7 1 5.5 1 8.3.7 1.6-.2 3.2-.6 4.7-1.1.3-.1.5.5.2.6-2.8.8-5.6 1.4-8.5 1.2-1.4 0-2.9-.2-4.2-.6-1.3-.4-2.6-1-3.9-1.6a9 9 0 0 0-4.4-1c-.3 0-.4-.5 0-.6 5.4-1 11.3-2.2 16.8-.4 1.4.4 2.7 1 4 1.9.2.2 0 .7-.3.5ZM37.3 57.2a17.8 17.8 0 0 1 9 10.9 9 9 0 0 1 .4 4.3v.1l.2.4-.1.3-.4-.2H46v-.5l-.3-.4c-.5-.5-1.1-.8-1.7-1.2-1-.6-1.9-1.3-2.5-2.3-1.4-2.1-1.9-4.7-2.6-7a11 11 0 0 0-2-4c-.3-.2 0-.5.3-.4Zm1.2 1.8c1 1.7 1.3 3.7 1.9 5.5a15 15 0 0 0 1.4 3.5c.7 1 1.5 1.8 2.5 2.4l1.1.7c.2 0 .4.2.5.3l.3.3a9 9 0 0 0-.3-3.2 16.6 16.6 0 0 0-7.2-9.9l-.3-.2-.3-.1.3.4.1.3ZM58.1 76.2c-1.3-.2-2.7-.5-4-.5-1.4 0-2.7.1-4 .5a57 57 0 0 0-7 2.2c-1.3.5-2.6 1.2-3.8 2l-.2-.6c2.5-.9 5.2-1.4 7.8-1.5 2.6 0 5.3.4 7.8-.4 1.2-.3 2.3-1 3.1-1.9.2-.3.7.2.4.4-1.6 1.9-4 2.5-6.3 2.5h-4.2a26 26 0 0 0-8.4 1.5c-.4 0-.5-.4-.3-.6 2.1-1.4 4.5-2.3 7-3l3.6-1.1c1.3-.3 2.7-.6 4-.7 1.6 0 3.1.3 4.6.6.4.1.3.7 0 .6ZM56.7 67.2c2.3.6 4.5 1.5 6.5 2.6 1.9 1.1 3.8 2.4 5 4.1.8 1 1.2 2 1.4 3.2 0 .2 0 .3-.2.3l.2.3h-.8c-.6-.5-1.3-.7-2-1h-.2c-1-.3-2-.8-2.8-1.4-1.7-1.4-3-3.2-4.5-4.9a15 15 0 0 0-2.8-2.6c-.3-.2-.1-.7.2-.6Zm1.4 1.1C61 71 63 75 66.7 76.1c.6.2 1.2.3 1.7.6l.4.2.1.1v-.2a8.1 8.1 0 0 0-3.1-4.5 23.4 23.4 0 0 0-5.7-3.4c-.3 0-.5-.2-.8-.3l-.6-.2-.5-.2H58l.1.1ZM84 83c-4.5-2.7-10-1.6-14.6.2-1.4.5-2.8 1.2-4.1 1.8l-.3-.5c5.1-2.3 10.7.1 16 0l2.2-.4c.6-.1 1.2-.4 1.6-.9.2-.3.6.1.4.4-.8 1-2 1.2-3.1 1.3-1.5.2-2.9.1-4.3 0-2.7-.3-5.5-.9-8.2-.8-1.5 0-3 .3-4.3.9-.4.1-.7-.4-.3-.5 4.8-2.2 10-4.4 15.4-3.5 1.4.2 2.8.7 4 1.4.3.2 0 .7-.3.5ZM86.6 72.7A16 16 0 0 1 92 87.5c0 .3 0 .6-.2.8v.2l-.2.2-.3.1v.2H91l-.6-.7-.3-.3-.2-.2a26.8 26.8 0 0 1-.9-1.6l-.2-.4a13.4 13.4 0 0 1-.9-2.4l-.4-1.4v-.5l-.1-.6v-.2l-.1-.3v-.8l-.1-.4-.1-2.3c-.2-1.3-.6-2.5-1-3.7V72.9c0-.2.3-.3.4-.2Zm1.2 6.7v.3a8.7 8.7 0 0 0 .3 1.6 17.7 17.7 0 0 0 .4 1.9v.1a17 17 0 0 0 2.1 4.4l.3.4v.1H91.3l.1-.2V87.7l.1-.1V87l.1-.2a16.3 16.3 0 0 0-.1-5 16 16 0 0 0-4-7.6l-.1-.1-.3-.3.2.6a8.3 8.3 0 0 1 .4 1.8c.2 1 .2 2 .2 3.1ZM81 88.8a26.8 26.8 0 0 1 11.8 5.4h.1l1 1h.1l.1.2h.1v.1l.2.1.3.3H94c-.2 0-.3-.2-.5-.4l-1-.9-1.1-.8c-2-1.4-4.2-2.5-6.5-3.3l-.2-.1-.6-.2-.6-.2.4.3c1 .9 2 2 2.8 3a25.8 25.8 0 0 0 2.6 2.6h-.8l-1.6-1.6c-.9-1-1.6-2-2.5-2.8-1-1-2-1.8-3.4-2.1-.4-.1-.2-.7.2-.6ZM27.7 61.7a22.4 22.4 0 0 0-13.4-10.3l-2.8-.8-.6-.1-.4-.1h-.2c-.2 0-.2-.4 0-.4h.1v.1c.1.2-.1.3-.2.2h.1l.1-.1V50h.3l.7.2 1.2.3 2.4.7a22.6 22.6 0 0 1 13 10.2c0 .2-.2.3-.3.2Zm0 0"/><path fill="#c39d35" d="M27.7 61.7a35.6 35.6 0 0 0-6.5-4.4l-6.8-4.1-1.8-1.3-1-.6-.4-.3-.2-.3v-.1l.2-.1h.1v.1c0 .2-.2.3-.3 0l.1.2h.1v-.2l.4.3.5.3.8.6 1.6 1a96.2 96.2 0 0 0 10 6.2l3.4 2.5c.1.1 0 .3-.2.2Zm0 0"/><path fill="#c39d35" d="M27.3 61.3a42 42 0 0 0-9.6-7.9 33 33 0 0 0-4-1.7l-2.5-1-.3-.1v-.3c.2 0 .4.1.3.3 0 .2-.3 0-.2 0 0-.3 1 .1 1 .2l1.1.4 2 .7A32.5 32.5 0 0 1 27.5 61c.1.2 0 .4-.2.3Zm0 0"/><path fill="#c39d35" d="m27.6 61.4-2-.7-2-.9-3.9-1.7a31.6 31.6 0 0 1-6.8-4.5c-1-.8-2-1.8-2.5-3 0-.2.2-.4.3-.2a8 8 0 0 0 2.2 2.8 42.2 42.2 0 0 0 6.6 4.4l3.8 1.7 2.1 1 2.2.8c.2 0 .1.3 0 .3ZM38 69l-1.7-.6-1.7-.5c-1.1-.3-2.3-.6-3.5-.7l-3.6-.1a46 46 0 0 1-7.7-.9c2.5.3 5 .5 7.4.5 1.2 0 2.4 0 3.7.2 1.1 0 2.3.3 3.4.7l2 .5 1.8.7c.2 0 0 .3-.1.2Zm0 0"/><path fill="#c39d35" d="M37.1 68.9c-2-.8-4.3-.6-6.5-.6-1.1 0-2.3-.3-3.4-.4a249.4 249.4 0 0 0-7.5-1c-.2 0-.2-.3 0-.3l7 .9 3.6.5h3.3c1.3 0 2.5.2 3.6.6.2 0 .1.3 0 .3Zm0 0"/><path fill="#c39d35" d="M37.2 68.7a22.1 22.1 0 0 0-12.8-2.5l-4 .4c-.2 0-.2-.2 0-.3 2.4-.2 4.8-.6 7.1-.5a22.2 22.2 0 0 1 9.8 2.6c.2.1 0 .3-.1.3ZM46 72.1a30 30 0 0 0-2-6.2c-.9-2-2.2-3.8-3.7-5.3L37.6 58c-.2-.2 0-.4.2-.3a20.5 20.5 0 0 1 7.6 10.6l1 3.7c0 .1-.3.2-.3 0Zm0 0"/><path fill="#c39d35" d="m45.9 72-2.7-5.8-1.4-2.8c-.4-1-1-1.8-1.7-2.6l-2.3-2.6c-.1-.1 0-.3.2-.2 1.4 1.5 2.9 3 3.8 4.8.6.9 1 1.8 1.4 2.8l1.4 3 1.5 3.3c.1.2-.1.4-.2.2ZM57.6 76.4c-2.2-.5-4.3.4-6.3 1-2 .5-4.2.4-6.3.7-1.2.2-2.3.6-3.4 1-.2.2-.3 0-.2-.2 1-.4 2-.8 3-1l3.2-.4c1.1 0 2.2-.1 3.3-.4l3.2-.8a8 8 0 0 1 3.5-.2c.2 0 .2.3 0 .3Zm0 0"/><path fill="#c39d35" d="M57.7 76.3c-1.9.9-3.8 1.8-5.8 2.1-1 .1-2.1 0-3.2-.1l-1.6-.1-1.6.2a34 34 0 0 1-3.7.5c-.2 0-.2-.3 0-.3 1.1 0 2.2-.2 3.3-.4l1.5-.3h1.6l3 .3c1.1-.1 2.1-.4 3.1-.7l3.3-1.4c.2 0 .3.2.1.2ZM68.6 77c-1-1.6-2-3-3.4-4.2-1.4-1.2-3-2.2-4.5-3l-2.9-1.6.2-.2.1.1c.2.2 0 .4-.2.2l-.1-.1c-.1-.1 0-.3.2-.3 3.2 1.7 6.6 3.5 9 6.4a15 15 0 0 1 1.8 2.5c.1.1-.1.3-.2.1Zm0 0"/><path fill="#c39d35" d="M69 77.3a8.7 8.7 0 0 0-2-1.6L64.8 74a70.6 70.6 0 0 1-4.3-3.6L58 68.2c-.1-.2 0-.4.2-.2l4.3 3.9a36 36 0 0 0 4.5 3.4c.8.5 1.6 1 2.2 1.8.1.1 0 .3-.2.2ZM84.9 83.4c-1.8-1.1-4-.9-6-.5-1.1.2-2.2.5-3.3.5h-3.3a8.4 8.4 0 0 0-3.7.1h.2c.2 0 0 .2-.1.2-.2 0-.2-.1-.2-.3v-.1c2.2-.8 4.5 0 6.7 0 2.3-.2 4.4-1 6.7-1 1.1 0 2.2.3 3.2.9 0 0 0 .3-.2.2Zm0 0"/><path fill="#c39d35" d="M84.8 83.5c-.4-.3-1-.3-1.4-.2-.6 0-1 .2-1.6.3-1 .4-2 .9-3 .9a24.4 24.4 0 0 0-6.8-.9h-4v-.3a35.9 35.9 0 0 1 8.8.6c.6.1 1.2.3 1.9.3 1.1 0 2.2-.6 3.2-1 1-.2 2.3-.6 3.1 0 .2.2 0 .4-.2.3Zm0 0"/><path fill="#c39d35" d="M83.5 83c-1.7-1-3.6-1.2-5.5-1.2l-1.6.1c-.5 0-1 .2-1.5.4a33.6 33.6 0 0 1-4.6 1.2l-1 .2h-.6c-.1.1-.2 0-.2 0h-.1c0-.2.3 0 .2.2-.2.2-.6-.2-.2-.4h.8l1-.2c1-.3 2.3-.5 3.4-.9 1.1-.3 2.2-.7 3.4-.8h3.3c1.2.2 2.4.5 3.4 1.1.1.1 0 .4-.2.3ZM87 73.5l1.8 3 .6 1.5.4 1.7c.3 1 .8 2 1 3.2a15.5 15.5 0 0 1 .7 5.2c0 .1 0 .4-.2.4s-.2-.1-.2-.2l.1-.1c.2 0 .2.2 0 .2h.1v-.1c-.2-.1-.1-.7-.1-.8v-.7a14.2 14.2 0 0 0-.8-4.5l-1-2.8-.3-1.4-.6-1.5-1.8-2.9c0-.2.2-.3.3-.2Zm0 0"/><path fill="#c39d35" d="M87 73.5a41.6 41.6 0 0 1 2.5 9l.8 2.7c.4 1 .8 2 1 3.1 0 .2-.3.3-.3.1-.3-1.9-1.3-3.6-1.7-5.5l-.6-3a54.5 54.5 0 0 0-1.6-6.4ZM82.5 89.8a6.6 6.6 0 0 1 1.3.5l.8.4 1.1.7c2.3 1.4 4.5 2.9 6.6 4.5h.4l-4.5-3.3c-1.2-.8-2.4-1.6-3.6-2.2l-1-.5-.4-.2-.6-.2c-.2 0-.3.2-.1.3Zm0 0"/><path fill="#c39d35" d="m83.2 90 .4.2 2 2c.7.8 1.5 1.8 2.4 2.6l1.5 1.1h.6a10.5 10.5 0 0 1-2.9-2.3l-2.6-3a7 7 0 0 0-.6-.5l-.3-.2-.4-.3-.2.1.1.2Zm0 0"/></svg>