<svg xmlns="http://www.w3.org/2000/svg" width="128" height="128" version="1.0" viewBox="0 0 96 96"><defs><clipPath id="a"><path d="M.3 93H8v3H.3Zm0 0"/></clipPath><clipPath id="b"><path d="M.3 52H2v9H.3Zm0 0"/></clipPath><clipPath id="c"><path d="M.3 48H3v13H.3Zm0 0"/></clipPath><clipPath id="d"><path d="M.3 47H6v14H.3Zm0 0"/></clipPath><clipPath id="e"><path d="M.3 49H9v12H.3Zm0 0"/></clipPath><clipPath id="f"><path d="M.3 56H1v5H.3Zm0 0"/></clipPath><clipPath id="g"><path d="M.3 48H3v3H.3Zm0 0"/></clipPath><clipPath id="h"><path d="M.3 73H1v3H.3Zm0 0"/></clipPath><clipPath id="i"><path d="M.3 63H4v5H.3Zm0 0"/></clipPath><clipPath id="j"><path d="M.3 59H14v4H.3Zm0 0"/></clipPath><clipPath id="k"><path d="M.3 59H1v6H.3Zm0 0"/></clipPath><clipPath id="l"><path d="M.3 59H1v1H.3Zm0 0"/></clipPath><clipPath id="m"><path d="M.3 57H1v3H.3Zm0 0"/></clipPath><clipPath id="n"><path d="M.3 38H4v7H.3Zm0 0"/></clipPath><clipPath id="o"><path d="M.3 37H16v24H.3Zm0 0"/></clipPath><clipPath id="p"><path d="M.3 50H27v11H.3Zm0 0"/></clipPath><clipPath id="q"><path d="M.3 57H1v3H.3Zm0 0"/></clipPath><clipPath id="r"><path d="M.3 41H2v20H.3Zm0 0"/></clipPath><clipPath id="s"><path d="M.3 59H1v2H.3Zm0 0"/></clipPath><clipPath id="t"><path d="M.3 38H13v22H.3Zm0 0"/></clipPath><clipPath id="u"><path d="M.3 38H13v21H.3Zm0 0"/></clipPath><clipPath id="v"><path d="M.3 60H10v6H.3Zm0 0"/></clipPath><clipPath id="w"><path d="M.3 60H7v7H.3Zm0 0"/></clipPath><clipPath id="x"><path d="M.3 60H11v5H.3Zm0 0"/></clipPath><clipPath id="y"><path d="M.3 88H2v8H.3Zm0 0"/></clipPath><clipPath id="z"><path d="M.3 80H1v7H.3Zm0 0"/></clipPath><clipPath id="A"><path d="M.3 74H1v2H.3Zm0 0"/></clipPath><clipPath id="B"><path d="M.3 65H2v10H.3Zm0 0"/></clipPath><clipPath id="C"><path d="M.3 72H2v3H.3Zm0 0"/></clipPath><clipPath id="D"><path d="M.3 73H1v2H.3Zm0 0"/></clipPath><clipPath id="E"><path d="M.3 88H2v8H.3Zm0 0"/></clipPath><clipPath id="F"><path d="M.3 82H2v5H.3Zm0 0"/></clipPath><clipPath id="G"><path d="M.3 82H2v2H.3Zm0 0"/></clipPath><clipPath id="H"><path d="M.3 34H4v12H.3Zm0 0"/></clipPath><clipPath id="I"><path d="M.3 0H7v43H.3Zm0 0"/></clipPath><clipPath id="J"><path d="M.3 22H4v21H.3Zm0 0"/></clipPath><clipPath id="K"><path d="M.3 23H3v17H.3Zm0 0"/></clipPath><clipPath id="L"><path d="M.3 29H2v11H.3Zm0 0"/></clipPath><clipPath id="M"><path d="M.3 38H1v1H.3Zm0 0"/></clipPath><clipPath id="N"><path d="M45 87h43.5v7H45Zm0 0"/></clipPath><clipPath id="O"><path d="M.3 89H6v7H.3Zm0 0"/></clipPath><clipPath id="P"><path d="M.3 88H5v2H.3Zm0 0"/></clipPath><clipPath id="Q"><path d="M.3 73H2v2H.3Zm0 0"/></clipPath><clipPath id="R"><path d="M.3 77H5v2H.3Zm0 0"/></clipPath><clipPath id="S"><path d="M.3 76H5v3H.3Zm0 0"/></clipPath><clipPath id="T"><path d="M.3 75H5v4H.3Zm0 0"/></clipPath><clipPath id="U"><path d="M.3 78H5v2H.3Zm0 0"/></clipPath><clipPath id="V"><path d="M.3 78H5v3H.3Zm0 0"/></clipPath><clipPath id="W"><path d="M.3 78H5v5H.3Zm0 0"/></clipPath><clipPath id="X"><path d="M.3 78H5v7H.3Zm0 0"/></clipPath><clipPath id="Y"><path d="M.3 78H5v10H.3Zm0 0"/></clipPath></defs><path fill="#c39d35" d="M40.6 90.5c1.4-1 3.3-1 5-1 2 .3 3.9.8 5.9.9h3.4c.4 0 .5-.7 0-.7-2 .1-4.1.1-6.2-.2-2-.4-3.9-.8-5.8-.5-1 .1-2 .5-2.8 1-.3.3.2.8.5.5Zm0 0"/><path fill="#c39d35" d="M40.3 90.2A4 4 0 0 0 43 90c1-.3 1.9-.8 2.8-1.2.9-.4 1.7-1 2.7-1.1 1-.2 1.9 0 2.8 0 .4.1.5-.5 0-.6-.9-.1-1.8-.2-2.7 0-1 0-1.8.5-2.7 1L43 89.1c-.8.4-1.6.7-2.5.4-.4 0-.6.5-.2.6Zm0 0"/><path fill="#c39d35" d="M40.4 90.7a17 17 0 0 1 3.9-3 393 393 0 0 1 7.2-4.2c.3-.2 0-.7-.3-.5l-4.7 2.7-4.4 2.6c-.7.6-1.5 1.2-2 1.9-.4.3 0 .8.3.5Zm0 0"/><path fill="#c39d35" d="M40.5 90.2c.4-1.6 1.7-2.6 3-3.4l2-1.4 1.8-1.7 1.7-2.2c.2-.4-.3-.7-.6-.4a22 22 0 0 1-3.2 3.8c-1.3 1-2.8 1.7-4 2.9-.6.6-1.1 1.4-1.3 2.2 0 .4.5.6.6.2Zm0 0"/><path fill="#c39d35" d="M40.4 90.8a8 8 0 0 1 2.9-.4c1 0 2 0 3 .2 1 0 2 .3 3 .7l2.5 1.4c1 .6 1.9 1 3 1.1.4 0 .4-.5 0-.6-2-.2-3.6-1.6-5.3-2.4-1.9-.9-4-1-6-1-1.1 0-2.2 0-3.2.4-.4 0-.3.7.1.6ZM50 83.5a1 1 0 0 0 .3.7 1 1 0 0 0 .7.3l.4-.1a1 1 0 0 0 .5-.5l.1-.4a1 1 0 0 0-.6-1 1 1 0 0 0-.8 0 1 1 0 0 0-.3.3 1 1 0 0 0-.3.7ZM53.9 90a1 1 0 0 0 .6 1 1 1 0 0 0 1.4-.5 1 1 0 0 0 0-.8 1 1 0 0 0-.3-.3 1 1 0 0 0-.7-.3 1 1 0 0 0-1 .6v.4ZM49.8 87.1l.1.4a1 1 0 0 0 1.4.5l.3-.2a1 1 0 0 0 .3-.7l-.1-.4a1 1 0 0 0-.2-.3 1 1 0 0 0-.7-.3 1 1 0 0 0-.8.3 1 1 0 0 0-.3.7Zm0 0"/><path fill="#c39d35" d="M53.8 93.5a1 1 0 0 0 .3.7 1 1 0 0 0 .7.3h.4l.3-.3.2-.3a1 1 0 0 0-.5-1.3 1 1 0 0 0-1.3.5l-.1.4ZM47.9 81.2a1 1 0 0 0 .6.9 1 1 0 0 0 1.3-.5 1 1 0 0 0-.5-1.3 1 1 0 0 0-1.3.5l-.1.4ZM28.4 88.9V88.6h.1v-.2l.1-.2V88l.6-.6.1-.1v.4l-.1.2v.2l-.2.2-.3.2-.2.2-.1.2ZM27 93.6h.2V93l.3.1v.2h.2c.3 0 .5 0 .7.2l.9.3 4 1.4h.2c.2.1.3.3.2.5 0 .1-.2.2-.4.1H33l-.2-.1-3.6-1.2-1.5-.6-.3-.1-.2-.1H27ZM26.3 93.3l.1-.3h.1v-.2l.3.1h.2v.2l-.2.3v.2l-.5-.3ZM32.3 89.8l.2-.2.1-.1.2-.1.3.3a4.9 4.9 0 0 0 2.5 1.3h.8c.6.1 1.3 0 1.9-.2l.4-.4.1-.2.1-.2.1-.4v-.2c0-.2 0-.3.2-.3a17.5 17.5 0 0 0-2-8.6c-.4-.7-.8-1.2-1.4-1.7v-.1a2 2 0 0 0-.4-.3l.3-.5s.2 0 .3.2c1 .7 1.6 1.7 2 2.7.7 1.2 1 2.6 1.4 4v.3c.3 1 .4 2 .4 3.1v1.2l-.1.3v.2l-.1.2v.1l-.2.2v.1a2.4 2.4 0 0 1-.4.5l-.7.4c-.7.3-1.6.3-2.4.3h-.1l-.8-.2a5.4 5.4 0 0 1-1.1-.4l-.2-.1-.9-.7-.2-.1V90l-.3-.3ZM31.3 88.3l.2-.2.5.3.4.5-.3-.2-.8-.4Zm0 0"/><path fill="#c39d35" d="M33 95.9v-.2l.2-.6.2-.5v-.1l.2-.3a15.7 15.7 0 0 1 .6-1.5c.2-.5.5-.9.8-1.2l.1-.1.5-.4h.3l1.4-.3 1.2-.3h.2l.5-.1h.5l.1-.1H40.2c.2 0 .2.1.3.2h.2v.1l.2.2.1.2.4.8.4.6.7 1.6.5 1.8v.2h-.7v-.5l-.4-1.3-.2-.5-.8-1.7-.2-.2c0-.2-.2-.5-.4-.6l-.1-.2h-.7l-.4.1H39l-1.5.3-1 .2-.6.2-.2.1c-1 1-1.3 2.3-1.7 3.5l-.2.4v.2h-.8Zm0 0"/><path fill="#c39d35" d="M42.7 91.4h.4l.1.1h-.4Zm0 0Zm1.1.2h.6a9.5 9.5 0 0 1 1.2.3l.4.1.3.1c-.2 0-.4 0-.6-.2H45l-.3-.1h-.4l-.5-.2Zm-1-.2Zm0 0H43l.1.1h-.4Zm1 .2h.6a9.5 9.5 0 0 1 1.2.3l.4.1.3.1c-.2 0-.4 0-.6-.2H45l-.3-.1h-.4l-.5-.2Zm-1-.2H43l.1.1h-.4Zm1 .2h.6a9.5 9.5 0 0 1 1.2.3l.4.1.3.1c-.2 0-.4 0-.6-.2H45l-.3-.1h-.4l-.5-.2Zm-1.7-.3c0-.1.1-.2.3-.2h.5l.3-.2h.6l.5.2H44.9l.2.1h.3v.2c0 .1 0 .3.2.3h.4l.7.2.1.1.5.4-.7-.2h-.2V92l-.7-.2H45l-.3-.1h-.3l-.6-.2h-.6a3 3 0 0 1-.4-.1h-.3l-.3-.1-.1-.2Zm6.8 1.8 3 1.2.5.4.9 1 .1.1h-.8l-.2-.2c-.5-.6-1.1-1-1.8-1.6l-1.7-1Zm-8.7-3 .1-.1.2-.1h.2v.1l.2.2v.1h.2v.1l.4.2.7.1.3.1h.4l.2.1h.2l.3.1h.6l.2.1h.4l.2.1h.3l1.2.4h.4l.6.3 1 .3.5.3.2.1.4.3a7.3 7.3 0 0 1 1.1.7 14.8 14.8 0 0 1 2.5 2.1l.1.2h-.8l-.2-.2a10.2 10.2 0 0 0-3.5-2.6l-1.6-.7-.7-.2h-.2l-.7-.2-.7-.1h-.3l-.2-.1h-.1l-.6-.1h-.6a3 3 0 0 1-.4-.2H42l-.1-.1H41.6l-.2-.1.2.3v.1l.3.5.1.4.6 1.7.5 1.5v.2h-.6v-.2l-.4-1.2c-.4-1.2-.8-2.5-1.5-3.5v-.2h-.2v-.1h-.2V90.1Zm8.7 3 3 1.2.5.4.9 1 .1.1h-.8l-.2-.2c-.5-.6-1.1-1-1.8-1.6l-1.7-1Zm-6.8-1.8c0-.1.1-.2.3-.2h.5l.3-.2h.6l.5.2H44.9l.2.1h.3v.2c0 .1 0 .3.2.3h.4l.7.2.1.1.5.4-.7-.2h-.2V92l-.7-.2H45l-.3-.1h-.3l-.6-.2h-.6a3 3 0 0 1-.4-.1h-.3l-.3-.1-.1-.2Zm6.8 1.8 3 1.2.5.4.9 1 .1.1h-.8l-.2-.2c-.5-.6-1.1-1-1.8-1.6l-1.7-1Zm-6.8-1.8c0-.1.1-.2.3-.2h.5l.3-.2h.6l.5.2H44.9l.2.1h.3v.2c0 .1 0 .3.2.3h.4l.7.2.1.1.5.4-.7-.2h-.2V92l-.7-.2H45l-.3-.1h-.3l-.6-.2h-.6a3 3 0 0 1-.4-.1h-.3l-.3-.1-.1-.2Zm1.7.3h.6a9.5 9.5 0 0 1 1.2.3l.4.1.3.1c-.2 0-.4 0-.6-.2H45l-.3-.1h-.4l-.5-.2Zm-1-.2H43l.1.1h-.4Zm1 .2h.6a9.5 9.5 0 0 1 1.2.3l.4.1.3.1c-.2 0-.4 0-.6-.2H45l-.3-.1h-.4l-.5-.2Zm-1-.2H43l.1.1h-.4Zm0 0Zm0 0Zm-.1 0Zm0 0h.4l.7.2h.6a9.5 9.5 0 0 1 1.2.3l.4.1.3.1c-.2 0-.4 0-.6-.2H45l-.3-.1h-.4l-.5-.1-.6-.1-.5-.1Zm0 0Zm0 0Zm0 0ZM55 84.4l1.5-.4a3 3 0 0 1 .8 0 5.2 5.2 0 0 1 1.4.3c1.2.5 2.4 1 3.2 2 .4.4.6.8.7 1.3V89.8l-.1 1V91.7c0 .2-.1.3-.3.4-.4.1-.8 0-1.2-.3h-.3c-.5-.2-1-.3-1.6-.3H59c.7 0 1.4-.2 2-.3.3 0 .5.2.7.3h.2v-2l.1-.4v-1.4c-.2-.5-.5-1-.9-1.3a8.7 8.7 0 0 0-3.6-1.7h-.6c-.4 0-.8 0-1.1.2l-.5.2c-.2.1-.4 0-.4-.2l.1-.4ZM49.8 91.7H56h-.3l-1 .1a23 23 0 0 1-4.8-.1ZM49.9 91H48 50ZM46.7 91h.4-.4Zm0 0"/><path fill="#c39d35" d="M40 90.7c0-.2.1-.3.3-.3l.7-.2a14.9 14.9 0 0 1 2.3-.2H45v.1l.6.1.7.1c.4 0 .8.2 1.1.3l-1 .4a10.5 10.5 0 0 0-1.8-.3h-2.3l-1.5.3h-.2a.4.4 0 0 1-.4-.3Zm0 0"/><path fill="#c39d35" d="m40.6 89.9.3-.1H41.2l.3-.2h.5l.9-.3.5-.2.9-.2 1.2-.3 1-.3.4-.1.9-.2.8-.3.6-.2h.2l.4-.2.7-.2.2-.1 1-.5.5-.2a17.2 17.2 0 0 0 5.3-4.4l1-.5a15 15 0 0 1-2 2.5l-1.6 1s.2.2.4.1l-.4.3a91.1 91.1 0 0 0-3.4 2 9.6 9.6 0 0 1-1.3.5l-.8.3-.6.2-.6.2H48l-1 .2-.9.3-1.5.4H44.4l-.8.3h-.3l-.2.1-.5.1h-.1l-.2.1-.4.1-.5.2H41V90l-.2-.1-.2-.2Zm0 0 .3-.1H41.2l.3-.2h.5l.9-.3.5-.2.9-.2 1.2-.3 1-.3.4-.1.9-.2.8-.3.6-.2h.2l.4-.2.7-.2.2-.1 1-.5.5-.2a17.2 17.2 0 0 0 5.3-4.4l1-.5a15 15 0 0 1-2 2.5l-1.6 1s.2.2.4.1l-.4.3a91.1 91.1 0 0 0-3.4 2 9.6 9.6 0 0 1-1.3.5l-.8.3-.6.2-.6.2H48l-1 .2-.9.3-1.5.4H44.4l-.8.3h-.3l-.2.1-.5.1h-.1l-.2.1-.4.1-.5.2H41V90l-.2-.1-.2-.2Zm0 0 .3-.1H41.2l.3-.2h.5l.9-.3.5-.2.9-.2 1.2-.3 1-.3.4-.1.9-.2.8-.3.6-.2h.2l.4-.2.7-.2.2-.1 1-.5.5-.2a17.2 17.2 0 0 0 5.3-4.4l1-.5a15 15 0 0 1-2 2.5l-1.6 1s.2.2.4.1l-.4.3a91.1 91.1 0 0 0-3.4 2 9.6 9.6 0 0 1-1.3.5l-.8.3-.6.2-.6.2H48l-1 .2-.9.3-1.5.4H44.4l-.8.3h-.3l-.2.1-.5.1h-.1l-.2.1-.4.1-.5.2H41V90l-.2-.1-.2-.2Zm-.5.1h.2-.1Zm.2 0 .3-.1.3-.1H41.2l.3-.2h.5l.9-.3.5-.2.9-.2 1.2-.3 1-.3.4-.1.9-.2.8-.3.6-.2h.2l.4-.2.7-.2-.7.4-.4.3-.8.5-.4.2H48l-1 .3-.9.2-1.5.4h-.1l-.2.1-.8.2-.3.1h-.2l-.5.2-.7-.1h-.2l-.1.1H40.3Zm14.8-5.7c1-.7 1.7-1.5 2.4-2.4l1.1-.4-1.4 1.7-2 1.1Zm-15 5.7Zm.2 0 .3-.1.3-.1h.1l.2-.1h.3v-.1h.3l.2-.1.9-.2.5-.2.9-.2 1.2-.3 1-.3.4-.1.9-.3.8-.2.6-.2h.2l.4-.2.7-.3-.7.5-.4.2-.8.5-.4.3H48l-1 .3-.9.2-1.5.4h-.1l-.2.1-.8.2h-.3l-.2.1-.5.2-.7-.2h-.2v.1h-.1v.1h-1.3Zm14.8-5.7c1-.7 1.7-1.5 2.4-2.4l1.1-.4-1.4 1.7-2 1.1Zm-15 5.7Zm.2 0 .3-.1.3-.1h.1l.2-.1h.3v-.1h.3l.2-.1.9-.2.5-.2.9-.2 1.2-.3 1-.3.4-.1.9-.3.8-.2.6-.2h.2l.4-.2.7-.3-.7.5-.4.2-.8.5-.4.3H48l-1 .3-.9.2-1.5.4h-.1l-.2.1-.8.2h-.3l-.2.1-.5.2-.7-.2h-.2v.1h-.1v.1h-1.3Zm14.8-5.7c1-.7 1.7-1.5 2.4-2.4l1.1-.4-1.4 1.7-2 1.1Zm-15 5.7Zm.2 0 .3-.1.3-.1h.1l.2-.1h.3v-.1h.3l.2-.1.9-.2.5-.2.9-.2 1.2-.3 1-.3.4-.1.9-.3.8-.2.6-.2h.2l.4-.2.7-.3-.7.5-.4.2-.8.5-.4.3H48l-1 .3-.9.2-1.5.4h-.1l-.2.1-.8.2h-.3l-.2.1-.5.2-.7-.2h-.2v.1h-.1v.1h-1.3Zm14.8-5.7c1-.7 1.7-1.5 2.4-2.4l1.1-.4-1.4 1.7-2 1.1Zm-15 5.7Zm.2 0 .3-.1.3-.1h.1l.2-.1h.3v-.1h.3l.2-.1.9-.2.5-.2.9-.2 1.2-.3 1-.3.4-.1.9-.3.8-.2.6-.2h.2l.4-.2.7-.3-.7.5-.4.2-.8.5-.4.3H48l-1 .3-.9.2-1.5.4h-.1l-.2.1-.8.2h-.3l-.2.1-.5.2-.7-.2h-.2v.1h-.1v.1h-1.3Zm14.8-5.7c1-.7 1.7-1.5 2.4-2.4l1.1-.4-1.4 1.7-2 1.1Zm-15 5.7Zm.2 0 .3-.1.3-.1h.1l.2-.1h.3v-.1h.3l.2-.1.9-.2.5-.2.9-.2 1.2-.3 1-.3.4-.1.9-.3.8-.2.6-.2h.2l.4-.2.7-.3-.7.5-.4.2-.8.5-.4.3H48l-1 .3-.9.2-1.5.4h-.1l-.2.1-.8.2h-.3l-.2.1-.5.2-.7-.2h-.2v.1h-.1v.1h-1.3Zm14.8-5.7c1-.7 1.7-1.5 2.4-2.4l1.1-.4-1.4 1.7-2 1.1Zm-15 5.7Zm.2 0 .3-.1.3-.1h.1l.2-.1h.3v-.1h.3l.2-.1.9-.2.5-.2.9-.2 1.2-.3 1-.3.4-.1.9-.3.8-.2.6-.2h.2l.4-.2.7-.3-.7.5-.4.2-.8.5-.4.3H48l-1 .3-.9.2-1.5.4h-.1l-.2.1-.8.2h-.3l-.2.1-.5.2-.7-.2h-.2v.1h-.1v.1h-1.3Zm14.8-5.7c1-.7 1.7-1.5 2.4-2.4l1.1-.4-1.4 1.7-2 1.1Zm-15 5.7Zm.2 0 .3-.1.3-.1h.1l.2-.1h.3v-.1h.3l.2-.1.9-.2.5-.2.9-.2 1.2-.3 1-.3.4-.1.9-.3.8-.2.6-.2h.2l.4-.2.7-.3-.7.5-.4.2-.8.5-.4.3H48l-1 .3-.9.2-1.5.4h-.1l-.2.1-.8.2h-.3l-.2.1-.5.2-.7-.2h-.2v.1h-.1v.1h-1.3Zm14.8-5.7c1-.7 1.7-1.5 2.4-2.4l1.1-.4-1.4 1.7-2 1.1Zm-15 5.7Zm.2 0 .3-.1.3-.1h.1l.2-.1h.3v-.1h.3l.2-.1.9-.2.5-.2.9-.2 1.2-.3 1-.3.4-.1.9-.3.8-.2.6-.2h.2l.4-.2.7-.3-.7.5-.4.2-.8.5-.4.3H48l-1 .3-.9.2-1.5.4h-.1l-.2.1-.8.2h-.3l-.2.1-.5.2-.7-.2h-.2v.1h-.1v.1h-1.3Zm14.8-5.7c1-.7 1.7-1.5 2.4-2.4l1.1-.4-1.4 1.7-2 1.1Zm-15 5.7Zm.2 0 .3-.1.3-.1h.1l.2-.1h.3v-.1h.3l.2-.1.9-.2.5-.2.9-.2 1.2-.3 1-.3.4-.1.9-.3.8-.2.6-.2h.2l.4-.2.7-.3-.7.5-.4.2-.8.5-.4.3H48l-1 .3-.9.2-1.5.4h-.1l-.2.1-.8.2h-.3l-.2.1-.5.2-.7-.2h-.2v.1h-.1v.1h-1.3Zm14.8-5.7c1-.7 1.7-1.5 2.4-2.4l1.1-.4-1.4 1.7-2 1.1Zm-15 5.7Zm.2 0 .3-.1.3-.1h.1l.2-.1h.3v-.1h.3l.2-.1.9-.2.5-.2.9-.2 1.2-.3 1-.3.4-.1.9-.3.8-.2.6-.2h.2l.4-.2.7-.3-.7.5-.4.2-.8.5-.4.3H48l-1 .3-.9.2-1.5.4h-.1l-.2.1-.8.2h-.3l-.2.1-.5.2-.7-.2h-.2v.1h-.1v.1h-1.3Zm14.8-5.7c1-.7 1.7-1.5 2.4-2.4l1.1-.4-1.4 1.7-2 1.1Zm-15 5.7Zm.2 0 .3-.1.3-.1h.1l.2-.1h.3v-.1h.3l.2-.1.9-.2.5-.2.9-.2 1.2-.3 1-.3.4-.1.9-.3.8-.2.6-.2h.2l.4-.2.7-.3-.7.5-.4.2-.8.5-.4.3H48l-1 .3-.9.2-1.5.4h-.1l-.2.1-.8.2h-.3l-.2.1-.5.2-.7-.2h-.2v.1h-.1v.1h-1.3Zm14.8-5.7c1-.7 1.7-1.5 2.4-2.4l1.1-.4-1.4 1.7-2 1.1Zm-15 5.7Zm.2 0 .3-.1.3-.1h.1l.2-.1h.3v-.1h.3l.2-.1.9-.2.5-.2.9-.2 1.2-.3 1-.3.4-.1.9-.3.8-.2.6-.2h.2l.4-.2.7-.3-.7.5-.4.2-.8.5-.4.3H48l-1 .3-.9.2-1.5.4h-.1l-.2.1-.8.2h-.3l-.2.1-.5.2-.7-.2h-.2v.1h-.1v.1h-1.3Zm14.8-5.7c1-.7 1.7-1.5 2.4-2.4l1.1-.4-1.4 1.7-2 1.1Zm-15 5.7Zm.2 0 .3-.1.3-.1H41.2l.3-.2h.5l.9-.3.5-.2.9-.2 1.2-.3 1-.3.4-.1.9-.2.8-.3.6-.2h.2l.4-.2.7-.2-.7.4-.4.3-.8.5-.4.2H48l-1 .3-.9.2-1.5.4h-.1l-.2.1-.8.2-.3.1h-.2l-.5.2-.7-.1h-.2l-.1.1h-1.3Zm17-6.8L55 84.3c.9-.7 1.7-1.5 2.4-2.4l1.1-.4-1.4 1.7Zm-18 6.9V89.8l.2-.4c0-.2.2-.3.3-.5V88.6l.3-.5.1-.2.3-.5.2-.4V87l1.7-3 .6-1 1.5-2.9c.5-1 1-2 1.6-2.8 1-1.7 2.9-2.9 4.7-3.7a9 9 0 0 1 2.8-.7l3 .1c1.7.2 3.7.9 4 2.8a5 5 0 0 1-.3 2.4 11.5 11.5 0 0 1-.9 2c0 .2-.2.4-.3.5l-.2.4c0 .2-.2.3-.3.5l-1.4 1.7-.7.7-1.2 1.1-.4.3a16.3 16.3 0 0 1-4.3 2.4h-.1l-.3.1-.8.3-.6.2-.6.2h-.1l-.9.3-1 .2-1.5.4h-.1l-.2.1-.8.2h-.3l-.2.1-.5.2h-.3l-.4.2h-.5v.1H41l-.4.2H40.3v.1H40l-.2.1h-.3l-.1-.1-.2-.3V90Zm1.4-1.8-.3.6c0 .2 0 .3-.2.5v.2l-.2.1v.3H40.4l.2-.1.4-.1h.2l.4-.1.3-.1h.1l1-.3.5-.1.8-.3h.1l1.2-.3 1-.3.4-.1.9-.2.8-.3.6-.2h.2l.4-.2.7-.2.2-.1 1-.4.5-.3a17.2 17.2 0 0 0 5.3-4.4l.4-.5.6-1 .5-.8.3-.7c.4-1 .9-2.2.6-3.2a2 2 0 0 0-.2-.5l-.2-.4-.2-.2-.2-.2-.2-.2h-.2l-.3-.2-1.5-.4-2.7-.2c-1.9.1-3.6.8-5 1.8-1 .5-1.7 1.1-2.3 1.9l-1.5 2.6-2.8 5.2-1.2 2.3-.7 1.1Zm14.4-4c1-.7 1.7-1.5 2.4-2.4l1.1-.4-1.4 1.7-2 1.1ZM40.3 90h.3l.3-.1h.1l.2-.1h.3v-.1h.3l.2-.1.9-.2.5-.2.9-.2 1.2-.3 1-.3.4-.1.9-.3.8-.2.6-.2h.2l.4-.2.7-.3-.7.5-.4.2-.8.5-.4.3H48l-1 .3-.9.2-1.5.4h-.1l-.2.1-.8.2h-.3l-.2.1-.5.2-.7-.2h-.2v.1h-.1v.1h-1.3Zm-.2.1Zm15-5.7c1-.7 1.7-1.5 2.4-2.4l1.1-.4-1.4 1.7-2 1.1ZM40.3 90h.3l.3-.1h.1l.2-.1h.3v-.1h.3l.2-.1.9-.2.5-.2.9-.2 1.2-.3 1-.3.4-.1.9-.3.8-.2.6-.2h.2l.4-.2.7-.3-.7.5-.4.2-.8.5-.4.3H48l-1 .3-.9.2-1.5.4h-.1l-.2.1-.8.2h-.3l-.2.1-.5.2-.7-.2h-.2v.1h-.1v.1h-1.3Zm-.2.1Zm15-5.7c1-.7 1.7-1.5 2.4-2.4l1.1-.4-1.4 1.7-2 1.1ZM40.3 90h.3l.3-.1h.1l.2-.1h.3v-.1h.3l.2-.1.9-.2.5-.2.9-.2 1.2-.3 1-.3.4-.1.9-.3.8-.2.6-.2h.2l.4-.2.7-.3-.7.5-.4.2-.8.5-.4.3H48l-1 .3-.9.2-1.5.4h-.1l-.2.1-.8.2h-.3l-.2.1-.5.2-.7-.2h-.2v.1h-.1v.1h-1.3Zm-.2.1Zm15-5.7c1-.7 1.7-1.5 2.4-2.4l1.1-.4-1.4 1.7-2 1.1ZM40.3 90h.3l.3-.1h.1l.2-.1h.3v-.1h.3l.2-.1.9-.2.5-.2.9-.2 1.2-.3 1-.3.4-.1.9-.3.8-.2.6-.2h.2l.4-.2.7-.3-.7.5-.4.2-.8.5-.4.3H48l-1 .3-.9.2-1.5.4h-.1l-.2.1-.8.2h-.3l-.2.1-.5.2-.7-.2h-.2v.1h-.1v.1h-1.3Zm-.2.1Zm15-5.7c1-.7 1.7-1.5 2.4-2.4l1.1-.4-1.4 1.7-2 1.1ZM40.3 90h.3l.3-.1h.1l.2-.1h.3v-.1h.3l.2-.1.9-.2.5-.2.9-.2 1.2-.3 1-.3.4-.1.9-.3.8-.2.6-.2h.2l.4-.2.7-.3-.7.5-.4.2-.8.5-.4.3H48l-1 .3-.9.2-1.5.4h-.1l-.2.1-.8.2h-.3l-.2.1-.5.2-.7-.2h-.2v.1h-.1v.1h-1.3Zm-.2.1Zm15-5.7c1-.7 1.7-1.5 2.4-2.4l1.1-.4-1.4 1.7-2 1.1ZM40.3 90h.3l.3-.1h.1l.2-.1h.3v-.1h.3l.2-.1.9-.2.5-.2.9-.2 1.2-.3 1-.3.4-.1.9-.3.8-.2.6-.2h.2l.4-.2.7-.3-.7.5-.4.2-.8.5-.4.3H48l-1 .3-.9.2-1.5.4h-.1l-.2.1-.8.2h-.3l-.2.1-.5.2-.7-.2h-.2v.1h-.1v.1h-1.3Zm-.2.1Zm15-5.7c1-.7 1.7-1.5 2.4-2.4l1.1-.4-1.4 1.7-2 1.1ZM40.3 90h.3l.3-.1h.1l.2-.1h.3v-.1h.3l.2-.1.9-.2.5-.2.9-.2 1.2-.3 1-.3.4-.1.9-.3.8-.2.6-.2h.2l.4-.2.7-.3-.7.5-.4.2-.8.5-.4.3H48l-1 .3-.9.2-1.5.4h-.1l-.2.1-.8.2h-.3l-.2.1-.5.2-.7-.2h-.2v.1h-.1v.1h-1.3Zm-.2.1Zm15-5.7c1-.7 1.7-1.5 2.4-2.4l1.1-.4-1.4 1.7-2 1.1ZM40.3 90h.3l.3-.1h.1l.2-.1h.3v-.1h.3l.2-.1.9-.2.5-.2.9-.2 1.2-.3 1-.3.4-.1.9-.3.8-.2.6-.2h.2l.4-.2.7-.3-.7.5-.4.2-.8.5-.4.3H48l-1 .3-.9.2-1.5.4h-.1l-.2.1-.8.2h-.3l-.2.1-.5.2-.7-.2h-.2v.1h-.1v.1h-1.3Zm-.2.1Zm15-5.7c1-.7 1.7-1.5 2.4-2.4l1.1-.4-1.4 1.7-2 1.1ZM40.3 90h.3l.3-.1h.1l.2-.1h.3v-.1h.3l.2-.1.9-.2.5-.2.9-.2 1.2-.3 1-.3.4-.1.9-.3.8-.2.6-.2h.2l.4-.2.7-.3-.7.5-.4.2-.8.5-.4.3H48l-1 .3-.9.2-1.5.4h-.1l-.2.1-.8.2h-.3l-.2.1-.5.2-.7-.2h-.2v.1h-.1v.1h-1.3Zm-.2.1Zm15-5.7c1-.7 1.7-1.5 2.4-2.4l1.1-.4-1.4 1.7-2 1.1ZM40.3 90h.3l.3-.1h.1l.2-.1h.3v-.1h.3l.2-.1.9-.2.5-.2.9-.2 1.2-.3 1-.3.4-.1.9-.3.8-.2.6-.2h.2l.4-.2.7-.3-.7.5-.4.2-.8.5-.4.3H48l-1 .3-.9.2-1.5.4h-.1l-.2.1-.8.2h-.3l-.2.1-.5.2-.7-.2h-.2v.1h-.1v.1h-1.3Zm-.2.1Zm15-5.7c1-.7 1.7-1.5 2.4-2.4l1.1-.4-1.4 1.7-2 1.1ZM40.3 90h.3l.3-.1h.1l.2-.1h.3v-.1h.3l.2-.1.9-.2.5-.2.9-.2 1.2-.3 1-.3.4-.1.9-.3.8-.2.6-.2h.2l.4-.2.7-.3-.7.5-.4.2-.8.5-.4.3H48l-1 .3-.9.2-1.5.4h-.1l-.2.1-.8.2h-.3l-.2.1-.5.2-.7-.2h-.2v.1h-.1v.1h-1.3Zm-.2.1Zm15-5.7c1-.7 1.7-1.5 2.4-2.4l1.1-.4-1.4 1.7-2 1.1ZM40.3 90h.3l.3-.1h.1l.2-.1h.3v-.1h.3l.2-.1.9-.2.5-.2.9-.2 1.2-.3 1-.3.4-.1.9-.3.8-.2.6-.2h.2l.4-.2.7-.3-.7.5-.4.2-.8.5-.4.3H48l-1 .3-.9.2-1.5.4h-.1l-.2.1-.8.2h-.3l-.2.1-.5.2-.7-.2h-.2v.1h-.1v.1h-1.3Zm-.2.1Zm15-5.7c1-.7 1.7-1.5 2.4-2.4l1.1-.4-1.4 1.7-2 1.1ZM40.3 90l.3-.1.3-.1H41.2l.3-.2h.5l.9-.3.5-.2.9-.2 1.2-.3 1-.3.4-.1.9-.2.8-.3.6-.2h.2l.4-.2.7-.2-.7.4-.4.3-.8.5-.4.2H48l-1 .3-.9.2-1.5.4h-.1l-.2.1-.8.2-.3.1h-.2l-.5.2-.7-.1h-.2l-.1.1H40.3Zm-.2 0h.2-.1Zm15-5.7c1-.7 1.7-1.5 2.4-2.4l1.1-.4-1.4 1.7-2 1.1ZM40.3 90l.3-.1.3-.1H41.2l.3-.2h.5l.9-.3.5-.2.9-.2 1.2-.3 1-.3.4-.1.9-.2.8-.3.6-.2h.2l.4-.2.7-.2-.7.4-.4.3-.8.5-.4.2H48l-1 .3-.9.2-1.5.4h-.1l-.2.1-.8.2-.3.1h-.2l-.5.2-.7-.1h-.2l-.1.1H40.3Zm-.2 0h.2-.1Zm.5-.1.3-.1H41.2l.3-.2h.5l.9-.3.5-.2.9-.2 1.2-.3 1-.3.4-.1.9-.2.8-.3.6-.2h.2l.4-.2.7-.2.2-.1 1-.5.5-.2a17.2 17.2 0 0 0 5.3-4.4l1-.5a15 15 0 0 1-2 2.5l-1.6 1s.2.2.4.1l-.4.3a91.1 91.1 0 0 0-3.4 2 9.6 9.6 0 0 1-1.3.5l-.8.3-.6.2-.6.2H48l-1 .2-.9.3-1.5.4H44.4l-.8.3h-.3l-.2.1-.5.1h-.1l-.2.1-.4.1-.5.2H41V90l-.2-.1-.2-.2Zm0 0 .3-.1H41.2l.3-.2h.5l.9-.3.5-.2.9-.2 1.2-.3 1-.3.4-.1.9-.2.8-.3.6-.2h.2l.4-.2.7-.2.2-.1 1-.5.5-.2a17.2 17.2 0 0 0 5.3-4.4l1-.5a15 15 0 0 1-2 2.5l-1.6 1s.2.2.4.1l-.4.3a91.1 91.1 0 0 0-3.4 2 9.6 9.6 0 0 1-1.3.5l-.8.3-.6.2-.6.2H48l-1 .2-.9.3-1.5.4H44.4l-.8.3h-.3l-.2.1-.5.1h-.1l-.2.1-.4.1-.5.2H41V90l-.2-.1-.2-.2Zm0 0 .3-.1H41.2l.3-.2h.5l.9-.3.5-.2.9-.2 1.2-.3 1-.3.4-.1.9-.2.8-.3.6-.2h.2l.4-.2.7-.2.2-.1 1-.5.5-.2a17.2 17.2 0 0 0 5.3-4.4l1-.5a15 15 0 0 1-2 2.5l-1.6 1s.2.2.4.1l-.4.3a91.1 91.1 0 0 0-3.4 2 9.6 9.6 0 0 1-1.3.5l-.8.3-.6.2-.6.2H48l-1 .2-.9.3-1.5.4H44.4l-.8.3h-.3l-.2.1-.5.1h-.1l-.2.1-.4.1-.5.2H41V90l-.2-.1-.2-.2Zm0 0"/><path fill="#c39d35" d="M40.1 89.8c.3-1.8 0-3.6-.1-5.4a76.4 76.4 0 0 1-.3-9l.4-2.6a11 11 0 0 0-1-5c-.2-.6-1-1.5-.6-2.3l.3-.4h.6l1.4.4c1 .3 1.8.8 2.7 1.3a4 4 0 0 1 1.7 2 13.1 13.1 0 0 1 .4 5.2c-.2 1.9-.9 3.6-1.7 5.3a27.2 27.2 0 0 0-2.4 5.4l-1 2.9c0 .5-.3 1-.4 1.5 0 .3-.4.9-.2 1.2.3.4.8.3.9-.1.1-.4-.5-.5-.6-.1V90l.3.1v-.2l.2-.3.2-.8.4-1.5 1-3c.7-1.8 1.6-3.6 2.5-5.4a15.5 15.5 0 0 0 1.6-7.8c-.1-.9-.3-1.8-.6-2.6-.8-1.8-2.7-2.7-4.5-3.3l-1.4-.5c-.4 0-.8-.2-1.2 0-.9.2-1 1.2-.9 1.9l.6 1.2.5 1.2a10.6 10.6 0 0 1 .4 5c-.2 1-.4 1.9-.4 2.8v3l.2 3.1c.2 1.8.5 3.7.5 5.6 0 .4 0 .9-.2 1.3 0 .4.6.5.7 0Zm0 0"/><path fill="#c39d35" d="M40.6 90.3H45c1.5-.1 2.9-.4 4.3-.7 2.7-.6 5.5-1.3 8.2-.6.7.2 1.4.5 2.1 1l2.1 1.4c.2 0 .4-.2.2-.3l-2-1.4L58 89a10 10 0 0 0-3.8-.5c-2.9.2-5.7 1.2-8.6 1.5-1.7.2-3.4.2-5 .1-.4 0-.3.3-.1.3Zm0 0"/><path fill="#c39d35" d="M41 90c2.8.6 5.7.8 8.5.7l4-.5c1.3-.1 2.6-.3 4-.2.7 0 1.4.2 2 .5.9.3 1.6.8 2.3 1.2.2.1.4 0 .2-.2a9.8 9.8 0 0 0-3.8-1.7c-1.3-.2-2.6-.1-4 0l-4 .5a29.1 29.1 0 0 1-9.1-.6c-.2 0-.2.3 0 .3Zm0 0"/><path fill="#c39d35" d="M40.2 90a56.8 56.8 0 0 0 7.3-1.2l2.4-.9 2.5-.6 2.4-.5c1.5-.1 2.9 0 4.2.8 1.4.8 2.5 2 3 3.4 0 .2.4 0 .3 0a7 7 0 0 0-6.3-4.5 36.4 36.4 0 0 0-5 .8c-1.7.4-3.3 1.2-5 1.6-2 .4-3.9.6-5.9.8-.1 0 0 .4.1.3ZM38.3 95.9h-.4l.1-.2a12 12 0 0 0 1.8-4.8v-.2c0-.1 0-.2.1-.1h.2V91a10 10 0 0 1-1 3.2 18 18 0 0 1-.9 1.8ZM40 95.9h-.3v-.2c.6-1.5.7-3.2.5-4.7V90.1h.2v.1l.1.2v.5l.1.6A9.4 9.4 0 0 1 40 96Zm0 0"/><path fill="#c39d35" d="M35.7 95.9h-.4l.2-.2.6-1c.6-1.2 1.3-2.4 2.3-3.3a4.2 4.2 0 0 1 .8-.5l.4-.2h.2v.2h-.1c-1 .5-1.7 1.2-2.2 2-.6.8-1 1.6-1.5 2.5l-.2.3-.1.2ZM40 90V89.7h.2v.2h.1v.2h.1l.1.1.1.2.2.2.1.3.4.8.3.5a7.2 7.2 0 0 1 .5 2.2v1.4h-.4v-.2a5.6 5.6 0 0 0 0-2.3L40.4 91v-.2l-.1-.1v-.1h-.1v-.1l-.2-.2V90H40ZM41 90.4h.2l.1.2.2.2.1.3.1.1a12.7 12.7 0 0 0 .5.7l.3.6.8 1a152.9 152.9 0 0 1 1.7 2.2l.3.2h-.5v-.1l-.2-.1a9 9 0 0 1-.8-1l-.4-.5-.4-.5a36 36 0 0 1-.8-1.2l-.3-.4c0-.2-.2-.4-.3-.5l-.2-.3-.2-.4-.2-.3v-.2Zm0 0"/><path fill="#c39d35" d="M41.2 91c0-.2.1-.2.2-.1.1 0 .2 0 .2.2l.2.1.2.2h.1l.3.3.2.2c1 .9 2.2 1.7 3.4 2.4l2.4 1.4.4.2h-.6l-.4-.2L45 94a29.7 29.7 0 0 1-2.8-2.2c-.2 0-.3-.2-.5-.3l-.3-.3-.2-.1v-.3Zm0 0"/><path fill="#c39d35" d="M42.1 91.3c0-.2.3-.2.3 0l.2.4v.2l.3.6.4 1 .4 1.2.3.6.2.3v.2H44l-.1-.2-.8-2-.5-1.2-.1-.3-.1-.3v-.1l-.1-.2v-.1H42Zm0 0"/><path fill="#c39d35" d="m42.1 90.8.2.2.4.4.3.3c1.1 1 2.6 1.7 4 2.3l3.5 1.6.4.2h-.6l-.4-.2h-.1c-2.4-1.3-5.2-2-7.2-3.8l-.4-.5H42L42 91h-.1c-.1-.2.1-.4.2-.3ZM40.8 89.7a8 8 0 0 0 3.8-1.1 27.5 27.5 0 0 0 5.8-4l1.6-2.1 3-4c1.3-1.5 2.8-2.7 4.5-3.7.1-.1 0-.4-.2-.3-3 1.8-5 4.3-7 7-1 1.4-2 2.8-3.3 3.8a29 29 0 0 1-4 2.7 8.5 8.5 0 0 1-4.3 1.4c-.2 0-.1.3 0 .3ZM40.8 89c.6-.4 1.1-1 1.5-1.7l1.4-2.2 2.6-4.1c1-1.4 2-2.6 3.4-3.6a23.9 23.9 0 0 1 9.4-3.3c.3 0 .3-.2 0-.2-3 .3-6.1 1.2-8.8 2.8-2.9 1.7-4.7 4.6-6.4 7.4l-1.4 2.4c-.5.8-1 1.7-1.9 2.2-.2.2 0 .4.2.3Zm0 0"/><path fill="#c39d35" d="M59.2 74c-3 .4-5.6 1.9-7.6 4-1.2 1.2-2.2 2.6-3.3 4L45 86c-1 1.4-2.4 2.8-4.2 3-.2 0-.2.3 0 .3 1.5-.1 2.7-1 3.7-2l1.5-2 1.6-2.2 3.3-4c1-1.3 2.2-2.3 3.5-3.1 1.4-1 3-1.5 4.7-1.7.2 0 .2-.4 0-.3Zm0 0"/><path fill="#c39d35" d="M41.3 89.5c1.6 0 3.1-.2 4.6-.7 1.5-.6 3-1.4 4.4-2.2 1.5-.9 2.7-2.1 3.9-3.4a77 77 0 0 0 5.2-6.4c.4-.6.8-1.3.7-2 0-.2-.4-.2-.3 0 0 .7-.3 1.3-.7 1.9a51.3 51.3 0 0 1-4.9 6c-1 1.2-2.2 2.5-3.6 3.4a36.3 36.3 0 0 1-4.4 2.2c-1.6.6-3.2 1-4.9 1-.2 0-.2.2 0 .2ZM40.4 89.2l.8-5.5c.3-1.8.8-3.5 1.2-5.3.3-1.6.4-3.3.4-5 0-1.7-.2-3.3-.8-4.8a7 7 0 0 0-3.6-3.9v.3l.5.2c.2 0 .3-.3 0-.3l-.5-.2c-.2 0-.3.2-.1.3 3.2 1.4 4.1 5 4.2 8.1a26 26 0 0 1-.4 5c-.3 1.7-.9 3.4-1.2 5l-.8 6c0 .3.3.3.3.1Zm0 0"/><path fill="#c39d35" d="M40.5 88.3c.4-6.3.2-12.6-.7-18.8-.2-1.5-.3-3.3-1.6-4.3-.1-.1-.3.1-.2.2 1.2 1 1.3 2.7 1.5 4a118 118 0 0 1 .9 13.6c0 1.8 0 3.5-.2 5.2 0 .2.3.3.3.1Zm0 0"/><path fill="#c39d35" d="M38.7 65c1.8.1 3.5 1 4.5 2.4 1.1 1.3 1.6 3 1.7 4.7.1 1.9-.4 3.7-1.1 5.4-.8 1.8-2 3.4-2.7 5.2-.8 2-1 4.2-1.3 6.3 0 .2.2.2.3 0 .2-2 .5-4 1.2-5.9.7-1.9 2-3.6 2.8-5.5 1.4-3.2 1.8-7.2-.4-10.2a6.6 6.6 0 0 0-5-2.7c-.2 0-.2.3 0 .4ZM34.6 86.1l-.2-.4.2-.4.2.5 1.2 1.8c.7.8 1.6 1.4 2.6 1.8l.4.2.2.1h.2l.1.1h.2l.1.2v.1h-.5L39 90l-.1-.1a8.3 8.3 0 0 1-3-2c-.6-.6-1-1.2-1.3-1.8ZM33.6 86.8h-.2v-.1l.2.1Zm0 0"/><path fill="#c39d35" d="M33.2 86.9h.5v.1l.2.2.1.2.3.3C35.5 89 37.1 90 39 90H39.7V90.2h-.7c-1 0-1.9-.2-2.7-.6-.8-.4-1.4-1-2-1.5l-.4-.5.1-.3-.5-.2-.2-.2Zm0 0"/><path fill="#c39d35" d="m33.6 81-.4-.3v-.1l.2-.1c.2 0 .3.1.4.3.2 0 .3.2.5.4l.5.6c.3.3.6.7.8 1.2 1.3 2 1.9 4.6 3.4 6.5l.2.2.1.2.3.2v.1c.1 0 .1.1 0 .2 0 0 0 .2-.2 0l-.1-.1-.3-.3-.4-.5c-.6-.8-1.1-1.7-1.5-2.7-.6-1.3-1.2-2.8-2-4a10.3 10.3 0 0 0-1.5-1.9ZM14.2 94.6l.2-.1.1-.1c.1-.1.3 0 .2.1h-.5v.1Zm0 0"/><path fill="#c39d35" d="M14 94.4a3 3 0 0 1-.5 0l.5-.1h.4v.1l-.3.2h-.5s.2 0 .3-.2ZM8.9 94.5h.3l.5.3.4.1.3.1h-.8l-.5-.3-.2-.2ZM7.5 93h.3l.4.5h-.3l-.3-.4V93ZM6.9 93H7.2l.3.6h-.3l-.2-.4-.1-.2ZM6.4 93h.2l.2.3c0 .1 0 .2.2.3h-.3l-.2-.2-.1-.3ZM8 94.6h.3l.5.5-.3.1-.5-.6ZM7.6 95l-.3-.3h.3l.4.4.1.1h-.3l-.2-.2Zm0 0"/><g clip-path="url(#a)"><path fill="#c39d35" d="m.1 94.8.2-.2.6-.4c.3 0 .5-.2.7-.3h.1l.6-.2h.3l.2-.1.4-.1 2.3-.4h.6v.2l.1.2.1.2h-.6l-1 .2H4l-.7.2h-.1l-.6.1-.3.1-.4.1-.2.1h-.1L1 95H.8v.1H1l.2.1h2.1l.5-.1 2.5-.2.6-.1.2.3.2.3h-.5l-3 .3H3l-.4.1h-.6l-.4.1a3 3 0 0 1-.6 0l-.4-.2-.4-.2-.2-.2v-.4Zm0 0"/></g><path fill="#c39d35" d="M32.5 89.6h.1ZM31.3 89.4h.3l.3.3h-.3l-.3-.3ZM30 89.6h.4l.2.3h-.3l-.2-.3ZM29 89.9h.2l.2.2H29L29 90ZM28.5 90h.2v.3h-.2V90ZM27.5 90.7v-.1l.2-.3.3-.1.3-.1v.3h-.1l-.2.1c-.3 0-.4.1-.5.2ZM30.7 90.5h.2l.1.3.6-.5 1-.2h.2c.1 0 .1.1 0 .2l-.6.2-1.2.3h-.2l-.1-.3ZM29.4 90.7h.2v.3h-.1l-.1-.3ZM28.6 90.8h.2v.3h-.2v-.3ZM27.1 91.4v-.1l.1-.3H27.8l.3-.1v.3H27.4l-.3.2ZM29.4 92l.2-.1v-.2h1.1c1-.1 2.1-.3 3.1-.6l.5-.2c.2 0 .3.2.1.3h-.2a15 15 0 0 1-4 .8H29.6ZM28.5 92v-.3h.3v.3h-.3ZM27.5 92l.1-.3h.3l-.1.4h-.3ZM26.9 92l.1-.3h.5l-.1.4h-.5ZM25.3 91.9h.1l.5-.2h1l-.7.2a5 5 0 0 1-1 0ZM28.3 92.9l.1-.3h.2l.7.1h.3c.8.1 1.6.2 2.3.1.8 0 1.5 0 2.3-.2h.2c.2 0 .3.3 0 .3H34l-2 .2h-2.5L29 93h-.5l-.2-.1ZM27.4 92.7v-.3h.3l-.1.3h-.2ZM26.7 92.6v-.2l.1-.1h.5v.2l-.1.2h-.1l-.4-.1ZM27.6 93.3h.2l.2-.2.3.1H28.6l.6.3c1.5.3 3 .3 4.4.7.2 0 0 .4-.1.3-1.4-.4-2.9-.4-4.3-.7H29l-.8-.3-.6-.2ZM27.2 93.2V93l.1-.2.3.1v.2l-.1.1h-.3Zm0 0"/><path fill="#c39d35" d="M26.5 93v-.2l.2-.2.4.2v.1l-.1.2h-.2l-.3-.2ZM28.7 89.3V89l.1-.1v.2h-.1ZM28.3 89.2l.2-.1.1.3-.2.1v-.3ZM28 89.7v-.2l.2-.2v.3l-.2.1ZM14.2 94.2ZM8.9 94.5h-.1.4l.5.3.4.1-.5.1a4 4 0 0 1-.7-.5ZM8 94.6h.2l.6.5h-.3l-.5-.5ZM7.3 94.7h.3a4.5 4.5 0 0 0 .5.5h-.3l-.2-.3-.3-.2ZM1.9 95.5c0-.2.1-.3.3-.3h.5l.7-.1h.4l2.6-.3h.5l.2.2.2.3h-.6c-.8.2-1.7.3-2.5.3l-.8.1h-.6l-.4.1h-.2l-.2-.1-.1-.2ZM8.1 93.8h.3l.6.5h-.4l-.5-.5ZM7.4 93.9h.3l.4.5h-.3l-.4-.5ZM6.9 94l.2-.1.4.6h-.3l-.3-.6ZM3.8 94.4h.3l.8-.2c.3 0 .7 0 1-.2h.6l.1.3.2.3h-.6L4 95h-.2a.3.3 0 0 1-.2-.2c0-.2 0-.4.2-.4Zm0 0"/><g clip-path="url(#b)"><path fill="#c39d35" d="M.1 59.4v-.2a13 13 0 0 1 .2-.6l.1-.4v-2.4l-.3-.9v-2l.2.6.1.3.1.1.2.7V54.9l.3.9v.5l.1.8v1.3l-.2.5v.4H.7v.1l-.1.2v.2H.5v.1l-.1.1H.2c0 .1 0 0 0 0H0v-.1Zm0 0"/></g><g clip-path="url(#c)"><path fill="#c39d35" d="M.1 57.8v-.5l.1-.2v-.2l.1-.4.1-.2c0-.4.2-.7.3-1v-.4l.2-.5.1-.3.1-.4v-.1c.3-.7.5-1.3.5-2v-1l-.1-.2-.1-.3v-.2l-.3-.7V48.6h.4l.1.1.2.5.2.8.2.7v.7c0 1-.3 1.8-.6 2.7v.5a30 30 0 0 0-.6 1.7v.3l-.2.5v.7a3.5 3.5 0 0 0-.1 1V59.2l.1.3v.5l-.2.1H.3v-.1l-.1-.2v-.2H.1v-1.7Zm0 0"/></g><g clip-path="url(#d)"><path fill="#c39d35" d="M.1 60v-.6l.2-.1V59h.1V59l.2-.2v-.1l.1-.1v-.1L1 58l.2-.4.7-1.5.2-.5 2-4.8.5-1.5v-.1l.3-.8.2-.5c.1-.2.3-.2.5-.2 0 0 .2.2.1.3v.1l-.5 1.3L3.8 53l-.5 1.3-.4.8a35.3 35.3 0 0 1-1.5 3.4l-.3.5-.2.3v.1H.7c0 .2 0 .2-.2.3v.1l-.2.2v.1H0V60Zm0 0"/></g><g clip-path="url(#e)"><path fill="#c39d35" d="M.1 60v-.2l.1-.1h.1v-.1h.2v-.1h.2v-.1c.2 0 .2-.1.3-.2l.4-.3a8 8 0 0 0 1.8-2.8l1-2.2.2-.3a17 17 0 0 1 2.6-3l.6-.7c.1-.1.3-.1.4 0 .1 0 .2.3 0 .5l-.5.5c-1 1-2 2-2.6 3.3l-1.3 2.5a61.6 61.6 0 0 1-1 1.8l-.5.6-.3.3a4.2 4.2 0 0 1-1 .7H.1v-.2Zm0 0"/></g><g clip-path="url(#f)"><path fill="#c39d35" d="m0 57.3.1.1v-1.1.4l.1.1v.1l.1.5.1.7V60l-.2.2V57.6l-.1-.3Zm0 0"/></g><path fill="#c39d35" d="m4.2 48.4.1.4.2.3a1 1 0 0 0 .8.3 1 1 0 0 0 .9-.6 1 1 0 0 0 0-.8 1 1 0 0 0-1.3-.5 1 1 0 0 0-.4.2l-.2.3v.4Zm0 0"/><g clip-path="url(#g)"><path fill="#c39d35" d="m.6 49.1.1.4.2.3a1 1 0 0 0 .7.3 1 1 0 0 0 1-.6v-.8a1 1 0 0 0-.6-.5 1 1 0 0 0-1.3.5v.4Zm0 0"/></g><path fill="#c39d35" d="M7 50a1 1 0 0 0 1 1 1 1 0 0 0 .9-.6 1 1 0 0 0 0-.8 1 1 0 0 0-1.4-.5 1 1 0 0 0-.6 1Zm0 0"/><g clip-path="url(#h)"><path fill="#c39d35" d="M0 74.7h.1v-1l.2.3.2.2.2.4v.1H.5v.1l-.2.3-.1-.1v-.1l-.2-.1Zm0 0"/></g><g clip-path="url(#i)"><path fill="#c39d35" d="m.3 65.9.3.3v.2a4.9 4.9 0 0 0 1.2 1l.5.2.3.2.8-.3-.7-.4c-.7-.4-1.3-.8-1.7-1.4l-.6-1.2v-.1L.1 64v-.3H0v1.7l.2.4Zm0 0"/></g><g clip-path="url(#j)"><path fill="#c39d35" d="M.1 62v-1.2h.2v-.1h.1v-.1h.1l.2-.1H1c0-.2 0-.2.2-.3h.3l.4-.1.5-.1c1-.2 2.1-.3 3.2-.2H6c1.4 0 2.8.3 4.1.6 1.2.4 2.4.9 3.3 1.7l.1.2.3.2-.8.2-.4-.4c-.6-.5-1.3-.9-2-1.1a17.8 17.8 0 0 0-9-.4s-.1.2-.3.2H1l-.3.1-.3.2-.2.2-.2.4Zm0 0"/></g><g clip-path="url(#k)"><path fill="#c39d35" d="M.1 60V59.6l.1.1.1.1v.2l.1.1V64.7L0 65v-5Zm0 0"/></g><g clip-path="url(#l)"><path fill="#c39d35" d="M.1 59.3v-.1h.2l.2.1.1.2v.3l-.2.1H.1v-.5Zm0 0"/></g><g clip-path="url(#m)"><path fill="#c39d35" d="m0 58.3.1-.3v-.2V60v-1.6Zm0 0"/></g><g clip-path="url(#n)"><path fill="#c39d35" d="M.1 38.7V38l.2.1.3.1.1.1.5.3.2.3.2.1.4.4.1.1.2.3.2.2.4.7.1.1.1.1v.1l.1.2.3.4v.2c.2.2.2.5.3.8V44l-.1.2v.1l-.1.1c0 .2-.1.2-.2.3l-.4-.1v-.4l.1-.4.1-.7V42.6l-.5-1.2-.2-.2V41l-.6-.8A6.3 6.3 0 0 0 .7 39l-.2-.1-.2-.2c0 .1-.1 0-.2 0Zm0 0"/></g><g clip-path="url(#o)"><path fill="#c39d35" d="M3.4 44.8v-.3l.1-.4V44h.1v.1l.2-.3.1.2.4-1.3.2-.4.6-.7.6-.6a12.6 12.6 0 0 1 4.4-3l-.7 1-1 .6A14.7 14.7 0 0 0 4 44l-.1.2-.1.1-.2.2v.1l-.2.2Zm.1-.7V44h.1v.1l.2-.3.1.2.4-1.3.2-.4.6-.7.6-.6a12.6 12.6 0 0 1 4.4-3l-.7 1-1 .6A14.7 14.7 0 0 0 4 44l-.1.2-.1.1-.2.2v.1-.5Zm0 0V44h.1v.1l.2-.3.1.2.4-1.3.2-.4.6-.7.6-.6a12.6 12.6 0 0 1 4.4-3l-.7 1-1 .6A14.7 14.7 0 0 0 4 44l-.1.2-.1.1-.2.2v.1-.5Zm0 0V44h.1v.1l.2-.3.1.2.4-1.3.2-.4.6-.7.6-.6a12.6 12.6 0 0 1 4.4-3l-.7 1-1 .6A14.7 14.7 0 0 0 4 44l-.1.2-.1.1-.2.2v.1-.5Zm-3 15.5h.1v.1H.5Zm0 .3v-.1.2-.1Zm.2-4v-1.1l.1-.5V54l.1-.3v-.2l.1-.3.3-1-.1.9v.4L1 55.8l-.1.8v.6l-.2.9v.4-2.6Zm.4-6.7.2-.7.1-.4.1-.3 1-2.5.3-.5v-.1l.2.1v-.4l.2-.3.2.4v.1l.1-.2v-.3l.1-.2v.1l.2-.4.2.3.3-1.3.2-.4.6-.7.7-.7a13.3 13.3 0 0 1 4.4-2.9l-.8 1-1 .6A14.7 14.7 0 0 0 4 44l-.1.2v.1l-.2.2v.1l-.3.3v.2l-.3.5v.1l-.2.2v.2l-.3.6-.4 1-.1.5-.3 1-.2.9-.1.5V50.3l-.1-.2h-.1v-.3l-.2-.6ZM.5 59.6h.1v.1H.5Zm0 .3v-.1.2-.1Zm.2-4v-1.1l.1-.5V54l.1-.3v-.2l.1-.3.3-1-.1.9v.4L1 55.8l-.1.8v.6l-.2.9v.4-2.6Zm.4-6.7.2-.7.1-.4.1-.3 1-2.5.3-.5v-.1l.2.1v-.4l.2-.3.2.4v.1l.1-.2v-.3l.1-.2v.1l.2-.4.2.3.3-1.3.2-.4.6-.7.7-.7a13.3 13.3 0 0 1 4.4-2.9l-.8 1-1 .6A14.7 14.7 0 0 0 4 44l-.1.2v.1l-.2.2v.1l-.3.3v.2l-.3.5v.1l-.2.2v.2l-.3.6-.4 1-.1.5-.3 1-.2.9-.1.5V50.3l-.1-.2h-.1v-.3l-.2-.6ZM.5 59.6h.1v.1H.5Zm0 .3v-.1.2-.1Zm.2-4v-1.1l.1-.5V54l.1-.3v-.2l.1-.3.3-1-.1.9v.4L1 55.8l-.1.8v.6l-.2.9v.4-2.6Zm.4-6.7.2-.7.1-.4.1-.3 1-2.5.3-.5v-.1l.2.1v-.4l.2-.3.2.4v.1l.1-.2v-.3l.1-.2v.1l.2-.4.2.3.3-1.3.2-.4.6-.7.7-.7a13.3 13.3 0 0 1 4.4-2.9l-.8 1-1 .6A14.7 14.7 0 0 0 4 44l-.1.2v.1l-.2.2v.1l-.3.3v.2l-.3.5v.1l-.2.2v.2l-.3.6-.4 1-.1.5-.3 1-.2.9-.1.5V50.3l-.1-.2h-.1v-.3l-.2-.6ZM.5 59.6h.1v.1H.5Zm0 .3v-.1.2-.1Zm.2-4v-1.1l.1-.5V54l.1-.3v-.2l.1-.3.3-1-.1.9v.4L1 55.8l-.1.8v.6l-.2.9v.4-2.6Zm.4-6.7.2-.7.1-.4.1-.3 1-2.5.3-.5v-.1l.2.1v-.4l.2-.3.2.4v.1l.1-.2v-.3l.1-.2v.1l.2-.4.2.3.3-1.3.2-.4.6-.7.7-.7a13.3 13.3 0 0 1 4.4-2.9l-.8 1-1 .6A14.7 14.7 0 0 0 4 44l-.1.2v.1l-.2.2v.1l-.3.3v.2l-.3.5v.1l-.2.2v.2l-.3.6-.4 1-.1.5-.3 1-.2.9-.1.5V50.3l-.1-.2h-.1v-.3l-.2-.6ZM.5 59.6h.1v.1H.5Zm0 .3v-.1.2-.1Zm.2-4v-1.1l.1-.5V54l.1-.3v-.2l.1-.3.3-1-.1.9v.4L1 55.8l-.1.8v.6l-.2.9v.4-2.6Zm.4-6.7.2-.7.1-.4.1-.3 1-2.5.3-.5v-.1l.2.1v-.4l.2-.3.2.4v.1l.1-.2v-.3l.1-.2v.1l.2-.4.2.3.3-1.3.2-.4.6-.7.7-.7a13.3 13.3 0 0 1 4.4-2.9l-.8 1-1 .6A14.7 14.7 0 0 0 4 44l-.1.2v.1l-.2.2v.1l-.3.3v.2l-.3.5v.1l-.2.2v.2l-.3.6-.4 1-.1.5-.3 1-.2.9-.1.5V50.3l-.1-.2h-.1v-.3l-.2-.6ZM.5 59.6h.1v.1H.5Zm0 .3v-.1.2-.1Zm.2-4v-1.1l.1-.5V54l.1-.3v-.2l.1-.3.3-1-.1.9v.4L1 55.8l-.1.8v.6l-.2.9v.4-2.6Zm.4-6.7.2-.7.1-.4.1-.3 1-2.5.3-.5v-.1l.2.1v-.4l.2-.3.2.4v.1l.1-.2v-.3l.1-.2v.1l.2-.4.2.3.3-1.3.2-.4.6-.7.7-.7a13.3 13.3 0 0 1 4.4-2.9l-.8 1-1 .6A14.7 14.7 0 0 0 4 44l-.1.2v.1l-.2.2v.1l-.3.3v.2l-.3.5v.1l-.2.2v.2l-.3.6-.4 1-.1.5-.3 1-.2.9-.1.5V50.3l-.1-.2h-.1v-.3l-.2-.6ZM.5 59.6h.1v.1H.5Zm0 .3v-.1.2-.1Zm.2-4v-1.1l.1-.5V54l.1-.3v-.2l.1-.3.3-1-.1.9v.4L1 55.8l-.1.8v.6l-.2.9v.4-2.6Zm.4-6.7.2-.7.1-.4.1-.3 1-2.5.3-.5v-.1l.2.1v-.4l.2-.3.2.4v.1l.1-.2v-.3l.1-.2v.1l.2-.4.2.3.3-1.3.2-.4.6-.7.7-.7a13.3 13.3 0 0 1 4.4-2.9l-.8 1-1 .6A14.7 14.7 0 0 0 4 44l-.1.2v.1l-.2.2v.1l-.3.3v.2l-.3.5v.1l-.2.2v.2l-.3.6-.4 1-.1.5-.3 1-.2.9-.1.5V50.3l-.1-.2h-.1v-.3l-.2-.6ZM.5 59.6h.1v.1H.5Zm0 .3v-.1.2-.1Zm.2-4v-1.1l.1-.5V54l.1-.3v-.2l.1-.3.3-1-.1.9v.4L1 55.8l-.1.8v.6l-.2.9v.4-2.6Zm.4-6.7.2-.7.1-.4.1-.3 1-2.5.3-.5v-.1l.2.1v-.4l.2-.3.2.4v.1l.1-.2v-.3l.1-.2v.1l.2-.4.2.3.3-1.3.2-.4.6-.7.7-.7a13.3 13.3 0 0 1 4.4-2.9l-.8 1-1 .6A14.7 14.7 0 0 0 4 44l-.1.2v.1l-.2.2v.1l-.3.3v.2l-.3.5v.1l-.2.2v.2l-.3.6-.4 1-.1.5-.3 1-.2.9-.1.5V50.3l-.1-.2h-.1v-.3l-.2-.6ZM.5 60Zm0-.2h.1Zm.2-2 .1-.6v1-.3Zm2.9-13.5v-.4.1l.2-.3.1.2.4-1.3.2-.4.6-.7.6-.6a12.6 12.6 0 0 1 4.4-3l-.7 1-1 .6A14.7 14.7 0 0 0 4 44l-.1.2-.1.1-.2.2v.1-.4ZM.5 59.5h.1v.1H.5Zm0 .4Zm.2-4.1v-1l.2-.5.1-.3.1-.4v-.2L1 55.8l-.1.8v.6l-.2.9V56Zm2.7-11v-.4l.2-.2V44l.2-.3.1.2.4-1.2.2-.4.6-.7.6-.7a12.6 12.6 0 0 1 4.4-3l-.7 1-1 .6A14.7 14.7 0 0 0 4 44l-.1.2-.1.1-.2.3-.2.2Zm-3 14.7h.2v.1H.5Zm.1.4Zm.2-4.1v-1l.2-.5.1-.3.1-.4v-.2L1 55.8l-.1.8v.6l-.2.9V56Zm2.7-11v-.4l.2-.2V44l.2-.3.1.2.4-1.2.2-.4.6-.7.6-.7a12.6 12.6 0 0 1 4.4-3l-.7 1-1 .6A14.7 14.7 0 0 0 4 44l-.1.2-.1.1-.2.3-.2.2Zm-3 14.7h.2v.1H.5v-.1Zm.3-1.8v-2.9l.2-.5.1-.3.1-.4v-.2L1 55.8l-.1.8v.6l-.2.9v-.3Zm2.9-13.1-.2.1v-.3l.2-.2V44l.2-.3.1.2.4-1.2.2-.4.6-.7.6-.7a12.6 12.6 0 0 1 4.4-3l-.7 1-1 .6A14.7 14.7 0 0 0 4 44l-.1.2-.1.1-.2.3ZM0 58.4V57.6l.1-.5v-.3l.1-1v-.2l.2-1.7c0-.8.1-1.7.3-2.5a19.3 19.3 0 0 1 .3-1.8v-.4l.2-.7.1-.4.1-.3 1-2.6.3-.4v-.2l.2-.1v-.1l.2-.3.2-.4.2-.1v-.2l.2-.1V43l.6-.7.1-.1.6-.7.7-.7a13.3 13.3 0 0 1 4.3-3 5 5 0 0 1 1-.1h.3c2 0 3 1.7 3.5 3.4l.6 2.8c0 1 0 2-.3 2.8-.5 2-1.3 3.9-2.8 5.3l-2.6 2-2.6 2-.9.6L3.6 59h-.2l-.3.3-.4.3-.2.1-.5.4H2l-.1.2c-.2 0-.4.2-.5.3l-.4.2H.7v.1H.5v.1H0v-2.6Zm2-10.2-.3 1-.2 1-.1.4-.2 1.6-.1.9v.4L1 55.8l-.1.8v.6l-.2.9V60.2l.2-.2h.2l.2-.2.4-.3.5-.4 1-.8 2.1-1.5 4.8-3.7c.8-.6 1.6-1.2 2.3-2a8 8 0 0 0 1.6-2.3 9.7 9.7 0 0 0 .3-7.8 5.4 5.4 0 0 0-1-1.7v-.1l-.2-.2-.2-.2-.2-.1-.5-.2-.6-.1-1 .1-1.1.5-1 .6a14.7 14.7 0 0 0-4.4 4.4l-.1.2-.1.2-.2.2-.2.4v.1h-.1l-.3.6-.1.2-.1.3-.3.5-.3 1-.2.6Zm1.3-3.4v-.3l.2-.2V44l.2-.3.1.2.4-1.2.2-.4.6-.7.6-.7a12.6 12.6 0 0 1 4.4-3l-.7 1-1 .6A14.7 14.7 0 0 0 4 44l-.1.2-.1.1-.2.3-.2.2ZM.7 56v-1l.2-.5.1-.3.1-.4v-.2L1 55.8l-.1.8v.6l-.2.9V56Zm-.2 3.7h.1v.1H.5v-.1Zm3-14.8v-.5l.1-.2V44l.2-.3.1.2.4-1.2.2-.4.6-.7.6-.7a12.6 12.6 0 0 1 4.4-3l-.7 1-1 .6A14.7 14.7 0 0 0 4 44l-.1.2-.1.1-.2.3-.2.2ZM.6 56v-1l.2-.5.1-.3.1-.4v-.2L1 55.8l-.1.8v.6l-.2.9V56Zm-.2 4v.1Zm0-.3h.1v.1H.5Zm3-14.8v-.5l.1-.2V44l.2-.3.1.2.4-1.2.2-.4.6-.7.6-.7a12.6 12.6 0 0 1 4.4-3l-.7 1-1 .6A14.7 14.7 0 0 0 4 44l-.1.2-.1.1-.2.3-.2.2ZM.6 56v-1l.2-.5.1-.3.1-.4v-.2L1 55.8l-.1.8v.6l-.2.9V56Zm-.2 4v.1Zm0-.3h.1v.1H.5ZM1 49.2l.2-.7.1-.4.1-.3 1-2.5.3-.5v-.1l.2.1v-.4l.2-.3.2.4v.1l.1-.2v-.3l.1-.2v.1l.2-.4.2.3.3-1.3.2-.4.6-.7.7-.7a13.3 13.3 0 0 1 4.4-2.9l-.8 1-1 .6A14.7 14.7 0 0 0 4 44l-.1.2v.1l-.2.2v.1l-.3.3v.2l-.3.5v.1l-.2.2v.2l-.3.6-.4 1-.1.5-.3 1-.2.9-.1.5V50.3l-.1-.2h-.1v-.3l-.2-.6Zm-.4 6.7v-1.1l.1-.5V54l.1-.3v-.2l.1-.3.3-1-.1.9v.4L1 55.8l-.1.8v.6l-.2.9v.4-2.6Zm-.2 4v-.1.2-.1Zm0-.3h.1v.1H.5ZM1 49.2l.2-.7.1-.4.1-.3 1-2.5.3-.5v-.1l.2.1v-.4l.2-.3.2.4v.1l.1-.2v-.3l.1-.2v.1l.2-.4.2.3.3-1.3.2-.4.6-.7.7-.7a13.3 13.3 0 0 1 4.4-2.9l-.8 1-1 .6A14.7 14.7 0 0 0 4 44l-.1.2v.1l-.2.2v.1l-.3.3v.2l-.3.5v.1l-.2.2v.2l-.3.6-.4 1-.1.5-.3 1-.2.9-.1.5V50.3l-.1-.2h-.1v-.3l-.2-.6Zm-.4 6.7v-1.1l.1-.5V54l.1-.3v-.2l.1-.3.3-1-.1.9v.4L1 55.8l-.1.8v.6l-.2.9v.4-2.6Zm-.2 4v-.1.2-.1Zm0-.3h.1v.1H.5ZM1 49.2l.2-.7.1-.4.1-.3 1-2.5.3-.5v-.1l.2.1v-.4l.2-.3.2.4v.1l.1-.2v-.3l.1-.2v.1l.2-.4.2.3.3-1.3.2-.4.6-.7.7-.7a13.3 13.3 0 0 1 4.4-2.9l-.8 1-1 .6A14.7 14.7 0 0 0 4 44l-.1.2v.1l-.2.2v.1l-.3.3v.2l-.3.5v.1l-.2.2v.2l-.3.6-.4 1-.1.5-.3 1-.2.9-.1.5V50.3l-.1-.2h-.1v-.3l-.2-.6Zm-.4 6.7v-1.1l.1-.5V54l.1-.3v-.2l.1-.3.3-1-.1.9v.4L1 55.8l-.1.8v.6l-.2.9v.4-2.6Zm-.2 4v-.1.2-.1Zm0-.3h.1v.1H.5ZM1 49.2l.2-.7.1-.4.1-.3 1-2.5.3-.5v-.1l.2.1v-.4l.2-.3.2.4v.1l.1-.2v-.3l.1-.2v.1l.2-.4.2.3.3-1.3.2-.4.6-.7.7-.7a13.3 13.3 0 0 1 4.4-2.9l-.8 1-1 .6A14.7 14.7 0 0 0 4 44l-.1.2v.1l-.2.2v.1l-.3.3v.2l-.3.5v.1l-.2.2v.2l-.3.6-.4 1-.1.5-.3 1-.2.9-.1.5V50.3l-.1-.2h-.1v-.3l-.2-.6Zm-.4 6.7v-1.1l.1-.5V54l.1-.3v-.2l.1-.3.3-1-.1.9v.4L1 55.8l-.1.8v.6l-.2.9v.4-2.6Zm-.2 4v-.1.2-.1Zm0-.3h.1v.1H.5ZM1 49.2l.2-.7.1-.4.1-.3 1-2.5.3-.5v-.1l.2.1v-.4l.2-.3.2.4v.1l.1-.2v-.3l.1-.2v.1l.2-.4.2.3.3-1.3.2-.4.6-.7.7-.7a13.3 13.3 0 0 1 4.4-2.9l-.8 1-1 .6A14.7 14.7 0 0 0 4 44l-.1.2v.1l-.2.2v.1l-.3.3v.2l-.3.5v.1l-.2.2v.2l-.3.6-.4 1-.1.5-.3 1-.2.9-.1.5V50.3l-.1-.2h-.1v-.3l-.2-.6Zm-.4 6.7v-1.1l.1-.5V54l.1-.3v-.2l.1-.3.3-1-.1.9v.4L1 55.8l-.1.8v.6l-.2.9v.4-2.6Zm-.2 4v-.1.2-.1Zm0-.3h.1v.1H.5ZM1 49.2l.2-.7.1-.4.1-.3 1-2.5.3-.5v-.1l.2.1v-.4l.2-.3.2.4v.1l.1-.2v-.3l.1-.2v.1l.2-.4.2.3.3-1.3.2-.4.6-.7.7-.7a13.3 13.3 0 0 1 4.4-2.9l-.8 1-1 .6A14.7 14.7 0 0 0 4 44l-.1.2v.1l-.2.2v.1l-.3.3v.2l-.3.5v.1l-.2.2v.2l-.3.6-.4 1-.1.5-.3 1-.2.9-.1.5V50.3l-.1-.2h-.1v-.3l-.2-.6Zm-.4 6.7v-1.1l.1-.5V54l.1-.3v-.2l.1-.3.3-1-.1.9v.4L1 55.8l-.1.8v.6l-.2.9v.4-2.6Zm-.2 4v-.1.2-.1Zm0-.3h.1v.1H.5ZM1 49.2l.2-.7.1-.4.1-.3 1-2.5.3-.5v-.1l.2.1v-.4l.2-.3.2.4v.1l.1-.2v-.3l.1-.2v.1l.2-.4.2.3.3-1.3.2-.4.6-.7.7-.7a13.3 13.3 0 0 1 4.4-2.9l-.8 1-1 .6A14.7 14.7 0 0 0 4 44l-.1.2v.1l-.2.2v.1l-.3.3v.2l-.3.5v.1l-.2.2v.2l-.3.6-.4 1-.1.5-.3 1-.2.9-.1.5V50.3l-.1-.2h-.1v-.3l-.2-.6Zm-.4 6.7v-1.1l.1-.5V54l.1-.3v-.2l.1-.3.3-1-.1.9v.4L1 55.8l-.1.8v.6l-.2.9v.4-2.6Zm-.2 4v-.1.2-.1Zm0-.3h.1v.1H.5ZM1 49.2l.2-.7.1-.4.1-.3 1-2.5.3-.5v-.1l.2.1v-.4l.2-.3.2.4v.1l.1-.2v-.3l.1-.2v.1l.2-.4.2.3.3-1.3.2-.4.6-.7.7-.7a13.3 13.3 0 0 1 4.4-2.9l-.8 1-1 .6A14.7 14.7 0 0 0 4 44l-.1.2v.1l-.2.2v.1l-.3.3v.2l-.3.5v.1l-.2.2v.2l-.3.6-.4 1-.1.5-.3 1-.2.9-.1.5V50.3l-.1-.2h-.1v-.3l-.2-.6Zm-.4 6.7v-1.1l.1-.5V54l.1-.3v-.2l.1-.3.3-1-.1.9v.4L1 55.8l-.1.8v.6l-.2.9v.4-2.6Zm-.2 4v-.1.2-.1Zm0-.3h.1v.1H.5Zm3-15.5V44h.1v.1l.2-.3.1.2.4-1.3.2-.4.6-.7.6-.6a12.6 12.6 0 0 1 4.4-3l-.7 1-1 .6A14.7 14.7 0 0 0 4 44l-.1.2-.1.1-.2.2v.1-.5Zm0 0V44h.1v.1l.2-.3.1.2.4-1.3.2-.4.6-.7.6-.6a12.6 12.6 0 0 1 4.4-3l-.7 1-1 .6A14.7 14.7 0 0 0 4 44l-.1.2-.1.1-.2.2v.1-.5Zm0 0V44h.1v.1l.2-.3.1.2.4-1.3.2-.4.6-.7.6-.6a12.6 12.6 0 0 1 4.4-3l-.7 1-1 .6A14.7 14.7 0 0 0 4 44l-.1.2-.1.1-.2.2v.1-.5Zm0 .7V44h.1v.1l.2-.3.1.2.4-1.3.2-.4.6-.7.6-.6a12.6 12.6 0 0 1 4.4-3l-.7 1-1 .6A14.7 14.7 0 0 0 4 44l-.1.2-.1.1-.2.2v.1l-.2.2Zm0 0V44h.1v.1l.2-.3.1.2.4-1.3.2-.4.6-.7.6-.6a12.6 12.6 0 0 1 4.4-3l-.7 1-1 .6A14.7 14.7 0 0 0 4 44l-.1.2-.1.1-.2.2v.1l-.2.2Zm0 0"/></g><g clip-path="url(#p)"><path fill="#c39d35" d="M.1 60v-.6h.5v.1h.2l.1-.1H1l.1-.1.3-.1.3-.2.2-.1.6-.3.6-.3L6 56.9l.4-.2 4.6-3.1a16 16 0 0 1 7.7-2.9c.8 0 1.8 0 2.6.2 2 .4 3.2 2 4.2 3.7l.7 1.2c.1.4.4.8.3 1.3-.2.8-1.1 1.1-1.9 1l-1.2-.2-1.3-.3a11 11 0 0 0-5.1.4L14 59l-3 .3-3.1.4H6a23 23 0 0 0-3.7.5l-1 .2-.3.1H.7v-.2H.3l-.1-.1H.2V60Zm3.1-1-.3.2h-.2l-.6.3-.3.2.4-.1h.4v-.1H3l.5-.1 1-.1 1.7-.2a89.8 89.8 0 0 0 9-1.2l2-.6.6-.2a11.8 11.8 0 0 1 5.1 0c.7.1 1.5.6 2.2.4l.3-.1v-.1l.2-.2.1-.1V56.7l-.1-.3v-.1l-.5-1-.2-.2a16 16 0 0 0-1.7-2.4 4.1 4.1 0 0 0-2.3-1.3c-.9-.2-1.8-.1-2.7 0a14.5 14.5 0 0 0-7.6 3.1l-2.4 1.7a29 29 0 0 1-5 2.8Zm0 0"/></g><g fill="#c39d35" clip-path="url(#q)"><path d="m0 57.3.1.2v.2l.2.9v.4l.1.1V59.7H.1v-.5H0V57.3Zm0 0"/><path d="m0 57.3.1.1v.2l.2.4.1.2.2.6.1.2v.2H.4V59l-.2-.2v-.1l-.1-.3v-.9l-.1-.3Zm0 0"/></g><g clip-path="url(#r)"><path fill="#c39d35" d="M.1 41.8v-.6l.2.3A6 6 0 0 1 1.4 44a30.5 30.5 0 0 1 0 3.8V50l-.1.2c-.2 1.3-.5 2.6-.6 4V59.4l.1.2V59.9c0 .1 0 .2-.2.2v-.7l-.1-.2V58l-.1-1.6v-2.7l.2-1 .2-1.4.2-1.2v-.6l.1-.5v-.5l.1-.4v-3c0-1.1-.3-2.1-.9-3l-.2-.4Zm0 0"/></g><g fill="#c39d35" clip-path="url(#s)"><path d="M.1 60v-.2h.2v.2H0Zm0 0"/><path d="M.1 60v-.4h.2v.1H.7v.1h.2V60.2H.3l-.2-.2Zm0 0"/></g><g clip-path="url(#t)"><path fill="#c39d35" d="M.8 59.3c-.3-1.3 0-2.6.4-3.9a29.9 29.9 0 0 1 3.1-6.3l1.8-1.9a47 47 0 0 0 3.4-3.6c1.3-1.5 2.3-3.2 3-5 .1-.1.4 0 .3.2-1.3 3-3.4 5.6-5.8 8C5.8 48 4.6 49 3.7 50.6c-.8 1.3-1.4 2.8-2 4.2-.5 1.4-.9 3-.6 4.5 0 .2-.3.2-.3 0Zm0 0"/></g><path fill="#c39d35" d="M1.5 59.2c.3-.7.8-1.3 1.4-1.8l2-1.6 3.7-3.3a15 15 0 0 0 3-4 21.5 21.5 0 0 0 1.6-9.7c0-.1.3-.2.3 0 .2 3-.2 6.3-1.3 9.1a19.7 19.7 0 0 1-6.4 7.4l-2.2 1.9c-.7.6-1.5 1.2-1.9 2.1 0 .2-.3 0-.2-.1Zm0 0"/><path fill="#c39d35" d="M13.3 38.8c.2 3-.9 5.7-2.6 8-1 1.4-2.3 2.7-3.4 4l-3.7 3.7c-1.2 1.3-2.4 2.8-2.2 4.6 0 .2-.3.2-.3 0-.2-1.4.5-2.8 1.5-3.8l1.7-1.9 1.8-2 3.6-3.8c1-1.2 1.9-2.5 2.5-4 .6-1.4 1-3.1.8-4.8 0-.1.3-.2.3 0Zm0 0"/><g clip-path="url(#u)"><path fill="#c39d35" d="M.8 58.8c-.2-1.5-.2-3 0-4.6.3-1.6.9-3.1 1.4-4.7a61.9 61.9 0 0 1 8.3-10.4c.6-.5 1.2-1 2-1 .2 0 .2.3 0 .3-.7 0-1.3.5-1.8 1a114.7 114.7 0 0 0-5.2 5.7c-1 1.3-2.1 2.6-2.8 4.1L2 51.5l-.7 2.3c-.3 1.7-.3 3.3 0 5 0 .1-.3.2-.4 0Zm0 0"/></g><path fill="#c39d35" d="m1.3 59.6 5.4-1.7 5-2c1.7-.7 3.4-1.1 5-1.4a14 14 0 0 1 5 0 7 7 0 0 1 4.5 2.8l-.3.1-.3-.5c0-.2.3-.3.3-.1l.3.5c.1.2-.2.3-.3.2-1.9-2.9-5.7-3.2-8.8-2.7-1.7.2-3.3.7-5 1.2l-4.8 2-5.9 1.9c-.2 0-.3-.2-.1-.3Zm0 0"/><path fill="#c39d35" d="M2.2 59.4a98 98 0 0 1 19-2.6c1.5-.1 3.4-.3 4.6.8.1.1-.1.4-.2.2-1.2-1-2.9-.8-4.3-.7a91 91 0 0 0-19 2.6c-.2 0-.3-.3 0-.3Zm0 0"/><path fill="#c39d35" d="M25.8 57.1a6 6 0 0 0-3-4c-1.6-.8-3.4-1-5.1-.8a13 13 0 0 0-5.2 2c-1.7 1-3.1 2.5-4.8 3.5-1.9 1.1-4 1.8-6 2.4-.3 0-.4-.3-.2-.3 2-.6 4-1.2 5.8-2.2 1.8-1 3.2-2.5 5-3.6 3-2 7-3 10.3-1.4 1.8 1 3.1 2.5 3.5 4.4 0 .2-.2.2-.3 0Zm0 0"/><g clip-path="url(#v)"><path fill="#c39d35" d="M.4 60.5v-.1H.8l.1.1.2.2v.1l.2.2.2.4c.6.9 1.4 1.6 2.3 2.2 1 .6 2.3.9 3.4 1.3.4 0 .8.2 1.1.3.3.1 1.2.2 1.5.4-.2 0-.4.3-.6.4l-1.4-.6c-1.4-.5-2.9-.8-4.2-1.6-1-.6-1.9-1.5-2.6-2.6L.7 61l-.1-.2-.2-.3v-.1Zm0 0"/></g><g clip-path="url(#w)"><path fill="#c39d35" d="m.5 60.6.2-.2h.1v.8c.4 2.1 2.2 3.7 4 4.6l1 .4.4.2-.2.2-.5-.2-1-.4c-1-.6-2-1.3-2.8-2.2a5.5 5.5 0 0 1-1.2-2.9v-.3Zm0 0"/></g><g clip-path="url(#x)"><path fill="#c39d35" d="M.2 60.5H.5l.3.2.2.1.3.2C3.5 62.2 6 62.3 8.4 63l1.9 1 .4.2-.2.3-.4-.3c-1.7-1.1-3.9-1.4-5.8-2a13.4 13.4 0 0 1-3.4-1.2H.7l-.3-.2-.2-.1c-.2-.2-.1-.3 0-.3Zm0 0"/></g><path fill="#c39d35" d="M2.3 88.9H3v.5l.2 3.2v1l.1.6v1.7h-.6v-2.6l-.3-3.9V89Zm0 0"/><g clip-path="url(#y)"><path fill="#c39d35" d="m.7 88.4.5.2v.5l.3 3V94l.1.5v.8l.1.5v.1h-.6V94.9l-.1-.7V93l-.4-4v-.6h.1Zm0 0"/></g><g clip-path="url(#z)"><path fill="#c39d35" d="M.3 82v-1.5.1l.2.5V81.4l.1.2.2.4.1.3V85.7l-.2.3v.2c0 .3-.2.5-.3.7V82Zm0 0"/></g><g clip-path="url(#A)"><path fill="#c39d35" d="M.2 74.1v.2h.1l.3.4v.1l-.2.3-.2.2V74Zm0 0"/></g><path fill="#c39d35" d="m2.3 68.2.3-.3v-.6c0-.2-.4-.2-.3 0V68.2ZM1.4 73.6v.5l.3-.2v-6.6l.1-.1c0-.2-.2-.2-.3 0-.3 2 0 4.2 0 6.4Zm0 0"/><g clip-path="url(#B)"><path fill="#c39d35" d="M.3 65.9v-.2c.1-.2.4-.1.4 0l-.1.6a28.6 28.6 0 0 0 .6 7.5l.1.4-.2.2-.2-.5-.6-3.5c-.2-1.6-.2-3 0-4.5Zm0 0"/></g><g clip-path="url(#C)"><path fill="#c39d35" d="M.1 73v-.9l.2.6.1.2.4 1 .2.5v.1H.7l-.2-.3-.2-.4v-.2L.2 73Zm0 0"/></g><g clip-path="url(#D)"><path fill="#c39d35" d="M.1 73.9v-.6l.2.4h.1l.2.4.3.4H.8v.1l-.1.1-.3-.4-.3-.4Zm0 0"/></g><g clip-path="url(#E)"><path fill="#c39d35" d="M1.3 88.6v.5l.2 3.4v1.9l.1.2v1.1l.1.1h-.6V94.8l-.1-.7v-1.4C.7 91.5.7 90.2.7 89v-.5a14 14 0 0 0 .5.2Zm0 0"/></g><g clip-path="url(#F)"><path fill="#c39d35" d="M.7 86.1V83l.1-1 .1.3.2.4.2.3-.2.7v.1l-.2.6v.5a5 5 0 0 1-.2 1.2Zm0 0"/></g><path fill="#c39d35" d="M1.5 89.2v-.6l.3.2v-.1l.1-1V87l.2 1.9v.5l.2 2.3v4.2h-.6V93.9l-.2-4.7ZM1.6 84v-.5h.1v.8l.2 1.5-.3-1.8Zm0 0"/><g clip-path="url(#G)"><path fill="#c39d35" d="m1 82.4.1.3.2.3-.2.7v-.3L1 83v-.6Zm0 0"/></g><path fill="#c39d35" d="m2.3 46.2.4-.6V45l.1-.2V44.2l.1-.3v-.1l.2-.6v-.3l.1-.1v-.1l.1-.2.1-.3V42l.1-.2c.4-1.1 1-2.1 1.5-3.1L8.8 33A45.1 45.1 0 0 0 15.7 12c0-.3.5-.4.6 0a38.4 38.4 0 0 1-3.5 22.8c-.5 1-1.1 2-1.8 2.9l-.5.7-1.1.5.7-1c2.4-3.3 4-7 5-11a37.1 37.1 0 0 0 1-11.2L16 15v.6a40.2 40.2 0 0 1-1 4.7 45.7 45.7 0 0 1-6 13.4c-1.9 3-4.2 5.9-5.2 9.3v.3l-.1.2-.1.4v.3l-.1.3v.3-.1l-.1.3v.1h-.1l-.3.6-.1.2-.1.3-.3.5c-.1 0-.4-.2-.2-.5Zm0 0"/><path fill="#c39d35" d="M2 35.3v-.2l.1-1.6A51.3 51.3 0 0 1 6.8 14l1.9-4.2a12.4 12.4 0 0 0 .6-8.6c-.1-.4.5-.6.7-.2v.4a26.6 26.6 0 0 1-.2 18c-1 2.8-2.5 5.5-3.6 8.2a28 28 0 0 0-2.3 8.8l-.1.2v.7L3.4 40V44.1l.1.1v.4l-.1.3v.1l-.1.1-.3.5-.1.3-.2-.3v-2.3l-.2-1v-.6l-.1-.5V41l-.1-1v-.4l-.1-.5-.1-2v-1l-.1-.8Zm.7 0 .1 3 .1 1.2.4-4.1V35l.4-2.1.6-2.1v-.1l.6-1.9 1-2.2C7 24 8.5 21.4 9.4 18.6a26.6 26.6 0 0 0 1.2-12v-.7l-.1-.6-.3 1.6C10 8.2 9.5 9.4 9 10.6l-1.9 4.1A53.5 53.5 0 0 0 3.4 27v.3a49 49 0 0 0-.7 8Zm0 0"/><g clip-path="url(#H)"><path fill="#c39d35" d="M2.9 43.6v.1l.2.2-.1.5v-.5l-.1-.3Zm0 0v.1l.2.2-.1.5v-.5l-.1-.3Zm0 0v.1l.2.2-.1.5v-.5l-.1-.3Zm0 0v.1l.2.2-.1.5v-.5l-.1-.3ZM0 36.2v-1.8l.2.6.4.9a47.2 47.2 0 0 0 1 2.2l.2.6.1.3v.1l.3.5.1.4.2.3.2.7.2.5.2.7.1.3.1.5.1.5.1.3v.7l-.2.4v.1l-.3.6c-.1 0-.2 0-.3-.2l-.2-.2.2-.5v-.2.1l.2.2v-1.3l-.2-.4-.1-.7-.3-1-.3-.7-.1-.4a54 54 0 0 0-.8-1.7v-.2l-.8-1.7-.3-.5ZM3 43.6v.1l.2.2-.1.5v-.5l-.1-.3Zm0 0v.1l.2.2-.1.5v-.5l-.1-.3Zm0 0v.1l.2.2-.1.5v-.5l-.1-.3Zm0 0v.1l.2.2-.1.5v-.5l-.1-.3Zm0 0v.1l.2.2-.1.5v-.5l-.1-.3Zm0 0"/></g><g clip-path="url(#I)"><path fill="#c39d35" d="M3.6 40.8c-.3-5.4-.5-10.8 0-16.2.2-2.7.6-5.4 1.2-8 .6-2.6 1.6-5.2 2-7.9C7 6 6.7 3 5.6.2L5.3 0 5 .3c.4 3-.5 5.8-1.4 8.6a45.7 45.7 0 0 0-2.2 8 55.8 55.8 0 0 0 1.4 25.5c.1.4.7.2.6-.1A56.1 56.1 0 0 1 4 9.9C5 6.8 6.1 3.6 5.7.3L5 .4c1 2.4 1.4 5 1.2 7.6-.3 2.7-1.2 5.2-1.9 7.8a63.5 63.5 0 0 0-1.7 15.9l.3 9.1c0 .4.7.4.7 0Zm0 0"/></g><g clip-path="url(#J)"><path fill="#c39d35" d="M.1 36.8v-1.7l.2.5A77.3 77.3 0 0 0 1.7 39l.3.4.1.3.2.3v.1-.4l-.1-.6a291 291 0 0 1-1.3-6.6v-.3L.4 29 0 27.7v-5.2l.2 1.7v.2l.3 2c.2 1.9.5 3.7.9 5.6l.2 1.3.2 1 .2 1 .2 1.3.6 2.7.3 1.8v.2l.3.9v.1l-.1.3h-.2c-.2.1-.3 0-.4-.1V42l-.2-.6v-.1l-.1-.1a9.1 9.1 0 0 1-2-3.4l-.2-.5-.2-.6Zm0 0"/></g><path fill="#c39d35" d="M3.3 45v-.2h.1v-.1l.1-.2v-.2l.1-.2.2-.4.5-1 .2-.4 1.3-2 .9-1 4-4.8a22 22 0 0 0 3-5.9c.6-1.9 1-3.8 1.3-5.8l.3-2.2a42.6 42.6 0 0 0 .3-5c0-.2.3-.2.3-.1v1a58.3 58.3 0 0 1-.6 6.5c-.6 4.3-2 8.5-4.7 12-1.5 2-3.4 3.8-4.8 5.9a17.5 17.5 0 0 0-1.8 3v.1l-.1.2v.1l-.2.2v.1l-.3.3v.1Zm0 0"/><path fill="#c39d35" d="M3.9 44.2v-.3a9.5 9.5 0 0 1 .5-1.5c.5-1.3 1.3-2.6 2.1-3.8 2.2-3.5 4.4-7 6.1-10.6 1-1.9 1.7-3.8 2.3-5.7l.4-1.7c.3-1.3.6-2.7.6-4.1v-.7H16.2a18 18 0 0 1-.6 5l-.6 2a53 53 0 0 1-5.2 11L6.6 39l-.8 1.2a17.8 17.8 0 0 0-1.2 2.5l-.3.8-.3.5-.1.2ZM3.8 36.7c.5-4.1 1-8.3 2.2-12.3.6-2 1.3-4 2.2-6a27.4 27.4 0 0 0 2.4-12.9c0-.2-.4-.2-.4 0 0 2.1 0 4.3-.4 6.4-.3 2-1 4-1.7 6-.8 1.9-1.6 3.8-2.2 5.8-.6 2-1 4-1.4 6l-1 7c0 .2.3.2.3 0Zm0 0"/><path fill="#c39d35" d="M3.8 37.2a82 82 0 0 1 3.8-21.4L9 13c1-2 1.7-4.2 2-6.5.1-.2-.2-.2-.2 0-.3 2-1 4-1.8 5.8-.5.9-1 1.8-1.3 2.7l-1 3a79.3 79.3 0 0 0-3.2 19.2c0 .2.3.2.4 0ZM2.4 36.4c-.5-4.5-1-9-.6-13.6.1-2.3.6-4.6 1.3-6.8.7-2.1 1.7-4.3 2.3-6.4.7-2.4 1-5 .4-7.4-.1-.2-.4 0-.3.1 1.3 4.5-1 9-2.5 13.1a34.2 34.2 0 0 0-1.6 13.3c.1 2.6.4 5.2.7 7.7 0 .2.4.2.3 0Zm0 0"/><g clip-path="url(#K)"><path fill="#c39d35" d="M.1 25v-1.6.2l.2.8.3 1.3a97 97 0 0 1 1.1 7.5l.3 2.9.1 1 .2 1.9v.1H2V39a238.2 238.2 0 0 1-1-8.8l-.4-2.6L.3 26 .1 25Zm0 0"/></g><g clip-path="url(#L)"><path fill="#c39d35" d="M.1 30.8v-1.6l.2 1 .1.4c.5 2.5.9 5 1.2 7.6l.1.7-.1.1h-.2V38l-.2-1a229.3 229.3 0 0 0-1-6.3Zm0 0"/></g><path fill="#c39d35" d="m2.6 42.4-.3-1 .2.3.2.3.1.1.3.5.1.1.1.2.1.2s.2.1.2.3l.2.2.1.3v.2l-.1.2-.1-.2V44h-.1v-.1l-.2-.2-.2-.5H3a13.6 13.6 0 0 0-.5-.8Zm0 0"/><g clip-path="url(#M)"><path fill="#c39d35" d="M.1 38.7v-.3l.2.3.2.2H.3l-.2-.2Zm0 0"/></g><path fill="#c39d35" d="M2.8 43.6v-.3l.1.3.1.1.1.2.1.2.2.5v.1c0 .1-.2.1-.2 0l-.2-.2v-.3l-.2-.2v-.4ZM41.4 91.7l.3-.2.1-.3h.4l.3-.3.1-.1.1-.1.7-.7.2-.3.8-.8 1-.3-.6.8-.6.6-.2.3h-.1l-.2.3-.2.2h-.1l-.2.2H43.8l.3-.1.5-.1.3-.1a15.1 15.1 0 0 0 4.4-1.9c1.2-.6 2.2-1.3 3.3-2l2.3-1.5.4-.2.4-.3 1.6-.9A45 45 0 0 1 73 78.8l.6-.1h-.8a54.4 54.4 0 0 0-4.9-.1 38.6 38.6 0 0 0-9.3 1.8l.4-.8.8-.3 1.5-.4a40.6 40.6 0 0 1 15.3-.5c.4 0 .2.6 0 .6a47.1 47.1 0 0 0-18.3 5.1l-.8.5c-1 .5-2 1-2.9 1.7-2.3 1.4-4.6 3.1-7.2 4.2l-1 .5H46l-.4.2h-.2l-.5.2-.5.1h-.5l-.4.2h-1l-.4.3-.2.2c-.5.2-.8-.3-.5-.5ZM57 90.3h.4-.4ZM48.1 91h1.7-1.7Zm0 0"/><path fill="#c39d35" d="M42 91.4v-.1l.3-.2h.6c0-.1.1-.2.3-.2h.6l.5.2H47l1 .3 1 .2h-.5l1.3.1 2.9.1h3.2a52.6 52.6 0 0 0 5.1-.6h.2l.6-.1.6-.1a52.6 52.6 0 0 0 12.3-4l4.3-1.8a19.5 19.5 0 0 1 4.3-1h-.5L82 84l-1-.2a28.8 28.8 0 0 0-12.2 1.7c-2.1.8-4.2 1.8-6.2 2.7l-.6.3v-.7l.5-.2c2.5-1.2 5-2.4 7.5-3.2a29 29 0 0 1 17.4.1l.3.1c.4.2.3.8-.1.6h-.4c-3.2-1-6.6 0-9.5 1.2l-4.2 1.8a52 52 0 0 1-11 3.3l-1.2.2h-.4l-.2.1a51.2 51.2 0 0 1-7.9.6h-1.9l-2-.2H48l-1-.2h-.7l-.6-.1-.7-.1h-2.6c-.3-.2-.4-.4-.4-.5Zm0 0"/><path fill="#c39d35" d="m42 91.1.1-.3H44l.2.1.8.2h.5l.1.1c.4 0 .7.2 1 .3l1.2.4.7.3.7.3.3.1.3.2h.2a63.9 63.9 0 0 1 3.2 1.3 58 58 0 0 0 5.1 1.6l.8.2h-2.3l-.8-.2h-.1l-3.6-1.3h-.3L49 93l-1.5-.6-.8-.3h-.2V92L46 92l-.3-.1a13 13 0 0 0-1.2-.3H44.2l-.6-.1h-.4l.2.1H43l-.4.1-.2-.2h-.1l-.1-.1H42v-.2H42Zm0 0"/><g clip-path="url(#N)"><path fill="#c39d35" d="M52.2 91.3Zm0 0Zm0 0Zm0 0Zm0 0Zm0 0Zm0 0Zm0 0Zm0 0Zm0 0Zm0 0Zm0 0Zm-6.8 0v-.1l.2-.1H46l.8.2.3.1V91l1 .3 1.1.2.7.1h-2l3.2.6h.5l.6.2h.7l1.3.3h.8l.7.1.6.1 1.5.1a56.6 56.6 0 0 0 18-1.6l4-1.2a27.5 27.5 0 0 1 6.5-1.5l-2.3-.4a17 17 0 0 0-4.3.1c-2.6.4-5.2 1.4-7.9 2a54.3 54.3 0 0 1-9.2 1.2h-1.6c-2.1.2-4.2.2-6.3.1h-1.9H56l3-.3 2-.3h.4l.6-.1H62.5a79.7 79.7 0 0 0 10.3-1.6c2.7-.6 5.3-1.5 8-1.7 2.6-.2 5.3.1 7.7 1.1.2 0 .3.2.2.3 0 .2-.1.3-.3.3-3.3-.4-6.6.8-9.7 1.8a53.8 53.8 0 0 1-16 2.6h-2l-4.5-.3H55l-1.3-.2-1.2-.2-3.2-.6h-.1l-.9-.2L47 92l-.2-.1-.7-.2-.5-.1c-.2 0-.2-.2-.2-.4Zm6.8 0Zm0 0Zm0 0Zm0 0Zm0 0Zm0 0Zm0 0Zm0 0Zm0 0Zm0 0Zm0 0Zm0 0Zm.5.5h.6l2.6-.1 3-.3h.2a5 5 0 0 1 1.8.3c-2 .1-4.2.2-6.3.1h-1.9Zm-5.7-.5V91l1 .2c.4 0 .7.2 1.1.3h.7-1l-1.8-.3Zm-1.6 0v-.1l.2-.1h.1-.2v.1Zm0 0"/></g><path fill="#c39d35" d="M48.5 92.2h.5l2 .1h.2l.6.4 1 .1 1 .1.1.1v.2L52 93l-1.2-.2-1.9-.4h-.4Zm0 0h.5l2 .1h.2l.6.4 1 .1 1 .1.1.1v.2L52 93l-1.2-.2-1.9-.4h-.4Zm-3.1-.9v-.1h.1V91h.4a79 79 0 0 0 1 .2c.7 0 1.3.2 2 .3l1.6.3 1 .2.7.2h.7l1.1.3h.3l.7.2h.6l.4.1h.2a142.5 142.5 0 0 0 7.8 1.2c3.5.4 7 .6 10.4.5 3.2 0 6.3-.4 9.4.1 1 .2 2 .5 3 1l.5.2h-1.7l-.6-.2c-.9-.3-1.8-.4-2.7-.5-3-.3-6.2 0-9.4 0a61 61 0 0 1-9.1-.5l-7.6-1-.4-.2H55l-1.3-.3L52 93l-1.2-.2-1.8-.4h-.6l-.5-.2h.1c.1.2.3.2.4.3a8.5 8.5 0 0 0 1.5.8c.3 0 .5.2.8.3L55 95a27.8 27.8 0 0 0 3 .8h-2.3l-.7-.2-1.5-.5a22 22 0 0 0-1.1-.4l-1.8-.6-.8-.3c-.8-.4-1.7-.8-2.4-1.3l-.5-.4-.2-.2-.7-.1h-.3a.3.3 0 0 1-.2-.5Zm3.1 1h2.7l.6.4 1 .1 1 .1.1.1v.2L52 93l-1.2-.2-1.9-.4h-.4ZM58.6 81.5l-1.1.4.4-.5a23.8 23.8 0 0 1 1.8-.7 38.4 38.4 0 0 1 13-1.9H73v.3l-2.3.1-3 .2-2.1.3h-.2c-2.3.4-4.6 1-6.8 1.8ZM43 90.9h.1l.5-.2.4-.2 1-.4.2-.1a16.7 16.7 0 0 0 3.4-2.3l.8-.2-1.4 1-.2.2c-.7.6-1.5 1-2.3 1.5h-.1l-1 .5-.4.2H43.7l-.1.1h-.2v.1H43c-.1.1-.2 0-.2 0l.1-.2Zm0 0"/><path fill="#c39d35" d="M43.6 90.3h.4l.9-.2.4-.1c.9-.3 1.7-.8 2.5-1.3l.4-.2 1.5-1 .8-.4 4.6-2.8 2.1-1.1a66.4 66.4 0 0 1 9-3.7 42.3 42.3 0 0 1 4.7-1h1.7l.2.1v.2h-.2a21.1 21.1 0 0 0-7.2 1.3c-3 1-6 2.3-8.9 3.8l-1.6 1c-.3 0-.5.2-.7.3l-4.9 3-.4.3a19.7 19.7 0 0 1-3.5 1.8 7 7 0 0 1-1.3.3h-.6l.1-.3ZM62 89.4v-.3l.6-.2 2.2-.6c2-.6 4-1.4 6-2.2a25.6 25.6 0 0 1 8.8-2H83.4c0 .1 0 .2-.2.2h-1.5l-2 .1-1.4.1-2.4.3c-2 .4-4 1.1-6 2-2 .7-4 1.5-6 2l-1.3.4-.7.2ZM51.3 90.8h.1l2.4-.4-.9.2-1.3.1h-.3Zm0 0"/><path fill="#c39d35" d="M61.9 90v-.4l.7-.1a76.3 76.3 0 0 0 10.9-2.8l2.8-1.3a16.6 16.6 0 0 1 3.3-1.2l1.4-.3 1.1-.2c.2 0 .3.2.1.3h-.1l-.8.1-1.6.4-.9.3c-1.1.3-2.2.8-3.2 1.3a29.4 29.4 0 0 1-5.8 2.1c-2.1.6-4.2 1-6.3 1.4l-1 .2-.6.1ZM50.8 90.8h.7-.7ZM51.7 92.3c4.6.6 9.2 1 13.8.7 2.3-.2 4.6-.5 6.7-1.2l6.6-2.3c2.5-.7 5.1-1.1 7.7-.4.2 0 .2-.3 0-.3-4.5-1.3-9 .9-13.2 2.3-2.2.8-4.5 1.3-6.8 1.5-2.3.3-4.6.3-7 .2l-7.8-.8c-.2 0-.2.3 0 .3Zm0 0"/><path fill="#c39d35" d="m49 92.3.2-.1 1.8.1h.2l.9.2h.6l1.5.2h.8l.5.1 2.2.3h.2l4.8.8 1.3.2 1.7.4 3 .7a60.9 60.9 0 0 0 4.5.6h1.7-4l-1.4-.1-1-.2a95 95 0 0 1-2-.5l-1.8-.4A86.2 86.2 0 0 0 54 93h-.2l-1-.1-1-.1-.9-.1-1.7-.2-.1-.2ZM76 95.9l1.1-.3 1.8-.2a17 17 0 0 1 5.5.2l1 .2h-1.6l-1.7-.2h-2.7l-1.7.2h-.2l-.2.1h-1.4ZM49.1 92.8h.8l2.9.4 1 .2 1.3.2.7.1a147.7 147.7 0 0 1 8.6 2l.7.2H64l-.8-.2-1.6-.5-4.1-.9-1.8-.3-2-.3-2.6-.4h-.7l-.4-.1-.8-.2c-.2 0-.2-.2 0-.2ZM43.4 90.2l.3.1.1.1.2.1h.1l.2.2.3.1.4.3h.2l.1.2h.1l.6.5a5.4 5.4 0 0 0 .6.4h-.2V92l-.7-.2-.8-.5-.6-.3-.2-.2-.5-.2-.1-.1-.3-.1c-.2-.1 0-.4.2-.3ZM43.3 91h.1a9.8 9.8 0 0 1 1.1.6l.2.1H44l-.2-.1-.2-.1-.3-.1V91ZM8.4 92.2l-.2-.2.5-.2.6.4-.5.2-.3-.1ZM7.3 92.7l-.1-.3h.2l.2.2v.2h.2l-.2.1c-.2 0-.2-.1-.3-.2ZM6.7 92.6h.2l.1.2.1.2.1.1-.2.1-.1-.2-.2-.4ZM6.2 92.8h.3l.1.2.2.3h-.3l-.1-.2-.2-.3ZM3.3 94.6a6.7 6.7 0 0 1 2.2-1.4l.6-.3V93.2l.1.2v.1l-.4.2h-.1l-.8.5-1 .8h-.1c-.1.2-.3.2-.4 0-.2 0-.2-.2 0-.4ZM5 90l-.1-.1.2-.2c0-.1 0-.2.2-.3v.1l.3.2h.2c0 .2-.2.3-.3.4l-.1.2-.2-.2L5 90Zm0 0"/><g clip-path="url(#O)"><path fill="#c39d35" d="m.1 95.2.2-.2.7-.5.6-.5.1-.1.4-.4v-.1l.2-.2.3-.4.3-.4.3-.3.6-.9.7-.8.2-.3.1-.1v-.1l.1.1.1.2c.1 0 .2 0 .3.2a1618.5 1618.5 0 0 0-.2.2l-.3.4-.6.8-.7 1h-.1l-.2.3-.3.3-.1.2-.2.2-.1.1-.2.2-.4.4-.2.2h-.1v.1a3 3 0 0 1-.5.3l-.1.2-.5.3v.1H0l.1-.5Zm0 0"/></g><path fill="#c39d35" d="m4.3 89-.5-.6.2-.8.4.9-.1.6Zm0 0"/><path fill="#c39d35" d="m2.8 93 .1-.6.2-1 .4-1.9.1-.4h.7l-.1.4V89.8l-.4 1.5v.4l-.3 1v.6l-.2.2H3v-.1c-.2-.1-.2-.2-.2-.3ZM5.6 90.6l-.2-.3h.2v-.1l.5-.3.3.2.3.1-.4.3h-.1l-.5-.3.1.2.3.2-.3.2c0-.1 0-.2-.2-.2Zm0 0"/><path fill="#c39d35" d="m2.2 93.2.1-.1.3-.3.3-.4.3-.2A12.6 12.6 0 0 1 4.7 91l.2-.2H5l.1-.1h.1v-.1h.2l.2.2.2.2-.2.1-.2.1-.4.4-1.4 1.3h-.1l-.2.2-.3.4-.3.2c-.1.1-.2.2-.3.1a.3.3 0 0 1-.3-.2v-.3ZM16.2 75.5c.3 0 .6.3.7.5.1.3 0 .6-.1.9-.2.2-.5.3-.6.6v.2c.4.2.8 0 1.2-.1.7-.2 1.5.1 2.3 0 .2 0 .5-.2.5-.5.1-.3 0-.6-.3-.8a4 4 0 0 0-3.3-1c-.2 0-.4 0-.5.2Zm0 0"/><path fill="#c39d35" d="M13.6 79.1c.5-1.4 1.3-3 3-3.5l1-.2c.4 0 .8.2 1.1.4l1 .7c0 .2.2.3.1.4l-.2.4c0 .3.4.4.5.1.1-.2.3-.4.2-.7 0-.3-.4-.6-.6-.8-.6-.4-1.2-.8-1.9-1-1.4-.1-2.7.8-3.5 1.8a8 8 0 0 0-1.1 2.3c-.1.2.3.4.4.1Zm0 0"/><path fill="#c39d35" d="M15.2 75.9c-.2.2-.3.6-.3 1v1a4.7 4.7 0 0 0 1.5 1.5c.1 0 .3 0 .3-.2V79l-.7-.5-.5-.7a1 1 0 0 1-.2-.8c0-.2.1-.5.3-.7.2-.3-.2-.6-.4-.3Zm0 0"/><path fill="#c39d35" d="M20 76.3c.6.5-1-1.5-1.8-2-.3-.1-.6-.3-1-.3l-1 .1-.4.6c-.4.4-.6 1-.7 1.5 0 0 2.2-1.9 4.8.1Zm0 0"/><path fill="#c39d35" d="M11.6 78c.3-1 .8-1.9 1.2-2.7.6-1 1.2-1.8 2-2.5.7-.8 1.6-1.4 2.7-1.5 1.5-.2 2.6 1 3.4 2 .5.7 1 1.3 1.3 2 .3.7.4 1.5.4 2.2 0 .3.5.4.5 0 0-.6 0-1.3-.3-2-.2-.7-.6-1.3-1-1.9-1-1.2-2-2.5-3.6-2.8-1.2-.1-2.4.4-3.3 1.2-.8.7-1.6 1.7-2.2 2.6-.6 1-1.2 2-1.5 3.2-.1.3.4.4.4.1Zm0 0"/><path fill="#c39d35" d="M11.6 78c-.2-.6 0-1.3.1-2l.3-1 .1-1c.1-.5.3-1 .6-1.3.3-.4.7-.7 1.1-.9.5-.3.9-.5 1.2-1l1.1-1 1.2-1c.4-.3.8-.7 1.3-.9.4-.2.9-.3 1.4-.1.4.1.6.5.8 1 .2.4.4.7.8 1l1.1.8c.9.4 1.6.8 2.3 1.5.6.8 1.1 1.8 1.3 2.8 0 .5 0 1-.3 1.5-.2.5-.7 1-1.1 1.3-.3.2 0 .6.2.4.9-.6 1.7-1.5 1.7-2.6 0-1-.4-2-.8-2.8a5.4 5.4 0 0 0-2.1-2c-.8-.6-1.8-.9-2.4-1.7-.3-.4-.4-.9-.7-1.2-.4-.4-.8-.6-1.4-.6-1 0-1.9.8-2.7 1.4l-1.3 1.1-1.2 1.2-1.3.9a3 3 0 0 0-1 1.1l-.4 1.5-.2 1.2L11 77v1c.1.4.6.3.6 0Zm0 0"/><path fill="#c39d35" d="M18 71.3c1-.2 2-.3 3 .1.6.2 1 .4 1.4.8l1 1.3 1 1.1c.4.4.7.8.8 1.3 0 .4 0 .8-.2 1.2-.3.4-.7.7-1.2.9l-1.6.5-1.5.9c-.3.2 0 .6.2.4.5-.4 1-.7 1.6-.9l1.5-.5c.5-.1 1-.4 1.3-.8a2.5 2.5 0 0 0 0-2.8L24 73.5 23 72.1a4 4 0 0 0-1.3-1 5.9 5.9 0 0 0-3.8-.3c-.1 0-.2.1-.2.3 0 .1.1.2.3.2Zm0 0"/><path fill="#c39d35" d="M13.5 80.2c.6.4 1.3.5 2 .5h2.1l2.3-.2 2.5-.3c.3 0 .3-.6 0-.5-1.6.2-3.1.5-4.7.6h-2c-.7 0-1.4-.2-2-.5-.2-.2-.5.3-.2.4ZM18.9 67.2c-.6-.5-1.2-1-1.8-1.3l-1-.4a1 1 0 0 0-.7.3l-.5.5-.9.2a3 3 0 0 0-1.5.9c-.5.5-.8 1.1-1.2 1.7L10.1 71c-.7 1.3-1 2.7-1 4.1-.1 1.6-.2 3.2.1 4.7.1.3.6.3.5 0a18.4 18.4 0 0 1 .5-7.9l1-1.7 1.1-1.8c.4-.4.8-1 1.3-1.1.5-.3 1-.2 1.5-.5l.7-.5c.3-.2.5-.1.8 0l2 1.3c.2.2.5-.1.3-.3Zm0 0"/><path fill="#c39d35" d="M9.2 75.7c.8.5 1.2 1.4 1.7 2.1l.7 1c.3.4.8.7 1.2 1l1.2.8c.4.4.6.8.7 1.3l.6 1.3.8 1.5a9 9 0 0 1 1.2 2.3v.4l.1.2v.1c0 .1.1.1.2 0-.3 0-.3.5 0 .5.9 0-.3-2.4-.4-2.7l-1-1.5-.8-1.6L15 81c-.3-.5-.6-.9-1-1.2-.5-.3-1-.5-1.4-.9l-1-1c-.5-.9-1-2-2-2.6-.2-.2-.5.2-.3.4Zm0 0"/><path fill="#c39d35" d="M14.4 80.8a4.7 4.7 0 0 1 2.6 1l.7.7c1 .6 2 .8 3.1 1.2.9.3 1.9.7 2.3 1.6l.7 1.9.5 1.2.4.8c.2.2.6 0 .4-.3l-.4-.7c0-.3-.2-.7-.4-1l-.8-2c-.8-2.1-3.5-2-5.3-3l-.8-.6a6 6 0 0 0-.8-.6c-.7-.3-1.4-.6-2-.6-.4 0-.5.4-.2.4Zm0 0"/><path fill="#c39d35" d="M18.3 82.8c.9 0 1.7 0 2.6-.3l2.4-.9c.3 0 .3-.6 0-.5-.9.2-1.6.6-2.4.9a6 6 0 0 1-2.5.3c-.3 0-.4.4-.1.5Zm0 0"/><path fill="#c39d35" d="M17.6 82.4c.5.1 1.1 0 1.6-.1.6-.2 1.2-.5 1.7-.9l.7-.6.8-.7 1.8-1.1 2-1.3c.4-.2 0-.6-.2-.4-1.2.6-2.3 1.4-3.4 2.1-.6.4-1.1.7-1.5 1.2a4 4 0 0 1-1.5 1c-.6.3-1.2.5-1.8.3-.3-.1-.6.4-.2.5ZM18.2 66.8a4.4 4.4 0 0 1 4.2-.7c.3 0 .6.2.9.4h1l1-.1c.8 0 1.6.1 2.1.6l.8.9.8.9c.5.5 1 1.1 1.2 1.8l.4 2V75c0 .5-.2.9-.4 1.3l-.1.5-.2.4v.2H30.2v.3c0-.4-.4-.6-.5-.3-.1.4.4.6.6.3l.2-.6.2-.6c.3-.8.4-1.6.5-2.4 0-.8 0-1.6-.2-2.4-.1-.8-.3-1.5-.7-2.1-.5-.8-1.1-1.4-1.7-2l-.8-1c-.3-.3-.7-.5-1.1-.6a5 5 0 0 0-2.4 0h-.6l-.6-.2a4.9 4.9 0 0 0-5.2.6c-.3.2 0 .6.3.4ZM24.5 89.4l-.6.2-1.3.3h-.2a14.5 14.5 0 0 1-3.1.1c-.5 0-1-.2-1.5-.4-.8-.3-1.9-.6-2.7-.1h-.2c-.2 0-.3-.3 0-.4l.2-.2c.8-.3 1.6-.2 2.4 0v.1l.6.2h.4l.2.2h.5l.2.1h2.8l.3-.1.6-.1h.2a11.4 11.4 0 0 0 1.7-.6l.8-.5.2-.2.2-.1.7-.5.6-.3h.2l.3-.2.4-.6.2-.4.2-.3.3-.8.1-.2.1-.4.3-1v-.3c0-.4 0-.8-.4-1.2a3.5 3.5 0 0 0-2.3-1.3c-.8-.1-1.4.3-2.1.7l-1.4.5c-.2 0-.3-.1-.3-.2l.1-.3.7-.2h.2l.9-.5a4 4 0 0 1 1.2-.5 3.1 3.1 0 0 1 1.5.1c.5.2 1 .4 1.3.7.4.3.7.6.9 1 .4.9.2 1.8-.1 2.7l-.6 1.4-.2.4c-.1.3-.3.7-.6 1l-.3.2-.9.3-1.1.9h-.2l-.6.4-.8.4Zm0 0"/><path fill="#c39d35" d="M22.4 89.7v-.2H23.5l.5.1h1.3a8.4 8.4 0 0 0 2.5-.8l1-.7.5-.6.2-.2 1.4-1.6 1-1.4.2-.6.1-.5c0-.5 0-1.1-.2-1.6v-.3c0-.4-.2-.7-.3-1l-.4-.7a5.1 5.1 0 0 0-3.2-2l-1-.1h-.5l-.2.1-.1.2-.1.1-.4-.1v-.2c0-.2.1-.3.3-.4h.3c.3-.2.6-.2.9-.2.8 0 1.7.3 2.4.7h.2l.2.2h.2l.1.2c.4.3.8.6 1 1a5 5 0 0 1 1.1 2l.3 1.7v1l-.2.4-.4.7-.3.5c0 .2-.2.3-.4.5l-.1.1-.4.5-.3.3-.3.3-.3.4-.2.2-.2.2-.2.2-.2.2v.1l-.2.2h-.1l-.2.2-.1.1-.2.1-.2.1v.1a9.5 9.5 0 0 1-5.4.7h-.1c-.2 0-.2-.1-.3-.2Zm0 0"/><path fill="#c39d35" d="M31 71.8c1.1.4 2 1 3 1.8l.2.3.2.2.3.3.2.3c.5.5.9 1.2 1 1.8v.5l.1.4a6.4 6.4 0 0 1-.8 3.1 6 6 0 0 1-.4.6l-.2.4-.8 1-.6.5-.5.3-.2.2a1 1 0 0 0-.3.3v.5c0 .2-.2.2-.3.2 0 0-.2-.1-.2-.3V83.6l.3-.4h.1l.2-.2 1-.8.1-.1 1-1.3.3-.6.3-.6c.3-.6.4-1.3.5-2v-.4l-.1-.7a4.5 4.5 0 0 0-1.2-2l-.3-.2-.3-.3-.2-.2a9 9 0 0 0-2.6-1.6c-.2 0 0-.5.3-.4ZM7.7 71.3v-.5A16.9 16.9 0 0 1 8 69v-.2l.1-.4a9.9 9.9 0 0 1 .5-1.5l.2-.3v-.2L9 66l.3-.5a8.6 8.6 0 0 1 1-1.4v-.2l.5-.4a6 6 0 0 1 1.6-1.1l.2-.1.8-.2 1-.1a15.7 15.7 0 0 1 4.6.5c.8.2 1.5.6 2 1.1.5.6 1 1.2 1.3 1.8.2.3-.2.6-.4.3-.4-.7-.8-1.4-1.4-1.9-.7-.5-1.5-.9-2.3-1-.7-.2-1.4-.3-2.2-.3h-2.2l-.8.2a5 5 0 0 0-1.8 1.1 5 5 0 0 0-.5.5l-.2.3A9.1 9.1 0 0 0 9.1 67l-.1.4-.2.5-.3 1v.5l-.2.7v2l-.1.1c-.1.2-.4.2-.4 0v-.9Zm0 0"/><path fill="#c39d35" d="M9.8 70.8c-.7.1-1.4.3-1.9.8-.5.4-.7 1-.6 1.7l.6 2.3c0 .4.2.7.3 1.1 0 .4.2.7.4 1 .3.8.5 1.6.6 2.5 0 .3.5.2.5-.1l-.4-2-.4-1-.3-1-.6-2c-.2-.7-.4-1.3 0-1.9.5-.6 1.3-.8 2-1 .1 0 .2-.1.1-.3 0-.1-.2-.2-.3-.1Zm0 0"/><path fill="#c39d35" d="M14.9 89.5h-.1c-.2 0-.3-.3-.2-.4v-.5l-.2-.6-.4-1c-.3-.7-1.1-1-1.7-1.5-1-.9-1.8-2-2.5-3.2l-1.2-1.9c0-.2-.2-.3-.4-.5l-.8-.6-.3-.2h-.2l-1.2-.9-.2-.3a3.5 3.5 0 0 1-.2-2.2l.3-.7a2.6 2.6 0 0 1 .9-1h.3l.3-.1h.5c.3 0 .2.5 0 .5l-1 .1-.3.3-.1.2-.2.2-.2.5v.2c0 .3-.1.5 0 .8V77.3c0 .3.3.6.5.8l1 .5.8.5.5.5.2.2.1.2.2.3.9 1.4.1.2.4.6.3.5.1.1.2.3.2.3h.1v.2h.1v.1h.1l.1.2.1.1.2.2.3.3.2.1v.1l.7.5c.3.2.6.3.8.6l.3.3.3.6.2.9.3 1c0 .3 0 .6-.2.6Zm0 0"/><path fill="#c39d35" d="M2.6 81c0-.3.1-.5.3-.8l.2-.4.2-.3.7-.7.1-.1.1-.1.4-.2h.2l.1-.1h.2l.6-.1c.5 0 1 0 1.4.3.2.1 0 .5-.2.5-.7-.5-1.7-.4-2.4 0h-.1l-.3.3c-.5.4-.8 1-1 1.6l-.1.3v.3l-.1.4v1.5l.3 2.1v.2l.8 1.9.4.8a3.4 3.4 0 0 0 1 1c0 .1 0 .2.2.2l.2.1.3.2.4.1.3.2.5.4.2.2.3.3a14 14 0 0 0 1.5 1.1h.2l.8.5 2.4 1 .6.1.9.2s.2 0 .2.2l-.1.2H14a3 3 0 0 1-.5 0l-.3-.1-1.6-.5c-.3 0-.7-.3-1.1-.4l-.8-.4-.9-.6-.3-.1-.3-.3c-.2 0-.3-.2-.4-.3l-.3-.3-1-.8h-.2v-.1l-.6-.3h-.2l-.3-.2-.3-.2-.1-.1-.1-.1-.1-.1-.3-.4-.5-.7c-.5-1-1-2.1-1.2-3.2v-.5l-.2-.8c-.1-1-.1-2 .2-3Zm0 0"/><path fill="#c39d35" d="m9 87.3.3.1c.6.5.9 1.2 1.1 2 .3.8.7 1.6 1.3 2.3l.6.7.4.3.3.3.2.2.4.3h.2l.1.2h.2l.3.2.3.2.4.2.3.1.5.3h.3l1 .4.3.1.6.2 1 .2h3.4l.4-.1h.3v-.1h.2l.3-.1.5-.2.5-.2.4-.2.4-.3.4-.3V94l.3-.4.1-.2v-.1h.1V93l.1-.2h.1v-.2h.1v-.1l.1-.2.1-.2V92l.1-.3.2-.4V91l.2-.4.2-1.2v-.3c0-.2.3-.2.4-.1h.1V90.3l-.2.4v.4l-.1.3-.1.2-.1.3-.1.3v.1l-.1.2v.1l-.2.2v.1l-.1.2v.1l-.2.3v.2l-.2.2-.1.1-.2.3v.1l-.3.3-.1.1a3 3 0 0 1-.5.4h-.2l-.6.4-.3.1h-.2l-.2.1-.2.1h-.2l-4.8.2h-.4l-.2-.1h-.3l-.2-.1-.3-.1h-.1l-.4-.1-.3-.1a6 6 0 0 1-.5-.2l-.3-.1-.3-.2-.8-.4-.2-.1h-.1l-.2-.2H14l-.3-.3a2.2 2.2 0 0 1-.3-.2l-.3-.2a6.3 6.3 0 0 1-.7-.6l-.6-.5-.5-.6c-.5-.7-1-1.4-1.2-2.2l-.6-1.5-.5-.4c-.4-.2-.2-.7 0-.5Zm0 0"/><path fill="#c39d35" d="m26 94.1.6-.2.4-.2h.2v-.2h.2l.2-.2h.2l.2-.2.3-.2.3-.3.7-.5.3-.2.2-.2.2-.1.5-.5h.2V91l.2-.2.7-.5.3-.2.1-.1.3-.2.2-.2h.1l.1-.2.2-.2.2-.2.2-.3.1-.2.2-.2a3 3 0 0 0 .3-1V86.4l-.1-.3-.1-.3-.2-.6-.2-.4v-.4l-.1-.6v-1.1l.1-.4.1-.1c.2-.1.3 0 .4 0v.3l-.1.3v1.6l.2.4v.3l.2.4.2.7v.2a3.5 3.5 0 0 1-.1 1.7l-.2.3-.2.5-.2.3-.6.6-.3.3h-.1v.1l-.3.2-.2.2H32l-1.3 1h-.1v.1l-.4.3-1 .8H29l-.2.2-.4.3-.3.2-.6.4-.7.4-.9.4c-.2 0-.3-.1-.3-.2l.3-.4ZM1.1 70.4v-.2h.1v-.4l.1-.3.4-.9.2-.3.1-.2.2-.2.2-.3.6-.3 1.5-.6H5l.2-.1h.1l1.5-.3h.4l.7-.2h.5l.4-.1H9c.3 0 .3.4 0 .5h-.7l-.5.1h-.2l-.4.1H7c-.3.2-.7.2-1 .3h-.5l-.1.1a2 2 0 0 0-.3 0l-.2.1h-.2c-.6.2-1.2.4-1.6.7h-.1l-.2.2-.3.3v.1h-.1v.1l-.2.5-.1.2v.1l-.2.4v.4l-.1.1v.1c0 .3-.1.6 0 .8V71.6l.1.6.1 1v.6l.2.6.1.4.5 1 .3.4.2.1.2.2 1 .9.1.2c.3.2.5.5.6.9v.1c.2.3-.3.5-.4.2v-.2l-.1-.1c0-.2-.1-.2-.2-.3l-.1-.1-.1-.1-.3-.4h-.2l-.1-.2-.2-.1-.2-.3H3v-.2a5.6 5.6 0 0 1-1.4-2.3l-.1-.4v-1.2l-.1-.4-.1-.5-.1-.4v-1.1Zm0 0"/><g clip-path="url(#P)"><path fill="#c39d35" d="M.1 88.6v-.5l.2.1h.2v.1l.2.1.5.2h.2l.5.2h.2l.3.1H3l.5.1h.2l.3.1h.3l.5.2c.1 0 .2.2.1.3l-.1.1h-.4l-.2-.1H3.8l-.3-.1h-.1a3 3 0 0 0-.5 0l-.5-.1H2l-.1-.1h-.1l-.4-.1H1.2l-.5-.3H.6l-.3-.2H.1Zm0 0"/></g><g clip-path="url(#Q)"><path fill="#c39d35" d="M0 74.7h.1v-.3l.1-.1h.1l.1-.1h.1l.1-.1h.1l.1-.1H1l.2-.2h.2v-.1c.2 0 .3.1.3.2v.2h-.2l-.7.4-.2.1-.3.2H0Zm0 0"/></g><path fill="#c39d35" d="M17.6 95.9h-.2.1l.3-.1H18.7v.2h-.1l-.4-.1h-.6ZM4.1 89.6l.1-.1h.3l.2.2v.2h.1c0 .2.1.2.2.3l.1.3.1.2.2.4v.3h.1l.4 1 .1.5v.1l.1.2v.1l.1.2.1.1.1.3.2.3.1.3.1.1.2.3a2.9 2.9 0 0 0 .4.5l.2.2.2.2h-.7l-.1-.1-.1-.2-.2-.2-.2-.3-.2-.3-.1-.1-.3-.6-.1-.3v-.1l-.1-.3-.1-.3-.5-1.1-.1-.4v-.2l-.2-.3V91l-.1-.2v-.1h-.1l-.1-.3-.4-.6ZM17.2 62.4c.4 1.2 0 2.4-.6 3.5 0 .1.2.2.2 0 .6-1 1-2.3.6-3.6l-.2.1ZM22.9 66c-.8.6-1.3 1.6-1.2 2.5 0 .2.3.2.3 0-.2-.8.3-1.7 1-2.2.2 0 0-.3-.1-.2ZM23.3 66.2l-.4.6v.1h.2l.4-.6v-.2h-.2ZM29.7 69.7c-.7 1-1.6 1.7-2.6 2.3-.1.1 0 .3.1.2 1.1-.6 2-1.4 2.7-2.4 0 0-.1-.3-.2-.1Zm0 0"/><path fill="#c39d35" d="M30 69.8a5 5 0 0 1-1.4 1.6c-.2 0 0 .2.1.2a5 5 0 0 0 1.6-1.7l-.2-.1ZM7.5 83c-.6-.4-1.3-.8-2-1l-.2-.1-.3-.1-.9-.3H3c-.2 0-.2-.2 0-.3.6 0 1.3 0 2 .3l.3.1c.9.4 1.7.8 2.4 1.3.1.1 0 .3-.2.2ZM4.3 82.6a4 4 0 0 0-1.4-.4h-.2c-.2 0-.1-.3 0-.3H3c.5 0 1 .2 1.5.5.1 0 0 .3-.1.2ZM21.2 91c1 .3 2 .4 3.2.6H26c.4 0 .8 0 1.1-.2l.2-.2c.2 0 .3.1.2.2a2 2 0 0 1-.5.3H27l-.7.1h-1.6l-3.5-.5c-.1 0-.1-.3 0-.2ZM26.8 92.4V92l.1.1v.1h-.1ZM19.4 67.4c-.6.5-1 1.3-.9 2 0 .2.3.2.2 0 0-.6.3-1.4.8-1.8.1-.1 0-.3-.1-.2Zm0 0"/><path fill="#c39d35" d="M19.5 67.6c-.2.3-.3.5-.3.8v.1h.2c0-.3.2-.6.3-.8v-.1h-.2ZM31.1 86.1h.4c.9 0 1.7.3 2.4.6h.1c.2.1 0 .3 0 .3h-.1l-.3-.1-.2-.1c-.7-.3-1.5-.4-2.2-.4H31V86ZM16.1 71.5c-.5.6-.6 1.3-.5 2 0 .2.3.2.3 0-.2-.6 0-1.3.4-1.9.1 0 0-.2-.2-.1Zm0 0"/><path fill="#c39d35" d="m16.5 71.3-.2.5v.1h.2v-.2l.1-.1V71.3h-.1ZM20.3 72.7l-1 1.2s.1.2.2.1l1-1.1c.1-.2 0-.3-.2-.2ZM20.5 73.1l-.4.5v.2h.2l.4-.5v-.2h-.2ZM4.7 89.6s.1-.1.2 0H5l.2.2.2.2h.1l.1.2c.2 0 .2.1.3.2l.2.2.7.8.6 1 .2.2v.1l.2.1a11.6 11.6 0 0 0 .5.8c.3.3.4.5.7.6l.1.2h.1l.5.3.4.2h.3c.5.2 1.1.3 1.7.2.5 0 1-.2 1.4-.5l.4-.2.2-.1v-.1h.2v.2l-.2.1c-.6.5-1.3.8-2.1.9-.8 0-1.5-.1-2.2-.4h-.2v-.1c-.2 0-.4-.2-.5-.3l-.3-.2-.2-.1-.5-.6-.2-.2-.3-.4-.1-.2-.2-.3-.2-.2v-.2a8.9 8.9 0 0 0-1.3-1.5l-.2-.2-.2-.2L5 90H5l-.1-.2h-.1l-.1-.1v-.1ZM12.1 95.9l.5-.2 1.6-1 .2-.2.1-.1c.2-.1.3 0 .2.1v.1l-1.3.9-.2.1-.3.2H12Zm0 0"/><path fill="#c39d35" d="M4.6 90v-.1h.2v.1l.3.1.2.3.3.2c0 .1 0 .2.2.3l.6.8c0 .2.2.3.3.5l.2.4.2.2v.2l.1.1.3.5.2.3.4.5.2.2.5.5.8.6.4.2h-.6l-.3-.2-.6-.5a4 4 0 0 1-.5-.6l-.2-.1c0-.2-.2-.4-.4-.6 0-.1 0-.2-.2-.3l-.2-.4-.1-.2-.2-.3-.3-.5-.7-1-.1-.1-.2-.3-.2-.2-.3-.2-.2-.2-.1-.3ZM13.4 95.9l.2-.1.3-.1.1-.1.6-.2a3.8 3.8 0 0 1 3 .2l.1.1.1.1v.1h-.2l-.4-.2-.4-.1-.3-.1h-.8c-.4 0-.7 0-1 .2h-.2l-.5.2h-.6Zm0 0"/><path fill="#c39d35" d="M4.5 89.5h.1v.1l.1.1.1.1.1.2.1.1.2.3.2.3s0 .2.2.3v.1l.4.8.3.6.2.2v.3h.1s0 .2.2.3l.1.3.2.3.4.5.1.2.4.4.1.2a3.6 3.6 0 0 0 .9.6h-.5l-.2-.2-.5-.4-.2-.3-.3-.3v-.2l-.5-.5-.1-.3-.2-.3-.1-.3-.2-.3-.7-1.3-.1-.3-.2-.3-.1-.3H5l-.1-.3-.2-.2-.1-.2-.2-.2.1-.1ZM11.4 77.8c-.4-.7-.4-1.6-.4-2.4.1-.8.4-1.7.7-2.5.1-.4.4-1 .7-1.3.3-.5.8-.7 1.2-1 .9-.7 1.4-1.6 2.2-2.3.8-.7 2-1 3-.9.2 0 .2-.2 0-.2-.9-.1-1.9 0-2.7.6-1 .6-1.5 1.6-2.3 2.3l-1.4 1-.9 1.5a10 10 0 0 0-.7 2.5c-.1 1-.1 2 .3 2.8.1.1.3 0 .3-.1Zm0 0"/><path fill="#c39d35" d="M11.2 77.7c-.2-1-.1-1.8-.2-2.7-.1-1-.1-1.9.2-2.7.4-1 1.2-1.8 2-2.4l1-.8 1-1.1c.5-.7 1.3-1.5 2.3-1.4.2 0 .2-.2 0-.2-.8-.1-1.5.3-2 .9-.8.7-1.3 1.6-2.1 2.2-.5.3-.9.6-1.2 1-.4.3-.7.7-1 1.2a5 5 0 0 0-.5 2.8l.1 1.5.1 1.7c0 .2.3.1.3 0Zm0 0"/><path fill="#c39d35" d="m11.2 77.7-.6-2.6c-.1-1-.3-1.9-.1-2.8.1-1 .6-1.8 1.3-2.5l2.5-2.1 1.2-1c.3-.3.8-.5 1.3-.4.1 0 .2-.2 0-.2-.9-.2-1.6.4-2.2 1L12 69.3c-.4.4-.8.7-1.1 1.2a5 5 0 0 0-.6 1.3c-.2 1-.2 1.9 0 2.8.1 1 .3 2.2.7 3.2 0 .1.3 0 .2-.1Zm0 0"/><path fill="#c39d35" d="M11.5 78c.4-1.5 1-3 1.7-4.2a9 9 0 0 1 1.2-1.9l1-.7 1.1-1c.7-.8 1-2 2.2-2.4l-.1-.2c-1 .3-1.4 1.2-2 2a4 4 0 0 1-1 1.2l-1.2.8a7 7 0 0 0-1.3 1.7 19 19 0 0 0-1.9 4.7c0 .1.2.2.3 0Zm0 0"/><path fill="#c39d35" d="M12.9 75c.6-1.2 1.1-2.3 2-3.2.5-.5 1-.8 1.6-1.1a5 5 0 0 0 1.4-1.3l1-1.8c.1-.2-.1-.3-.2-.1l-1 1.7c-.3.5-.8 1-1.3 1.3l-1.5 1-1.2 1.5-1 1.8c-.1.2.1.3.2.1ZM25.3 77.4c.4-.6.9-1.3.7-2.1-.2-.7-.7-1.4-1.2-2a9 9 0 0 0-1.6-1.9c-.3-.2-.6-.5-1-.6l-1.2-.6c-.8-.4-.9-1.7-.7-2.6 0-.1-.3-.2-.3 0-.1.7 0 1.5.3 2.2.4.7 1.2.9 1.9 1.2 1.4.8 2.5 2.3 3.2 3.7.2.3.4.8.4 1.2 0 .5-.4 1-.7 1.4-.1 0 .1.2.2.1Zm0 0"/><path fill="#c39d35" d="M26 77.1c.3-.6.4-1.3.3-2-.1-.8-.3-1.5-.6-2.2-.4-.7-1-1.1-1.7-1.6l-2.1-1.5a3.7 3.7 0 0 1-1.3-2.1c0-.2-.3-.1-.3 0 .3 1.5 1.6 2.5 2.8 3.3l1 .7 1 .7.5 1 .3 1.1c.2.9.2 1.7-.2 2.5 0 .2.2.3.2.1ZM9 80.5l-.3-.9-.8-1.3-.9-.8-1.2-.5h-.2v-.3h.2l1.1.5.8.5.1.1.2.2.6.9a12.6 12.6 0 0 1 .6 1.4v.1c0 .2-.2.3-.2.1Zm0 0"/><path fill="#c39d35" d="M9.3 80.3h-.2l-.2-.3v-.2l-1-1.9h-.2v-.2a7 7 0 0 0-1-1c-.2-.3-.5-.6-1-.7-.2 0-.2-.3 0-.3h.1l.8.5.3.3.7.8.3.3a11.2 11.2 0 0 1 1.4 2.7Zm0 0"/><path fill="#c39d35" d="M9.2 80.3H9l-.1-.4v-.1l-.3-1-.2-.4a9.7 9.7 0 0 0-1-2.3c-.4-.4-.8-.8-1.2-1l-.2-.2c-.1 0 0-.2 0-.2h.2l.1.1.8.6L8 77a15.4 15.4 0 0 1 1 3.1h.1v.2ZM9.3 78.2c-.2-2-.7-3.9-1.6-5.7 0-.1-.3 0-.2.1.8 1.8 1.4 3.7 1.5 5.7h.3Zm0 0"/><path fill="#c39d35" d="M9.2 77.5c0-2-.3-3.9-1.1-5.7l-.3.1A12 12 0 0 1 9 77.5c0 .1.2.2.3 0Zm0 0"/><path fill="#c39d35" d="m9.2 76.3.3-3V72c0-.3 0-.8-.4-1-.1 0-.2.2 0 .3.2 0 .3-.1.2-.2H9v.2l.1.4v.7a29.6 29.6 0 0 1-.3 3.8c0 .2.3.2.3 0ZM14.8 81c.8.8 1.6 2 2.2 3a11 11 0 0 1 1.4 3.4l.1 2c0 .2.2.2.2 0 .2-2.5-.9-4.9-2.4-7L15 80.8c-.1 0-.3.1-.2.2Zm0 0"/><path fill="#c39d35" d="M14.8 81c2.6 1.2 3.8 4 4.4 6.5.2.8.3 1.5.1 2.3 0 .1.2.2.3 0a5 5 0 0 0-.1-2 18 18 0 0 0-.5-2 9.8 9.8 0 0 0-2.2-3.6 7 7 0 0 0-1.9-1.4c-.1-.1-.2 0 0 .2Zm0 0"/><path fill="#c39d35" d="M15.8 81.2c1.4.6 2.5 1.6 3.4 2.7l1.2 1.8c.3.6.5 1.2.6 1.9l.2 2.2c0 .1.2.1.2 0 0-1.4-.1-2.8-.7-4-.3-.7-.7-1.3-1.2-1.8l-1.4-1.6c-.7-.6-1.4-1-2.2-1.4-.1 0-.2.2 0 .2Zm0 0"/><path fill="#c39d35" d="M15.8 81.2c1.3.7 2.5 1.5 3.6 2.4l1.4 1.6a7.5 7.5 0 0 1 1.3 3.2v1l.1.1s0 .1 0 0h.2l-.1.2c.2 0 .2-.2 0-.2l-.1.1v.2h.2c.1-.1 0-.3 0-.4v-.6l-.2-1.2c-.2-.7-.5-1.5-.9-2.1-.7-1.3-2-2.3-3.2-3.2L16 81c-.1 0-.2.2 0 .2Zm0 0"/><path fill="#c39d35" d="M19.5 83.2c2.4 1.2 3.4 3.8 3.6 6.3 0 .1.2.1.2 0-.2-2.6-1.2-5.3-3.7-6.5-.1 0-.2.2 0 .2ZM11 83.5l-.7-4.3c-.1-.6-.2-1.3-.1-2l.1-.6-.1-.5c-.1-.2-.3 0-.2.1v3.2l.7 4.2h.3Zm0 0"/><path fill="#c39d35" d="M10.7 83c-.2-1.3-.8-2.4-1-3.7v-2c0-.5.2-1 0-1.6 0-.1-.2 0-.2 0v1l-.1.8v2c.2 1.1.8 2.2 1 3.5h.3ZM11.6 84l-.7-1.8a4 4 0 0 1-.1-1.7c0-1 .4-2.1.2-3.2 0-.2-.3-.1-.2 0 .2 1.1-.2 2.2-.3 3.3l.1 1.6.7 1.9s.3 0 .3-.2Zm0 0"/><path fill="#c39d35" d="M11.3 83.3c.1-1.5.2-3 .6-4.4 0-.1-.1-.2-.2 0-.4 1.4-.5 2.9-.6 4.3 0 .2.2.3.2 0Zm0 0"/><path fill="#c39d35" d="M11.3 84c.1-.8.2-1.6.6-2.2.1-.4.4-.7.6-1l.7-1c.1-.1 0-.3-.2-.2l-.7 1-.7 1L11 84c0 .2.3.2.3 0Zm0 0"/><path fill="#c39d35" d="M11.7 84c0-.8.3-1.5.7-2.1l.8-.8 1-.6c.2-.1 0-.3 0-.2L13 81l-.8.8c-.5.7-.8 1.4-.7 2.2 0 .1.2 0 .2 0Zm0 0"/><path fill="#c39d35" d="m11.5 84.2.7-1.1c.2-.3.5-.5.9-.7.6-.3 1.2-.5 1.7-1l-.2-.1c-.2.2 0 .3.1.2.2-.2 0-.3-.1-.2-.5.5-1.2.7-1.8 1-.8.4-1.2 1-1.5 1.8 0 .1.2.2.2 0Zm0 0"/><path fill="#c39d35" d="M11.5 84.2a3 3 0 0 1 2-.8h1.2c.3 0 .6 0 .8-.3 0-.1 0-.2-.2-.1l-.4.1H13c-.6.2-1.3.5-1.8 1 0 0 .1.2.2.1Zm0 0"/><path fill="#c39d35" d="M11.4 84.2a6.8 6.8 0 0 1 3.6 0l1.1.4c.2 0 .2-.3 0-.3L15 84l-1.3-.2c-.8 0-1.6 0-2.3.2-.2 0-.1.2 0 .2Zm0 0"/><path fill="#c39d35" d="M11.4 84.2c1 .1 2 .4 3 .8l1.4.7c.4.2.8.4 1.2.4.2 0 .2-.2 0-.2-.4 0-.8-.3-1.3-.5l-1.3-.6-3-.9v.3Zm0 0"/><path fill="#c39d35" d="M11.7 84.3c1.2.2 2.2 1 3.1 1.6l1.4.9.7.4c.2 0 .5.2.7.1l.1-.1V87h-.2c-.2 0 0 .3.1.2h-.1V87l-.4-.1-.4-.2-.7-.4-1.4-1a7.2 7.2 0 0 0-2.8-1.3c-.2 0-.2.2 0 .2Zm0 0"/><path fill="#c39d35" d="M11.5 84.3c.7.3 1.3.6 1.8 1.1l1.3 1.4c.8 1 2 1.4 3.2 1.3.2 0 .2-.3 0-.3-.6.1-1.2 0-1.8-.3-.6-.2-1-.6-1.4-1.1-.4-.5-.8-1-1.3-1.3-.5-.4-1-.8-1.7-1-.1 0-.2.2 0 .2Zm0 0"/><path fill="#c39d35" d="M12.4 85c1 .5 1.7 1.6 2.6 2.5.4.4 1 .8 1.5 1l.9.4c.2.1.5.2.6.5 0 .2.3.1.2 0-.1-.6-.7-.7-1.2-.9a5 5 0 0 1-1.8-1.1c-1-1-1.6-2-2.8-2.7 0 0-.2.2 0 .2ZM15.5 81.2c1.5.3 2.6 1.4 3.3 2.7a9.9 9.9 0 0 1 1 5.8c0 .2.2.2.2.1l.1-.2c.1-.1-.1-.2-.2 0v.1h.2c.1-1.3 0-2.6-.3-4a8 8 0 0 0-2-3.6c-.6-.5-1.4-1-2.2-1.1-.2 0-.2.2 0 .2ZM30 77.8c1.7-1 3.8-1.2 5.7-.7.1 0 .2-.2 0-.2a8 8 0 0 0-5.9.7c-.1.1 0 .3.2.2Zm0 0"/><path fill="#c39d35" d="M29.7 77.8c2-.2 4 1 6 .4 0 0 0-.3-.2-.2-1.9.6-3.9-.6-5.8-.4-.2 0-.1.3 0 .2Zm0 0"/><path fill="#c39d35" d="M29.8 78a6.1 6.1 0 0 1 3.9 1.4l.5.4.7.4.1-.2H35c-.2-.1-.3.1-.1.2h.1c.1 0 .3 0 .2-.1l-.5-.4-.7-.4-1.2-.9c-.9-.4-1.9-.7-2.9-.7-.2 0-.2.2 0 .2Zm0 0"/><path fill="#c39d35" d="M29.7 78c2 0 3 2.1 4.4 3.4 0 0 .2 0 .1-.2v-.1c-.1-.1-.3 0-.2.1v.2l.2-.2c-1.3-1.3-2.4-3.4-4.5-3.5-.1 0-.2.3 0 .3ZM30.3 77.5c1.2-1.3 3-1.6 4.4-2.5.2-.1 0-.3-.1-.2-1.5 1-3.3 1.3-4.5 2.5-.1.1 0 .3.1.2Zm0 0"/><path fill="#c39d35" d="M29.9 77.6c1.2-1.3 2.2-3 2.7-4.6 0-.2-.2-.2-.3 0a11 11 0 0 1-2.6 4.4c-.1.2 0 .3.2.2ZM7.5 74h-.1l-.1-.1-.2-.2-.1-.1-1.1-.8-1.1-.5c-1-.4-2-.6-3.1-.8-.1 0-.1-.2 0-.2 1 .1 2 .3 2.9.7l1 .4 1.3.8.1.1.2.2h.1v.1h.1l.1.2h.1v.1c.1.1 0 .2-.1.2Zm0 0"/><path fill="#c39d35" d="M7.5 73.6h-.1v-.1l-.1-.1-.1-.2-.4-.4-.2-.3c-.4-.4-1-.7-1.5-1l-.2-.1-1.1-.5-.4-.2a4.3 4.3 0 0 0-1.3-.4h-.4v.1c-.3 0-.3-.2-.1-.3h1l.9.3 1 .6h.3l1.3.8.6.5v.1c.2 0 .3.2.4.3l.1.2h.1v.2l.2.2.1.2v.1ZM7.6 73.9H7l-.2-.1-.5-.2-.8-.1a9.5 9.5 0 0 0-3.6.1c-.2 0-.3-.2-.1-.2h.1a10 10 0 0 1 3.5-.2l.8.1.8.3.4.1h.1v.1Zm0 0"/><path fill="#c39d35" d="M7.4 73.9h-.2l-.4.1h-.2a4.6 4.6 0 0 0-1.5.6c-.4.3-.8.5-1 .8l-.7 1h-.1c-.1.2-.3 0-.2 0v-.2h.1l.8-1 1-.8.8-.4.6-.2h.7l.2-.1h.1v.2Zm0 0"/><path fill="#c39d35" d="M7 73.8c-.6.5-1.3 1-1.8 1.7a5 5 0 0 0-1 2.3h.2c.2-.2 0-.4 0-.3-.2.1-.2.2-.2.4 0 .1.2.1.2 0 .1-.8.5-1.6 1-2.3.5-.6 1.2-1 1.8-1.6.1 0 0-.3-.1-.2ZM7.5 73.5 7.2 70l.3-1.8.4-1.8c0-.2-.2-.2-.2 0l-.5 1.8A8 8 0 0 0 7 70l.3 3.5c0 .2.3.2.2 0ZM7.2 73.4a23 23 0 0 0-2.4-6.3c0-.1-.3 0-.2.2 1 1.9 1.9 4 2.3 6.1 0 .2.3.2.3 0Zm0 0"/><path fill="#c39d35" d="M7.3 73.5h-.1l-.1-.2-.2-.3-.3-.5-.6-.7-1-1.2c-.6-.6-1.3-1.4-2.2-1.8l-.5-.2H2c-.2-.1 0-.3 0-.3h.4c1.1.5 2 1.3 2.8 2.1l1.5 1.9v.1l.4.5c0 .1 0 .2.2.2v.4Zm0 0"/><path fill="#c39d35" d="M7.3 73c0-2.2 0-4.7 1.4-6.6 0-.2-.1-.3-.2-.2C7 68.2 7 70.7 7 73.1c0 .1.2.1.2 0ZM28.2 88.8h.1l.1.1.1.2.1.3.1.3v.6l.1.5V92l-.1.6-.1.2v.2c0 .2 0 .3-.2.3-.2-.2-.1-.3-.1-.4v-.3l.2-.6v-2l-.1-.4v-.1l-.1-.3v-.1h-.1L28 89l.1-.2Zm0 0"/><path fill="#c39d35" d="m27.1 93.7.1-.5V93l.1-.1v-.2l.1-.3.1-.3.1-.4.2-.5V91l.1-.4v-.3l.1-.3V89c0-.2.1-.2.2-.1v1.6l-.2.5v.3l-.2.5v.4l-.2.3v.3l-.1.3V93.3l-.1.1v.4H27ZM28.5 88.4h.1v.1l.1.2.6 1.1v.3h.1a5.6 5.6 0 0 1 .3.9l.1.7v.3c0 .2-.1.3-.2.1v-1h-.1l-.1-.4-.2-.5-.2-.3-.3-.6v-.2l-.2-.2v-.4c-.1 0 0-.1 0-.1Zm0 0"/><path fill="#c39d35" d="m28.6 88.2.3.1.1.1a4.4 4.4 0 0 1 2 2v.3l.1.2c0 .2 0 .3-.2.2l-.1-.2v-.1l-.1-.3a6 6 0 0 0-.4-.6l-.2-.3c-.3-.4-.7-.8-1.2-1l-.1-.1h-.2v-.1c-.1-.1 0-.2 0-.2Zm0 0"/><path fill="#c39d35" d="M29 88h.1l.2.1c.8.2 1.6.7 2.3 1.3l.3.3.2.2v.2h-.2l-.2-.1v-.1l-.1-.2-.3-.3c-.6-.5-1.4-.9-2.2-1H29v-.1c-.2 0-.1-.3 0-.2ZM29.2 87.7h1.1a5.5 5.5 0 0 1 1.2.4l.5.3a6.4 6.4 0 0 1 1 .6c.2 0 .3.1.3.3l-.1.1s-.2 0-.1-.1l-.2-.1-.3-.2-.2-.1-.3-.2-.8-.4h-.1c-.5-.3-1.1-.4-1.7-.4h-.3c-.2 0-.2-.2 0-.2Zm0 0"/><path fill="#c39d35" d="M29.5 87.5h.3c1.3 0 2.6.2 3.8.8h.1c.1.1 0 .4-.1.3h-.1c-1-.6-2.1-.8-3.3-.9h-.8l.1-.2ZM29.7 87l.8-.2 1.3-.1 1.5.1.4.2h.2l.3.2c.1 0 0 .3-.1.2h-.2c-.1-.2-.3-.2-.5-.3l-1.6-.2c-.5 0-1 0-1.6.2l-.3.1c-.2.1-.3 0-.2-.2ZM30.4 86.6c1-.5 2.4-1 3.6-.5.1 0 .2-.2 0-.2-1.2-.6-2.6 0-3.8.5-.1.1 0 .3.2.2ZM31.5 85.5c.5-.5 1.3-.8 2-.8.2 0 .2-.2 0-.2-.8 0-1.6.3-2.2.9v.2h.2ZM32 84.5l.6-.5.8-.3.1-.1-.1-.1c-.3 0-.7.1-1 .3l-.6.6c0 .2.2.3.3.1Zm0 0"/><g clip-path="url(#R)"><path fill="#c39d35" d="M.1 78.1v-.3h.5c1-.2 2-.3 2.9-.1h.4l.3.1.1.1.4.2.2.2c.2.1 0 .3-.1.2h-.1v-.1h-.2v-.1l-.2-.1-.3-.1-.4-.2h-1l-2 .1H.3l-.2.1Zm0 0"/></g><g clip-path="url(#S)"><path fill="#c39d35" d="M.3 77H.1v-.2h.7c.8 0 1.7.1 2.4.4h.2l.3.1h.1l.4.3.2.2.3.3v.2h-.2v-.1l-.5-.4h-.1l-.5-.3C2.5 77 1.5 77 .6 77H.3Zm0 0"/></g><g clip-path="url(#T)"><path fill="#c39d35" d="M.1 75.7v-.2h.2l1.7.6 1.1.7c.1 0 .3 0 .4.2a4.5 4.5 0 0 1 .8.5l.1.1.3.4v.1h-.2l-.1-.2h-.1l-.1-.2-.7-.5h-.2a28.8 28.8 0 0 0-3-1.4H.2Zm0 0"/></g><g clip-path="url(#U)"><path fill="#c39d35" d="M.1 79.1V79h.2c1.1-.4 2.3-.5 3.4-.7h.9v.2h-.8L.3 79l-.2.1Zm0 0"/></g><g clip-path="url(#V)"><path fill="#c39d35" d="m.3 80.5-.2.2v-.3l.2-.2h.1l.3-.3.4-.2 2.8-1.1.2-.2c.2 0 .3-.1.3-.2h.2s.1.1 0 .1v.1a2 2 0 0 1-.4.2h-.1l-.2.1-.2.1-.2.1h-.1c-.2.2-.4.2-.7.3L1 80l-.2.1-.3.2-.2.2Zm0 0"/></g><g clip-path="url(#W)"><path fill="#c39d35" d="M.1 82.7v-.5l.2-.2.4-.4.2-.3.2-.2h.1A31 31 0 0 1 3.6 79l.3-.3h.2v.2l-.8.6-.1.1-.5.4-.5.4-.9.9-.3.2-.2.3-.3.3-.2.2-.2.4Zm0 0"/></g><g clip-path="url(#X)"><path fill="#c39d35" d="M.1 84.8v-.5l.2-.4.5-1 .1-.2v-.1l.1-.1.2-.4.2-.4a13.3 13.3 0 0 1 1.7-2.3l.3-.3.5-.4.3-.2.3-.2.2.1v.1l-.4.3H4L4 79c-.3.1-.5.4-.7.6l-.3.2-.1.2A12 12 0 0 0 1 82.8L1 83v.1l-.2.4-.5.9c0 .1 0 .3-.2.4Zm0 0"/></g><g clip-path="url(#Y)"><path fill="#c39d35" d="M.1 87.7v-.6l.1-.3.1-.3v-.2l.2-.2V85.5l.2-1.1v-.5l.2-.6V83l.2-.3.2-.4c0-.1 0-.3.2-.4l.3-.6A11.1 11.1 0 0 1 3.7 79l.2-.2.1-.1.2-.1v-.1l.2-.2h.1l.1-.1.1-.1c.2-.1.3 0 .2.2l-.2.1-.1.1-.4.3-.3.2a8 8 0 0 0-.9 1l-.2.3-.7.8-.4.7-.2.4-.2.4-.1.4-.2.7v.2l-.2.5v.6a5.5 5.5 0 0 1-.2 1.1v.2l-.3.7v.3l-.2.3v.1Zm0 0"/></g><path fill="#c39d35" d="M1.6 83.4v-.3l.1-.7.2-.5c0-.3.2-.6.3-.8l.8-1.3.2-.2.7-.8.2-.2.2-.2.2-.1v-.1h.2v.2l-.4.4-.3.2a8 8 0 0 0-1 1.3l-.5.6a5.5 5.5 0 0 0-.7 2.7l.1 1 .3 2.2v1.1l-.1.9v.1c0 .2-.3.2-.3 0V88.6l.1-.9v-2L1.6 84v-.5ZM18 82.2a3.7 3.7 0 0 0 2-1.8h-.3c0 .2-.2.4-.4.5 0 .2-.2.3-.4.4a4 4 0 0 1-1 .7c-.2 0 0 .3 0 .2Zm0 0"/><path fill="#c39d35" d="m18 82.5 1.7-1c.5-.2 1-.7 1-1.2.1-.1 0-.2-.1-.2l-.1.1c-.1.1 0 .3.1.2h.1l-.2-.2c-.1.6-.6 1-1 1.2l-1.6.8v.3Zm0 0"/><path fill="#c39d35" d="M18 82.3v-1l.1-.8c0-.1-.2-.2-.2 0l-.2.9v.9h.3Zm0 0"/><path fill="#c39d35" d="M18 82.4a4 4 0 0 0-.7-1c-.3-.2-.5-.5-.6-.9 0-.1-.3-.1-.2 0 .1.8 1 1.3 1.3 2 0 .1.3 0 .2-.1Zm0 0"/><path fill="#c39d35" d="m17.6 82-.5-.5-.8-.5-.8-.4c-.3 0-.5-.1-.7-.4 0 0-.3 0-.2.2l.6.4.7.3.8.5.7.5c.1.1.4 0 .2-.2Zm0 0"/><path fill="#c39d35" d="m14.9 80.6-.3-.2-.2-.1-.1-.2H14v.2l.3.3.3.2h.2v-.2ZM19 82.6c.3.3.6.4 1 .4h3.4c1.5.2 3 .4 4 1.5.6.5 1 1.1 1 1.8 0 .2.3.2.3 0-.2-1.2-1.1-2.2-2.2-2.8-1.4-.7-3-.7-4.6-.7h-1.4c-.4 0-1 0-1.3-.4-.1 0-.3.1-.2.2Zm0 0"/><path fill="#c39d35" d="M19 82.7c1.3.3 2.6 0 4-.1 1.4-.2 3 0 4.3.7.8.4 1.5 1 1.9 1.7 0 .1.3 0 .2 0-.7-1.5-2.2-2.2-3.7-2.6l-2.2-.2c-.7 0-1.4.2-2 .3l-2.5-.1c-.1 0-.2.2 0 .3Zm0 0"/><path fill="#c39d35" d="M18.8 82.6c3 .6 5.8-1 8.7-.4.8.2 1.6.6 2.2 1.1.1.1.3 0 .2-.2-1.1-1-2.6-1.3-4-1.2-1.5 0-3 .4-4.5.6l-2.5-.1c-.2 0-.2.2 0 .2Zm0 0"/><path fill="#c39d35" d="M19.4 82.7c.5.4 1.2.5 1.8.6l2 .5c1.3.3 2.6.8 3.4 1.8.4.5.8 1 .9 1.7 0 .1.2.1.2 0-.2-1.2-1-2-2-2.7-1-.8-2.5-1-3.8-1.4a129.3 129.3 0 0 1-2.5-.5Zm0 0"/><path fill="#c39d35" d="M20 83.1c2.2.8 5 1.8 5.8 4.3l.1.4.1.4c.1.2.3.1.3-.1V88c-.2 0-.3.2-.2.2V88h.1v-.5l-.2-.4a5.6 5.6 0 0 0-1.7-2.2c-1.2-1-2.8-1.6-4.3-2.1 0 0-.2.2 0 .2Zm0 0"/><path fill="#c39d35" d="M18.7 82.4c1.7-.3 3.4-1 4.8-1.9 1.4-.9 3-2.3 4.9-1.8.9.2 1.7.9 2.2 1.6.6.7.7 1.5.5 2.4a6 6 0 0 1-1.3 2.3l-.9 1.2-.7 1c-.3.4-.6.8-1 1a3 3 0 0 1-1.2.5c-.8.2-1.6.2-2.3.6-.2.1 0 .3.1.2.7-.4 1.5-.4 2.3-.6.3 0 .7-.1 1-.3a4 4 0 0 0 1-.8l.8-1.1.9-1.2c.6-.7 1.1-1.4 1.4-2.3.3-.8.4-1.6 0-2.4-.3-.8-1-1.4-1.8-1.9s-1.6-.6-2.5-.4a7 7 0 0 0-2.4 1c-1 .7-1.8 1.3-2.8 1.7-1 .4-2 .8-3 1-.1 0-.1.2 0 .2Zm0 0"/><path fill="#c39d35" d="M18.8 82c0 .5.8.3 1.1.3l1.7-.4c1.1-.2 2.1-.9 3.1-1.4 1-.4 2.1-.8 3.2-.5.6.3 1 .7 1.5 1.1.3.5.6 1 .7 1.5 0 .6-.2 1.1-.4 1.7l-.9 1.8c0 .1.2.2.3 0a39.9 39.9 0 0 0 1.2-3c.2-1.2-.5-2-1.4-2.7a3 3 0 0 0-1.4-.7c-.6-.1-1 0-1.6.1-1 .3-2 1-3 1.4-.7.3-1.3.5-2 .6l-1 .2s-.9.2-.9 0c0-.1-.2-.1-.2 0Zm0 0"/><path fill="#c39d35" d="m25.9 89.5-3.3.4h-.2v-.2l1-.1h.5l.6-.2a53.4 53.4 0 0 0 3-.7l.8-1.1.8-1 1-1c.6-.6 1.1-1.5 1.3-2.4.3-.8.4-1.8 0-2.6a4.5 4.5 0 0 0-2-2c-.8-.4-1.7-.7-2.6-.5-.9.2-1.7.7-2.4 1.2l-2.3 1.6a13.1 13.1 0 0 1-2.4 1c-.2 0-.3-.2-.1-.2a11.4 11.4 0 0 0 3-1.4c1-.6 1.8-1.4 2.7-1.9.8-.4 1.6-.7 2.5-.6a5 5 0 0 1 2.6 1.2c.4.3.9.8 1.1 1.3.2.3.3.5.3.8v.2c.2.9 0 1.8-.3 2.6a6 6 0 0 1-1.6 2.3l-1 1-.8 1.2-.4.4-.4.4-1.4.3Zm0 0"/></svg>