<svg xmlns="http://www.w3.org/2000/svg" xmlns:xlink="http://www.w3.org/1999/xlink" width="128" zoomAndPan="magnify" viewBox="0 0 96 95.999999" height="128" preserveAspectRatio="xMidYMid meet" version="1.0"><defs><clipPath id="6f4d131e09"><path d="M 13.839844 0 L 82.050781 0 L 82.050781 96 L 13.839844 96 Z M 13.839844 0 " clip-rule="nonzero"/></clipPath></defs><g clip-path="url(#6f4d131e09)"><path fill="#c39d35" d="M 74.796875 60.757812 C 74.875 60.835938 75.007812 60.742188 74.953125 60.644531 C 74.703125 60.242188 74.492188 59.78125 74.375 59.320312 C 74.261719 58.839844 74.300781 58.359375 74.242188 57.878906 C 74.222656 57.746094 74.050781 57.707031 74.011719 57.839844 L 74.011719 57.859375 C 73.972656 57.859375 73.933594 57.859375 73.914062 57.878906 C 72.511719 58.6875 72.300781 61.738281 74.011719 62.316406 C 74.183594 62.371094 74.335938 62.160156 74.242188 62.007812 C 74.105469 61.757812 73.933594 61.660156 73.722656 61.453125 C 73.359375 61.085938 73.261719 60.644531 73.261719 60.144531 C 73.261719 59.398438 73.414062 58.761719 73.933594 58.246094 C 73.820312 59.128906 74.28125 60.125 74.796875 60.757812 Z M 63.277344 23.433594 C 63.144531 23.378906 62.988281 23.53125 63.125 23.644531 C 63.316406 23.820312 63.546875 23.953125 63.757812 24.125 C 63.949219 24.300781 64.140625 24.492188 64.316406 24.683594 C 64.410156 24.777344 64.546875 24.644531 64.46875 24.53125 C 64.121094 24.144531 63.738281 23.664062 63.277344 23.433594 Z M 65.023438 28.464844 C 64.96875 28.332031 64.796875 28.386719 64.8125 28.523438 C 64.910156 29.234375 65.523438 29.65625 65.964844 30.15625 C 66.695312 30.980469 67.097656 31.921875 67.386719 32.996094 C 67.445312 33.226562 67.769531 33.132812 67.730469 32.898438 C 67.597656 32.074219 67.253906 31.269531 66.773438 30.597656 C 66.234375 29.847656 65.351562 29.347656 65.023438 28.464844 Z M 39.296875 82.707031 C 39.375 82.285156 39.546875 81.648438 39.355469 81.246094 C 39.316406 81.1875 39.21875 81.207031 39.203125 81.265625 C 39.144531 81.457031 39.183594 81.667969 39.183594 81.878906 C 39.183594 82.148438 39.164062 82.398438 39.105469 82.648438 C 39.085938 82.78125 39.257812 82.839844 39.296875 82.707031 Z M 39.546875 63.082031 C 39.027344 64.253906 38.722656 65.464844 38.683594 66.75 C 38.644531 68.246094 39.375 69.820312 38.777344 71.261719 C 38.722656 71.378906 38.914062 71.472656 38.988281 71.378906 C 39.757812 70.628906 39.429688 69.589844 39.257812 68.652344 C 38.914062 66.789062 39.125 64.945312 39.777344 63.179688 C 39.835938 63.046875 39.605469 62.929688 39.546875 63.082031 Z M 49.570312 67.863281 C 49.550781 67.789062 49.433594 67.769531 49.394531 67.84375 C 49.183594 68.265625 49.300781 68.917969 49.339844 69.382812 C 49.359375 69.515625 49.550781 69.515625 49.550781 69.382812 C 49.550781 69.113281 49.550781 68.84375 49.570312 68.574219 C 49.570312 68.34375 49.628906 68.09375 49.570312 67.863281 Z M 79.273438 61.660156 C 78.675781 62.335938 78.3125 62.679688 77.410156 62.660156 C 77.484375 62.410156 77.3125 62.085938 77.21875 61.875 C 77.0625 61.527344 76.832031 61.238281 76.546875 60.972656 C 76.46875 60.914062 76.351562 60.988281 76.410156 61.066406 C 76.621094 61.335938 76.796875 61.644531 76.929688 61.96875 C 77.003906 62.160156 77.003906 62.429688 77.101562 62.621094 C 76.988281 62.621094 76.890625 62.621094 76.777344 62.660156 C 76.640625 62.71875 76.46875 62.910156 76.332031 62.949219 C 76.277344 62.96875 76.179688 62.96875 76.101562 62.96875 C 76.027344 62.757812 75.949219 62.582031 75.988281 62.351562 C 76.007812 62.199219 75.796875 62.125 75.757812 62.296875 C 75.71875 62.488281 75.699219 62.71875 75.757812 62.929688 C 75.238281 62.832031 74.664062 62.699219 74.683594 63.410156 C 74.683594 63.582031 74.933594 63.582031 74.953125 63.410156 C 74.988281 63.082031 76.027344 63.582031 76.238281 63.542969 C 76.507812 63.503906 76.46875 63.410156 76.699219 63.3125 C 77.140625 63.101562 77.3125 63.199219 77.753906 63.199219 C 78.5625 63.199219 79.5 62.640625 79.558594 61.777344 C 79.578125 61.644531 79.367188 61.546875 79.273438 61.660156 Z M 74.335938 63.582031 C 74.125 63.582031 73.914062 63.660156 73.683594 63.621094 C 73.570312 63.601562 73.453125 63.5625 73.359375 63.523438 C 73.183594 63.429688 73.339844 63.351562 73.472656 63.292969 C 73.722656 63.179688 74.03125 63.0625 73.972656 62.738281 C 73.953125 62.601562 73.742188 62.601562 73.703125 62.738281 C 73.644531 62.988281 73.28125 62.988281 73.089844 63.140625 C 72.933594 63.273438 72.839844 63.503906 72.972656 63.699219 C 73.242188 64.082031 74.125 64.15625 74.472656 63.851562 C 74.566406 63.753906 74.472656 63.582031 74.335938 63.582031 Z M 77.390625 57.820312 C 77.390625 57.804688 77.410156 57.785156 77.429688 57.746094 C 77.792969 57.304688 78.445312 56.824219 79.097656 56.632812 C 78.042969 55.730469 77.101562 55.078125 75.699219 54.828125 C 75.679688 54.828125 75.644531 54.808594 75.625 54.808594 C 74.28125 55.171875 72.953125 55.632812 71.648438 56.171875 C 72.167969 56.285156 72.6875 56.460938 73.164062 56.632812 C 73.683594 56.804688 74.222656 56.957031 74.605469 57.363281 C 75.566406 56.957031 76.640625 57.113281 77.390625 57.820312 Z M 56.558594 58.054688 C 56.808594 57.785156 56.691406 57.515625 56.597656 57.226562 C 56.519531 56.996094 56.789062 56.785156 57 56.882812 C 57.152344 56.765625 57.34375 56.691406 57.554688 56.613281 C 57.652344 56.574219 57.804688 56.535156 57.863281 56.460938 C 57.84375 56.460938 57.84375 56.441406 57.824219 56.441406 C 57.785156 56.476562 57.730469 56.476562 57.691406 56.441406 C 57.480469 56.304688 57.25 56.285156 57.019531 56.285156 C 56.867188 56.285156 56.710938 56.304688 56.597656 56.230469 C 56.578125 56.246094 56.558594 56.246094 56.539062 56.265625 C 56.058594 56.574219 55.65625 57.09375 55.136719 57.285156 C 55.042969 57.324219 54.925781 57.265625 54.867188 57.167969 C 54.792969 57.246094 54.734375 57.324219 54.65625 57.382812 C 54.597656 57.4375 54.523438 57.457031 54.464844 57.476562 C 54.332031 57.746094 53.890625 57.667969 53.851562 57.34375 C 53.582031 57.054688 53.390625 56.691406 53.179688 56.363281 C 53.082031 56.210938 52.988281 56.035156 52.871094 55.882812 C 52.910156 55.996094 52.851562 56.152344 52.679688 56.171875 C 52.410156 56.191406 52.121094 56.496094 51.949219 56.691406 C 51.875 56.785156 51.699219 56.976562 51.738281 57.113281 C 51.777344 57.246094 51.890625 57.226562 51.988281 57.265625 C 52.066406 57.304688 52.121094 57.34375 52.160156 57.417969 C 52.296875 57.457031 52.390625 57.628906 52.316406 57.785156 C 52.199219 58.015625 52.066406 58.226562 52.046875 58.492188 C 52.027344 58.628906 52.046875 58.992188 52.257812 58.992188 C 52.390625 58.992188 52.621094 58.742188 52.777344 58.707031 C 52.988281 58.648438 53.121094 58.707031 53.292969 58.839844 C 53.292969 58.839844 53.292969 58.839844 53.3125 58.859375 C 53.332031 58.859375 53.351562 58.859375 53.390625 58.859375 C 53.621094 58.917969 53.832031 59.011719 54.0625 59.109375 C 54.425781 59.261719 54.617188 59.164062 54.867188 58.917969 C 55.042969 58.726562 55.214844 58.550781 55.425781 58.476562 C 55.445312 58.359375 55.539062 58.285156 55.675781 58.285156 C 55.964844 58.285156 56.308594 58.320312 56.558594 58.054688 Z M 53.640625 50.351562 C 53.640625 50.335938 53.640625 50.335938 53.640625 50.351562 Z M 53.945312 50.46875 Z M 54.214844 50.640625 C 54.3125 50.851562 54.386719 51.0625 54.445312 51.273438 C 54.445312 50.96875 54.425781 50.660156 54.371094 50.351562 C 54.371094 50.449219 54.3125 50.566406 54.214844 50.640625 Z M 54.886719 79.289062 C 53.792969 78.519531 52.738281 77.597656 52.332031 76.3125 C 52.296875 78.019531 52.085938 79.863281 53.140625 81.304688 C 53.21875 81.398438 53.042969 81.535156 52.96875 81.4375 C 51.890625 80.191406 51.875 78.441406 51.890625 76.8125 C 51.816406 76.925781 51.738281 77.0625 51.660156 77.195312 C 51.355469 77.808594 51.296875 78.519531 51.007812 79.132812 C 51.007812 79.152344 51.027344 79.171875 51.027344 79.191406 C 51.085938 80.710938 52.085938 81.765625 52.621094 83.109375 C 53.003906 84.085938 53.292969 85.125 53.410156 86.160156 C 54.386719 85.007812 54.847656 83.664062 54.945312 82.128906 C 54.984375 81.304688 54.714844 80.152344 54.886719 79.289062 Z M 40.488281 71.992188 C 40.640625 72.164062 40.738281 72.375 40.71875 72.605469 C 40.699219 72.703125 40.660156 72.796875 40.582031 72.835938 C 40.640625 72.875 40.679688 72.933594 40.640625 73.027344 C 40.621094 73.066406 40.621094 73.105469 40.601562 73.144531 C 40.757812 72.914062 40.949219 72.703125 41.121094 72.53125 C 41.332031 72.300781 41.542969 72.070312 41.753906 71.878906 C 41.332031 72.011719 40.871094 72.085938 40.488281 71.992188 Z M 36.820312 73.988281 C 36.839844 73.988281 36.859375 73.988281 36.859375 73.988281 C 36.6875 73.910156 36.511719 73.835938 36.359375 73.71875 C 36.261719 73.875 36.128906 73.929688 35.957031 73.929688 C 35.859375 73.988281 35.765625 74.046875 35.667969 74.085938 C 36.070312 74.046875 36.4375 74.007812 36.820312 73.988281 Z M 36.207031 72.972656 C 36.300781 73.007812 36.398438 73.027344 36.476562 73.046875 C 36.035156 72.703125 35.648438 72.300781 35.359375 71.878906 C 35.609375 72.261719 35.898438 72.625 36.207031 72.972656 Z M 34.957031 71.222656 C 34.996094 71.28125 35.035156 71.359375 35.074219 71.414062 C 35.054688 71.398438 35.054688 71.378906 35.035156 71.339844 C 35.015625 71.28125 34.996094 71.242188 35.015625 71.183594 C 34.996094 71.203125 34.976562 71.222656 34.957031 71.222656 Z M 80.441406 61.929688 C 80.191406 62.046875 79.980469 61.988281 79.769531 61.835938 C 79.578125 61.679688 79.464844 61.46875 79.175781 61.46875 C 78.945312 61.46875 78.753906 61.625 78.523438 61.660156 C 78.371094 61.699219 78.214844 61.488281 78.351562 61.375 C 78.371094 61.355469 78.386719 61.355469 78.40625 61.335938 C 78.523438 60.242188 78.195312 59.453125 77.542969 58.570312 C 76.8125 57.609375 75.949219 57.476562 74.894531 57.667969 C 75.449219 58.109375 75.910156 58.628906 76.257812 59.242188 C 76.316406 59.359375 76.160156 59.453125 76.085938 59.339844 C 75.679688 58.742188 75.183594 58.246094 74.605469 57.820312 C 74.566406 57.804688 74.546875 57.765625 74.546875 57.746094 C 74.394531 57.765625 74.300781 57.609375 74.355469 57.496094 C 73.394531 56.804688 72.070312 56.746094 70.976562 56.460938 C 69.84375 56.957031 68.710938 57.535156 67.617188 58.1875 C 68.078125 58.667969 68.480469 59.242188 68.828125 59.894531 C 68.882812 59.992188 68.730469 60.070312 68.671875 59.972656 C 68.308594 59.300781 67.886719 58.742188 67.40625 58.300781 C 67.40625 58.300781 67.40625 58.300781 67.386719 58.300781 C 67.15625 58.4375 66.964844 58.1875 67.042969 57.996094 C 66.578125 57.628906 66.0625 57.363281 65.542969 57.148438 C 65.390625 57.304688 65.082031 57.167969 65.042969 56.976562 C 63.046875 56.363281 60.707031 56.496094 58.554688 56.496094 C 58.535156 56.632812 58.476562 56.785156 58.402344 56.882812 C 58.382812 56.902344 58.34375 56.9375 58.324219 56.957031 C 59.015625 57.113281 59.648438 57.476562 60.167969 57.9375 C 60.261719 58.035156 60.128906 58.167969 60.015625 58.089844 C 59.359375 57.589844 58.667969 57.363281 57.902344 57.226562 C 57.863281 57.246094 57.824219 57.246094 57.804688 57.265625 C 57.671875 57.324219 57.519531 57.34375 57.382812 57.417969 C 57.402344 57.457031 57.402344 57.515625 57.402344 57.554688 C 59.113281 57.996094 60.628906 59.628906 61.378906 61.144531 C 61.433594 61.238281 61.28125 61.335938 61.222656 61.238281 C 60.742188 60.433594 60.128906 59.683594 59.398438 59.089844 C 58.765625 58.570312 58.074219 58.285156 57.363281 57.957031 C 57.324219 58.109375 57.269531 58.246094 57.191406 58.359375 C 58.054688 58.78125 58.574219 59.933594 58.917969 60.722656 C 58.957031 60.816406 58.824219 60.914062 58.765625 60.816406 C 58.496094 60.28125 58.226562 59.703125 57.824219 59.261719 C 57.574219 58.972656 57.289062 58.800781 56.960938 58.648438 C 56.867188 58.726562 56.769531 58.78125 56.652344 58.820312 C 57.480469 59.644531 57.980469 60.644531 58.152344 61.816406 C 58.421875 63.621094 58.074219 66.039062 60.167969 66.867188 C 60.261719 66.902344 60.226562 67.058594 60.128906 67.019531 C 59.035156 66.652344 58.476562 65.714844 58.210938 64.621094 C 57.691406 62.46875 57.996094 60.53125 56.269531 58.898438 C 56.097656 58.917969 55.945312 58.917969 55.769531 58.878906 C 55.675781 59.050781 55.539062 59.222656 55.386719 59.378906 C 56.117188 63.792969 55.980469 69.667969 61.570312 70.53125 C 61.722656 70.550781 61.800781 70.667969 61.820312 70.800781 C 61.855469 70.726562 61.933594 70.648438 62.050781 70.667969 C 62.085938 70.667969 62.105469 70.667969 62.144531 70.667969 C 62.125 70.648438 62.105469 70.609375 62.085938 70.570312 C 61.855469 69.765625 62.261719 69.09375 62.855469 68.554688 C 63.257812 68.191406 63.757812 67.902344 64.121094 67.480469 C 64.832031 66.636719 64.640625 65.90625 64.757812 64.945312 C 64.832031 64.175781 65.179688 63.734375 65.8125 63.351562 C 65.753906 63.253906 65.695312 63.160156 65.640625 63.0625 C 65.523438 62.890625 65.390625 62.71875 65.234375 62.566406 C 65.140625 62.46875 65.292969 62.316406 65.390625 62.410156 C 65.5625 62.566406 65.714844 62.71875 65.851562 62.890625 C 65.925781 62.988281 66.003906 63.082031 66.042969 63.199219 C 66.121094 63.160156 66.175781 63.121094 66.253906 63.082031 C 66.042969 62.660156 65.832031 62.257812 65.503906 61.875 C 65.121094 61.453125 64.699219 61.085938 64.257812 60.722656 C 64.160156 60.644531 64.296875 60.472656 64.390625 60.550781 C 65.199219 61.125 66.234375 61.910156 66.5625 62.910156 C 67.578125 62.316406 68.308594 61.738281 68.539062 60.335938 C 68.558594 60.222656 68.730469 60.261719 68.730469 60.355469 C 68.691406 61.164062 68.421875 61.910156 67.867188 62.507812 C 67.519531 62.871094 67.078125 63.121094 66.65625 63.351562 C 66.636719 63.429688 66.5625 63.46875 66.484375 63.449219 C 66.023438 63.71875 65.621094 64.042969 65.429688 64.582031 C 65.0625 65.597656 65.371094 66.617188 64.71875 67.558594 C 63.988281 68.632812 62.492188 69.015625 62.472656 70.511719 C 62.472656 70.570312 62.453125 70.628906 62.414062 70.667969 C 63.625 70.589844 64.621094 69.917969 65.601562 69.207031 C 66.503906 68.554688 67.519531 67.804688 68.210938 66.921875 C 68.980469 65.945312 68.539062 65.0625 68.691406 63.984375 C 68.75 63.640625 68.847656 63.484375 68.941406 63.179688 C 69.171875 62.8125 69.34375 62.390625 69.402344 61.949219 C 69.324219 61.46875 69.171875 61.007812 68.960938 60.585938 C 68.882812 60.433594 69.09375 60.316406 69.191406 60.453125 C 69.84375 61.394531 70.035156 62.066406 69.574219 63.140625 C 68.941406 64.542969 69.730469 66 68.710938 67.289062 C 67.867188 68.363281 66.617188 69.246094 65.503906 70.015625 C 64.410156 70.78125 63.296875 71.433594 61.933594 71.222656 C 61.820312 71.203125 61.761719 71.128906 61.742188 71.050781 C 61.683594 71.164062 61.589844 71.261719 61.433594 71.242188 C 59.132812 71.089844 57.171875 69.609375 56.269531 67.5 C 56.269531 67.480469 56.25 67.460938 56.25 67.421875 C 56.191406 68.421875 55.980469 69.476562 55.578125 70.4375 C 60.898438 72.796875 61.953125 79.382812 59.878906 84.316406 C 59.839844 84.394531 59.785156 84.453125 59.707031 84.472656 C 59.707031 84.492188 59.726562 84.511719 59.726562 84.53125 C 59.804688 84.875 59.265625 85.027344 59.1875 84.683594 C 58.882812 83.378906 58.554688 82.246094 57.554688 81.265625 C 56.847656 80.574219 55.964844 80.054688 55.136719 79.5 C 55.675781 82.054688 55.347656 84.855469 53.484375 86.8125 C 53.253906 87.046875 52.910156 86.699219 53.121094 86.449219 C 52.910156 84.777344 52.390625 83.433594 51.488281 81.996094 C 51.046875 81.285156 50.605469 80.59375 50.546875 79.804688 C 50.261719 80.152344 49.894531 80.421875 49.550781 80.691406 C 49.320312 80.863281 49.011719 80.460938 49.242188 80.285156 C 49.78125 79.824219 50.242188 79.421875 50.527344 78.789062 C 49.511719 78.558594 48.570312 78.136719 47.707031 77.523438 C 47.589844 77.445312 47.6875 77.253906 47.820312 77.328125 C 48.722656 77.828125 49.664062 78.214844 50.664062 78.421875 C 50.777344 78.058594 50.855469 77.695312 51.007812 77.347656 C 51.183594 76.964844 51.429688 76.695312 51.625 76.332031 C 51.699219 76.214844 51.738281 76.101562 51.796875 75.984375 C 51.527344 75.910156 51.257812 75.792969 50.988281 75.71875 C 50.546875 75.582031 50.105469 75.484375 49.664062 75.390625 C 49.53125 75.351562 49.570312 75.140625 49.703125 75.140625 C 50.394531 75.160156 51.21875 75.253906 51.875 75.5625 C 51.890625 75.542969 51.890625 75.523438 51.910156 75.503906 C 52.007812 74.988281 51.929688 74.46875 51.855469 73.875 C 51.816406 73.644531 52.140625 73.546875 52.199219 73.777344 C 52.332031 74.316406 52.46875 74.871094 52.410156 75.429688 C 52.410156 75.523438 52.390625 75.601562 52.371094 75.699219 C 53.199219 78.019531 55.464844 78.902344 57.269531 80.324219 C 58.460938 81.265625 59.132812 82.359375 59.515625 83.742188 C 61.300781 78.886719 60.035156 73.453125 55.386719 70.78125 C 54.90625 71.761719 54.195312 72.605469 53.253906 73.105469 C 53.621094 74.566406 54.464844 75.390625 55.75 76.175781 C 56.691406 76.753906 57.382812 77.484375 57.960938 78.421875 C 58.035156 78.558594 57.84375 78.671875 57.765625 78.539062 C 57.269531 77.769531 56.597656 77.15625 55.808594 76.695312 C 55.328125 76.425781 54.828125 76.234375 54.40625 75.890625 C 53.582031 75.238281 53.023438 74.335938 52.8125 73.316406 C 52.582031 73.394531 52.351562 73.46875 52.101562 73.507812 C 51.988281 73.527344 51.949219 73.375 52.046875 73.335938 C 52.316406 73.222656 52.5625 73.105469 52.796875 72.972656 C 52.832031 72.894531 52.910156 72.835938 52.988281 72.816406 C 52.988281 72.796875 52.988281 72.796875 52.988281 72.777344 C 53.234375 71.414062 53.332031 70.054688 53.160156 68.691406 C 53.140625 68.574219 53.332031 68.554688 53.351562 68.671875 C 53.542969 69.996094 53.582031 71.28125 53.371094 72.605469 C 55.214844 71.128906 55.40625 68.691406 55.714844 66.269531 C 55.714844 66.195312 55.75 66.136719 55.789062 66.097656 C 55.195312 64.101562 54.984375 61.796875 54.945312 59.78125 C 54.867188 59.820312 54.8125 59.859375 54.734375 59.894531 C 54.386719 60.03125 54.023438 59.933594 53.679688 59.78125 C 51.816406 60.703125 50.242188 63.621094 50.03125 65.578125 C 50.011719 65.675781 49.855469 65.675781 49.875 65.578125 C 49.992188 64.15625 50.625 62.96875 51.335938 61.777344 C 51.855469 60.894531 52.429688 60.070312 53.3125 59.589844 C 53.3125 59.589844 53.3125 59.589844 53.292969 59.589844 C 51.910156 60.070312 50.855469 60.988281 49.800781 61.988281 C 48.761719 62.96875 47.035156 64.351562 46.898438 65.828125 C 46.898438 65.925781 46.746094 65.925781 46.746094 65.828125 C 46.84375 64.351562 48.300781 63.082031 49.261719 62.066406 C 50.03125 61.238281 50.914062 60.335938 51.910156 59.742188 C 51.71875 59.664062 51.546875 59.492188 51.449219 59.300781 C 51.429688 59.242188 51.410156 59.183594 51.394531 59.128906 C 51.355469 59.183594 51.296875 59.242188 51.21875 59.242188 C 49.128906 59.570312 47.246094 59.953125 45.230469 60.625 C 43.730469 61.125 42.371094 61.257812 40.890625 60.625 C 40.199219 60.316406 39.527344 59.914062 38.953125 59.433594 C 34.976562 62.335938 37.128906 68.074219 38.261719 71.933594 C 38.300781 71.933594 38.316406 71.914062 38.355469 71.914062 C 38.625 71.550781 39.105469 71.453125 39.546875 71.550781 C 39.660156 71.570312 39.796875 71.628906 39.929688 71.683594 C 40.296875 70.742188 40.199219 69.476562 40.238281 68.515625 C 40.238281 68.382812 40.46875 68.382812 40.46875 68.515625 C 40.449219 69.382812 40.527344 70.246094 40.46875 71.089844 C 40.449219 71.378906 40.410156 71.664062 40.277344 71.894531 C 40.316406 71.933594 40.351562 71.953125 40.390625 71.992188 C 40.371094 71.914062 40.390625 71.839844 40.449219 71.800781 C 40.890625 71.472656 41.5625 71.453125 42.082031 71.300781 C 42.734375 71.109375 43.253906 70.820312 43.789062 70.417969 C 43.617188 69.839844 43.519531 69.226562 43.464844 68.554688 C 43.464844 68.496094 43.558594 68.476562 43.578125 68.535156 C 43.828125 69.628906 44.117188 70.589844 44.691406 71.378906 C 44.5 70.6875 44.789062 69.707031 44.980469 69.132812 C 45.019531 68.996094 45.210938 69.054688 45.171875 69.1875 C 45.019531 69.859375 44.652344 71.070312 45.132812 71.683594 C 45.191406 71.742188 45.171875 71.820312 45.113281 71.878906 C 45.460938 72.222656 45.882812 72.511719 46.421875 72.742188 C 48.089844 73.488281 49.855469 73.605469 51.644531 73.394531 C 51.757812 73.375 51.777344 73.566406 51.660156 73.585938 C 49.683594 74.046875 47.515625 73.777344 45.710938 72.796875 C 44.789062 72.300781 44.230469 71.609375 43.90625 70.78125 C 43.675781 71.050781 43.40625 71.261719 43.097656 71.433594 C 43.097656 71.492188 43.078125 71.550781 43.003906 71.589844 C 42.082031 72.144531 41.351562 73.144531 40.910156 74.125 C 41.140625 74.007812 41.371094 73.894531 41.601562 73.699219 C 41.792969 73.546875 41.945312 73.394531 42.140625 73.238281 C 42.5625 72.914062 43.003906 72.742188 43.539062 72.835938 C 43.636719 72.855469 43.597656 73.007812 43.5 72.988281 C 42.464844 72.835938 42.003906 74.027344 41.199219 74.371094 C 42.042969 74.582031 44 73.605469 44.671875 73.546875 C 45.59375 73.453125 46.460938 73.566406 47.339844 73.835938 C 47.4375 73.875 47.398438 74.027344 47.304688 73.988281 C 45.382812 73.507812 44 73.949219 42.234375 74.660156 C 41.734375 74.851562 41.332031 74.929688 40.949219 74.660156 C 40.949219 74.679688 40.96875 74.699219 40.96875 74.71875 C 40.988281 74.777344 40.96875 74.832031 40.949219 74.890625 C 41.160156 75.082031 41.292969 75.332031 41.292969 75.621094 C 41.792969 76.082031 42.984375 75.699219 43.597656 75.871094 C 44.136719 76.023438 44.597656 76.371094 44.941406 76.792969 C 45.019531 76.886719 44.882812 77.023438 44.808594 76.925781 C 44.367188 76.425781 43.789062 76.101562 43.097656 76.082031 C 42.617188 76.0625 42.140625 76.253906 41.679688 76.175781 C 41.503906 76.15625 41.332031 76.082031 41.199219 76.003906 C 41.140625 76.15625 41.042969 76.292969 40.929688 76.371094 C 41.984375 77.0625 42.773438 77.90625 43.597656 78.886719 C 44.117188 79.5 44.652344 80.132812 45.363281 80.515625 C 46.265625 81.015625 47.035156 80.882812 47.976562 80.652344 C 48.167969 80.613281 48.261719 80.824219 48.148438 80.957031 C 47.265625 82.035156 45.554688 81.476562 44.597656 80.785156 C 43.519531 79.996094 42.753906 78.921875 41.851562 77.945312 C 43.367188 80.324219 45.34375 83.300781 43.253906 85.777344 C 43.078125 85.988281 42.886719 86.140625 42.675781 86.335938 C 41.984375 86.929688 41.8125 87.027344 41.351562 87.929688 C 41.0625 88.464844 40.796875 88.945312 40.332031 89.347656 C 40.238281 89.425781 40.140625 89.503906 40.046875 89.578125 C 40.046875 89.597656 40.046875 89.617188 40.046875 89.617188 C 40.027344 89.75 39.910156 89.769531 39.816406 89.734375 C 38.953125 90.25 37.933594 90.421875 36.953125 90.15625 C 36.78125 90.097656 36.859375 89.867188 37.03125 89.886719 C 38.03125 90.019531 38.972656 89.808594 39.738281 89.308594 C 39.910156 88.140625 39.929688 86.988281 39.699219 85.816406 C 39.679688 85.699219 39.855469 85.644531 39.890625 85.757812 C 40.140625 86.832031 40.21875 87.910156 40.121094 89.003906 C 40.488281 88.65625 40.796875 88.234375 41.023438 87.734375 C 41.449219 86.757812 41.964844 86.46875 42.695312 85.71875 C 45.25 83.148438 42.214844 79.574219 40.8125 77.214844 C 40.757812 77.117188 40.777344 77.023438 40.832031 76.945312 C 40.738281 76.867188 40.621094 76.792969 40.507812 76.714844 C 40.332031 76.8125 40.140625 76.828125 39.929688 76.828125 C 39.835938 76.828125 39.660156 76.792969 39.585938 76.828125 C 39.488281 76.886719 39.488281 77.097656 39.429688 77.195312 C 39.394531 77.253906 39.355469 77.308594 39.316406 77.367188 C 39.699219 78.328125 39.757812 79.382812 39.679688 80.402344 C 39.679688 80.515625 39.488281 80.515625 39.488281 80.402344 C 39.527344 79.421875 39.316406 78.5 39.085938 77.558594 C 38.875 77.675781 38.644531 77.695312 38.414062 77.65625 C 38.375 78.421875 38.507812 79.171875 38.414062 79.941406 C 38.300781 80.84375 38.105469 81.746094 37.953125 82.648438 C 37.933594 82.742188 37.78125 82.707031 37.800781 82.609375 C 37.933594 81.589844 38.144531 80.496094 38.183594 79.460938 C 38.203125 78.808594 38.066406 78.175781 38.125 77.539062 C 38.066406 77.503906 38.03125 77.484375 37.992188 77.445312 C 37.914062 77.539062 37.820312 77.617188 37.683594 77.636719 C 37.800781 78.539062 37.492188 79.460938 37.109375 80.324219 C 36.167969 82.4375 35.09375 84.566406 35.957031 86.910156 C 35.996094 87.007812 35.839844 87.046875 35.820312 86.949219 C 35.226562 85.433594 35.398438 83.859375 35.917969 82.320312 C 36.476562 80.691406 37.472656 79.25 37.261719 77.578125 C 37.128906 77.523438 37.011719 77.425781 36.914062 77.328125 C 36.570312 77.003906 36.359375 76.195312 36.972656 76.023438 C 37.183594 75.964844 37.359375 76.15625 37.320312 76.371094 C 37.300781 76.425781 37.28125 76.464844 37.28125 76.503906 C 37.300781 76.523438 37.300781 76.523438 37.320312 76.542969 C 37.414062 76.714844 37.492188 76.867188 37.550781 77.042969 C 37.609375 77.078125 37.664062 77.097656 37.683594 77.078125 C 37.628906 76.964844 37.589844 76.828125 37.589844 76.695312 C 37.589844 76.464844 37.894531 76.332031 38.050781 76.503906 C 38.125 76.601562 38.222656 76.734375 38.300781 76.847656 C 38.394531 76.773438 38.546875 76.828125 38.507812 76.984375 C 38.507812 77.003906 38.507812 77.003906 38.507812 77.023438 C 38.585938 77.042969 38.644531 77.042969 38.738281 76.984375 C 38.933594 76.867188 38.933594 76.601562 39.105469 76.445312 C 39.257812 76.3125 39.449219 76.253906 39.660156 76.253906 C 39.835938 76.253906 40.21875 76.371094 40.316406 76.195312 C 40.371094 76.101562 40.449219 76.082031 40.527344 76.0625 C 40.582031 75.984375 40.660156 75.910156 40.71875 75.792969 C 40.8125 75.5625 40.757812 75.3125 40.5625 75.160156 C 40.546875 75.140625 40.546875 75.121094 40.527344 75.101562 C 40.21875 74.949219 40.046875 74.507812 39.988281 74.199219 C 39.929688 73.796875 40.046875 73.414062 40.296875 73.085938 L 40.316406 73.066406 C 40.296875 73.066406 40.277344 73.046875 40.277344 73.046875 C 40.007812 72.875 39.890625 72.566406 39.605469 72.375 C 39.429688 72.261719 39.105469 72.105469 38.855469 72.125 C 38.835938 72.414062 38.472656 72.511719 38.203125 72.511719 C 38.011719 72.511719 37.855469 72.472656 37.742188 72.683594 C 37.664062 72.816406 37.644531 72.972656 37.589844 73.105469 C 38.105469 73.296875 38.644531 73.375 39.183594 73.546875 C 39.410156 73.625 39.429688 73.855469 39.335938 74.007812 C 39.679688 74.085938 39.738281 74.546875 39.375 74.679688 C 39.277344 74.71875 39.164062 74.738281 39.066406 74.777344 C 38.683594 75.140625 38.066406 75.273438 37.589844 75.484375 C 37.089844 75.699219 36.589844 75.945312 36.089844 76.175781 C 36.128906 76.234375 36.148438 76.3125 36.089844 76.371094 C 35.976562 76.503906 35.859375 76.65625 35.746094 76.8125 C 35.417969 78.902344 34.132812 80.265625 32.558594 81.726562 C 32.441406 81.839844 32.25 81.648438 32.386719 81.554688 C 33.132812 80.84375 33.882812 80.09375 34.460938 79.25 C 34.824219 78.691406 35.035156 78.117188 35.207031 77.503906 C 34.515625 78.328125 33.710938 79.117188 32.730469 79.441406 C 31.847656 79.730469 30.828125 79.613281 29.90625 79.59375 C 28.796875 79.574219 27.679688 79.574219 26.585938 79.539062 C 26.433594 79.539062 26.433594 79.308594 26.585938 79.308594 C 28.390625 79.289062 30.445312 79.558594 32.210938 79.152344 C 33.59375 78.847656 34.304688 77.789062 35.1875 76.847656 C 35.148438 76.847656 35.09375 76.847656 35.054688 76.828125 C 34.917969 76.753906 34.804688 76.695312 34.667969 76.636719 C 33.921875 77.808594 32.328125 78.15625 31.023438 78.136719 C 30.867188 78.136719 30.867188 77.90625 31.023438 77.90625 C 32.328125 77.886719 33.519531 77.464844 34.34375 76.484375 C 34.074219 76.351562 33.824219 76.234375 33.554688 76.140625 C 33.5 76.15625 33.441406 76.15625 33.363281 76.140625 C 30.90625 75.582031 27.988281 75.410156 25.914062 77.097656 C 25.183594 77.695312 24.570312 78.441406 23.859375 79.078125 C 22.863281 79.980469 21.730469 80.785156 22.09375 82.089844 C 22.132812 82.035156 22.246094 81.996094 22.324219 82.070312 C 23.207031 82.761719 24.628906 82.761719 25.683594 82.859375 C 26.566406 82.9375 27.46875 82.992188 28.351562 82.992188 C 28.46875 82.992188 28.46875 83.183594 28.351562 83.183594 C 27.007812 83.203125 25.683594 83.203125 24.359375 83.050781 C 23.589844 82.957031 22.746094 82.9375 22.191406 82.378906 C 22.246094 82.53125 22.324219 82.667969 22.421875 82.820312 C 22.496094 82.957031 22.304688 83.109375 22.210938 82.992188 C 21.519531 82.207031 21.402344 81.167969 21.996094 80.285156 C 22.363281 79.730469 22.957031 79.363281 23.4375 78.941406 C 24.050781 78.40625 24.570312 77.769531 25.148438 77.195312 C 26.105469 76.214844 27.21875 75.640625 28.390625 75.351562 C 27.988281 75.273438 27.605469 75.160156 27.203125 74.949219 C 26.203125 74.449219 25.164062 73.777344 24.570312 72.796875 C 24.089844 72.011719 23.957031 71.128906 23.898438 70.226562 C 23.839844 70.1875 23.804688 70.167969 23.746094 70.128906 C 23.570312 70.015625 23.707031 69.765625 23.878906 69.820312 C 23.878906 69.648438 23.859375 69.496094 23.859375 69.324219 C 23.859375 69.132812 24.128906 69.148438 24.148438 69.324219 C 24.167969 69.554688 24.1875 69.804688 24.226562 70.035156 C 25.128906 70.589844 26.03125 71.148438 27.007812 71.550781 C 27.085938 71.589844 27.027344 71.722656 26.953125 71.703125 C 26.03125 71.339844 25.148438 70.957031 24.300781 70.476562 C 24.550781 71.839844 25.089844 73.007812 26.414062 73.835938 C 27.660156 74.621094 28.8125 74.8125 30.253906 74.832031 C 31.75 74.871094 33.730469 74.96875 34.9375 76.023438 C 34.957031 75.929688 35.015625 75.851562 35.09375 75.8125 C 35.324219 75.71875 35.589844 75.734375 35.765625 75.910156 C 36.242188 75.601562 36.742188 75.3125 37.242188 75.046875 C 36.359375 75.0625 35.476562 74.988281 34.746094 74.832031 C 34.59375 75.027344 34.285156 75.082031 34.09375 74.871094 C 34.035156 74.796875 33.996094 74.71875 33.980469 74.640625 C 33.960938 74.601562 33.960938 74.582031 33.960938 74.546875 C 33.941406 74.449219 33.980469 74.351562 34.035156 74.277344 C 32.921875 73.96875 31.714844 73.316406 30.734375 73.585938 C 30.597656 73.625 30.542969 73.414062 30.675781 73.375 C 32.308594 72.953125 33.824219 74.179688 35.378906 73.910156 C 35.167969 73.777344 34.996094 73.625 34.863281 73.488281 C 34.785156 73.414062 34.707031 73.335938 34.632812 73.257812 C 34.496094 73.355469 34.34375 73.375 34.191406 73.296875 C 33.960938 73.164062 33.902344 72.855469 34.035156 72.644531 C 34.054688 72.625 34.074219 72.605469 34.09375 72.585938 C 33.324219 71.550781 32.636719 70.417969 31.253906 70.128906 C 31.136719 70.109375 31.175781 69.9375 31.308594 69.957031 C 32.230469 70.109375 32.902344 70.570312 33.519531 71.261719 C 33.671875 71.433594 34.035156 71.972656 34.460938 72.492188 C 34.476562 72.492188 34.476562 72.492188 34.496094 72.492188 C 34.613281 72.511719 34.726562 72.605469 34.765625 72.703125 C 34.804688 72.683594 34.863281 72.683594 34.898438 72.703125 C 35.054688 72.757812 35.1875 72.816406 35.339844 72.875 C 34.863281 72.183594 34.496094 71.378906 34.113281 70.6875 C 32.828125 68.34375 30.617188 66.828125 27.949219 66.558594 C 27.777344 66.539062 27.777344 66.289062 27.949219 66.289062 C 29.90625 66.441406 31.75 67.25 33.132812 68.671875 C 33.710938 69.265625 34.132812 69.9375 34.535156 70.609375 C 34.554688 70.570312 34.574219 70.53125 34.613281 70.511719 C 34.6875 70.417969 34.804688 70.398438 34.917969 70.4375 C 35.207031 70.359375 35.496094 70.589844 35.476562 70.917969 C 35.476562 71.050781 35.398438 71.183594 35.304688 71.261719 C 35.378906 71.261719 35.4375 71.28125 35.496094 71.359375 C 35.957031 72.011719 36.492188 72.585938 37.203125 72.953125 C 37.222656 72.953125 37.222656 72.972656 37.242188 72.972656 C 37.320312 72.683594 37.550781 72.375 37.78125 72.242188 C 37.800781 72.242188 37.800781 72.222656 37.820312 72.222656 C 37.359375 71.453125 37.011719 70.550781 36.761719 69.589844 C 35.820312 68.535156 35.167969 67.230469 34.191406 66.175781 C 33.191406 65.097656 31.964844 64.214844 30.542969 63.832031 C 28.949219 63.390625 27.835938 63.910156 26.335938 64.292969 C 25.570312 64.484375 24.609375 64.464844 24.035156 65.136719 C 23.398438 65.886719 23.898438 67.269531 24.070312 68.074219 C 24.109375 68.304688 23.804688 68.382812 23.726562 68.171875 C 23.246094 66.941406 22.996094 65.214844 24.167969 64.273438 C 24.878906 63.71875 25.875 63.8125 26.703125 63.523438 C 27.488281 63.253906 28.199219 63.007812 29.042969 63.007812 C 32.039062 62.988281 34.882812 65.328125 36.4375 67.960938 C 36.242188 66.75 36.1875 65.523438 36.207031 64.445312 C 36.242188 62.507812 36.914062 60.242188 38.738281 59.28125 C 37.320312 57.9375 36.4375 56.09375 36.761719 54.058594 C 36.667969 53.964844 36.707031 53.769531 36.878906 53.75 L 36.898438 53.75 C 36.914062 53.75 36.953125 53.75 36.972656 53.75 C 37.78125 53.75 38.546875 53.925781 39.277344 54.308594 C 39.394531 54.367188 39.296875 54.519531 39.183594 54.460938 C 38.507812 54.175781 37.800781 54.039062 37.070312 54.058594 C 36.878906 57.304688 39.546875 60.355469 42.867188 60.53125 C 44.421875 60.605469 45.921875 59.761719 47.378906 59.359375 C 48.628906 59.011719 49.972656 58.742188 51.257812 58.78125 C 51.355469 58.78125 51.410156 58.820312 51.46875 58.878906 C 51.46875 58.589844 51.546875 58.300781 51.679688 58.054688 C 51.566406 58.015625 51.449219 57.957031 51.375 57.859375 C 51.257812 57.726562 51.183594 57.574219 51.164062 57.398438 C 50.222656 57.609375 49.414062 58.167969 48.457031 58.285156 C 47.726562 58.378906 47.035156 58.226562 46.382812 57.898438 C 46.265625 57.839844 46.34375 57.648438 46.460938 57.6875 C 47.726562 58.167969 48.6875 57.957031 49.894531 57.417969 C 50.335938 57.226562 50.738281 57.054688 51.183594 57.035156 C 51.183594 56.996094 51.203125 56.976562 51.203125 56.9375 C 51.21875 56.902344 51.238281 56.863281 51.257812 56.824219 C 49.070312 55.941406 47.015625 56.671875 44.75 56.554688 C 43.328125 56.476562 41.640625 56.246094 40.640625 55.132812 C 40.546875 55.039062 40.699219 54.886719 40.796875 54.980469 C 42.386719 56.613281 45.25 56.382812 47.324219 56.132812 C 48.550781 55.980469 49.875 55.804688 51.007812 56.324219 C 50.164062 55.574219 49.203125 54.578125 48.089844 54.921875 C 47.976562 54.960938 47.9375 54.789062 48.050781 54.75 C 49.339844 54.308594 50.664062 55.574219 51.585938 56.363281 C 51.644531 56.304688 51.71875 56.246094 51.777344 56.191406 C 51.644531 56.074219 51.527344 55.902344 51.429688 55.75 C 51.085938 55.230469 50.757812 54.691406 50.125 54.5 C 49.992188 54.460938 50.050781 54.289062 50.183594 54.308594 C 50.605469 54.367188 50.953125 54.617188 51.21875 54.941406 C 51.488281 55.269531 51.71875 55.804688 52.121094 55.996094 C 52.21875 55.960938 52.316406 55.941406 52.390625 55.921875 C 50.492188 53.328125 48.511719 50.527344 45.613281 49.046875 C 45.574219 49.046875 45.539062 49.027344 45.5 48.988281 C 45.09375 48.796875 44.691406 48.625 44.269531 48.472656 C 43.386719 48.183594 42.597656 48.070312 41.890625 48.183594 C 43.042969 48.585938 44.097656 49.164062 45.074219 49.894531 C 45.152344 49.949219 45.074219 50.066406 45 50.007812 C 43.847656 49.238281 42.597656 48.703125 41.273438 48.335938 C 41.042969 48.433594 40.8125 48.550781 40.601562 48.703125 C 41.101562 48.742188 41.621094 49.007812 42.023438 49.238281 C 42.121094 49.296875 42.042969 49.414062 41.945312 49.375 C 41.679688 49.238281 41.390625 49.125 41.101562 49.046875 C 40.851562 48.988281 40.582031 48.988281 40.332031 48.933594 C 40.007812 49.222656 39.71875 49.605469 39.46875 50.085938 C 38.972656 51.007812 38.585938 52.0625 37.722656 52.714844 C 37.609375 52.8125 37.511719 52.621094 37.589844 52.523438 C 38.605469 51.253906 39.027344 49.566406 40.140625 48.394531 C 41.234375 47.261719 42.847656 47.394531 44.25 47.800781 C 44.480469 47.859375 44.710938 47.933594 44.941406 48.03125 C 44.230469 46.6875 43.90625 45.34375 43.867188 43.730469 C 43.808594 41.597656 43.636719 39.429688 43.714844 37.296875 C 43.675781 37.164062 43.636719 37.007812 43.597656 36.855469 C 43.558594 36.664062 43.847656 36.566406 43.90625 36.777344 C 43.925781 36.816406 43.945312 36.875 43.945312 36.914062 C 43.964844 36.933594 43.980469 36.972656 44 37.007812 C 44 37.027344 44 37.046875 44 37.066406 C 44.828125 39.140625 47.746094 40.15625 48.339844 42.347656 C 48.417969 41.003906 48.707031 39.621094 49.628906 38.601562 C 50.933594 37.183594 52.621094 37.71875 54.175781 36.894531 C 54.3125 36.816406 54.445312 37.027344 54.3125 37.105469 C 53.003906 37.929688 51.335938 37.453125 50.183594 38.621094 C 48.898438 39.929688 48.761719 41.945312 48.859375 43.691406 C 49.050781 47.128906 50.625 49.679688 52.640625 52.351562 C 52.832031 52.621094 52.429688 52.867188 52.199219 52.675781 C 49.722656 50.527344 48.457031 46.761719 48.339844 43.519531 C 48.261719 43.554688 48.148438 43.554688 48.109375 43.460938 C 47.417969 41.886719 46.765625 40.695312 45.480469 39.523438 C 44.980469 39.0625 44.460938 38.601562 44.097656 38.066406 C 44.210938 39.621094 44.191406 41.214844 44.269531 42.769531 C 44.308594 43.84375 44.308594 44.9375 44.636719 45.976562 C 44.882812 46.820312 45.34375 47.589844 45.765625 48.375 C 46.804688 48.875 47.746094 49.527344 48.609375 50.296875 C 47.113281 47.742188 45.902344 44.996094 45.152344 42.230469 C 45.113281 42.097656 45.308594 42.039062 45.363281 42.175781 C 46.132812 44.652344 47.226562 46.957031 48.53125 49.183594 C 49.148438 50.21875 49.820312 51.238281 50.507812 52.234375 C 51.238281 53.078125 51.890625 53.980469 52.527344 54.886719 C 52.582031 54.886719 52.640625 54.886719 52.699219 54.921875 C 52.71875 54.921875 52.71875 54.941406 52.738281 54.960938 L 52.757812 54.960938 C 52.8125 54.980469 52.890625 55.019531 52.929688 55.078125 C 52.96875 55.097656 53.003906 55.117188 53.023438 55.152344 C 53.273438 55.480469 53.542969 55.804688 53.792969 56.113281 C 53.753906 55.902344 53.714844 55.691406 53.621094 55.460938 C 53.390625 54.941406 53.042969 54.480469 52.699219 54.058594 C 52.527344 54.117188 52.316406 54.058594 52.179688 53.90625 C 51.96875 53.675781 52.007812 53.292969 52.296875 53.136719 C 52.601562 52.964844 52.96875 53.214844 52.96875 53.539062 C 52.96875 53.578125 52.96875 53.597656 52.949219 53.636719 C 53.351562 54.019531 53.871094 54.578125 54.214844 55.171875 C 54.253906 54.921875 54.273438 54.671875 54.292969 54.421875 C 54.0625 52.3125 51.949219 51.0625 51.71875 48.933594 C 51.699219 48.796875 51.949219 48.757812 51.96875 48.894531 C 52.179688 50.429688 53.621094 51.621094 54.292969 53.042969 C 54.253906 52.332031 54.121094 51.640625 53.925781 50.988281 C 53.695312 50.96875 53.46875 50.796875 53.484375 50.527344 C 53.503906 50.160156 53.890625 49.894531 54.234375 49.988281 C 54.351562 50.027344 54.425781 50.105469 54.484375 50.199219 C 54.484375 50.160156 54.464844 50.140625 54.464844 50.105469 C 54.140625 48.914062 53.082031 48.105469 52.582031 47.011719 C 51.757812 45.207031 51.796875 43.191406 52.085938 41.273438 C 52.101562 41.117188 52.332031 41.195312 52.316406 41.328125 C 52.121094 42.75 52.046875 44.210938 52.390625 45.609375 C 52.679688 46.839844 53.3125 47.644531 54.0625 48.625 C 54.925781 49.777344 55.097656 51.199219 54.90625 52.601562 C 54.984375 53.195312 55.003906 53.789062 55.003906 54.421875 C 55.003906 54.480469 55.003906 54.519531 55.003906 54.578125 C 55.214844 54.230469 55.445312 53.886719 55.675781 53.558594 C 55.597656 53.558594 55.539062 53.484375 55.558594 53.40625 C 55.789062 52.695312 56.058594 52.023438 55.867188 51.253906 C 55.75 50.777344 55.464844 50.351562 55.289062 49.894531 C 55.023438 49.164062 54.964844 48.472656 55.15625 47.722656 C 55.195312 47.570312 55.40625 47.644531 55.386719 47.78125 C 55.097656 49.203125 55.945312 50.046875 56.230469 51.3125 C 56.328125 51.699219 56.308594 52.0625 56.210938 52.425781 C 56.269531 52.425781 56.308594 52.425781 56.367188 52.445312 C 56.636719 52.542969 56.730469 52.8125 56.691406 53.0625 C 56.671875 53.195312 56.539062 53.273438 56.421875 53.292969 C 56.019531 54.175781 55.578125 55 55.214844 55.882812 C 55.828125 55.171875 56.558594 54.539062 57.363281 54.136719 C 57.34375 54.097656 57.34375 54.058594 57.363281 54 C 58.246094 52.464844 59.554688 51.484375 60.953125 50.46875 C 61.050781 50.410156 61.148438 50.546875 61.070312 50.621094 C 60.476562 51.121094 59.859375 51.621094 59.265625 52.140625 C 58.824219 52.523438 58.476562 52.984375 58.152344 53.445312 C 58.171875 53.445312 58.210938 53.445312 58.226562 53.464844 C 58.382812 53.503906 58.496094 53.617188 58.554688 53.75 C 59.148438 53.40625 59.765625 53.078125 60.378906 52.714844 C 61.742188 51.910156 62.644531 50.007812 64.390625 50.007812 C 64.488281 50.007812 64.488281 50.160156 64.390625 50.160156 C 63.066406 50.199219 62.546875 51.273438 61.722656 52.0625 C 61.261719 52.503906 60.722656 52.867188 60.167969 53.195312 C 59.609375 53.523438 59.074219 53.847656 58.535156 54.195312 C 58.476562 54.269531 58.402344 54.328125 58.304688 54.347656 L 58.285156 54.347656 C 57.480469 54.886719 56.710938 55.441406 55.964844 56.113281 C 55.945312 56.132812 55.925781 56.171875 55.90625 56.191406 C 56.058594 56.09375 56.230469 55.996094 56.367188 55.921875 C 56.75 55.710938 57.113281 55.539062 57.519531 55.421875 C 57.441406 55.421875 57.34375 55.402344 57.269531 55.402344 C 57.09375 55.382812 57.074219 55.117188 57.269531 55.117188 C 58.917969 55.152344 60.015625 54.367188 61.453125 53.808594 C 62.050781 53.578125 62.546875 53.578125 63.105469 53.90625 C 63.203125 53.964844 63.105469 54.097656 63.027344 54.039062 C 61.894531 53.425781 60.707031 54.597656 59.707031 55 C 59.398438 55.117188 59.113281 55.230469 58.804688 55.308594 C 58.824219 55.34375 58.84375 55.382812 58.84375 55.421875 C 58.917969 55.789062 58.554688 56.015625 58.246094 55.84375 C 58.171875 55.804688 58.132812 55.730469 58.113281 55.652344 C 57.863281 55.769531 57.59375 55.902344 57.34375 56.035156 C 57.519531 56.09375 57.691406 56.171875 57.824219 56.265625 C 57.84375 56.171875 57.902344 56.074219 58.035156 56.054688 C 60.476562 55.652344 63.125 55.730469 65.332031 56.671875 C 65.660156 55.996094 66.195312 55.5 66.773438 54.980469 C 67.925781 53.980469 68.519531 53.253906 68.441406 51.640625 C 68.402344 50.71875 68.402344 49.875 69 49.125 C 69.324219 48.703125 69.765625 48.394531 70.152344 48.050781 C 69.402344 48.144531 68.710938 48.316406 68.019531 48.664062 C 67.925781 48.722656 67.828125 48.566406 67.925781 48.511719 C 68.691406 48.070312 69.59375 47.761719 70.476562 47.742188 C 70.785156 47.433594 71.035156 47.089844 71.148438 46.628906 C 71.207031 46.4375 71.476562 46.511719 71.4375 46.707031 C 71.304688 47.609375 70.652344 48.085938 69.996094 48.683594 C 69.421875 49.222656 68.980469 49.71875 68.921875 50.566406 C 68.867188 51.273438 69.113281 51.964844 69.039062 52.675781 C 68.847656 54.652344 66.734375 55.34375 65.851562 56.917969 C 65.871094 56.9375 65.890625 56.9375 65.90625 56.9375 C 65.945312 56.882812 66.023438 56.84375 66.101562 56.84375 C 68.421875 56.84375 69.785156 55.097656 70.84375 53.253906 C 71.9375 51.332031 72.4375 49.105469 71.589844 46.992188 C 71.535156 46.839844 71.765625 46.742188 71.839844 46.878906 C 73.070312 49.222656 72.457031 51.753906 71.148438 53.945312 C 70.152344 55.59375 68.710938 57.34375 66.695312 57.4375 C 66.925781 57.589844 67.136719 57.765625 67.347656 57.957031 C 69.34375 56.746094 71.496094 55.769531 73.722656 55.058594 C 74.203125 54.671875 74.625 54.289062 74.894531 53.734375 C 75.164062 53.175781 75.21875 52.5625 75.605469 52.0625 C 75.699219 51.929688 75.890625 52.042969 75.816406 52.175781 C 75.488281 52.847656 75.410156 53.597656 75.027344 54.230469 C 74.914062 54.421875 74.777344 54.617188 74.625 54.789062 C 76.949219 54.136719 79.367188 53.75 81.785156 53.675781 C 81.921875 53.675781 81.902344 53.867188 81.785156 53.867188 C 80 54.019531 78.273438 54.289062 76.5625 54.710938 C 77.660156 55.058594 78.792969 55.710938 79.40625 56.652344 C 79.40625 56.671875 79.425781 56.671875 79.425781 56.691406 C 79.636719 56.652344 79.828125 56.632812 80 56.652344 C 80.828125 56.765625 81.746094 57.628906 82.054688 58.378906 C 82.113281 58.53125 81.882812 58.648438 81.785156 58.53125 C 81.382812 58.035156 80.902344 57.398438 80.328125 57.113281 C 80.117188 56.996094 79.867188 56.976562 79.636719 57.015625 L 79.65625 57.035156 C 80.191406 57.628906 80.25 58.648438 80.210938 59.414062 C 80.210938 59.550781 80 59.550781 80 59.414062 C 80 58.992188 79.945312 58.589844 79.808594 58.207031 C 79.695312 57.859375 79.5 57.535156 79.40625 57.1875 C 79.386719 57.132812 79.40625 57.09375 79.445312 57.054688 C 79.386719 57.074219 79.308594 57.09375 79.253906 57.113281 C 79.273438 57.363281 79.078125 57.609375 79.042969 57.839844 C 78.984375 58.148438 79.003906 58.4375 79.042969 58.742188 C 79.058594 58.839844 78.90625 58.878906 78.847656 58.800781 C 78.675781 58.492188 78.636719 58.148438 78.695312 57.804688 C 78.714844 57.648438 78.753906 57.457031 78.828125 57.285156 C 78.386719 57.496094 77.984375 57.804688 77.695312 58.054688 C 77.679688 58.070312 77.640625 58.070312 77.621094 58.089844 C 77.640625 58.109375 77.640625 58.109375 77.660156 58.128906 C 78.503906 59.089844 78.945312 60.105469 78.734375 61.355469 C 78.945312 61.257812 79.214844 61.203125 79.425781 61.238281 C 79.578125 61.257812 79.714844 61.335938 79.828125 61.433594 C 79.980469 61.566406 80.15625 61.894531 80.421875 61.835938 C 80.480469 61.644531 80.597656 61.875 80.441406 61.929688 Z M 82.09375 60.550781 C 82.035156 60.085938 81.960938 59.609375 81.863281 59.148438 C 81.84375 59.03125 81.632812 59.050781 81.632812 59.183594 C 81.671875 59.722656 81.730469 60.261719 81.765625 60.796875 C 81.804688 61.144531 81.765625 61.527344 81.363281 61.644531 C 81.25 61.679688 81.152344 61.679688 81.058594 61.71875 C 81.132812 61.394531 81.09375 61.046875 81.058594 60.722656 C 81.019531 60.414062 80.980469 60.105469 80.847656 59.820312 C 80.808594 59.722656 80.671875 59.78125 80.671875 59.859375 C 80.636719 60.183594 80.710938 60.511719 80.710938 60.855469 C 80.730469 61.164062 80.691406 61.453125 80.75 61.757812 C 80.769531 61.835938 80.828125 61.855469 80.882812 61.875 C 80.882812 61.929688 80.902344 61.96875 80.960938 61.988281 C 81.382812 62.140625 81.941406 61.875 82.09375 61.453125 C 82.210938 61.164062 82.132812 60.835938 82.09375 60.550781 Z M 52.796875 30.652344 C 52.046875 30.519531 51.507812 30.195312 50.953125 29.730469 C 51.375 31.058594 51.566406 32.460938 52.332031 33.648438 C 53.179688 34.972656 54.484375 35.628906 55.964844 35.972656 C 55.964844 35.589844 56.019531 35.222656 56.15625 34.878906 C 54.523438 34.226562 53.199219 32.996094 52.238281 31.539062 C 52.140625 31.382812 52.371094 31.25 52.46875 31.402344 C 53.484375 32.785156 54.8125 33.726562 56.328125 34.476562 C 56.480469 34.1875 56.671875 33.917969 56.882812 33.6875 C 56.882812 33.667969 56.882812 33.648438 56.882812 33.628906 C 56.902344 33.476562 56.902344 33.34375 56.921875 33.1875 C 56.847656 33.167969 56.789062 33.113281 56.75 33.015625 C 56.117188 31.097656 54.484375 30.941406 52.796875 30.652344 Z M 56.210938 36.085938 C 56.230469 36.105469 56.230469 36.105469 56.25 36.125 C 57.152344 36.011719 57.996094 36.203125 58.882812 36.933594 C 59.804688 37.699219 60.589844 38.660156 60.992188 39.773438 C 62.355469 39.714844 62.914062 38.910156 63.949219 38.238281 C 64.546875 37.835938 65.253906 37.644531 65.964844 37.605469 C 65.925781 37.414062 65.945312 37.203125 65.984375 37.066406 C 65.140625 37.488281 64.101562 37.660156 63.203125 37.71875 C 63.085938 37.71875 63.066406 37.546875 63.183594 37.527344 C 63.738281 37.414062 64.296875 37.277344 64.832031 37.105469 C 65.253906 36.972656 65.640625 36.757812 66.042969 36.605469 C 66.042969 36.546875 66.042969 36.492188 66.042969 36.433594 C 66.042969 36.433594 66.042969 36.433594 66.042969 36.414062 C 66.023438 36.472656 66.003906 36.511719 65.925781 36.511719 C 65.0625 36.664062 64.332031 36.433594 63.507812 36.144531 C 62.105469 35.664062 60.898438 35.53125 59.457031 35.972656 C 59.324219 36.011719 59.265625 35.800781 59.398438 35.761719 C 60.28125 35.453125 61.164062 35.320312 62.105469 35.453125 C 63.429688 35.628906 64.546875 36.28125 65.90625 36.203125 C 65.964844 36.203125 66.023438 36.242188 66.042969 36.28125 C 66.042969 36.261719 66.042969 36.261719 66.042969 36.242188 C 66.003906 35.953125 65.964844 35.664062 65.984375 35.378906 C 64.5625 35.550781 63.164062 34.285156 62.011719 33.609375 C 59.359375 32.074219 56.789062 33.09375 56.210938 36.085938 Z M 66.140625 34.226562 C 64.371094 33.398438 62.835938 32.035156 61.433594 30.636719 C 61.800781 31.019531 62.164062 31.421875 62.527344 31.804688 C 63.585938 32.898438 64.621094 34.015625 66.140625 34.226562 Z M 62.433594 30.921875 C 62.125 30.710938 61.835938 30.480469 61.53125 30.269531 C 63.007812 31.574219 64.488281 32.84375 66.214844 33.878906 C 65.351562 32.671875 63.507812 31.710938 62.433594 30.921875 Z M 67.289062 34.1875 C 67.289062 34.226562 67.289062 34.285156 67.289062 34.320312 C 67.289062 34.511719 67.117188 34.609375 66.945312 34.609375 C 66.925781 34.667969 66.867188 34.722656 66.792969 34.722656 C 66.714844 34.742188 66.65625 34.742188 66.578125 34.742188 C 66.578125 34.761719 66.578125 34.78125 66.5625 34.820312 C 66.332031 35.222656 66.351562 35.550781 66.425781 35.933594 C 66.523438 35.914062 66.617188 35.914062 66.714844 35.933594 C 66.925781 35.972656 67.117188 36.011719 67.289062 36.050781 C 67.15625 35.894531 67.097656 35.703125 67.117188 35.472656 C 67.136719 35.300781 67.214844 35.148438 67.308594 34.992188 C 67.289062 34.898438 67.347656 34.820312 67.425781 34.78125 L 67.425781 34.761719 C 67.597656 34.4375 67.597656 34.109375 67.597656 33.785156 C 67.558594 33.820312 67.519531 33.878906 67.464844 33.9375 C 67.445312 34.015625 67.367188 34.109375 67.289062 34.1875 Z M 69.289062 23.683594 C 69.269531 23.433594 69.269531 23.183594 69.25 22.9375 L 69.230469 22.917969 C 68.710938 22.320312 68.421875 21.570312 67.886719 20.976562 C 67.273438 20.304688 66.597656 19.996094 65.792969 19.613281 C 65.640625 19.539062 65.753906 19.324219 65.90625 19.363281 C 66.753906 19.539062 67.519531 19.996094 68.117188 20.59375 C 68.5 20.976562 68.921875 21.476562 69.230469 22.015625 C 69.230469 21.707031 69.210938 21.398438 69.210938 21.09375 C 67.425781 19.480469 65.984375 17.558594 63.394531 17.867188 C 64.890625 18.636719 64.601562 21.074219 66.386719 21.589844 C 66.484375 21.609375 66.523438 21.6875 66.542969 21.765625 C 67.558594 21.398438 68.617188 22.589844 69.289062 23.683594 Z M 69 17.464844 C 69.019531 17.464844 69.019531 17.464844 69.039062 17.464844 C 69.019531 17.445312 69 17.425781 68.980469 17.40625 C 68.636719 16.792969 68.171875 16.503906 67.636719 16.082031 C 67.136719 15.699219 66.695312 15.273438 66.273438 14.796875 C 66.15625 14.679688 66.332031 14.488281 66.445312 14.621094 C 67.042969 15.199219 67.695312 15.714844 68.421875 16.15625 C 68.519531 16.214844 68.617188 16.273438 68.710938 16.351562 C 67.40625 14.679688 65.621094 12.511719 63.546875 12.355469 C 64.351562 12.757812 64.757812 13.660156 65.179688 14.46875 C 66.042969 16.15625 66.90625 17.523438 69 17.464844 Z M 68.441406 10.898438 C 68.460938 10.898438 68.460938 10.898438 68.441406 10.898438 C 68.039062 10.550781 67.675781 10.148438 67.253906 9.820312 C 66.714844 9.417969 66.121094 9.09375 65.523438 8.785156 C 65.332031 8.691406 65.46875 8.363281 65.679688 8.441406 C 66.351562 8.707031 66.984375 9.074219 67.578125 9.515625 C 67.886719 9.746094 68.230469 9.996094 68.519531 10.265625 C 68.519531 10.246094 68.519531 10.226562 68.5 10.207031 C 67.425781 8.324219 65.484375 7.269531 63.410156 6.921875 C 63.835938 7.25 64.085938 7.730469 64.410156 8.304688 C 65.234375 9.839844 66.464844 11.414062 68.441406 10.898438 Z M 67.289062 6.078125 C 67.289062 6.058594 67.289062 6.058594 67.289062 6.039062 C 66.617188 5.195312 66.175781 4.140625 66.003906 3.0625 C 65.984375 2.890625 66.234375 2.8125 66.273438 2.988281 C 66.445312 3.964844 66.792969 4.8125 67.328125 5.617188 C 67.386719 4.464844 67.097656 3.371094 66.578125 2.316406 C 66.3125 1.777344 66.003906 1.277344 65.753906 0.742188 C 65.695312 1.625 65.621094 2.507812 65.695312 3.390625 C 65.792969 4.621094 66.503906 5.308594 67.289062 6.078125 Z M 69.363281 10.265625 C 69.539062 9.917969 69.710938 9.554688 69.902344 9.226562 C 70.210938 8.707031 70.652344 8.191406 70.746094 7.574219 C 70.765625 7.441406 70.976562 7.480469 70.976562 7.613281 C 70.9375 8.132812 70.652344 8.535156 70.402344 8.976562 C 70.035156 9.609375 69.730469 10.265625 69.460938 10.9375 C 69.421875 11.011719 69.363281 11.050781 69.324219 11.050781 C 69.324219 11.050781 69.324219 11.050781 69.324219 11.070312 C 69.324219 11.164062 69.269531 11.222656 69.210938 11.242188 C 69.230469 11.300781 69.230469 11.339844 69.25 11.394531 C 70.304688 10.609375 71.226562 9.820312 71.820312 8.613281 C 72.476562 7.289062 72.511719 5.847656 72.648438 4.425781 C 71.820312 5.15625 70.917969 5.675781 70.304688 6.652344 C 69.59375 7.769531 69.460938 9.015625 69.363281 10.265625 Z M 69.84375 17.097656 C 69.84375 17.175781 69.84375 17.253906 69.863281 17.328125 C 70.074219 17.042969 70.34375 16.773438 70.535156 16.542969 C 71.167969 15.792969 71.878906 15.179688 72.667969 14.601562 C 72.761719 14.527344 72.878906 14.679688 72.78125 14.757812 C 72.207031 15.273438 71.648438 15.832031 71.132812 16.40625 C 70.632812 16.964844 70.285156 17.578125 69.882812 18.175781 C 69.882812 18.308594 69.882812 18.441406 69.902344 18.578125 C 71.398438 17.636719 72.707031 16.714844 73.300781 14.949219 C 73.628906 13.988281 73.683594 12.953125 74.414062 12.316406 C 73.203125 12.566406 72.359375 13.699219 71.554688 14.601562 C 70.882812 15.410156 70.324219 16.214844 69.84375 17.097656 Z M 69.421875 32.746094 C 69.996094 31.710938 70.84375 30.828125 71.496094 29.828125 C 72.089844 28.90625 72.6875 27.984375 73.300781 27.0625 C 71.667969 28.773438 69.921875 30.386719 69.421875 32.746094 Z M 72.511719 29.558594 C 73.070312 28.445312 73.511719 27.292969 74.125 26.199219 C 73.359375 27.46875 72.550781 28.734375 71.746094 29.980469 C 71.015625 31.117188 70.015625 32.171875 69.441406 33.378906 C 69.402344 33.457031 69.34375 33.476562 69.289062 33.457031 C 69.25 33.554688 69.171875 33.609375 69.074219 33.628906 C 69.152344 33.648438 69.210938 33.707031 69.171875 33.804688 C 69 34.609375 69.980469 35.128906 69.710938 35.953125 C 69.5 36.664062 68.710938 37.027344 68.441406 37.699219 C 68.578125 37.738281 68.730469 37.777344 68.867188 37.777344 C 69.171875 37.777344 69.402344 37.585938 69.691406 37.566406 L 69.710938 37.566406 C 69.710938 37.546875 69.710938 37.527344 69.691406 37.507812 C 69.671875 37.433594 69.746094 37.355469 69.804688 37.316406 C 69.785156 37.277344 69.746094 37.238281 69.730469 37.203125 C 69.671875 37.105469 69.804688 37.007812 69.882812 37.085938 C 70.976562 38.335938 72.148438 38.96875 73.683594 39.542969 C 74.644531 39.890625 75.046875 40.445312 75.679688 41.058594 C 74.492188 38.777344 72.492188 37.699219 70.015625 36.933594 C 69.824219 36.875 69.84375 36.546875 70.074219 36.566406 C 70.09375 36.566406 70.113281 36.566406 70.113281 36.566406 C 70.132812 36.492188 70.191406 36.414062 70.304688 36.375 C 70.402344 36.335938 70.476562 36.316406 70.574219 36.300781 C 70.574219 36.125 70.535156 35.992188 70.460938 35.875 C 70.34375 35.859375 70.246094 35.839844 70.132812 35.800781 C 70.015625 35.761719 70.015625 35.570312 70.171875 35.570312 C 70.191406 35.570312 70.210938 35.570312 70.246094 35.570312 C 70.210938 35.53125 70.191406 35.472656 70.171875 35.433594 C 70.035156 35.414062 69.980469 35.242188 70.074219 35.148438 C 69.996094 34.78125 70.074219 34.417969 69.804688 34.109375 C 69.671875 34.089844 69.574219 33.996094 69.574219 33.878906 C 69.441406 33.804688 69.363281 33.589844 69.480469 33.457031 C 70.6875 32.226562 71.765625 31.097656 72.511719 29.558594 Z M 76.066406 41.75 C 76.046875 41.695312 76.007812 41.617188 75.96875 41.558594 C 75.96875 41.558594 75.949219 41.558594 75.949219 41.539062 C 75.890625 41.503906 75.855469 41.464844 75.816406 41.425781 C 75.910156 41.539062 75.988281 41.636719 76.066406 41.75 Z M 73.644531 40.175781 C 74.242188 40.425781 74.988281 40.753906 75.546875 41.195312 C 75.21875 40.847656 74.972656 40.445312 74.566406 40.175781 C 73.914062 39.753906 73.089844 39.640625 72.378906 39.3125 C 71.515625 38.929688 70.746094 38.371094 70.152344 37.660156 C 70.515625 38.507812 70.765625 39.199219 71.785156 39.601562 C 72.378906 39.832031 73.03125 39.929688 73.644531 40.175781 Z M 70.917969 41.65625 C 70.476562 40.484375 70.035156 39.3125 69.652344 38.125 C 69.441406 38.257812 69.152344 38.316406 68.921875 38.316406 C 68.921875 38.316406 68.921875 38.316406 68.902344 38.316406 C 69.09375 38.8125 69.074219 39.390625 69.074219 39.929688 C 69.074219 40.945312 69.074219 41.964844 69.058594 42.960938 C 69.058594 43.097656 68.847656 43.097656 68.847656 42.960938 C 68.789062 41.386719 68.921875 39.773438 68.558594 38.257812 C 68.367188 38.199219 68.171875 38.125 67.980469 38.046875 C 68.171875 38.949219 68.058594 39.929688 67.945312 40.828125 C 67.925781 40.945312 67.75 40.945312 67.75 40.828125 C 67.847656 39.871094 67.730469 38.929688 67.675781 37.988281 C 67.5 37.96875 67.308594 38.007812 67.117188 38.125 L 67.117188 38.140625 C 66.792969 39.253906 66.523438 40.542969 65.871094 41.523438 C 65.429688 42.175781 64.832031 42.617188 64.640625 43.421875 C 64.507812 44.035156 64.546875 44.671875 64.621094 45.304688 C 65.449219 44.976562 66.351562 44.707031 67.234375 44.632812 C 67.289062 44.074219 67.308594 43.539062 67.328125 42.980469 C 67.328125 42.867188 67.5 42.847656 67.519531 42.960938 C 67.617188 43.5 67.617188 44.074219 67.558594 44.613281 C 68.828125 44.554688 70.035156 44.84375 70.976562 45.726562 C 72.015625 44.441406 71.417969 43 70.917969 41.65625 Z M 67.675781 35.320312 C 67.578125 35.570312 67.578125 35.820312 67.867188 35.953125 L 67.886719 35.972656 C 68.386719 35.800781 68.828125 35.800781 69.191406 36.203125 C 69.480469 35.761719 69.363281 35.394531 69.191406 35.011719 C 69.152344 35.011719 69.132812 35.011719 69.09375 34.992188 C 68.789062 34.839844 68.519531 34.878906 68.269531 35.089844 C 68.15625 35.164062 68.058594 35.261719 67.925781 35.320312 C 67.847656 35.339844 67.75 35.339844 67.675781 35.320312 Z M 68.25 33.496094 C 68.191406 33.554688 68.097656 33.589844 68.019531 33.554688 C 68.136719 33.859375 68.117188 34.207031 68.039062 34.53125 C 68.019531 34.628906 67.964844 34.722656 67.925781 34.820312 C 68.117188 34.761719 68.386719 34.628906 68.5 34.609375 C 68.691406 34.570312 68.867188 34.609375 69.039062 34.667969 C 68.921875 34.398438 68.828125 34.109375 68.882812 33.804688 C 68.847656 33.804688 68.808594 33.785156 68.769531 33.765625 C 68.597656 33.589844 68.421875 33.515625 68.25 33.496094 Z M 66.273438 38.8125 C 66.292969 38.738281 66.371094 38.71875 66.425781 38.71875 C 66.523438 38.46875 66.617188 38.199219 66.734375 37.949219 C 66.773438 37.875 66.847656 37.835938 66.925781 37.855469 C 67.15625 37.546875 67.539062 37.507812 67.925781 37.566406 C 67.945312 37.566406 67.945312 37.566406 67.964844 37.566406 C 68.210938 37.027344 68.671875 36.816406 69.039062 36.414062 C 68.5 35.894531 68.15625 36.375 67.636719 36.511719 C 67.273438 36.585938 66.925781 36.375 66.5625 36.414062 C 66.5625 36.433594 66.5625 36.453125 66.5625 36.472656 C 66.597656 36.53125 66.597656 36.625 66.542969 36.664062 C 66.484375 36.972656 66.292969 37.316406 66.40625 37.566406 C 66.425781 37.566406 66.445312 37.585938 66.445312 37.585938 C 66.464844 37.585938 66.484375 37.566406 66.503906 37.566406 C 66.773438 37.507812 66.886719 37.910156 66.617188 37.988281 C 66.464844 38.027344 66.332031 38.066406 66.195312 38.105469 C 65.121094 38.910156 64.527344 40.253906 63.796875 41.367188 C 63.238281 42.230469 62.664062 43.132812 62.03125 43.941406 C 61.972656 44.09375 61.894531 44.246094 61.820312 44.382812 C 63.585938 42.75 65.523438 41.292969 66.273438 38.8125 Z M 62.566406 42.597656 C 63.105469 41.847656 63.660156 41.078125 64.160156 40.3125 C 64.601562 39.640625 65.003906 38.988281 65.542969 38.429688 C 64.085938 39.234375 63.21875 40.828125 62.625 42.402344 C 62.625 42.480469 62.585938 42.539062 62.566406 42.597656 Z M 56.269531 36.375 L 56.25 36.375 C 56.25 36.394531 56.230469 36.394531 56.230469 36.414062 C 56.230469 36.394531 56.25 36.394531 56.269531 36.375 Z M 53.695312 25.507812 C 53.21875 24.566406 53.003906 23.433594 52.890625 22.4375 C 52.871094 22.300781 53.082031 22.285156 53.121094 22.398438 C 53.332031 23.28125 53.5625 24.261719 53.964844 25.066406 C 54.40625 25.949219 55.078125 26.335938 55.867188 26.777344 C 55.945312 24.894531 55.675781 23.203125 54.292969 21.804688 C 53.621094 21.113281 52.8125 20.652344 52.277344 19.902344 C 52.429688 21.285156 52.527344 22.742188 52.890625 24.050781 C 53.042969 24.683594 53.332031 25.144531 53.695312 25.507812 Z M 71.9375 22.589844 C 71.804688 22.898438 71.667969 23.242188 71.515625 23.570312 C 72.570312 22.6875 73.414062 21.726562 73.894531 20.402344 C 73.933594 20.265625 74.144531 20.324219 74.105469 20.460938 C 73.703125 21.726562 72.972656 22.957031 71.917969 23.78125 C 72.933594 23.320312 73.855469 22.707031 74.625 21.820312 C 75.429688 20.882812 75.796875 19.632812 76.640625 18.75 C 75.394531 18.652344 74.546875 18.980469 73.703125 19.996094 C 72.992188 20.804688 72.378906 21.628906 71.9375 22.589844 Z M 71.378906 23.875 C 71.359375 23.933594 71.324219 23.992188 71.304688 24.03125 C 71.359375 24.011719 71.417969 23.992188 71.457031 23.972656 C 71.4375 23.953125 71.398438 23.914062 71.378906 23.875 Z M 50.492188 29.367188 C 50.453125 29.195312 50.664062 29.117188 50.757812 29.234375 C 50.777344 29.234375 50.816406 29.234375 50.835938 29.253906 C 52.179688 30.210938 53.660156 29.964844 55.117188 30.539062 C 55.847656 30.828125 56.480469 31.308594 56.867188 31.941406 C 56.769531 30.402344 56.386719 28.867188 56.097656 27.390625 C 56.039062 27.449219 55.945312 27.484375 55.847656 27.46875 C 52.046875 26.71875 52.179688 22.476562 51.96875 19.460938 C 51.929688 19.402344 51.910156 19.324219 51.875 19.25 C 51.796875 19.058594 52.101562 18.941406 52.199219 19.117188 C 52.871094 20.613281 54.753906 21.246094 55.597656 22.707031 C 56.308594 23.933594 56.691406 25.546875 56.289062 26.929688 C 56.269531 26.988281 56.230469 27.027344 56.191406 27.0625 C 56.191406 27.082031 56.191406 27.101562 56.191406 27.121094 C 56.191406 27.140625 56.191406 27.160156 56.191406 27.179688 C 56.230469 27.179688 56.25 27.199219 56.269531 27.253906 C 56.636719 28.464844 56.882812 29.730469 57.113281 30.980469 C 57.25 31.691406 57.460938 32.476562 57.382812 33.207031 C 57.996094 32.746094 58.726562 32.460938 59.496094 32.402344 C 60.609375 32.324219 61.609375 32.785156 62.546875 33.324219 C 63.085938 33.628906 63.605469 33.976562 64.140625 34.265625 C 64.757812 34.589844 65.410156 34.707031 66.023438 34.957031 C 66.0625 34.898438 66.082031 34.839844 66.121094 34.78125 C 64.96875 34.722656 64.027344 34.070312 63.203125 33.226562 C 61.664062 31.691406 60.148438 30.039062 58.785156 28.351562 C 58.6875 28.234375 58.84375 28.082031 58.9375 28.195312 L 58.957031 28.214844 C 58.996094 28.195312 59.035156 28.195312 59.09375 28.214844 C 60.820312 29.195312 62.433594 30.402344 64.007812 31.574219 C 64.8125 32.191406 65.832031 32.765625 66.445312 33.589844 C 65.582031 31.058594 62.585938 29.425781 61.664062 26.871094 C 61.339844 25.96875 61.320312 24.855469 61.855469 24.011719 C 62.546875 22.9375 63.796875 23.050781 64.8125 22.511719 C 64.949219 22.4375 65.082031 22.648438 64.949219 22.722656 C 64.8125 22.820312 64.679688 22.878906 64.527344 22.957031 C 65.601562 24.085938 66.273438 25.527344 66.503906 27.082031 C 66.523438 27.253906 66.253906 27.332031 66.234375 27.160156 C 66.023438 25.625 65.351562 24.300781 64.277344 23.203125 C 64.238281 23.164062 64.21875 23.128906 64.21875 23.089844 C 63.988281 23.164062 63.738281 23.222656 63.46875 23.300781 C 62.472656 23.589844 61.78125 24.316406 61.722656 25.394531 C 61.644531 27.007812 62.835938 28.214844 63.816406 29.308594 C 64.871094 30.480469 66.714844 31.960938 67.136719 33.628906 C 67.15625 33.609375 67.175781 33.589844 67.195312 33.570312 C 67.367188 33.398438 67.539062 33.246094 67.769531 33.1875 C 67.789062 33.1875 67.808594 33.1875 67.847656 33.167969 C 67.714844 32.171875 67.617188 31.171875 67.484375 30.175781 C 67.464844 30.039062 67.714844 30 67.730469 30.136719 C 67.886719 31.132812 68.058594 32.132812 68.210938 33.148438 C 68.308594 33.167969 68.402344 33.1875 68.480469 33.207031 C 68.597656 31.324219 69.519531 29.539062 69.574219 27.601562 C 69.613281 26.160156 68.441406 20.554688 65.90625 22.476562 C 65.792969 22.550781 65.695312 22.398438 65.773438 22.300781 C 65.851562 22.207031 65.925781 22.128906 66.023438 22.050781 C 64.121094 21.648438 64.429688 18.75 62.738281 17.980469 C 62.703125 17.964844 62.683594 17.945312 62.683594 17.925781 C 62.566406 17.847656 62.566406 17.636719 62.722656 17.597656 C 65.449219 16.945312 67.40625 18.367188 69.113281 20.210938 C 69.09375 19.363281 69.09375 18.539062 69.074219 17.695312 C 69.058594 17.730469 69.039062 17.75 69.019531 17.769531 C 68.058594 18.347656 66.90625 17.828125 66.15625 17.117188 C 64.851562 15.871094 64.71875 13.007812 62.855469 12.453125 C 62.722656 12.414062 62.722656 12.28125 62.796875 12.203125 C 62.796875 12.203125 62.796875 12.183594 62.816406 12.183594 C 63.910156 11.433594 65.390625 12.585938 66.253906 13.238281 C 67.308594 14.046875 68.230469 15.007812 69.058594 16.023438 C 69 14.390625 68.867188 12.777344 68.617188 11.183594 C 68.597656 11.203125 68.578125 11.222656 68.558594 11.242188 C 67.597656 11.722656 66.523438 11.492188 65.679688 10.859375 C 64.316406 9.820312 64.027344 7.402344 62.414062 6.808594 L 62.394531 6.808594 C 62.085938 6.789062 62.085938 6.308594 62.394531 6.328125 C 64.832031 6.519531 66.984375 7.671875 68.328125 9.6875 C 68.078125 8.574219 67.730469 7.460938 67.289062 6.367188 C 66.578125 5.847656 65.871094 5.214844 65.5625 4.386719 C 65.082031 3.140625 65.410156 1.507812 65.449219 0.203125 C 65.449219 0.164062 65.46875 0.125 65.484375 0.105469 C 65.46875 -0.0078125 65.621094 -0.046875 65.660156 0.0664062 C 65.714844 0.0859375 65.753906 0.125 65.753906 0.203125 C 65.753906 0.222656 65.753906 0.261719 65.753906 0.28125 C 66.121094 1.21875 66.8125 2.027344 67.214844 2.96875 C 67.636719 3.984375 67.789062 4.964844 67.65625 6.058594 C 67.65625 6.117188 67.617188 6.136719 67.597656 6.175781 C 68.136719 7.382812 68.558594 8.632812 68.867188 9.898438 C 68.960938 8.824219 69.289062 7.769531 69.804688 6.828125 C 70.515625 5.523438 71.609375 4.984375 72.667969 4.023438 C 72.722656 3.910156 72.933594 3.929688 72.953125 4.082031 C 73.203125 7.097656 72.300781 10.589844 69.324219 11.953125 C 69.554688 13.335938 69.710938 14.738281 69.804688 16.15625 C 70.363281 15.292969 71.074219 14.527344 71.785156 13.777344 C 72.609375 12.933594 73.609375 11.742188 74.894531 12.03125 C 74.914062 12.03125 74.933594 12.011719 74.953125 12.011719 C 75.066406 11.953125 75.183594 12.066406 75.183594 12.164062 C 75.203125 12.242188 75.183594 12.316406 75.085938 12.316406 C 75.066406 12.316406 75.066406 12.316406 75.046875 12.316406 C 73.953125 12.953125 74.066406 14.238281 73.722656 15.292969 C 73.53125 15.890625 73.242188 16.445312 72.878906 16.964844 C 72.1875 17.90625 71.148438 18.828125 69.996094 19.097656 C 69.980469 19.097656 69.960938 19.097656 69.941406 19.097656 C 69.996094 21.054688 69.996094 23.011719 70.054688 24.953125 C 72.035156 22.4375 72.933594 17.675781 76.96875 18.519531 C 77.121094 18.558594 77.082031 18.808594 76.929688 18.789062 C 76.296875 19.441406 76.085938 20.324219 75.625 21.09375 C 75.296875 21.648438 74.894531 22.148438 74.453125 22.609375 C 73.511719 23.570312 72.320312 24.335938 71.035156 24.683594 C 71.015625 24.683594 70.996094 24.683594 70.976562 24.683594 C 70.746094 25.046875 70.460938 25.355469 70.074219 25.566406 C 70.074219 25.605469 70.074219 25.644531 70.074219 25.679688 C 70.304688 26.757812 70.304688 27.890625 70.171875 28.984375 C 70.132812 29.347656 70.074219 29.75 69.996094 30.15625 C 71.265625 28.3125 73.222656 26.851562 74.664062 25.183594 C 74.757812 25.066406 74.933594 25.238281 74.835938 25.355469 C 74.796875 25.414062 74.757812 25.453125 74.703125 25.507812 C 74.703125 25.527344 74.703125 25.546875 74.703125 25.585938 C 73.492188 27.871094 72.859375 30.617188 71.167969 32.59375 C 71.785156 32.074219 72.398438 31.554688 73.089844 31.132812 C 74.242188 30.421875 75.738281 30.328125 77.0625 30.421875 C 79.445312 30.597656 80.367188 33.09375 79.558594 35.148438 C 79.519531 35.261719 79.347656 35.203125 79.386719 35.089844 C 79.867188 33.707031 79.464844 31.554688 77.890625 31.078125 C 76.929688 30.769531 75.296875 30.941406 74.375 31.210938 C 72.761719 31.691406 71.839844 33.378906 70.324219 33.9375 C 70.496094 34.1875 70.554688 34.492188 70.613281 34.839844 C 70.613281 34.859375 70.613281 34.859375 70.632812 34.878906 C 71.535156 34.457031 72.1875 33.648438 73.089844 33.1875 C 73.875 32.785156 74.703125 32.632812 75.585938 32.652344 C 75.699219 32.652344 75.699219 32.804688 75.585938 32.824219 C 74.28125 32.882812 73.148438 33.34375 72.167969 34.207031 C 71.6875 34.628906 71.304688 34.972656 70.765625 35.183594 C 70.824219 35.28125 70.898438 35.359375 70.976562 35.453125 C 72.359375 35.183594 73.609375 34.128906 75.066406 34.550781 C 75.183594 34.589844 75.125 34.742188 75.027344 34.722656 C 73.609375 34.378906 72.476562 35.644531 71.167969 35.839844 C 71.207031 35.953125 71.207031 36.085938 71.207031 36.222656 C 72.167969 36.242188 73.089844 36.742188 74.050781 36.894531 C 75.757812 37.183594 77.945312 37.027344 79.058594 35.550781 C 79.15625 35.414062 79.386719 35.53125 79.289062 35.683594 C 78.578125 36.835938 77.273438 37.257812 76.007812 37.453125 C 75.316406 37.546875 74.625 37.585938 73.933594 37.488281 C 73.164062 37.375 72.476562 37.066406 71.746094 36.914062 C 73.820312 37.738281 75.527344 39.714844 76.296875 41.695312 C 76.332031 41.808594 76.179688 41.847656 76.121094 41.769531 C 76.140625 41.847656 76.027344 41.90625 75.96875 41.847656 C 74.722656 40.484375 72.878906 40.503906 71.324219 39.773438 C 71.015625 39.640625 70.765625 39.429688 70.554688 39.199219 C 71.054688 40.484375 71.554688 41.808594 71.820312 43.117188 C 72.035156 44.113281 71.957031 45.113281 71.167969 45.820312 C 71.265625 45.917969 71.359375 46.035156 71.457031 46.148438 C 71.535156 46.246094 71.359375 46.359375 71.285156 46.285156 C 69.039062 43.652344 64.929688 45.378906 62.644531 47.128906 C 61.472656 48.03125 60.550781 49.105469 59.746094 50.316406 C 59.167969 51.179688 58.613281 52.101562 57.785156 52.734375 C 57.554688 52.90625 57.210938 52.5625 57.382812 52.332031 C 59.324219 49.71875 60.953125 47.011719 63.988281 45.535156 C 64.121094 45.476562 64.257812 45.398438 64.410156 45.34375 C 64.238281 44.285156 64.101562 43.230469 64.660156 42.308594 C 63.488281 43.539062 62.183594 44.785156 60.820312 45.785156 C 60.78125 45.820312 60.722656 45.804688 60.707031 45.765625 C 60.609375 45.746094 60.550781 45.628906 60.628906 45.535156 C 60.914062 45.226562 61.164062 44.882812 61.394531 44.515625 C 61.359375 44.476562 61.339844 44.421875 61.378906 44.363281 C 61.550781 44.09375 61.722656 43.84375 61.894531 43.574219 C 62.796875 41.65625 63.375 39.390625 65.042969 38.21875 C 64.796875 38.277344 64.5625 38.351562 64.332031 38.488281 C 63.949219 38.699219 63.625 38.988281 63.277344 39.234375 C 62.605469 39.734375 61.933594 40.023438 61.109375 40.003906 C 61.183594 40.234375 61.242188 40.484375 61.261719 40.714844 C 61.511719 42.539062 61.011719 44.515625 60.300781 46.1875 C 59.570312 47.914062 58.054688 49.375 57.710938 51.253906 C 57.652344 51.542969 57.152344 51.484375 57.191406 51.179688 C 57.324219 49.96875 57.996094 49.066406 58.652344 48.070312 C 59.515625 46.742188 60.167969 45.304688 60.53125 43.75 C 60.972656 41.808594 60.992188 39.945312 59.6875 38.316406 C 59.226562 37.738281 58.652344 37.085938 58.035156 36.703125 C 57.480469 36.355469 56.921875 36.261719 56.386719 36.316406 C 56.421875 36.316406 56.460938 36.355469 56.480469 36.414062 C 56.921875 37.566406 56.921875 38.796875 56.902344 40.003906 C 56.902344 40.140625 56.710938 40.140625 56.710938 40.003906 C 56.671875 38.796875 56.617188 37.644531 56.230469 36.492188 C 56.210938 36.453125 56.230469 36.414062 56.230469 36.394531 C 56.191406 36.453125 56.136719 36.472656 56.058594 36.472656 C 55.964844 36.472656 55.886719 36.453125 55.789062 36.453125 C 55.714844 36.472656 55.617188 36.492188 55.539062 36.53125 C 55.714844 36.894531 55.695312 37.394531 55.675781 37.738281 C 55.65625 37.855469 55.5 37.855469 55.5 37.738281 C 55.5 37.46875 55.464844 37.203125 55.386719 36.953125 C 55.347656 36.835938 55.308594 36.742188 55.253906 36.625 C 55.117188 36.683594 54.964844 36.722656 54.828125 36.777344 C 54.65625 36.835938 54.597656 36.585938 54.753906 36.511719 C 54.886719 36.453125 55.042969 36.414062 55.175781 36.355469 L 55.175781 36.335938 C 52.101562 35.628906 51.007812 32.226562 50.492188 29.367188 Z M 33.074219 88.023438 C 32.578125 87.410156 32.269531 86.679688 32.386719 85.835938 C 32.421875 85.546875 32.5 85.238281 32.578125 84.953125 C 31.464844 86.71875 30.386719 88.503906 30.121094 90.671875 C 30.101562 90.808594 29.890625 90.828125 29.890625 90.671875 C 29.851562 89.175781 30.464844 87.792969 31.195312 86.507812 C 31.808594 85.394531 32.441406 84.261719 33.132812 83.148438 C 32.191406 84.144531 31.136719 85.066406 30.101562 85.855469 C 30.121094 85.894531 30.121094 85.949219 30.101562 85.988281 C 29.640625 86.871094 29.082031 87.5625 28.757812 88.542969 C 28.46875 89.40625 28.296875 90.328125 28.277344 91.230469 C 28.257812 92.476562 28.660156 93.707031 28.277344 94.878906 C 30.386719 92.917969 32.789062 91.097656 33.074219 88.023438 Z M 23.304688 90.019531 C 22.652344 90.636719 22.152344 91.363281 21.5 91.996094 C 20.636719 92.84375 19.636719 93.535156 18.636719 94.207031 C 18.542969 94.265625 18.425781 94.109375 18.503906 94.035156 C 19.617188 93.148438 20.730469 92.246094 21.652344 91.152344 C 22.113281 90.597656 22.515625 89.964844 23.074219 89.484375 C 21.152344 89.867188 19.695312 90.847656 18.425781 92.515625 C 17.429688 93.820312 16.257812 94.667969 14.835938 95.398438 C 16.796875 95.53125 18.65625 95.109375 20.308594 93.898438 C 21.785156 92.84375 22.496094 91.480469 23.304688 90.019531 Z M 23.589844 86.429688 C 23.074219 86.488281 22.535156 86.46875 21.996094 86.410156 C 20.402344 86.21875 18.8125 85.875 17.21875 85.605469 C 17.0625 85.585938 17.101562 85.316406 17.253906 85.335938 C 19.597656 85.585938 22.34375 86.296875 24.628906 85.527344 C 23.417969 85.507812 22.324219 85.105469 21.152344 84.625 C 19.003906 83.722656 17.140625 84.28125 15.375 85.546875 C 17.0625 85.988281 18.140625 87.582031 20.039062 87.601562 C 21.402344 87.621094 22.535156 87.101562 23.589844 86.429688 Z M 24.953125 85.527344 C 24.933594 85.527344 24.914062 85.527344 24.898438 85.527344 L 24.914062 85.546875 C 24.933594 85.546875 24.953125 85.527344 24.953125 85.527344 Z M 35.628906 89.847656 C 34.9375 89.539062 34.152344 89.097656 33.539062 88.503906 C 33.324219 91.5 30.121094 93.804688 28.027344 95.53125 C 27.890625 95.644531 27.699219 95.472656 27.796875 95.339844 C 27.777344 95.300781 27.757812 95.242188 27.796875 95.183594 C 28.582031 93.574219 27.738281 91.34375 27.988281 89.578125 C 28.121094 88.636719 28.429688 87.542969 28.988281 86.679688 C 27.527344 87.699219 25.933594 88.601562 24.300781 89.214844 C 24.300781 89.273438 24.261719 89.328125 24.1875 89.328125 C 24.167969 89.347656 24.148438 89.386719 24.109375 89.40625 C 24.089844 89.40625 24.089844 89.425781 24.089844 89.425781 C 23.339844 93.667969 18.101562 96.972656 13.992188 95.742188 C 13.722656 95.664062 13.835938 95.28125 14.105469 95.320312 C 14.125 95.320312 14.144531 95.320312 14.183594 95.320312 C 14.203125 95.300781 14.222656 95.261719 14.261719 95.242188 C 15.355469 94.667969 16.46875 94.109375 17.371094 93.226562 C 18.140625 92.476562 18.675781 91.519531 19.5 90.808594 C 20.652344 89.828125 22.113281 89.195312 23.609375 89.097656 C 23.707031 89.042969 23.820312 88.984375 23.9375 88.945312 C 24.035156 88.90625 24.109375 88.945312 24.148438 88.984375 C 26.164062 87.964844 28.046875 86.910156 29.8125 85.488281 C 28.988281 85.816406 28.121094 85.988281 27.296875 85.835938 C 26.816406 85.757812 26.335938 85.625 25.875 85.433594 C 25.875 85.453125 25.855469 85.453125 25.855469 85.46875 C 24.339844 86.757812 22.515625 87.964844 20.480469 88.0625 C 19.539062 88.121094 18.65625 87.890625 17.871094 87.390625 C 16.929688 86.796875 16.085938 86.238281 15.085938 85.71875 C 15.007812 85.738281 14.933594 85.625 14.972656 85.546875 C 15.660156 84.203125 17.582031 83.609375 18.984375 83.511719 C 19.886719 83.453125 20.671875 83.703125 21.480469 84.070312 C 22.632812 84.566406 23.628906 84.855469 24.800781 84.933594 C 23.996094 84.492188 23.285156 83.914062 22.746094 83.242188 C 22.652344 83.128906 22.804688 82.972656 22.917969 83.070312 C 24.148438 84.183594 26.144531 85.277344 27.855469 85.277344 C 29.410156 85.277344 31.425781 84.164062 32.25 82.859375 C 32.808594 81.976562 33.152344 81.1875 33.996094 80.535156 C 35.359375 79.441406 35.628906 78.289062 36.167969 76.714844 C 36.242188 76.484375 36.609375 76.523438 36.609375 76.773438 C 36.550781 78.039062 36.167969 79.25 35.359375 80.191406 C 34.84375 81.535156 33.996094 82.707031 33.402344 84.03125 C 32.882812 85.203125 32.617188 86.316406 33.34375 87.371094 C 33.421875 87.390625 33.519531 87.449219 33.519531 87.5625 C 33.519531 87.582031 33.519531 87.601562 33.519531 87.621094 C 33.539062 87.640625 33.554688 87.679688 33.574219 87.699219 C 34.210938 88.390625 35.113281 88.867188 35.976562 89.234375 C 36.359375 89.425781 36.035156 90.019531 35.628906 89.847656 Z M 50.722656 59.972656 C 49.453125 60.644531 48.050781 60.894531 46.863281 61.757812 C 45.519531 62.71875 44.386719 64.15625 43.980469 65.769531 C 43.980469 65.808594 43.925781 65.789062 43.945312 65.75 C 44.308594 64.121094 45 62.796875 46.285156 61.699219 C 47.417969 60.722656 49.109375 59.683594 50.644531 59.609375 C 50.816406 59.589844 50.894531 59.878906 50.722656 59.972656 " fill-opacity="1" fill-rule="nonzero"/></g></svg>