<svg xmlns="http://www.w3.org/2000/svg" width="128" height="128" version="1.0" viewBox="0 0 96 96"><path fill="#c39d35" d="M8.6 10.8h-.7c-.2.2-.3.4-.2.6V12.2c-.4 0-.5-.4-.7-.6-.4-.4-1-.5-1.5-1 0 0-.2-.3-.1-.5 0-.2.3-.3.5-.4 1-.2 2 .1 2.6.7l.2.4Zm0 0"/><path fill="#c39d35" d="M8.7 14.3c.3-1.2.4-2.5-.3-3.6l-.6-.5a2 2 0 0 0-.9-.3L6 10s-.2 0-.2.2l-.1.3c0 .2-.4 0-.3-.1l.1-.6.8-.2c.5 0 1 0 1.5.2 1 .4 1.4 1.6 1.5 2.6 0 .7-.1 1.3-.3 2 0 .2-.4.1-.3-.1Zm0 0"/><path fill="#c39d35" d="M9 11.5c.1.2 0 .5-.1.8l-.5.6-.7.2-.9.2-.1-.3.2-.1.6-.1.6-.2.4-.5.2-.6c0-.3.4-.3.4 0Zm0 0"/><path fill="#c39d35" d="M6 9.7c-.7 0 1.2-.5 1.9-.5l.7.1c.2.1.5.3.6.6v.5c0 .5 0 .9-.2 1.3 0 0-.6-2.1-3-2Zm0 0"/><path fill="#c39d35" d="M10.4 14.3c.3-.7.3-1.4.4-2.2l-.1-2.5c-.1-.8-.5-1.6-1-2.1-1-.7-2.1-.4-3.1-.1L5 8c-.5.3-1 .8-1.2 1.3-.1.2-.5 0-.3-.2.2-.4.6-.9 1-1.2L6 7.2c1-.4 2.3-.8 3.4-.3.8.4 1.3 1.3 1.6 2.2.2.8.2 1.7.2 2.6 0 1-.1 1.9-.4 2.8 0 .2-.4 0-.4-.2Zm0 0"/><path fill="#c39d35" d="M10.4 14.4c.4-.3.6-.9.8-1.3l.3-.8c0-.3.2-.5.3-.7l.2-1.2-.3-1-.4-1.1-.2-1.2-.3-1.2-.5-1c-.1-.4-.4-.7-.7-.7-.4-.1-.7 0-1 .2-.3.2-.6.4-.9.4h-1c-.8-.1-1.4-.2-2.1 0a5 5 0 0 0-2 1.3c-.3.3-.5.7-.5 1 0 .5 0 1 .2 1.4 0 .2-.3.4-.4.1C1.7 8 1.6 7 2 6.3c.4-.7 1-1.2 1.7-1.5a4 4 0 0 1 2.2-.5c.7 0 1.5.3 2.2 0l1-.5c.3-.1.7 0 1 .2.7.4.9 1.3 1.1 2l.3 1.3c.1.5.1.9.3 1.3 0 .4.3.8.4 1.2.2.4.2.7.2 1.1l-.4 1.2-.4.9-.4 1-.4.7c-.2.2-.5 0-.4-.3Zm0 0"/><path fill="#c39d35" d="M9.3 7.3c-.5-.6-1.2-1-2-1.3H6.2c-.4 0-.8.2-1.2.4l-1.2.3c-.3 0-.7.2-1 .5-.2.2-.3.6-.3 1l.3 1 .8 1 .6 1.2c.1.3-.2.4-.3.2-.2-.5-.3-.9-.6-1.2l-.8-1a2 2 0 0 1-.4-1.2 1.8 1.8 0 0 1 1.2-1.8c.5-.1.9-.1 1.3-.3L6 5.7c.4-.2.8-.2 1.2-.1 1 .2 1.8.7 2.5 1.4v.3h-.3Zm0 0"/><path fill="#c39d35" d="M8.3 15c-.5 0-1-.2-1.5-.5l-1.3-.9c-.5-.3-1-.7-1.3-1.1l-1.4-1.3c-.2-.2 0-.5.2-.3l2.6 2.4 1.3.9c.5.2 1 .5 1.4.5.3 0 .2.3 0 .3ZM10.5 4.2a8 8 0 0 1 1.6 0l.8.1c.2.1.3.3.3.5s0 .4.2.6l.4.5c.3.3.5.7.6 1.2v3.3c-.1 1.2-.6 2.2-1.1 3.1-.7 1.1-1.3 2.2-2.2 3-.1.2-.4 0-.3-.2A15.4 15.4 0 0 0 14 11c.1-.5.1-1 0-1.6l.2-1.6c0-.4 0-1-.3-1.3l-.8-1c0-.2 0-.4-.2-.6 0-.3-.2-.3-.5-.3a8 8 0 0 0-1.8 0c-.2 0-.3-.4 0-.4Zm0 0"/><path fill="#c39d35" d="M12.9 14c-.7 0-1.3.3-2 .6l-.8.4H7.8l-1 .6-.9.7-1 .5c-.5.2-1 .4-1.3.7-.2 0-.3.2-.5.3l-.3.3-.2.1c0 .1 0 0 0 0 .2 0 0 .4-.2.2-.6-.3 1.2-1.4 1.4-1.5l1.2-.6a6 6 0 0 0 1.2-.7l1-.7c.3-.2.7-.3 1-.3h1.3a3 3 0 0 0 1-.2c.8-.4 1.5-.9 2.4-.9.2 0 .2.4 0 .4Zm0 0"/><path fill="#c39d35" d="M7.7 14.9c0 .1-.1.2-.3.1h-.2l-.2-.2h-.4l-.1-.1H3.8l-.5-.2-.3-.1-.7-.2h-.1c-.7-.3-1.5-.4-2.1 0l-.2.1V14a2 2 0 0 1 1.4-.3H2l.5.2H3l.3.2h.3v.1l.4.1h.2l.3.1h2.1a5.3 5.3 0 0 1 1.1.4h.1v.1Zm0 0"/><path fill="#c39d35" d="M4.2 14.6c-.6-.3-1-.7-1.5-1.2l-1.1-1.7c-.2-.2 0-.5.2-.3L2.9 13c.4.5.9 1 1.5 1.3.2 0 0 .4-.2.3Zm0 0"/><path fill="#c39d35" d="M4.9 14.7a2 2 0 0 1-1-.8c-.3-.4-.6-.8-.7-1.3L3 12l-.2-.8-.7-1.5L1.4 8c-.1-.2.2-.4.3-.2l1.3 3 .4 1.3c0 .5.3.9.5 1.3.3.4.6.8 1 1 .2 0 .2.5 0 .4ZM11 4.3v-.1A3.3 3.3 0 0 0 8.8 2h-.5l-.1-.1H8l-.6-.4a4 4 0 0 0-.6-.6C6.3.6 5.8.4 5.2.5l-.8.2-1 .3-.7.2-.2.1h-.1l-.2.2-.2.1c-.5.3-.8.7-1.1 1.1L0 4v-.7l.7-1 .3-.2V2c.4-.4.8-.8 1.3-1l2-.7.9-.2H6a4 4 0 0 1 1.5 1l.3.4h.5l.6.2h.2l.3.2c1 .4 1.7 1.2 2 2.2 0 .3-.4.4-.4.2ZM0 9.5v-.4c.2 0 .4.2.5.3a3.5 3.5 0 0 1 .5.8l.4.7v.1l.4.4v.3h-.2l-.7-1c-.3-.4-.4-.9-.9-1.2ZM3.5 20.5l-.2-.1c-.3-.7-1-1-1.7-1.1a5.8 5.8 0 0 1-1.6-.7v-.4h.2l.1.1.2.2h.2v.1l.4.1h.2l.3.2H2v.1c.7.2 1.3.5 1.6 1l.1.2c0 .2 0 .3-.2.3Zm0 0"/><path fill="#c39d35" d="M2 8.1h-.1l-.1.1h-.3V7.9l-.1-.1-.3-.3L.4 7 0 7v-.4l1.2.5.5.4.1.3c.1 0 .2.2.1.3ZM.9 2.4H.7L0 2.3v-.4A8 8 0 0 1 1 2c.2.1 0 .5-.1.4ZM9.2 2c.6-.3 1.1-.6 1.7-.7.7 0 1.3 0 1.9.3a10.6 10.6 0 0 1 2.7 1.6l1 1.2.3 1.4a7.1 7.1 0 0 1-.2 2.5l-.1.6-.7 1.7-.4.7-.3.6c-.2.2.1.5.3.3l.9-1.6.2-.5.5-1.5V8l.1-.4V5.2a4.5 4.5 0 0 0-1.7-2.6 13.6 13.6 0 0 0-3-1.5c-.6-.2-1.2-.2-1.7-.1-.6.1-1.1.4-1.6.6-.2.1 0 .5.1.4Zm0 0"/><path fill="#c39d35" d="M14.6 10.5c.4.3.7.8.9 1.3.1.5 0 1-.4 1.4l-1.3 1.2a90.6 90.6 0 0 1-2.8 2.4c-.1.2-.4 0-.3-.2l1.1-1.2.7-.4.6-.5 1.3-1.2c.4-.3.8-.6.8-1.2s-.5-1-.8-1.4v-.3h.2Zm0 0"/><path fill="#c39d35" d="M3.5 20.5c.2.1.3 0 .3-.2l.3-.2.3-.3.7-.6c.5-.3 1.1-.1 1.7-.2 1-.1 2-.6 2.9-1l1.5-.7.5-.2a3.9 3.9 0 0 1 1 0H14l.4-.2c.4-.2.7-.7.9-1l.1-.3.1-.6v-.5c0-.2 0-.3-.2-.5l-.1-.2-.2-.2h-.1l-.1-.1c-.3-.2-.4.2-.2.3.2 0 .3.2.4.4l.1.4v.8l-.1.2-.3.5-.1.1-.2.2c-.2.2-.4.3-.7.3H11.3l-.4.2-1 .5-.3.1-.5.2a2 2 0 0 1-.4.2h-.1l-.2.2H8v.1H7.7l-.1.1h-.2l-.1.1H7l-.2.1h-.7l-.7.1h-.3l-.5.4-.5.4-.6.6c-.2.2-.2.4-.1.5Zm0 0"/><path fill="#c39d35" d="M1.9 24v.1a7 7 0 0 0 1.7.6 18.4 18.4 0 0 0 1.7.3h2l1-.2h.1l.5.1h.9l.4-.1c1-.4 2-1.1 2.7-1.9l.3-.2.4-.5a6 6 0 0 0 1.1-2l.2-.6V19l-.1-.8-.1-.1V18l-.2-.3v-.1l-.1-.1h-.1l-.4-.4c-.3-.2-.6-.4-1-.4-.2 0-.3.3-.1.4.7 0 1.2.4 1.5 1v.1l.1.3V20l-.1.2v.2l-.2.3v.2l-.6.8-1.2 1.3-1.3 1c-.5.3-1 .6-1.6.6H7.5a11.6 11.6 0 0 1-2 0H5a9 9 0 0 1-2-.4s-.2 0-.3-.2l-.7-.2h-.2v.2h.2Zm0 0"/><path fill="#c39d35" d="M8 22a1 1 0 0 0-.5 0l-1 .7A5.9 5.9 0 0 1 2.8 24H1.5a7 7 0 0 1-.6-.1H.6l-.5-.2v-.4h.3l.2.1.7.1h.3l.9.1h1l1-.3c.7-.2 1.3-.6 1.9-1 .4-.3 1-.7 1.5-.7h.2c.2 0 .1.4-.1.3ZM14.5 17.8v-.1h.2v-.1l.3-.1h.2l.3-.1h.4l.4-.1h.1l.9-.3 1-.7.2-.2V16c.2-.1.3-.2.3-.4l.4-.5.6-.5.4-.6.4-1.4v-.7l-.2-.8-1-1.2-.1-.2-.8-.8-.2-.2-1-.9-.1-.1c-.2-.1-.4.1-.3.3h.1l.2.2.2.1.2.3.2.1.2.2.2.2.8.9.2.2.2.2c.3.3.6.7.8 1.2v1.3l-.2.6-.1.2-.3.6-.2.1-.3.3-.5.6-.1.2-.2.2-.3.3-.2.3a4.1 4.1 0 0 1-1.1.5h-.4l-1 .2h-.2l-.7.4h-.1c-.2.2 0 .5.2.4Zm0 0"/><path fill="#c39d35" d="M9.7 25h.2l.3.2c.1 0 .3 0 .4.2l.6.3.4.2 1 .3h.9c1.1 0 2.3-.3 3.2-.9.2 0 .3-.2.4-.3l1-.8c.4-.4.9-.8 1.2-1.3l.5-.6.1-.1.2-.4.2-.6V21l.1-.4v-1l-.4-.9-.2-.4-.1-.2-.1-.3-.5-.8-.2-.5-.3-.5c-.2-.1-.3 0-.3.2 0 .3.2.4.3.6l.3.5.3.6.1.3.2.3c.2.5.5 1 .5 1.5v.8l-.1.4v.2l-.2.2V21.9c-.2.1-.2.3-.3.4l-.5.5-.3.4-.2.2-1.2 1-.1.2H17l-.2.2-.8.5-.2.1h-.2l-.8.4h-2.5l-.5-.2h-.2l-.2-.2-.4-.2-.3-.2a5 5 0 0 0-1-.4l-.1.2.1.3Zm0 0"/><path fill="#c39d35" d="M10.2 25.2H10l-.6.4-.5.3-.1.1-.3.2-.7.6-.2.1-.2.2-1.1.6H6l-.4.2h-.3l-.2.1h-.9c-.3 0-.5-.2-.7-.3A10.3 10.3 0 0 1 1 26.6l-.8-.8-.1-.1v-.1H0v-.8.2l.2.1.5.8h.1l.2.2a17 17 0 0 0 3.4 1.6h1l.5-.2.6-.2.5-.4h.2l.2-.2.4-.3.6-.5.5-.4H9l.4-.3H9.7v-.2h.1c.3 0 .4.1.4.3ZM16.7 4.4c0 1-.6 1.7-1.2 2.3 0 0-.2 0-.2-.2.6-.5 1.2-1.2 1.2-2 0-.2.2-.2.2 0Zm0 0"/><path fill="#c39d35" d="M16.5 4.2c0 .3-.1.7-.3 1h-.1V5l.3-.8c0-.1.2 0 .1 0ZM13.6 1.9c-.8.5-1 1.5-1.1 2.4 0 .1-.2.1-.2 0 0-1 .4-2 1.1-2.6.1 0 .2 0 .2.2Zm0 0"/><path fill="#c39d35" d="m13.2 1.6-.4.8h-.2v-.1l.4-.8h.1s.1 0 0 .1ZM8.4 1.8a2 2 0 0 1-.3 2c0 .2-.2 0-.1 0 .4-.5.5-1.3.3-2 0 0 .1-.1.1 0ZM8.2 1.7v.5l-.1.2-.1-.1v-.7h.2ZM2.7 1.2c0 1 .2 1.9.6 2.7 0 0-.1.1-.2 0-.4-.8-.6-1.7-.6-2.7h.2Zm0 0"/><path fill="#c39d35" d="M2.4 1.2c0 .5 0 1.1.3 1.6 0 .2-.2.2-.2.1a4 4 0 0 1-.3-1.8h.2ZM10.8 19.5l1.8.1a19.6 19.6 0 0 0 1 .3l.7.5s.2-.1.1-.2a3 3 0 0 0-1.3-.7h-.3c-.7-.2-1.4-.3-2-.2-.2 0-.1.2 0 .2ZM13 20.5c.4 0 .8.2 1.1.3l.1.1c.1 0 .2-.1 0-.2l-1.2-.4s-.1.2 0 .2ZM10 4.1A2 2 0 0 1 9.8 6s-.2 0-.1-.1c.3-.4.5-1 .3-1.6 0-.1.2-.2.2 0Zm0 0"/><path fill="#c39d35" d="m10 4.3-.2.6h-.1v-.7h.2ZM3.2 23.8l.3-.3c.5-.5.9-1.1 1-1.9.1 0 0-.1-.1 0a4 4 0 0 1-1.2 2c-.2.1 0 .3 0 .2ZM2.8 23.7H3v-.1l.1-.2.5-.6c0-.1 0-.3-.1-.2l-.4.6-.2.3h-.1l-.2.1v.1h.3ZM10.4 8.2a2 2 0 0 1-.6 1.6l-.2-.1c.4-.4.6-.9.6-1.4 0-.2.2-.2.2 0Zm0 0"/><path fill="#c39d35" d="M10.2 8v.4H10V8.1c0-.1 0 0 0 0V8l.1-.1h.1ZM7.2 7.2l.2 1.2c0 .1-.2.1-.2 0L7 7.2s.2-.1.2 0ZM7 7.4V8h-.1l-.1-.5v-.1H7ZM2.7 25.6c.5.3 1 .6 1.6.7H5c.4 0 .8 0 1.2-.2l.3-.1.8-.3.6-.3 1.6-.4h.4v-.2H9.1l-.3.1-1.1.4c-.3 0-.6.2-.8.3l-.4.1c-.2.2-.5.2-.7.3l-1 .2h-.4l-.3-.1a4 4 0 0 1-1.4-.7c-.4-.3-.6-.8-.8-1.2V24l-.2-.1v.1a3 3 0 0 0 1 1.6Zm0 0"/><path fill="#c39d35" d="M3.7 26.9c.6.2 1.3 0 2 0l2-1 .8-.4h.2l.4-.1h.3l.3-.1V25h-.4a6 6 0 0 0-1.4.5l-.4.2-.3.1c-1.1.6-2.3 1.2-3.5.8-.6-.2-1-.6-1.4-1.2L1.7 24v-.1c-.1-.2-.3 0-.2 0l.4 1.2v.2H2v.2l.3.4c.3.5.8.8 1.4 1Zm0 0"/><path fill="#c39d35" d="m10 25-.3.2-.3.1-.2.1-.7.4c-1 .5-1.8 1.1-2.8 1.4l-1.2.2c-.5 0-1-.2-1.3-.4l-.5-.3-.6-.5-.6-.8-.1-.3-.3-.5-.6-.6-.5-.3v-.2a2.9 2.9 0 0 1 1.2 1 6.7 6.7 0 0 1 .4.7l.2.3 1 1c.4.3.8.6 1.3.7h1.3a8 8 0 0 0 2.2-1l.4-.3.6-.3.8-.5h.2l.1-.1h.2c.1 0 .1 0 0 0ZM10.7 14.4c.5-.4.9-.9 1.2-1.4.3-.6.5-1.3.6-2 0-.3.2-.7.1-1.1 0-.5-.2-.8-.3-1.2L12 6.3c-.2-.8-.7-1.5-1.5-1.9 0 0 0-.2.1-.1A3 3 0 0 1 12 5.8c.3.8.2 1.7.4 2.5l.4 1.3v1.3l-.7 2c-.3.6-.7 1.3-1.3 1.6-.1.1-.2 0-.1-.1Zm0 0"/><path fill="#c39d35" d="m10.8 14.4 1.3-1.7c.4-.6.8-1.1 1-1.9.1-.8 0-1.6-.2-2.3-.2-.3-.3-.7-.3-1l-.1-1.1c0-.7-.3-1.6-1-2 0 0 0-.2.1-.1.6.3.9.9 1 1.5.1.8 0 1.6.3 2.3l.4 1.2v1.2a4 4 0 0 1-.8 2l-.8 1-.7 1c-.1.1-.3 0-.2-.1Zm0 0"/><path fill="#c39d35" d="m10.8 14.4 1.5-1.5c.5-.5 1-1 1.3-1.7.3-.7.4-1.5.2-2.2l-.6-2.5-.3-1.1c-.2-.4-.3-.7-.7-.8-.1 0 0-.2 0-.2.7.2.9 1 1 1.5l.7 2.7.2 1.2c0 .4 0 .7-.2 1-.3.8-.7 1.4-1.2 2a13 13 0 0 1-1.8 1.7c-.1 0-.2 0-.1-.1Zm0 0"/><path fill="#c39d35" d="M10.5 14.5c.4-1.2.6-2.3.7-3.5V9.2l-.3-.9-.2-1.1c0-.8.1-1.8-.4-2.5 0 0 .1-.2.2 0 .4.6.4 1.3.4 2L11 8l.4 1v1.7a14 14 0 0 1-.7 3.9l-.2-.1Zm0 0"/><path fill="#c39d35" d="M11 11.8c0-1 .2-1.9 0-2.9l-.5-1.4c-.2-.4-.3-.9-.3-1.4V4.5h.3L10.3 6c0 .5.1 1 .4 1.5l.5 1.3V12h-.3ZM2.1 8.2c0-.7 0-1.3.5-1.7.5-.4 1-.6 1.6-.9.6-.2 1.2-.4 1.8-.4h1l.9.1c.7 0 1.3-.8 1.6-1.4 0 0 .2 0 .1.1a3 3 0 0 1-1 1.4c-.6.3-1.2 0-1.8 0-1.2-.2-2.5.3-3.6.9-.3.1-.6.4-.7.6-.2.4-.2.8-.2 1.2 0 .2-.2.2-.2 0Zm0 0"/><path fill="#c39d35" d="M1.8 7.7c.1-.6.4-1 .7-1.5l1.3-1.1c.5-.4 1.2-.3 1.7-.3l2-.1c.6-.1 1.3-.3 1.7-.8.1-.1.3 0 .2 0-.8 1-2 1-3.1 1h-1l-.9.1c-.3 0-.5.2-.8.4L3 6c-.5.4-.9 1-1 1.7 0 .1-.2.1-.2 0ZM11 17.2l.6-.5 1-.5a2.8 2.8 0 0 1 2 0c.2.1.2 0 .1-.1a3 3 0 0 0-1.7-.2H12.7l-.7.4-1 .7h-.1c-.1 0 0 .2 0 .2Zm0 0"/><path fill="#c39d35" d="M10.9 16.9v.1h.1l.2-.2h.2l1.4-.8h.2l.9-.4H15c.1.1.2 0 0-.1a2 2 0 0 0-.7-.1h-.4l-.8.2-.2.1a12.8 12.8 0 0 0-1.7.9h-.1l-.2.2Zm0 0"/><path fill="#c39d35" d="M11 17c.2 0 .2-.1.3-.2l.6-.5.3-.3.8-.5.9-.5 1.2-.2h.1c.1 0 .2-.1.1-.2H15a3 3 0 0 0-.7 0l-1.4.7c-.6.3-1.1.8-1.7 1.3l-.2.2-.2.1ZM11.7 15.6c1-1.2 2.1-2.3 3.4-3.1.1 0 .3 0 .2.1a13 13 0 0 0-3.4 3c0 .2-.2 0-.2 0Zm0 0"/><path fill="#c39d35" d="M12.1 15.1a9.5 9.5 0 0 1 3.1-3.2l.2.1a9.6 9.6 0 0 0-3 3.2H12Zm0 0"/><path fill="#c39d35" d="m12.7 14.3 1-2 .6-1c.2-.1.3-.5.6-.4.1 0 .1.2 0 .2h-.1c-.1 0-.1-.2 0-.2h.1v.2c-.2 0-.3.1-.3.2l-.3.4a21 21 0 0 0-1.5 2.7c0 .1-.2 0-.1-.1ZM7.2 15c-1 .2-1.9.6-2.7 1a8 8 0 0 0-3.3 2.9c0 .1-.2 0-.1 0C2 17 3.8 16 5.5 15.2l1.7-.5c.1 0 .1.1 0 .2Zm0 0"/><path fill="#c39d35" d="M7.1 15c-2-.3-4 .9-5.5 2.3-.4.5-.8 1-1 1.5l-.2-.1c.2-.5.5-1 .9-1.3l1.2-1.1a7 7 0 0 1 2.9-1.4c.5-.2 1.2-.2 1.8-.1v.1Zm0 0"/><path fill="#c39d35" d="m6.5 14.6-.1.1h-.5l-.9-.1h-.6l-.9.3h-.4l-1.5.7A5.4 5.4 0 0 0 0 17.1v-.3c.4-.5.8-1 1.4-1.3.4-.3 1-.5 1.5-.6l.7-.3H4l.3-.2h2v.1l.1.1Zm0 0"/><path fill="#c39d35" d="M6.5 14.6v.1H4a4 4 0 0 0-.5 0h-.4a5.5 5.5 0 0 0-3 1.3l-.2.2v-.3l1.2-.8c.7-.3 1.5-.5 2.3-.6h2.9l.1.1Zm0 0"/><path fill="#c39d35" d="M3.2 14.4h-.1c-1.2-.1-2.2.3-3 1V15c.7-.5 1.5-.8 2.3-.9h.9c.1 0 0 .2 0 .2ZM8.5 18.3l2.2-2.5 1-1.3v-.4c.1-.2.3-.3.4-.3.1 0 .2.1 0 .1l-.2.4-.2.6-.9 1a390.7 390.7 0 0 0-2.3 2.4Zm0 0"/><path fill="#c39d35" d="M9 18c.5-.7 1.4-1.2 2-2 .4-.3.6-.7.9-1.1.2-.4.3-1 .6-1.2.1 0 .2 0 .1.1l-.3.6-.3.6c-.3.4-.5.9-.9 1.3-.6.7-1.4 1.1-2 1.9-.1 0-.3 0-.2-.2Zm0 0"/><path fill="#c39d35" d="m8 18.3 1-.9c.4-.2.7-.6.9-1 .4-.8.6-1.6 1.2-2.2 0 0 .2 0 .1.1-.6.7-.8 1.5-1.2 2.3-.2.4-.4.7-.8 1l-1.2.9s-.2-.1 0-.2Zm0 0"/><path fill="#c39d35" d="M8.3 18c.6-1 1.2-2 1.5-3.1 0-.2.2-.1.2 0C9.7 16 9 17 8.5 18c0 .1-.2 0-.2 0Zm0 0"/><path fill="#c39d35" d="M8 18.4c.3-.5.6-1 .7-1.7v-1.9s.1-.1.1 0v2c0 .6-.3 1.1-.6 1.7 0 .1-.2 0-.1 0Zm0 0"/><path fill="#c39d35" d="M7.8 18.2c.4-.4.5-1 .5-1.6l-.2-.9-.4-.8c0-.2.1-.2.2-.1 0 .3.3.6.4 1l.2.8c0 .7-.2 1.2-.5 1.7 0 .2-.2 0-.2 0Zm0 0"/><path fill="#c39d35" d="M7.8 18.5v-1a2 2 0 0 0-.2-.8c-.2-.5-.6-.9-.7-1.4h.2c0 .2-.1.2-.2 0 0-.1.2-.1.2 0 .1.5.5 1 .8 1.4.2.6.2 1.2.1 1.8 0 .1-.2 0-.2 0Zm0 0"/><path fill="#c39d35" d="M7.8 18.5c0-.6-.4-1-.9-1.4l-.7-.5c-.2-.2-.4-.3-.4-.5s.2-.2.2 0l.2.2.4.2.7.6c.3.4.6.8.7 1.4 0 0-.2.1-.2 0Zm0 0"/><path fill="#c39d35" d="M7.9 18.5A5.1 5.1 0 0 0 5.7 17l-.9-.3c-.1 0 0-.2 0-.1l1 .2.8.4c.6.3 1 .7 1.4 1.2.1 0 0 .2-.1.1Zm0 0"/><path fill="#c39d35" d="M7.9 18.5c-.7-.4-1.5-.6-2.2-.7l-1.2-.2c-.3 0-.6 0-1-.2 0 0 0-.3.1-.2l1 .3a10.3 10.3 0 0 1 3.4.8s0 .3-.1.2Zm0 0"/><path fill="#c39d35" d="M7.6 18.5c-.8-.4-1.7-.3-2.5-.3H3.8l-.6-.1c-.1 0-.4 0-.5-.2v-.1H3c0 .1-.1.2-.2 0l.1.1v-.1h.3l.4.1.6.1h1.3c.8 0 1.6 0 2.3.3.1 0 0 .2 0 .2Zm0 0"/><path fill="#c39d35" d="M7.8 18.6c-.5-.2-1-.2-1.6-.1l-1.5.3c-.8.3-1.8 0-2.5-.5l.1-.2c.4.3.8.5 1.3.6l1.4-.1c.4-.2.9-.3 1.3-.3h1.5v.3Zm0 0"/><path fill="#c39d35" d="M7 18.6c-1-.1-1.8.3-2.7.5-.5.1-1 .2-1.5 0h-.6c-.2-.1-.5-.2-.6 0-.1 0-.3 0-.2-.1.3-.3.7-.2 1.1 0h1.7c1-.3 1.8-.7 2.8-.6.1 0 .1.2 0 .2ZM6.6 14.8c-1-.5-2.2-.2-3.2.4a7.9 7.9 0 0 0-3.1 3.3c0 .1-.2 0-.2 0v-.2h.2v.2H.1a8 8 0 0 1 2-2.5 6 6 0 0 1 2.7-1.6c.6 0 1.3 0 1.9.2 0 0 0 .3-.1.2ZM14.7 13.6h.5l1-.1.9.1 2.3.8.1-.1a16.4 16.4 0 0 0-3-1h-1.7v.1h-.1c-.2 0-.1.2 0 .2Zm0 0"/><path fill="#c39d35" d="M14.9 13.3H15.3l.4-.2h.3c.4-.2.9-.2 1.3-.1h.2l1 .1a10.8 10.8 0 0 1 1 .3l.2.1.2.1v.1c.2.1.4 0 .3-.2H20l-.2-.2a3.9 3.9 0 0 0-1-.4h-1l-.2-.1a6.4 6.4 0 0 0-1.7 0h-.4v.1h-.2l-.1.1-.2.1h-.1c-.1 0 0 .2 0 .2ZM14.7 13.5h.1l.1.1h.1l.2.1.4.1.6.3a7 7 0 0 1 2.1 1.6c.2.1.3 0 .2-.1v-.1a7.5 7.5 0 0 0-2.7-1.8l-.6-.2-.3-.1h-.2Zm0 0"/><path fill="#c39d35" d="M14.8 13.5v.1l.3.3h.1A3.8 3.8 0 0 1 16 15c.1.3.3.6.3 1v.9c0 .2.2.1.2 0v-1.1a4 4 0 0 0-.6-1.5l-.4-.4-.2-.2-.2-.2h-.2Zm0 0"/><path fill="#c39d35" d="M15 13.6c.3.7.5 1.3.5 2a4 4 0 0 1-.4 1.9l-.1-.1v-.1c0-.1.1-.2.2-.1v.3c-.1.1-.3 0-.2 0a4 4 0 0 0 .3-2c0-.6-.2-1.2-.4-1.8 0-.1.1-.2.1 0ZM14.9 13.2l1.7-2.2.6-1.2.5-1.4c0-.1.2 0 .2 0l-.5 1.5a7 7 0 0 1-.7 1.3c-.4.8-1 1.4-1.7 2.1 0 .1-.2 0-.1-.1ZM15.1 13.3a18 18 0 0 1 4.2-3c0-.1.1 0 0 .1-1.4.8-2.8 1.8-4 3-.1 0-.3 0-.2-.1Zm0 0"/><path fill="#c39d35" d="M15 13.3H15.3l.2-.1.4-.2.6-.3a8 8 0 0 1 1.2-.3c.6-.2 1.4-.3 2.1-.2h.5l.1.1c.1 0 .2-.1.1-.2h-.2c-.9-.3-1.8-.1-2.6 0a16 16 0 0 0-1.9.7l-.4.2-.2.1-.2.1Zm0 0"/><path fill="#c39d35" d="M15.2 13c1-1.5 2-3.1 2-5h.2c0 2-1 3.6-2 5.1-.1.1-.3 0-.2-.1ZM14.5 17.7H15.5l.7.4 1.1 1 .4.3.2.2.7.6 1 1 .1.2.2.2.1.1c.2 0 .2-.1.1-.2l-.1-.1-.1-.1v-.1l-.2-.1-.2-.2-.6-.6-.8-.8-.2-.2-.4-.4c-.5-.4-1-1-1.7-1.3h-.3l-.1-.1h-.8c-.2 0-.2.2 0 .2Zm0 0"/><path fill="#c39d35" d="M14.5 17.6h1.3c.7.2 1.3.6 1.9 1 .2 0 .4.2.6.4a20.8 20.8 0 0 1 1.7 1.4l.3.1c0 .1.2 0 .1-.1l-.3-.3-1.4-1-.2-.2a260182.4 260182.4 0 0 1-2.5-1.4H16l-.2-.1h-.1a1 1 0 0 0-.4 0h-.5v.1h-.2Zm0 0"/><path fill="#c39d35" d="M14.8 17.3H17.2c.9.2 1.7.4 2.4.9.1 0 0 .2 0 .1-.8-.5-1.6-.6-2.4-.8h-2.4s-.2 0 0-.2ZM18.7 23.5l-.1-.3v-.1l-.2-.5-.1-.4V22l-.2-.4-.7-1.5-.3-.3a16 16 0 0 0-1.9-1.8l-.2-.2H15v-.1h-.1v-.1h-.1v.2h.1l.1.1.2.2 1.9 1.8.1.2.5.8c.2.2.2.5.3.8l.1.4.1.2.1.4.2.5V23.5h.3Zm0 0"/><path fill="#c39d35" d="M17 24.9v-2.2l-.5-2.1-.1-.3-.2-.2c-.3-.7-.8-1.3-1.2-2l-.1-.2-.1-.2v-.1H14.4l.2.4.1.1v.1l.1.1.1.2.4.5.7 1.2.1.2.1.3.3 1 .2 1V24l.1.6V24.8c0 .2.2.2.2 0Zm0 0"/><path fill="#c39d35" d="M15.9 25.6V25l-.1-.5v-2l-.1-1.2v-.3a21.6 21.6 0 0 0-.7-2.4v-.3h-.1V18h-.1v.2c0 .2 0 .5.2.7l.1.5.2.5.2 1v.3l.1.6V25l.1.5v.2h.2Zm0 0"/><path fill="#c39d35" d="M14.8 26v-2.3l.4-2.2v-.3a11.4 11.4 0 0 0 0-2.2v-.4l-.2-.4-.1-.3-.1-.2c-.1-.1-.2 0-.2 0l.1.3v.1l.1.2.2.7v3.3l-.1.3-.2 1.2V26c-.2.2.1.2.1 0Zm0 0"/><path fill="#c39d35" d="M13.4 26v.1h.2v-.7l.2-.4.1-.6.2-.4.4-.8.4-.8v-.1l.1-.7.1-.4v-.5a8.4 8.4 0 0 0-.1-2.3v-.2l-.1-.1v-.2l-.1-.2v-.2l-.1-.1c0-.1-.2 0-.2 0v.2h.1v.1l.1.3.1.3a8.9 8.9 0 0 1 .2 1.3V21.4l-.1.3c0 .4-.2.7-.3 1l-.4.8-.3.6v.2l-.1.1-.2.7v.4l-.1.3h-.1v.3Zm0 0"/><path fill="#c39d35" d="M11.9 25.7v-.1l.4-.7.2-.3.4-.6 1.2-1.4a6.5 6.5 0 0 0 .6-1l.1-.5.2-.6V19l-.1-.9V18l-.1-.2v-.2h-.2v.4l.1.3.2 1.3v.6l-.5 1.5-.2.5-.5.6-1.1 1.4-.3.4-.2.3-.3.6v.1c-.2.2 0 .3 0 .1ZM4.7 14.4l-.5-1v-1l.2.1v1l.4.8s0 .2-.1.1Zm0 0"/><path fill="#c39d35" d="m4.5 14.6-.7-1.3c-.1-.4-.2-1 0-1.3 0-.1 0-.1 0 0H4c0 .1-.1.2-.2.1H4c-.2.4 0 .8.2 1.2.1.4.4.8.6 1.1 0 .2-.1.3-.2.2Zm0 0"/><path fill="#c39d35" d="M4.6 14.4 5 14l.3-.6c0-.1.2 0 .2 0l-.3.7-.5.5c0 .2-.2 0 0 0Zm0 0"/><path fill="#c39d35" d="m4.5 14.5.9-.3c.3 0 .6-.2.8-.4 0 0 .2 0 .1.1-.4.5-1.1.4-1.6.7-.2.1-.3 0-.2 0Zm0 0"/><path fill="#c39d35" d="M5 14.4h.5a8.2 8.2 0 0 1 1.4 0c.1.1.3.2.5.1.2 0 .2.1.1.2a1 1 0 0 1-.5 0l-.6-.1h-.7a2 2 0 0 0-.7 0s-.1-.2 0-.2Zm0 0"/><path fill="#c39d35" d="M7.3 14.7H7.9v.1h-.7v-.1ZM3.9 14.2H3.1V14c-.2 0-.3-.1-.3-.2h-.1l-.3-.2-1.6-1a11 11 0 0 0-.8-.5V12L2 13l.7.5.1.1.2.1.3.1.3.2h.2v.1Zm0 0"/><path fill="#c39d35" d="M4 14.2s-.1.1-.2 0h-.3l-.1-.1-.3-.2-.5-.3-1.2-1c-.4-.5-.9-.8-1.4-1v-.2a6.5 6.5 0 0 1 1.2.7l1.2 1 .4.3c.3.3.6.5 1 .6l.1.1v.1Zm0 0"/><path fill="#c39d35" d="M4 14.3h-.3l-.1-.2-.3-.1-.3-.3c-.9-.5-1.6-1.3-2.3-2l-.7-.6V11L2.4 13l.3.2 1 .7H4v.1H4v.2Zm0 0"/><path fill="#c39d35" d="M3.6 14v.1h-.4c-.4 0-.7-.2-1-.3l-.1-.1H2a23.7 23.7 0 0 0-2-.7v-.2l1.8.6.6.3h.2l.5.2h.4l.1.1Zm0 0"/><path fill="#c39d35" d="M3.1 14v.1c-.9-.2-1.8-.4-2.6-.4H0v-.2h1.4l.7.2.4.1h.3l.3.1v.1ZM4.2 14.2l-.3-.2a9.2 9.2 0 0 1-2-3C1.5 9.9 1.1 8.5 0 7.8v-.2l.7.5c.4.5.7 1.2 1 1.8l1 2.3.6.8.4.5.4.4.1.1v.2Zm0 0"/><path fill="#c39d35" d="M4.2 14H4c-.3 0-.5-.3-.6-.4l-.9-1c-.3-.2-.5-.6-.7-.9l-.1-.3-.3-.5-.3-.5-.1-.2C.7 9.8.4 9.3 0 9v-.3l.7.7c.6.6.9 1.4 1.3 2.2l.4.5a9.5 9.5 0 0 0 .6.7l.5.6.5.4.1-.1c.1 0 .2 0 .1.2Zm0 0"/><path fill="#c39d35" d="M3.8 13.5h-.1l-.5-.7a9 9 0 0 1-.6-1l-.7-2C1.6 9 1.4 8.3.9 8L0 7.4v-.2c.2 0 .3 0 .4.2.6.3 1 .8 1.3 1.4l1 2.4a8.1 8.1 0 0 0 1.2 2.2s0 .2-.1.1ZM4.8 27.6c0-.2-.3-.2-.4 0l-.1.2v.1A535.6 535.6 0 0 0 .7 95v1h.5v-9.7a455.2 455.2 0 0 1 2-42L4 37l-1 21.4-1 22.1v2l-.3 6.4-.1 2.7-.1 1.9V95l-.1.9h.6V93.6l.1-.9v-.4l.2-4.2.2-3.7v-2l.2-3.6.2-3.4.5-11.5.8-19 .1-1.1.1-3.2L5 28v-.3ZM31 42.5a.6.6 0 0 0-.7-.2c-.2 0-.4.2-.5.4l-.1.7h-.2c-.3-.1-.3-.5-.4-.8-.2-.5-.7-.9-1-1.4l.1-.6h.7a3 3 0 0 1 2 1.6c.1.1.2.3.1.4Zm0 0"/><path fill="#c39d35" d="M29.7 45.8c.7-1 1.3-2.2 1-3.4a2 2 0 0 0-.3-.8 2 2 0 0 0-.7-.5c-.3-.2-.5-.3-.8-.3h-.3l-.3.3c-.1.2-.4 0-.2-.3l.4-.4h.8c.4.2 1 .5 1.3.9.7.8.7 2 .4 3-.2.6-.6 1.1-1 1.7-.1.2-.5 0-.3-.2Zm0 0"/><path fill="#c39d35" d="M31.1 43.3c0 .3-.2.5-.4.7a1 1 0 0 1-.7.3 5 5 0 0 1-.8 0l-.8-.2v-.3s.1-.1.2 0l.6.1h.7c.2 0 .4 0 .5-.2l.4-.5c0-.2.4-.2.3.1Zm0 0"/><path fill="#c39d35" d="M28.9 40.5c-.6-.2 1.4 0 2 .2l.6.5c.1.2.3.4.3.7 0 .2 0 .4-.2.6-.1.4-.3.7-.6 1 0 0 .2-2.2-2.1-3Zm0 0"/><path fill="#c39d35" d="M31.3 46.5c.5-.6.8-1.2 1.2-1.9l.8-2.4c.2-.7.2-1.6-.2-2.3-.5-1-1.7-1.3-2.8-1.3h-1.7c-.6.1-1.1.3-1.6.7-.2.1-.5-.1-.2-.3.4-.3.9-.6 1.4-.7a6 6 0 0 1 1.7-.1c1 0 2.4.1 3.2 1 .6.7.8 1.8.6 2.6 0 1-.4 1.8-.7 2.6-.4.8-.8 1.7-1.4 2.4-.2.1-.5-.1-.3-.3Zm0 0"/><path fill="#c39d35" d="M31.2 46.6A80.4 80.4 0 0 0 33 45l.6-.5c.2-.3.5-.6.6-1v-1c0-.5 0-.8.2-1.2a13.2 13.2 0 0 0 .4-3.6c0-.4-.2-.8-.5-1-.3-.2-.6-.1-1 0l-1-.1a4 4 0 0 1-1-.4 5 5 0 0 0-1.9-.8c-.7 0-1.6 0-2.3.4-.3.1-.7.4-.8.8a3 3 0 0 0-.4 1.3c0 .2-.3.2-.3 0 0-.9.3-1.7 1-2.2.5-.5 1.3-.6 2-.7.8 0 1.6 0 2.3.4.6.4 1.2.9 2 .9l1-.1c.5 0 .8.3 1 .6.4.7.3 1.6.2 2.4 0 .4 0 .8-.2 1.3l-.2 1.2V43c0 .4-.2.8-.4 1.1a4 4 0 0 1-.7 1c-.3.1-.5.4-.7.6l-.8.7-.6.5c-.3.1-.5-.2-.3-.3Zm0 0"/><path fill="#c39d35" d="M32.9 39.6c-.3-.8-.7-1.5-1.4-2a3 3 0 0 0-1-.5l-1.3-.1-1.1-.2a2 2 0 0 0-1.1 0c-.3.2-.6.5-.7.8-.2.3-.2.7-.1 1 0 .5.2.9.3 1.3.1.5.2 1 .1 1.4 0 .3-.4.3-.4 0V40l-.4-1.3v-1.1a1.8 1.8 0 0 1 1.9-1.2l1.3.2h1.3l1.2.5c.8.5 1.4 1.4 1.7 2.3v.3l-.3-.1Zm0 0"/><path fill="#c39d35" d="M29 46.3c-.4-.2-.8-.6-1.1-1a13.4 13.4 0 0 1-1.7-3l-.8-1.7c0-.3.2-.4.3-.2l1.6 3.2.8 1.3c.3.4.6.8 1.1 1 .3.2 0 .5-.2.4ZM35.1 37.2c.6.1 1.1.3 1.6.6.2.1.5.2.6.4l.1.6v.6c0 .2 0 .4.2.6.1.5.2 1 0 1.4L37 43l-.6 1.6c-.5 1-1.4 1.7-2.2 2.4l-3.1 2c-.2 0-.4-.3-.2-.4a14.4 14.4 0 0 0 4.9-3.7l.6-1.4.7-1.5c.2-.4.3-.9.3-1.3-.1-.5-.4-.8-.4-1.2v-.7c.1-.2 0-.3-.3-.5-.5-.3-1-.5-1.7-.6-.2-.1 0-.5.1-.4Zm0 0"/><path fill="#c39d35" d="M33.7 47c-.6-.2-1.4 0-2 0h-1l-1-.4-1.1-.5-1.1.1-1.1.3a7 7 0 0 1-1.3 0c-.4 0-.9 0-1.3.2l-.6.1-.3.1h-.2v.1h-.1c.1.1-.2.3-.3 0-.4-.5 1.6-.8 1.9-.8h1.3L27 46l1.1-.3c.4 0 .8 0 1.2.2l1 .5 1.1.1c.8 0 1.7-.1 2.5.2.2 0 .1.5-.1.4Zm0 0"/><path fill="#c39d35" d="M28.3 46a3.5 3.5 0 0 0-1.8-1.2l-.6-.2c-.8-.4-1.4-1-2-1.5-.6-.4-1.3-.9-2-.7-.6 0-1 .2-1.6.3l-1 .2h-.6c-.2 0-.2-.3 0-.3h.6l.8-.2 1.6-.4c1.7-.3 2.8 1.5 4.1 2.1l.8.3.7.3c.5.2 1 .6 1.3 1 .1.2-.2.5-.3.3Zm0 0"/><path fill="#c39d35" d="M25.4 44.3c-.4-.5-.7-1.1-.9-1.7l-.4-2c0-.2.3-.4.3-.2.3.7.3 1.3.5 2 .1.6.4 1.2.8 1.7.2.1 0 .4-.3.2Zm0 0"/><path fill="#c39d35" d="M26 44.6a2 2 0 0 1-.6-1.1l-.2-1.4.2-.8V37c0-.2.3-.2.3 0l.1 3.1-.1 1.5V43c0 .5.1 1 .5 1.3.2.1 0 .5-.2.3ZM35.6 37.5a3.4 3.4 0 0 0-1.2-3l-.6-.4c-.3-.2-.4-.4-.5-.7l-.4-.7c-.3-.4-.7-.9-1.2-1l-1-.2H30c-.6-.1-1.1-.2-1.7 0-.5 0-1 .3-1.4.5l-1.6 1.1-.6.8-.3.3-.2.2v.2l-.1-.1H23.7c.1-.2.5 0 .3.2-.2.3-.5 0-.3-.3l.2-.3.3-.4 1.4-1.4 1.6-.9c.5-.2 1-.4 1.6-.4l2 .1 1 .2c.3 0 .5.2.8.4.4.4.8 1 1 1.6 0 0 0 .2.2.3 0 .2.3.2.4.3l.6.5c.8.8 1.3 2 1.2 3.1 0 .3-.4.2-.4 0ZM18.6 43.2l.1.5.4 1 .6 1.2.7.9.9.8c.5.4 1.2 1 1.2 1.7v.1c.2.1.4 0 .4-.1V49c-.2-.6-.6-1.1-1-1.5h-.1l-.4-.3-.2-.2-.1-.1-.3-.3-.2-.2-.1-.1-.1-.2-.3-.5-.1-.2-.1-.2-.3-.5-.1-.2-.2-.4v-.2c-.2-.3-.3-.6-.3-1v-.3l-.1-.8V40l.1-.6.2-.2v-.2l.5-.6v-.2l.3-.2a5.3 5.3 0 0 1 .7-.8c.2-.2.5-.3.9-.3.7 0 1.4.4 1.8 1 .4.4.4 1 .4 1.6 0 .4.2.8.3 1.1 0 .2.1.2.2.2s.2-.1.1-.2l-.1-.6v-.1L24 39l-.1-1-.3-.5a3.1 3.1 0 0 0-1.4-1h-1c-.7 0-1.2.7-1.7 1.2a9 9 0 0 0-.6 1l-.2.3-.4.8v.3l.2.7v2.4Zm0 0"/><path fill="#c39d35" d="M18 43c.2.7.6 1.2 1 1.6h.1c0 .1.1.1.2 0h.1v-.2l-.2-.2-.1-.1-.1-.1-.3-.3-.4-.9c-.3-.5-.5-1.2-.6-1.8l.2-1.6.5-1.8.5-1.2a2 2 0 0 1 .5-.7l1.2-.7h.2l.8-.2.6-.1c.4 0 1 .1 1.4.3a4.3 4.3 0 0 1 1.7 1.5l.1.3.1.2V37.4c0 .1 0 .2.2.2h.1v-.7l-.3-.6c-.4-.5-.9-1-1.4-1.3h-.2l-.1-.1h-.2l-.1-.1a4 4 0 0 0-1-.3 4 4 0 0 0-1.8.2l-1.2.6c-.2 0-.3.2-.4.3H19v.2c-.2 0-.2.1-.3.2l-.3.5-.2.5-.1.4v.2l-.2.4v.3l-.1.4-.1.4v.2h-.1v.2l-.1.2V40l-.1.2V41.3c0 .6.3 1.2.6 1.8Zm0 0"/><path fill="#c39d35" d="M18.7 36.3h.4l.1-.2.2-.5.1-1.2v-.1a5.4 5.4 0 0 1 2-3.2l.3-.2.5-.3h2.4l.2.1a7 7 0 0 1 2 1c.3.1.5-.2.2-.3-.7-.5-1.5-.9-2.3-1l-.3-.2h-.8c-.5-.1-1 0-1.6.1l-.3.1-.3.2a6.1 6.1 0 0 0-2.3 3.6v.6l-.1.5-.1.5-.2.1-.1.1v.3ZM34.8 34.6l1.8.1c.6.2 1.2.5 1.6 1 .4.4.8.8 1 1.3l1 1.3c.2.4.3 1 .3 1.4 0 .5 0 1-.2 1.5l-.6 1.5-.4.7a13.6 13.6 0 0 1-1.7 1.9l-.6.4c-.1.2-.3.3-.6.4-.2.2 0 .5.2.4l1.4-1 .5-.5 1-1.2.3-.4v-.1l.2-.3.2-.3c.3-.6.5-1.2.6-1.9.1-.5.2-1 0-1.5 0-.5-.2-1-.5-1.5a13.4 13.4 0 0 0-2.2-2.7c-.5-.4-1-.7-1.6-.8h-1.7c-.2 0-.2.3 0 .3Zm0 0"/><path fill="#c39d35" d="M36.6 44.6c.2.5.4 1 .3 1.5 0 .6-.4 1-.9 1.2l-1.6.6-.9.3-.8.2c-.6 0-1.2.3-1.8.6-.2.1-.4-.2-.2-.3l1.5-.6.8-.2.7-.2 1.6-.6c.5-.1 1-.3 1.2-.8.2-.5 0-1.1-.2-1.7l.1-.2c.1 0 .2 0 .2.2Zm0 0"/><path fill="#c39d35" d="M22.6 49.4v.1c.1.1.3 0 .3-.1h.1l.3-.1.4-.2.8-.2c.6-.1 1.1.3 1.6.4 1 .3 2.1.3 3.1.2h2.2l.7.3.3.1h.1l1 .5h.4c.4 0 .9-.4 1.2-.7.1 0 .2 0 .2-.2l.3-.4.2-.5v-.8l-.1-.2v-.1l-.2-.2c-.1-.2-.4 0-.3.2l.3.6V48.7l-.1.2-.3.3-.1.1a2 2 0 0 1-.5.4h-.1l-.3.2a1 1 0 0 1-.7 0l-.7-.4a5.3 5.3 0 0 0-1.3-.4H26.7l-.2-.1-.6-.3-.7-.2H24.2a8 8 0 0 0-.6.3l-.7.2h-.1c-.3.1-.4.3-.3.4Zm0 0"/><path fill="#c39d35" d="M19.7 52v.2l.5.4A11.3 11.3 0 0 0 22 54l.6.4 1 .4.6.2.3.1 1 .3.5.3.3.2.4.1h.1v.1h.4c1.1 0 2.2-.2 3.2-.6l.4-.2.5-.2c.7-.4 1.3-.8 1.8-1.4l.4-.5.2-.3v-.3l.2-.7V51l-.1-.2-.2-.5a2 2 0 0 0-.8-.7c-.2-.1-.4.1-.3.2h.1c.6.3.9 1 1 1.6v.4c-.1.5-.4 1-.7 1.3l-.1.2-.2.2-.2.2h-.1l-.8.6-1.6.8-1.6.4h-1.7l-.3-.2-.6-.4-.7-.3h-.2l-.3-.1a7.4 7.4 0 0 1-2-.9c-.7-.3-1.2-.7-1.7-1.1l-.3-.3-.5-.5c0-.1-.1-.1-.2 0v.3Zm0 0"/><path fill="#c39d35" d="m16.1 49 .6.7h.1l.5.6.4.3.2.2.2.1.5.4.2.2.6.3.1.1h.1l.1.1.2.1.5.2.2.1a6.2 6.2 0 0 0 3.8.2l1.2-.2c.2 0 .3 0 .5.2.2 0 .4-.3.2-.4h-.2c-.5-.3-1-.1-1.7 0-.6.2-1.3.3-2 .2a6.9 6.9 0 0 1-1.4-.3h-.2l-.3-.2h-.1a7 7 0 0 1-.8-.4l-.3-.2-.6-.3-.1-.2-.8-.6-.4-.3-1.3-1.6v-.1a7.5 7.5 0 0 1-.9-1.7 6 6 0 0 1-.2-1.4v-.8l.4-.6c0-.3.2-.5.3-.7l.1-.1.1-.1.1-.2.2-.2 1-1.2h.2c.1-.2 0-.4 0-.4h-.2l-.4.3a10 10 0 0 0-1.7 2.1l-.2.5v.1h-.1l-.1.3-.2.4v.5c.2 1.5.8 2.8 1.6 4Zm0 0"/><path fill="#c39d35" d="m14.6 44.4.3.1.1-.2v-.5l-.1-.6v-2l.2-1.3v-1.3a4.4 4.4 0 0 1 .3-1.4l.7-1 .6-.3.5-.2.4-.1.5-.2.9-.5h.1l.2-.2.2-.3v-.1c0-.1 0-.2-.2-.2l-.1.1-.2.2-.5.3-.6.4h-.2l-.3.1h-.3a5.2 5.2 0 0 0-.7.3c-.4.2-.7.5-1 .9l-.1.2-.2.3c-.3.6-.4 1.3-.4 2v1.3l-.2 1.4a7.6 7.6 0 0 0 .1 2.8ZM33.7 51.2H34.4l.4.1h.2l.1.1h.4l.1.1h.1a4.1 4.1 0 0 0 2-.1h.1l.2-.1h.1l.4-.3.6-.3.7-.3.6-.4.9-1.1.1-.3.1-.2v-.2l.1-.8a6.7 6.7 0 0 0-.5-1.7l-.4-1-.1-.3-.6-1.2V43c-.2-.1-.5 0-.4.2v.1l.2.2v.2l.2.3.1.2.1.3.1.3.5 1.1v.3h.1v.2c.2.5.4 1 .4 1.4l-.1.5v.1l-.1.1-.2.3-.1.2-.4.5h-.1v.1h-.1l-.5.4h-.2l-.4.2-.7.4-.2.2H38l-.4.2-.4.1-.8.1h-.8l-.8-.3h-.3c-.2-.1-.5-.1-.8 0-.3 0-.2.4 0 .3Zm0 0"/><path fill="#c39d35" d="m26.6 56 .1.1.3.2.3.4a12.5 12.5 0 0 0 .7.9h.1l.8.7.8.4c1 .5 2.2.6 3.3.4l.4-.1 1.2-.4a16.4 16.4 0 0 0 2.4-1v-.2l.4-.2.4-.5.1-.2h.1l.2-.4.3-1V53.2l-.2-.9v-1.1c-.2-.2-.4-.1-.4 0v.7l.1.6V53.5l.1.3v1.7l-.2.3-.2.4-.3.3v.2l-.2.1-.1.1-.1.1-.4.3a9 9 0 0 1-.6.3l-.5.2-.2.1-1.5.6H33.5l-.2.1a7 7 0 0 1-.9.2H31l-.2-.1-.4-.1a5 5 0 0 1-.6-.2l-.1-.1-.4-.2a5.2 5.2 0 0 1-.9-.7l-.1-.1-.2-.3-.3-.2-.2-.4-.4-.4-.3-.3h-.2v.3Zm0 0"/><path fill="#c39d35" d="M17.2 51v.5l.2.4.1.8.1.2.4 1 .3.3.6.9 1 1 .7.5.2.2h.2l.3.2h.2l.3.1H23.8l.2-.1h.2c.3-.2.6-.2 1-.3l.3-.1.7-.1h.7l.1-.1c.2-.2.1-.3 0-.4h-.4l-.6.1h-.1l-.6.1-.8.3H24l-.2.1h-.1a5 5 0 0 1-.7.2h-.6a2.4 2.4 0 0 1-.9-.2h-.2v-.1l-.3-.1-1-.9-1-1-.6-1-.1-.2-.1-.1-.2-.9v-.2l-.1-.1v-.1l-.1-.4v-.2a5.4 5.4 0 0 0-.3-1 2 2 0 0 0-.3-.5h-.3v.2l.4 1ZM40.8 39.8c-.3.9-1.2 1.3-2 1.6 0 0-.2-.1 0-.2.7-.2 1.5-.6 1.8-1.4 0-.1.3 0 .2 0Zm0 0"/><path fill="#c39d35" d="M40.7 39.6c-.1.3-.4.5-.6.7h-.2V40l.7-.6c0-.1.2 0 .1 0ZM38.9 36.2c-1 .3-1.5 1-2 1.9 0 0-.2 0-.1-.1.4-.9 1-1.7 2-2 .1 0 .2.2 0 .2ZM38.6 35.9l-.7.5c-.1 0-.1-.1 0-.2l.6-.5h.1v.2ZM34.2 34.1A2 2 0 0 1 33 36c-.1.1-.2 0-.1-.1.6-.3 1-1 1-1.7h.2Zm0 0"/><path fill="#c39d35" d="m34 34-.2.4s-.1.1-.2 0l.2-.5s0-.1.1 0ZM29 31.3c-.3.9-.4 1.8-.4 2.7 0 .1-.1.1-.2 0 0-1 .1-1.9.5-2.7 0-.1.2 0 .2 0Zm0 0"/><path fill="#c39d35" d="M28.8 31.2a4 4 0 0 0-.4 1.6c0 .1-.1.1-.1 0 0-.6.1-1.2.4-1.7 0-.1.2 0 .1 0ZM29.7 51.4a6.6 6.6 0 0 1 1.6.9l.2.1.6.5.5.7c0 .1.2 0 .1 0v-.2c-.2-.4-.6-.8-1-1l-.2-.3-1.8-1v.3ZM31.3 53.2a3 3 0 0 1 1 .8c0 .1.2 0 .1 0v-.2l-1-.7s-.2 0 0 .1ZM16.1 42.6l.3.6.6 1 1.8 2c0 .1.2 0 .1-.1a25.8 25.8 0 0 1-2.3-2.9 2 2 0 0 1-.3-.8v-.2c0-.1-.2-.1-.2 0v.4ZM15.8 43l.5 1h.1a7 7 0 0 1-.5-1v-.1l-.1.1ZM34.8 37a2 2 0 0 1-1 1.4s-.2 0 0-.1c.4-.3.8-.8.8-1.4h.2Zm0 0"/><path fill="#c39d35" d="M34.6 37a2 2 0 0 1-.3.5H34l.4-.6.1.1ZM16.4 36c.6.4 1.1.9 1.6 1.5 0 .1-.1.2-.2.1a5 5 0 0 0-1.5-1.5c-.1 0 0-.2 0-.1ZM21 52.4l.4-.2c.7-.2 1.3-.7 1.7-1.3.1-.1 0-.2-.1-.1a4 4 0 0 1-1.9 1.4c-.2 0-.1.2 0 .2ZM20.7 52.1h.2l.2-.1.6-.4c.2 0 0-.3 0-.2l-.6.3-.3.2H20.4c0 .2.1.3.2.2ZM33.5 40.8a2 2 0 0 1-1.1 1.3l-.1-.2c.5-.2.9-.6 1-1.1 0-.1.3 0 .2 0Zm0 0"/><path fill="#c39d35" d="m33.5 40.5-.2.4h-.1V40.5l.1-.1v-.1h.1s.1 0 0 .1ZM31 38.7l-.3 1c0 .2-.2.1-.2 0l.3-1.1c0-.1.3 0 .2 0ZM30.7 38.8l-.1.4h-.2l.1-.5h.1ZM20 53.8c.2.5.6 1 1.1 1.3l.1.1.4.2c.4.2.8.2 1.3.2H24a9.4 9.4 0 0 1 2.3.3l.2.1h.1c.1 0 .1-.1 0-.1l-.3-.1h-.2l-.2-.1-1.2-.2h-2.1l-1-.3-.3-.2a3.9 3.9 0 0 1-1.3-1.4c-.2-.4-.3-1-.2-1.4v-.4h-.2c0 .8 0 1.5.3 2Zm0 0"/><path fill="#c39d35" d="M20.3 55.4c.5.4 1.2.6 1.8.7h4.1l.2.2.1-.1V56h-.1l-.2-.1a6 6 0 0 0-1.6-.1H24c-1.2 0-2.5.1-3.5-.7-.5-.4-.8-1-.8-1.6v-1.8c0-.2-.2-.2-.2 0V54c.1.6.4 1.1.9 1.5Zm0 0"/><path fill="#c39d35" d="M17.3 50.4h.1l.3.2.2.2.2.2.3.4a3.1 3.1 0 0 1 .4 1.3v.5a3.5 3.5 0 0 0 .7 1.6l.3.5a2.5 2.5 0 0 0 1 .9l1.3.3 3-.2.8-.1H26.8v-.1h-2.2l-.5.1a8 8 0 0 1-2.3 0c-.4 0-.9-.2-1.2-.4l-1-1.1c-.3-.4-.4-.8-.5-1.3v-.3l-.1-.5v-.4l-.4-.9-.7-.7a2 2 0 0 0-.3-.2l-.2-.1h-.1v.1ZM31.5 46.6c.6 0 1.1-.4 1.6-.8a7 7 0 0 0 2-2.5V42l.6-2.4a3 3 0 0 0-.7-2.3s0-.2.1-.1c.5.5.8 1.3.8 2 0 .9-.4 1.7-.5 2.5l-.1 1.3c-.1.5-.3.9-.6 1.2-.3.6-.8 1.1-1.3 1.6-.5.4-1.2.9-1.9 1-.1 0-.2-.2 0-.2Zm0 0"/><path fill="#c39d35" d="m31.6 46.7 1.8-1c.7-.4 1.2-.8 1.7-1.4.4-.6.6-1.4.6-2.2 0-.4 0-.7.2-1 0-.4.2-.8.3-1.1.2-.7.3-1.6-.2-2.2 0 0 .1-.2.2 0 .4.4.4 1 .3 1.7-.1.8-.5 1.5-.6 2.3v1.1l-.5 1.1c-.3.7-.9 1.2-1.5 1.6l-1 .6-1.2.7s-.2-.1 0-.2Zm0 0"/><path fill="#c39d35" d="M31.6 46.7a12.8 12.8 0 0 0 3.7-1.9c.6-.5 1-1.1 1-1.9l.4-2.5.2-1.2c0-.4 0-.7-.3-1-.1 0 0-.2.1-.1.5.4.4 1.2.3 1.8l-.4 2.7-.2 1.2-.7 1a11.8 11.8 0 0 1-4.1 2.1s-.1-.2 0-.2Zm0 0"/><path fill="#c39d35" d="M31.3 46.7a17 17 0 0 0 2-3l.7-1.6v-1c0-.3 0-.7.2-1 .3-.8.8-1.6.6-2.4 0-.2.2-.2.2 0 .2.7-.2 1.4-.5 2l-.3 1.3v1c0 .6-.3 1.1-.6 1.6l-1 1.7-1.2 1.5s-.2 0-.1-.1Zm0 0"/><path fill="#c39d35" d="M32.7 44.4c.5-.8 1-1.7 1.1-2.7v-1.5c0-.5.2-1 .3-1.4l.8-1.5s.2 0 .1.1l-.7 1.4c-.2.5-.2 1-.2 1.5v1.4l-.5 1.4-.8 1.4c0 .1-.2 0-.1-.1ZM26 37.5c.2-.6.4-1.1 1-1.3.6-.2 1.3-.2 1.8-.2a6.6 6.6 0 0 1 2.7.6l.8.5c.7.4 1.5-.1 2-.6l.2.1c-.4.4-1 .7-1.6.8-.6.1-1-.4-1.6-.7-1-.5-2.4-.6-3.6-.5-.3 0-.7 0-1 .3-.3.3-.4.7-.6 1 0 .2-.2.1-.2 0Zm0 0"/><path fill="#c39d35" d="M25.9 37c.2-.5.6-.9 1.1-1.1.5-.3 1-.5 1.6-.6.6 0 1.2.2 1.7.4l1.9.7c.6.2 1.3.2 1.9 0 .1-.1.2 0 0 .1-1 .5-2.1.1-3.2-.3l-.9-.4c-.3 0-.5-.2-.8-.3a2 2 0 0 0-1 0l-.8.4c-.5.2-1.1.6-1.4 1.2 0 0-.2 0-.1-.1ZM30.7 49.3a7.3 7.3 0 0 1 1.9-.2c.3 0 .6 0 .9.2l.8.5.1.1a1618.5 1618.5 0 0 0-.7-.7l-.6-.3H32l-1.2.2c-.2 0-.2.2 0 .2Zm0 0"/><path fill="#c39d35" d="M30.7 49v.1H31.4l1.6-.2h.2l.9.1h.1l.8.4h.1c.1.2.3 0 .2 0l-.1-.2-.6-.3H34l-.8-.1h-2l-.2.1a6 6 0 0 0-.3 0v.1Zm0 0"/><path fill="#c39d35" d="M30.8 49s0 .1 0 0v.2h.4V49l.7-.2a15.5 15.5 0 0 1 1.3-.3l1-.1a2.8 2.8 0 0 1 1.3.3l.2-.1-.2-.1-.7-.3h-1.5l-2 .6-.4.1h-.1ZM32 48.1c1.4-.7 2.8-1.2 4.3-1.4.1 0 .2.1 0 .1-1.4.3-2.8.8-4.2 1.5 0 0-.2-.1 0-.2Zm0 0"/><path fill="#c39d35" d="M32.6 47.9a9.8 9.8 0 0 1 4-1.8c.2 0 .2.2.1.2-1.4.3-2.8.9-4 1.7 0 .1-.2 0-.1-.1Zm0 0"/><path fill="#c39d35" d="M33.4 47.3a25.4 25.4 0 0 1 2.6-2c.2-.1.5-.4.7-.2.1.1 0 .3 0 .2h-.2c0-.1 0-.3.1-.2h.1v.2h-.5l-.4.4-.8.6-1.5 1.2c-.1 0-.2 0-.1-.2ZM28 45.8c-.9-.2-1.9-.2-2.8-.1-1 0-1.9.2-2.8.6l-1.3.8s-.2 0-.1-.2a8.3 8.3 0 0 1 5.4-1.4l1.7.1c.1 0 0 .2 0 .2Zm0 0"/><path fill="#c39d35" d="M28 45.8c-1.8-1.1-4-.8-6 0a4 4 0 0 0-1.5.9s-.2 0-.1-.1a4 4 0 0 1 1.3-.9l1.5-.5a7 7 0 0 1 3.2-.2c.6.1 1.2.3 1.7.6.1 0 0 .2 0 .2Zm0 0"/><path fill="#c39d35" d="M27.4 45.2a6 6 0 0 0-3-1h-1.8c-.5 0-1 .2-1.4.5l-1.4.8c-.1 0-.2-.1-.1-.2a8 8 0 0 1 2.8-1.2 9.2 9.2 0 0 1 3.3.2c.6.1 1.2.4 1.7.8.1 0 0 .2 0 .1Zm0 0"/><path fill="#c39d35" d="M27.4 45.2c-1-.5-2-1-3-1.2-.5-.2-1-.3-1.6-.3a6 6 0 0 0-3 .8l-.2.1v.1h-.1v-.1h-.1v.2c-.1-.1 0-.3 0-.2.1 0 .1.2 0 .2l-.1-.1.2-.2.4-.2.8-.4a6 6 0 0 1 1.7-.3c1.2-.1 2.3.2 3.4.7l1.7.8c.1 0 0 .2 0 .1Zm0 0"/><path fill="#c39d35" d="M24.6 43.7c-1.7-1-3.8-.5-5.4.4-.1.1-.2 0-.1-.1 1.7-1 3.8-1.5 5.6-.4.1 0 0 .2 0 .1ZM28 49.4l3-1.5a5 5 0 0 0 1.3-.8l.3-.3.5-.2v.2l-.4.2a3 3 0 0 1-.5.5c-.3.3-.8.4-1.2.7l-2.9 1.3-.1-.1Zm0 0"/><path fill="#c39d35" d="M28.5 49.3c.8-.4 1.8-.5 2.7-1l1.2-.8c.4-.2.6-.7 1-.8.2 0 .2.2 0 .2l-.4.4-.5.5-1.3.7-2.6 1-.1-.2ZM27.5 49.2l1.4-.4c.4-.1.8-.4 1.1-.6.7-.6 1.2-1.2 2-1.6 0 0 .1.1 0 .2-.8.3-1.3 1-2 1.6l-1 .6-1.5.3c-.1 0-.1-.1 0-.1Zm0 0"/><path fill="#c39d35" d="M28 49c.9-.7 1.8-1.4 2.5-2.3l.2.1c-.8 1-1.7 1.6-2.6 2.4-.1 0-.2-.1-.1-.2Zm0 0"/><path fill="#c39d35" d="M27.6 49.3c.4-.4.9-.8 1.1-1.3l.4-.8.4-1s.2 0 .1.1c0 .4-.2.7-.3 1l-.4.8c-.3.6-.8 1-1.2 1.4-.1 0-.2 0-.1-.2Zm0 0"/><path fill="#c39d35" d="M27.4 49c.5-.2.9-.7 1-1.3l.2-.8v-1c0-.1.1-.1.1 0v1l-.1 1c-.2.5-.6 1-1.1 1.3 0 .1-.2 0 0-.1Zm0 0"/><path fill="#c39d35" d="m27.3 49.3.5-1v-.8c0-.5-.2-1 0-1.5v.1c0 .2-.1.1-.1 0V46c0-.1.2 0 .2 0-.1.6 0 1.2.1 1.7 0 .6-.2 1.2-.5 1.7l-.2-.1Zm0 0"/><path fill="#c39d35" d="M27.3 49.3c.1-.6 0-1.1-.3-1.6l-.5-.8c0-.2-.2-.4-.1-.6 0-.1.2 0 .1 0l.1.4.3.3.4.8c.2.5.3 1 .2 1.6l-.2-.1Zm0 0"/><path fill="#c39d35" d="M27.4 49.3a5.1 5.1 0 0 0-1.5-2.2l-.7-.6c-.1-.1 0-.2.1-.2l.7.7.7.7c.4.5.6 1 .8 1.6.1.1 0 .2-.1 0Zm0 0"/><path fill="#c39d35" d="M27.4 49.3a7.5 7.5 0 0 0-1.8-1.5l-1-.6-.8-.6c0-.1 0-.3.2-.2l.8.7 1 .6c.6.4 1.2.9 1.7 1.5 0 0 0 .2-.1.1Zm0 0"/><path fill="#c39d35" d="M27.2 49.2c-.7-.6-1.5-1-2.3-1.3a12.4 12.4 0 0 1-1.7-.8c-.1 0-.4-.2-.4-.4l.2-.1v.1c0 .1-.2.1-.2 0h.1l.3.2.3.2.5.2 1.2.5c.8.3 1.5.7 2 1.3.2 0 0 .2 0 .1Zm0 0"/><path fill="#c39d35" d="M27.3 49.3a5 5 0 0 0-1.5-.6l-1.4-.3a3 3 0 0 1-2.2-1.5c0-.1.2-.2.2 0l1 1 1.3.4c.5 0 1 0 1.4.2l1.3.7s0 .2-.1.1Zm0 0"/><path fill="#c39d35" d="M26.5 49c-.8-.4-1.8-.3-2.7-.5l-1.3-.5-.6-.4c-.2-.1-.4-.3-.6-.2-.1 0-.2-.1 0-.2.3-.1.6.2 1 .4.4.3.9.6 1.5.7.9.2 2 .1 2.8.6.1 0 0 .3 0 .2ZM27.6 45.4c-.8-.8-2-1-3-.9a7.5 7.5 0 0 0-4.2 1.9l-.2-.1v-.1c.1-.2.3 0 .2 0v.2l-.1-.1a8 8 0 0 1 2.6-1.6c1-.3 2.1-.5 3.2-.3.6.1 1.2.4 1.6 1 0 0 0 .1-.1 0ZM23.7 34.7a6 6 0 0 0-1.9-4s0-.2.2-.1c1.1 1 1.8 2.5 2 4.1h-.3Zm0 0"/><path fill="#c39d35" d="M23.8 34.9c-.6-1.4-2.2-2.1-2.6-3.7 0 0 .1-.1.2 0 .4 1.5 2 2.2 2.6 3.6 0 0-.1.2-.2 0Zm0 0"/><path fill="#c39d35" d="M23.8 34.9a4.7 4.7 0 0 0-2.6-1.9l-.5-.2-.5-.2v-.2h.2c0 .2 0 .3-.1.2h-.1c-.1 0 0-.2 0-.2.2 0 .3 0 .5.2l.5.2 1 .5c.7.3 1.3.8 1.7 1.5 0 0 0 .2-.1 0Zm0 0"/><path fill="#c39d35" d="M23.8 35c-1-1.3-2.7-1-4-1.4-.1 0 0-.2 0-.2h.1c.2 0 .2.2 0 .2v-.2c1.3.3 3 .1 4 1.4 0 .1 0 .2-.1.1ZM23.9 34.4c.3-1.4-.3-2.7-.3-4 0-.1.2-.1.2 0 0 1.3.6 2.6.3 4 0 .1-.3 0-.2 0Zm0 0"/><path fill="#c39d35" d="M24 34.6c.2-1.3.9-2.6 1.8-3.7 0-.1.2 0 0 .1-.8 1-1.4 2.4-1.7 3.7 0 .1-.2 0-.2 0ZM35.5 47.5h.5l1 .4.7.5c.7.5 1.3 1.1 1.8 1.7l.2-.1c-.5-.6-1-1.1-1.7-1.6a6.4 6.4 0 0 0-1.7-1h-.5l-.1-.1h-.2s-.1.1 0 .2Zm0 0"/><path fill="#c39d35" d="M35.8 47.3h.8l.3.1 1.2.5.2.1.8.5.2.2a5.6 5.6 0 0 1 .8.6l.2.2v.1c0 .2.2.1.2 0v-.2l-.2-.2-.3-.3a5.8 5.8 0 0 0-1.3-.9l-.2-.1a8.1 8.1 0 0 0-1.6-.7H35.8ZM35.5 47.3v.2h.2l.1.2h.1l.3.3.5.5c.6.7 1 1.5 1.3 2.3v.1h.3v-.2a7.6 7.6 0 0 0-2.3-3.1l-.3-.2-.1-.1Zm0 0"/><path fill="#c39d35" d="M35.6 47.4v.2l.2.3v.2l.2.5.1.7v1l-.4.8v.1c0 .2.1.2.2.1v-.1c.1-.3.3-.6.3-1l.1-1v-.6l-.2-.5c0-.1 0-.2-.2-.3v-.2l-.1-.1c-.1-.1-.2-.1-.2 0Zm0 0"/><path fill="#c39d35" d="M35.8 47.7c0 .6 0 1.3-.3 2a4 4 0 0 1-1 1.6l-.2-.2c0-.2.3-.2.3 0l-.2.2s-.2 0 0-.2c.4-.4.7-1 1-1.6l.2-1.8c0-.2.2-.2.2 0ZM35.8 47.2l2.4-1.3 1-1 1-1s.2 0 .1.2l-1 1-1 1-2.4 1.3c-.1 0-.2-.1-.1-.2ZM36 47.4c1.6-.7 3.3-1 5-1.2.1 0 .1.2 0 .2-1.7.1-3.3.5-4.9 1.1-.1 0-.2 0 0-.1Zm0 0"/><path fill="#c39d35" d="M35.9 47.3v.1h1.6l1.2.1c.7.2 1.4.3 2 .7l.4.2v.1h.2c0 .2.2 0 .1 0l-.2-.2c-.7-.6-1.6-.8-2.4-1l-1.8-.1h-1l-.1.1Zm0 0"/><path fill="#c39d35" d="M36.2 47.1c1.4-1 3-2 3.7-3.7 0-.1.2 0 .2 0a9 9 0 0 1-3.8 4c-.1 0-.2-.2-.1-.3ZM17.4 40.7h-.5l-.5.3a5.2 5.2 0 0 0-1.6 1.2l-.3.2V42h.2v.1c0 .1 0 .2-.2.1h.2V42l.2-.1c0-.2.2-.3.3-.3l.7-.6.8-.4c.2 0 .5-.2.7-.1.1 0 0 .2 0 .2Zm0 0"/><path fill="#c39d35" d="M17.5 40.7c-1.2.6-1.8 1.8-2.7 2.7-.1 0-.3 0-.2-.1 1-1 1.6-2.2 2.8-2.7.1 0 .2 0 .1.1ZM17.6 40.3l-1.4.3-.7.1-.7.4-.1-.2h.1c.1 0 .2.1 0 .2-.2 0-.2-.1-.1-.2l1.4-.5c.5-.1 1-.1 1.4-.3.1 0 .2.2 0 .2Zm0 0"/><path fill="#c39d35" d="M17.6 40.2a3 3 0 0 0-2.6-.4v-.2c.1 0 0 .3 0 .2-.2 0-.2-.1 0-.2.8-.2 1.9-.1 2.7.4 0 0 0 .3-.1.2Zm0 0"/><path fill="#c39d35" d="M17.5 39.9c-.6-.7-1.5-1-2.3-1.1v-.1c.2 0 .2 0 0 .1l-.1-.1v-.1c1 0 1.9.5 2.5 1.1.1.1 0 .2-.1.2ZM17.6 39.6c-.2-.5-.6-.9-1-1.2l-.7-.4-.4-.2h-.2l-.2-.2v-.1c.1.1 0 .2 0 .1-.1 0 0-.1 0-.1h.2l.4.2 1 .5c.4.3.8.7 1 1.2.2.2 0 .3 0 .2Zm0 0"/><path fill="#c39d35" d="M17.6 39.2a6 6 0 0 0-2.2-2.2c-.1 0 0-.2 0-.2 1 .6 1.8 1.4 2.4 2.4 0 0-.1.2-.2 0ZM17.8 38.8c0-.5-.3-1-.6-1.4-.4-.4-.8-1-1.3-1.2l.1-.2c.6.3 1 .9 1.4 1.4.3.4.5.9.5 1.4 0 .1-.1.1-.1 0ZM18 38.3c-.1-1-.4-2-1.2-2.6-.1 0 0-.2 0-.2 1 .6 1.2 1.7 1.3 2.8H18ZM18.2 37c0-.5 0-1.1-.3-1.6 0-.1 0-.2.1-.1.4.5.5 1.2.4 1.8h-.2ZM18.6 36.3l.1-.7-.2-.6.1-.1h.1l.2.8c0 .2 0 .4-.2.7 0 0-.2 0-.1-.1ZM33.7 51.1h.1l.1.1h.2l.3.2.2.2.5.6.7 1.3c0 .2 0 .4.2.5v.3l.4.8a14.8 14.8 0 0 1 .6 1.4v.2l.1.2.1.2.2-.2h-.1V56.5l-.1-.1v-.2l-.1-.2-.4-.8-.5-1V54l-.3-.5a6.7 6.7 0 0 0-1.3-2.1l-.2-.1h-.1c-.1-.2-.2-.2-.3-.2l-.2-.1c-.1 0-.2.1 0 .1Zm0 0"/><path fill="#c39d35" d="M33.9 51v.2h.1l.5.1h.1l.4.3c.5.4 1 1 1.4 1.6l.4.6.2.3 1 1.7v.2c0 .1.2 0 .2 0l-.2-.5-.8-1.5-.2-.2-.6-.9c-.3-.4-.7-1-1.2-1.4h-.1l-.2-.2-.4-.2H34Zm0 0"/><path fill="#c39d35" d="m34.1 51 1.2.3 1.1.6c.8.5 1.4 1 2 1.7l-.2.1a5.4 5.4 0 0 0-1.9-1.6l-1-.6-1.2-.3V51ZM35.4 58.2v-.4l.1-.6v-.6l.1-.4a4 4 0 0 0-.1-1.7l-.1-.3-1-2.5-.2-.2v-.2H34v-.1h-.2v.2l.1.1v.1l.1.2c.4.8.8 1.6 1 2.5l.2.2.1 1V56.8l-.1.4V58.2h.1Zm0 0"/><path fill="#c39d35" d="M33.5 58.8v-.2h.1c0-.3.2-.5.3-.7l.1-.6.1-.2V57l.1-.3.3-2V54c0-.8-.3-1.6-.4-2.3V51h-.2V52.3l.2.5.2 1.5v.4l-.1 1.1a11 11 0 0 1-.3 1.3l-.1.3-.2.6-.2.6v.1l-.1.1c0 .2.1.2.2.1Zm0 0"/><path fill="#c39d35" d="M32 59V59l.2-.5.2-.5.2-.4v-.1l.1-.3.1-.2.4-.8.3-1.2v-.3h.1A16.2 16.2 0 0 0 34 52v-.4h-.1v.2l-.1.7v.5l-.1.5-.2 1v.3l-.2.5c-.1.5-.3 1-.6 1.4v.3l-.1.1v.1l-.3.6-.1.4-.2.5v.2c0 .1.1.2.1 0Zm0 0"/><path fill="#c39d35" d="M31 59v-.5l.2-.3.1-.2.1-.2.2-.5.1-.2.2-.2 1-2 .2-.2.5-1 .3-1v-.4l.1-.5v-.6h-.1v.7l-.2.7v.2l-.1.2a9.3 9.3 0 0 1-1.2 2.6l-.2.3-.6 1-.1.3v.1l-.2.2-.1.3-.2.4-.2.5v.2h-.1c0 .2.2.3.2.1Zm0 0"/><path fill="#c39d35" d="M29.6 58.5h.2v-.1l.3-.4.2-.3.4-.5.3-.3.7-.6.6-.6.5-.7s0-.2.2-.3l.2-.5a7.3 7.3 0 0 0 .7-2.2v-.5l.1-.2V51c0-.1-.2-.2-.2 0V52l-.3 1v.3l-.4.7-.2.6-.2.3-.2.3a5 5 0 0 1-.6.8l-.7.6-.5.4-.1.2h-.1v.1l-.4.5-.3.4-.1.2h-.1v.2Zm0 0"/><path fill="#c39d35" d="m28.3 57.6.1-.1h.1l.5-.5.4-.2.6-.4 1.6-.8a3.3 3.3 0 0 0 .9-.8l.3-.3.4-.6.5-1v-.2l.2-.8v-.7c0-.1 0-.1 0 0h-.1v.7a5.9 5.9 0 0 1-.7 1.8 5 5 0 0 1-1 1.2l-.4.3-.6.4-1.6.8-.4.4c-.1 0-.2 0-.3.2l-.5.4c-.2.1 0 .3 0 .2ZM26 44.3a3 3 0 0 1 0-1.6l.3-.4c0-.1.2 0 0 0l-.1.5-.1.5v.9c0 .2-.2.2-.2 0Zm0 0"/><path fill="#c39d35" d="m25.8 44.4-.2-1.5c0-.5.1-1 .4-1.3l.2.1v.1c0 .1-.3.1-.2 0h.1c-.3.3-.3.8-.3 1.2l.1 1.4s-.1.1-.1 0Zm0 0"/><path fill="#c39d35" d="m25.9 44.3.5-.4.5-.4c.1-.1.3 0 .2.1a3 3 0 0 1-.5.5l-.6.3c-.1.1-.2 0-.1-.1Zm0 0"/><path fill="#c39d35" d="M25.8 44.3h.9c.2.1.5.1.8 0l.1.2c-.6.3-1.2 0-1.8 0-.1 0-.1-.2 0-.2Zm0 0"/><path fill="#c39d35" d="m26.2 44.4.6.1.6.4c.2 0 .4.2.5.3l.6.3c.1 0 .1.2 0 .2a1 1 0 0 1-.5-.2l-.5-.4-.6-.3-.7-.2c-.1 0-.1-.2 0-.2Zm0 0"/><path fill="#c39d35" d="M28.3 45.6h.2l.2.1c.1 0 .2 0 .2.2h-.4l-.3-.1v-.2ZM25.2 43.8c-.2 0-.4-.3-.6-.5l-.5-.6-1-1.5c-.6-1-1.4-1.8-2.5-2-.6-.1-1.1-.1-1.6.2-.2 0-.2-.2-.1-.2.8-.5 1.9-.3 2.7.2 1 .6 1.7 1.6 2.3 2.6l.6.9c.2.3.4.6.8.7v.2Zm0 0"/><path fill="#c39d35" d="M25.2 43.8c-.7-.7-1-1.7-1.6-2.5-.5-1-1.2-2-2.3-2.5a3 3 0 0 0-1.8-.5c-.2 0-.2-.1 0-.2 1.1-.1 2.2.5 3 1.3.4.4.8.9 1 1.4l.8 1.4 1 1.5c.1 0 0 .2 0 .1Zm0 0"/><path fill="#c39d35" d="M25.3 44c-1.6-1.7-1.8-4.2-3.3-5.8-.5-.5-1-.8-1.7-1l.1-.2c1 .3 1.9 1.1 2.5 2 .6 1 1 2.1 1.4 3.2l1.1 1.6c.1 0 0 .2-.1.1Zm0 0"/><path fill="#c39d35" d="M25 43.6c-.5-.1-.8-.6-1.1-.9l-1.1-1.1a5 5 0 0 0-2.6-1.4c-.5 0-1 0-1.4.2l-.1-.2c.8-.4 1.7-.3 2.5 0a8 8 0 0 1 2.4 2l.7.7.7.5c.2 0 .1.2 0 .2Zm0 0"/><path fill="#c39d35" d="M24.5 43.4c-1.4-1.1-3.2-2.4-5.1-2l-.4.2-.2.1c-.2 0-.2-.2-.1-.2h.1c.1 0 0 .2 0 .1h-.1.1v-.1l.3-.1.3-.1.7-.1c.5 0 1 0 1.5.2 1.1.3 2 1 3 1.8.1.1 0 .3 0 .2Zm0 0"/><path fill="#c39d35" d="M25.5 43.9c-.5-1.3-.8-2.6-.8-3.9 0-1.3.2-3-.9-4-.5-.4-1.2-.6-2-.7-.6 0-1.2.2-1.7.7l-1 1.9c0 .4-.2.7-.3 1 0 .4-.2.7-.3 1-.2.3-.3.7-.3 1 0 .4 0 .7.2 1 .3.6.6 1.2.6 1.8 0 .1-.2.1-.2 0 0-.6-.4-1.1-.6-1.7L18 41c0-.3 0-.6.2-.9l.3-1 .4-1c.2-.8.4-1.5.9-2 .4-.5.9-1 1.5-1 .6-.1 1.3 0 2 .3.6.3 1 .8 1.3 1.4l.3 2v2.6l.7 2.3c.1 0 0 .2-.1 0Zm0 0"/><path fill="#c39d35" d="M25.7 43.7c-.3.2-.5-.4-.6-.6l-.5-1.3c-.3-.8-.3-1.7-.4-2.6 0-.8-.3-1.7-1-2.2-.4-.3-.9-.4-1.3-.5-.4 0-.9 0-1.2.2a3 3 0 0 0-1 1L19 39c0 .1-.3 0-.2 0l.8-1.3.7-1c.6-.5 1.5-.4 2.3-.2.4.1.7.3 1 .7.3.2.5.6.6 1 .3.8.2 1.7.3 2.6l.5 1.5.3.7s.2.6.3.5c.1 0 .2.1.1.2Zm0 0"/><path fill="#c39d35" d="m18 42.4 1 2.2.1.1h.2L19 44l-.1-.2v-.2l-.3-.4-.5-1c-.2-.4-.3-.7-.3-1.1 0-.4.3-.8.4-1l.3-1 .2-1c.2-.8.5-1.5 1-2 .4-.5 1-1 1.7-1.1.7-.1 1.4.1 2 .4.7.3 1.2.8 1.5 1.4.3.7.3 1.4.2 2v2.3a8.4 8.4 0 0 0 .3 2c0 .1.2 0 .2 0l-.3-1.5V38c0-.6-.2-1.3-.7-1.8-.4-.6-1-.9-1.7-1.1-.5-.2-1-.3-1.4-.2a2 2 0 0 0-.6.1h-.1a4 4 0 0 0-1.5 1.4 5 5 0 0 0-.9 2c0 .5 0 .9-.2 1.2l-.4 1-.1.4v.4c0 .4.2.7.3 1ZM21 56.7v.2l-5.8 12.5-.9 2-.3.8a1010.8 1010.8 0 0 1-4.4 9.4L8.1 85l-.3.8-.3.6c-.3.5-.6 1-.8 1.7l-.6 1.2L4.9 92l-.7 1.5-.5 1.2-.7 1.3h-.6l.2-.5.6-1.2 1.2-2.6.6-1.4 1.2-2.5v-.2l.4-.7.1-.3.3-.6.6-1.4.2-.4 1.6-3.4 1.9-4 2.5-5.6 3-6.3-3 5.8-.4.7L11 76l-2.4 4.9-.4.7-.2.5-.5.9-.1.3-.4.9-.8 1.5-1 2v.4l-.2.2v.2l-.3.4-.4 1-.5 1-1.7 3.7v.2l-.2.2v.1l-.2.3-.2.5H.9l.3-.7V95l.1-.1.3-.7.3-.7.1-.2.3-.6 1.5-3.2.5-1 .2-.6.1-.2.2-.3.2-.6.5-1v-.2l.7-1.3.2-.5.6-1.2.4-.8.6-1.2.7-1.5.2-.3 4.3-8.6 1.2-2.4 6-11.3.1-.2.2-.1c.1 0 .3 0 .4.2v.2Zm0 0"/><path fill="#c39d35" d="m43.8 62.1-9.7 1.6-4.2.7-1.1.2-1.4.3-1 .2-1.6.3-4.4 1.3c-1.4.4-2.8 1-4 1.8a9.3 9.3 0 0 0-2.6 2.6l-.4.6-.8 1.4L11 76l-1.2 2-1.1 2-.2.3-.6 1-.6 1.1-.8 1.5-.2.3-.3.5-.5 1-.2.4v.1l-.5 1-.3.3v.2l-.4.6L3 90.8l-.5 1-.4.9-.7 1.3v.2l-.6 1.2-.3.5h1l.1-.3.2-.2.2-.4.1-.2.6-1c0-.3.2-.5.3-.7a842 842 0 0 0 2.7-4.8l.3-.5.8-1.2c0-.2 0-.3.2-.4l.2-.4a118.7 118.7 0 0 1 3.7-6l3-3.6c1-1.2 2-2.5 3.2-3.6.5-.5 1-1 1.7-1.3l2.1-.9.3-.1 1.3-.5.6-.2 1.5-.6.7-.2c3-1 5.9-2 8.9-2.8l4.5-1.2c1.5-.5 3-1 4.4-1.7l1-.5c.4 0 .1-.5-.2-.5ZM39.4 64c-1.5.5-3 1-4.5 1.3a137.6 137.6 0 0 0-15.6 5.3c-.7.2-1.3.6-1.9 1L15.8 73a65 65 0 0 0-4.7 5.5l-.2.2-1.5 2-.4.4-.6.8-.8 1 .7-1.2.2-.3 1.8-3.1.5-.9.5-.8 2-3.5 1-1.7 1.6-2c1.1-.9 2.5-1.5 3.8-2 1.4-.5 2.9-1 4.4-1.3 3-.7 6-1.2 9.1-1.8l8.6-1.4-2.4 1ZM4.4 40.9l-.2-.4v.1c0 .2 0 .3-.2.4v.5l-.2.2v.5A32.8 32.8 0 0 0 5.9 49l.8 2.2.5-.6-.3-.6c-1-2.6-1.9-5.2-2.5-8l3.2 6.8.5 1 .4-.3L4.4 41Zm0 0"/><path fill="#c39d35" d="M14.5 67.4v.4c-.1 1-.4 1.9-.8 2.8l-.5 1.3-.6 1.2-1.5 3.5-.8 1.8L9 81.2l-1 2.2-1 2-.4 1-.7 1.6-.2.3-1 2.4L4 92l-1 2.3v.2l-.5 1-.2.4h-.7l.2-.3.1-.3.1-.2a22.2 22.2 0 0 0 .8-1.8l.1-.2 1.3-2.8c0-.3.2-.5.3-.8l.2-.5.6-1.3v-.1l.8-1.8.1-.2V85.3h.1l.4-1.1.5-1.7.2-.6.7-2.4.7-2.7.1-.4.8-3.2v-.3l.4-1.3A92.6 92.6 0 0 0 11 67c0-.8-.2-1.5-.4-2.2l-.5-2.3a110.5 110.5 0 0 0-1.2-4.1v-.4l-.2-.6-.4-1.1-.1-.7c.2 0 .3 0 .5-.2l.1.4.2.6.3 1v.1l.3.9.2.6 1.2 4.6c.3 1.5.7 3 .5 4.5l-.5 2.4a107.8 107.8 0 0 1-1.7 7.2l-.4 1.2-.2.8-.2.7L8 82l.2-.5.4-.9.4-1 .8-1.7 1.2-2.8 2-4.5.2-.5.6-1.7c.1-.8.2-1.6.1-2.3a45.8 45.8 0 0 0-3.3-10.5c0-.2-.1-.5-.3-.7l-.1-.4-.1-.1-.2-.4c.2 0 .4-.2.5-.3l.2.3v.2l.4.7a153.8 153.8 0 0 1 2.9 8c.4 1.4.7 2.9.6 4.4Zm0 0"/><path fill="#c39d35" d="M16.5 49.4v-.1l-.3-.4-1.2.9-5 4-.2.2-.6.5-1 1c-.5.6-1 1.1-1.3 1.8-.5 1.2-.8 2.5-1.2 3.7a109 109 0 0 0-2.9 16.3l-.1 1.3v.8-1.7A173 173 0 0 1 5 56.5c.2-1.3.5-2.6 1.1-3.7 1-2 3-3.4 4.8-4.6a116.8 116.8 0 0 1 3.8-2.3l.1-.1V45.2l-.1.2-1.3.7-.8.5-.6.3c-1.2.7-2.5 1.4-3.6 2.3A17.6 17.6 0 0 0 6.6 51v.1c-1.7 2-2 4.7-2.5 7.2a147.7 147.7 0 0 0-1.8 17L2 80.5l-.1 2-.5 9a538.6 538.6 0 0 0-.1 2.2v1.8l-.1.3v.2h.5l.2-.6V95c.2-.5.3-1.1.3-1.7l.1-.3v-.2l.2-1v-.2l.4-6.9.2-3.8v-1.2l.1-1a100.4 100.4 0 0 1 3.5-19.1c.4-1.3.8-2.4 1.6-3.3l.1-.1.4-.4.6-.6.7-.7h.2c0-.2.2-.3.3-.4l.3-.2.2-.2.7-.6 2.2-1.7 2.5-2ZM2 88v1.3V88l.1-1.6v1.6ZM41 34.5l-2.8.9c.3 0 .6.3.7.7l.6-.3 1.7-.7c.3-.2 0-.7-.2-.6ZM27.2 65.1l1.3-1.3 5.7-5.3-.6.3H33l-3 2.8-3.8 3.7 1-.2Zm0 0"/><path fill="#c39d35" d="m7.5 86.3-1 1-.3.4-.5.6-.7 1-.7 1-.4.6L2 94.6l.5-.8.3-.5 1.4-2 .3-.6.4-.6a92.7 92.7 0 0 1 3.8-4.8l.5-.6c-.6.5-1.3 1-1.8 1.6Zm0 0-1 1-.3.4-.5.6-.7 1-.7 1-.4.6L2 94.6l.5-.8.3-.5 1.4-2 .3-.6.4-.6a92.7 92.7 0 0 1 3.8-4.8l.5-.6c-.6.5-1.3 1-1.8 1.6Zm0 0-1 1-.3.4-.5.6-.7 1-.7 1-.4.6L2 94.6l.5-.8.3-.5 1.4-2 .3-.6.4-.6a92.7 92.7 0 0 1 3.8-4.8l.5-.6c-.6.5-1.3 1-1.8 1.6Zm0 0-1 1-.3.4-.5.6-.7 1-.7 1-.4.6L2 94.6l.5-.8.3-.5 1.4-2 .3-.6.4-.6a92.7 92.7 0 0 1 3.8-4.8l.5-.6c-.6.5-1.3 1-1.8 1.6Zm0 0-1 1-.3.4-.5.6-.7 1-.7 1-.4.6L2 94.6l.5-.8.3-.5 1.4-2 .3-.6.4-.6a92.7 92.7 0 0 1 3.8-4.8l.5-.6c-.6.5-1.3 1-1.8 1.6Zm0 0-1 1-.3.4-.5.6-.7 1-.7 1-.4.6L2 94.6l.5-.8.3-.5 1.4-2 .3-.6.4-.6a92.7 92.7 0 0 1 3.8-4.8l.5-.6c-.6.5-1.3 1-1.8 1.6Zm17.4-17.6-1.2.3-.7.6-2 1.8 1.5-1.6h-.7l-.6.5-1.8 1.8c-3.4 3.7-6.7 7.4-9.8 11.3l-.7.9-1.1 1.4-1.3 1.5c0 .2-.2.4-.3.5l-.5.6-.7 1-.7 1-.4.6-1.6 2.4-.3.5-.3.5-.4.6v.1l-.5.8v.1h.6l.2-.3.1-.2.2-.4v.1l.1.1h.5l.6-.8.1-.2L5 91.8l6-8.2.2-.2v-.1l.2-.2.1-.2.1-.2.5-.7.3-.3 2.8-3.7a42 42 0 0 1 4.7-5l4.8-4 .4-.5H25ZM9.7 84.3l-3.6 5-1.7 2.3-.3.4L3 93.5l-.4.6-.6.7.1-.2.5-.8.3-.5 1.3-2 .4-.6.4-.5a92.7 92.7 0 0 1 3.8-5l.5-.5 1.5-1.9.4-.4-.3.3-1.2 1.6Zm-2.2 2-1 1-.3.4-.5.6-.7 1-.7 1-.4.6L2 94.6l.5-.8.3-.5 1.4-2 .3-.6.4-.6a92.7 92.7 0 0 1 3.8-4.8l.5-.6c-.6.5-1.3 1-1.8 1.6Zm0 0-1 1-.3.4-.5.6-.7 1-.7 1-.4.6L2 94.6l.5-.8.3-.5 1.4-2 .3-.6.4-.6a92.7 92.7 0 0 1 3.8-4.8l.5-.6c-.6.5-1.3 1-1.8 1.6Zm0 0-1 1-.3.4-.5.6-.7 1-.7 1-.4.6L2 94.6l.5-.8.3-.5 1.4-2 .3-.6.4-.6a92.7 92.7 0 0 1 3.8-4.8l.5-.6c-.6.5-1.3 1-1.8 1.6Zm0 0-1 1-.3.4-.5.6-.7 1-.7 1-.4.6L2 94.6l.5-.8.3-.5 1.4-2 .3-.6.4-.6a92.7 92.7 0 0 1 3.8-4.8l.5-.6c-.6.5-1.3 1-1.8 1.6Zm0 0-1 1-.3.4-.5.6-.7 1-.7 1-.4.6L2 94.6l.5-.8.3-.5 1.4-2 .3-.6.4-.6a92.7 92.7 0 0 1 3.8-4.8l.5-.6c-.6.5-1.3 1-1.8 1.6ZM45 50.9l-3.2 2.5L31 62.6 28.4 65a3 3 0 0 0 1.1-.3l.4-.1.4-.4 10.6-9.2 4.5-3.6-.5-.4ZM38.4 54.8l1-.8a315 315 0 0 1 4.8-4l-.3-.5v-.1L41 51.7 38.4 54c0 .3.1.5 0 .8Zm0 0"/><path fill="#c39d35" d="M52 42.7c.8.3 1.7.8 2 1.6.4.9 0 1.7-.6 2.3L51 48.3 48.7 50l-1.2.8c-.4.2-.8.5-1.2.5-1 0-1.6-1-2-1.7-.3-.3-.5-.7-.4-1.1 0-.4.4-.8.7-1l2-1.8c1.7-1.2 3.4-2.1 5.3-2.8.4-.2.2-.7-.1-.6A21.8 21.8 0 0 0 44 47c-.3.3-.7.7-.8 1.2-.1.4 0 .9.2 1.3.5.9 1.1 1.9 2.1 2.2 1 .4 1.9-.3 2.7-.8l2.8-1.8c.8-.6 1.8-1.3 2.5-2 .8-.7 1.4-1.8 1-2.9-.4-1-1.4-1.7-2.5-2-.3-.1-.4.4 0 .5Zm0 0"/><path fill="#c39d35" d="M44.2 49.3c2-2.1 4-4.3 6.8-5.6.7-.3 1.4-.6 2.2-.7.2 0 .1-.4 0-.3-3 .6-5.3 2.4-7.3 4.5l-2 2s.1.3.3.1Zm0 0"/><path fill="#c39d35" d="M44.5 50a40.4 40.4 0 0 1 9.2-6.4c.2 0 0-.3-.1-.2a39 39 0 0 0-9.3 6.5c-.2.1 0 .3.2.2ZM54 43.7c-1 1.1-2.3 1.8-3.6 2.7L46.7 49a10.2 10.2 0 0 1-1.5 1l-.7.2c-.1 0-.2.2 0 .3l.8-.2 1-.6 1.9-1.5 4-2.8c.8-.5 1.5-1 2-1.6.2-.2 0-.4-.2-.2ZM54.4 44.5c-1 1.1-2.2 1.9-3.5 2.6l-3.6 2.5-1 .6-.5.3-.3.2-.3.1v.2h-.1c.2.1.3-.1.2-.2H45v.2c.2.1.3 0 .4 0l.5-.2 1-.6 1.9-1.3 1.9-1.3 2-1.3c.7-.4 1.3-1 1.9-1.6 0-.2-.2-.4-.3-.2ZM21.7 31l.8-1.7H22l-1.1 2.3c.1-.4.4-.6.9-.6ZM15 45.7V44.8c-.3.3-.4.7-.6 1.1l.6-.2ZM11.2 53.2l-.3.6-.2.5-.3.7-1 2.4-.5.9.4-1 .9-2.7v-.2l.3-.6v-.2l-.4.2-.2.1-.1.1-.4 1.2-.4 1.1-.3 1-.8 2.4c-1.6 4.7-3 9.5-4.1 14.3l-.1.3a157 157 0 0 0-1 4.3v.2L2 81.7l-.2.8a52 52 0 0 0-.9 6.9v2l.2.2h.2c.2 0 .2 0 .2-.2V88c.1.2.4.2.5 0h.1V88l.7-3.3L5 74l1.4-7a43.7 43.7 0 0 1 3.1-8.7l1.2-2.6.3-.7.8-2 .3-.5-1 .7ZM3 80.8l-.7 3.6-.4 1.8-.3 1.7c0-1.4.3-2.9.5-4.3l.2-1.2a91 91 0 0 1 2.3-9.9l-1.6 8.3ZM13 46.8l2-4.7c-.3-.3-.3-.9-.1-1.2v-.2l-2 4.8-.6 1.7.8-.4ZM17.5 35.4h.3l.4-1 2.6-5.7-.4-.3a315.1 315.1 0 0 0-3.3 7h.4Zm0 0"/><path fill="#c39d35" d="M24.9 18.7c.9-.1 1.8 0 2.5.5.7.6.6 1.6.3 2.4-.3.9-.8 1.7-1.3 2.6L25 26.7l-.9 1.2c-.2.4-.4.8-.8 1-.9.5-1.9-.1-2.6-.6-.3-.2-.7-.5-.8-1 0-.3 0-.8.2-1.2a23.9 23.9 0 0 1 4.7-7.4c.2-.2-.1-.7-.4-.4a22 22 0 0 0-4.8 7.7c-.2.5-.4 1-.3 1.4.1.5.4.9.8 1.1.8.6 1.8 1.2 2.8 1.1 1-.1 1.6-1.1 2-2a68.8 68.8 0 0 0 3.3-5.7c.4-1 .5-2.2-.3-3-.9-.8-2-1-3.1-.7-.4 0-.3.6 0 .5Zm0 0"/><path fill="#c39d35" d="M20.6 28.2c.9-2.9 1.8-5.8 3.7-8.1l1.7-1.7c.2-.1 0-.3-.1-.2a15.5 15.5 0 0 0-4.7 7.2l-.9 2.6c0 .2.2.3.3.2Zm0 0"/><path fill="#c39d35" d="M21.2 28.7c1-2.8 2.5-5.4 4.1-7.9l1.5-2c0-.2-.1-.3-.3-.2a41.8 41.8 0 0 0-5.6 10c0 .2.2.3.3 0ZM27 18.7c-.3 1.5-1.3 2.7-2 4l-2.3 4.1a18.5 18.5 0 0 1-1 1.6c0 .2-.2.4-.4.5-.2 0-.1.3 0 .3.3-.1.5-.4.7-.6.2-.3.5-.6.6-1 .5-.7.8-1.4 1.1-2l2.5-4.4c.5-.8 1-1.5 1.1-2.4.1-.2-.2-.3-.2-.1ZM27.8 19.2c-.4 1.5-1.2 2.7-2 4-.9 1.2-1.6 2.5-2.3 3.8l-.6 1-.4.5-.2.3-.2.2.1.1v.1h-.1c.2 0 .2-.2 0-.2H22s-.1.2 0 .2v.1l.4-.2.4-.5.6-1 1.1-2 1.2-2c.5-.6 1-1.3 1.3-2 .4-.7.8-1.4 1-2.3 0-.1-.2-.2-.2 0ZM69.3 61.3l-.5.3-.4.3-5.8 4-2.3 1.5-1 .7-.6.3-.1.1h-.2l-.6.4-2 1.1-5.9 3h-.2l-.5.2-1.7.6a47.8 47.8 0 0 1-7 2l-1 .1-1 .2h-.2l-.6.1-10.4 1.4h-.9c-2.2.4-4.5.9-6.7 1.5a28.3 28.3 0 0 0-7.6 3.5l-.4.3h-.1l-.3.2-.3.3h-.2l-1 .9c-.2 0-.4.2-.5.3a37.6 37.6 0 0 0-2.8 2.6l-.2.3-.3.3-.1.1-.4.4-.6.7-.3.4-.3.5-2 3-.2.4-.1.2-.7 1.3v.2l-.4.6v.3H.1l.5-1 .5-1v-.3h.1l.1-.2a12 12 0 0 1 1.1-2l.5-.6.8-1.2.7-.9.2-.2v-.1l.2-.2.2-.2.2-.3.2-.1.1-.2.5-.5.5-.5.4-.5h.1l.1-.1 1-.9.7-.7 2-1.4 1.4-1a32 32 0 0 1 8.6-3.6c1.8-.5 3.7-.8 5.5-1l.5-.1h.1l.3-.1 2-.3 8.5-1a82.2 82.2 0 0 0 2.7-.5c3-.6 6-1.5 8.8-2.7l.6-.2.3-.2c2.5-1 4.8-2.2 7.2-3.6l.7-.4 2-1.2c2.6-1.6 5.2-3.4 7.7-5.2l.2-.2.3-.2h1Zm0 0"/><path fill="#c39d35" d="M86.2 49.6c-3.2.5-6.5 1-9.6 2.3-2.6 1-5.2 2.6-7 5-1 1.3-1.8 2.9-1.8 4.6v.2c.2.1.3.1.4 0l.2.2H68.7a19.4 19.4 0 0 0 14.7-8l1-1.6a9.7 9.7 0 0 1 1-1.3c.2-.4.6-.7 1-1 .4 0 .1-.5-.2-.4ZM82.5 54l-1.9 2a19.4 19.4 0 0 1-11 5.1h-.3l-.5.1h-.4v-.4c.4-2.6 2.5-4.9 4.5-6.3 2.4-1.8 5.2-2.8 8.1-3.5l2.1-.4a25 25 0 0 1 1.7-.3h.4l-.1.1-.2.2v.1l-.3.3-1.2 1.8-.1.2-.8 1ZM58.4 68.5c4.6-3 10.3-3 15.5-2.3l5 1v-.7C76 66.3 73.7 68 71 69c-2.7 1-5.6 1-8.3.7-1.6-.2-3.2-.6-4.7-1.1-.3-.1-.5.5-.2.6 2.8.8 5.6 1.4 8.5 1.2 1.4 0 2.8-.2 4.2-.6 1.3-.4 2.6-1 3.8-1.6a9 9 0 0 1 4.5-1c.3 0 .4-.5 0-.6-5.4-1-11.3-2.2-16.8-.4-1.4.4-2.7 1-4 1.9-.3.2 0 .7.3.5ZM58.7 57.2c-2.2 1-4.1 2.6-5.7 4.4-1.5 2-2.7 4.1-3.4 6.5-.4 1.4-.7 2.9-.4 4.3v.1l-.1.4.1.3.4-.2h.3v-.5l.3-.4c.5-.5 1.1-.8 1.7-1.2 1-.6 1.9-1.3 2.5-2.3 1.4-2.1 1.9-4.7 2.6-7a11 11 0 0 1 2-4c.3-.2 0-.5-.3-.4ZM57.5 59c-1 1.7-1.3 3.7-1.9 5.5a15 15 0 0 1-1.5 3.5 7 7 0 0 1-2.4 2.4l-1.1.7c-.2 0-.4.2-.5.3l-.4.3a9 9 0 0 1 .4-3.2 16.8 16.8 0 0 1 7.2-9.9l.3-.2.3-.1-.3.4-.1.3ZM37.9 76.2c1.3-.2 2.7-.5 4-.5 1.4 0 2.7.1 4 .5 2.4.6 4.8 1.3 7 2.2 1.3.5 2.6 1.2 3.8 2l.2-.6c-2.5-.9-5.2-1.4-7.8-1.5-2.6 0-5.3.4-7.8-.4-1.2-.3-2.3-1-3.1-1.9-.3-.3-.7.2-.4.4 1.5 1.9 4 2.5 6.3 2.5h4.2a26 26 0 0 1 8.4 1.5c.4 0 .5-.4.3-.6a26.7 26.7 0 0 0-7-3l-3.6-1.1c-1.4-.3-2.7-.6-4-.7-1.6 0-3.1.3-4.6.6-.4.1-.3.7 0 .6ZM39.3 67.2c-2.3.6-4.5 1.5-6.5 2.6-1.9 1.1-3.8 2.4-5 4.1-.8 1-1.3 2-1.4 3.2 0 .2 0 .3.2.3l-.2.3h.8c.6-.5 1.3-.7 2-1h.2c1-.3 2-.8 2.8-1.4 1.7-1.4 3-3.2 4.5-4.9a15 15 0 0 1 2.8-2.6c.3-.2.1-.7-.2-.6Zm-1.5 1.1C35 71 33.1 75 29.3 76.1c-.6.2-1.2.3-1.7.6l-.4.2-.2.1v-.2a8.1 8.1 0 0 1 3.2-4.5c1.7-1.4 3.7-2.5 5.7-3.4.3 0 .5-.2.8-.3l.6-.2.5-.2h.2l-.2.1ZM12 83c4.5-2.7 10-1.6 14.6.2 1.4.5 2.7 1.2 4.1 1.8l.3-.5c-5.1-2.3-10.7.1-16 0l-2.2-.4c-.6-.1-1.2-.4-1.6-.9-.2-.3-.6.1-.4.4.8 1 2 1.2 3.1 1.3 1.5.2 2.9.1 4.3 0 2.7-.3 5.4-.9 8.2-.8 1.5 0 3 .3 4.3.9.4.1.7-.4.3-.5-4.8-2.2-10-4.4-15.4-3.5-1.4.2-2.8.7-4 1.4-.3.2 0 .7.3.5ZM9.3 72.7a15 15 0 0 0-4.2 5.7A16.1 16.1 0 0 0 4 87.5l.1.8.1.2.2.2.3.1v.2H5l.6-.7.3-.3.2-.2.5-1c.2-.1.3-.4.4-.6l.2-.4.5-1.3.4-1v-.1l.3-1.4.1-.5.1-.6v-.2l.1-.3v-.8l.1-.4.1-2.3c.2-1.3.6-2.5 1-3.7V72.9c0-.2-.3-.3-.5-.2Zm-1.1 6.7v.3l-.2 1v.6L7.4 83V83.3a16.4 16.4 0 0 1-2.1 4.4l-.3.4v.1H4.7l-.1-.2V87.7l-.1-.1V87l-.1-.2a15.3 15.3 0 0 1 2.7-11l1.4-1.6.1-.1.3-.3-.2.6-.2 1-.2.8c-.2 1-.2 2-.2 3.1ZM15 88.8a26.8 26.8 0 0 0-11.8 5.4H3l-1 1H2l-.1.2h-.2v.1l-.1.1-.3.3H2c.2 0 .3-.2.5-.4a23.2 23.2 0 0 1 2.1-1.7c2-1.4 4.1-2.5 6.5-3.3l.2-.1.6-.2.6-.2-.5.3c-1 .9-1.8 2-2.7 3a25.8 25.8 0 0 1-2.6 2.6h.8l1.6-1.6c.9-1 1.6-2 2.5-2.8 1-1 2-1.8 3.4-2.1.3-.1.2-.7-.2-.6Zm0 0"/><path fill="#c39d35" d="M68.3 61.7a22.4 22.4 0 0 1 13.4-10.3l2.7-.8.7-.1.4-.1h.2c.2 0 .2-.4 0-.4h-.2v.1c0 .2.2.3.3.2h-.1l-.1-.1V50h-.3l-.7.2-1.2.3-2.4.7a22.6 22.6 0 0 0-13 10.2c0 .2.2.3.3.2Zm0 0"/><path fill="#c39d35" d="M68.3 61.7a36.8 36.8 0 0 1 6.5-4.4l6.8-4.1 1.8-1.3 1-.6.4-.3.2-.3v-.1l-.2-.1h-.1v.1c0 .2.2.3.2 0v.2h-.1v-.2l-.4.3-.5.3-.8.6-1.6 1a96.2 96.2 0 0 1-10 6.2l-3.4 2.5c-.1.1 0 .3.2.2Zm0 0"/><path fill="#c39d35" d="M68.7 61.3a42.1 42.1 0 0 1 9.6-7.9c1.3-.7 2.7-1.2 4-1.7l2.5-1 .3-.1v-.3c-.2 0-.4.1-.3.3 0 .2.3 0 .2 0 0-.3-1 .1-1 .2l-1.1.4-2 .7a26.4 26.4 0 0 0-9.4 6.1l-3 3c-.1.2 0 .4.2.3Zm0 0"/><path fill="#c39d35" d="m68.4 61.4 2-.7 2-.9 3.9-1.7c2.4-1.2 4.7-2.7 6.8-4.5 1-.8 2-1.8 2.5-3 0-.2-.2-.4-.3-.2a8 8 0 0 1-2.2 2.8 40.6 40.6 0 0 1-6.6 4.4l-3.8 1.7-2.1 1-2.2.8c-.2 0-.1.3 0 .3ZM58 69l1.7-.6 1.7-.5c1.1-.3 2.3-.6 3.5-.7l3.6-.1a46 46 0 0 0 7.7-.9c-2.5.3-5 .5-7.4.5-1.2 0-2.4 0-3.7.2-1.1 0-2.3.3-3.5.7l-1.9.5-1.8.7c-.2 0 0 .3.1.2Zm0 0"/><path fill="#c39d35" d="M58.8 68.9c2.1-.8 4.4-.6 6.6-.6 1.1 0 2.3-.3 3.4-.4l3.5-.5 4-.5c.2 0 .2-.3 0-.3l-7 .9-3.6.5h-3.3c-1.3 0-2.5.2-3.6.6-.2 0-.1.3 0 .3Zm0 0"/><path fill="#c39d35" d="M58.8 68.7a22.1 22.1 0 0 1 12.8-2.5l4 .4c.2 0 .2-.2 0-.3-2.4-.2-4.8-.6-7.1-.5a22.2 22.2 0 0 0-9.8 2.6c-.2.1 0 .3 0 .3ZM50 72.1c.4-2.1 1-4.2 2-6.2.9-2 2.1-3.8 3.7-5.3l2.7-2.5c.2-.2 0-.4-.2-.3-1.6 1.5-3.3 3-4.6 4.8a20.4 20.4 0 0 0-3 5.8l-1 3.7c0 .1.3.2.3 0Zm0 0"/><path fill="#c39d35" d="m50 72 2.8-5.8 1.3-2.8c.5-1 1.1-1.8 1.8-2.6l2.3-2.6c0-.1-.1-.3-.2-.2-1.4 1.5-2.9 3-3.9 4.8l-1.3 2.8-1.4 3-1.5 3.3c-.1.2.1.4.2.2ZM38.4 76.4c2.2-.5 4.3.4 6.3 1 2 .5 4.2.4 6.3.7 1.2.2 2.3.6 3.4 1 .2.2.3 0 .2-.2-1-.4-2-.8-3-1l-3.3-.4c-1 0-2.1-.1-3.2-.4l-3.2-.8a8 8 0 0 0-3.6-.2l.1.3Zm0 0"/><path fill="#c39d35" d="M38.3 76.3c1.9.9 3.8 1.8 5.8 2.1 1 .1 2.1 0 3.2-.1l1.6-.1 1.6.2 3.7.5c.2 0 .2-.3 0-.3-1.1 0-2.2-.2-3.3-.4l-1.6-.3h-1.5c-1 .1-2 .3-3.1.3-1-.1-2-.4-3-.7L38.4 76c-.2 0-.3.2-.1.2ZM27.4 77c1-1.6 2-3 3.4-4.2a87.3 87.3 0 0 1 7.4-4.6L38 68l-.2.1c0 .2.1.4.3.2l.1-.1c.1-.1 0-.3-.2-.3a29.5 29.5 0 0 0-9 6.4 15 15 0 0 0-1.8 2.5c-.1.1.1.3.2.1Zm0 0"/><path fill="#c39d35" d="M27 77.3c.6-.7 1.3-1.2 2-1.6l2.2-1.6c1.5-1.1 2.9-2.4 4.3-3.6l2.5-2.3c.1-.2 0-.4-.2-.2l-4.3 3.9a35.8 35.8 0 0 1-4.5 3.4c-.8.5-1.6 1-2.2 1.8-.1.1 0 .3.2.2ZM11.1 83.4c1.8-1.1 4-.9 6-.5 1.1.2 2.2.5 3.3.5h3.3c1.2-.2 2.5-.3 3.7.1h-.2c-.2 0 0 .2 0 .2.2 0 .3-.1.3-.3v-.1c-2.2-.8-4.5 0-6.7 0-2.3-.2-4.4-1-6.7-1-1.1 0-2.2.3-3.2.9-.1 0 0 .3.2.2Zm0 0"/><path fill="#c39d35" d="M11.2 83.5c.4-.3 1-.3 1.4-.2l1.6.3c1 .4 2 .9 3 .9a24.3 24.3 0 0 1 6.8-.9h4v-.3a35.9 35.9 0 0 0-8.8.6l-1.9.3c-1.1 0-2.2-.6-3.2-1-1-.2-2.3-.6-3.1 0-.2.2 0 .4.2.3Zm0 0"/><path fill="#c39d35" d="M12.5 83c1.6-1 3.6-1.2 5.5-1.2l1.6.1c.5 0 1 .2 1.5.4a33.2 33.2 0 0 0 4.6 1.2l.9.2h.7c.1.1.2 0 .2 0h.1c-.1-.2-.3 0-.2.2.2.2.6-.2.2-.4h-.8l-1-.2c-1.1-.3-2.3-.5-3.4-.9-1.1-.3-2.2-.7-3.4-.8h-3.3c-1.2.2-2.4.5-3.4 1.1-.2.1 0 .4.2.3ZM9 73.5l-1.8 3a8 8 0 0 0-.6 1.5l-.4 1.7c-.3 1-.8 2-1 3.2a15.2 15.2 0 0 0-.7 5.2c0 .1 0 .4.2.4s.2-.1.2-.2l-.1-.1c-.2 0-.2.2 0 .2h-.2v-.1h.1c.2-.1.1-.7.1-.8v-.7l.1-1.6.7-2.9 1-2.8.3-1.4.6-1.5 1.8-2.9c0-.2-.2-.3-.3-.2Zm0 0"/><path fill="#c39d35" d="M9 73.5a41.1 41.1 0 0 0-2.5 9l-.8 2.7c-.4 1-.8 2-1 3.1 0 .2.3.3.3.1.3-1.9 1.3-3.6 1.7-5.5l.6-3a51.2 51.2 0 0 1 1.9-6.3c0-.2-.2-.2-.3 0ZM13.5 89.8a6.7 6.7 0 0 0-1.3.5l-.8.4-1.1.7c-2.3 1.4-4.5 2.9-6.6 4.5h-.4l4.5-3.3c1.2-.8 2.4-1.6 3.6-2.2l.9-.5.5-.2.6-.2c.2 0 .3.2.1.3Zm0 0"/><path fill="#c39d35" d="m12.8 90-.4.2-2 2C9.7 93 9 94 8 94.7l-1.5 1.1h-.6a10.6 10.6 0 0 0 2.9-2.3l2.6-3 .6-.5.3-.2.4-.3.2.1-.1.2Zm0 0"/></svg>