<svg xmlns="http://www.w3.org/2000/svg" width="128" height="128" version="1.0" viewBox="0 0 96 96"><defs><clipPath id="a"><path d="M0 93h8v3H0Zm0 0"/></clipPath><clipPath id="b"><path d="M0 52h2v9H0Zm0 0"/></clipPath><clipPath id="c"><path d="M0 48h3v13H0Zm0 0"/></clipPath><clipPath id="d"><path d="M0 47h6v14H0Zm0 0"/></clipPath><clipPath id="e"><path d="M0 49h9v12H0Zm0 0"/></clipPath><clipPath id="f"><path d="M0 56h1v5H0Zm0 0"/></clipPath><clipPath id="g"><path d="M0 48h3v3H0Zm0 0"/></clipPath><clipPath id="h"><path d="M0 73h1v3H0Zm0 0"/></clipPath><clipPath id="i"><path d="M0 63h4v5H0Zm0 0"/></clipPath><clipPath id="j"><path d="M0 59h14v4H0Zm0 0"/></clipPath><clipPath id="k"><path d="M0 59h1v6H0Zm0 0"/></clipPath><clipPath id="l"><path d="M0 59h1v1H0Zm0 0"/></clipPath><clipPath id="m"><path d="M0 57h1v3H0Zm0 0"/></clipPath><clipPath id="n"><path d="M0 38h4v7H0Zm0 0"/></clipPath><clipPath id="o"><path d="M0 37h16v24H0Zm0 0"/></clipPath><clipPath id="p"><path d="M0 50h27v11H0Zm0 0"/></clipPath><clipPath id="q"><path d="M0 57h1v3H0Zm0 0"/></clipPath><clipPath id="r"><path d="M0 41h2v20H0Zm0 0"/></clipPath><clipPath id="s"><path d="M0 59h1v2H0Zm0 0"/></clipPath><clipPath id="t"><path d="M0 38h13v22H0Zm0 0"/></clipPath><clipPath id="u"><path d="M0 38h13v21H0Zm0 0"/></clipPath><clipPath id="v"><path d="M0 60h10v6H0Zm0 0"/></clipPath><clipPath id="w"><path d="M0 60h7v7H0Zm0 0"/></clipPath><clipPath id="x"><path d="M0 60h11v5H0Zm0 0"/></clipPath><clipPath id="y"><path d="M0 88h2v8H0Zm0 0"/></clipPath><clipPath id="z"><path d="M0 80h1v7H0Zm0 0"/></clipPath><clipPath id="A"><path d="M0 74h1v2H0Zm0 0"/></clipPath><clipPath id="B"><path d="M0 65h2v10H0Zm0 0"/></clipPath><clipPath id="C"><path d="M0 72h2v3H0Zm0 0"/></clipPath><clipPath id="D"><path d="M0 73h1v2H0Zm0 0"/></clipPath><clipPath id="E"><path d="M0 88h2v8H0Zm0 0"/></clipPath><clipPath id="F"><path d="M0 82h2v5H0Zm0 0"/></clipPath><clipPath id="G"><path d="M0 82h2v2H0Zm0 0"/></clipPath><clipPath id="H"><path d="M0 34h4v12H0Zm0 0"/></clipPath><clipPath id="I"><path d="M0 0h7v43H0Zm0 0"/></clipPath><clipPath id="J"><path d="M0 22h4v21H0Zm0 0"/></clipPath><clipPath id="K"><path d="M0 23h3v17H0Zm0 0"/></clipPath><clipPath id="L"><path d="M0 29h2v11H0Zm0 0"/></clipPath><clipPath id="M"><path d="M0 38h1v1H0Zm0 0"/></clipPath><clipPath id="N"><path d="M45 87h44v7H45Zm0 0"/></clipPath><clipPath id="O"><path d="M0 89h6v7H0Zm0 0"/></clipPath><clipPath id="P"><path d="M0 88h5v2H0Zm0 0"/></clipPath><clipPath id="Q"><path d="M0 73h2v2H0Zm0 0"/></clipPath><clipPath id="R"><path d="M0 77h5v2H0Zm0 0"/></clipPath><clipPath id="S"><path d="M0 76h5v3H0Zm0 0"/></clipPath><clipPath id="T"><path d="M0 75h5v4H0Zm0 0"/></clipPath><clipPath id="U"><path d="M0 78h5v2H0Zm0 0"/></clipPath><clipPath id="V"><path d="M0 78h5v3H0Zm0 0"/></clipPath><clipPath id="W"><path d="M0 78h5v5H0Zm0 0"/></clipPath><clipPath id="X"><path d="M0 78h5v7H0Zm0 0"/></clipPath><clipPath id="Y"><path d="M0 78h5v10H0Zm0 0"/></clipPath></defs><path fill="#c39d35" d="M41 91c1-1 3-2 5-1h9l-6-1h-6l-3 1 1 1Zm0 0"/><path fill="#c39d35" d="M40 90h3l3-1 2-1h3v-1h-2l-3 1-3 1-2 1h-1Zm0 0"/><path fill="#c39d35" d="m40 91 4-3a393 393 0 0 1 7-5l-5 3-4 2-2 2v1Zm0 0"/><path fill="#c39d35" d="m41 90 3-3 2-2 1-1 2-3h-1l-3 4-4 3-1 2h1ZM40 91l3-1 3 1h3l3 2 3 1v-1l-6-2-5-1h-4v1ZM50 83a1 1 0 0 0 0 1 1 1 0 0 0 1 0 1 1 0 0 0 1 0v-1a1 1 0 0 0-1 0h-1ZM54 90a1 1 0 0 0 1 1 1 1 0 0 0 1-1v-1a1 1 0 0 0-1 0 1 1 0 0 0-1 1ZM50 87a1 1 0 0 0 1 1h1a1 1 0 0 0 0-1v-1a1 1 0 0 0-1 0 1 1 0 0 0-1 0 1 1 0 0 0 0 1Zm0 0"/><path fill="#c39d35" d="M54 94a1 1 0 0 0 1 1v-1h1a1 1 0 0 0-1-1 1 1 0 0 0-1 0v1ZM48 81a1 1 0 0 0 0 1 1 1 0 0 0 2 0 1 1 0 0 0-1-2 1 1 0 0 0-1 1ZM28 89h1v-2 2h-1ZM27 94v-1h1l1 1 4 1h1v1h-1l-4-2h-2ZM26 93h1v1l-1-1ZM32 90h1v-1 1a5 5 0 0 0 3 1h2l1-1v-5l-2-4-1-2-1-1h1l2 3 1 4 1 3v2h-1v1h-1l-2 1-1-1a5 5 0 0 1-1 0l-1-1h-1ZM31 88h1v1l-1-1Zm0 0"/><path fill="#c39d35" d="M33 96v-1l1-1a16 16 0 0 1 0-1l1-2h2l2-1h2v2h1v2l1 2h-1v-2l-1-2-1-1h-3l-1 1-2 3v1h-1Zm0 0"/><path fill="#c39d35" d="M43 91v1-1Zm0 0Zm1 1a9 9 0 0 1 2 0h-2Zm-1-1Zm0 0v1-1Zm1 1a9 9 0 0 1 2 0h-2Zm-1-1v1-1Zm1 1a9 9 0 0 1 2 0h-2Zm-2-1h3l1 1h1-4v-1h-1Zm7 2 3 1v1l1 1h-1l-1-2-2-1Zm-9-3h1l1 1h3l1 1h2l1 1h1a7 7 0 0 1 1 1 15 15 0 0 1 2 2h-1l-1-2-2-1-2-1h-4l-1-1v2l1 1v2l-1-1-1-4h-1v-1Zm9 3 3 1v1l1 1h-1l-1-2-2-1Zm-7-2h3l1 1h1-4v-1h-1Zm7 2 3 1v1l1 1h-1l-1-2-2-1Zm-7-2h3l1 1h1-4v-1h-1Zm2 1a9 9 0 0 1 2 0h-2Zm-1-1v1-1Zm1 1a9 9 0 0 1 2 0h-2Zm-1-1v1-1Zm0 0Zm0 0Zm0 0Zm0 0 1 1a9 9 0 0 1 2 0h-3v-1Zm0 0Zm0 0Zm0 0ZM55 84h2a5 5 0 0 1 2 0l3 2 1 2v2l-1 1h1v1h-2l-2-1h3v-3l-1-2a9 9 0 0 0-4-1h-2v-1ZM50 92h6-1a23 23 0 0 1-5 0ZM50 91h-2 2ZM47 91Zm0 0"/><path fill="#c39d35" d="M40 91v-1h1a15 15 0 0 1 2 0h3l1 1h-1a11 11 0 0 0-2 0h-4Zm0 0"/><path fill="#c39d35" d="M41 90h1l1-1h2l1-1h3v-1h3v-1a17 17 0 0 0 5-4l2-1a15 15 0 0 1-2 3h-1l-1 1a91 91 0 0 0-5 3h-2v1h-4v1h-3Zm0 0h1l1-1h2l1-1h3v-1h3v-1a17 17 0 0 0 5-4l2-1a15 15 0 0 1-2 3h-1l-1 1a91 91 0 0 0-5 3h-2v1h-4v1h-3Zm0 0h1l1-1h2l1-1h3v-1h3v-1a17 17 0 0 0 5-4l2-1a15 15 0 0 1-2 3h-1l-1 1a91 91 0 0 0-5 3h-2v1h-4v1h-3Zm-1 0Zm0 0h2l1-1h2l1-1h3v-1h2l-1 1h-1l-1 1h-3l-1 1h-4Zm15-6 3-2 1-1-2 2-2 1Zm-15 6Zm0 0h2v-1h3l1-1h3v-1h2-1v1h-2v1h-4v1h-4Zm15-6 3-2 1-1-2 2-2 1Zm-15 6Zm0 0h2v-1h3l1-1h3v-1h2-1v1h-2v1h-4v1h-4Zm15-6 3-2 1-1-2 2-2 1Zm-15 6Zm0 0h2v-1h3l1-1h3v-1h2-1v1h-2v1h-4v1h-4Zm15-6 3-2 1-1-2 2-2 1Zm-15 6Zm0 0h2v-1h3l1-1h3v-1h2-1v1h-2v1h-4v1h-4Zm15-6 3-2 1-1-2 2-2 1Zm-15 6Zm0 0h2v-1h3l1-1h3v-1h2-1v1h-2v1h-4v1h-4Zm15-6 3-2 1-1-2 2-2 1Zm-15 6Zm0 0h2v-1h3l1-1h3v-1h2-1v1h-2v1h-4v1h-4Zm15-6 3-2 1-1-2 2-2 1Zm-15 6Zm0 0h2v-1h3l1-1h3v-1h2-1v1h-2v1h-4v1h-4Zm15-6 3-2 1-1-2 2-2 1Zm-15 6Zm0 0h2v-1h3l1-1h3v-1h2-1v1h-2v1h-4v1h-4Zm15-6 3-2 1-1-2 2-2 1Zm-15 6Zm0 0h2v-1h3l1-1h3v-1h2-1v1h-2v1h-4v1h-4Zm15-6 3-2 1-1-2 2-2 1Zm-15 6Zm0 0h2v-1h3l1-1h3v-1h2-1v1h-2v1h-4v1h-4Zm15-6 3-2 1-1-2 2-2 1Zm-15 6Zm0 0h2v-1h3l1-1h3v-1h2-1v1h-2v1h-4v1h-4Zm15-6 3-2 1-1-2 2-2 1Zm-15 6Zm0 0h2v-1h3l1-1h3v-1h2-1v1h-2v1h-4v1h-4Zm15-6 3-2 1-1-2 2-2 1Zm-15 6Zm0 0h2l1-1h2l1-1h3v-1h2l-1 1h-1l-1 1h-3l-1 1h-4Zm17-7-2 1 2-2 2-1-2 2Zm-18 7 1-1v-1l1-1 1-3 1-1 2-3 1-3c1-2 3-3 5-3l3-1h3l4 3-1 2a12 12 0 0 1-1 2v1l-2 2v1l-2 1a16 16 0 0 1-4 3h-3v1h-4v1h-3v1h-2v-1Zm2-2-1 1v1h2l1-1h2l1-1h3v-1h3v-1a17 17 0 0 0 5-4l1-1 1-1v-1l1-3v-1h-1v-1h-2l-3-1-5 2-2 2-2 3-2 5-2 2v1Zm14-4 3-2 1-1-2 2-2 1Zm-15 6h2v-1h3l1-1h3v-1h2-1v1h-2v1h-4v1h-4Zm0 0Zm15-6 3-2 1-1-2 2-2 1Zm-15 6h2v-1h3l1-1h3v-1h2-1v1h-2v1h-4v1h-4Zm0 0Zm15-6 3-2 1-1-2 2-2 1Zm-15 6h2v-1h3l1-1h3v-1h2-1v1h-2v1h-4v1h-4Zm0 0Zm15-6 3-2 1-1-2 2-2 1Zm-15 6h2v-1h3l1-1h3v-1h2-1v1h-2v1h-4v1h-4Zm0 0Zm15-6 3-2 1-1-2 2-2 1Zm-15 6h2v-1h3l1-1h3v-1h2-1v1h-2v1h-4v1h-4Zm0 0Zm15-6 3-2 1-1-2 2-2 1Zm-15 6h2v-1h3l1-1h3v-1h2-1v1h-2v1h-4v1h-4Zm0 0Zm15-6 3-2 1-1-2 2-2 1Zm-15 6h2v-1h3l1-1h3v-1h2-1v1h-2v1h-4v1h-4Zm0 0Zm15-6 3-2 1-1-2 2-2 1Zm-15 6h2v-1h3l1-1h3v-1h2-1v1h-2v1h-4v1h-4Zm0 0Zm15-6 3-2 1-1-2 2-2 1Zm-15 6h2v-1h3l1-1h3v-1h2-1v1h-2v1h-4v1h-4Zm0 0Zm15-6 3-2 1-1-2 2-2 1Zm-15 6h2v-1h3l1-1h3v-1h2-1v1h-2v1h-4v1h-4Zm0 0Zm15-6 3-2 1-1-2 2-2 1Zm-15 6h2v-1h3l1-1h3v-1h2-1v1h-2v1h-4v1h-4Zm0 0Zm15-6 3-2 1-1-2 2-2 1Zm-15 6h2v-1h3l1-1h3v-1h2-1v1h-2v1h-4v1h-4Zm0 0Zm15-6 3-2 1-1-2 2-2 1Zm-15 6h2l1-1h2l1-1h3v-1h2l-1 1h-1l-1 1h-3l-1 1h-4Zm0 0Zm15-6 3-2 1-1-2 2-2 1Zm-15 6h2l1-1h2l1-1h3v-1h2l-1 1h-1l-1 1h-3l-1 1h-4Zm0 0Zm1 0h1l1-1h2l1-1h3v-1h3v-1a17 17 0 0 0 5-4l2-1a15 15 0 0 1-2 3h-1l-1 1a91 91 0 0 0-5 3h-2v1h-4v1h-3Zm0 0h1l1-1h2l1-1h3v-1h3v-1a17 17 0 0 0 5-4l2-1a15 15 0 0 1-2 3h-1l-1 1a91 91 0 0 0-5 3h-2v1h-4v1h-3Zm0 0h1l1-1h2l1-1h3v-1h3v-1a17 17 0 0 0 5-4l2-1a15 15 0 0 1-2 3h-1l-1 1a91 91 0 0 0-5 3h-2v1h-4v1h-3Zm0 0"/><path fill="#c39d35" d="M40 90v-6a76 76 0 0 1 0-9v-2l-1-5-1-2 1-1 2 1 2 1 2 2 1 2v3l-2 5-1 3-2 3v3l-1 1v1h1-1 1v-3l1-3 3-5a15 15 0 0 0 1-8v-3l-5-3h-2l-1 1v2l1 1a11 11 0 0 1 0 5v9l1 5-1 2h1Zm0 0"/><path fill="#c39d35" d="M41 90h8c3-1 6-2 9-1l2 1 2 1-2-1-2-1-4-1-8 2h-5c-1 0-1 0 0 0Zm0 0"/><path fill="#c39d35" d="m41 90 9 1 4-1h6l2 2v-1l-4-1h-8a29 29 0 0 1-9 0Zm0 0"/><path fill="#c39d35" d="M40 90a57 57 0 0 0 7-1l3-1 2-1h3l4 1 3 3c-1-3-3-4-6-5l-3 1h-2l-5 2-6 1ZM38 96l2-5-1 3a18 18 0 0 1-1 2Zm0 0"/><path fill="#c39d35" d="M40 96v-6l1 1v1a9 9 0 0 1-1 4ZM36 96h-1l1-1 2-4a4 4 0 0 1 1 0h1l-3 2-1 2v1Zm0 0"/><path fill="#c39d35" d="M40 90h1v2h1a7 7 0 0 1 0 2v2a6 6 0 0 0 0-3l-1-2h-1v-1Zm0 0"/><path fill="#c39d35" d="M41 90v1h1a13 13 0 0 0 0 1h1v2a153 153 0 0 1 2 2l-1-1-1-1-1-2-1-1v-1Zm0 0"/><path fill="#c39d35" d="M41 91h1v1h1l3 2 2 2h1-1l-3-2a30 30 0 0 1-3-2l-1-1Zm0 0"/><path fill="#c39d35" d="m42 91 1 1v2l1 1v1l-1-2v-2h-1v-1Zm0 0"/><path fill="#c39d35" d="M42 91h1v1l4 2 4 2h-1l-7-4-1-1ZM41 90l4-1a27 27 0 0 0 5-4l2-3 3-4 4-3v-1l-7 8-3 3-4 3-4 1v1Zm0 0"/><path fill="#c39d35" d="m41 89 1-2 2-2 2-4 4-4 4-2 5-1-9 3c-3 1-4 4-6 7l-2 3-1 2c-1 0 0 0 0 0Zm0 0"/><path fill="#c39d35" d="M59 74c-3 0-5 2-7 4l-4 4a342 342 0 0 0-3 5l1-2 2-2 3-4 3-3 5-2Zm0 0"/><path fill="#c39d35" d="m41 90 5-1 4-2 4-4a77 77 0 0 0 5-6l1-2-1 2a51 51 0 0 1-5 6l-3 3a36 36 0 0 1-5 2l-5 1v1ZM40 89l1-5 1-6 1-5-1-4c-1-2-2-4-4-4h1-1c3 1 4 5 4 8v5l-1 5-1 6Zm0 0"/><path fill="#c39d35" d="M40 88V69c0-1 0-3-2-4l2 4a118 118 0 0 1 0 19Zm0 0"/><path fill="#c39d35" d="m39 65 4 2 2 5-1 5-3 6-1 6 1-6 3-5c1-4 2-8 0-11l-5-2c-1 0 0 0 0 0ZM35 86h-1l1-1v1l1 2 3 1v1h1-1l-3-2-1-2ZM34 87h-1 1Zm0 0"/><path fill="#c39d35" d="M33 87h1v1l5 2h1-4l-2-2v-1h-1Zm0 0"/><path fill="#c39d35" d="M34 81h-1v-1l1 1 1 1 1 1c1 2 1 5 3 6v1h1-1v-1l-2-2-2-4a10 10 0 0 0-1-2ZM14 95v-1h1v1h-1ZM14 94v1-1ZM9 95v-1 1h1-1ZM8 93H7h1v1-1Zm0 0"/><path fill="#c39d35" d="m7 93 1 1H7v-1ZM6 93h1v1-1H6ZM8 95h1-1ZM8 95H7h1Zm0 0"/><g clip-path="url(#a)"><path fill="#c39d35" d="m0 95 1-1h2v-1h3v1H2v1H1h6l-3 1H1l-1-1Zm0 0"/></g><path fill="#c39d35" d="M33 90ZM31 89h1v1l-1-1ZM30 90h1-1ZM29 90ZM28 90h1-1ZM27 91h1v-1 1h-1ZM31 91v-1 1l1-1h1-1l-1 1ZM29 91h1-1ZM29 91ZM27 91h1-1ZM29 92h2l3-1c1 0 1 0 0 0l-4 1ZM29 92ZM28 92ZM27 92h1-1ZM25 92h2-2ZM28 93h6c1 0 1 0 0 0h-6ZM27 93v-1h1v1h-1ZM27 93v-1 1ZM28 93h1l5 1-1 1-4-1h-1v-1ZM27 93h1-1ZM27 93ZM29 89ZM28 89h1l-1 1v-1ZM28 90v-1 1ZM14 94ZM9 95v-1 1h1a4 4 0 0 1-1 0ZM8 95h1-1ZM7 95h1-1ZM2 95h5l-3 1H2v-1ZM8 94h1-1ZM7 94h1-1ZM7 94h1l-1 1v-1ZM4 94h3v1H4v-1Zm0 0"/><g clip-path="url(#b)"><path fill="#c39d35" d="M0 59v-6 1h1v6H0Zm0 0"/></g><g clip-path="url(#c)"><path fill="#c39d35" d="M0 58v-2l1-1v-1l1-2v-1l-1-1v-1h1v6l-1 1v2a3 3 0 0 0 0 1v1H0v-2Zm0 0"/></g><g clip-path="url(#d)"><path fill="#c39d35" d="M0 60v-1h1v-1l1-2 2-5 1-2v-1h1l-1 1-1 4-1 1v1a35 35 0 0 1-2 4v1H0Zm0 0"/></g><g clip-path="url(#e)"><path fill="#c39d35" d="m0 60 1-1 2-3 1-2a17 17 0 0 1 3-3l1-1v1l-3 3-1 3a62 62 0 0 1-1 2H2a4 4 0 0 1-1 1H0Zm0 0"/></g><g clip-path="url(#f)"><path fill="#c39d35" d="M0 57v-1 4-3Zm0 0"/></g><path fill="#c39d35" d="M4 48v1h1a1 1 0 0 0 1 0 1 1 0 0 0 0-1 1 1 0 0 0-1-1v1H4Zm0 0"/><g clip-path="url(#g)"><path fill="#c39d35" d="M1 49v1a1 1 0 0 0 1 0 1 1 0 0 0 1-1 1 1 0 0 0-1-1 1 1 0 0 0-1 1Zm0 0"/></g><path fill="#c39d35" d="M7 50a1 1 0 0 0 1 1 1 1 0 0 0 1-1 1 1 0 0 0-1-1H7a1 1 0 0 0 0 1Zm0 0"/><g clip-path="url(#h)"><path fill="#c39d35" d="M0 75v-1l1 1H0Zm0 0"/></g><g clip-path="url(#i)"><path fill="#c39d35" d="M0 66h1a5 5 0 0 0 1 1v1h1v-1l-2-1-1-1v-1 2Zm0 0"/></g><g clip-path="url(#j)"><path fill="#c39d35" d="M0 62v-1h1v-1h9l3 2h1v1h-1v-1l-2-1a18 18 0 0 0-9 0H0v1Zm0 0"/></g><g clip-path="url(#k)"><path fill="#c39d35" d="M0 60v5-5Zm0 0"/></g><g clip-path="url(#l)"><path fill="#c39d35" d="M0 59h1v1H0v-1Zm0 0"/></g><g clip-path="url(#m)"><path fill="#c39d35" d="M0 58v2-2Zm0 0"/></g><g clip-path="url(#n)"><path fill="#c39d35" d="M0 39v-1h1v1h1v1l1 1v1h1v3H3v-4H2v-1a6 6 0 0 0-1-1H0Zm0 0"/></g><g clip-path="url(#o)"><path fill="#c39d35" d="M3 45v-1h1v-2h1l1-1a13 13 0 0 1 4-3l-1 1-1 1a15 15 0 0 0-4 4v1H3Zm1-1v-2h1l1-1a13 13 0 0 1 4-3l-1 1-1 1a15 15 0 0 0-4 4v1-1Zm0 0v-2h1l1-1a13 13 0 0 1 4-3l-1 1-1 1a15 15 0 0 0-4 4v1-1Zm0 0v-2h1l1-1a13 13 0 0 1 4-3l-1 1-1 1a15 15 0 0 0-4 4v1-1ZM0 60h1-1Zm1 0Zm0-4v-4 6-2Zm0-7v-1h1l1-3v-1 1l1-1v-1l1-1 1-1a13 13 0 0 1 4-3l-1 1-1 1a15 15 0 0 0-4 4v1H3v2l-1 1v3l-1-1v-1ZM0 60h1-1Zm1 0Zm0-4v-4 6-2Zm0-7v-1h1l1-3v-1 1l1-1v-1l1-1 1-1a13 13 0 0 1 4-3l-1 1-1 1a15 15 0 0 0-4 4v1H3v2l-1 1v3l-1-1v-1ZM0 60h1-1Zm1 0Zm0-4v-4 6-2Zm0-7v-1h1l1-3v-1 1l1-1v-1l1-1 1-1a13 13 0 0 1 4-3l-1 1-1 1a15 15 0 0 0-4 4v1H3v2l-1 1v3l-1-1v-1ZM0 60h1-1Zm1 0Zm0-4v-4 6-2Zm0-7v-1h1l1-3v-1 1l1-1v-1l1-1 1-1a13 13 0 0 1 4-3l-1 1-1 1a15 15 0 0 0-4 4v1H3v2l-1 1v3l-1-1v-1ZM0 60h1-1Zm1 0Zm0-4v-4 6-2Zm0-7v-1h1l1-3v-1 1l1-1v-1l1-1 1-1a13 13 0 0 1 4-3l-1 1-1 1a15 15 0 0 0-4 4v1H3v2l-1 1v3l-1-1v-1ZM0 60h1-1Zm1 0Zm0-4v-4 6-2Zm0-7v-1h1l1-3v-1 1l1-1v-1l1-1 1-1a13 13 0 0 1 4-3l-1 1-1 1a15 15 0 0 0-4 4v1H3v2l-1 1v3l-1-1v-1ZM0 60h1-1Zm1 0Zm0-4v-4 6-2Zm0-7v-1h1l1-3v-1 1l1-1v-1l1-1 1-1a13 13 0 0 1 4-3l-1 1-1 1a15 15 0 0 0-4 4v1H3v2l-1 1v3l-1-1v-1ZM0 60h1-1Zm1 0Zm0-4v-4 6-2Zm0-7v-1h1l1-3v-1 1l1-1v-1l1-1 1-1a13 13 0 0 1 4-3l-1 1-1 1a15 15 0 0 0-4 4v1H3v2l-1 1v3l-1-1v-1Zm0 11Zm0 0Zm0-2v-1 1Zm3-14v-2h1l1-1a13 13 0 0 1 4-3l-1 1-1 1a15 15 0 0 0-4 4v1-1ZM0 60h1-1c1 0 0 0 0 0Zm1 0Zm0-4v-2 4-2Zm2-11v-1h1v-2h1l1-1a13 13 0 0 1 4-3l-1 1-1 1a15 15 0 0 0-4 4v1H3ZM0 60h1-1c1 0 0 0 0 0Zm1 0Zm0-4v-2 4-2Zm2-11v-1h1v-2h1l1-1a13 13 0 0 1 4-3l-1 1-1 1a15 15 0 0 0-4 4v1H3ZM0 60h1-1Zm1-2v-4 4Zm3-13H3v-1h1v-2h1l1-1a13 13 0 0 1 4-3l-1 1-1 1a15 15 0 0 0-4 4v1ZM0 58v-4l1-3a19 19 0 0 1 0-1v-2h1l1-3v-1h1v-2h1l1-1a13 13 0 0 1 4-3h1c2 0 3 2 4 3v6c0 2-1 4-3 5l-2 2-3 2-1 1-2 2H3v1H1v1H0v-3Zm2-10v3l-1 1v8l1-1 1-1 2-1 5-4 2-2 2-2a10 10 0 0 0 0-8 5 5 0 0 0-1-2l-1-1h-1l-2 1a15 15 0 0 0-5 5v1H3v2l-1 1Zm1-3v-1h1v-2h1l1-1a13 13 0 0 1 4-3l-1 1-1 1a15 15 0 0 0-4 4v1H3ZM1 56v-2 4-2Zm-1 4h1-1Zm3-15v-1h1v-2h1l1-1a13 13 0 0 1 4-3l-1 1-1 1a15 15 0 0 0-4 4v1H3ZM1 56v-2 4-2Zm0 4Zm-1 0h1-1c1 0 0 0 0 0Zm3-15v-1h1v-2h1l1-1a13 13 0 0 1 4-3l-1 1-1 1a15 15 0 0 0-4 4v1H3ZM1 56v-2 4-2Zm0 4Zm-1 0h1-1c1 0 0 0 0 0Zm1-11v-1h1l1-3v-1 1l1-1v-1l1-1 1-1a13 13 0 0 1 4-3l-1 1-1 1a15 15 0 0 0-4 4v1H3v2l-1 1v3l-1-1v-1Zm0 7v-4 6-2Zm0 4Zm-1 0h1-1Zm1-11v-1h1l1-3v-1 1l1-1v-1l1-1 1-1a13 13 0 0 1 4-3l-1 1-1 1a15 15 0 0 0-4 4v1H3v2l-1 1v3l-1-1v-1Zm0 7v-4 6-2Zm0 4Zm-1 0h1-1Zm1-11v-1h1l1-3v-1 1l1-1v-1l1-1 1-1a13 13 0 0 1 4-3l-1 1-1 1a15 15 0 0 0-4 4v1H3v2l-1 1v3l-1-1v-1Zm0 7v-4 6-2Zm0 4Zm-1 0h1-1Zm1-11v-1h1l1-3v-1 1l1-1v-1l1-1 1-1a13 13 0 0 1 4-3l-1 1-1 1a15 15 0 0 0-4 4v1H3v2l-1 1v3l-1-1v-1Zm0 7v-4 6-2Zm0 4Zm-1 0h1-1Zm1-11v-1h1l1-3v-1 1l1-1v-1l1-1 1-1a13 13 0 0 1 4-3l-1 1-1 1a15 15 0 0 0-4 4v1H3v2l-1 1v3l-1-1v-1Zm0 7v-4 6-2Zm0 4Zm-1 0h1-1Zm1-11v-1h1l1-3v-1 1l1-1v-1l1-1 1-1a13 13 0 0 1 4-3l-1 1-1 1a15 15 0 0 0-4 4v1H3v2l-1 1v3l-1-1v-1Zm0 7v-4 6-2Zm0 4Zm-1 0h1-1Zm1-11v-1h1l1-3v-1 1l1-1v-1l1-1 1-1a13 13 0 0 1 4-3l-1 1-1 1a15 15 0 0 0-4 4v1H3v2l-1 1v3l-1-1v-1Zm0 7v-4 6-2Zm0 4Zm-1 0h1-1Zm1-11v-1h1l1-3v-1 1l1-1v-1l1-1 1-1a13 13 0 0 1 4-3l-1 1-1 1a15 15 0 0 0-4 4v1H3v2l-1 1v3l-1-1v-1Zm0 7v-4 6-2Zm0 4Zm-1 0h1-1Zm4-16v-2h1l1-1a13 13 0 0 1 4-3l-1 1-1 1a15 15 0 0 0-4 4v1-1Zm0 0v-2h1l1-1a13 13 0 0 1 4-3l-1 1-1 1a15 15 0 0 0-4 4v1-1Zm0 0v-2h1l1-1a13 13 0 0 1 4-3l-1 1-1 1a15 15 0 0 0-4 4v1-1Zm-1 1v-1h1v-2h1l1-1a13 13 0 0 1 4-3l-1 1-1 1a15 15 0 0 0-4 4v1H3Zm0 0v-1h1v-2h1l1-1a13 13 0 0 1 4-3l-1 1-1 1a15 15 0 0 0-4 4v1H3Zm0 0"/></g><g clip-path="url(#p)"><path fill="#c39d35" d="M0 60v-1h1v1-1h2v-1l3-1 5-3a16 16 0 0 1 8-3h2c2 0 3 2 4 4l1 1v1l-1 1h-3a11 11 0 0 0-5 0l-3 1h-3l-3 1H1v1-1H0Zm3-1-1 1h1v-1h3a90 90 0 0 0 9-1l2-1h1a12 12 0 0 1 5 0h3v-1l-1-1a16 16 0 0 0-2-2l-2-2h-3a14 14 0 0 0-7 4l-3 1a29 29 0 0 1-5 3Zm0 0"/></g><g fill="#c39d35" clip-path="url(#q)"><path d="M0 57v3-3ZM0 57v1l1 1H0v-2Zm0 0"/></g><g clip-path="url(#r)"><path fill="#c39d35" d="M0 42v-1l1 3 1 2v2H1v12-1H0v-5l1-1v-8l-1-3Zm0 0"/></g><g fill="#c39d35" clip-path="url(#s)"><path d="M0 60ZM0 60h1-1Zm0 0"/></g><g clip-path="url(#t)"><path fill="#c39d35" d="M1 59v-4a30 30 0 0 1 3-6l2-2 4-3 3-5c0-1 0 0 0 0l-6 8-3 4-2 4-1 4s0 1 0 0Zm0 0"/></g><path fill="#c39d35" d="m1 59 2-2 2-1 4-4 3-3 1-5v-5c1 3 0 6-1 9s-4 5-6 7l-2 2-2 2H1Zm0 0"/><path fill="#c39d35" d="m13 39-2 8-4 4-3 4c-2 1-3 2-3 4l2-4 1-2 2-2 4-3 2-4 1-5Zm0 0"/><g clip-path="url(#u)"><path fill="#c39d35" d="M1 59v-5l1-4 3-5a62 62 0 0 1 6-6l1-1c1 0 1 0 0 0l-1 1a115 115 0 0 0-5 6l-3 4-1 2-1 3v5Zm0 0"/></g><path fill="#c39d35" d="m1 60 6-2 5-2 5-1 5-1 4 3s0 1 0 0c-2-2-6-3-9-2l-5 1-5 2-6 2Zm0 0"/><path fill="#c39d35" d="m2 59 19-2 5 1-5-1a91 91 0 0 0-19 2Zm0 0"/><path fill="#c39d35" d="m26 57-3-4-5-1-6 2-4 4-6 2c-1 0-1 0 0 0l5-2 5-4c3-2 7-3 11-1 1 1 3 2 3 4Zm0 0"/><g clip-path="url(#v)"><path fill="#c39d35" d="M0 60h1v1l3 3 3 1h1l2 1H9l-1-1-4-1-3-3H0v-1Zm0 0"/></g><g clip-path="url(#w)"><path fill="#c39d35" d="M1 61v-1 1c0 2 2 4 4 5h1v1l-1-1H4l-2-2a6 6 0 0 1-1-3Zm0 0"/></g><g clip-path="url(#x)"><path fill="#c39d35" d="m0 60 1 1 7 2 2 1h1v1l-1-1-6-2a13 13 0 0 1-3-1H0v-1Zm0 0"/></g><path fill="#c39d35" d="M2 89h1v7-3l-1-4Zm0 0"/><g clip-path="url(#y)"><path fill="#c39d35" d="M1 88v5l1 1v2H1v-8Zm0 0"/></g><g clip-path="url(#z)"><path fill="#c39d35" d="M0 82v-1h1v5l-1 1v-5Zm0 0"/></g><g clip-path="url(#A)"><path fill="#c39d35" d="m0 74 1 1H0v-1Zm0 0"/></g><path fill="#c39d35" d="M2 68h1v-1H2v1ZM1 74h1v-7H1v7Zm0 0"/><g clip-path="url(#B)"><path fill="#c39d35" d="M0 66h1v8l-1-4v-4Zm0 0"/></g><g clip-path="url(#C)"><path fill="#c39d35" d="M0 73v-1 1l1 1v1-1H0v-1Zm0 0"/></g><g clip-path="url(#D)"><path fill="#c39d35" d="M0 74v-1 1h1v1l-1-1Zm0 0"/></g><g clip-path="url(#E)"><path fill="#c39d35" d="M1 89v4l1 1v2H1v-8a14 14 0 0 0 0 1Zm0 0"/></g><g clip-path="url(#F)"><path fill="#c39d35" d="M1 86v-4 3a5 5 0 0 1 0 1Zm0 0"/></g><path fill="#c39d35" d="M1 89h1v-2 9-2l-1-5ZM2 84v-1 3-2Zm0 0"/><g clip-path="url(#G)"><path fill="#c39d35" d="M1 82v2-2Zm0 0"/></g><path fill="#c39d35" d="M2 46h1v-4h1l1-3 4-6a45 45 0 0 0 7-21 38 38 0 0 1-3 23l-2 3v1H9l1-1 5-11a37 37 0 0 0 1-11v-1 1a40 40 0 0 1-1 4c-1 5-3 10-6 14l-5 9v1l-1 1h1-1v2l-1-1Zm0 0"/><path fill="#c39d35" d="M2 35v-2a51 51 0 0 1 5-19l2-4a12 12 0 0 0 0-9h1a27 27 0 0 1 0 18l-4 9-2 7v6l-1 1v2h1v1H3v1-5H2v-6Zm1 0v5-5l1-2v-2l1-2 1-2 3-8a27 27 0 0 0 2-12V6l-1-1v2l-1 4-2 4a54 54 0 0 0-4 12v8Zm0 0"/><g clip-path="url(#H)"><path fill="#c39d35" d="M3 44Zm0 0Zm0 0Zm0 0Zm-3-8v-2 1l1 1a47 47 0 0 0 1 2v2h1v3h1v2H3v1-4l-1-1v-1l-1-1v-1l-1-1v-1Zm3 8Zm0 0Zm0 0Zm0 0Zm0 0Zm0 0"/></g><g clip-path="url(#I)"><path fill="#c39d35" d="M4 41V25l1-8 2-8-1-9H5L4 9l-2 4-1 4a56 56 0 0 0 2 25c0 1 1 1 0 0a56 56 0 0 1 1-32L6 0H5l1 8-2 8-1 16v9h1Zm0 0"/></g><g clip-path="url(#J)"><path fill="#c39d35" d="M0 37v-2 1a77 77 0 0 0 2 3v1-1a291 291 0 0 1-1-6v-1l-1-3v-6 1l1 2v6l1 1v4l1 2v4-2H2a9 9 0 0 1-1-3l-1-1Zm0 0"/></g><path fill="#c39d35" d="m3 45 1-1v-2l2-2 1-1 4-5 3-5 1-6v-2a43 43 0 0 0 1-5c0-1 0-1 0 0a58 58 0 0 1-1 7c0 4-2 9-4 12l-5 6a17 17 0 0 0-2 3v1H3Zm0 0"/><path fill="#c39d35" d="M4 44a10 10 0 0 1 0-2l3-3a96 96 0 0 0 8-17v-1l1-5a18 18 0 0 1 0 5l-1 2-5 11-3 5-1 1a18 18 0 0 0-1 3H4v1ZM4 37l2-13 2-6a27 27 0 0 0 3-12h-1v6l-2 6-2 6-2 6a137 137 0 0 0 0 7Zm0 0"/><path fill="#c39d35" d="M4 37a82 82 0 0 1 4-21l1-3 2-6V6l-2 6-1 3-1 3a79 79 0 0 0-3 19ZM2 36V23l1-7 2-6 1-8H5c2 5-1 9-2 13-2 5-2 9-2 14l1 7c0 1 0 1 0 0Zm0 0"/><g clip-path="url(#K)"><path fill="#c39d35" d="M0 25v-2 1l1 2a97 97 0 0 1 1 7v6a238 238 0 0 1-1-11l-1-2v-1Zm0 0"/></g><g clip-path="url(#L)"><path fill="#c39d35" d="M0 31v-2 2l2 7v1H1v-2a229 229 0 0 0-1-6Zm0 0"/></g><path fill="#c39d35" d="m3 42-1-1 1 1v1h1v1H3v-1a14 14 0 0 0 0-1Zm0 0"/><g clip-path="url(#M)"><path fill="#c39d35" d="M0 39v-1 1h1-1Zm0 0"/></g><path fill="#c39d35" d="M3 44v-1 2-1ZM41 92l1-1h1v-1h1v-1h1l-1 1v1h-1 2a15 15 0 0 0 4-2l4-2 2-2h1l1-1a45 45 0 0 1 16-5h1-1a54 54 0 0 0-5 0 39 39 0 0 0-9 1l1-1h1a41 41 0 0 1 16-1v1a47 47 0 0 0-19 5l-1 1-2 1-8 5h-2l-1 1h-3ZM57 90ZM48 91h2-2Zm0 0"/><path fill="#c39d35" d="M42 91h6l1 1h7a53 53 0 0 0 5-1h1a53 53 0 0 0 13-4l4-2a20 20 0 0 1 4-1h-2a29 29 0 0 0-12 2l-6 2-1 1v-1c3-1 5-3 8-3a29 29 0 0 1 17 0h1-1c-3-1-6 0-9 1l-4 2a52 52 0 0 1-12 4h-1a51 51 0 0 1-8 0H42v-1Zm0 0"/><path fill="#c39d35" d="M42 91h4l1 1h2v1h1a64 64 0 0 1 3 1 58 58 0 0 0 5 2h1-3l-4-2-3-1-2-1h-3v-1h-1v1l-1-1Zm0 0"/><g clip-path="url(#N)"><path fill="#c39d35" d="M52 91Zm0 0Zm0 0Zm0 0Zm0 0Zm0 0Zm0 0Zm0 0Zm0 0Zm0 0Zm0 0Zm0 0Zm-7 0h3l1 1h1-2 4l1 1h5a57 57 0 0 0 18-1l4-2a28 28 0 0 1 6-1l-2-1-4 1-8 1a54 54 0 0 1-10 2h-9 3l3-1h3a80 80 0 0 0 11-1l8-2 8 1-1 1c-3-1-6 0-9 1a54 54 0 0 1-16 3h-8l-1-1h-5l-1-1h-2l-1-1Zm7 0Zm0 0Zm0 0Zm0 0Zm0 0Zm0 0Zm0 0Zm0 0Zm0 0Zm0 0Zm0 0Zm0 0Zm1 1h3l3-1a5 5 0 0 1 2 1h-8Zm-6-1h1l1 1h1-1l-2-1Zm-2 0h1-1Zm0 0"/></g><path fill="#c39d35" d="M49 92h2l1 1h2-3l-2-1Zm0 0h2l1 1h2-3l-2-1Zm-4-1h1a79 79 0 0 0 1 0l2 1h4l1 1h2a142 142 0 0 0 18 2h10l3 1h-2l-3-1h-9a61 61 0 0 1-9 0l-8-1-1-1h-4l-2-1h-1a8 8 0 0 0 2 1h1l4 2a28 28 0 0 0 3 1h-3l-2-1h-1l-1-1h-1l-3-2h-1l-1-1Zm4 1h2l1 1h2-3l-2-1ZM59 81l-2 1 1-1a24 24 0 0 1 2 0 38 38 0 0 1 13-2h-5l-2 1h-1l-6 1ZM43 91h1l1-1a17 17 0 0 0 4-2v-1l-1 2-3 1-1 1h-1Zm0 0"/><path fill="#c39d35" d="M44 90h1l3-1 2-1 1-1 4-3 2-1a66 66 0 0 1 11-4 24 24 0 0 1 5-1v1a21 21 0 0 0-8 1l-8 4h-1l-1 1h-1l-5 3a20 20 0 0 1-4 2l-1 1h-1l1-1ZM62 89h1l2-1 6-2a26 26 0 0 1 9-2h3-3l-2 1h-2l-6 2-6 2h-2ZM51 91l3-1-1 1h-2Zm0 0"/><path fill="#c39d35" d="m62 90 1-1a76 76 0 0 0 10-2l3-2a17 17 0 0 1 4-1h2-2l-1 1-3 1a29 29 0 0 1-6 2l-6 2h-2ZM51 91h1-1ZM52 92l14 1 6-1 7-3h8c-5-2-10 1-14 2l-7 2h-6a132 132 0 0 1-8-1Zm0 0"/><path fill="#c39d35" d="M49 92h3l1 1h5l5 1h3l3 1a61 61 0 0 0 4 1h2-6v-1h-4a86 86 0 0 0-11-2h-5v-1ZM76 96h1l2-1a17 17 0 0 1 5 1h1-9Zm0 0"/><path fill="#c39d35" d="M49 93h5l1 1h1a148 148 0 0 1 8 2h1-2l-1-1-5-1h-3l-3-1h-2ZM43 90h1v1h1l1 1a5 5 0 0 0 1 0h-1l-1-1h-1l-1-1ZM43 91a10 10 0 0 1 1 1h1-1v-1h-1ZM8 92h1-1ZM7 93v-1l1 1H7ZM7 93ZM6 93h1-1ZM3 95a7 7 0 0 1 3-2v1H5l-1 1H3ZM5 90v-1l1 1H5Zm0 0"/><g clip-path="url(#O)"><path fill="#c39d35" d="M0 95h1l1-1v-1h1v-1l1-1v-1h1a1618 1618 0 0 0 0 1l-1 1v1H3v1H2v1H1v1H0v-1Zm0 0"/></g><path fill="#c39d35" d="M4 89v-1 1ZM3 93v-2l1-1v-1 4H3c0 1 0 0 0 0ZM6 91l-1-1h2l-1 1v-1 1Zm0 0"/><path fill="#c39d35" d="M2 93h1v-1a13 13 0 0 1 2-1v-1l1 1H5l-1 2H3v1H2v-1ZM16 76h1v1h-1v1h4v-2l-3-1h-1Zm0 0"/><path fill="#c39d35" d="M14 79c0-1 1-3 3-3l1-1 1 1 1 1c0 1 0 1 0 0v-1l-2-1-4 2-1 2h1Zm0 0"/><path fill="#c39d35" d="M15 76v2a5 5 0 0 0 1 1h1l-1-1h-1v-1l1-1h-1ZM20 76l-2-2h-2v1l-1 1s2-2 5 0Zm0 0"/><path fill="#c39d35" d="m12 78 1-3 2-2 2-2 4 2 1 2 1 3v-2l-1-2c-1-2-2-3-4-3l-3 1-2 3-2 3h1Zm0 0"/><path fill="#c39d35" d="M12 78v-4l1-1 1-1 1-1 1-1 1-1 2-1h1l1 1 1 1 1 1 2 1 1 3v1l-1 2 2-2-1-3-2-2-3-2v-1l-2-1-2 2-2 1-1 1-1 1-1 1v1l-1 2v2h1Zm0 0"/><path fill="#c39d35" d="M18 71h3l1 1 1 1 1 2 1 1v1l-1 1-2 1h-1v1l1-1 2-1h1l1-2-1-1-1-2-1-1-1-1h-4ZM14 80l2 1h4l2-1c1 0 1 0 0 0h-8c-1 0-1 0 0 0ZM19 67l-2-1h-3l-2 1-1 2-1 2-1 4v5h1a18 18 0 0 1 0-8l1-2 1-2 2-1h1l1-1h1l2 2v-1Zm0 0"/><path fill="#c39d35" d="m9 76 2 2 1 1 1 1 1 1 1 1v1l1 2a9 9 0 0 1 1 2v1h1c-1 0-1 0 0 0l-1-3-1-1-1-2v-1l-1-1-2-1v-1l-2-3-1 1Zm0 0"/><path fill="#c39d35" d="M14 81a5 5 0 0 1 3 1h1l3 2 2 1 1 2v1l1 1v-1l-1-1v-2c-1-2-4-2-6-3h-1v-1l-2-1-1 1Zm0 0"/><path fill="#c39d35" d="M18 83h3l2-1v-1l-2 1h-3v1Zm0 0"/><path fill="#c39d35" d="M18 82h1l2-1h1v-1l2-1 2-1v-1l-3 2-2 2-1 1h-2c-1 0-1 0 0 0ZM18 67a4 4 0 0 1 4-1h1l1 1 1-1 2 1 1 1 1 1 1 2 1 2v2l-1 1v2-1 1-1h1v-5l-1-2-1-2-1-1-1-1h-4l-1-1-4 1v1ZM24 89v1h-2a14 14 0 0 1-3 0h-1l-3-1v1-1h4l1 1h1l1-1h1a11 11 0 0 0 2 0l1-1 1-1h1v-1h1v-2l1-1-1-1-2-2-2 1-2 1v-1h1l1-1h1a3 3 0 0 1 2 0l1 1 1 1v2l-1 2-1 1-1 1-1 1h-2Zm0 0"/><path fill="#c39d35" d="m22 90 1-1v1h2a8 8 0 0 0 3-1l1-1v-1l2-1 1-2v-4h-1a5 5 0 0 0-3-2l-1-1v1h-1v-1h1l3 1 1 1 1 2 1 2v1h-1v1l-1 1v1h-1v1h-1v1h-1a10 10 0 0 1-5 1h-1Zm0 0"/><path fill="#c39d35" d="m31 72 3 2h1v1l1 2a6 6 0 0 1-1 4v1h-1l-1 1-1 1s0 1 0 0v-1l1-1 1-1 1-1v-3a4 4 0 0 0-1-2v-1h-1l-2-2ZM8 71a17 17 0 0 1 0-2v-1a10 10 0 0 1 1-1v-1a9 9 0 0 1 1-2h1v-1l1-1h2a16 16 0 0 1 5 0l2 2 1 1v1l-2-2-2-1h-5a5 5 0 0 0-2 1v1a9 9 0 0 0-2 2v2H8v3-1Zm0 0"/><path fill="#c39d35" d="m10 71-2 1-1 1 1 3v1l1 1v2h1l-1-2v-2l-1-2v-2l2-1Zm0 0"/><path fill="#c39d35" d="m15 89-1-1v-1l-2-1-2-4-1-2H8l-1-1-1-1H5a4 4 0 0 1 0-2l1-1a3 3 0 0 1 0-1h2l-1 1H6v3l1 1h1l1 1 1 2h1v2h1v1h1v1h1l1 1v2Zm0 0"/><path fill="#c39d35" d="M3 81v-1l1-1 1-1h1l1 1H4l-1 2v5l1 2a3 3 0 0 0 1 1l1 1h1v1h1a14 14 0 0 0 1 1l1 1 3 1h1-2l-1-1h-1l-1-1H8l-1-1H6v-1H5v-1H4v-1l-1-3-1-1 1-3Zm0 0"/><path fill="#c39d35" d="m9 87 1 2 2 3 1 1h1v1h1l1 1h2l1 1h4v-1h2l1-1v-1h1v-2l1-2v3h-1v2h-1v1h-1l-1 1h-7v-1h-3v-1a2 2 0 0 1-1 0 6 6 0 0 1-1-1v-1h-1l-1-2-1-2v-1Zm0 0"/><path fill="#c39d35" d="M26 94h1v-1h2v-1h1l1-1 1-1h1v-1l1-1a3 3 0 0 0 0-1v-1l-1-1v-3h1v4a3 3 0 0 1 0 2v1l-1 1h-1v1l-1 1h-1l-1 1h-1v1h-1l-1 1v-1ZM1 70l1-1v-1l1-1h2l2-1h2v1H5l-2 1H2v7l1 1 1 1h1v2-1H4v-1H3a6 6 0 0 1-1-3H1v-4Zm0 0"/><g clip-path="url(#P)"><path fill="#c39d35" d="M0 89v-1h1v1h4v1H4v-1H0Zm0 0"/></g><g clip-path="url(#Q)"><path fill="#c39d35" d="M0 75v-1h2l-1 1H0Zm0 0"/></g><path fill="#c39d35" d="M18 96h-1 2-1ZM4 90v-1l1 1v1h1v3h1v1l1 1H7v-1H6v-2l-1-1v-1l-1-1ZM17 62v4-4ZM23 66l-1 3 1-3ZM23 66v1-1c1 0 1 0 0 0ZM30 70l-3 2 3-2ZM30 70l-1 1v1l1-2ZM8 83l-3-1H4l-1-1h2v1l3 1ZM4 83l-1-1h1v1ZM21 91l3 1h2l1-1s1 0 0 0v1h-2l-4-1ZM27 92ZM19 67v2c0 1 0 1 0 0l1-1-1-1Zm0 0"/><path fill="#c39d35" d="M19 68v1-1h1-1ZM31 86h1l2 1h-1l-2-1ZM16 71v3-3ZM16 71v1h1c0-1 0 0 0 0v-1h-1ZM20 73l-1 1h1l1-1h-1Zm0 0"/><path fill="#c39d35" d="M20 73v1l1-1h-1ZM5 90s0-1 0 0h1v1h1v1l1 1a12 12 0 0 0 0 1h1l1 1h4v-1 1H9v-1H8v-1H7v-1a9 9 0 0 0-1-1v-1H5Zm0 0"/><path fill="#c39d35" d="M12 96h1l1-1 1-1v1h-2v1h-1ZM5 90l1 1v1h1v1l1 1v1h1l1 1H9v-1H8v-1H7v-1l-1-1v-1H5v-1Zm0 0"/><path fill="#c39d35" d="M13 96h1l1-1a4 4 0 0 1 3 1h-1l-1-1-1 1h-2ZM4 89h1v2h1v2h1v1h1v1a4 4 0 0 0 1 1H8v-1H7v-2H6v-2H5v-1H4v-1ZM11 78v-3l1-2v-1l2-1 2-3 3-1-3 1-2 2-2 1v2l-1 2v3Zm0 0"/><path fill="#c39d35" d="M11 78v-6l2-2 1-1 1-1 3-1v-1l-3 1-2 3h-1l-1 2v6Zm0 0"/><path fill="#c39d35" d="M11 78v-3l-1-3 2-2 2-2 1-1 2-1-2 1-3 2-1 1-1 2v3l1 3Zm0 0"/><path fill="#c39d35" d="m11 78 2-4 1-2 1-1 2-1 2-2-2 2-1 1-2 1-1 1a19 19 0 0 0-2 5Zm0 0"/><path fill="#c39d35" d="m13 75 2-3 2-1 1-2 1-1v-1l-1 2-2 1-1 2-1 1-1 2ZM25 77l1-2-1-2-2-2h-1l-1-1-1-2c0-1 0-1 0 0v2l2 1c2 1 3 2 3 4l1 1-1 1s0 1 0 0Zm0 0"/><path fill="#c39d35" d="M26 77v-4l-2-2-2-1-1-2h-1l3 3 1 1h1l1 1v4ZM9 81v-1l-1-2H7l-1-1c-1 0-1 0 0 0h1l1 1 1 1a13 13 0 0 1 0 1v1Zm0 0"/><path fill="#c39d35" d="m9 80-1-2a7 7 0 0 0-1-1l-1-1c-1 0-1 0 0 0h1l1 1v1a11 11 0 0 1 1 2Zm0 0"/><path fill="#c39d35" d="M9 80v-1l-1-1a10 10 0 0 0-1-2l-1-1h1l1 2a15 15 0 0 1 1 3ZM9 78l-1-5c0-1-1-1 0 0l1 5ZM9 78l-1-6 1 5v1ZM9 76v-5 1a30 30 0 0 1 0 4ZM15 81l2 3 1 3 1 2c-1 1 0 1 0 0l-3-7-1-1Zm0 0"/><path fill="#c39d35" d="M15 81c2 1 4 4 4 7v2h1v-2l-1-2-2-4-2-1Zm0 0"/><path fill="#c39d35" d="m16 81 3 3 1 2 1 2v2-4l-1-2-2-2-2-1Zm0 0"/><path fill="#c39d35" d="m16 81 3 3 2 1a7 7 0 0 1 1 3v2-1 1-2l-1-3-3-3-2-1Zm0 0"/><path fill="#c39d35" d="M20 83c2 1 3 4 3 6 0 1 0 1 0 0 0-2-1-5-3-6 0 0-1 0 0 0ZM11 84l-1-5v-3 3l1 5Zm0 0"/><path fill="#c39d35" d="m11 83-1-4v-3l-1 1v2l1 4h1ZM12 84l-1-2v-5 7h1ZM11 83l1-4-1 4Zm0 0"/><path fill="#c39d35" d="m11 84 1-2 1-1v-1l-1 1v1l-1 2Zm0 0"/><path fill="#c39d35" d="M12 84v-2l1-1 1-1-1 1-1 1-1 2h1Zm0 0"/><path fill="#c39d35" d="M12 84v-1l1-1 2-1v1-1l-2 1-2 2h1Zm0 0"/><path fill="#c39d35" d="m12 84 2-1h2-3l-2 1h1Zm0 0"/><path fill="#c39d35" d="M11 84a7 7 0 0 1 4 0l1 1v-1h-5Zm0 0"/><path fill="#c39d35" d="m11 84 3 1 2 1h1l-1-1h-2l-3-1Zm0 0"/><path fill="#c39d35" d="m12 84 3 2 1 1h2-1 1-1 1-1l-1-1-1-1-3-1Zm0 0"/><path fill="#c39d35" d="m12 84 1 1 2 2 3 1h-2l-1-2-2-1-1-1c-1 0-1 0 0 0Zm0 0"/><path fill="#c39d35" d="m12 85 3 2 2 2h1c0 1 0 1 0 0h-1l-2-2c-1-1-1-2-3-2ZM16 81l3 3a10 10 0 0 1 1 6c0-1 0-1 0 0v-4l-2-4-2-1c-1 0-1 0 0 0ZM30 78l6-1c-2-1-4 0-6 1ZM30 78h6-6ZM30 78a6 6 0 0 1 4 1v1h1l-1-1-1-1h-3Zm0 0"/><path fill="#c39d35" d="M30 78c2 0 3 2 4 3-1-1-2-3-4-3ZM30 77l5-2-5 2s0 1 0 0Zm0 0"/><path fill="#c39d35" d="m30 78 3-5h-1l-2 4v1ZM7 74l-1-1-1-1-3-1 3 1h1l1 1v1h1-1Zm0 0"/><path fill="#c39d35" d="M8 74s-1 0 0 0H7v-1l-2-1v-1H3a4 4 0 0 0-1-1c-1 0-1 0 0 0h1l2 1 1 1h1v1h1v1Zm0 0"/><path fill="#c39d35" d="M8 74H6l-1-1-3 1v-1h4l1 1h1ZM7 74a5 5 0 0 0-2 1H4l-1 1c0 1 0 0 0 0l1-1 1-1h2Zm0 0"/><path fill="#c39d35" d="m7 74-2 2-1 2c1 0 0-1 0 0l1-2 2-2ZM8 73l-1-3v-2l1-2-1 2v5h1ZM7 73l-2-6 2 6c0 1 0 1 0 0Zm0 0"/><path fill="#c39d35" d="M7 73v1-1l-1-1-1-1-2-2H2v-1l3 2 2 2v1ZM7 73c0-2 0-5 2-7H8l-1 7ZM28 89h1v4h-1v-1h1v-1l-1-1v-1ZM27 94v-2h1v-3 4h-1v1Zm0 0"/><path fill="#c39d35" d="M28 88h1v2a6 6 0 0 1 1 1v1-1h-1v-2h-1v-1Zm0 0"/><path fill="#c39d35" d="M29 88a4 4 0 0 1 2 2v1-1h-1l-1-1v-1c-1 0 0 0 0 0Zm0 0"/><path fill="#c39d35" d="m29 88 3 1v1l-1-1-2-1Zm0 0"/><path fill="#c39d35" d="M29 88h1a6 6 0 0 1 2 0 6 6 0 0 1 1 1h-1l-1-1h-2Zm0 0"/><path fill="#c39d35" d="M30 88v-1l4 1v1h-1l-3-1h-1 1ZM30 87h4-4ZM30 87l4-1h-4v1ZM31 86l3-1v-1l-3 1v1Zm0 0"/><path fill="#c39d35" d="m32 85 1-1h1l-1-1-1 1v1Zm0 0"/><g clip-path="url(#R)"><path fill="#c39d35" d="M0 78h5v1-1H0Zm0 0"/></g><g clip-path="url(#S)"><path fill="#c39d35" d="M0 77h4v1h1-1l-1-1H0Zm0 0"/></g><g clip-path="url(#T)"><path fill="#c39d35" d="M0 76v-1 1h2l1 1h1a4 4 0 0 1 0 1h1-1l-1-1a29 29 0 0 0-3-1Zm0 0"/></g><g clip-path="url(#U)"><path fill="#c39d35" d="m0 79 4-1h1-1l-4 1Zm0 0"/></g><g clip-path="url(#V)"><path fill="#c39d35" d="M0 81v-1h1l3-1v-1h1l-1 1H3l-2 1H0v1Zm0 0"/></g><g clip-path="url(#W)"><path fill="#c39d35" d="M0 83v-1h1v-1a31 31 0 0 1 3-2l-1 1H2l-1 1v1H0v1Zm0 0"/></g><g clip-path="url(#X)"><path fill="#c39d35" d="M0 85v-1l1-1v-1a13 13 0 0 1 2-3h1v-1h1v1H4l-1 1a12 12 0 0 0-2 3v1H0v1Zm0 0"/></g><g clip-path="url(#Y)"><path fill="#c39d35" d="M0 88v-2h1v-4l1-1a11 11 0 0 1 2-2v-1h1v1H4l-1 1-1 1v1l-1 1v2a5 5 0 0 1 0 1l-1 1v1Zm0 0"/></g><path fill="#c39d35" d="M2 83v-2l1-1 1-1v-1h1l-1 1-1 1v1a6 6 0 0 0-1 3v5-6ZM18 82a4 4 0 0 0 2-2l-1 1-1 1Zm0 0"/><path fill="#c39d35" d="M18 82h2l1-2h-1 1l-2 1-1 1s0 1 0 0ZM18 82v-1c0-1 0-1 0 0v1ZM18 82l-1-1h-1l2 1c0 1 0 1 0 0Zm0 0"/><path fill="#c39d35" d="m18 82-1-1h-2v-1 1h1l1 1h1ZM15 81v-1h-1v1h1ZM19 83h4l4 1 1 2h1c0-1-1-2-3-2l-4-1h-1l-2-1v1Zm0 0"/><path fill="#c39d35" d="M19 83h8l2 2-3-3h-7v1Zm0 0"/><path fill="#c39d35" d="m19 83 9-1 2 1-4-1h-7v1ZM19 83h2l2 1 4 2v1h1l-2-2-4-2a129 129 0 0 1-3 0Zm0 0"/><path fill="#c39d35" d="M20 83c2 1 5 2 6 4v1-2l-2-1-4-2Zm0 0"/><path fill="#c39d35" d="m19 82 4-1c2-1 4-3 5-2l3 1v3l-1 2-1 1-1 1-1 1-1 1h-2v1l2-1h1l1-1 1-1 1-1 1-3v-2l-2-2-2-1-3 2-2 1-3 1Zm0 0"/><path fill="#c39d35" d="M19 82h3l3-1 3-1 1 1 1 2v1l-1 2a40 40 0 0 0 1-3l-1-3h-3l-3 1-2 1h-2Zm0 0"/><path fill="#c39d35" d="m26 89-3 1h-1 2v-1a53 53 0 0 0 3 0l1-1 1-1 1-1 1-3v-2l-2-2-2-1-3 1-2 2a13 13 0 0 1-2 1s-1 0 0 0a11 11 0 0 0 3-2l2-2h3l2 1 2 1v4l-2 2-1 1-1 1v1h-2Zm0 0"/></svg>