<svg xmlns="http://www.w3.org/2000/svg" width="128" height="128" version="1.0" viewBox="0 0 96 96"><defs><clipPath id="a"><path d="M88 93h8v3h-8Zm0 0"/></clipPath><clipPath id="b"><path d="M94 52h2v9h-2Zm0 0"/></clipPath><clipPath id="c"><path d="M93 48h3v13h-3Zm0 0"/></clipPath><clipPath id="d"><path d="M90 47h6v14h-6Zm0 0"/></clipPath><clipPath id="e"><path d="M87 49h9v12h-9Zm0 0"/></clipPath><clipPath id="f"><path d="M95 56h1v5h-1Zm0 0"/></clipPath><clipPath id="g"><path d="M93 48h3v3h-3Zm0 0"/></clipPath><clipPath id="h"><path d="M95 73h1v3h-1Zm0 0"/></clipPath><clipPath id="i"><path d="M92 63h4v5h-4Zm0 0"/></clipPath><clipPath id="j"><path d="M82 59h14v4H82Zm0 0"/></clipPath><clipPath id="k"><path d="M95 59h1v6h-1Zm0 0"/></clipPath><clipPath id="l"><path d="M95 59h1v1h-1Zm0 0"/></clipPath><clipPath id="m"><path d="M95 57h1v3h-1Zm0 0"/></clipPath><clipPath id="n"><path d="M92 38h4v7h-4Zm0 0"/></clipPath><clipPath id="o"><path d="M80 37h16v24H80Zm0 0"/></clipPath><clipPath id="p"><path d="M69 50h27v11H69Zm0 0"/></clipPath><clipPath id="q"><path d="M95 57h1v3h-1Zm0 0"/></clipPath><clipPath id="r"><path d="M94 41h2v20h-2Zm0 0"/></clipPath><clipPath id="s"><path d="M95 59h1v2h-1Zm0 0"/></clipPath><clipPath id="t"><path d="M83 38h13v22H83Zm0 0"/></clipPath><clipPath id="u"><path d="M83 38h13v21H83Zm0 0"/></clipPath><clipPath id="v"><path d="M86 60h10v6H86Zm0 0"/></clipPath><clipPath id="w"><path d="M89 60h7v7h-7Zm0 0"/></clipPath><clipPath id="x"><path d="M85 60h11v5H85Zm0 0"/></clipPath><clipPath id="y"><path d="M94 88h2v8h-2Zm0 0"/></clipPath><clipPath id="z"><path d="M95 80h1v7h-1Zm0 0"/></clipPath><clipPath id="A"><path d="M95 74h1v2h-1Zm0 0"/></clipPath><clipPath id="B"><path d="M94 65h2v10h-2Zm0 0"/></clipPath><clipPath id="C"><path d="M94 72h2v3h-2Zm0 0"/></clipPath><clipPath id="D"><path d="M95 73h1v2h-1Zm0 0"/></clipPath><clipPath id="E"><path d="M94 88h2v8h-2Zm0 0"/></clipPath><clipPath id="F"><path d="M94 82h2v5h-2Zm0 0"/></clipPath><clipPath id="G"><path d="M94 82h2v2h-2Zm0 0"/></clipPath><clipPath id="H"><path d="M92 34h4v12h-4Zm0 0"/></clipPath><clipPath id="I"><path d="M89 0h7v43h-7Zm0 0"/></clipPath><clipPath id="J"><path d="M92 22h4v21h-4Zm0 0"/></clipPath><clipPath id="K"><path d="M93 23h3v17h-3Zm0 0"/></clipPath><clipPath id="L"><path d="M94 29h2v11h-2Zm0 0"/></clipPath><clipPath id="M"><path d="M95 38h1v1h-1Zm0 0"/></clipPath><clipPath id="N"><path d="M7 87h44v7H7Zm0 0"/></clipPath><clipPath id="O"><path d="M90 89h6v7h-6Zm0 0"/></clipPath><clipPath id="P"><path d="M91 88h5v2h-5Zm0 0"/></clipPath><clipPath id="Q"><path d="M94 73h2v2h-2Zm0 0"/></clipPath><clipPath id="R"><path d="M91 77h5v2h-5Zm0 0"/></clipPath><clipPath id="S"><path d="M91 76h5v3h-5Zm0 0"/></clipPath><clipPath id="T"><path d="M91 75h5v4h-5Zm0 0"/></clipPath><clipPath id="U"><path d="M91 78h5v2h-5Zm0 0"/></clipPath><clipPath id="V"><path d="M91 78h5v3h-5Zm0 0"/></clipPath><clipPath id="W"><path d="M91 78h5v5h-5Zm0 0"/></clipPath><clipPath id="X"><path d="M91 78h5v7h-5Zm0 0"/></clipPath><clipPath id="Y"><path d="M91 78h5v10h-5Zm0 0"/></clipPath></defs><path fill="#c39d35" d="M55 91c-1-1-3-2-5-1h-9l6-1h6l3 1-1 1Zm0 0"/><path fill="#c39d35" d="M56 90h-3l-3-1-2-1h-3v-1h2l3 1 3 1 2 1h1Zm0 0"/><path fill="#c39d35" d="m56 91-4-3a393 393 0 0 0-7-5l5 3 4 2 2 2v1Zm0 0"/><path fill="#c39d35" d="m55 90-3-3-2-2-1-1-2-3h1l3 4 4 3 1 2h-1ZM56 91l-3-1-3 1h-3l-3 2-3 1v-1l6-2 5-1h4v1ZM46 83a1 1 0 0 1 0 1 1 1 0 0 1-1 0 1 1 0 0 1-1 0v-1a1 1 0 0 1 1 0h1ZM42 90a1 1 0 0 1-1 1 1 1 0 0 1-1-1v-1a1 1 0 0 1 1 0 1 1 0 0 1 1 1ZM46 87a1 1 0 0 1 0 1 1 1 0 0 1-1 0h-1v-2a1 1 0 0 1 1 0h1v1Zm0 0"/><path fill="#c39d35" d="M42 94a1 1 0 0 1-1 1v-1h-1a1 1 0 0 1 1-1 1 1 0 0 1 1 0v1ZM48 81a1 1 0 0 1-1 1 1 1 0 0 1-1 0 1 1 0 0 1 1-2h1v1ZM68 89h-1v-2 2h1ZM69 94v-1h-1l-1 1-4 1h-1v1h1l4-2h2ZM70 93h-1v1l1-1ZM64 90h-1v-1 1a5 5 0 0 1-3 1h-2l-1-1v-5l2-4 1-2 1-1h-1l-2 3-1 4-1 3v2h1v1h1l2 1 1-1h1l1-1h1ZM65 88h-1v1l1-1Zm0 0"/><path fill="#c39d35" d="M63 96v-1l-1-1a16 16 0 0 0 0-1l-1-2h-2l-2-1h-2v2h-1v2l-1 2h1v-2l1-2 1-1h3l1 1 2 3v1h1Zm0 0"/><path fill="#c39d35" d="M53 91Zm0 0Zm-1 1h-2 2Zm1-1Zm0 0Zm-1 1h-2 2Zm1-1Zm-1 1h-2 2Zm2-1h-3l-1 1h-1 4v-1h1Zm-7 2-3 1v1l-1 1h1l1-2 2-1Zm9-3h-1l-1 1h-3l-1 1h-2l-1 1h-1a7 7 0 0 0-1 1h-1v1l-1 1h1l1-2 2-1 2-1h4l1-1v2l-1 1v2l1-1 1-4h1v-1Zm-9 3-3 1v1l-1 1h1l1-2 2-1Zm7-2h-3l-1 1h-1 4v-1h1Zm-7 2-3 1v1l-1 1h1l1-2 2-1Zm7-2h-3l-1 1h-1 4v-1h1Zm-2 1h-2 2Zm1-1Zm-1 1h-2 2Zm1-1Zm0 0Zm0 0Zm0 0Zm0 0-1 1h-2 3v-1Zm0 0Zm0 0Zm0 0ZM41 84h-2a5 5 0 0 0-2 0l-3 2-1 2v2l1 1h-1v1h2l2-1h-3v-3l1-2a9 9 0 0 1 4-1h2v-1ZM46 92h-6 1a23 23 0 0 0 5 0ZM46 91h2-2ZM49 91Zm0 0"/><path fill="#c39d35" d="M56 91v-1h-1a15 15 0 0 0-2 0h-3l-1 1h1a10 10 0 0 1 2 0h4Zm0 0"/><path fill="#c39d35" d="M55 90h-1l-1-1h-2l-1-1h-3v-1h-3v-1a17 17 0 0 1-5-4l-2-1a15 15 0 0 0 2 3h1l1 1a91 91 0 0 1 4 3h3v1h4v1h3Zm0 0h-1l-1-1h-2l-1-1h-3v-1h-3v-1a17 17 0 0 1-5-4l-2-1a15 15 0 0 0 2 3h1l1 1a91 91 0 0 1 4 3h3v1h4v1h3Zm0 0h-1l-1-1h-2l-1-1h-3v-1h-3v-1a17 17 0 0 1-5-4l-2-1a15 15 0 0 0 2 3h1l1 1a91 91 0 0 1 4 3h3v1h4v1h3Zm1 0Zm0 0h-2l-1-1h-2l-1-1h-3v-1h-2l1 1h1l1 1h3l1 1h4Zm-15-6-3-2-1-1 2 2 2 1Zm15 6Zm0 0h-2v-1h-3l-1-1h-3v-1h-2 1v1h2v1h4v1h4Zm-15-6-3-2-1-1 2 2 2 1Zm15 6Zm0 0h-2v-1h-3l-1-1h-3v-1h-2 1v1h2v1h4v1h4Zm-15-6-3-2-1-1 2 2 2 1Zm15 6Zm0 0h-2v-1h-3l-1-1h-3v-1h-2 1v1h2v1h4v1h4Zm-15-6-3-2-1-1 2 2 2 1Zm15 6Zm0 0h-2v-1h-3l-1-1h-3v-1h-2 1v1h2v1h4v1h4Zm-15-6-3-2-1-1 2 2 2 1Zm15 6Zm0 0h-2v-1h-3l-1-1h-3v-1h-2 1v1h2v1h4v1h4Zm-15-6-3-2-1-1 2 2 2 1Zm15 6Zm0 0h-2v-1h-3l-1-1h-3v-1h-2 1v1h2v1h4v1h4Zm-15-6-3-2-1-1 2 2 2 1Zm15 6Zm0 0h-2v-1h-3l-1-1h-3v-1h-2 1v1h2v1h4v1h4Zm-15-6-3-2-1-1 2 2 2 1Zm15 6Zm0 0h-2v-1h-3l-1-1h-3v-1h-2 1v1h2v1h4v1h4Zm-15-6-3-2-1-1 2 2 2 1Zm15 6Zm0 0h-2v-1h-3l-1-1h-3v-1h-2 1v1h2v1h4v1h4Zm-15-6-3-2-1-1 2 2 2 1Zm15 6Zm0 0h-2v-1h-3l-1-1h-3v-1h-2 1v1h2v1h4v1h4Zm-15-6-3-2-1-1 2 2 2 1Zm15 6Zm0 0h-2v-1h-3l-1-1h-3v-1h-2 1v1h2v1h4v1h4Zm-15-6-3-2-1-1 2 2 2 1Zm15 6Zm0 0h-2v-1h-3l-1-1h-3v-1h-2 1v1h2v1h4v1h4Zm-15-6-3-2-1-1 2 2 2 1Zm15 6Zm0 0h-2l-1-1h-2l-1-1h-3v-1h-2l1 1h1l1 1h3l1 1h4Zm-17-7 2 1-2-2-2-1 2 2Zm18 7-1-1v-1l-1-1-1-3-1-1-2-3-1-3c-1-2-3-3-5-3l-3-1h-3l-4 3 1 2a12 12 0 0 0 1 2v1a15 15 0 0 0 4 4 16 16 0 0 0 4 3h3v1h4v1h2a17 17 0 0 1 1 0v1h2v-1Zm-2-2 1 1v1h-2l-1-1h-2l-1-1h-3v-1h-3v-1a17 17 0 0 1-5-4l-1-1-1-1v-1l-1-3v-1h1v-1h2l3-1 5 2 2 2 2 3 2 5 2 2v1Zm-14-4-3-2-1-1 2 2 2 1Zm15 6h-2v-1h-3l-1-1h-3v-1h-2 1v1h2v1h4v1h4Zm0 0Zm-15-6-3-2-1-1 2 2 2 1Zm15 6h-2v-1h-3l-1-1h-3v-1h-2 1v1h2v1h4v1h4Zm0 0Zm-15-6-3-2-1-1 2 2 2 1Zm15 6h-2v-1h-3l-1-1h-3v-1h-2 1v1h2v1h4v1h4Zm0 0Zm-15-6-3-2-1-1 2 2 2 1Zm15 6h-2v-1h-3l-1-1h-3v-1h-2 1v1h2v1h4v1h4Zm0 0Zm-15-6-3-2-1-1 2 2 2 1Zm15 6h-2v-1h-3l-1-1h-3v-1h-2 1v1h2v1h4v1h4Zm0 0Zm-15-6-3-2-1-1 2 2 2 1Zm15 6h-2v-1h-3l-1-1h-3v-1h-2 1v1h2v1h4v1h4Zm0 0Zm-15-6-3-2-1-1 2 2 2 1Zm15 6h-2v-1h-3l-1-1h-3v-1h-2 1v1h2v1h4v1h4Zm0 0Zm-15-6-3-2-1-1 2 2 2 1Zm15 6h-2v-1h-3l-1-1h-3v-1h-2 1v1h2v1h4v1h4Zm0 0Zm-15-6-3-2-1-1 2 2 2 1Zm15 6h-2v-1h-3l-1-1h-3v-1h-2 1v1h2v1h4v1h4Zm0 0Zm-15-6-3-2-1-1 2 2 2 1Zm15 6h-2v-1h-3l-1-1h-3v-1h-2 1v1h2v1h4v1h4Zm0 0Zm-15-6-3-2-1-1 2 2 2 1Zm15 6h-2v-1h-3l-1-1h-3v-1h-2 1v1h2v1h4v1h4Zm0 0Zm-15-6-3-2-1-1 2 2 2 1Zm15 6h-2v-1h-3l-1-1h-3v-1h-2 1v1h2v1h4v1h4Zm0 0Zm-15-6-3-2-1-1 2 2 2 1Zm15 6h-2l-1-1h-2l-1-1h-3v-1h-2l1 1h1l1 1h3l1 1h4Zm0 0Zm-15-6-3-2-1-1 2 2 2 1Zm15 6h-2l-1-1h-2l-1-1h-3v-1h-2l1 1h1l1 1h3l1 1h4Zm0 0Zm-1 0h-1l-1-1h-2l-1-1h-3v-1h-3v-1a17 17 0 0 1-5-4l-2-1a15 15 0 0 0 2 3h1l1 1a91 91 0 0 1 4 3h3v1h4v1h3Zm0 0h-1l-1-1h-2l-1-1h-3v-1h-3v-1a17 17 0 0 1-5-4l-2-1a15 15 0 0 0 2 3h1l1 1a91 91 0 0 1 4 3h3v1h4v1h3Zm0 0h-1l-1-1h-2l-1-1h-3v-1h-3v-1a17 17 0 0 1-5-4l-2-1a15 15 0 0 0 2 3h1l1 1a91 91 0 0 1 4 3h3v1h4v1h3Zm0 0"/><path fill="#c39d35" d="M56 90v-6a75 75 0 0 0 0-9v-2l1-5 1-2-1-1-2 1-2 1-2 2-1 2v3l2 5 1 3 2 3v3l1 1v1h-1 1-1v-3l-1-3-3-5a15 15 0 0 1-1-8v-3l5-3h2l1 1v2l-1 1a10 10 0 0 0 0 5v9l-1 5 1 2h-1Zm0 0"/><path fill="#c39d35" d="M55 90h-8c-3-1-6-2-9-1l-2 1-2 1 2-1 2-1 4-1 8 2h5c1 0 1 0 0 0Zm0 0"/><path fill="#c39d35" d="m55 90-9 1-4-1h-6l-2 2v-1l4-1h8a29 29 0 0 0 9 0Zm0 0"/><path fill="#c39d35" d="M56 90a57 57 0 0 1-7-1l-3-1-2-1h-3l-4 1-3 3c1-3 3-4 6-5l3 1h2l5 2 6 1ZM58 96l-2-5 1 3 1 2Zm0 0"/><path fill="#c39d35" d="M56 96v-6l-1 1v1a10 10 0 0 0 1 4ZM60 96h1l-1-1-2-4a4 4 0 0 0-1 0h-1l3 2 1 2v1Zm0 0"/><path fill="#c39d35" d="M56 90h-1v2h-1v4a6 6 0 0 1 0-3l1-2h1v-1Zm0 0"/><path fill="#c39d35" d="M55 90v1h-1v1h-1v2a153 153 0 0 0-2 2l1-1 1-1 1-2 1-1v-1Zm0 0"/><path fill="#c39d35" d="M55 91h-1v1h-1l-3 2-2 2h-1 1l3-2a30 30 0 0 0 3-2l1-1Zm0 0"/><path fill="#c39d35" d="m54 91-1 1v2l-1 1v1l1-2v-2h1v-1Zm0 0"/><path fill="#c39d35" d="M54 91h-1v1l-4 2-4 2h1l7-4 1-1ZM55 90l-4-1a27 27 0 0 1-5-4l-2-3-3-4-4-3v-1l7 8 3 3 4 3 4 1v1Zm0 0"/><path fill="#c39d35" d="m55 89-1-2-2-2-2-4-4-4-4-2-5-1 9 3c3 1 4 4 6 7l2 3 1 2c1 0 0 0 0 0Zm0 0"/><path fill="#c39d35" d="M37 74c3 0 5 2 7 4l4 4 3 4c1 1 2 3 4 3l-4-2-1-2-2-2-3-4-3-3-5-2Zm0 0"/><path fill="#c39d35" d="m55 90-5-1-4-2-4-4a77 77 0 0 1-5-6l-1-2 1 2a55 55 0 0 0 5 6l3 3a36 36 0 0 0 5 2l5 1v1ZM56 89l-1-5-1-6-1-5 1-4c1-2 2-4 4-4h-1 1c-3 1-4 5-4 8v5l1 5 1 6Zm0 0"/><path fill="#c39d35" d="M56 88V69c0-1 0-3 2-4l-2 4a118 118 0 0 0 0 19Zm0 0"/><path fill="#c39d35" d="m57 65-4 2-2 5 1 5 3 6 1 6-1-6-3-5c-1-4-2-8 0-11l5-2c1 0 0 0 0 0ZM61 86h1l-1-1v1l-1 2-3 1v1h-1 1a8 8 0 0 0 4-4ZM62 87h1-1Zm0 0"/><path fill="#c39d35" d="M63 87h-1v1l-5 2h-1 4a7 7 0 0 0 2-2v-1h1Zm0 0"/><path fill="#c39d35" d="M62 81h1v-1l-1 1-1 1-1 1c-1 2-1 5-3 6v1h-1 1v-1l2-2 2-4a10 10 0 0 1 1-2ZM82 95v-1h-1v1h1ZM82 94v1-1ZM87 95v-1 1h-1 1ZM88 93h1-1v1-1ZM89 93l-1 1h1v-1ZM90 93h-1v1-1h1ZM88 95h-1 1ZM88 95h1-1Zm0 0"/><g clip-path="url(#a)"><path fill="#c39d35" d="m96 95-1-1h-2v-1h-3v1h4v1a3 3 0 0 1 1 0h-6l3 1h3l1-1Zm0 0"/></g><path fill="#c39d35" d="M63 90ZM65 89h-1v1l1-1ZM66 90h-1 1ZM67 90ZM67 90ZM69 91h-1v-1 1h1ZM65 91v-1 1l-1-1h-1 1l1 1ZM67 91h-1 1ZM67 91ZM69 91h-1 1ZM67 92h-2l-3-1c-1 0-1 0 0 0l4 1ZM67 92ZM68 92ZM69 92h-1 1ZM71 92h-2 2ZM68 93h-6c-1 0-1 0 0 0h6ZM69 93v-1h-1v1h1ZM69 93v-1 1ZM68 93h-1l-5 1 1 1 4-1h1v-1ZM69 93h-1 1ZM69 93ZM67 89ZM68 89h-1l1 1v-1ZM68 90v-1 1ZM82 94ZM87 95v-1 1h-1a4 4 0 0 0 1 0ZM88 95h-1 1ZM89 95h-1 1ZM94 95h-5l3 1h2v-1ZM88 94h-1 1ZM89 94h-1 1ZM89 94h-1l1 1v-1ZM92 94h-3v1h3v-1Zm0 0"/><g clip-path="url(#b)"><path fill="#c39d35" d="M96 59v-6 1h-1v6h1Zm0 0"/></g><g clip-path="url(#c)"><path fill="#c39d35" d="M96 58v-2l-1-1v-1l-1-2v-1l1-1v-1h-1v6l1 1v4h1v-2Zm0 0"/></g><g clip-path="url(#d)"><path fill="#c39d35" d="M96 60v-1h-1v-1l-1-2-2-5-1-2v-1h-1l1 1 1 4 1 1v1a34 34 0 0 0 2 4v1h1Zm0 0"/></g><g clip-path="url(#e)"><path fill="#c39d35" d="m96 60-1-1-2-3-1-2a17 17 0 0 0-3-3l-1-1v1l3 3 1 3a62 62 0 0 0 1 2h1a4 4 0 0 0 1 1h1Zm0 0"/></g><g clip-path="url(#f)"><path fill="#c39d35" d="M96 57v-1 4-3Zm0 0"/></g><path fill="#c39d35" d="M92 48a1 1 0 0 1-1 1 1 1 0 0 1-1 0 1 1 0 0 1 1-2 1 1 0 0 1 1 1Zm0 0"/><g clip-path="url(#g)"><path fill="#c39d35" d="M95 49a1 1 0 0 1-1 1 1 1 0 0 1-1-1 1 1 0 0 1 1-1 1 1 0 0 1 1 1Zm0 0"/></g><path fill="#c39d35" d="M89 50a1 1 0 0 1-1 1 1 1 0 0 1-1-1v-1h1a1 1 0 0 1 1 1Zm0 0"/><g clip-path="url(#h)"><path fill="#c39d35" d="M96 75v-1l-1 1a10 10 0 0 1 1 0Zm0 0"/></g><g clip-path="url(#i)"><path fill="#c39d35" d="M96 66h-1a5 5 0 0 1-1 1v1h-1v-1l2-1 1-1v-1 2Zm0 0"/></g><g clip-path="url(#j)"><path fill="#c39d35" d="M96 62v-1h-1v-1h-9l-3 2h-1v1h1v-1l2-1a18 18 0 0 1 9 0h2v1Zm0 0"/></g><g clip-path="url(#k)"><path fill="#c39d35" d="M96 60v5-5Zm0 0"/></g><g clip-path="url(#l)"><path fill="#c39d35" d="M96 59h-1v1h1v-1Zm0 0"/></g><g clip-path="url(#m)"><path fill="#c39d35" d="M96 58v2-2Zm0 0"/></g><g clip-path="url(#n)"><path fill="#c39d35" d="M96 39v-1h-1v1h-1v1l-1 1v1h-1v3h1v-4h1v-1h1a6 6 0 0 1 0-1h1Zm0 0"/></g><g clip-path="url(#o)"><path fill="#c39d35" d="M93 45v-1h-1v-2h-1l-1-1a13 13 0 0 0-4-3l1 1 1 1a15 15 0 0 1 4 4v1h1Zm-1-1v-2h-1l-1-1a13 13 0 0 0-4-3l1 1 1 1a15 15 0 0 1 4 4v1-1Zm0 0v-2h-1l-1-1a13 13 0 0 0-4-3l1 1 1 1a15 15 0 0 1 4 4v1-1Zm0 0v-2h-1l-1-1a13 13 0 0 0-4-3l1 1 1 1a15 15 0 0 1 4 4v1-1Zm4 16h-1 1Zm-1 0Zm0-4v-4 6-2Zm0-7v-1h-1l-1-3v-1 1l-1-1v-1l-1-1-1-1a13 13 0 0 0-4-3l1 1 1 1a15 15 0 0 1 4 4v1h1v1a14 14 0 0 1 1 2v3l1-1v-1Zm1 11h-1 1Zm-1 0Zm0-4v-4 6-2Zm0-7v-1h-1l-1-3v-1 1l-1-1v-1l-1-1-1-1a13 13 0 0 0-4-3l1 1 1 1a15 15 0 0 1 4 4v1h1v1a14 14 0 0 1 1 2v3l1-1v-1Zm1 11h-1 1Zm-1 0Zm0-4v-4 6-2Zm0-7v-1h-1l-1-3v-1 1l-1-1v-1l-1-1-1-1a13 13 0 0 0-4-3l1 1 1 1a15 15 0 0 1 4 4v1h1v1a14 14 0 0 1 1 2v3l1-1v-1Zm1 11h-1 1Zm-1 0Zm0-4v-4 6-2Zm0-7v-1h-1l-1-3v-1 1l-1-1v-1l-1-1-1-1a13 13 0 0 0-4-3l1 1 1 1a15 15 0 0 1 4 4v1h1v1a14 14 0 0 1 1 2v3l1-1v-1Zm1 11h-1 1Zm-1 0Zm0-4v-4 6-2Zm0-7v-1h-1l-1-3v-1 1l-1-1v-1l-1-1-1-1a13 13 0 0 0-4-3l1 1 1 1a15 15 0 0 1 4 4v1h1v1a14 14 0 0 1 1 2v3l1-1v-1Zm1 11h-1 1Zm-1 0Zm0-4v-4 6-2Zm0-7v-1h-1l-1-3v-1 1l-1-1v-1l-1-1-1-1a13 13 0 0 0-4-3l1 1 1 1a15 15 0 0 1 4 4v1h1v1a14 14 0 0 1 1 2v3l1-1v-1Zm1 11h-1 1Zm-1 0Zm0-4v-4 6-2Zm0-7v-1h-1l-1-3v-1 1l-1-1v-1l-1-1-1-1a13 13 0 0 0-4-3l1 1 1 1a15 15 0 0 1 4 4v1h1v1a14 14 0 0 1 1 2v3l1-1v-1Zm1 11h-1 1Zm-1 0Zm0-4v-4 6-2Zm0-7v-1h-1l-1-3v-1 1l-1-1v-1l-1-1-1-1a13 13 0 0 0-4-3l1 1 1 1a15 15 0 0 1 4 4v1h1v1a14 14 0 0 1 1 2v3l1-1v-1Zm0 11Zm0 0Zm0-2v-1 1Zm-3-14v-2h-1l-1-1a13 13 0 0 0-4-3l1 1 1 1a15 15 0 0 1 4 4v1-1Zm4 16h-1 1c-1 0 0 0 0 0Zm-1 0Zm0-4v-2 4-2Zm-2-11v-1h-1v-2h-1l-1-1a13 13 0 0 0-4-3l1 1 1 1a15 15 0 0 1 4 4v1h1Zm3 15h-1 1c-1 0 0 0 0 0Zm-1 0Zm0-4v-2 4-2Zm-2-11v-1h-1v-2h-1l-1-1a13 13 0 0 0-4-3l1 1 1 1a15 15 0 0 1 4 4v1h1Zm3 15h-1 1Zm-1-2v-4 4Zm-3-13h1v-1h-1v-2h-1l-1-1a13 13 0 0 0-4-3l1 1 1 1a15 15 0 0 1 4 4v1Zm4 13v-4l-1-3a19 19 0 0 0 0-1v-2h-1l-1-3v-1h-1v-2h-1l-1-1a13 13 0 0 0-5-3c-2 0-3 2-4 3v6c0 2 1 4 3 5l2 2 3 2 1 1 2 2h1v1h2v1h1v-3Zm-2-10v3l1 1v8l-1-1-1-1-2-1-5-4-2-2-2-2a10 10 0 0 1 0-8 6 6 0 0 1 1-2l1-1h1l2 1a15 15 0 0 1 5 5v1h1v2l1 1Zm-1-3v-1h-1v-2h-1l-1-1a13 13 0 0 0-4-3l1 1 1 1a15 15 0 0 1 4 4v1h1Zm2 11v-2 4-2Zm1 4h-1 1Zm-3-15v-1h-1v-2h-1l-1-1a13 13 0 0 0-4-3l1 1 1 1a15 15 0 0 1 4 4v1h1Zm2 11v-2 4-2Zm0 4Zm1 0h-1 1c-1 0 0 0 0 0Zm-3-15v-1h-1v-2h-1l-1-1a13 13 0 0 0-4-3l1 1 1 1a15 15 0 0 1 4 4v1h1Zm2 11v-2 4-2Zm0 4Zm1 0h-1 1c-1 0 0 0 0 0Zm-1-11v-1h-1l-1-3v-1 1l-1-1v-1l-1-1-1-1a13 13 0 0 0-4-3l1 1 1 1a15 15 0 0 1 4 4v1h1v1a14 14 0 0 1 1 2v3l1-1v-1Zm0 7v-4 6-2Zm0 4Zm1 0h-1 1Zm-1-11v-1h-1l-1-3v-1 1l-1-1v-1l-1-1-1-1a13 13 0 0 0-4-3l1 1 1 1a15 15 0 0 1 4 4v1h1v1a14 14 0 0 1 1 2v3l1-1v-1Zm0 7v-4 6-2Zm0 4Zm1 0h-1 1Zm-1-11v-1h-1l-1-3v-1 1l-1-1v-1l-1-1-1-1a13 13 0 0 0-4-3l1 1 1 1a15 15 0 0 1 4 4v1h1v1a14 14 0 0 1 1 2v3l1-1v-1Zm0 7v-4 6-2Zm0 4Zm1 0h-1 1Zm-1-11v-1h-1l-1-3v-1 1l-1-1v-1l-1-1-1-1a13 13 0 0 0-4-3l1 1 1 1a15 15 0 0 1 4 4v1h1v1a14 14 0 0 1 1 2v3l1-1v-1Zm0 7v-4 6-2Zm0 4Zm1 0h-1 1Zm-1-11v-1h-1l-1-3v-1 1l-1-1v-1l-1-1-1-1a13 13 0 0 0-4-3l1 1 1 1a15 15 0 0 1 4 4v1h1v1a14 14 0 0 1 1 2v3l1-1v-1Zm0 7v-4 6-2Zm0 4Zm1 0h-1 1Zm-1-11v-1h-1l-1-3v-1 1l-1-1v-1l-1-1-1-1a13 13 0 0 0-4-3l1 1 1 1a15 15 0 0 1 4 4v1h1v1a14 14 0 0 1 1 2v3l1-1v-1Zm0 7v-4 6-2Zm0 4Zm1 0h-1 1Zm-1-11v-1h-1l-1-3v-1 1l-1-1v-1l-1-1-1-1a13 13 0 0 0-4-3l1 1 1 1a15 15 0 0 1 4 4v1h1v1a14 14 0 0 1 1 2v3l1-1v-1Zm0 7v-4 6-2Zm0 4Zm1 0h-1 1Zm-1-11v-1h-1l-1-3v-1 1l-1-1v-1l-1-1-1-1a13 13 0 0 0-4-3l1 1 1 1a15 15 0 0 1 4 4v1h1v1a14 14 0 0 1 1 2v3l1-1v-1Zm0 7v-4 6-2Zm0 4Zm1 0h-1 1Zm-4-16v-2h-1l-1-1a13 13 0 0 0-4-3l1 1 1 1a15 15 0 0 1 4 4v1-1Zm0 0v-2h-1l-1-1a13 13 0 0 0-4-3l1 1 1 1a15 15 0 0 1 4 4v1-1Zm0 0v-2h-1l-1-1a13 13 0 0 0-4-3l1 1 1 1a15 15 0 0 1 4 4v1-1Zm1 1v-1h-1v-2h-1l-1-1a13 13 0 0 0-4-3l1 1 1 1a15 15 0 0 1 4 4v1h1Zm0 0v-1h-1v-2h-1l-1-1a13 13 0 0 0-4-3l1 1 1 1a15 15 0 0 1 4 4v1h1Zm0 0"/></g><g clip-path="url(#p)"><path fill="#c39d35" d="M96 60v-1h-1v1-1h-2v-1l-3-1-5-3a16 16 0 0 0-8-3h-2c-2 0-3 2-4 4l-1 1v1l1 1h3a11 11 0 0 1 5 0l3 1h3l3 1h2a23 23 0 0 1 5 1v-1h1Zm-3-1 1 1h-1v-1h-3a90 90 0 0 1-9-1l-2-1h-1a12 12 0 0 0-5 0h-3v-1l1-1a16 16 0 0 1 2-2l2-2h3a15 15 0 0 1 7 4l3 1a29 29 0 0 0 5 3Zm0 0"/></g><g fill="#c39d35" clip-path="url(#q)"><path d="M96 57v3-3ZM96 57v1l-1 1h1v-2Zm0 0"/></g><g clip-path="url(#r)"><path fill="#c39d35" d="M96 42v-1l-1 3-1 2a31 31 0 0 0 1 2v12-1h1v-5l-1-1v-8l1-3Zm0 0"/></g><g fill="#c39d35" clip-path="url(#s)"><path d="M96 60ZM96 60h-1 1Zm0 0"/></g><g clip-path="url(#t)"><path fill="#c39d35" d="M95 59v-4a30 30 0 0 0-3-6l-2-2-4-3-3-5c0-1 0 0 0 0l6 8 3 4 2 4 1 4s0 1 0 0Zm0 0"/></g><path fill="#c39d35" d="m95 59-2-2-2-1-4-4-3-3-1-5v-5c-1 3 0 6 1 9s4 5 6 7l2 2 2 2h1Zm0 0"/><path fill="#c39d35" d="m83 39 2 8 4 4 3 4c2 1 3 2 3 4l-2-4-1-2-2-2-4-3-2-4-1-5Zm0 0"/><g clip-path="url(#u)"><path fill="#c39d35" d="M95 59v-5l-1-4-3-5-4-4-2-2-1-1h-1l2 1a134 134 0 0 1 5 6l3 4 1 2 1 3v5Zm0 0"/></g><path fill="#c39d35" d="m95 60-6-2-5-2-5-1-5-1-4 3s0 1 0 0c2-2 6-3 9-2l5 1 5 2 6 2Zm0 0"/><path fill="#c39d35" d="m94 59-19-2-5 1 5-1a91 91 0 0 1 19 2Zm0 0"/><path fill="#c39d35" d="m70 57 3-4 5-1 5 2 5 4 6 2c1 0 1 0 0 0l-5-2-5-4c-3-2-7-3-11-1-1 1-3 2-3 4Zm0 0"/><g clip-path="url(#v)"><path fill="#c39d35" d="M96 60h-1v1l-3 3-3 1h-1l-2 1h1l1-1 4-1 3-3h1v-1Zm0 0"/></g><g clip-path="url(#w)"><path fill="#c39d35" d="M95 61v-1 1c0 2-2 4-4 5h-1v1l1-1h1l2-2 1-3Zm0 0"/></g><g clip-path="url(#x)"><path fill="#c39d35" d="m96 60-1 1-7 2-2 1h-1v1l1-1 6-2a13 13 0 0 0 3-1h1v-1Zm0 0"/></g><path fill="#c39d35" d="M94 89h-1v7-3l1-4Zm0 0"/><g clip-path="url(#y)"><path fill="#c39d35" d="M95 88v5l-1 1v2h1v-8Zm0 0"/></g><g clip-path="url(#z)"><path fill="#c39d35" d="M96 82v-1h-1v5l1 1v-5Zm0 0"/></g><g clip-path="url(#A)"><path fill="#c39d35" d="m96 74-1 1a10 10 0 0 1 1 0v-1Zm0 0"/></g><path fill="#c39d35" d="M94 68h-1v-1h1v1ZM95 74h-1v-7h1v7Zm0 0"/><g clip-path="url(#B)"><path fill="#c39d35" d="M96 66h-1v8l1-4v-4Zm0 0"/></g><g clip-path="url(#C)"><path fill="#c39d35" d="M96 73v-1 1l-1 1v1-1h1v-1Zm0 0"/></g><g clip-path="url(#D)"><path fill="#c39d35" d="M96 74v-1 1h-1v1l1-1Zm0 0"/></g><g clip-path="url(#E)"><path fill="#c39d35" d="M95 89a166 166 0 0 1-1 5v2h1v-8a11 11 0 0 1 0 1Zm0 0"/></g><g clip-path="url(#F)"><path fill="#c39d35" d="M95 86v-4 3a5 5 0 0 0 0 1Zm0 0"/></g><path fill="#c39d35" d="M95 89h-1v-2 9-2l1-5ZM94 84v-1 3-2Zm0 0"/><g clip-path="url(#G)"><path fill="#c39d35" d="M95 82v2-2Zm0 0"/></g><path fill="#c39d35" d="M94 46h-1v-4h-1l-1-3-4-6a45 45 0 0 1-7-21 38 38 0 0 0 3 23l2 3v1h2l-1-1-5-11a37 37 0 0 1-1-11v-1 1a40 40 0 0 0 1 4c1 5 3 10 6 14l5 9v1l1 1h-1 1v2l1-1Zm0 0"/><path fill="#c39d35" d="M94 35v-2a51 51 0 0 0-5-19l-2-4a12 12 0 0 1 0-9h-1a27 27 0 0 0 0 18l4 9 2 7v6l1 1v2h-1v1h1v1-5h1v-6Zm-1 0v5-5l-1-2v-2l-1-2-1-2-3-8a26 26 0 0 1-2-13l1-1v2l1 4 2 4a54 54 0 0 1 4 12v8Zm0 0"/><g clip-path="url(#H)"><path fill="#c39d35" d="M93 44Zm0 0Zm0 0Zm0 0Zm3-8v-2 1l-1 1v1l-1 1v2h-1v3h-1v2h1v1-4l1-1v-1l1-1v-1l1-1v-1Zm-3 8Zm0 0Zm0 0Zm0 0Zm0 0Zm0 0"/></g><g clip-path="url(#I)"><path fill="#c39d35" d="M92 41V25l-1-8-2-8 1-9h1l1 9 2 4 1 4a56 56 0 0 1-2 25c0 1-1 1 0 0a56 56 0 0 0-1-32L90 0h1l-1 8 2 8 1 16v9h-1Zm0 0"/></g><g clip-path="url(#J)"><path fill="#c39d35" d="M96 37v-2 1l-1 2-1 1v1-1a291 291 0 0 0 1-6v-1l1-3v-6 1a359 359 0 0 1-1 8l-1 1v4l-1 2v4-2h1a9 9 0 0 0 1-3l1-1Zm0 0"/></g><path fill="#c39d35" d="m93 45-1-1v-1l-1-1-1-2-1-1-4-5-3-5a32 32 0 0 1-1-8l-1-3v-2c0-1 0-1 0 0a58 58 0 0 0 1 7c0 4 2 9 4 12l5 6a17 17 0 0 1 2 3v1h1Zm0 0"/><path fill="#c39d35" d="M92 44a10 10 0 0 0 0-2l-3-3a96 96 0 0 1-8-17v-1l-1-5a17 17 0 0 0 0 5l1 2 5 11 3 5 1 1a18 18 0 0 1 1 3h1a5 5 0 0 1 0 1ZM92 37l-2-13-2-6a27 27 0 0 1-3-12h1v6l2 6 2 6 2 6a137 137 0 0 1 0 7Zm0 0"/><path fill="#c39d35" d="M92 37a82 82 0 0 0-4-21l-1-3-2-6V6l2 6 1 3 1 3a80 80 0 0 1 3 19ZM94 36V23l-1-7-2-6-1-8h1c-2 5 1 9 2 13 2 5 2 9 2 14l-1 7c0 1 0 1 0 0Zm0 0"/><g clip-path="url(#K)"><path fill="#c39d35" d="M96 25v-2 1a120 120 0 0 1-2 9v4a59 59 0 0 1 0 2 238 238 0 0 1 1-11l1-2v-1Zm0 0"/></g><g clip-path="url(#L)"><path fill="#c39d35" d="M96 31v-2 2l-2 7v1h1v-2a229 229 0 0 1 1-6Zm0 0"/></g><path fill="#c39d35" d="m93 42 1-1-1 1v1h-1v1h1v-1a9 9 0 0 1 0-1Zm0 0"/><g clip-path="url(#M)"><path fill="#c39d35" d="M96 39v-1 1h-1 1Zm0 0"/></g><path fill="#c39d35" d="M93 44v-1 2-1ZM55 92l-1-1h-1v-1h-1v-1h-1l1 1v1h1-2a15 15 0 0 1-4-2l-4-2-2-2h-1l-1-1a45 45 0 0 0-16-5h-1 6a39 39 0 0 1 9 1l-1-1h-1l-16-1v1a47 47 0 0 1 19 5l1 1 2 1 8 5h2l1 1h3ZM39 90ZM48 91h-2 2Zm0 0"/><path fill="#c39d35" d="M54 91h-6l-1 1h-7a53 53 0 0 1-5-1h-1a53 53 0 0 1-13-4l-4-2a20 20 0 0 0-4-1h2a29 29 0 0 1 12 2l6 2 1 1v-1c-3-1-5-3-8-3-6-2-12-2-17 0H8h1c3-1 6 0 9 1l4 2a52 52 0 0 0 12 4h20v-1Zm0 0"/><path fill="#c39d35" d="M54 91h-4l-1 1h-2v1h-1a64 64 0 0 0-3 1 58 58 0 0 1-5 2h-1 3l4-2 3-1 2-1h3v-1h1v1l1-1Zm0 0"/><g clip-path="url(#N)"><path fill="#c39d35" d="M44 91h-3 3Zm0 0h-3 3Zm0 0h-3 3Zm0 0h-3 3Zm0 0h-3 3Zm0 0h-3 3Zm0 0h-3 3Zm0 0h-3 3Zm0 0h-3 3Zm0 0h-3 3Zm0 0h-3 3Zm0 0h-3 3Zm7 0h-3l-1 1h-1 2-4l-1 1h-5a57 57 0 0 1-18-1l-4-2a28 28 0 0 0-6-1l2-1 4 1 8 1a54 54 0 0 0 10 2h9-3l-3-1h-3a80 80 0 0 1-11-1l-8-2-8 1 1 1c3-1 6 0 9 1a54 54 0 0 0 16 3h8l1-1h5l1-1h2l1-1Zm-7 0h-3 3Zm0 0h-3 3Zm0 0h-3 3Zm0 0h-3 3Zm0 0h-3 3Zm0 0h-3 3Zm0 0h-3 3Zm0 0h-3 3Zm0 0h-3 3Zm0 0h-3 3Zm0 0h-3 3Zm0 0h-3 3Zm-1 1h-3l-3-1-2 1h8Zm6-1h-1l-1 1h-1 1l2-1Zm2 0h-1 1Zm0 0"/></g><path fill="#c39d35" d="M47 92h-2l-1 1h-2 3l2-1Zm0 0h-2l-1 1h-2 3l2-1Zm4-1h-2l-2 1h-4l-1 1h-2a141 141 0 0 1-18 2H12l-3 1h2l3-1h15a133 133 0 0 0 11-1l1-1h4l2-1h1a9 9 0 0 1-2 1h-1l-4 2a28 28 0 0 1-3 1h3a42 42 0 0 0 3-1l1-1h1l3-2h1l1-1Zm-4 1h-2l-1 1h-2 3l2-1ZM37 81l2 1-1-1h-2a38 38 0 0 0-13-2h5l2 1h1l6 1ZM53 91h-1l-1-1a17 17 0 0 1-4-2v-1l1 2 3 1 1 1h1Zm0 0"/><path fill="#c39d35" d="M52 90h-1l-3-1-2-1-1-1-4-3-2-1a68 68 0 0 0-9-3v-1a42 42 0 0 0-5 0l-2-1v1a21 21 0 0 1 8 1l8 4h1l1 1h1l5 3 3 2h1l1 1h1l-1-1ZM34 89h-1l-2-1-6-2a26 26 0 0 0-9-2h-3 3l2 1h2l6 2 6 2h2ZM45 91l-3-1 1 1a161 161 0 0 1 2 0Zm0 0"/><path fill="#c39d35" d="m34 90-1-1a76 76 0 0 1-10-2l-3-2a16 16 0 0 0-4-1 27 27 0 0 0-2 0h2l1 1 3 1a29 29 0 0 0 6 2 81 81 0 0 0 8 2ZM45 91h-1 1ZM44 92l-14 1-6-1-7-3H9c5-2 10 1 14 2l7 2h6a132 132 0 0 0 8-1Zm0 0"/><path fill="#c39d35" d="M47 92h-3l-1 1h-5a76 76 0 0 0-6 1h-2l-3 1h-1a21 21 0 0 1-3 1h-2 4a28 28 0 0 0 2-1h2a42 42 0 0 1 6-1 132 132 0 0 1 7-1h5v-1ZM20 96h-1l-2-1a17 17 0 0 0-6 1h9Zm0 0"/><path fill="#c39d35" d="M47 93h-5l-1 1h-1a143 143 0 0 0-8 2h-1 2l1-1 5-1h3l3-1h2ZM53 90h-1v1h-1l-1 1a10 10 0 0 1-1 0h1l1-1h1l1-1ZM53 91a10 10 0 0 0-2 1h1v-1h1ZM88 92h-1 1ZM89 93v-1l-1 1h1ZM89 93ZM90 93h-1 1ZM93 95a7 7 0 0 0-3-2v1h1l1 1h1ZM91 90v-1l-1 1h1Zm0 0"/><g clip-path="url(#O)"><path fill="#c39d35" d="M96 95h-1l-1-1v-1h-1v-1l-1-1v-1a10 10 0 0 0-1 0v1l1 1v1h1v1h1v1h1v1h1v-1Zm0 0"/></g><path fill="#c39d35" d="M92 89v-1 1ZM93 93v-2l-1-1v-1 4h1c0 1 0 0 0 0ZM90 91l1-1h-2l1 1v-1a12091 12091 0 0 1 0 1Zm0 0"/><path fill="#c39d35" d="M94 93h-1v-1h-1l-1-1v-1l-1 1h1l1 2h1v1h1v-1ZM80 76h-1v1h1v1h-4v-2l3-1h1Zm0 0"/><path fill="#c39d35" d="M82 79c0-1-1-3-3-3l-1-1-1 1-1 1c0 1 0 1 0 0v-1l2-1 4 2 1 2h-1Zm0 0"/><path fill="#c39d35" d="M81 76v2l-1 1h-1l1-1h1v-1l-1-1h1ZM76 76l2-2h2v1l1 1s-2-2-5 0Zm0 0"/><path fill="#c39d35" d="m84 78-1-3-2-2-2-2-4 2-1 2-1 3v-2l1-2c1-2 2-3 4-3l3 1 2 3 2 3h-1Zm0 0"/><path fill="#c39d35" d="M84 78v-4l-1-1-1-1-1-1-1-1-1-1-2-1h-1l-1 1-1 1-1 1-2 1-1 3v1l1 2-2-2 1-3 2-2 3-2v-1l2-1 2 2 2 1 1 1 1 1 1 1v1l1 2v2h-1Zm0 0"/><path fill="#c39d35" d="M78 71h-3l-1 1-1 1-1 2-1 1v1l1 1 2 1h1v1l-1-1-2-1h-1l-1-2 1-1 1-2 1-1 1-1h4ZM82 80l-2 1h-4l-2-1c-1 0-1 0 0 0h8c1 0 1 0 0 0ZM77 67l2-1h3l2 1 1 2 1 2 1 4v5h-1a18 18 0 0 0 0-8l-1-2-1-2-2-1h-1l-1-1h-1l-2 2v-1Zm0 0"/><path fill="#c39d35" d="m87 76-2 2-1 1-1 1-1 1-1 1v1l-1 2a9 9 0 0 0-1 2v1h-1c1 0 1 0 0 0l1-3 1-1 1-2v-1l1-1 2-1v-1l2-3 1 1Zm0 0"/><path fill="#c39d35" d="M82 81a5 5 0 0 0-3 1h-1l-3 2-2 1-1 2v1l-1 1v-1l1-1v-2c1-2 4-2 6-3h1v-1l2-1 1 1Zm0 0"/><path fill="#c39d35" d="M78 83h-3l-2-1v-1l2 1h3v1Zm0 0"/><path fill="#c39d35" d="M78 82h-1l-2-1h-1v-1l-2-1-2-1v-1l3 2 2 2 1 1h2c1 0 1 0 0 0ZM78 67a4 4 0 0 0-4-1h-1l-1 1-1-1-2 1-1 1-1 1-1 2-1 2v2l1 1v2-1 1-1a11 11 0 0 1-1-3v-2l1-2 1-2 1-1 1-1h4l1-1 4 1v1ZM72 89v1h2a14 14 0 0 0 3 0h1l3-1v1-1h-4l-1 1h-1l-1-1h-1a12 12 0 0 1-2 0l-1-1-1-1h-1v-1h-1a11 11 0 0 1 0-1v-1l-1-1 1-1 2-2 2 1 2 1v-1h-1l-1-1h-1a3 3 0 0 0-2 0l-1 1-1 1v2l1 2 1 1 1 1 1 1h2Zm0 0"/><path fill="#c39d35" d="m74 90-1-1a3 3 0 0 1 0 1h-2l-3-1-1-1v-1l-2-1-1-2a4 4 0 0 1 0-1v-2a5 5 0 0 1 1-1 5 5 0 0 1 3-2l1-1a2 2 0 0 1 1 1v-1h-1l-3 1-1 1-1 2-1 2v1h1v1l1 1v1h1v1h1v1h1a10 10 0 0 0 5 1h1Zm0 0"/><path fill="#c39d35" d="m65 72-3 2h-1v1l-1 2a6 6 0 0 0 1 4v1h1l1 1 1 1s0 1 0 0v-1l-1-1-1-1-1-1v-3a4 4 0 0 1 1-2v-1h1l2-2ZM88 71v-3a10 10 0 0 0-1-1v-1a9 9 0 0 0-2-2v-1l-1-1h-2a16 16 0 0 0-5 0l-2 2-1 1v1l2-2 2-1h5a5 5 0 0 1 2 1v1a9 9 0 0 1 2 2v2h1a51 51 0 0 0 0 2v1-1Zm0 0"/><path fill="#c39d35" d="m86 71 2 1 1 1-1 3v1l-1 1v2h-1l1-2v-2l1-2v-2l-2-1Zm0 0"/><path fill="#c39d35" d="m81 89 1-1v-1l2-1 2-4 1-2h1l1-1 1-1h1a4 4 0 0 0 0-2l-1-1a3 3 0 0 0 0-1h-2l1 1h1v3l-1 1h-1l-1 1-1 2h-1v2h-1v1h-1v1h-1l-1 1v2Zm0 0"/><path fill="#c39d35" d="M93 81v-1l-1-1-1-1h-1l-1 1h3l1 2v5l-1 2-1 1-1 1h-1v1h-1a15 15 0 0 1-1 1l-1 1-3 1h-1 2l1-1h1l1-1h1l1-1h1v-1h1v-1h1v-1l1-3a354 354 0 0 0 0-4Zm0 0"/><path fill="#c39d35" d="m87 87-1 2-2 3-1 1h-1v1h-1l-1 1h-2l-1 1h-4v-1h-2l-1-1v-1h-1v-2l-1-2v3h1v2h1v1h1l1 1h7v-1h3v-1h1a6 6 0 0 0 1-1 16 16 0 0 0 1-1l1-2 1-2v-1Zm0 0"/><path fill="#c39d35" d="M70 94h-1v-1h-2v-1h-1l-1-1-1-1h-1v-1l-1-1v-2l1-1v-3h-1v4a4 4 0 0 0 0 3l1 1h1v1l1 1h1l1 1h1v1h1a9 9 0 0 0 1 1v-1ZM95 70l-1-1v-1l-1-1h-2l-2-1h-2v1h4l2 1a2 2 0 0 1 1 0v7l-1 1-1 1h-1v2-1h1v-1h1a6 6 0 0 0 1-3h1v-4Zm0 0"/><g clip-path="url(#P)"><path fill="#c39d35" d="M96 89v-1h-1v1h-4v1h1v-1h4Zm0 0"/></g><g clip-path="url(#Q)"><path fill="#c39d35" d="M96 75v-1h-2l1 1h1Zm0 0"/></g><path fill="#c39d35" d="M78 96h1-2 1ZM92 90v-1h-1v2h-1v3h-1v1l-1 1h1v-1h1v-2l1-1v-1l1-1ZM79 62v4-4ZM73 66l1 3-1-3ZM73 66v1-1c-1 0-1 0 0 0ZM66 70l3 2-3-2ZM66 70l1 1v1l-1-2ZM88 83l3-1h1l1-1h-2v1l-3 1ZM92 83l1-1h-1v1ZM75 91a45 45 0 0 1-5 1l-1-1s-1 0 0 0v1h2l4-1ZM69 92ZM77 67v2c0 1 0 1 0 0l-1-1 1-1Zm0 0"/><path fill="#c39d35" d="M77 68v1-1h-1 1ZM65 86h-1l-2 1h1l2-1ZM80 71v3-3ZM80 71v1h-1c0-1 0 0 0 0v-1h1ZM76 73l1 1h-1l-1-1h1Zm0 0"/><path fill="#c39d35" d="M76 73v1l-1-1h1ZM91 90s0-1 0 0h-1v1h-1v1l-1 1a15 15 0 0 1 0 1h-1l-1 1h-4v-1 1h5v-1h1v-1h1v-1a9 9 0 0 1 1-1v-1h1Zm0 0"/><path fill="#c39d35" d="M84 96h-1l-1-1-1-1v1h2v1h1ZM91 90l-1 1v1h-1v1l-1 1v1h-1l-1 1h1v-1h1v-1h1v-1l1-1a13 13 0 0 1 0-1h1v-1Zm0 0"/><path fill="#c39d35" d="M83 96h-1l-1-1a4 4 0 0 0-3 1h1l1-1 1 1h2ZM91 89v2h-1v2h-1v1h-1v1a4 4 0 0 1-1 1h1v-1h1v-2h1v-2h1v-1h1l-1-1ZM85 78v-3l-1-2v-1l-2-1-2-3-3-1 3 1 2 2 2 1v2l1 2v3Zm0 0"/><path fill="#c39d35" d="M85 78v-6l-2-2-1-1-1-1-3-1v-1l3 1 2 3h1l1 2v6Zm0 0"/><path fill="#c39d35" d="M85 78v-3l1-3-2-2-2-2-1-1-2-1 2 1 3 2 1 1 1 2v3l-1 3Zm0 0"/><path fill="#c39d35" d="m85 78-2-4-1-2-1-1-2-1-2-2 2 2 1 1 2 1 1 1a19 19 0 0 1 2 5Zm0 0"/><path fill="#c39d35" d="m83 75-2-3-2-1-1-2-1-1v-1l1 2 2 1 1 2 1 1 1 2ZM71 77l-1-2 1-2 2-2h1l1-1 1-2c0-1 0-1 0 0v2l-2 1c-2 1-3 2-3 4l-1 1 1 1s0 1 0 0Zm0 0"/><path fill="#c39d35" d="M70 77v-4l2-2 2-1 1-2h1l-3 3-1 1h-1l-1 1v4ZM87 81v-1l1-2h1l1-1c1 0 1 0 0 0h-1l-1 1-1 1a13 13 0 0 0 0 1v1Zm0 0"/><path fill="#c39d35" d="m87 80 1-2 1-1 1-1c1 0 1 0 0 0h-1l-1 1v1l-1 2Zm0 0"/><path fill="#c39d35" d="M87 80v-1l1-1a10 10 0 0 1 1-2l1-1h-1l-1 2a15 15 0 0 0-1 3ZM87 78l1-5c0-1 1-1 0 0l-1 5ZM87 78l1-6-1 5v1ZM87 76v-5 1a30 30 0 0 0 0 4ZM81 81l-2 3-1 3-1 2c1 1 0 1 0 0l3-7 1-1Zm0 0"/><path fill="#c39d35" d="M81 81c-2 1-4 4-4 7v2h-1v-2l1-2 2-4 2-1Zm0 0"/><path fill="#c39d35" d="m80 81-3 3-1 2-1 2v2-4l1-2 2-2 2-1Zm0 0"/><path fill="#c39d35" d="m80 81-3 3-2 1a7 7 0 0 0-1 3v2-1 1-2l1-3 3-3 2-1Zm0 0"/><path fill="#c39d35" d="M76 83c-2 1-3 4-3 6 0 1 0 1 0 0 0-2 1-5 3-6 0 0 1 0 0 0ZM85 84l1-5v-3 3l-1 5Zm0 0"/><path fill="#c39d35" d="m85 83 1-4v-3l1 1v2l-1 4h-1ZM84 84l1-2v-5 7h-1ZM85 83l-1-4 1 4Zm0 0"/><path fill="#c39d35" d="m85 84-1-2-1-1v-1l1 1v1l1 2Zm0 0"/><path fill="#c39d35" d="M84 84v-2l-1-1-1-1 1 1 1 1 1 2h-1Zm0 0"/><path fill="#c39d35" d="M84 84v-1l-1-1-2-1v1-1l2 1 2 2h-1Zm0 0"/><path fill="#c39d35" d="m84 84-2-1h-2 3l2 1h-1Zm0 0"/><path fill="#c39d35" d="M85 84a7 7 0 0 0-4 0l-1 1v-1h5Zm0 0"/><path fill="#c39d35" d="m85 84-3 1-2 1h-1l1-1h2l3-1Zm0 0"/><path fill="#c39d35" d="m84 84-3 2-1 1h-2 1-1 1-1 1l1-1 1-1 3-1Zm0 0"/><path fill="#c39d35" d="m84 84-1 1-2 2-3 1h2l1-2 2-1 1-1c1 0 1 0 0 0Zm0 0"/><path fill="#c39d35" d="m84 85-3 2-2 2h-1c0 1 0 1 0 0h1l2-2c1-1 1-2 3-2ZM80 81l-3 3a10 10 0 0 0-1 6c0-1 0-1 0 0v-4l2-4 2-1c1 0 1 0 0 0ZM66 78l-6-1c2-1 4 0 6 1ZM66 78h-6 6ZM66 78a6 6 0 0 0-4 1v1h-1l1-1 1-1h3Zm0 0"/><path fill="#c39d35" d="M66 78c-2 0-3 2-4 3 1-1 2-3 4-3ZM66 77l-5-2 5 2s0 1 0 0Zm0 0"/><path fill="#c39d35" d="m66 78-3-5h1l2 4v1ZM89 74l1-1 1-1 3-1-3 1h-1l-1 1v1h-1 1Zm0 0"/><path fill="#c39d35" d="M88 74s1 0 0 0h1v-1l2-1v-1h2a4 4 0 0 1 1-1c1 0 1 0 0 0h-1l-2 1-1 1h-1v1h-1v1Zm0 0"/><path fill="#c39d35" d="M88 74h2l1-1 3 1v-1h-4l-1 1h-1ZM89 74a4 4 0 0 1 2 1h1l1 1c0 1 0 0 0 0l-1-1-1-1h-2Zm0 0"/><path fill="#c39d35" d="m89 74 2 2 1 2c-1 0 0-1 0 0l-1-2-2-2ZM88 73l1-3v-2l-1-2 1 2v5h-1ZM89 73l2-6-2 6c0 1 0 1 0 0Zm0 0"/><path fill="#c39d35" d="M89 73v1-1l1-1 1-1 2-2h1v-1l-3 2-2 2v1ZM89 73c0-2 0-5-2-7h1l1 7ZM68 89h-1v4h1v-1h-1v-2h1v-1ZM69 94v-2h-1v-3 4h1v1Zm0 0"/><path fill="#c39d35" d="M68 88h-1v2a6 6 0 0 0-1 1v1-1h1v-2h1v-1Zm0 0"/><path fill="#c39d35" d="m67 88-1 2h-1v1-1h1l1-1v-1c1 0 0 0 0 0ZM67 88l-3 1v1l1-1 2-1Zm0 0"/><path fill="#c39d35" d="M67 88h-1a6 6 0 0 0-2 0 6 6 0 0 0-1 1h1l1-1h2Zm0 0"/><path fill="#c39d35" d="M66 88v-1l-4 1v1h1l3-1h1-1ZM66 87h-4 4ZM66 87l-4-1h4v1ZM65 86l-3-1v-1l3 1v1Zm0 0"/><path fill="#c39d35" d="m64 85-1-1h-1l1-1 1 1v1Zm0 0"/><g clip-path="url(#R)"><path fill="#c39d35" d="M96 78h-5v1-1h5Zm0 0"/></g><g clip-path="url(#S)"><path fill="#c39d35" d="M96 77h-4v1h-1 1l1-1h3Zm0 0"/></g><g clip-path="url(#T)"><path fill="#c39d35" d="M96 76v-1 1h-2l-1 1h-1a4 4 0 0 0 0 1h-1 1l1-1a29 29 0 0 1 3-1Zm0 0"/></g><g clip-path="url(#U)"><path fill="#c39d35" d="m96 79-4-1h-1 1a25 25 0 0 1 4 1Zm0 0"/></g><g clip-path="url(#V)"><path fill="#c39d35" d="M96 81v-1h-1l-3-1v-1h-1l1 1h1l2 1h1v1Zm0 0"/></g><g clip-path="url(#W)"><path fill="#c39d35" d="M96 83v-1h-1v-1a1618 1618 0 0 0-3-2l1 1h1l1 1v1h1v1Zm0 0"/></g><g clip-path="url(#X)"><path fill="#c39d35" d="M96 85v-1l-1-1v-1a14 14 0 0 0-2-3h-1v-1h-1v1h1l1 1 1 2h1v2h1v1Zm0 0"/></g><g clip-path="url(#Y)"><path fill="#c39d35" d="M96 88v-2h-1v-4l-1-1a11 11 0 0 0-2-2v-1h-1v1h1l1 1 1 1v1l1 1v2a5 5 0 0 0 0 1l1 1v1Zm0 0"/></g><path fill="#c39d35" d="M94 83v-2l-1-1-1-1a8812 8812 0 0 1 0-1h-1a5 5 0 0 1 1 1l1 1v1a5 5 0 0 1 1 3v5-6ZM78 82a4 4 0 0 1-2-1v-1l1 1 1 1Zm0 0"/><path fill="#c39d35" d="M78 82h-2l-1-2c1 0 0 1 0 0l2 1 1 1s0 1 0 0ZM78 82v-1c0-1 0-1 0 0v1ZM78 82l1-1h1l-2 1c0 1 0 1 0 0Zm0 0"/><path fill="#c39d35" d="m78 82 1-1h2v-1 1h-1l-1 1h-1ZM81 81v-1h1v1h-1ZM77 83h-4l-4 1-1 2h-1c0-1 1-2 3-2l4-1h1l2-1v1Zm0 0"/><path fill="#c39d35" d="M77 83h-8l-2 2 3-3h7v1Zm0 0"/><path fill="#c39d35" d="m77 83-9-1-2 1 4-1h7v1ZM77 83h-2l-2 1-4 2v1h-1l2-2 4-2h3Zm0 0"/><path fill="#c39d35" d="M76 83c-2 1-5 2-6 4v1-2l2-1 4-2Zm0 0"/><path fill="#c39d35" d="m77 82-4-1c-2-1-4-3-5-2l-3 1v3l1 2 1 1 1 1 1 1 1 1h2v1l-2-1h-1l-1-1-1-1-1-1-1-3v-2l2-2 2-1 3 2 2 1 3 1Zm0 0"/><path fill="#c39d35" d="M77 82h-3l-3-1-3-1-1 1-1 2v1l1 2-1-2v-1l1-3h3l3 1 2 1h2Zm0 0"/><path fill="#c39d35" d="m70 89 3 1h1-2v-1h-3l-1-1-1-1-1-1-1-3v-2l2-2 2-1 3 1 2 2a13 13 0 0 0 2 1s1 0 0 0a12 12 0 0 1-3-2l-2-2h-3l-2 1-2 1v4l2 2 1 1 1 1v1h2Zm0 0"/></svg>