<svg xmlns="http://www.w3.org/2000/svg" xmlns:xlink="http://www.w3.org/1999/xlink" width="128" zoomAndPan="magnify" viewBox="0 0 96 95.999999" height="128" preserveAspectRatio="xMidYMid meet" version="1.0"><defs><clipPath id="fbe7fa0e6a"><path d="M 23 7 L 83 7 L 83 93.269531 L 23 93.269531 Z M 23 7 " clip-rule="nonzero"/></clipPath></defs><path fill="#c39d35" d="M 65.101562 54.03125 C 68.042969 57.554688 65.523438 60.191406 63.042969 60.023438 C 66.863281 60.664062 71.105469 65.734375 74.070312 63.105469 C 70.46875 67.714844 64.644531 67.984375 60.492188 66.390625 C 41.921875 59.257812 37.257812 63.476562 31.097656 68.609375 C 36.765625 60.25 42.613281 56.667969 52.75 56.765625 C 56.765625 56.800781 64.988281 59.246094 65.101562 54.03125 " fill-opacity="1" fill-rule="nonzero"/><g clip-path="url(#fbe7fa0e6a)"><path fill="#c39d35" d="M 70.433594 44.027344 C 64.035156 48.519531 56.363281 49.769531 48.941406 51.351562 C 41.675781 52.902344 35.632812 56.4375 31.167969 61.414062 C 21.960938 71.179688 21.691406 83.730469 25.050781 93.464844 C 24.726562 89.398438 24.394531 85.148438 24.933594 80.695312 C 25.785156 73.699219 28.503906 67.566406 32.75 62.835938 C 36.917969 58.1875 42.570312 54.882812 49.386719 53.429688 C 57.230469 51.761719 64.804688 50.582031 71.660156 45.773438 C 82.195312 38.382812 86.296875 22.796875 78.03125 12.980469 C 69.214844 2.519531 54.914062 9.683594 57.742188 18.324219 C 58.433594 20.4375 60.347656 22.039062 63.015625 22.054688 C 66.132812 22.078125 67.972656 18.511719 65.542969 16.242188 C 65.828125 17.238281 65.175781 18.316406 64.222656 18.726562 C 62.613281 19.421875 61.039062 18.605469 60.414062 17.234375 C 57.980469 11.890625 69.136719 5.234375 76.605469 14.011719 C 84.296875 23.054688 79.988281 37.324219 70.433594 44.027344 " fill-opacity="1" fill-rule="nonzero"/></g><path fill="#c39d35" d="M 26.6875 80.59375 C 30.234375 72.226562 40.480469 68.949219 50.386719 69.78125 C 44.085938 68.261719 33.824219 70.148438 29.277344 74.84375 C 36.90625 61.824219 52.453125 63.285156 62.242188 73.113281 C 64.28125 75.234375 66.148438 77.699219 67.785156 80.46875 C 61.03125 73.226562 55.078125 76.449219 46.375 76.292969 C 37.855469 76.140625 31.507812 75.117188 26.6875 80.59375 " fill-opacity="1" fill-rule="evenodd"/><path fill="#c39d35" d="M 57.617188 46.664062 C 61.234375 45.953125 67.878906 40.710938 65.558594 34.835938 C 61.828125 37.285156 62.714844 42.308594 57.617188 46.664062 " fill-opacity="1" fill-rule="evenodd"/><path fill="#c39d35" d="M 61.078125 52.308594 C 65.496094 51.660156 69.777344 52.957031 73.601562 55.941406 C 76.789062 54.769531 78.367188 51.726562 75.625 49.347656 C 91.789062 43.710938 81.882812 39.445312 84.332031 27.785156 C 80.964844 40.160156 77.09375 47.265625 61.078125 52.308594 " fill-opacity="1" fill-rule="evenodd"/><path fill="#c39d35" d="M 24.878906 87.722656 C 27.542969 84.132812 32.101562 81.375 36.367188 80.007812 C 33.101562 80.4375 28.292969 83.167969 26.871094 84.769531 C 30.722656 77.214844 42.605469 75.695312 45.578125 81.957031 C 41.75 77.816406 39.496094 82.683594 35.132812 84.101562 C 31.742188 85.199219 28.921875 84.664062 24.878906 87.722656 " fill-opacity="1" fill-rule="evenodd"/><path fill="#c39d35" d="M 64.765625 44.992188 C 74.246094 41.828125 83.65625 26.265625 74.917969 16.734375 C 76.40625 20.421875 70.664062 21.136719 70.71875 24.792969 C 70.738281 26.273438 72.804688 29.878906 72.875 32.359375 C 70 30.515625 68.914062 33.226562 69.238281 37 C 69.421875 39.144531 68.292969 42.519531 64.765625 44.992188 " fill-opacity="1" fill-rule="evenodd"/><path fill="#c39d35" d="M 31.378906 42.347656 C 28.332031 36.90625 21.65625 38.472656 22.601562 41.773438 C 22.933594 42.9375 24.382812 43.492188 24.875 42.113281 C 26.417969 44.484375 21.511719 45.488281 21.496094 41.628906 C 21.476562 37.660156 31.789062 34.167969 34.664062 45.621094 C 36.054688 51.160156 34.082031 57.261719 30.132812 61.25 C 31.394531 58.746094 36.234375 51.015625 31.378906 42.347656 " fill-opacity="1" fill-rule="evenodd"/><path fill="#c39d35" d="M 31.242188 59.925781 C 34.34375 53.433594 42.265625 46.753906 46.683594 44.839844 C 42.769531 45.339844 37.859375 49.300781 36.414062 51.757812 C 37.386719 48.125 41.34375 42.171875 44.429688 40.886719 C 47.925781 39.425781 51.949219 40.9375 53.683594 36.386719 C 52.957031 43.621094 49.785156 47.019531 46.484375 48.519531 C 43.21875 50 36.46875 53.007812 31.242188 59.925781 " fill-opacity="1" fill-rule="evenodd"/><path fill="#c39d35" d="M 30.949219 59.683594 C 32.554688 56.71875 33.507812 52.925781 31.835938 50.160156 C 30.917969 48.644531 29.214844 47.367188 27.09375 47.621094 C 25.460938 47.816406 24.230469 49.15625 24.136719 50.472656 C 24.011719 52.230469 26.308594 53.640625 27.574219 52.375 C 28.007812 51.941406 28.171875 51.289062 27.863281 50.738281 C 27.511719 50.101562 26.644531 49.953125 26.273438 50.5 C 26.363281 49.523438 27.738281 49.234375 28.390625 50.410156 C 28.769531 51.101562 28.53125 51.980469 27.957031 52.582031 C 26.382812 54.214844 23.636719 52.617188 23.734375 50.515625 C 23.804688 49.003906 25.164062 47.453125 27.046875 47.226562 C 29.367188 46.945312 31.21875 48.332031 32.207031 50.011719 C 34.03125 53.097656 32.890625 57.429688 30.949219 59.683594 " fill-opacity="1" fill-rule="nonzero"/><path fill="#c39d35" d="M 22.105469 76.292969 C 19.527344 71.933594 14.714844 68.289062 10.070312 66.25 C 13.699219 67.117188 18.792969 70.757812 20.210938 72.734375 C 16.757812 63.765625 8.117188 61.625 0.0429688 65.855469 C 4.875 65.113281 6.230469 68.894531 10.980469 71.003906 C 14.667969 72.644531 17.910156 72.371094 22.105469 76.292969 " fill-opacity="1" fill-rule="evenodd"/><path fill="#c39d35" d="M 22.871094 74.238281 C 23.613281 65.238281 15.886719 51.148438 5.992188 52.574219 C 9.203125 53.46875 7.863281 58.261719 10.589844 60.238281 C 13.632812 62.453125 20.765625 63.699219 22.871094 74.238281 " fill-opacity="1" fill-rule="evenodd"/><path fill="#c39d35" d="M 22.375 65.378906 C 24.707031 58.382812 21.292969 45.710938 13.167969 44.933594 C 15.542969 46.261719 13.558594 49.808594 15.335938 51.902344 C 17.324219 54.246094 22.738281 56.609375 22.375 65.378906 " fill-opacity="1" fill-rule="evenodd"/><path fill="#c39d35" d="M 53.707031 30.125 C 53.714844 30.128906 53.722656 30.132812 53.730469 30.132812 C 54.066406 30.3125 54.253906 30.695312 54.265625 31.066406 C 54.28125 31.574219 53.988281 31.992188 53.578125 32.265625 C 52.015625 33.304688 49.933594 31.664062 49.644531 30.042969 C 49.496094 29.203125 49.699219 28.191406 50.097656 27.441406 C 50.804688 26.132812 52.117188 25.222656 53.578125 24.964844 C 56.488281 24.445312 59.335938 26.125 60.71875 28.65625 C 63.492188 33.738281 60.324219 40.585938 56.675781 44.378906 C 52.625 48.589844 46.925781 51.84375 41.671875 54.351562 L 41.496094 53.960938 C 46.699219 51.476562 52.351562 48.25 56.363281 44.082031 C 57.855469 42.53125 59.125 40.613281 60.007812 38.652344 C 61.371094 35.617188 62.003906 31.914062 60.335938 28.863281 C 59.042969 26.496094 56.378906 24.90625 53.652344 25.390625 C 52.328125 25.625 51.117188 26.457031 50.480469 27.648438 C 50.125 28.308594 49.957031 29.0625 50.089844 29.808594 C 50.300781 30.984375 51.675781 32.335938 52.910156 31.757812 C 53.542969 31.460938 53.902344 30.769531 53.707031 30.125 " fill-opacity="1" fill-rule="evenodd"/><path fill="#c39d35" d="M 91.367188 28.292969 C 91.359375 28.292969 91.351562 28.292969 91.34375 28.292969 C 90.964844 28.261719 90.601562 28.488281 90.394531 28.792969 C 90.109375 29.214844 90.132812 29.722656 90.335938 30.171875 C 91.105469 31.886719 93.738281 31.609375 94.847656 30.394531 C 95.421875 29.761719 95.792969 28.796875 95.851562 27.949219 C 95.953125 26.46875 95.328125 24.996094 94.230469 24 C 92.046875 22.007812 88.742188 21.910156 86.222656 23.3125 C 83.328125 24.925781 81.773438 28.066406 81.171875 31.425781 L 81.585938 31.554688 C 82.136719 28.445312 83.578125 25.285156 86.433594 23.691406 C 88.789062 22.378906 91.894531 22.453125 93.941406 24.320312 C 94.9375 25.222656 95.511719 26.574219 95.421875 27.921875 C 95.367188 28.667969 95.105469 29.398438 94.597656 29.953125 C 93.792969 30.839844 91.910156 31.25 91.171875 30.101562 C 90.792969 29.511719 90.859375 28.734375 91.367188 28.292969 " fill-opacity="1" fill-rule="evenodd"/></svg>