<svg xmlns="http://www.w3.org/2000/svg" xmlns:xlink="http://www.w3.org/1999/xlink" width="128" zoomAndPan="magnify" viewBox="0 0 96 95.999999" height="128" preserveAspectRatio="xMidYMid meet" version="1.0"><defs><clipPath id="436e7474bf"><path d="M 13 7 L 73 7 L 73 93.269531 L 13 93.269531 Z M 13 7 " clip-rule="nonzero"/></clipPath></defs><path fill="#c39d35" d="M 30.898438 54.03125 C 27.957031 57.554688 30.476562 60.191406 32.957031 60.023438 C 29.136719 60.664062 24.894531 65.734375 21.929688 63.105469 C 25.53125 67.714844 31.355469 67.984375 35.507812 66.390625 C 54.078125 59.257812 58.742188 63.476562 64.902344 68.609375 C 59.234375 60.25 53.386719 56.667969 43.25 56.765625 C 39.234375 56.800781 31.011719 59.246094 30.898438 54.03125 " fill-opacity="1" fill-rule="nonzero"/><g clip-path="url(#436e7474bf)"><path fill="#c39d35" d="M 25.566406 44.027344 C 31.964844 48.519531 39.636719 49.769531 47.058594 51.351562 C 54.324219 52.902344 60.367188 56.4375 64.832031 61.414062 C 74.039062 71.179688 74.308594 83.730469 70.949219 93.464844 C 71.273438 89.398438 71.605469 85.148438 71.066406 80.695312 C 70.214844 73.699219 67.496094 67.566406 63.25 62.835938 C 59.082031 58.1875 53.429688 54.882812 46.613281 53.429688 C 38.769531 51.761719 31.195312 50.582031 24.339844 45.773438 C 13.804688 38.382812 9.703125 22.796875 17.96875 12.980469 C 26.785156 2.519531 41.085938 9.683594 38.257812 18.324219 C 37.566406 20.4375 35.652344 22.039062 32.984375 22.054688 C 29.867188 22.078125 28.027344 18.511719 30.457031 16.242188 C 30.171875 17.238281 30.824219 18.316406 31.777344 18.726562 C 33.386719 19.421875 34.960938 18.605469 35.585938 17.234375 C 38.019531 11.890625 26.863281 5.234375 19.394531 14.011719 C 11.703125 23.054688 16.011719 37.324219 25.566406 44.027344 " fill-opacity="1" fill-rule="nonzero"/></g><path fill="#c39d35" d="M 69.3125 80.59375 C 65.765625 72.226562 55.519531 68.949219 45.613281 69.78125 C 51.914062 68.261719 62.175781 70.148438 66.722656 74.84375 C 59.09375 61.824219 43.546875 63.285156 33.757812 73.113281 C 31.71875 75.234375 29.851562 77.699219 28.214844 80.46875 C 34.96875 73.226562 40.921875 76.449219 49.625 76.292969 C 58.144531 76.140625 64.492188 75.117188 69.3125 80.59375 " fill-opacity="1" fill-rule="evenodd"/><path fill="#c39d35" d="M 38.382812 46.664062 C 34.765625 45.953125 28.121094 40.710938 30.441406 34.835938 C 34.171875 37.285156 33.285156 42.308594 38.382812 46.664062 " fill-opacity="1" fill-rule="evenodd"/><path fill="#c39d35" d="M 34.921875 52.308594 C 30.503906 51.660156 26.222656 52.957031 22.398438 55.941406 C 19.210938 54.769531 17.632812 51.726562 20.375 49.347656 C 4.210938 43.710938 14.117188 39.445312 11.667969 27.785156 C 15.035156 40.160156 18.90625 47.265625 34.921875 52.308594 " fill-opacity="1" fill-rule="evenodd"/><path fill="#c39d35" d="M 71.121094 87.722656 C 68.457031 84.132812 63.898438 81.375 59.632812 80.007812 C 62.898438 80.4375 67.707031 83.167969 69.128906 84.769531 C 65.277344 77.214844 53.394531 75.695312 50.421875 81.957031 C 54.25 77.816406 56.503906 82.683594 60.867188 84.101562 C 64.257812 85.199219 67.078125 84.664062 71.121094 87.722656 " fill-opacity="1" fill-rule="evenodd"/><path fill="#c39d35" d="M 31.234375 44.992188 C 21.753906 41.828125 12.34375 26.265625 21.082031 16.734375 C 19.59375 20.421875 25.335938 21.136719 25.28125 24.792969 C 25.261719 26.273438 23.195312 29.878906 23.125 32.359375 C 26 30.515625 27.085938 33.226562 26.761719 37 C 26.578125 39.144531 27.707031 42.519531 31.234375 44.992188 " fill-opacity="1" fill-rule="evenodd"/><path fill="#c39d35" d="M 64.621094 42.347656 C 67.667969 36.90625 74.34375 38.472656 73.398438 41.773438 C 73.066406 42.9375 71.617188 43.492188 71.125 42.113281 C 69.582031 44.484375 74.488281 45.488281 74.503906 41.628906 C 74.523438 37.660156 64.210938 34.167969 61.335938 45.621094 C 59.945312 51.160156 61.917969 57.261719 65.867188 61.25 C 64.605469 58.746094 59.765625 51.015625 64.621094 42.347656 " fill-opacity="1" fill-rule="evenodd"/><path fill="#c39d35" d="M 64.757812 59.925781 C 61.65625 53.433594 53.734375 46.753906 49.316406 44.839844 C 53.230469 45.339844 58.140625 49.300781 59.585938 51.757812 C 58.613281 48.125 54.65625 42.171875 51.570312 40.886719 C 48.074219 39.425781 44.050781 40.9375 42.316406 36.386719 C 43.042969 43.621094 46.214844 47.019531 49.515625 48.519531 C 52.78125 50 59.53125 53.007812 64.757812 59.925781 " fill-opacity="1" fill-rule="evenodd"/><path fill="#c39d35" d="M 65.050781 59.683594 C 63.445312 56.71875 62.492188 52.925781 64.164062 50.160156 C 65.082031 48.644531 66.785156 47.367188 68.90625 47.621094 C 70.539062 47.816406 71.769531 49.15625 71.863281 50.472656 C 71.988281 52.230469 69.691406 53.640625 68.425781 52.375 C 67.992188 51.941406 67.828125 51.289062 68.136719 50.738281 C 68.488281 50.101562 69.355469 49.953125 69.726562 50.5 C 69.636719 49.523438 68.261719 49.234375 67.609375 50.410156 C 67.230469 51.101562 67.46875 51.980469 68.042969 52.582031 C 69.617188 54.214844 72.363281 52.617188 72.265625 50.515625 C 72.195312 49.003906 70.835938 47.453125 68.953125 47.226562 C 66.632812 46.945312 64.78125 48.332031 63.792969 50.011719 C 61.96875 53.097656 63.109375 57.429688 65.050781 59.683594 " fill-opacity="1" fill-rule="nonzero"/><path fill="#c39d35" d="M 73.894531 76.292969 C 76.472656 71.933594 81.285156 68.289062 85.929688 66.25 C 82.300781 67.117188 77.207031 70.757812 75.789062 72.734375 C 79.242188 63.765625 87.882812 61.625 95.957031 65.855469 C 91.125 65.113281 89.769531 68.894531 85.019531 71.003906 C 81.332031 72.644531 78.089844 72.371094 73.894531 76.292969 " fill-opacity="1" fill-rule="evenodd"/><path fill="#c39d35" d="M 73.128906 74.238281 C 72.386719 65.238281 80.113281 51.148438 90.007812 52.574219 C 86.796875 53.46875 88.136719 58.261719 85.410156 60.238281 C 82.367188 62.453125 75.234375 63.699219 73.128906 74.238281 " fill-opacity="1" fill-rule="evenodd"/><path fill="#c39d35" d="M 73.625 65.378906 C 71.292969 58.382812 74.707031 45.710938 82.832031 44.933594 C 80.457031 46.261719 82.441406 49.808594 80.664062 51.902344 C 78.675781 54.246094 73.261719 56.609375 73.625 65.378906 " fill-opacity="1" fill-rule="evenodd"/><path fill="#c39d35" d="M 42.292969 30.125 C 42.285156 30.128906 42.277344 30.132812 42.269531 30.132812 C 41.933594 30.3125 41.746094 30.695312 41.734375 31.066406 C 41.71875 31.574219 42.011719 31.992188 42.421875 32.265625 C 43.984375 33.304688 46.066406 31.664062 46.355469 30.042969 C 46.503906 29.203125 46.300781 28.191406 45.902344 27.441406 C 45.195312 26.132812 43.882812 25.222656 42.421875 24.964844 C 39.511719 24.445312 36.664062 26.125 35.28125 28.65625 C 32.507812 33.738281 35.675781 40.585938 39.324219 44.378906 C 43.375 48.589844 49.074219 51.84375 54.328125 54.351562 L 54.503906 53.960938 C 49.300781 51.476562 43.648438 48.25 39.636719 44.082031 C 38.144531 42.53125 36.875 40.613281 35.992188 38.652344 C 34.628906 35.617188 33.996094 31.914062 35.664062 28.863281 C 36.957031 26.496094 39.621094 24.90625 42.347656 25.390625 C 43.671875 25.625 44.882812 26.457031 45.519531 27.648438 C 45.875 28.308594 46.042969 29.0625 45.910156 29.808594 C 45.699219 30.984375 44.324219 32.335938 43.089844 31.757812 C 42.457031 31.460938 42.097656 30.769531 42.292969 30.125 " fill-opacity="1" fill-rule="evenodd"/><path fill="#c39d35" d="M 4.632812 28.292969 C 4.640625 28.292969 4.648438 28.292969 4.65625 28.292969 C 5.035156 28.261719 5.398438 28.488281 5.605469 28.792969 C 5.890625 29.214844 5.867188 29.722656 5.664062 30.171875 C 4.894531 31.886719 2.261719 31.609375 1.152344 30.394531 C 0.578125 29.761719 0.207031 28.796875 0.148438 27.949219 C 0.046875 26.46875 0.671875 24.996094 1.769531 24 C 3.953125 22.007812 7.257812 21.910156 9.777344 23.3125 C 12.671875 24.925781 14.226562 28.066406 14.828125 31.425781 L 14.414062 31.554688 C 13.863281 28.445312 12.421875 25.285156 9.566406 23.691406 C 7.210938 22.378906 4.105469 22.453125 2.058594 24.320312 C 1.0625 25.222656 0.488281 26.574219 0.578125 27.921875 C 0.632812 28.667969 0.894531 29.398438 1.402344 29.953125 C 2.207031 30.839844 4.089844 31.25 4.828125 30.101562 C 5.207031 29.511719 5.140625 28.734375 4.632812 28.292969 " fill-opacity="1" fill-rule="evenodd"/></svg>