<svg xmlns="http://www.w3.org/2000/svg" width="128" height="128" version="1.0" viewBox="0 0 96 96"><defs><clipPath id="a"><path d="M5.4 0H96v96H5.4Zm0 0"/></clipPath></defs><g clip-path="url(#a)"><path fill="#c39d35" d="M95 12.2h.2l.1-.1c0-.1-.2 0-.2-.2h.5l-.3-.2c-.3 0-.3 0-.4-.2V10.9l.4-.1c0-.1-.1 0-.2 0h-.4v-.2h.2c0-.1-.1 0-.2 0v-.1h1c0-.2-.2-.2-.3-.2a4 4 0 0 0-.9 0c-.1 0-.2 0-.3-.2V10c-.2-.2-.2-.2 0-.4v-.2A19.1 19.1 0 0 1 95 9l-1 .2.4-.2h-.5v-.2c.1 0 .3 0 .2-.1 0-.1-.1 0-.2 0l-.2-1 .1-.3V7s0 .3-.2.3c0-.1-.1-.1 0-.2v-.3l.1-.2c-.1 0-.1.2-.3.2l.2-.5-.3.2s-.1-.1 0-.2c0-.2 0-.4.2-.5v-.4l-.2.4V6H93v-.3l.4-.5.2-.4h-.2l-.5.8v.1h-.2V5l-.1.1.1-.5.1-.3-.4.5v-.2l.3-.7.2-.4.1-.2-.1.2-.5.6-.1.3h-.1V4l-.1-.2.2-1-.4.8V3l.2-.8V2v.1l-.3.6v.1h-.1c0-.7.2-1.2.4-1.8.1-.3.3-.7.6-1h-.3l-.4.7L92 0h-.2v1.2l-.1-.3V0h-.2V1l-.1-.5-.1-.4H91l.1.4.2 1.6v.5h-.1v-.1a10.4 10.4 0 0 0-.5-2.4l.1 1 .1 1-.2-.3c0-.5-.2-1-.3-1.4l-.1-.3h-.1v.3a56.4 56.4 0 0 1 0 1L89.9 0h-.1l.1.7V1a.3.3 0 0 1-.2-.3l-.1-.7h-.3c0 .2.2.3.1.5l-.6-.5h-.9V1 .4l.1-.2h.1l.1.2v.4c.1 0 0-.1 0-.2h.1V1l.1.4.1-.5V.6c.1 0 .1-.1.2 0v.5c.2-.1.1-.3.2-.4v.9l.2-.3V1c0-.1 0 0 .1 0 0 0 .1-.1.2 0v.2a20.3 20.3 0 0 0 .3.7v-.6c0 .1 0 .2.2.2l.2.4v-.2l.3.8.1.8V2l.3.8.1-.2c.2.2.2.3.2.5v.3H91.5s0 .3.1.2l.3.4c.2.7.6 1.3 1 1.8l.1.2h-.2l-.1-.2-.4-.5c-.1 0 0 0 0 .1l.2.4h-.1a1 1 0 0 1-.3-.2c0-.2-.2-.3-.3-.5l.2.5c-.3 0-.3 0-.7-.8v.3H91l-.4-.8s0-.2-.2-.3v.4a.5.5 0 0 1-.3-.3s0-.2-.2 0V4l-.3-.6v-.2V3.8a.4.4 0 0 1-.3-.2l-.2-.4V3.5l-.3-.1-.2-.5-.1-.2v.4a.5.5 0 0 1-.3-.3l-.1-.4-.2-.4v.5c0-.2 0-.3-.2-.4 0 0 0 .1-.1 0l-.1-.3v-.3l-.1-.4v.7c-.4 0-.4-.3-.4-.5h-.1c0 .2 0 .2-.1.1h-.2l-.1-.2-.1-.2v.2H86l-.1-.2h-.1s0-.1-.1 0h-.1l-.1-.1-.2-.2c-.3-.2-.3-.4-.4-.7h-.1v.4H84.4c-.4.1-.3.1-.5-.2V0c0 .2-.2.3-.1.4v.1h-.2l-.2-.5-.1.2v.2l-.1.2H83V0h-.2c0 .2 0 .3-.2.4V0h-1v.3l.2-.1v.1H82.3c.4.3.7.6.8 1v.1c.1-.2 0-.5.3-.6l.1.3V1c.1-.1.1-.3.3-.2h.3l.1.2v.5l.1-.2h.3v.4h.1c0-.1.1 0 .1 0l.1.2c.1 0 0 .1 0 .2v.4l.2-.2.2.1c.2.1.2.3.2.5H85.7v.5h.1c.1-.2.1-.1.2 0v.4H86.4V4s0 .1 0 0l.2.1v.6l.1-.2h.1l.1.3v.3c0 .1 0 0 0 0h.1c0-.2.1-.2.1-.1.2.1.2.3.3.4v.4l.1-.1v-.1h.1v.1h.3v.1c.2 0 .3.2.2.4.2-.1.2 0 .2.1V7l.1-.1.1-.2h.2V7c.2 0 .2-.1.2-.2h.1v.5h.4l.1.3v.2h.2l.5.7.5.8.5.7c0 .1 0 0-.1 0-.4 0-.7-.2-.8-.5-.3-.1-.3-.4-.3-.6l-.1-.1v.4c-.4-.1-.5-.3-.5-.7v.1H89V8c-.2.1-.2.3-.2.4-.3-.2-.4-.5-.4-.8V8l-.1.1h-.1l-.1-.3v-.1H88v-.1c-.2 0-.2-.2-.1-.3V7s0-.2-.1-.1v-.4l-.2.3V7h-.1v-.2h-.2l-.1-.2c0-.1 0-.2-.1 0l-.1-.2c0-.2-.2-.4-.1-.6-.1 0 0 .2-.2.3a.8.8 0 0 1-.2-.6v-.2H86.2v-.4s0 .2-.2.2V5c0-.1 0-.2-.1 0h-.1v-.3h-.2v-.4c-.1.1-.2.1-.2 0s-.1-.2 0-.4h-.2V4H85v-.5h-.2v-.3h-.3c-.1 0-.1-.2-.3-.2V2.3l-.1.3v.1H84c-.2-.3-.3-.5-.3-.8v-.4l-.1.8-.7-.5c-.2 0-.3-.2-.4-.4v.1h-.2l-.1-.1V1c-.2.1 0 .2-.1.3h-.2l-.1-.1v.1h-.5c0 .1 0 .1-.1 0H81l-.1-.1-.2-.1c-.2 0 0 .2 0 .3h-.1c-.5 0-.5 0-.6-.4V.7c0-.3.2-.4.4-.4h.2l.2.2c.1 0 0-.1 0-.2s-.2-.2-.1-.3h-.9v.4h-.1l-.2-.4v.3s.1.1 0 .2v.2l.3.4h-.2c0-.2-.2-.3-.3-.5v.2l.2.4-.2-.1v.1c.2.1.1.2 0 .3l-.2-.1-.3-.2-.1-.1a6 6 0 0 0-.4-.5l.2.5.3.5c-.5.1-.7 0-1-.2V1.7h-.5c0 .1-.2 0-.2 0l-.1-.8V0H77v1l-.1.3c-.4.2-.7.3-1.1.3l-.1-.1v-.3l.1-.6a1 1 0 0 0-.3-.5h-1.5H75l-.2.1-.7.1h.8v.1h.4c0 .2-.1.1-.2.2h-.8v.1h.2l.7.1c-.1 0-.3 0-.4.2h.6l-.9.3h.7c.2 0 .2 0 .2.3l-.2.1h-.4l-.4.1h.8V2H75V2l.4.1c.1 0 .2.1.2.3a3 3 0 0 0-.7.1h.3l.2.1h.1l.1.2h-.3l-.4.1.6.1v.2s0 .1 0 0h-1l.7.2h.2v.3l-.1.1h-.3l.3.1.1.1v.2l-.5.1h-.2l.6.2h-.9l.2.1h.3l.3.1c.1 0 .2 0 .1.3v.6c0 .2-.2.2-.4.2h-.1c0 .2.2.1.3.2l-.3.1c.4.1.3.1.2.5l-.1.1h-.3l.3.2c0 .2 0 .4-.2.5h-.2v.1c0 .3 0 .3-.2.4L74 8l-1.3.4.5-.9h.5c-.1-.1-.3 0-.3-.2h.3l-.2-.1c-.1 0-.2-.2-.1-.4l.4.1-.3-.2v-.2c-.2-.1 0-.1 0-.2h-.3v-.1c.1 0 .2 0 .1-.1l-.1-.2H73v-.1h.4l-.7-.2h.2l-.3-.2h1.1l-1.2-.1c.1-.1 0-.1 0-.1L72 5V5l.2-.1.4-.1h-.8v-.2l.3-.1h-.5c0-.2 0-.2.2-.3h.2V4l-.6.2V4c.3 0 .5-.2.7-.3l-.5.1-.4.2s.1-.2 0-.2l.3-.3a50 50 0 0 1 0-.2l-.2.1v-.4l.4-.2.3-.2c-.2 0-.4 0-.6.2h-.1v-.1l.3-.2-.3.1s-.1 0 0-.1v-.1l.4-.2-.2-.1v-.3l.1-.1h-.3l-.1.1s-.1 0 0 0c0-.2.1-.4.3-.5h.1c0-.1 0-.1-.1 0l-.3.1s-.1.1-.2 0l.1-.1.3-.3.2-.1-.4.1V.8L71 .8l.2-.3-.2.2V.4l-.2.2V.4l.3-.2.1-.2h-.3c0 .2 0 .2-.2.3V0H70.4l-.3.1s0 .1 0 0c.4 0 .3 0 .4.4v.2c.1 0 .2 0 .2.2s0 .2-.2.2h-.1l.3.1c-.2 0-.3 0-.5.2h.4v.2h-.3l.5.1V2a2 2 0 0 0-.4.1h.4l-.1.2s.2 0 .2.2c0 0-.1.1 0 .2h-.4c0 .1 0 .2-.2.3a19.3 19.3 0 0 1 .6 0h.2l-.1.8-.4.1.3.1h-.3l-.3.2h.5l.2.1c0 .1-.1 0-.2 0l-.6.1a14.3 14.3 0 0 1 .7.1c0 .2-.1.2 0 .4h-.5.1V5l.2.2h-.1l-.3.2a7.3 7.3 0 0 0-1.6.4l.2-.2.3-.1c.1 0 .2 0 .3-.2l-.3.1c-.3 0-.5.2-.7.3h-.1c0-.1-.2-.1 0-.2l.2-.3-.3.1V5c.2 0 .2 0 .3-.2-.2 0-.2.2-.4 0 0 0 .2 0 .2-.2l.5-.4-.4.2h-.2v-.2s.3 0 .2-.2l.4-.2h-.4s-.2.1-.2 0c.2-.2 0-.1 0-.2l.3-.2h-.3c0-.2.1-.2.2-.2l.3-.2h-.4c0-.2.2-.2.3-.2l.1-.1h-.3l.6-.3h-.4l-.2.1v-.2l.2-.1h-.4c0-.2.1-.2.2-.3L68 2l.3-.3-.5.2.1-.3v-.3c-.1 0-.2.1-.2.3h-.3c.2-.2.4-.4.4-.6-.2 0-.3.2-.4.3-.1 0 0 0 0 0 0-.3 0-.4-.3-.4L67 .8l-.5.2.3-.4.4-.5-.3.2-.4.5-.2.3c0-.2 0-.3.2-.4l.2-.4-.3.3-.2.2V.4l.2-.4-.2.2-.4.3.1-.3.1-.3h-.1c0 .2 0 .2-.2.3h-.3l.1-.3h-.7l-.2.1H63l-.1.1h-.1L63 0h-1.4l.4.4h.1v.1H62l-.6-.5h-.2c0 .2.1.3.3.4l.2.2h-.3l-.8-.6h-.1l.2.2.7.6V1l-.5-.1v.4l-.3-.2v.2h-.2c-.5-.3-1-.4-1.6-.2l-.7.3c-.2 0-.4 0-.6.2l-.7.4-.4.4v.5l-.1.4-.2.3c-.2.3-.4.7-.4 1v.1c-.2-.2-.2-.4-.2-.6v-.3c0-.1 0 0 .1 0v-.5h.1s.1 0 0-.1v-.2l-.1-.1v-.2s-.1 0 0-.1h.1l-.2-.2v-.1h.2c0-.2.2 0 .2-.2-.1 0-.4-.1-.4-.4h.4l-.4-.5h.2l-.2-.2c-.1 0 0-.1 0-.2h.3-.2l-.2-.2V.3h.6l-.2-.1c-.1 0-.2-.2-.1-.3H55v.3l-.1.1v.2c.1.1.1.1 0 .2V1l.2.4v.1l.1.2s.1 0 0 .1v.8a18.3 18.3 0 0 0 0 1.1s.1.1 0 .2l.1.3a9.7 9.7 0 0 0 .4 1h-.2l-.3-.7-.3-1-.7-1.9L54 1V0H54c-.2.3-.2.5-.1.8v.4h-.2C52.8.9 52 .8 51.2.8a13.7 13.7 0 0 0-3 .3c.2-.3.5-.3.7-.3l.9-.1 3.6-.6h.1-2.2L49 .4c-2.1.2-4.2.1-6.3.1h-2.1L39.4 0h-1.1.1l1.2.3v.1h-6.8L31 0h-1.9.1v.1c-.5.3-1 .4-1.6.5L26 .8c-.3 0-.5 0-.8-.2V.5l.2-.3.1-.2h-.2c0 .2-.1.2-.2.3-.3.2-.5.2-.8.1l-.8-.4H23l.2.2a8 8 0 0 0 2.2.8c1.2.2 2.3 0 3.4-.4l.7-.3h.6l2 .2.4.1-1 .1c-1.6.1-3.1.4-4.7.7-1 .3-2 .4-2.9.4-.8 0-1.5-.3-2-.8L21 0h-.4l.5.7V.4l.3.3.3.4.4.3.4.3H21c-.2-.1-.3-.2-.3-.4-.1-.3-.3-.5-.6-.7l.4.6v.2h-.2c-.3-.1-.7-.3-1-.6 0 0-.1-.2-.3-.1l-.2-.1c-.2-.2-.5-.3-.6-.6h-.5l.2.2h-.4v.1l.5.1c.3 0 .5.2.7.5h-.5V1h.4l.6.2c.2 0 .3 0 .5.2l-.1.1h-.3c0 .1-.2 0-.2.2h.7c.2-.1.3-.1.4 0a8 8 0 0 0 2 .3v.2a4 4 0 0 1-1.4.3c-.2-.2-.3-.1-.4 0a1 1 0 0 1-.3 0l-1-.2c0-.2.2-.1.3-.3H19c-.4.1-.7.1-1-.1-.2 0-.3 0-.3-.2l1-.3h-1.2a1 1 0 0 1-1-.5c.3-.1.7 0 1-.2h-.8a1 1 0 0 1-.6-.3h.1V.1h-.1c-.2 0-.3 0-.4-.2h-.2v.2l.6.6a5.6 5.6 0 0 0 3.4 1.8c1 .2 2 .1 3-.3.2-.2.5-.3.7-.2h1.2-.2l-2.4 1h-.5l-1.7.1h-1.3L16.7 3h-2.3c-1 .1-2 .5-3 1-1.2.9-2 2-2.5 3.4l-.3 1.2v.2H9a6 6 0 0 1 1-.2 12.8 12.8 0 0 0 7.3-3.9l1-.7c.4-.3.8-.4 1.3-.5h1.2l-.4.2a22.2 22.2 0 0 0-4.9 3.2l-1 1.1c-.4.4-.8.6-1.3.8l-.5.1-2.6 1c-1 .4-2 1.1-2.9 2a6 6 0 0 0-1.6 4.6 11.5 11.5 0 0 0 .8 3.7c.1.2.2.2.4 0L7 20c1.5-1 2.9-2.3 4-3.7.9-1 1.6-2.2 2-3.4l.2-.1.1.6.6 1.2 1.4 2.4c.2.3.3.3.5 0 .8-1.2 1.4-2.5 1.7-4 .3-.9.2-1.8-.3-2.6l-.5-.9-.4-.5a1 1 0 0 1 0-1.2l.7-1.4c.5-.7 1.1-1.3 2-1.7 2-1.1 4.1-2 6.3-2.6h.2l-.8.6-.9.9-.7.5-.3.2c-1 .5-1.7 1.3-2.4 2.2a7.2 7.2 0 0 0-1.3 5.5c0 .3 0 .7-.2 1v.2l.1.1.3-.1c.8-.3 1.5-.8 2.1-1.3.8-.7 1.3-1.5 1.6-2.5l.4-2V5.3c.1-.8.5-1.5 1-2 .8-.8 1.8-1.4 3-1.7l2-.4a47.6 47.6 0 0 1 5.2-.4h3.5L38 1l-2.7 1.2-.9.1h-3.3c-2.6.6-4.4 2-5.4 4.5a20 20 0 0 0-.5 1.8c-.3 1-.6 2-1.2 2.8-.2.2-.1.3.1.3h1.7a10 10 0 0 0 4-.6c1.1-.5 2-1.2 2.7-2.3l1.1-2.3.8-2.6.2-.7.4-.5c.3-.2.6-.5 1-.6l1.3-.5c.6-.3 1.3-.4 2-.6h2.5-.1l-.6.4-.7.2c-1 0-1.9.4-2.8 1a4 4 0 0 0-2 2.5l-.4 2.3v1.8a2.9 2.9 0 0 1-.2 1.3v.1h.4l1.1-.6c1-.5 1.8-1.2 2.4-2.1.6-.9 1-1.8 1.3-2.8l.3-1.8.3-1c0-.4.3-.6.5-.7l.7-.3c.8-.3.8-.3 1.6-.3H47.8c-.2.2-.3.4-.6.5l-2 .8a7.2 7.2 0 0 1-2.3.6V3h.2l.8.4.1.2-.3.2c-1.1.8-2 1.8-2.3 3.2-.2.7-.3 1.3-.3 2v1l-.1.1-.5.3-2.3 1.2a5.3 5.3 0 0 1-1.8.6v.2l.2.1 3.2 1.3 2.3.8c.2 0 .3.1.4.3a46.6 46.6 0 0 0 .9 1.6l.2-.2 1.6-1.6.4-.2c.8-.2 1.5-.7 2.2-1.3l1.5-1.7 1.1-1.5.5-.7.4-.3-.1.3c-1 1.6-2 3.4-2.5 5.2-.2.7-.6 1.3-1 1.8-.1.3-.4.4-.6.5H43.9a6 6 0 0 0-1.3.1c-1.3.3-2.2 1-2.9 2.2l-.4 1-.5 1.4c-.2.7-.6 1.3-1.1 1.8-.2.2-.2.3 0 .4h.2c.5.1 1 .1 1.6 0 1 0 2-.3 3.1-.6.9-.3 1.7-.7 2.4-1.2a5.5 5.5 0 0 0 2.2-3.6v-.7l.3-.6.6-.7.1-.1-.3 1.7c0 .4-.2.8-.4 1.1l-1 1.6c-.9 1.4-1.4 3-1.6 4.7 0 1 0 1.8.2 2.7.2.9.5 1.7 1 2.5l.7 1.3a3.3 3.3 0 0 1 .4 1.5h.2c.9-1.2 1.5-2.5 2-3.8.5-1 .8-2.2.9-3.3 0-.7 0-1.5-.2-2.2-.2-.8-.5-1.6-.9-2.3l-.5-1c-.3-.4-.4-1-.6-1.4v-1l.2-1.3c.2-1.1.5-2.2 1-3.2v-.2c.2.2.1.4.2.6v1.3l-.1.6-.1 2.2c0 1 .4 2 1.2 3 .3.4.8.8 1.2 1l1.9 1.5 1 .7a6.1 6.1 0 0 1 1.3 1.6l.3-.1.1-.5v-1.7c0-1.2-.2-2.4-.4-3.6a5.4 5.4 0 0 0-3.5-4.6l-1.1-.4c-.4 0-.8-.2-1.2-.4a.5.5 0 0 1-.4-.5v-.8c-.1-.4 0-.8.1-1.1l.2-.4 1.3-2.3s0-.2.2-.2a22.6 22.6 0 0 0 .4 1.4c0 .8.2 1.7.6 2.4.6 1 1.5 1.6 2.6 1.8a11.8 11.8 0 0 0 1.5.1l.1.1v2.1c.2.5.5.9 1 1.1l1.3.3h.9c.2 0 .3 0 .5.2l.6.6-.6.2-.3-.1-.1-.1a.4.4 0 0 0-.5 0s-.2.1-.2.3v.4l.2.2h.4l.2-.3c.1-.2.2-.2.4-.2l1-.3h.5l-.2.3-1.5 2.4-.2.3c-.1.1-.1.2-.3 0a.5.5 0 0 0-.6.1 1 1 0 0 0-.5.8v.4l.4.2h.5c.2-.1.4-.3.4-.6s.2-.6.4-.8l.6-1 1.3-2.1.2-.1h.3l-.1.6a63.4 63.4 0 0 0-2 6.4c-.1.2-.3.3-.5.3s-.3 0-.4.2c-.2.1-.2.2-.2.4v.4l.4.3c.3 0 .6-.1.7-.4v-1l.7-1.4.2-.8.1-.1h.1a8 8 0 0 1 .3 1.5c0 .2 0 .4-.2.5l-.1.3.1.3.3.1c.2 0 .3 0 .4-.2v-.5l-.2-.3c0-.6-.2-1.1-.4-1.7l.1-1.5.6-1.8.1-.1v.7c0 1 0 2 .4 2.8l.4 1.5v1.4c0 .1 0 .2-.2.2-.4.1-.5.4-.5.7 0 .2.2.3.4.4.2 0 .4 0 .5-.3v-.9c.2-.6.2-1.3 0-2l-.3-1c-.2-.8-.4-1.7-.4-2.7l.1-2.2c0-.1.1-.2.3-.2l1-.3h.1v.8l-.1.2h-.2c-.2.1-.3.2-.3.4-.1.3 0 .5.1.8.2.2.3.2.6.1h.2l.4.8a7.2 7.2 0 0 0 3 2.9c.6.2 1.1.3 1.7.3h.2v.2c-.7.6-1 1.3-1.2 2.2-.2.8-.2 1.7-.1 2.6L69 33a17.4 17.4 0 0 1 .2 3.2h.2c.5-.5 1.1-.8 1.7-1h.5l.8.2 1.4.6h.1l-.3.1h-2.2c-.5 0-.9.2-1.3.3l-.2.1v.2l1-.1h1.5l-.3.2-.9.5-.3.3v.1h.2l.4-.2c1-.7 2-1 3.3-1 1.1-.1 2.2-.4 3.3-1h.2l-.1.2-.3.5c-.4.6-1 1-1.6 1.3-.5.3-1 .5-1.6.6l-2 .5c-.4 0-.7.2-1 .4l-.1.2.6-.2.6-.2.7-.1-.4.4-.4.5-.2.5.2-.1c.7-.8 1.5-1.4 2.5-1.7l.8-.4.7-.3c.1-.1.2 0 .2 0l-.1.1-.9 1.3c-.1.3-.4.5-.7.6l-.4.2-1.7 1c-.2 0-.4.2-.5.3 0 0-.1 0 0 .2l.2-.1 2.2-1.1h.2s0 .2-.2.3a16.7 16.7 0 0 1-2.4 2.8h.1c.1 0 .2 0 .3-.2a10 10 0 0 0 2-2c.5-.5.8-1 1.2-1.6l1-1.6c.5-.8 1-1.6 1.7-2.4.7-1 1.7-1.9 2.6-2.7l.2-.2v.2c-.6.6-1 1.3-1.2 2.1-.4 1-.7 2-.8 3.1l-.4 1.2c0 .2-.2.3-.3.3a9.6 9.6 0 0 0-1.3 1 6.5 6.5 0 0 1-1.5 1.2v.2c.5.1.9.3 1.3.6l.5.2c1 .6 2.3 1 3.6 1 .9 0 1.7-.2 2.6-.5 1-.3 2-.7 2.8-1.2l1.2-.6 1.4-.4.3-.1-.2.1-1 .8c-.8.5-1.6 1-2.3 1.7l-.7.2h-1.4l-1 .1h-.5c-.1 0-.2 0-.2.2-.1 0-.3 0-.4.2-.1.1-.3.2-.5.1H81l-1 .1-.5.1c-.5.2-.8.5-.8 1.1v1l-.1.4c-.1 0-.2 0-.3.2a16 16 0 0 0-2.1 1.8 7.1 7.1 0 0 0-1.6 4c-.1.8 0 1.7.3 2.6l1 2.2v.2c.2 0 .2-.2.3-.3l.7-1a91.1 91.1 0 0 1 1.2-.9l.8.7c.1 0 .1.1 0 .2l-.2.6a8.8 8.8 0 0 0-.5 3.6c0 .2 0 .5.2.8l.5 1 .1.2c.2.4.5.7.8.9l1 .6-.1.3c-.3.3-.3.3-.7.2a12.8 12.8 0 0 0-4.1.2c-1 .3-1.9.8-2.6 1.6-.6.6-1 1.3-1.3 2l-.6 2.1v.2h.4c.2-.2.4-.2.7-.2l1-.1h2.7l.4-.1 2-.5h.1c-.3.6-.5 1.1-.6 1.7l-.4.9v.2H78.3l1.6-.2h.8l1-.4h.4l.2.6c.1.3.2.3.5.2h.2l1-.5.6-.4h.2c0 .8.3 1.5.2 2.2 0 .1.1.2.2.1h.2l1.7-1c.6-.4 1.2-1 1.6-1.6 0-.2.2-.3.3-.5 0 0 0-.1.2 0h.7l.3.3v.3a31.4 31.4 0 0 0 0 2.6l-.5.9c-.1.2-.3.2-.5.2a4.3 4.3 0 0 1-1.4-.2c-1.2-.4-2.5-.6-3.8-.7l-1.7.1c-1 .2-2 .7-2.6 1.4l-1.2 1.2-.1.2v.2h.3l1.5.5 1 .6a11.4 11.4 0 0 0 3.9 1.4c.9 0 1.7-.1 2.4-.7 1-.8 1.7-1.8 2-3L90 75h.1l-.1 2.1c0 .7-.2 1.3-.3 2 0 .4-.2.8-.5 1.1l-1.4 1.5-1 .9a15.5 15.5 0 0 0-3.5 5.6 21.6 21.6 0 0 0-1.3 7.4l.1.3.2-.2a20 20 0 0 1 1.8-1.6l1.6-1.4c1.4-1.3 2.5-3 3.3-4.8.5-1.5.8-3 1-4.6v-4.8c.2-.7.4-1.4.4-2l.1-.3c.1.2.2.4.1.6v3.9l.8 2a23.7 23.7 0 0 0 2 3.2c.3.6.8 1.1 1.3 1.6h.1V87a8 8 0 0 1 0-1.8 7 7 0 0 0-.2-2.1l-.6-1.7c-.7-1.6-1.5-3-2.7-4.3l-.5-.7c-.2-.5-.3-1.1-.2-1.7V72.8l.2.4c.1.4.4.7.6 1 .3.3.7.4 1.1.1h.1c.1-.1.2-.1.2 0l.2.2a10 10 0 0 0 2.7 2.5h.3v-.2a8.9 8.9 0 0 1-3-2.6c-.1-.3-.1-.3.1-.6l.6.6V74l-.4-.6v-.2l.5-.5h.3l.7.7.1.1-.1-.2-.6-.7v-.2l1.2-1c0-.1.1-.1.2 0l.4.4v-.4l-.3-.3.3-.2v-.3h-.3.1v.1h-.2l-.5-.4-.3-.3c0 .2.1.3.8.9v.1h-.2l-.1.1H95V71.5H95c-.1.1-.2.1-.2 0-.2 0-.3-.2-.4-.3l-.1-.1-.2-.2.1.2.3.4.1.2v.1c-.5.5-.4.6-.8.1h-.1v.1l.1.2c0 .1.2.1.1.2l-.5-.5c0 .2 0 .2.2.3v.3l.2.1v.1l-.3.3-.4.3c-.2.2-.2.2-.4 0l-.4-.2.2.3c.1 0 .2 0 .3.2v.1h-.2v.2a1 1 0 0 1-.5-.2l-.4-.4.2.4.3.3H92l.2.2h.1l-.1.1c-.2 0-.4 0-.5-.2-.3-.2-.5-.5-.6-.8l-1-2.7-.2-.5.1-.3.3-.1.1.2a9.7 9.7 0 0 0 .4 1.3v-.1l-.2-.7v-1l.1.2.2.1v.2l.1.2v-.4l-.1-.5V69h.1l.2.4a4.5 4.5 0 0 0 .3.6v-.3l-.3-.6c0-.4 0-.4.2-.7h.1l.3.6.1.2-.2-.5v-.4c-.1 0-.1-.1 0-.2h.2l.3.3.1.2v-.2l-.3-.4v-.2h.3l.2.4.2.2v-.3c-.1 0-.2-.1 0-.1v-.1l-.2-.3c0-.1.1-.1.1 0l.4.3-.2-.4v-.2c.2-.1.3-.1.4 0l.3.4.1.2c0 .1 0 .2.2.3 0-.2 0-.2-.2-.3 0-.2 0-.3-.2-.4l-.1-.3.3-.1V67h.1v-.2h.3l.3.4c0-.2-.2-.3-.3-.4l-.3-.3c.2 0 .3.1.5.3l-.2-.3-.2-.2v-.2h.1v-.2c.2 0 .2.2.3.2L94 66l-.1-.2v-.2h.1l.3.2v-.2l-.3-.3V65l.2.1.2.2-.1-.2-.2-.2-.1-.2h.2v-.3c-.1 0 0 0 0-.1h.1l.1.3c.3.7.8 1 1.5 1-.6-.1-1-.5-1.3-1.1V64.2l.4.1h.2l.5.4-.1-.1-.3-.3v-.1h.4a1134.4 1134.4 0 0 1 0-.2l.2-.2v-.2l-.2.1-.2-.2v.2c0 .2 0 .2-.2.2-.4.1-.8 0-1.1.2h-.8l-.2-.2.1.2c.2.2.4.4.4.7v.9a2.1 2.1 0 0 1-.7 1.1H93l-.1-.2v.3l-.2.1-.3.2-.1.3a7 7 0 0 0-1.6 1.5l-.3.3c-.2.2-.2.2-.5 0v.2l-.1.3h-.3c0-.1 0-.1 0 0 0 0 0 .1-.1 0l-.1.1c-.1.1-.2.2-.3 0l-.2-.2s0-.2-.2-.3l.3.6-.1.1-.7.1-.5-.1a.6.6 0 0 1-.4-.5v-1.3c.4-.4.5-.8.6-1.3 0-.2 0-.4.3-.6l.2-.2v.4s.1-.1.2 0l-.2.8.3-.6v.3c0 .1-.2.2-.1.3.1-.1 0-.3.2-.4v.6h.1l.1-.3.1-.2v.4l.1-.4V67h.2l.1.2.1.2V66.7h.1l.1.2v-.3l.6.8v-.2l-.4-.6v-.2h.2l.2.4.3.4a1 1 0 0 0-.3-.5l-.1-.5.1-.2h.1l.2.2.2.4-.1-.5h.2V66l-.1-.4.2.2h.2v-.2c-.1 0 0 0 0-.1h.1v-.2c-.1-.1 0 0 0 0V64.8l.2-.1c.1-.1.1-.1.2 0 .2 0 .3.2.5.4V65l-.2-.3-.1-.3.4.2.1.1-.1-.2-.1-.3v-.1h.2l.2.2-.2-.2V64c.1.1.3 0 .4 0 0 .1 0 .2.2.2l-.1-.2h-.1v-.3c0-.2.2-.2.3-.2l.3.1-.3-.2s.2 0 .2-.2h.1l.5.3.2.1-.1-.1-.5-.4c0-.1 0 0 0 0h.3V63s-.1 0 0 0c0-.1 0 0 0 0 .2 0 .3.1.5.3-.1-.3-.3-.3-.4-.5h.3s.1.2.2.1l-.1-.1c-.1 0-.2 0-.2-.2l.4.1-.2-.2c.1 0 .2.1.4 0 0 0-.2 0-.3-.2h.3c0-.1 0 0 0 0l.3.1s.1.1.2 0l-.2-.1-.2-.2V62h.2s0 .1.2 0h-.2c0-.1-.1-.1 0-.2 0-.2.1-.2.2-.2l.4.1-.3-.2h.4l.3.2v-.1s-.2 0-.1-.2h-.1l-.3-.3h.5V61c-.1 0-.2 0-.2-.2 0-.1.1 0 .2 0V60l-.1.3c0 .1 0 .1-.2 0v.1l-.1.4c-.1 0-.1.2-.3.2 0-.4.4-1.3.7-2.3v-.4l-.2.5-.4 1.4-.2.7-.1.4-.2.2s-.1.2-.2.1v-.2c.1 0 0 0 0 0-.2-.2-.2-.4-.2-.7v-.1l.2-.3-.1.1c0-.1 0-.2.2-.3l.2-.3-.5.5v-.6l.1-.2.4-.4-.4.1V59c.1 0 0-.1 0-.1 0-.2.2-.3.3-.4h-.1c-.1 0-.2.2-.2 0v-.1h.1l.2-.4a3 3 0 0 0 .5-.2H95c-.2 0-.4.2-.5.3h-.1v-.3l.4-.2h-.3v-.3c.1 0 .3-.1.1-.3l.2-.1-.2-.1.2-.4v-.3l.2-.2-.2-.1c0-.2 0-.4.2-.5L95 55c0-.2.1-.3 0-.4v-1.2l.1-.5c0-.1 0 0-.2 0l.1-.5.1-.2-.1.2h-.1v-.3c0-.1 0-.2-.2-.2v-.8s0 .2-.2.2l-.1-.2-.2-.3-.1-.2v.1l.3 1v.1c.2.3.2.3 0 .6-.2 0-.2-.2-.3-.2v-.1s0-.1 0 0h-.2V52s.1-.1 0-.2v.1h-.1v-.5c0-.6.1-1.1 0-1.6v-.1c0-.2 0-.2.2-.2l.6.1s.1.2.2.1c0 .2.3.2.3.4l-.2.2h.5v.2l-.2.1.4.1c0 .2-.2.1-.2.2h.2v.1c.2 0 .2.1.2.2 0 .2-.1.2 0 .4h.1V50.7l-.1-.2v-.2h-.2V50c-.2 0 0-.2-.2-.4v.2h-.1V49c-.1-.2 0-.4.1-.5l.1-.1h.1l.1.4.1.6.1.1v-.9l-.2-.3.2-.3V48a35.4 35.4 0 0 0-.8.8l-.3.2v-.3c.1 0 .2 0 .2-.2 0-.3.3-.5.4-.6l.3-.4-.3.2-.6.7-.2.2v-.2c.1-.1 0-.1 0-.1V48l.4-.6.5-.7.2-.2s-.2 0-.2.2l-1 1v.2c0-.3.3-.6.4-.9.1 0 .2-.1.2-.3l-.2.3-.5.7-.1.2.1-.5s.1 0 0-.2l-.2.4H94l.1-.4.2-.3c0-.1 0 0 0 0l-.2-.1v-.3c0-.5-.1-.8-.6-1a2 2 0 0 0-.6 0c-.1 0-.2 0-.2-.2 0-.5.2-.7.6-.8h.1c.1-.3.3-.4.5-.5l.4-.3.2-.1v.1c.2 0 .3-.1.4 0l.7.1v.1c0 .2-.2.3-.4.4v.1l.4-.2h.2v-.5l-1.3-.2.4-.4c0-.2.2-.3.3-.4l.3-.4.3-.4v-.5h-.1c0-.3-.1-.6 0-.8V40c-.2 0-.2.1-.2.3l-.1.7v.6c0 .3-.1.6-.3.8H95c-.2 0-.2.1-.2.2l-.4.6a9.7 9.7 0 0 1-1.3 1V44c.2-.2.2-.5.3-.8h-.1l-.1.2c-.2.6-.5 1-.8 1.4a2 2 0 0 1-.8.5c-.1-.1 0-.2 0-.4l-.6.6a5 5 0 0 1-.8.5l-.8.4c0-.2.1-.2.2-.3l.2-.2.3-.3.1-.2c0-.1 0 0 0 0l-.5.4v-.3l.9-1.7v-.1h-.1v-.2c0-.2.2-.4.4-.5l.5-.5v-.2h-.3c.3-.6.6-1 1.1-1.3v-.1H92c.3-.4.5-.8.8-1l.7-.6s.1-.1 0-.2V39l1-.8c.2 0 .3-.1.3-.3l.2-.2.6-.5.3-.3v-.3l-.5.5a21.1 21.1 0 0 0-3.8 4l-.9 1.6a29.3 29.3 0 0 1-.9 2v-.2l-.1-.7-.1-.2v1.6l-.6 1-.3-.1c-.3-.2-.6-.4-.9-.4-.2 0-.3-.3-.3-.5-.1 0-.1 0 0 .1 0 .2-.2.4-.3.5h.6c.2 0 .2 0 .2.3l.2-.1h.1c0 .1 0 .2.2.2h.2v.5l-.4.5-.1.2v.1l.2-.1.5-.3h.1l.2-.2s.1-.1.2 0c.1 0 .2 0 .1.2v.2c.1 0 0-.2.2-.1.1 0 0 .1 0 .2l.2.2s.1-.2.2 0l.2.2.1.2c0 .1 0 .2.2.2 0 0 .1.2 0 .2l-.1.3h.1l.1-.1c.1-.2.1-.1.2 0l.1.4s.1-.1.2 0l.1.2v.2h.2v.2s0 .2.3.1l.4.6s-.1.3.1.3l.2.4.1.3c.2.3.2.7.1 1l-.1.4h-.1L92 52v-.1c-.3 0-.1-.3-.2-.5l-.1.2c-.3-.2-.5-.5-.6-.8H91l.1.2.3.4c.2.2.1.4.2.6v-.1h.1l.1.3c0 .1.2 0 .2 0v.3s.1-.1.2 0c.3.5.3.5.2 1v.4H92v-.4H92l-.1.2-.1-.1-.1-.3h-.2l-.1-.5-.1.1-.1-.3v-.2H91v.2l-.1-.2-.1-.5v.3l-.1.1-.1-.1V52c0-.2-.2 0-.2-.2v-.2l-.2-.2v-.2.5c-.2-.1-.5-.2-.5-.5h-.1c-.2 0-.2 0-.2-.2V51c-.1 0-.1.1-.2 0 0-.1 0 0 0 0H89v-.7c-.2.1-.1.3-.2.3l-.2-.2c-.2-.1-.3-.1-.4 0l-.2.1h-.3c0 .2-.2 0-.3 0v-.1l-.3-.5v.2l.1.4h-.2l-.1-.3-.1-.3c-.1.2 0 .3 0 .4v.3a2 2 0 0 1-.5.2v-.4c.2-.5.3-1 .2-1.5v-.2c0-.3.1-.4.4-.3h.2l.2.2s.2 0 .1-.1c.1-.2.5-.2.6 0v.1h.2l.1.2V48.5c.2 0 .3.2.4.3l.3.4v.4l.1-.2v-.1h.2v.2l.2.6v-.3c.1-.1.2-.1.2 0h.2l.6.6.4.4v-.6c-.1 0 0 .2-.2.3-.2-.2-.5-.4-.6-.8H90v-.4.2h-.2l-.4-.4V49l-.1-.3v.1H89a11.1 11.1 0 0 1-1-1.2l-.2-.2-.2-.2V47c-.1 0-.2.2-.2 0l-.2-.2a.8.8 0 0 1-.1-.7v-.2c-.2.2-.2.4-.2.7l.1.3.7.9.2.2s.1.1 0 .2h-.1l-.2-.2v.1c0 .1 0 0 0 0-.2 0-.2-.1-.2-.2v.3l-.3-.6v.6c0 .1 0 0-.1 0 0-.1 0 0-.1 0-.2-.1-.2-.3-.2-.5l-.1-.6v1.2-.2L86 47c0-.3 0-.6-.2-.8 0 0 0 .2 0 0-.3-.5-.3-1 0-1.4l.5-.8.3-.1 1.2-.2h.2v.3l.1.5v-.8s0-.1.1 0h.1l.1.4v-.4c.2.1.2.1.3.5v-.5c0-.1 0-.2.2-.2l.6.2-.2-.2h-1a20.1 20.1 0 0 1-1.6.2l.3-.3 2.2-1.6a100.5 100.5 0 0 0 4.2-3.5l2.5-2.4v-.6l-.5.2c-.6.3-1.1.3-1.7 0-.5-.1-1-.4-1.5-.7l-1-.6a5.8 5.8 0 0 0-1.7-.9V33c.4-.6.6-1.3.7-2V30h.2l.6.5.7.5.3.2c.7.5 1.5.8 2.3 1a5.8 5.8 0 0 0 1.6.3V32a3 3 0 0 1-2.1-.2c-.1 0-.1 0 0-.1l-.1-.2H93l-.1-.2.4-.1V31h-.6l-.4-.1c-.1-.1 0-.1 0-.1v-.1a3 3 0 0 1-1.6-1v-.2c-.5 0-.8-.3-1.2-.6.8-.1 2.9.5 3.5 1h-.5v.2h.4c.4 0 .9 0 1.3.3a11 11 0 0 0 1.5.7v.1l-.3.1-.3.1.1.1h.7v-.6h-.2a2 2 0 0 1-1.1-1.2l-.2-.3v.4l.2.5c-.2 0-.3-.1-.5-.3l-.6-.5-.5-.3s0 .2.2.2l.1.3-.3-.1a13 13 0 0 0-3.8-1l-.2-.1v-.1a2 2 0 0 1 1.1-.4c0-.3.2-.3.3-.3l.8.2.4.3.3.1c-.3-.3-.6-.6-1-.7h-.2l.1-.2a4 4 0 0 1 1.1-.3c.2 0 .4 0 .6.2 0 0 .2.2.3.1l-.2-.2v-.1l.4.1.6.8c0 .1 0 .2.2.3 0-.3-.1-.6-.6-1.2h.3l.4.1.3.2c0-.1-.2-.2-.1-.3.2 0 .5.1.7.3 0 0 .2.2.3.1l.2.1c0 .2.2.3.3.5l.3.5v-.3l-.2-.3-.1-.3h.3V27l-.6-.2c0 .2.3.2.4.3-.1.2-.3.2-.5.2L95 27a5 5 0 0 0-2.5-.3 7 7 0 0 0-2.6.9l-.2.1h-.2v-.2c-.7-1-1.3-2.2-1.8-3.3l-.1-.3.2.3.1.2.2.1v-.2l-.5-.8-.1-.2h.1l.4.4.2.3a11.8 11.8 0 0 0 1.2 1.5v-.1l-.7-.9v-.2h.1c.3.2.6.2.9 0l.3.1c.3.6.6 1 1 1.4l.6.5v-.2a9.7 9.7 0 0 1-1.4-1.7v-.2l.2.4V24h.2a4 4 0 0 0 1.1 1.3c.1 0 0 0 0 0 0-.2-.2-.3-.3-.4l-.6-.9.3.3v-.1l-.1-.4v-.1h.1l.7 1 .4.3-.1-.3-.2-.2-.2-.2-.1-.2-.2-.2-.1-.3.2.1v-.2h.1l.5.7V24l-.2-.2v-.2l.4.4.4.4a9.8 9.8 0 0 0 .9.8l.4.3a6.3 6.3 0 0 0 1 .6l-.1-.1a14.7 14.7 0 0 1-3-2.8c-.1-.1-.1-.2 0-.2 0 0 0-.1.1 0l.4.2.3.2-.4-.4-.2-.3h.2l.7.5h.1l-.7-.6c-.2-.2-.2-.2 0-.5l.4.2-.3-.3h.2l.8.5.3.2-.1-.2-1-.7c-.2-.1-.3-.3-.2-.5v-.2h.1l.2.1.6.4a27.8 27.8 0 0 0-.8-.9h.3s-.2-.1-.2-.3l.3.2.4.3.3.2-.1-.2-.7-.6V20l.5-.9.2.1c0 .1.1.3.3.1l.4.4h.2l-.1-.1a7 7 0 0 1-.7-.7v-.4h.2l.8.9h.1c.1 0 0 0 0 0l-.8-1-.2-.2c0-.1 0 0 0 0l.8.4h.5l.3.1.6.4v-.3l-.3-.1c-.1-.1-.2-.3-.1-.5v-.4c0-.5-.3-1-.5-1.3l-.9-1.2-.5-.5-.1-.3v-.3l.1.2v.3l.1-.1h.1l.1.2.1.2.1-.1.3.4V15l.3.3.3.4.3.3-.1-.3-.3-.5v-.1l.2.1.5.5v-.2a104.2 104.2 0 0 0-.6-.8l.2.1.3.3-.4-.5h.4l.4.4V15l-.5-.5v-.2s-.2 0-.3-.2l.8.1-.7-.3v-.1h-.1v-.1H95.8l-.2-.1h-.4l-.1-.2c0-.2 0-.2.2-.2h.3l-.2-.1-.1-.1-.2-.2h.9c-.3-.2-.5-.1-.7-.2-.2 0-.3 0-.2-.3ZM9 8c0-.5.3-.9.6-1.2l.2-.3h-.3l.6-.9.5-.2h.8l.1-.1h-1V5c.3-.3.5-.5.8-.6l.2-.1c.2-.3.4-.4.7-.5a5.4 5.4 0 0 1 1.7 0c-.3-.2-.7-.2-1-.2-.1 0 0 0 0-.1h.8l.1-.2.2-.1c.4-.1.9-.2 1.3-.1h.6c0 .1.1.1.2 0l1.7.1v.1l-1.5.3a1 1 0 0 1-.7 0l-.3-.1h-.1v.1c.2 0 .3.1.3.2l-.2.2-1 .3H13v.1l.3.1.2.1-.2.2-1 .5-.5.2-1 .2h.7l-.4.4-.5.4-.4.3-.5.4-.4.4-.3.4Zm9-4.2-1 .8s-.1.1-.2 0l-.2.2c-.6.7-1.3 1.2-2 1.7h-.2l.5-.7v-.2h-.1l-.6.8c-.2.4-.6.7-1 .9l-1.1.5h-.2c.1-.2.3-.4.3-.7l-.2.3a3 3 0 0 1-.6.5 2.1 2.1 0 0 1-.7.3c-.2 0-.3.1-.4 0v-.1l.3-.5h-.2l-.2.2-.2.4-.5.2H9l.2-.2c.5-.7 1.2-1.4 2-1.9l.5-.4h.1v.6l.2-.4c.1-.3.4-.6.7-.8.3 0 .5-.2.7-.3h.1l-.1.4-.1.5-.1.4h.1l.2-.6.2-.5.3-.3 1-.5h.3c-.2.1-.4.2-.4.5h.1l.7-.6.6-.3h.1v.1c0 .2-.2.4-.3.5v.1h.1l.3-.3c.2-.5.6-.7 1-.7h.5Zm-11.5 16v-.6c0-.1-.1 0-.2 0V19c0-.5.2-1 .3-1.3L7 17v-.2.1a2 2 0 0 0-.4.7l-.3.7-.1.3-.2-1v-.5l.2-.3H5.7v-.3c0-.4-.1-.4.2-.6l.3-.2 1.4-1.4v-.1a4 4 0 0 0-.4.2L6 15.6l-.2.1.1-1c0-.3.2-.6.4-.7l.3-.3h-.3l.9-.8a9 9 0 0 1 1-.5l.5-.2-.7.1-.7.3-.6.3v-.1l.6-.8.5-.3.4-.1.1-.1-.2-.1c.2-.2.5-.2.7-.3l.5-.2h-.6c.8-.6 1.6-1 2.4-1.3l2.2-.7V9a3 3 0 0 1-1.7 1h-.2v.1H12c-.3.5-.7.6-1.2.7l-.4.1c-.1 0-.2 0-.3.2h.9-.1l-.7.4-.3.3h.2l.6-.2-.3.3-.7.3a7.3 7.3 0 0 0-1.3.8v.1l1.5-.7c.1 0 0 0 0 .1 0 .2-.2.3-.3.5l-.8.8-.5.3-.6.6H8a9.2 9.2 0 0 1 .9-.6l-.1.2-.4.6c-.1.3-.3.5-.5.6-.2 0-.3.2-.4.3l.4-.1-.6 1.3-.4 1.4-.3 1.4Zm6.8-8.4-.2.5s-.1-.1 0-.2c-.1-.2 0-.3-.2-.5v.8c0 .6 0 1.1-.4 1.7l-.4.7-.2.2-.2-1c-.2.4 0 .7-.1 1l-.2-.4c0-.2 0-.3-.2-.5v-.5H11v.7l.2.9-.1 1-.1-.2v-.3l-.1.1v.4l-.4.7-.8.8s0 .1-.1 0V17l-.1-1.3-.2-.3v1.8c0 .4-.2.8-.6 1l-.1.2h-.1v-.1a145.7 145.7 0 0 1-.3 0c0 .3 0 .5-.3.6L7 20l-.1-.2.1-1c.2-.7.4-1.4.8-2.1l.2-.4c.2.2.2.4.2.7v.3c.2-.2.2-.4.2-.6L8 16v-.5l.7-1 .2-.1v.9l.1.5.1.4c.1 0 0 0 0 0 .1-.3.1-.6 0-.8v-.7c0-.6.2-1.2.6-1.6l.3 1.6v-1.6c0-.3 0-.6.3-.8l.7-.9h.1l.1-.1v.5l.1.1h.1v-.1c0-.6.2-1 .6-1.4l.4-.4h.1c0 .4-.3.7-.3 1h.2c.1-.5.4-1 .6-1.4 0-.2.2-.3.4-.5l.1.1v.5l-.3 1.7Zm2.5 4.3a6 6 0 0 0-.3 1c-.3-.3-.4-.5-.5-.9v-.4l-.1.1s0 .1-.1 0V14l-.2 1v.1h-.2a1 1 0 0 1-.2-.6v-.4l-.2.2c-.1-.2-.1-.3 0-.4 0-.3.2-.6.4-.8l.4-.4.2-.2c0-.1 0 0 0 0a3 3 0 0 0-1 .8l-.2.4h-.1c-.2-.2-.2-.4-.1-.6V13s.1-.1 0-.1h-.1s0 .1 0 0h-.1l.1-.4.3-.4.5-.4c.2-.2.3-.4.3-.7-.3.5-.7.8-1 1 0 .1-.1.1-.1 0v-.3c.2-1.2.8-2.2 1.9-2.9l.3-.2-.1.4-.6.6c-.2.1-.3.3-.4.6v.1h.1c.2-.4.4-.6.7-.8h.1c0 .5 0 1-.3 1.4v.5c.1-.1 0-.3.2-.4v.1l.2 1v.5l.1.4v.2c.2.6.2 1.2 0 1.8v.2s-.1.1 0 .2v-.1l.2-.1-.1.6Zm1-5.8c.3.7.6 1.3.6 2v.2l-.1-.2-.5-.6s0-.1-.1 0v.1l.4.6.2.9s0 .1-.2 0V13.3c0 .4 0 .8-.3 1.2h-.1v-.1l-.1.4v.4l-.2.4-.2.4c0 .2-.1.3-.3.4l.2-1.3v-1.3c.1 0 0 .2.2.2v-.2c0-.2 0-.3-.2-.5l-.2-.7-.1-.9h.1c.1 0 .2 0 .3.2h.1v-.2l-.2-.2a1 1 0 0 1-.4-1V10h.3l.4.4h.1l-.3-.4-.2-.2a.7.7 0 0 1 0-.8l.7 1ZM17 6c-.4.6-.8 1.3-1 2l-.4.4a4.4 4.4 0 0 0-1.7 1.5l-.2.2V10c0-.4 0-.7.2-1 0-.1 0-.3.2-.4l1.1-1.1A10.2 10.2 0 0 1 17 5.9V6Zm2.3 7h-.1v-.8l.3-.4.6-.9v-.2l-.1.2-.5.6-.2.2v-.2l-.1-.8c0-.3 0-.5.3-.7l.4-.6c-.2 0-.3 0-.4.2 0 0 0 .2-.2.2 0-.4 0-.8.4-1.2 0 0 .1-.1 0-.2v-.2l.4-.3c.1-.1.3-.1.3-.3l-.3.1c-.1 0-.1 0 0-.1 0-.2 0-.3.2-.4l.2-.2v-.1l.1-.3.5-.5.5-.3.3-.2h-.4c.3-.4 1.2-1.1 1.7-1.3v.2l-.6 1c0 .2-.3.3-.5.4l-.4.2c0 .1.1 0 .1 0h.5v.2l-.2.2-.2.1v.1c.2 0 .2.1.1.3 0 .3-.2.6-.5.8l-.1.1h.2V8c0 .2 0 .4-.2.6l-.3.1-.6.6 1-.5-.2.6-.3.4v.1c.2.2 0 .3 0 .4a4 4 0 0 1-.7 1.2c0 .1-.2.2-.1.4-.3.5-.6.8-.9 1Zm4-8a259.3 259.3 0 0 1-.3 3.2h-.1c0-.1 0-.2-.2-.3l.1.4.2.3-.1.3c-.1 0-.1 0 0 .1 0 .4-.2.7-.4 1l-.2-.6v.8c0 .3-.2.6-.4.9a6 6 0 0 1-.6.6l-.2.1v-.5l-.1.1a29.6 29.6 0 0 0-.5 1l-.6.3v-.1l.4-.6a7.4 7.4 0 0 0 1.2-2.2c.2.1 0 .3.1.6l.2-.3v-.4c-.2-.5-.1-1 0-1.4h.2l.2.2h.1l-.2-.3a.6.6 0 0 1 0-.5c0-.4.2-.7.3-1 .2 0 .3.3.4.5V7l-.1-.4v-.7c0-.1.1-.2.2-.1v-.2c0-.3.1-.4.4-.7V5Zm11.2-2-.7 2v.4c-.2 0-.2-.1-.2-.2v-.4l-.1.8c0 .4-.1.7-.3 1a9.8 9.8 0 0 1-1.4 2.6c.2-.7.2-1 .1-1.3V8l-.1.4a3 3 0 0 1-1.8 2.2l-.5.3v-.2c.4-.4.6-.9.7-1.4l.3-1.8h-.1L30 9c0 .2 0 .4-.2.7-.1.6-.5 1-1 1.4-.2.2-.5.2-.8.2l.3-.2.5-.6c-.2 0-.3 0-.4.2a4 4 0 0 1-1.6.8h-.7l.4-.2 1.1-.8.1-.2h-.2c-.4.4-.8.7-1.3.9l-.4.2c-.2.2-.4.2-.8.1a7 7 0 0 0 1-.7H26a41 41 0 0 0-1.4.7h-.1c-.1 0-.1-.1 0-.1l.2-.5c0-.3.3-.5.5-.6l.2-.1s.2 0 .2-.2h-.3l-.1.1H25l.5-1.8.3-.4.8-.5.7-.5c.1 0 .3 0 .3-.2l-.3.1-.4.2a33.3 33.3 0 0 1-.7.3l-.4.2c.1-.6.3-1 .9-1.3l.3-.2h.1-.7l.3-.5h.1c.6 0 1-.2 1.5-.5l1.5-.8c0-.1 0 0-.1 0l-1 .4-1 .5-.6.2h-.2V5l.7-.7A7 7 0 0 1 31 2.5c1-.2 2-.2 3 0h.2v.1c-.3.3-.6.5-1 .5h-2l-.3.1c.7-.1 1.5 0 2.2.1v.2a82.8 82.8 0 0 1-1.1.7h-1l-.7.2-.1.2.8-.1.8-.1v.1l-1 1a3 3 0 0 1-.7.5l-.3.2a8.5 8.5 0 0 1-1 .7h.2l.5-.2L28.4 8l-1 .5-.7.3-.1.1 1-.2c0 .2-.1.2-.2.3l-1 .8-1.2.8-.3.2h.4l1.5-1 2.1-2 .5-.4c.1 0 0 0 0 .1V8.3l.2-.2a3 3 0 0 1 .8-1.8L32 5l.1.2-.3 1v.2-.1l.5-1c0-.3.1-.6.3-.8l.2-.2c.1 0 0 0 0 0v1.4l.1-.4.2-.8c0-.5.3-.8.7-1l.6-.5h.2Zm1 6.7V9l.2-.2.2-.6a22.2 22.2 0 0 0-.4.4v-1l.1-.2c.2-.3.4-.6.4-1l-.3.4-.1.2s-.1 0 0 0c0-.8 0-1.4.3-2.1l.3-.6 1.2-1 .2-.2-.3.1-.3.2-.2.2-.3.1v-.1c.3-.3.5-.6.9-.8.8-.6 1.7-1 2.7-1.1v.1l-.6.3s-.2.1 0 .2l-.1.1-.6.4-.4.2c-.1 0-.2 0-.2.2.2 0 .3-.2.5-.1l-.2.2h-.2V3.8a14.4 14.4 0 0 1-.8.4h.5c0 .2-.2.3-.3.5l-.5.6-.3.3h.3l-.7 2-.3.8c0 .2-.2.3-.3.5l-.1.3c0 .2-.2.4-.3.5Zm5-7-.2.5c0 .2 0 .4-.2.6v-.3l-.1.1v.6c-.1 1-.4 1.9-.8 2.7H39V5h-.1v.4a6.8 6.8 0 0 1-.2 2.2l-.1-.3-.3.8-.3-1.5v-.1h-.1v1.4l.1.5c0 .1 0 .3-.2.4a5 5 0 0 1-1 .8v-.7l-.2.3-.3.6-.4.2v-.1h-.2s0 .2-.2.2l.6-1.1.2-.4.1.4.1-.3.1-.6c0-.7.2-1.3.6-1.8l.3.9V6.2c0-.5 0-1 .3-1.4h.3l.1-.3.2.3v.1c.2 0 .1 0 .1-.1v-.6l.1-.4.4-.4c0 .5 0 1 .2 1.3 0 0 0 .1 0 0v-.6l.1-.6c.1.1.2.1.2 0v-.3c.2-.6.5-.9 1-1.1v.6Zm6.4 16a5 5 0 0 1-1.6 2.7 7 7 0 0 1-2.7 1.4l.3-.3a7.5 7.5 0 0 0 1.1-.8h-.2c-.6.5-1.2.8-1.8 1.1-.1 0-.3.2-.4 0l-.2.1-1.3.4h-.2l.3-.1a12.8 12.8 0 0 0 2.5-1.5h-.1l-.3.1a12.2 12.2 0 0 1-3 1.4H39l.5-.4c.2 0 .4-.2.5-.3l.5-.4c.2 0 .4-.2.5-.3l.5-.4c-.2 0-.3 0-.4.2l-1.3.8a13.6 13.6 0 0 1-1.5.8c0-.1 0-.2.2-.2l4-2.8h.1c.2-.2.3-.2.2-.3l-.3.2a41.5 41.5 0 0 0-3.5 2.3c-.1 0-.1.2-.3.2 0-.2.1-.2.2-.3l.6-.5.1-.1-.3.1v-.1l1.3-1 .5-.5H41l-1.5 1-.2.3c-.1 0 0 0 0-.1 0-.2.1-.3.3-.4l.2-.3h-.3v-.1c0-.3.2-.6.5-.8l1-1 .4-.2c0-.1-.1 0-.2 0a9.1 9.1 0 0 0-1.2.9v-.2c.1-.3.3-.6.6-.8A4.9 4.9 0 0 1 44 17h.1c0 .2-.1.2-.2.3h.1l.6-.2h.6l-.2.2-1.5.8-.1.2.3-.2c.6-.3 1.1-.6 1.8-.8l.2-.1c.1 0 0 0 0 0a104 104 0 0 0 1-.2v.2l-1.6.7-1 .5v.1l.4-.1 1.8-.9h.4l-.7.7a23.9 23.9 0 0 1-2 1.6h.2l1.2-.8 1-.9.2-.1a99.8 99.8 0 0 1 .1.3v.2l-.2.3h.2v-.2l.2-.1v.1Zm1.2 1.7a25 25 0 0 1 .5 3.6v.4c.2-.4 0-.6 0-1a21.8 21.8 0 0 0 0-1.6l-.2-.9.1.1v.2l.1.2c0 .1 0 .2.2.1l.2.6.2 1.6v.3h.1a52.7 52.7 0 0 0 0-1.5c.7 1.3 1 2.7.7 4-.1 1.5-.6 2.9-1.3 4.2l-.3.7h-.1v-2.2c-.2.5-.1 1-.2 1.7-.2-.6-.1-1.1-.2-1.6 0-.6 0-1-.2-1.6v2.1a47.8 47.8 0 0 1 0 1.3c-.2.1-.2.3-.2.4l-.1.4-.3-1.5-.3-1.6v1.3l.2 1.3v-.1l-.2-.3c0-.4-.2-.7-.3-1.1a8.4 8.4 0 0 1-.6-2.7c-.1-.1-.2 0-.2 0a9.5 9.5 0 0 0 .7 3.2l-.1-.1c-.6-1-1-2-1.1-3.2-.2-1.4 0-2.7.4-4L46 22c0-.1 0-.2.2-.3v.2a8 8 0 0 0-.2 1.8l.2-.3a11.5 11.5 0 0 1 .5-2.7c0-.2.2-.4.3-.5-.3 1-.4 2.2-.5 3.3V23.2l.5-1.8.2-1 .1-.2v.2L47 22v.6l.2-.5a14.8 14.8 0 0 1 .3-1.8v3.3V23a40.4 40.4 0 0 1 .3-1.8l.2 1v-.8a87.3 87.3 0 0 1 .1-1.1Zm1.6-3.5v.1-.7l.1.2a16.4 16.4 0 0 0 1.2 2.8c.1-.1 0-.2 0-.2 0-.3-.2-.5-.3-.8a17.4 17.4 0 0 1-.7-2 16.6 16.6 0 0 0 1.6 2.2v-.1l-.1-.3-.9-1.2-.5-1v-.2l.3.6h.1v-.5l1.2 1.8v-.2l-1-1.5c-.1-.1-.1-.2 0-.2 0-.1.1 0 .2 0a20.2 20.2 0 0 1 2.3 2.1c.1 0 0-.1 0-.2a13.8 13.8 0 0 0-2-2c-.1 0-.2 0-.3-.2a8 8 0 0 1 2 .6 5 5 0 0 1 2.7 3.7l.2 1.4v.5c-.1-.2-.1-.5-.3-.6v.4l.2.5-.3-.3-.2-.4v.2l.4.8.4 1.4-.2-.3-.2-.4-.2-.3-.2-.3v.2l.4.8.4 1.1v.3l-.1-.1a26 26 0 0 0-2.1-3.7l-.2-.2s-.1-.1-.2 0l.3.4 1.1 1.7c.5.9.8 1.7 1 2.6 0 0 .1.1 0 .1 0 0 0-.3-.2-.4 0-.2 0-.4-.2-.5a8.2 8.2 0 0 0-.7-1.4c0-.2-.2-.3-.3-.5l-.3-.4-.3-.4v.2l.4.6 1 2 .1.2-.1-.1-1.3-1.1-1.6-1.1-1.4-1.3c-1-1-1.4-2-1.4-3.3v-1.3c.2 0 .1.1.2.2Zm10 3.2v-.3l.1.1v.2Zm-.2 3.8h-.2l-.2-.1v-.1c0-.3.1-.5.4-.6h.1l.1.1c0 .3 0 .5-.2.7Zm.8 3.8H60c-.1-.2 0-.3 0-.4h.2c.1.2 0 .3 0 .4Zm2-1v.1h-.1v-.2Zm1.2 1.6s0 .1-.1 0h-.1l.1-.3.1.2v.1Zm1-7.2h-.1l-.1-.3v-.1h.1l.1.3Zm22.9 57.4 1.2-.7.2-.3c0 .2 0 .3-.4.5l-.5.5.5-.2c-.3.4-.7.7-1.2.8-.6.3-1.2.4-2 .5h-.1 1.3a6 6 0 0 0 1.3-.5v.1c-.6.6-1.3 1-2.2 1-.5 0-1 0-1.5-.2a11.7 11.7 0 0 1-3-1.4c-.3-.2-.5-.4-.9-.5H80h.2l1 .3.9.3h.2l-1-.4-1-.5 1.5.2c-.4-.3-1.1-.4-2.4-.5h.9l-.3-.1h-.7c.1-.2.3-.2.5-.2h.4l.5-.1c-.5-.2-1 0-1.4 0V77l.4-.1 1-.3h.3v-.1h-.6l-.7.1.4-.3.9-.3.3-.1v-.1h-.4s-.1.1-.2 0l1.2-.5c.7-.2 1.5-.2 2.2-.1.7 0 1.4 0 2.1.2h.1v.1h-.1v.1l1 .1.5.1c-.2.1-.3 0-.4 0l-1.8.1h-.4l1.6.2h1.7l-1.3.4-1.4.1h-1.3l.4.2h2l1.5-.4.3-.1-.2.1-.3.2h.1l.5-.1v.1l-1.4.5a9 9 0 0 1-1.4.2l-.7.1h1.5c.5 0 1-.2 1.4-.3l-.9.4c-.3 0-.5.2-.8.3h.6l1-.4h.2c-.7.5-1.4.9-2.3 1h-1s-.2 0-.3.2h1.2a5.2 5.2 0 0 0 2.1-.8l1-.8c0 .2-.2.3-.3.5a4.4 4.4 0 0 1-1 .8l-.4.2c0 .1.1.1.2 0Zm2.2 5.6c0 1-.3 2-.5 2.9-.6 2-1.7 3.8-3.2 5.4l-1.5 1.3-1.4 1.2s0 .2-.2.2V95l1-1.2 1-1.2.2-.2-.2.1-1.3 1.3-.2.2.3-.6.3-.5h-.1l-.8 1.2-.3.5v-.2l.9-1.8.2-.4-.2.1a10.9 10.9 0 0 0-1.1 2l.1-.6.3-.6h-.2v.1-.3l.9-1.8V91l-.8 1.4-.6 1.4c.1-.9.5-1.7.9-2.6-.1 0 0 0 0 0H83l-.3.6v-.2l.1-.4v-.2c-.1 0 0-.1 0-.2 0-.5.2-1 .3-1.4.6-1.8 1.5-3.5 2.6-5l.6-.8.2-.1-.7 1.2h.2l.5-.8a16.9 16.9 0 0 1 1.3-1.7l-.2.4-.9 1.3-.2.3c0 .1 0 .1.1 0l.2-.2 1.8-2.5.2-.3v.2a78 78 0 0 0-.5 1.2l.1-.1.7-1.3.2-.3v.2L88 83.5l-.1.2v.1h.1l.1-.2.7-1.4.1-.2v.2l-1 2.3-1 2.5a22 22 0 0 1-1.4 2.4l-.2.2h.1l.2-.1a31.1 31.1 0 0 0 3.3-6c-.2 1.1-.6 2.2-1 3.3l-.3.7h.1l.3-.7a25.6 25.6 0 0 0 1.3-3.5l-.7 2.8v.2l.1-.2.5-1.4c0-.5.2-1 .3-1.3V83v1.1Zm1-5c.2 0 .2 0 .2.2a9.6 9.6 0 0 0 .7 1.6c0-.3-.2-.5-.3-.8l-.2-.9-.2-.8h.1l.2.6.1.2V79a32.5 32.5 0 0 1-.1-.8l.5 1.1.5 1.3.6 1-.7-2a1 1 0 0 1-.2-.3l.2.2.3.7.2.1a10 10 0 0 0-.4-.9l-.4-.9-.4-1 .2.2.5.8.2.7.2.1v-.1l-.3-.5v-.2l.6.9.6 1.5.1.3h.1V81c.3.4.8 1.8 1 2.5l-.2-.1v.1l.2.7v.7c-.2-.1-.1-.3-.3-.5 0 .4.2.7.3 1v1-.2l-.5-1.6-.2-.4v.2l.4 1.7-.1-.2-.7-1.7a1 1 0 0 0-.2-.3l.3 1 .3 1-.6-1.1.2.5.1.5-.4-.6c0-.1 0-.3-.2-.3h-.2c-.6-1-1.1-2.1-1.5-3.2a7 7 0 0 1-.5-2.4Zm1.2.2-.1-.3.1.3Zm1.7-11.4Zm-3.8-21.3h.1l.2.5c-.3-.1-.3-.3-.3-.5Zm-7.2-2v-.4h.1l.1.5c.1-.1 0-.2 0-.2V44h.1v.4l.1-.2V44h.2l.2.1.1.1c0 .2 0 .3.3.4l-.2-.3v-.2c-.1 0-.2-.1 0-.2v.2l.3.4.1.2-.2-.7V44l.2.2.1-.1h.2v-.3h.5l.1.2c0 .1 0 0 .1 0l.1.4v.2a3 3 0 0 1-.8.4h-.5l-.2.1a4 4 0 0 0-.8 0h-.2v-.6Zm-.4.2c.2 0 .2-.2.3-.3v.6c0 .2-.1.2-.3.2v-.5Zm-.5-.2.1-.1h.3l-.1.7c0 .2-.2.2-.3.2v-.8Zm-.8.6v-.5l.1-.2h.1v.8h.1v-.6c0-.2 0-.2.3-.2v1l-.6.2v-.5Zm-1.3-.3v-.2h.1l.2.6v.1-.3l.1-.3v-.2h.1c0 .2.1.1.2 0h.1v.7c.1-.2 0-.5.2-.7v.5c.2-.2 0-.4.2-.5v1c0 .1 0 .2-.2.2l-.9.5h-.1V45Zm-.4.2c0 .3 0 .7.2 1v-1 .8l.1.2v.2c0 .2-.2.2-.3.3v-1.5Zm-1.4 10.6c-.2 0 0-.2-.1-.3l-.2.3a4 4 0 0 1-.8 1.1l-.4.5V57l.1-.8v-.5l-.1.2-.2 1.1-.1.2-.1-.2-.5-1.1-.1-1-.1-.1-.1-.1c-.1-.1-.1-.3 0-.4 0-.6 0-1 .4-1.5h-.1l-.3.4s0 .2-.2.2c0-1 .2-1.9.6-2.8.3-.6.7-1.2 1.4-1.4l.1-.1h-.5l.7-.7c.2-.3.5-.5.8-.6l1-.4h-.6l.1-.1 1-.6.5-.2c.4 0 .8 0 1.2-.2v-.1a14.1 14.1 0 0 0-.8 0l.7-.4a9 9 0 0 1 2.7-.5v.1l-.4.3-1 .5-.5.2-.1.1h.5l-.1.2-.8.7a2 2 0 0 1-1.4.7h-.6l-.1.2h1.1c-.3.4-.6.8-1 1-.2.4-.6.6-1 .7l-1 .3-.3.1-.1.1.9-.2.9-.2-.4.5-.4.5a12 12 0 0 0-.8 1.7l-.2.6.7-1.1v.2l-.1.2v.5-.1l.1-.3.4-1c.2-.5.4-1 .8-1.4l.3-.3s0-.1.1 0c.1 0 0 0 0 .1v.6l.1-.2.3-1 .7-.9.5-.4.2-.2v.3l-.1.3a2.8 2.8 0 0 0-.1.7v.6a382.2 382.2 0 0 0 .3-1.5l.5-1 1-1h.1v.6h.2v-.5l.7-1 .5-.2h.1c0 .4 0 .8-.3 1.2l-.4.4-1.1 1.7c-.4.7-.6 1.4-.7 2.2V51.6h-.1l-.1-.2v-1l-.1-.2c-.1.4-.2.8-.1 1.2 0 .4 0 .9-.4 1.3l-.5.6c-.3-.1-.3.1-.4.2v-.3a60.8 60.8 0 0 1-.3-.9v1.3c0 .3 0 .5-.3.7l-.9.7v-.5c.2-.3.1-.6 0-1v.4l-.2.6c0 .5-.3.8-.6 1.2Zm4.4-2.1.2.3.1.2v.1c0 .1 0 .1 0 0-.1 0-.3 0-.4-.2l-.4-.2.2.2c.1.1.3.2.3.4v.1c.1 0 .2.1.1.2 0 0 0 .1-.2 0v.2l-.4-.1v.2l.1.1.4.3h-.3.1l.3.2v.1H82l-.8-.3H81h.1c.1.1.2.1.2.3h.2l.3.2s.1 0 0 0c0 .1 0 0 0 0H81l.4.1.3.1v.1h-.4c-.7-.2-1.3-.3-1.9-.6l-.6-.4V55l.3-.2.3-.3a9 9 0 0 0 2-2.3l.2-.3v.2l.3 1.1s.2.2 0 .3Zm1 1.4.1.1h-.1l.1.4-.1.1v.1h-.4a.3.3 0 0 1-.3-.2v-.3c-.2 0-.1-.2 0-.4v-.3l.2.1v.4c.1.2.2.2.3.1h.2Zm.4.8v-.4c-.1 0 0 0 0 0v-.5c.1 0 .1 0 0 0v-.3h.4s0 .1 0 0h.3v-.3h.3s0 .1.1 0l.3.1.6.2h.1l.1-.2s.1 0 0 0v-.2H86c0-.1 0 0 0 0l.1.2v-.2h.1l.1.1.1-.3.2.2v-.3h.1l.2.4V54l.1-.1h.2v.3c.2 0 .2-.2.3-.3h.1v.1s-.1.2 0 .2l.1.2c0 .4 0 .4-.4.4a8.7 8.7 0 0 0-1 .1H87.6v.1h-.3c-.2.2-.4.2-.6 0v.2H86a125.7 125.7 0 0 0 1.2.1v.1h.4v.2h.2v.2l-.3.2h.3l-.2.2h.2c0 .2-.2.2-.2.3H87.9v.2c-.1 0 0 0 0 0v.4c.1 0 .1 0 0 .1v.1c.2 0 .2 0 .1.2H88c.2 0 .2 0 .2.2v.5h-.2l.2.1v.2c.2 0 .2 0 .1.1.2.2.1.4 0 .6v.3s0 .2-.2.3v.2c.1 0 0 0 0 .1V62l-.1.2-.1-.2-.4-1.4a4 4 0 0 1-.1-1.6v.2l.3.6c0-.4-.1-.8-.3-1.1V58c-.3-.2-.3-.2-.2-.6H87v-.5c-.1 0-.1-.1 0-.2h-.1l-.1-.3-.2-.3-1.1-.5H85l-.6-.1.2.2h.2l-.3.2h-.3s-.1 0 0 0l-.1.3v.1c-.1 0 0 0 0 .1l.2.3H84l.4.2H84c-.1 0 0 .1 0 .1l.2.2c-.2 0-.2.3-.4.2h.2s0 .2.1.1l.2-.1c0-.1.2-.2.3-.1h.3c0-.1 0-.1.1 0 .2 0 .4.1.5.3-.2.2-.2.2-.6.2.1 0 .1.1 0 .1l-.4.3c-.2 0-.3 0-.4.2-.2 0-.3.2-.3.4l.1.4c0 .1 0 .2.2.2v.1c0 .2-.1.2-.2.2H84l.4.1v.2H84v.1c.1 0 0 0 0 .1.2.2.2.2 0 .2v.2H84s-.2 0-.3-.2l-.3-.4-.2-.3c-.1-.2-.1-.4-.4-.6v-.8h.4c0-.2-.2-.2-.2-.2-.1 0-.2 0-.2-.2l-.2-.3V57.3h.2c0-.2-.1-.2-.2-.3h-.1c0-.1 0 0 .1 0h.3l-.1-.2h-.2v-.1l.3-.1-.1-.1v-.1l.2-.2.2-.1.1-.2h.2l.1.1v-.3Zm3.8 6.6h.3-.3Zm-.5 0-1.4.3v-.2l.7-.9.8-.5.3-.1h.2l.1.4-.1.1H87l.2.1h.4v.1c0 .1 0 .2-.2.2H87l-.2.2.8.2h-.8Zm-2 .2.5-.4.7-1 .5-1 .2-1a3 3 0 0 1 .2-1.2c.3.2.3.5.2.7v1.5h.1c-.2.2 0 .2 0 .3v.1l-.1.1h.3c-.1.2-.2.2-.4.2l-.5.2s-.1.1-.2 0l-1 1.4-.4.4h-.1v-.3Zm-.5-.7h-.2l-.5-.1.5-.1c.1 0 .3 0 .4-.2.4-.2.9-.3 1.3-.3l-.1.3h-.2v.2l-.3.2H85s0 .1 0 0a.7.7 0 0 0-.6 0Zm1.5-3.7c0 .2-.1.2 0 .4l-.2.3-.2.1-.2-.3-.5-.3v-.2a2 2 0 0 0 .9-.3l.2-.1.1.1v.1h-.1v.2Zm-1.2 1c-.2 0-.3-.1-.5-.3V58.6h.6l.2.2h-.3l.3.1.3.1.1.1v.2c-.3.1-.5.2-.8 0 .1 0 .3 0 .5-.2h-.4Zm1.2-1.7h-.1l-.1-.1c-.2-.3-.4-.4-.7-.4l-.3-.1v-.5c-.1 0 0-.1 0-.2 0-.2.2-.3.5-.3h.2c.4 0 .8.2 1.1.4l.2.1v.5l-.1.2-.3.1-.2.2-.2.1Zm-.1-1.6h.3-.3Zm-3 3.8-.2-.3-.4-1V58c-.2-.4 0-.9-.1-1.3v-.4c0-.5.2-.6.5-.6h.5c0 .2-.1.2-.2.2-.3.3-.5.6-.6 1v.6l.4.4.2.2c-.2 0-.3.2-.3.4v.5l.4.6s.2.1.1.2l-.3-.2Zm.5-4.8v-.1h.1v.1Zm-4.3.6a.4.4 0 0 1-.3-.2l.3.2Zm-.6.2c-.1 0-.1 0 0-.2h.2l.9.5v.1H79v.3H79l-.7-.6Zm.3 2.4c0-.1.2-.3.1-.4v-.1c.1-.1.3-.1.3-.3l.1-.2H79l.1-.2.2-.3h.4c0-.2-.2-.2-.1-.3l.1-.2h1l.5.2v.1l.2.2H81l-.7.1-.7.4v.1c-.2 0-.2.1-.3.2a4 4 0 0 0-.6.7l-.2.2v-.2Zm0 1 .2-.3v-.1c.1-.2.2-.4.5-.5h-.1s-.1-.1 0-.2h.1c.1-.1 0-.1 0-.1v-.2c0-.1 0-.2.2-.2l.2-.1v-.2l.5-.2h.3c0-.2.1-.2.2-.2h.4c.1 0 0 0 0 0h.4c.3 0 .4 0 .3.4v.1l-.1.2h-.2c-.2 0-.3-.2-.5-.1l.7.3a24.3 24.3 0 0 1-.9 0l.5.1.5.2h-1 .7c.2.1.2.2.2.3h-.9.1l.3.1h.2l.2.1c0 .1-.1 0-.2 0-.2.2-.3.3-.5.2 0 .1.1.1 0 .2v.2l.6-.4h.2c.3 0 .5 0 .4.5 0 0 .2 0 .1.1l-.1.1.6.3h-.1c0 .2.2.3.3.3a1 1 0 0 1-.3 0h-.4l.7.1.4.3c-.2 0-.4-.2-.7 0h.3l1 .3h.2l.3-.5s0-.2.2-.2c0-.3 0-.3.2-.2h.1c-.1-.1-.1-.2 0-.2h.2c0-.1 0-.2.2-.2l.5-.7.2-.6.5-.7.2-.2v.1l-.2.3h.1c0-.1.1-.2.2-.1v.2s-.2 0 0 .1l-.2.2c.1.1.1.1 0 .2 0 0-.1 0 0 .2-.2 0-.2.1-.1.2v.2c-.1 0-.2 0 0 0v.2h-.2v.2l.1.1c.1.1 0 .2 0 .2v.2l.1.2h-.4l.2.3v.2l-.1.1h-.8c0 .2-.2.2-.2.3l-.4.1h-.3c-.1.2-.3.1-.4.2H84V61l.3-.1c.1 0 .2 0 .3-.2l-1 .2-.6-.1-.3-.1h-.2a30 30 0 0 1-1.2-.5l-.1-.2s-.2 0-.2-.2l-.1-.1v-.3s-.1 0 0-.2c-.2.2-.2.5 0 .7l.1.3h.1l.4.2v.1s-.1 0 0 0c.3.2.7.2 1 .3l.2.1v.2H83.5v.1h.3c0 .2-.2.2-.3.3h.1l.7-.3 1.6-.4h.1l-.2.2h-.3l-1.4.5-1 .2-1.6.1-.9-.1s-.1-.1 0-.2c0 0 .2 0 .1-.1h-.3l.2-.2h-.3s-.1 0 0 0l-.2-.2h-.1l-.1-.1-.4-.1-.1-.2H79.2v-.2l.3-.1-.6.1v-.2l.2-.3s0-.2-.1-.1l-.4-.2c0-.2.1-.3 0-.4V59Zm2.2 5 .3-.2c0-.1-.1 0-.2 0l-.2.2V64l.6-.7-.4.2-.3.3H80.3v-.1l.2-.2c-.1-.1-.1 0-.2 0l-.1.2s-.1.1-.2 0c-.3-.1-.4-.1 0-.5l.2-.3-.6.4s-.1.1-.2 0V63l.2-.1v-.1l-.1.2c-.2 0-.3.2-.5 0l.2-.2v-.2H79v.1H79v-.2c-.2 0-.3-.1-.3-.3l-.1-.3c-.1-.2 0-.3 0-.4l-.2-.2h.2l.2-.1c-.4-.2-.4-.2-.4-.5v-1.2l.1.4.2.4.2.3.1.1.4.2.9.6.2.2h.1c0 .2.1.2.2.2l.4.1v.2l.4-.2h.2c.1.1.3.1.4 0h1l-.7.3h.2l.6-.2h.3c.1 0 0 0 0 .1 0 0-.2 0-.3.2h.8c.1 0 0 0 0 0h.5c-.2.2-.5.2-.7.3h.8v.2l-.3.1h.2V63.2l.1.1h.2l.2-.3s.1-.2.3-.2l1-.2h.3c.1.2.3.2.4 0l.2.1c-.2.2-.5.2-.7.2l-.8.3.8-.1.7-.2s-.2 0-.2.2h.5l-.3.3h.2l-.2.2c.1 0 .2 0 .1.1l-.1.1c-.2.1-.2.2-.1.4v.2c-.2.4-.5.6-1 .6h-1.1c0-.2-.2-.1-.2 0h-.3v-.1s0-.1 0 0h-.4l.3-.3c-.2 0-.3.1-.3.2h-.3l.1-.2-.3.2s-.2.2-.4.1h-.1c0-.2.2-.3.3-.5h-.1l-.4.4-.2.1.1-.4.1-.2-.4.5s-.1.1-.2 0h-.1v-.3l-.1.1-.2.1c0 .1 0 0-.1 0 0 0-.1 0 0-.1l.1-.3.1-.2h-.2l-.1.1v.1l-.2.3-.4-.2v-.1l.2-.3.2-.3a1 1 0 0 0-.3.3l-.2.3h-.2s-.1 0 0-.1Zm4 3.2c0 .1 0 .2-.2.2 0 0-.2 0-.2-.2v-.2h-.1c0 .3-.2.4-.4.4-.5 0-.5 0-.6-.4v.3H83v.2l-.2-.1-.1-.3v.6c-.5.2-.6.3-1-.1l-.1-.2v.1c0 .2.2.3.3.4l-.2.1c-.2 0-.4 0-.5-.2h-.1v.1c0 .1 0 .2-.1.1h-.2v-.3s0-.2-.2-.2v.3s0 .1 0 0h-.1a2 2 0 0 1-.2-.6v.5c-.2 0-.2-.1-.3-.2v-.9l.4-.7.7-1.1.1-.2h.1c.1 0 .1 0 0 .1v.3l.2-.2c.1 0 0 0 0 .1l-.1.2.2-.1-.2.7.7-.8c-.1.3-.3.6-.2 1l.2-.7.2-.1h.1v.3c0 .1-.1.2 0 .4l.1-.5s0-.1 0 0h.2v.5-.1a9.5 9.5 0 0 1 .3-.6s0-.1 0 0h.1v.2l.2-.2h.1l.1.3.2-.3h.2v.2l-.2.5.1-.1c0-.3.3-.4.4-.6h.4v.6-.2l.3-.3.2-.1v.1H85.9l-.1.2-.1.2.5-.4-.1.3.2-.1.2-.2v.3s0-.2.2-.2l-.1.3-.7 1.2-.3.4-.4.1c-.1 0-.2 0-.3-.2l-.1-.2v.3Zm-6 2.2c-.3.3-.5.5-.9.6a7 7 0 0 1-.8.2l-.1-.1H76.7l.2-.3.2-.4c0-.1 0-.1-.1 0l-.2.2-.4.4c-.1.2-.3.3-.5.3a8.2 8.2 0 0 1-1 0v-.1l.2-.2c.3-.2.4-.4.5-.7-.2 0-.3.2-.4.4-.4.3-.9.5-1.4.6l.1-.2c0-.1-.1 0-.2 0a4 4 0 0 1-1.4.4H72v-.1l.6-.4.2-.3v-.1h-.1l-.7.6-.3.2v-.2l.4-1c0-.3.2-.5.4-.8V68.2l.2-.3c.3-.3.6-.6 1-.7h-.1l-.5.1a6 6 0 0 1 2.1-1.7c.4-.2.9-.3 1.4-.2h.3l-.2-.2.4-.1h.4a3.7 3.7 0 0 1 1.4.2l.3.1v-.1l-.3-.2h1.3v.3l-.5.8c-.1.2-.1.2-.3 0H79l.3.3s.1.1 0 .2l-.1.2c-.4 0-.7.2-1.1.1-.3 0-.6 0-.8-.2a33 33 0 0 1-1.2-.4v.1l1.3.6-.2.1a9.7 9.7 0 0 0-2.4 1s-.2 0-.2.2l.5-.2.4-.2-.2.2c0 .1-.2.1-.1.3l.2-.1.8-.5c.5-.3 1-.5 1.7-.5 0 .2-.1.2-.2.3-.1 0-.2 0-.2.2h.1l.5-.3.9-.4c.1 0 .2 0 .1.2l-.2 1v.5c.1 0 0 .1 0 .2l-.3.4Zm.4-.3h.1s.1.1 0 .2l-.4.4c0-.3.2-.4.3-.6Zm2.4 3a3 3 0 0 1-.4 0l-.4.1.2-.8-.2.2-.1.4c-.1.3-.3.4-.6.4H79.3s0-.1 0 0H79l-1 .3H78c.1-.3.4-.5.6-.7l-.4.2c0-.3 0-.5.2-.8l.2-.1.4-.1.3-.1h-.8l.1-.3v-.1l.3-.3h.2v-.2c-.1 0-.1 0 0-.2 0-.2.2-.3.3-.4h.3l.2.3.7.8v.6-.1c.2-.3.3-.2.4 0 .2 0 .4.2.5.3l.1.2c.2.1.2.3 0 .3Zm8-2 .4 1h-.6l.1-.2.2-.1h-.4c0-.3.2-.5.3-.8Zm-1.7.2h.6l.8-.3c-.5 1.5-1.9 3.2-3 3.7 0-.2.2-.3.3-.4l.4-.4.3-.4-1.3 1 .7-.8.7-.8.6-1c-.2.1-.3.2-.3.4l-.3.3-.3.4-.3.4-.3.3-.3.3-.4.3c.3-.6.7-1 .9-1.7l-.4.5-.4.6-.4.6.1-.6-.2.2v-.3h-.1l-.1.1v-.6c0-.2.2-.4.4-.5.7-.3 1.3-.7 1.8-1.2.1-.2.3-.2.5-.1Zm-.6-.3v.2l-.7.5v-.5l-.1.3-.2.3v.2H86v-.3.1c-.2.2-.2.4-.4.4v.1l-.2.1v-.1a37.6 37.6 0 0 1 .3-1l-.1.3-.4.9c0 .1-.1.1-.1 0h-.2v-.1l.1-.4-.2.6c0 .1 0 .3-.2.2l-.2.2c-.1 0 0 0 0 0V72c-.2 0-.2 0-.2.2l-.2.1-.2.2v-.3l-.2.4-.1.1v-.3l-.1.1h-.2l-.1.2c-.2 0-.2.2-.3.3h-.1V71.4v1.4h-.2s0 .1 0 0v-.4l-.2.2v-.3h-.2v-.2c-.2-.2-.2-.3-.2-.5l.1-.8v-.2l-.2 1V71l-.1.3h-.1l-.1-.1v-.7c-.1.2 0 .4-.2.6v-.5l-.2.1v-.2l-.1.3-.2-.2v-.2.2a.4.4 0 0 1-.3-.3v-.5l-.1.4v-.4l-.1.1h-.1v-.4l-.1.1c-.1 0 0-.1 0-.2l-.1.1c0 .1-.1.1-.2 0l-.3-.3a.8.8 0 0 1-.2-.7v.2H79V68a10.5 10.5 0 0 1 1.9-3.5h.1v.2l-.9 1.3v.1c0 .3-.2.5-.3.8 0 0-.1.1 0 .2.1 0 0 .1 0 .2l-.1.6.3-.3v.5c.2-.2.2-.2.4-.1l.6.2h.3l-.2.7.1-.2.3-.4c.1-.1.2-.2.4-.1-.1.3-.3.5-.3.8l.1-.2c.1-.3.4-.5.6-.7.1-.1.2 0 .2 0l.2-.2.1.1-.2.3.2-.3.2-.2c.1 0 0 0 0 0v.1l.2.2.2-.4s0-.1.1 0l-.2 1.5V69a54.6 54.6 0 0 1 .6-1.4v.4l.1-.4s.1-.1.2 0v.6l-.1.6v-.2l.1-.3.1-.2c.1 0 0-.1 0-.2l.2-.3v.6-.2l.1-.2v-.2h.1v.4l.1-.1v-.1h.1c.1 0 0 .1 0 .2.2-.1.2-.2.3-.4h.1a25.1 25.1 0 0 1 0 .6l.2-.7.1-.3v.2h.1l.3-.7-.1 1 .1-.4c.1 0 0 .1 0 .2.1 0 .1.1 0 .2V68h.3v.6-.3c.1-.1.2 0 .2 0h.1l.2.1v1c.1.2.2.5.4.6Zm.2-4.3v.5l-.3.1.3.2v.2h-.3l.2.2c.1 0 0 .1 0 .2.1 0 0 .2 0 .2l-.2.2v.4c-.2.2-.3.4-.6.3v-.2l-.1-.3v-.5c-.3-.4-.1-.8 0-1.2h.2v-.4c.1 0 .2-.1.1-.2 0-.2 0-.3.2-.5h.1v-.2l.2.1v-.3c0-.1 0-.1 0 0h.2v-.4l.2-.1c-.2-.1-.2-.2 0-.4.1-.2 0-.2 0-.2 0-.3 0-.5.2-.7v-.5l.2-.1.1-1.2v-.6c.1-.3 0-.7.2-1v-.2.1l.2.5-.1.4v.5c0 .3-.1.5 0 .8v.5c.2.1 0 .3 0 .5-.1 0-.2 0-.1.1v.5l-.1.2H88l.2.1v.3c-.1.1-.3 0-.3.2l-.2.1.2.2.1.3c0 .4 0 .7-.3 1l-.1.3h-.2Zm1.9-2.6v.1l.1.2v.1h-.6l.4.2v.1h-.5l.3.1.2.1-.1.3v.1h-.3V64.9c-.1 0-.1 0 0 .2h-.3l.3.1v.1c-.3 0-.6.2-.8.3-.1 0 0 0 0 0l.1-1 .1-.3s-.1-.1 0-.1l.2-.8h.1l.2-.3v-.2l-.1-.2v-.3l-.1-.7v-.9l.2.1c0 .5.2 1 .4 1.5l.3.6v.2l-.1.1Zm-.7 2.6-.9.6h-.1v-.1c0-.3 0-.4.3-.5h.2l.2-.1h.3v.2Zm6.2-12.1v1.5l-.1 1.2-.4 1.4-.1.1v.5l-.2-.1.2.4v.1H94l.1.3H94l.1.1s.1.1 0 .2V59.7c-.2 0 0 .2-.1.3l-.3-.2.1.2.2.2v.2s0-.1-.1 0l.2.2s.2.2 0 .4l.1.1c-.2 0-.3 0-.4-.2l-.4-.1a23.3 23.3 0 0 0 .9.7H94l.2.2h.2v.2h-.2v.1l-.6-.1.5.2-.8-.2.4.4c-.2 0-.3-.1-.4 0h.2l.3.2h-.9c.2 0 .4 0 .6.2l-.1.2h-.2l-.3-.1h-.2l.2.1v.1h-.3v.2l.2.1h-.4c.2.1.2.2.1.3-.3.3-.5.6-.9.8l-.1.1s0 .1-.1 0v-.3l.2-.5v-2c.1-.3.2-.6.5-.8l.5-.7V60c.2-.1.3-.3.3-.5l.2-.1 1.4-3c.1-.4.2-.8.1-1.3V55l-.1-.3a.5.5 0 0 1 0-.6l.3-.4v.1Zm-.8-.2.2-.1c.1 0 0 0 0-.1v-.2l.1-.3.2-.3.1.2v.2c0 .2.1.3 0 .4 0 .2-.1.4-.3.5-.1 0-.2 0-.1.1v.7l.2.3v.4h-.3v.2c.2 0 .2.1.2.2v.3l-.2.6-.2.2h-.2l-.3-.1c.2.1.4.1.4.3-.1 0-.2-.1-.4 0l.3.1v.3l-.1.1h-.2l.1.2c.1 0 .1 0 0 .1h-.3c0 .1.2 0 .2.3l-.3.1h.1v.2H93c.1.2.2.3.1.4l-.2.5s-.1.1 0 .2a1 1 0 0 0-.4.5l-.2.3a3 3 0 0 1-.4.5h-.1l-.1-.1-.4 1.2v.6l.1.6v.8h-.3v.4c0 .2 0 .2-.2.1-.1 0 0 .1 0 .2v.1c-.2 0 0 .1 0 .2H90.6V65.1h-.1l-.2.4-1.1 1-.4.1h-.1v-.2c-.1 0-.1-.1 0-.2l.2-.8c0-.2.1-.2.3-.3v-.3c.2 0 .2 0 0-.2 0-.1.1 0 .2 0v-.2l-.1-.1.1-.3h.1l.1-.1s.1 0 0-.1V63.6h.1l.3-.1-.2-.2h.2l-.1-.1s-.1 0 0-.1h.2l-.1-.1s-.1 0 0-.1v-.1l.3-.1c-.2-.2-.2-.3-.1-.4 0 0 .2 0 .1-.2H90.7l-.2-.2v-.3l.1-.1c0-.4.3-.7.4-1 .2 0 .2-.2.3-.3V60l.2-.2.3-.2h-.2s-.1 0 0-.1c0-.3 0-.3.4-.5h-.2V59l.2-.1.2-.1H92s-.1-.1 0-.2l.1-.5c0-.1.1-.2.3-.2h.2l-.3-.1.1-.3.1-.1s.1 0 0 0l.1-.3h.1l-.2-.2a32.4 32.4 0 0 1 .3-.7h.6l-.5-.1v-.2c.1 0 .1-.2.3-.2-.1 0-.1-.1 0-.2v-.2l.2-.6c0-.2.2-.3.3-.5h.2V54h-.1c0-.2 0-.3.2-.3v-.2Zm-2.8 6.2.5-2 .7-1.1-.4 1-.3.8c0 .4-.2.8-.4 1.3h-.1ZM95 48.9l.1-.2c.1.3 0 .5 0 .8-.2-.2-.2-.4 0-.6Zm-4.9-2v-.4.3Zm1.6 2v-.3.4Zm0-.3-.1-.4v.4c-.2-.2-.2-.3-.2-.5V47l-.2 1.7V48H91v-1 .2l-.1.8v-1c-.2.3-.1.5-.2.7l-.1-.3v.2h-.1l-.2-1.1c0-.2 0-.3.2-.3l.4-.2c.6-.3 1.1-.5 1.6-.9h.2V45.7c-.5.4-.7.9-.9 1.5l-.1 1.4Zm.9 1.4c-.1 0 0 .3-.2.4v-.8l-.1.5v-.8l-.1.6c-.1 0 0-.1 0-.2v-.3a14.1 14.1 0 0 1 .4-2L92 49v-.6l-.2.6v-1l.2-.9c0-.3.2-.7.4-1l.1-.1c.3-.4.7-.4 1.1-.2.1 0 .1 0 0 .1v.1h.2s.1 0 0 0V46.4h.2v.2h-.2v.2h.2v.6l-.4.4c0 .1.1 0 .2 0v.1l-.4.4c0 .1 0 0 0 0l.4-.2h.2v.4h.2l-.1.4c.3 0 .5.2.6.5l.2.3v.1h-.1c-.3-.3-.6-.4-1-.3l-.2-.1c-.3-.3-.5-.3-.7 0a2.2 2.2 0 0 0-.3.8l-.1-.1Zm-.6 5.4v-.2h.4c-.1-.1-.3 0-.3-.2h.2v-.6c.1-.3.1-.3.5-.4l-.2-.1.3-.2h-.2l-.1-.2.2-.4v-.2l.1-.8v-1.4c-.2-.4-.2-.9.2-1.3l.1-.1c.1-.1.2 0 .2 0h.1v.2c-.2.1 0 .2 0 .3h.2v.1l-.2.2v.2c.1 0 .1.1 0 .2.1 0 .2 0 .1.1v.3l-.1.5.1.2-.1.4h.2l.1.2v.2l.1.2h-.2s.2 0 .2.2c-.1 0 0 .1 0 .2v.5c-.2 0-.2-.2-.2-.2a1 1 0 0 0-.2-.6h-.2v-.2l-.2-.1s-.1 0 0 .1l.2.2.1.2c.2.2.3.4.2.7l-.2.8-.1.1-.1.2-.1.2H93l.1.2-.2.4-.5.8-.6 1.2-.2.2c.1.1 0 .2-.1.2.1 0 .1.1 0 .2V58.4l-.1.6-.3.3-.2.1h.2v.2c-.2 0-.2.1 0 .2v.1c-.2.1-.2.3-.3.4 0 .3-.2.5-.4.7v.1a3 3 0 0 0-.2.8l-.2.6h-.1v-1.2s.2-.2.1-.3l.1-.5.2-.5.1-.6.2-.2.1-.2h-.2a13.7 13.7 0 0 1 .3-.8s.1 0 0 0V58c0-.1 0-.2.2-.3v-.3c0-.2 0-.3.2-.3.1 0 .1 0 0-.2v-.1l.4-.1c0-.1-.2 0-.2 0 0-.2 0-.1.1-.1v-.1s-.1 0 0 0v-.2l.2-.1h-.1V56l.1-.2.1-.2.1-.2h.1c.1 0 0 0 0-.1Zm-3.9-4.6c.1-.2.2-.3.4-.3l-.3.6v.6l.1-.6.2-.4.3.1v.3l.5.7-.2-.6h.1l.4.3.2.2c0 .1 0 .2.2.2l.3.3s.1.2.3.2v.1l.7.8v.1l-.3-.2-.8-.7H90c0-.2-.2-.3-.3-.5h-.1l-.1.1.2.2-.4.1.5.2.4.1v.1h-.5c.3.2.6.2 1 .3H90c.1.2.3.1.5.2l.6.2h-.4c0 .2.2.1.3.1l.3.1h-.1l.3.1-.2.1.6.2-1.5-.1.9.2.2.1h.4l-1 .2 1 .1-.2.1c-.2.1 0 .1 0 .2h-.3.3c0 .2-.2 0-.3.2l.3.1c-.3.2-.7 0-1 .2h1l-.7.2H90a3 3 0 0 0 1.3.1v.2l-.7.1.5.1s.1.1 0 .2l-.1.1-.4.1h.3c0 .2-.2.2-.3.2h.2V57a3 3 0 0 1-.7.1h.6v.1l-.1.1V57.6l-.2.2-.3.2h.2v.2c.1 0 0 .1 0 .2l-.3.2h.2c0 .2-.2.2-.3.3h.2v.1l-.2.2h.1v.2c-.1.1-.2.2 0 .3H90l-.3.2h.2c.1 0 .1.1 0 .2v.2c-.2.1-.2.1 0 .3v.2c-.1.2-.2.3-.1.5l-.1.3-.1-.1L89 60c-.1-.2 0-.3 0-.4l-.1-.2a8.8 8.8 0 0 0 0-1.5v-.1c.1-.1.1-.1 0-.2l-.1-.2-.2-1 .2-.2h.1l-.3-.2v-.2l-.2-.6V54.9h.1c-.3-.3-.3-.7-.4-1v-.3s-.1-.1 0-.2h.2l-.2-.1v-1.4c-.2.1-.2.2-.2.4v.2l.1 1.8v.2c0 .3 0 .5.2.6l.1.7.1.9.1.4V57.7c.2.2.2.5.2.7v1c0 .2.2.4.1.7l.4 1v.4c.3.3.4.8.5 1.2v.3a1 1 0 0 1-.3-.6l-.1-.1-.2-.3-.4-1.5-.3-1.6v-.4l-.1-.1-.2-1.1-.1-.9v-.3l-.1-.5v-.4l-.2-2.6v-.5c0-.5.1-1 .3-1.3Zm-1.6.7.1-.6c.1.1 0 .3.2.4V51l.1-.2.1.2.1.2c.1 0 0 0 0-.1v-.2h.2v-.1h.1v.4l.1.2.1-.3.1-.3h.2v.3l-.2.9v.5h-.2l-.1.2v.3c0 .2.2.3.3.4 0 .1 0 .1-.1 0h-.1l-.3-.3h-.1l.3.5H87l-.4-.5s-.1-.2-.2-.1c.1.1.2.3.1.5-.2 0-.2-.3-.4-.4v.2l.3.3h-.3c0 .2 0 0-.1 0h-.2l-.3-.2.3.4v.2h-.3v.1c-.2 0-.3 0-.4-.2l-.3-.2.1.2h.1l.1.2H85c-.1.1-.2 0-.4 0 0-.2 0-.1 0 0H84l-.2.1.1-.1.8-.8c.6-.6 1.1-1.3 1.5-2.1l.1-.2c.2.1 0 .4.2.5Zm-.5-4.3c.3.6.4 1.2.4 2v.1l-.2-.3-.1-.3c0-.2-.1-.3-.2-.3v.2l.3 1.1-.1 1.1s0 .2-.2.2c-.1 0-.1 0 0 .2l-.1.1h-.1l-.3-.2h-.1l.3.3s.1.2 0 .2c0 .3-.3.6-.5.8l-.2-.5a1 1 0 0 0-.3-.4v.2l.2.4v.5l-.1.4a37.3 37.3 0 0 1-.8.7c-.1-.1-.1-.1-.1 0l-.7 1H83v-.9c-.1.1-.1.4-.3.5 0-.3-.2-.5-.3-.8v-.3l.4-.4.2-.2h-.1c-.2 0-.3.2-.4.3l-.2.2-.2-.7v-.1l.1-.3-.2-.1c0-.5 0-.9.3-1.3l.3-.6c-.2 0-.3.3-.4.3l.1-.7a2.7 2.7 0 0 1 .7-1.1l.6-.5-.4.2V47.8a14.9 14.9 0 0 1 1.9-2.2v.2l-.4.6-.2.3v.4l-.5 1.2s-.1.1 0 .2l-.1.9-.4.7-.2.8c.3-.3.3-.6.5-.9v.9c0 .1 0 .2.1.1h.1l.1.6.2.1-.2-.8a10.1 10.1 0 0 1 0-1.7 7.5 7.5 0 0 1 .5-1.6l.2.3.2.4h.1v-.1a3.8 3.8 0 0 0-.2-.6 1 1 0 0 1 0-.9l.2-.5c.2.1.2.3.3.5v-1.1h.1c0 .5.3 1 .5 1.5ZM84.5 46c-.1 0 0-.1 0-.2 0-.4 0-.7.4-1l1-.6c-.3.7-.8 1.3-1.4 1.8Zm1-1.8-.4.2V44a.2.2 0 0 1 .2-.2h.6c0 .2-.2.3-.4.4ZM93 6.6l.4 1.1V8L93 7l-.5-.8c.2 0 .4 0 .5.3ZM89.2 4l1 .7V5c.3 0 .5.3.7.4v.3h.2c.1 0 .2 0 .2.2h.2V6l-.2.1c0 .1.2 0 .2 0h.2l-.5.5c0 .1.2 0 .2 0h.5s-.2.1 0 .3v-.2h.2v.1s0 .1 0 0l.1.1V7l.1.1.2.1.2.2.4.8a2 2 0 0 1-.5-.3v-.2c0-.1 0-.1-.1 0h-.3l-.2-.1c-.2 0-.2-.2-.2-.3h-.4v-.4c-.3 0-.3 0-.4-.2h-.1v-.2l.2-.2h-.5V6l.2-.2h-.1l-.3-.1v-.1c-.2-.2-.2-.2 0-.4H90.1V5h.1c-.2 0-.3-.2-.4-.3l-.5-.7s-.1 0 0-.1Zm1.8 6.4.4.2c.3 0 .5.2.6.4l.1.2c-.1 0-.2 0-.3-.2h-.2l-.1-.1h-.2c-.2 0-.4 0-.5-.2-.1 0-.2-.2-.3 0l-.1-.1-.4-.2c-.1-.2-.3 0-.4-.2h-.3c-.1-.1-.1-.3-.3-.3h-.1c0-.2 0-.3-.2-.3l.1.3c0 .1 0 0-.1 0l-.1-.2-.2-.1v.1s0 .1 0 0c-.2 0-.5 0-.5-.3v.2a.7.7 0 0 1-.6-.5v.2H87l-.7-.4-.3-.2h-.3l-.3-.2s0-.2-.2 0l-.4-.2-.2-.2v.1c0 .1-.1 0-.2 0a1 1 0 0 1-.5-.1s0-.1 0 0l-.3-.1-.2-.4c-.1.2 0 .3 0 .4l-.8-.2-1.2-.3a.6.6 0 0 1-.4-.3H81c-.1 0 0 .1 0 .2h-.4l-.2-.4v-.2.4h-.1c-.1 0-.1-.2-.3 0V7l-.1-.2H79.6V7l-.3-.1-.1-.2c-.1 0 0 .2 0 .2-.4-.2-.4-.3-.3-.5 0-.1.1-.2.2-.1l1.7.2h.1c.1 0 .2 0 .2.2v.2h.1v-.2h.4c.2.1.5.2.6.6v-.1c0-.1.2-.1.2 0l.2.2c0-.1 0-.2.2-.2l.9.2c.2 0 .3.2.3.4.1 0 0 0 0-.1s.1-.2.2-.1l.4.1c.2 0 .3.1.3.2s.1.1.2 0h.1l.4.2.2.1.6.2.1.2v.2c.2 0 .1-.2.2-.2v.1s.1.1.2 0c.2-.2.5 0 .7 0V9l.1.1.3-.1.2.1v.1h.4l.7.5c.5.5 1 .7 1.7.8Zm1.2 1.7h.2v.3l.1-.2h.1v.2c.3.2.3.2.3.5l.1.1.1.2c0 .2 0 .1.2 0V14l-.1-.2v-.1l-.3-.1c0-.2-.2-.3-.3-.5l-.2-.3c-.3 0-.3 0-.3-.2v-.2c-.1.1-.1.2-.2.1 0 0-.2 0-.1-.1v-.2h-.2c-.4-.6-.8-1-1.3-1.4h.1c.3 0 .5.2.8.3.1.1.3.1.3.3h.2v.3c0 .1 0 0 .1 0 0 0 0-.2.2-.1h.3c0 .2 0 .3-.2.4v.1ZM91 17.6c-.2-.1-.1-.3-.2-.4v.7l-.2-.2v.4l-.1.1v.3l-.6.7h-.2l-.1-.2c0 .3.2.5 0 .8l-.2-.3c0-.2 0-.3-.2-.4v.2l.2.5v.5l-.2.2s0 .1 0 0H89v-.1H89v.1l-.1-.1v-.1h-.1v.6l-.2.2c-.2 0-.1-.2-.1-.2l-.2-.8v1.2h-.1L88 21v-.1c-.1 0-.1 0 0 0v.3c0 .2-.1.3-.3.4 0 0 0-.2-.2-.3v.2c0 .2 0 .2-.2.3l-.1-.2v.3H87l-.2-.7-.1-.3v.2l.1.7.1.3v.4l-.2-.5v.6c0 .1 0 .2-.1 0v.1l-.1.2h-.1v-.2l-.2.3h-.1l.1-.4.1-.3-.1.2-.4.5c0 .2-.2.3-.4.3V22v.4a584.3 584.3 0 0 0-.2.9v-.4l-.2.4v.1l-.3-.2V23s.1-.2 0-.2v.1l-.1.4-.2.2.1-.9-.3.8v.2s-.1.1-.2 0l-.1.1h-.1v-.9l-.2.5a12.2 12.2 0 0 1 0 .6h-.1a.7.7 0 0 1-.2-.4l-.1-.2v.3l-.2.2h-.2v-.3c-.2 0 0 .2-.2.3-.2-.2-.2-.4-.2-.8l-.1.6c-.1.1-.1 0-.1 0l-.1-.3-.1.2s0 .1-.2 0l-.1-.1-.1-.3c0 .1 0 .3-.1.2h-.3c0-.2-.2-.2-.2-.3h-.3a.4.4 0 0 1-.1-.3h-.1v.1h-.4v-.2c0-.2 0-.1-.2 0-.1 0-.2-.1-.2-.3v-.1h-.1s-.1.1-.2 0l-.2-.1v-.1l-.1-.2V21.4H79v-.2l.1-.4.6-.7c.1.2 0 .4-.1.5 0 0-.1 0 0 .1h.2l-.1.2v.1l.2.4.5.3.1.1V22.1c.2 0 .2-.1.2-.2h.8l.1.1s0 .1.1 0c.1 0 .3-.2.4-.1h.1c.1-.2.3-.2.4-.2.2 0 .3-.1.4-.3l.3-.2v.2h.1v-.2h.2V21l.2-.4s.1-.1.1 0h.1c0 .1 0 0 0 0l.1-.1.2-.2s0-.1.1 0v.1l.5-.6c.1 0 0 .1 0 .2l.3-.4c.1.1 0 .2 0 .4l.4-.7v1.1c0-.3 0-.5.2-.7 0-.3.2-.5.3-.7.1.1 0 .2 0 .2.2 0 .2 0 .3-.3l.1-.4v.4l-.1.3-.1.5.5-1V19l.2-.4v.4l-.1.5.1-.1.4-1.3v-.1h.1v.2l-.1.7v.1c.2-.3.3-.7.3-1h.1v.5l-.1.6c0 .2-.1.5 0 .8 0-.4.2-.8.3-1.1.2-.4.2-.8.2-1.2.2.2.1.5.2.7v-.3c0-.2.1-.3.3-.3l.1.2c.3.2.5 0 .6-.2v-1.1h.1s0-.2.1 0h.1v-.3c0-.1 0-.1 0 0h.2V16l.2-.1v-.4l.2.2v-.4l.1-.3c.1 0 0 .2.2.2v-.5c0-.2 0-.4.2-.5.2.2.3.4.2.7l-.3.4a25.2 25.2 0 0 0-1.1 2l.1-.1.3-.4 1.1-1.4h.2V17c-.2 0-.1-.3-.3-.4v1Zm-3.8 9-.6.3c0-.2 0-.3.2-.5h.1c0 .2.1.2.2.1 0 0 .1 0 0 0Zm.2 0s.1-.1.2 0a2 2 0 0 1-.6.4Zm-.7-.7v-.4l.4-1.2v-.1c.2.1.2.3.3.4v.1l-.7 1.2Zm.1-2.9V23h.2c0 .5 0 .9-.2 1.3V23Zm-7 7-.3.1v-.8c.4-.9.4-1.8.4-2.6v-.3l.1-.1c.6-.3 1.1-.5 1.7-.6h.2l-.1.7a11.8 11.8 0 0 1-.8 2.7c-.2.4-.1.3-.5.5l-.7.4Zm.2.3c0 .2-.2.4-.3.5l.1-.5h.1Zm-1.6.4-.3.2c0 .1-.1.1-.2 0l-.3.3a3 3 0 0 1-1 .9c0-.2.2-.3.3-.4l.7-1v-.2l-.2.1-.7 1-.2.1.2-.4.2-.4-.2.2-.2.3-.2.2v-.2a13 13 0 0 0 1.2-3.2c0-.3.2-.6.6-.8l.4-.2h.1c-.2.5-.3 1-.6 1.3a1 1 0 0 0-.3.3v.2l.2-.1c.4-.3.7-.6.8-1 .1-.3.1-.5.3-.7v.6-.2l.2-.6.1-.2c0-.2.2-.2.3-.2v.2a5 5 0 0 1-1.2 3.9Zm.8-.3-.6.5s-.1.1-.2 0a7.3 7.3 0 0 0 .9-.9l-.1.4Zm-3.1-.6-.2 1-.1-.4v-1.8c0-.6 0-1.2.3-1.8.1-.5.3-1 .6-1.3 0 0 0-.2.2-.2l-.3 1 .2-.2a6.5 6.5 0 0 1 .8-1.5s-.1.1 0 .2v.2l-.2.8c0 .2 0 .3-.2.3l-.3.3v.1l.6-.2s.1-.2.2-.1c0 1.1-1 4.1-1.4 4.8l.2-1.3c-.2.2-.2.5-.3.8l-.1-.7Zm.4-6 .1-.1v-.1s0-.1-.1 0h-.2l-.2.1.2-.3.4-.4h-.1l-.6.4c0 .1-.2.3-.4.2 0 0-.1.2-.2.1l.4-.4.2-.1h-.2l-.3.2-.4.2H75h.1l.6-.6.1-.2h-.1l-.6.6-.3.2h-.1v-.2l.4-.3V23l-.5.4h-.2v-.2l.2-.2.3-.4h-.1l-.5.4h-.1s-.1 0 0-.1v-.2H74c0-.2.2-.4.3-.5-.1-.1-.1 0-.2 0l-.1.1s0 .2-.2.1v-.2l.1-.2v-.2l-.1.1v-.6l.2-.2V21l-.3.3h-.1v-.1c0-.2 0-.4.2-.6l.1-.1c0-.1 0 0 0 0l-.3.1h-.1l.2-.2.2-.3h.1c0-.1 0 0-.1 0l-.4.2c-.1 0 0 0 0-.1l.2-.2.2-.3h-.1l-.4.3v-.2c-.2 0-.1-.1 0-.2l.2-.2v-.1h-.2v.1h-.2v-.1c.2-.1 0-.1 0-.1l.5-.7c-.3.1-.4.4-.6.4v-.4l.3-.3c0-.1 0 0 0 0H73v-.2c.2 0 .3-.2.4-.3h-.3c0 .1 0 .1 0 0l-.2-.2V17l.1-.2s.1-.1 0-.2l.3-.3c-.2 0-.2.1-.4 0v-.3c.2 0 0-.2.1-.2l.3-.3v-.1l-.3.2.1-.6h-.2l.1-.2.3-.3H73l-.1.1c-.1 0 0 0 0-.1a74.3 74.3 0 0 1 0-1.4c.3.1.4.2.6.5l-.2.2h.2s0-.1.1 0v.1h.2v.2h.2l.1.1v.2c-.1 0-.2 0-.2.2l.2-.1-.2.3h.2v.3a1 1 0 0 0-.4.2h.2v.1l-.3.3h.1l.1.1c0 .2 0 .4-.2.5v.3h.1c0 .2-.2.2-.3.3h.3a23 23 0 0 1 0 .8v.2l.2-.1v.2c.2.1.2.3.3.5v.3c-.1 0 0 0 0 0l.1.2c.2 0 .2 0 .2.3.2 0 .2.1.3.2v.1c-.1.2-.3.2-.2.4l.2-.2h.2v.1l-.2.4-.2.3.2-.2.2-.2.2-.1v.3l.1-.2h.2v.2l-.2.3v.2l.3-.3.2-.1c.1 0 0 .1 0 .2s.1 0 .2 0c0 0-.1.1 0 .2l.2-.2h.1l.1.1.3-.1v.1l-.2.2a3 3 0 0 0-.5.6h.1a6.8 6.8 0 0 1 1-.8l-.5.6.2-.1.5-.5.3-.1v.2l-.2.2h.1l.4-.4c.1-.1.2-.2.4-.1l-.3.3h.2l.5-.5v.2l-.6.6s-.2 0-.2.2c.2 0 .3-.2.4-.3l.4-.3c0 .4-.2.7-.4 1 .1.1.1 0 .2 0l.1-.1s.1-.1.2 0v.2l-.1.2v.2s-.2.1-.1.2l.3-.2v.1h.2s0-.2.2-.1l-.1.1-.2.4c0 .1 0 0 0 0l.5-.2h.1c0 .1-.2.2 0 .4l.3-.2v.1h.2c0 .2-.3.2-.3.4h.2l.3-.3h.1v.2h.5c0 .1-.1.2-.2.1l-2.9.4H77.6l-.1-.1-.4.1H77v-.2l-.5.2Zm-.3.4-.7.5-.4.1-2-.2.4-.3.4-.2c.2-.2.4-.2.6-.1.6.1 1.1.2 1.7.1v.1Zm-3.4-11.4c-.1.3-.2.3-.4.2l-.2-.1-.2-.1.2.2.3.2-.3.1.1.2H72l.3.2-.2.3H72l.2.1-.2.1v.1h-.2l.1.1s.1 0 0 .1v.1h-.2v.3l-.3.1-.1.2-.4.1v.1l-1.2.3v-.1l.4-.4v-.1l.2-.1c.2 0 .2-.2.2-.4v-.1h.2l.1-.1v-.8s-.2-.2 0-.2c0-.2 0-.3-.2-.4l-.4-.4v-.1H70.6l-.2-.3.3.1c.1 0 0 0 0-.1V12h.1l-.1-.2v-.1c.2 0 .1 0 .1-.1h.2l-.1-.2h.3c-.2 0-.3-.2-.4-.4h.3l-.2-.2.2-.1c.1 0 .2 0 .1-.1v-.1h.4L71 10l.8.2c-.1-.1-.3-.2-.3-.5l.6.2c-.1-.2-.4-.1-.5-.4h.4l-.2-.1v-.1h.2c0-.2 0-.2.2-.2h.3c0-.2-.1-.2-.2-.3h.4c.1.1 0 0 0 0h-.1l-.1-.2s.2 0 .2.2c.3 0 .6.1.8.3l.2.2v.4l.2.2c-.1 0-.1 0 0 0 0 .2-.1.2-.2.2l.2.2v.1l.1.2v.1h-.2v.2s-.1 0 0 .1c0 .1 0 .1 0 0h-.2l.2.2v.2l-.4.1.2.2h-.2v.1c0 .2 0 .2-.2.2L73 12h-.3.2l.3.1s.1 0 0 .1c0 0 0 .1 0 0h-.4c0 .2.2.1.2.2h.2v.1H73l-.5.1.3.2Zm-.2 1.3h.1c0 .2-.2.3-.3.4l.4-.1c0 .3 0 .5-.3.7a1 1 0 0 0-.2.4h.1l.2-.3.1.1-.1.2-.1.3-.3.2-.1.2h.2l.3-.3v.4l-.3.3.2-.1-.1.3h.1l-.4.5v.2l.3-.3h.1c.1 0 0 .1 0 .2l-.1.2s-.2.1 0 .2l.1-.1c.1 0 .1 0 0 0v.4l-.1.1h.1l.2.1v.9a117.4 117.4 0 0 1-1.2-.5l.1-.3v-.1l-.2.1c-.2.2-.4.2-.6 0-.1 0-.1 0 0-.1l.2-.2.4-.4h-.1l-.6.5h-.2l.2-.2h-.2l-.3.1c0-.2.2-.2.2-.3h-.1l-.3.1h-.2s-.1-.1 0-.2l.2-.2.6-.6-.3.2-.3.2-.3.3c-.1 0 0-.1 0-.1v-.1l-.4.1c0-.2.2-.2.3-.3l.3-.3-.4.2-.3.2H69V17c.7-.3 1.3-.7 1.9-1.2l.2-.2-.4.2a10.6 10.6 0 0 1-2 1.1l.6-.4H69l-.5.2h-.2v-.2l.4-.2.5-.2v-.2h.2l1.5-.4h.1l.4-.2c.3-.2.5-.4.6-.7.1-.1.3-.3.3-.5l.4-.4v.2h-.2v.2Zm-4.4 1.5-.4.5-.1-.1h-.1s-.1 0 0 0c0 .3-.2.4-.3.4l-.8.4h-.2l-.2-.2v.3l-.2.1h-.1l-.1-.2v.3c-.2 0-.2-.1-.3-.2l-.1.2-.2-.1v-.2l-.1.3h-.1l-.2-.5v.3c-.4-.2-.6-.5-.6-.8.2-.1 0-.3.1-.4l.1.2v-.3l.2.1.2-.2v.4l.1-.2h.1v.3h.1l.1-.2.1.2v.2l.1-.5c.2 0 .2.2.2.3V16l.1-.1h.1l.1.2s0-.2.2-.2c0-.1.1 0 .2 0l.2-.1h.2l.1-.1.1-.2.7-.4h.2l.1.1V15s-.1-.1 0-.2l.2-.1h.2v-.1l.3.1v-.1l-.1-.2.2-.2c.1 0 0 0 0 0V14h.2V14c0-.2 0-.2.2-.2h.1v-.1c.7-.4.7-.4 1-.9.2.2.3.3.3.7v.3l-.1.1.2.3s-.2 0-.1.2h-.1l-.2-.2v.1c0 .2 0 .2-.1.1l.1.4c0 .1 0 0 0 0-.2 0-.2 0-.2.2v.2h-.1l-.2-.1v.2h-.2l.1.2v.1H69v.3l-.9.3V16l.1-.4Zm-.2 1.1-.2-.1.2.1ZM63.9 15h-.3l-.1-.2h-.2s-.1 0 0 0v-.2H63c0 .1-.1.1-.2 0h-.2v-.4l-.3.4v-.1c0-.1 0-.2-.1-.1V14c-.3 0-.3-.1-.2-.4l-.3.2c0-.1 0-.2-.2-.1h-.3v-.1c-.1 0 0-.2-.2-.3H60.5l.3-.7-.3.3s0 .2-.2.2c0-.2-.2-.2-.1-.4l.1-.2-.3.2v-.2h-.2c0 .1 0 .1 0 0l-.1-.1v-.2h-.3l-.1-.2h-.1c-.2-.1-.2-.2-.1-.4H59v-.2l-.1-.2V11h.2l.5.5.1.1 1.3.4h.3c.2.2.4.2.5.2l.2.1h.4l.2.2h.2c0-.2.3-.2.5-.3l.1.4.2-.3h.1l-.2.6.2-.3.1-.2h.2c0 .1 0 0 .1 0a10.1 10.1 0 0 1 .2-.3v.3h.1s.1-.1.1 0c.1 0 0 0 0 0v.1H64.7v.3s0-.2.2-.2v.1c0 .2 0 .5-.2.7v.3l.1.2.2.2c.5.4 1.1.5 1.7.3l.9-.3.3-.1c0 .2 0 .4-.2.4 0 .2-.2.2-.3.3h-.1c0 .1 0 .1-.1 0l-.2.1s0 .1 0 0l-.1.1v.1h-.4v.2h-.3c0 .1 0 0 0 0 0-.1 0-.2-.1-.1L66 15v.3l-.1.1h-.3c0 .1 0 0 0 0v-.1h-.4V15l-.1.2c-.2 0-.2-.1-.2-.2l-.1-.1-.4.3h-.1l-.1.1H64V15H64Zm-4.3-1.2c-.2 0 0-.1 0-.2v-.2.1H59v-.2h-.6V13v.2h-.2V13c-.2 0-.2-.2-.2-.2 0-.2-.3-.3-.3-.4H57.5l.1-.1.1-.1h-.3l-.1-.1V11.9l-.4-.1s-.1 0 0-.1c0-.1-.2-.2 0-.3 0 0-.2 0-.2-.2V11h-.2V10.6h-.1v-.2l-.1-.7-.1-.5h.1l.2.5.2.2h.1v.3h.5l.3.3.2.2.3.2.1.2v.1c.3 0 .2.2.2.3l.2.1.2.4.2.1 1.2 1 .2.2.6.5.7.5 1.5.9.1.1-.4-.1a.6.6 0 0 0-.4-.1l-.2-.1s0-.1-.1 0l-.5-.2c-.2 0-.4 0-.5-.2H61c0-.2-.2-.2-.4-.2s-.2 0-.2-.2c0 0 .1 0 0 0l-.5-.2s0-.1-.1 0c-.2 0-.2 0-.2-.2Zm.7.9.4.2.1.2s.1-.1.2 0h.2s0 .2.1 0l.5.3v-.1l.2.2.1.1v-.2h.5l.1.2s.1-.1.2 0v.2l.2-.2h.8c-.1.3-.3.5-.5.6l-.1-.2-.1.2-.2.1h-.2c0 .1-.1 0-.2 0V16v.2l-.1.2-.3-.1c0-.1 0-.1-.1 0l-.1-.1V16c-.1-.1-.1 0-.2 0 0-.1-.1-.2-.2-.1l-.2-.2c0-.1 0 0-.1 0a7 7 0 0 1-1-1v-.1Zm3.6-6.9-.1.1c-.1 0-.1 0 0 .1v.2h-.2l.1.1h-.1v.1c.1 0 .2 0 .1.2v.2c-.1 0-.1 0 0 0V9l-.4.1c-.2.2-.4 0-.6 0-.2-.2-.4-.2-.7-.2l-.4-.2c-.2 0-.4-.1-.4-.4h.3l.4-.1.1-.4v-.5h-.2l-.1.2-.1.3h-.2l.1-.4.1-.1c-.2 0-.3.1-.3.3v.4s.1.1.2 0l.1.2h-.3l-.2-.7V7l.2-.2v-.2h.2c0-.1 0 0 0 0h.1l.1-.2.2.1h.3v.1H62.6l-.1.3h.5c.1 0 0 0 0 0V7h.4l.3.1.4.4h-.2.1v.1c.1 0 0 .1 0 .1s-.1 0 0 .1Zm-2.4 2.4.4.1h.7l-.5.1h-.5s-.2 0-.3-.2Zm1 0h-1l-.3-.1-.8-.2a2 2 0 0 1-.6-.6l-.3-.5v-.2c-.2 0-.2-.1-.2-.2s0-.2-.2-.2V6.7l.1-.2c0-.3.2-.4.3-.6v.9c-.2 0 0 .2-.1.3v.4c.2.2.1.4.3.5-.1.1 0 .1 0 .2 0 0 .1 0 0 .1v.1l.1.1.1.3a7.1 7.1 0 0 1 .1.3c.2 0 .2.2.4.3v-.2l-.3-.6c0-.1-.2-.3-.1-.4l-.1-.2-.1-.1a7 7 0 0 0-.2-.8v-.9c.2-.1 0-.3.1-.4 0-.2.1-.3 0-.4v-.2h.2V5l.2-.3.2-.2c.2 0 .2-.1.2-.2h.1c.1 0 0-.3.2-.2 0-.2.1-.2 0-.4h.2c.1 0 .2 0 .1-.1l.1-.3h.2v-.1l.3-.3c0-.1 0-.1.2 0 .2 0 .1-.2.2-.3 0 0 0 .2.2.2v-.3h.2v-.2l.3.1v-.1h.1v-.2h.2l.2.2c0-.2-.1-.3 0-.4v.1h.1v-.2c.2.1.2.3.3.4l.2-.4c.1-.1.1-.1.2 0h.2v.2h.4v.2c.2.4.2.4 0 .8l-.3.3-.2.1-.2.2-.3.4v-.3c.1 0 .2-.1.2-.3l-.2.3c-.1 0-.1.2-.3.2v-.4c.1-.1 0-.2-.1-.2-.4 0-.7 0-1 .3l-.4.4-.1.1c-.2 0-.4.2-.4.5l.4-.5h.3c0-.1.1-.2.2-.1V4c.1-.2.3-.1.3-.2l.2-.2h.4V4l-.3.2h-.1l-.2.2c0 .2-.2.2-.3 0v.3H62c-.1 0-.2.1-.2.3 0 0 0 .1-.1 0-.2 0-.2 0-.3.2 0 0 0 .2-.2.2l-.2.3-.1.2-.4.9V7.7l.1.2v-.1c0-.1.2-.1.2 0s.3.2.3.4l-.2-.1-.3-.2-.3-.1-.2-.3v-.7c.3-.2.3-.5.4-.7l.1-.2s.1-.1 0-.2c0-.2.1-.3.3-.4L61 5l-.2.3c-.1.2-.3.2-.3.4-.1 0-.2.1-.1.2a.2.2 0 0 1-.1.2c-.1 0-.2.1-.2.3v.2l-.2.1V7c0 .3 0 .6.3.8l.1.3c-.1 0-.1-.2-.3-.2V8l.3.5.2.1v.2l.1.1V9h.2v.4c0 .1.3.1.2.2l.1.2c-.3 0-.5 0-.7-.2 0 .1 0 .2.2.2l.4.2h1.4l.2-.1h.3c0 .2 0 .3-.2.3h-.4Zm1.9-5.4h.1c.1 0 0 0 0 0h.4c0 .2-.1.1-.1.1-.1 0 0 .2-.2.2h-.1l-.3.1-.2.1c.4 0 .7-.2 1-.1h-.1v.1c.2 0 0 .1.1.1h.4l-.2.2h-.1l-.3.1h.9c0 .1 0 0-.1 0l-.5.2h.6c-.2 0-.4 0-.6.2h.5s.2-.1.2 0l.4.1v.1l-.4.2.6.1c0 .1-.1 0-.2 0l.1.1c.2 0 .2.1.2.2l-.1.3h.4v.1s-.1 0 0 0v.2c.3 0 .3.2.4.3l.1.7v-.1a4 4 0 0 0-1-.7l-1.2-1-1-.5v.2h.3l.5.4 1.4 1 .4.3c.3.2.5.4.6.7.2.3.2.6.2 1h-.1l-.2-.1c0-.2 0-.3-.2-.3 0-.2-.1-.3-.2-.3l-.1-.3-.9-.8-2.2-1.7a6 6 0 0 0-.8-.5h-.3a2 2 0 0 1-1.2 0v-.1l.5-.1c.2-.2.5-.1.8 0l.4.1.2.1c-.3-.2-.7-.4-1-.4h-.4v-.2l.4-.3h.2c0 .1 0 .1 0 0a9.8 9.8 0 0 1 .7-.3v.1c0 .1.1 0 .2 0h.6l-.5.3h.3c.2-.2.3-.3.5-.3l-.4.3.6-.2Zm.4-.9-.1.5s-.1 0 0 0V4Zm1.2-.6 1 2.8.1 1v.1c-.1-.2-.3-.3-.2-.6-.2 0-.3-.2-.3-.3V6h-.3l.2-.3h-.3s0-.1-.2 0V5l.1-.2v-.2c-.1.1 0 .3-.2.3V3.2Zm-.3 1.4-.2.4h-.2l-.2-.2c-.3-.3-.3-.3-.1-.7l.5-1.6.1-.2.2.4v1.9Zm1.8 7.2v.3c.1.2.3.3.6.1l.3-.3v-.3c.1-.1.1-.1.2 0 0 0 .1 0 0 0l.1-.4.1-.2c0-.1.2-.2.1-.3v-.3h.1l-.1-.3h.2V10l-.2-.1v-.1l.3.1v-.2h.1l1 .6v.1l.1.1h-.1s-.1 0 0 .1v.8l-.1.3H70s-.1 0 0 .1v.4l-.2.1v.2l-.1.3-.3.2s-.2 0-.2-.2l-.1-.1v.3c-.1 0 0 0 0 .1v.1H69s.1.1 0 .2l-.2-.1-.3-.2c0 .2.2.3.3.4l-.3-.1h-.1v.2s0 .1-.1 0h-.2c-.2.3-.3 0-.5 0v.1l-.3-.2c0 .1 0 .2.2.3v.1l-.4-.2v.4H67l-.2-.2-.1-.1.1.3v.2h-.2l-.2-.1v.2l-.4-.2v.2l-.2-.1h-.2L65 14l-.1-.4c0-.3 0-.5.3-.7 0-.1 0-.3.2-.3l.2-.3h.2l.1-.2.1.1v.7h.1V12c.2.1.2.3.2.5v-.7c.2 0 .2 0 .2.2h.2v-.1c.2 0 .1-.2.2-.2h.1l.1.2v-.3s0-.1 0 0l.1-.1c0-.2 0-.2.2-.3l.1.2v.5Zm-5.1-5.6v.1h-.2a5 5 0 0 0-1-.3H61v-.2h.2l.6.2c.2 0 .3 0 .5.2Zm0-.2c.1-.1.2 0 .4 0h.3l.3.2v.1l-.9-.2h-.1V6Zm.2.2c.5.1.9.2 1.2.6V7l-.3-.1-.8-.4-.2-.1.1-.1Zm1.2-2L64 4l-.2.2Zm-3 3v.1-.8l.1-.3h.1L61 7v.4ZM63 9.8l-.8-.4-.5-.3c.3.4.5.6 1 .7H62c-.1-.1-.2 0-.2 0l-.2-.1v-.1c-.2 0-.3-.2-.3-.3l-.1-.1h-.1l-.2-.2a1 1 0 0 0-.2-.3l-.2-.3v-.2c.2 0 .4.2.5.4l.4.4h.5l.8.3c.1.1.3.2.4.1h.2v.2l-.2.1-.2.1Zm-1.2-2ZM64 7l1 .8.2.1s.2 0 .1.2h.2l-.2.1c.2 0 .3 0 .4.2h-.2.4l-.1.2h-.2l.3.1c-.2.2-.4 0-.5.2h.7l-.4.2.1.1v.2H65.5c0 .1.2 0 .2 0l.3.2-.3.1h.2l-.1.2h-.2v.1h.2v.1h-.1v.2s-.2 0 0 .1h-.2l-.1.2-.1.2-.3.1v-.2c.1-.2.2-.5.1-.8 0-.2 0-.4-.2-.6a.5.5 0 0 1-.1-.6c.2-.5 0-.8-.3-1.2L64 7Zm.7 1V9l.3.6v.1c-.1 0-.1.1 0 .2l-.1.5c-.1 0-.1 0 0 0v.2l-.1.2h-.2v-.7c-.2-.1-.2-.2 0-.4l-.1-.8V8l-.2-.2-.2-.4c.3 0 .4.3.6.6Zm-.1 3.3.2-.1h.2s.3 0 .3-.2l.2-.2.3-.3s0-.1.2 0v-.2l.2-.1h.1v-.6h.2l.3.2-.2-.3s-.2-.1 0-.3l-.2-.2h.1c.1 0 .1.2.3.2 0 .1 0 .2.2.3 0 .1 0 .2.2.3l.2.3v.2l-.2-.1.2.3v.2l-.3.1v.2h-.2l-.3.2h-.1c0 .1-.2.2-.3.1 0 .1-.1 0-.2 0l-.1.2h-.2c0 .1-.2 0-.2.2h-.6l-.1.1-.1.1-.1.1h-.4a1 1 0 0 1-.5 0h-.1c0 .1-.1 0-.1 0l-.1-.2c-.2.1-.2.3-.4.3 0 .2-.2.2-.3.1H62c-.2 0-.5 0-.6-.2a.3.3 0 0 0-.4 0c-.3.1-.6 0-.9-.1l-.4-.2-.5-.4h.6c.3.3.5.3.8.3H61.6l.2-.1c.1 0 .2 0 .2.2l.2-.1c0-.2.2-.2.3-.1h.2s.1-.1.2 0H64c0-.1.1-.1.2 0 .2 0 .3 0 .4-.2Zm3.7 5 .7-.2c-.2.2-.4.2-.7.3v-.1Zm5.8-6.8v.1s-.1.1-.2 0l-.2-.3H74c0 .1.1.1 0 .2Zm0 4-.1.1-.7-.6s-.1-.1 0-.2l.2-.2c0-.1 0-.3.3-.4v.5l.2.9Zm.4-1.6h-.2c-.2 0-.2 0 0-.2v-.1h-.1v-.3l.5-.2.4-.1h-.8l.3-.1c0-.1-.2 0-.2 0l-.1-.1v-.2h.1l.2-.1v-.1h-.2l.1-.2v-.2l.3-.1c0-.1-.1 0-.2 0l-.1-.2.1-.1h.3l-.1-.2c-.2 0-.3 0-.1-.2v-.2h.1l.2-.1-.1-.1c-.1 0-.1 0 0-.1L75 8H75.3l-.1-.1v-.1c0-.1 0 0 0 0h.4c0 .1.1 0 .2 0l-.3-.1c-.3-.2-.3-.2-.2-.4l.1-.1c0-.1.1-.1.2 0 .1-.1 0-.1 0-.2h.2l.2.1h.3L76 7a6 6 0 0 1-.3-.3c-.1 0 0 0 0-.1h.1l.2.1v-.2c-.2-.1-.2-.3 0-.4h.1l.2.2h.3l-.2-.1-.2-.2v-.2l.3-.3.3.1s-.1 0 0-.1v-.3L77 5h.1l.3.3h.2l-.3-.2v-.4l.2-.1h.3l.1-.2h.2l.2.1.2.2h.1l-.2-.3s-.2-.1 0-.2c.2.1.2.1.2 0v-.1h.4l.2.1c0-.1-.1-.1 0-.2h.4l.2.1V4h.2l.2.2.7.6.2.2c0-.2-.2-.3-.3-.4l-.3-.2-.2-.3h.1l.5.3s0 .2.2.2c0-.2-.2-.2-.2-.3h.2l.8.4L84 6V6l.4.2c-.6 0-1-.2-1.6-.4l.3.2.4.2.4.1h-.5l-.5-.1.5.3h-.2l-.7-.2-.3-.1h.1l.6.4c.1 0 .2 0 .1.1h-.4l-1.7-1.1-.3-.2c.2.4.6.6 1.8 1.3l-.5-.1-.3-.1-.6-.3-.4-.2-.3-.1.2.2.4.3h-.6a2 2 0 0 1-.4-.2l-.5-.2c0 .1.3.1.3.3h-.3l-.2-.1c-.3 0-.4 0-.5.3V7l-.6-.2.2.2s.2 0 .3.2l-1-.1h.1l.4.2h.3c-.2.3-.5.2-.7.3H77h.2l.1.1h.4v.1h.2V8s-.1.1-.2 0H77l-.2.1c.2.1.4 0 .6.2h-.1l.1.1v.1a4 4 0 0 1-.9.2l-.4.1h.7l-.2.2h.7L77 9l.2.1c-.3.2-.7.1-1 .3h.3l.2.1h.4c0 .2-.3.1-.4.3h.2c.1 0 .1 0 0 0-.2.2-.5.2-.8.3H76c.2.1.3.1.4 0H77.2l-.2.1s-.2 0-.3.2h.5v.2l-.5.2-.2.2.6-.2h.2v.1H77l-.4.3.6-.1h.2l-.3.1v.1h.1l.2.1-.2.1-.7.2-.2.1h.2l.8-.1h.2c.1 0 0 0 0 0l-.3.1-.1.1.5.1c-.1.1-.3 0-.5.2.1.1.2 0 .2 0h.5v.1l-.7.2c-.3 0-.7.1-1 .3h.2a10 10 0 0 1 1.5-.3c-.2.1-.4.1-.5.3h.5c.1-.1.2 0 .2 0h-.2l-.2.2h.5l-.3.2a2 2 0 0 0-.5.4s-.1 0 0 .1h.1c.2-.3.5-.4.7-.5h.1v.1c-.2.1-.4.1-.5.3l.5-.1s-.1 0 0 .2H78l-.5.5h.2l.7-.4H78.7v.1l-.4.2-.4.3.6-.2.2-.1h.1v.1l-.1.1-.1.2h.2c0-.1.1-.1.2 0v.1l-.5.2-.4.2h.2l.7-.2c.1 0 .3 0 .3.2l-.2.1-.9.5-.2.1c0 .1 0 0 .1 0l1.3-.5h.3c-.2.1-.4.1-.5.3h.2l.3-.1-.4.3.4-.1.3-.2c0 .2-.2.1-.2.3H80.4l-.1.1-1.2.5h-.2c.1.1.2.1.2 0 .2 0 .4 0 .6-.2l.7-.1h.2v.1h.2l-.1.1a1 1 0 0 0-.4.3h.1l.7-.2v.2h.4l-.3.1c-1 .1-1.8.5-2.6 1l-.1.2.3-.2c.6-.3 1.2-.6 1.9-.7l.8-.1-.4.3h.1l.8-.3h.2c0 .2.1.1.2.2L81 18c.5-.2.9-.5 1.4-.6l-.1.1-1 .6a3 3 0 0 0-1.4 1.6l-.3.3-.6.3.1-.3-.3.2-.3.3v-.2l-.3.1 1-.8H79a111 111 0 0 0-1.6 1c-.1 0-.2 0-.1-.1l-.4.1 1.3-1h-.2a12.1 12.1 0 0 0-1.4 1l.1-.3V20l-.5.3-.2-.1s-.1 0 0-.1V20l.6-.5.4-.3h-.2l-.8.6c0 .1-.1.2-.2 0l-.2.2h-.1v-.2h-.2c-.1 0-.1-.1 0-.2l.2-.2v-.2l-.5.3c.4-.6.8-1 1.3-1.4-.2 0-.4.1-.7.5l-.5.6v-.4c.2 0 .2-.1.3-.2l.1-.3c-.3.3-.5.5-.6.8h-.2v-.3l.3-.4c-.2 0-.3.3-.4.3l-.2-.1v-.3l.5-.4v-.1l-.5.3s0 .1-.1 0v-.2l.1-.2h-.1s-.1.1-.2 0v-.1l.2-.2.5-.4h-.1c-.2 0-.4.2-.5.3H74v-.2l.4-.2-.2-.1H74v-.1l.2-.2.4-.2.2-.2c-.3 0-.5.2-.7.3V16l.1-.2.3-.2h-.2l-.1-.1.1-.1.1-.2h-.1v-.4l.4.2.4.3V15l-.6-.5v-.4l.4-.3.2-.2-.4.2-.3.2h-.1l.1-.2s.2-.1.1-.3v-.1l.8-.5.2-.2c-.3 0-.3 0-.6.3-.2 0-.4.2-.6.4 0-.3 0-.3.3-.6-.2 0-.3.3-.5.3v-.5l.3-.3h-.3c0-.2.1-.4.3-.5l.4-.2.2-.1a2 2 0 0 0-.6.2Zm8.7-3.6v.1h-.3c0 .1.3 0 .4.2h-.5l.3.1c-.2 0-.3 0-.4.2v.1h-.5c.1.2.3.1.4.1v.1h-.1l-.3.1.1.1.1.2-.2.2-.3.1c.1.1.2 0 .4 0l-.6.6-.6.3h-.2c-.1 0-.1 0 0-.1v-.2c-.1 0-.1 0 0 0v-.2c.1 0 0 0 0 0V9.9l.5-.2H81v-.2c0-.1.1-.3.3-.3 0 0 .1 0 0 0 0-.1 0 0 0 0V9c-.1 0 0-.1 0-.2l.2-.1v-.1h.2v-.2h-.1c.2 0 .2 0 .1-.2.2 0 .2-.3.3-.4h.4l.8.2v.1Zm-1.4 2.9.5-.5h.3l.1-.2s.1-.1.2 0l-.4.5c-.1 0 0 0 0 0l.1.2c-.2.5-.3 1-.7 1.5 0 0 0 .2-.2 0l-.3.3v-.3l.2-.5-.2.2-.1.2s0 .1-.1 0h-.1v-.3l.2-.9c.2-.5.5-.8 1-1l.2-.2-1 1.2c.2 0 .2-.1.3-.2Zm1.4-.5.1-.2h.4l-.1.2h-.2l.1.1h.2v.2l-.1.1h.3c0 .2-.2.2-.1.3l-.3.4-.1.3c0 .2 0 .3-.2.4h-.1c.2.2.2.2 0 .3v.2l.2.1v.1a1.3 1.3 0 0 1-.9-.3c-.2-.2-.1-.3.1-.4v-.1s.1-.1 0-.1V12h.2c-.1-.2 0-.3.1-.3h.2l-.2-.2c0-.3.2-.6.4-1Zm-.3-.6.3-.1h.1c0 .1 0 0-.1 0h-.3Zm2.8.6c.2 0 .4.1.5.3l.1.1v.1c.2 0 .3 0 .4.2 0 0 .2 0 .2.2.3 0 .6.2.8.4l-.3.1h-.2l.8.2h.3v.1h.2l.4.2h.1v.2h-.7l.1.1h.6c.1 0 .3 0 .5.2v.1h-.2l.1.1.5.1-.7.2h1.1l.1.2-.6.1c0 .1.1 0 .2 0h.3c0 .2-.2.2-.2.2l.1.1-.9.4h-.1c.2.1.2.1 1-.1l-.2.1-.6.2c.2.1.3 0 .4 0h.4c-.1 0-.3 0-.4.2h.3c-.2.3-.5.3-.7.4h.3l-.1.3h-.3c0 .2.2 0 .2.1 0 .3-.1.4-.3.6-.1-.3-.4-.6-.4-.9v-.1c-.2 0-.1-.1 0-.2-.2 0-.2-.1-.3-.2v-.2c-.1-.1-.1-.2 0-.2v-.2h-.2v-.1l.4-.2h-.4v-.3c0-.2-.1-.1-.2-.2l.1-.2c-.3 0-.3 0-.3-.2s0-.3-.2-.4v-.2c-.3 0-.4-.2-.5-.4L87 12s-.1-.1 0-.2h-.1l-.4-.2-.9-.6V11h.1v-.1c-.3 0-.5 0-.6-.3l-.3-.2.8.1v.2Zm3.2 7c-.1 0 0-.2-.2-.3.2-.1 0-.2 0-.2a1 1 0 0 1-.2-.5l.3.2c0-.2-.1-.2-.2-.3v-.4c-.2-.2-.2-.4-.3-.7l-.1-.5h.1l.5 1 .2.3V16.5l.2.5-.1.1.1.1v.7H89s-.2 0 0-.2l-.1-.1Zm-1-.5h.1l-.2.1h-.3l.1.2h-.4l.2.1c0 .1 0 .2-.2.1H87l-.1.1v.2l-.2.2-.2.2-.4.2c-.1 0 0 0 0-.1v-.2c.2-.3.3-.5.3-.8l.4-.4s-.1-.1 0-.2c.1 0 0 0 0 0v-.2h.2c-.1-.1-.1-.1 0-.2v-.1h.2l-.1-.1-.1-.1h.4c-.1-.2-.3-.1-.4-.2.1-.2.3-.2.4-.2l-.3-.1v-.2h.3c-.2-.3-.1-.3 0-.4h.1V15l-.2-.2h.2v-.1l-.1-.1v-.2h.2v-.1c-.2 0-.2-.2-.2-.3l.1-.3h.2c0 .2.2.4.1.6h.1l.2.4v.1h-.1c.2.2.2.4.2.5l-.1.2.2.2v.1H88l.2.3.1.2v.1l-.2.2.2.1v.1H88l.4.3h-.5Zm0 1.3v-.6.6Zm-2.3.4-.6.8h-.3v.1l-.1-.4v.5c-.1 0 0-.2-.2-.3v.5l-.1.2c-.3 0-.4.2-.5.4h-.2c0-.2 0-.3-.2-.4v.2l.1.3v.2l-.3.1c-.3.3-.3.3-.4-.1v-.1l-.1.4c0 .1 0 0 0 0h-.1v.2h-.2l-.1-.3v-.3.7c-.2 0-.1-.1-.2-.2v.2l-.1.1-.1-.4v-.4.1l-.2.6-.1-.1c-.1 0 0 .1 0 .2h-.2v-.4c-.2 0-.1.2-.2.4v-.8l-.2.7h-.4V21c0 .1 0 .3-.2.4l.3-1-.3.5v.2l-.2.1v-.7l-.3.3v-.4c.1 0 .2-.1 0-.2l.1-.1.4-.3H80v-.1l.5-.7.6-.6.8-.5h.1c0 .1-.2.1-.2.3l.2-.1.9-.5h.1v.2l.9-.2h.2l-.2.1-.5.1-1.1.5c-.1 0-.2 0-.2.2h.1l.6-.3-.1.2c-.3 0-.5.2-.7.4-.1 0-.2 0-.3.2l.3-.1.2-.1.2-.1-.2.2-.4.2v.1l.3-.1-.1.2.2.1c0 .2.2.2.3.2.3 0 .6 0 .8-.2l.4-.2h.2v.2h.2v-.2c0-.2.1-.3.3-.4l.3-.2H85l.3-.3.2-.2-.1.4-.2.3-.3.3c.2 0 .2 0 .5-.4a11.5 11.5 0 0 0 .6-1l.3-.7c0 .2-.1.3 0 .4-.2.1-.2.2-.2.3-.2.4-.3.8-.6 1.1Zm.2.5.1-.3-.1.3Zm-2.6-1.7.2-.1h.4c-.2 0-.4.2-.6.1Zm1.2-1H83.5c-.2 0-.3-.1-.2-.4-.2 0-.3-.1-.3-.2l-.2-.4v.3h-.2v-.1h-.2l-.3-.1a40.4 40.4 0 0 1-.8-.7c-.1-.2-.3-.3-.3-.5 0-.3-.1-.6-.3-.8v-.2h-.1v-.2s.1 0 0 0c-.1-.1 0-.2 0-.2h-.1c-.3-.1-.3-.1-.2-.4-.3-.2-.3-.3-.2-.5l.2-.2c-.2 0-.2-.1-.2-.2 0-.2.2-.3.3-.4l.7-.5h.1l-.1.3c-.1 0 0 0 0 .1v.1c0 .2-.2.4-.3.5v.2c.1 0 .2.1.1.2v.4c0 .2.2.4.4.5v.2h.3l-.3.2h.3v.2c-.1 0-.2 0-.1.1h.4v.2c-.1 0-.2 0-.3.2h-.1l.5.1-.1.1h.2l.1.1v.1c-.1 0-.1 0 0 .1V15.1h.7l.3.2s.1 0 0 .1v.1h.1c.1 0 .2 0 .1.2 0 .1 0 0 .1 0 .2 0 .4 0 .5-.2h.1l-.1.3-.1.2h.2s.1-.1.2 0l.2-.2v.3l.3-.4v.5c.1 0 .3-.2.3-.4h.1v.1h.1l.2-.1s0 .2.2.1h.2c.3-.2.2-.4 0-.7a4 4 0 0 1-.2-.8v-.2s0-.2.2-.3l-.2-.1v-.1c-.2 0-.2-.2-.1-.3h.1l-.3-.3.1-.5v-.1c-.3 0-.5-.1-.7-.3V11.9c-.2 0-.2-.2-.3-.2l.1-.1c.1-.1.1-.1 0-.2l.1-.1c-.3 0-.4 0-.4-.3v-.3l.5.2v.2h.2l.3.3c-.1 0 0 .2-.2.2h.5v.1l.1.2.2.1-.4.2h.5c.3 0 .5.1.6.4h-.5c.2.2.4 0 .6.2l-.5.2H86.8l-.1.2c-.2 0-.3 0-.5.2h.7l-.1.2v.4c.1 0 0 0 0 0l-.1.2-.1.1.1.1.1.2-.5 2-.2.3c-.2 0-.3.2-.5.4.1 0 .3-.1.4 0-.2 0-.4 0-.6.2l-.5.2v-.1a37.1 37.1 0 0 1 1.2-1.3l.3-.6c0-.3 0-.5-.2-.7v.2c.1.6 0 1-.5 1.4l-.5.6-.8.9c-.1.2-.3.3-.3.5-.2 0-.2.2-.3.3l-.3.3-.2-.2-.3.2V19h-.2V19c0-.1-.1 0-.1 0 0-.3.4-.7.6-.8h.1l.3-.1h.1l-.3.4c0 .1 0 .1 0 0l.9-.6.2-.3.4-.5.4-.6.2-.3a2 2 0 0 1-1.2.4Zm-1.7-3.3h.1l.6.2c-.2.2-.3.1-.5.2h.5v.2h-.1v.1h.2s0 .2.2.2h-.5l-.2.1v.3c0 .1 0 .3.2.4l.7.3c-.3 0-.5 0-.7-.2l-.6-.3-.1-.2v-.2h-.2V14c-.1 0-.1 0 0-.1l-.1-.1-.1-.1v-.1c.2 0 .2-.2.1-.2l-.1-.3V13s.1-.1.2 0l.3.1c.1 0 0 .1 0 .2Zm2-.5h.2v.2s.1 0 0 .1c0 0 .1.2 0 .2l-.2.1h.1l.1.1h-.4c-.2 0-.2 0-.3.2l-.2.4v.2c.1 0 .2.1.2 0s.2-.2.1-.4l.2-.1h.3-.1v.4h-.3c0 .2 0 .2.2.3 0 0-.1.1 0 .1h.1v.1c-.2.2-.4.2-.6.2l-.2-.2v-.4l.2-1 .1-.6.1-.2h.3l-.2.4.3-.1Zm.4 2V13.3c.2 0 .1.2.2.3v1.1l-.1.2H84.9v-.1c.2 0 .2 0 .2-.2Zm.3.5h.2c0 .2-.1.3-.3.3-.2 0-.5 0-.6-.2v-.1h.8ZM84 15c.1 0 .2.1.2 0h.4v.1c-.2.2-.3.1-.5.2h-.2c-.3-.1-.5-.4-.6-.6v-.1H83.5c.1 0 0 .1 0 .1.1 0 .2 0 .2.2l.3.1Zm1.5-4 1 .8.4.2.2.1.1.2a4 4 0 0 1 1 2l-.2-.1-.5-.9c-.1-.2-.3-.3-.2-.6-.2 0-.3-.1-.3-.2v-.1h-.1c-.2 0-.2-.2-.2-.3h-.2v-.2H86c0-.2-.2-.2-.2-.2 0-.1 0-.2-.2-.2l-.4-.3v-.2Zm2 2.6-.4 1.4v.2-.2a10.7 10.7 0 0 0 .2-1.6h.1v.2Zm-.8 2.8v.4c-.1-.2 0-.3 0-.4Zm.2-.7c0 .2 0 .5-.2.7l.2-.7Zm-2.7 3 .2-.2.8-.7h.2l-.1.2h.2l.2-.1-.3.2a6.2 6.2 0 0 0-1.5 1.1l.1-.2c0-.1.2-.1.2-.3Zm.8-8.1.4.4H85v-.1l-.3-.1-.2-.1c-.1 0-.1-.2-.3-.2l-.3-.2h.3c.1 0 .2 0 .3.2h.4ZM84 12v-.2h.1v.6a4 4 0 0 0-.3.8v.1c-.2 0-.2.1-.2.2l-.3-.8c0-.2 0-.5.2-.7l.2-.1v.9l.3-.8ZM81.8 8H81.5v.2c-.4-.2-.9-.5-1.4-.5l.2.1 1 .5s.1 0 0 .1l-.3-.1h-.4l.4.2.2.2h-.3c-.3-.2-.7-.2-1.1-.2l-.3.1c0 .1 0 0 .1 0a2.8 2.8 0 0 1 1.3.3V9h-.7l.2.1.1.1c0 .1.3.1.2.2h-1c.1.2.3.1.4.2l-.3.1-.4.2-.4.1-.3.3.3-.1c.3-.2.6-.3 1-.3h.5l-.6.1c-.1 0-.3 0-.4.2h1c0 .1-.3 0-.4.2h.4v.2l-.5.1h.6l-1.6.5h.9l1-.2-.8.3-.6.3h.1l.5-.1-.1.2-.2.1v.1c-.3 0-.4.2-.6.3h-.1c0 .1.2 0 .2 0l.4-.1h.1v.3c-.1 0-.1 0 0 0v.2c-.2 0-.3 0-.4.2h.4l-.5.4.4-.2.1.1h.2v.2l-.2.1v.1h.1l-.2.2h.7v.5c-.2 0-.3.2-.3.2 0 .1 0 0 0 0 .2 0 .4-.2.5-.3h.1v.1l-.2.2h.2c.1.2-.1.3-.2.5.2 0 .2-.2.3-.2l.2.4.1.3h.1v.2c.3 0 .3 0 .4.3h.4v.2h.1l.6.2c0 .2 0 .2.2.2l.4.4.4.1H84.9s0 .2-.2.3c-.1 0-.2.1-.4 0h-.7c-.2 0-.3 0-.5-.2H83c-.3 0-.5-.2-.7-.3 0-.3-.3-.2-.4-.3h-.4l-.2-.2V16h-.5v-.4h-.2s0-.1 0 0h-.2c-.2-.3-.3-.5-.1-.7v-.1l-.2.1c0 .2-.2.2-.3.2h-.1l-.2-.3v-.2s-.1.2-.2 0l-.2-.3a9.3 9.3 0 0 0-.6-1.2l-.1-.2c-.1-.1-.2-.2-.1-.3l-.3-.3.1-.1.3-.2h-.5c0-.2.2-.2.2-.3H77.8a1 1 0 0 1-.1-.4v-.1s.1-.1 0-.2l.2-.1.3-.1H78c-.4 0-.3 0-.3-.4l.2-.2h-.1c-.1 0-.2-.1-.1-.2l.1-.1c.1 0 0-.2 0-.2l.2-.1c0-.1-.1 0-.2 0l.1-.4V9c0-.2.1-.3.2-.3s0 0 0-.1v-.1l.4-.2h.2-.5v-.1l.2-.3.3-.1.2-.1-.3-.1v-.1l.5-.4h.3a10.4 10.4 0 0 0 2.4.6s.1 0 0 0Zm0 16.1-.3.7c0 .3 0 .3-.3.3H79.6v-.5c-.1-.3 0-.5.2-.7h2v.2Zm.1 0c0-.1 0-.2.2-.2a36.7 36.7 0 0 1 0 1c-.1.2-.2.2-.3.2h-.2v-.1c0-.4.2-.7.3-1Zm-.6 1.4L80 26l-.2-.1v-.4h1.5Zm-1.8.7h-.1v-.5h.1v.5Zm-1.5 0 .2-.2 1-.3v.7l-.2.1-1.3 1L78 26Zm-.3-.3h-.1v-.1c0-.4.2-.7.4-1h.1l-.2.9-.2.2Zm.5-.4.4-1.2-.1 1c0 .2 0 .2-.2.3v-.1Zm1-.2h-.5c0 .1 0 0 0 0A7 7 0 0 1 79 24v.4h.2v.8Zm1.3 4.7c0 .3-.2.5-.4.7 0-.5.1-.5.4-.7Zm.4-.1-.6.9.6-1Zm0 .5.3-.6.2-.2 1.5-.5-.3.4-1.6 1.1h-.1s-.1 0 0-.2Zm.5-1.1h-.2v-.1a10.7 10.7 0 0 0 1-3.4v-.1c.5 0 .5 0 .5.3l-.2 1.2v.3l.1-.5.3-1.1c0-.2 0-.2.2-.2.6 0 .5 0 .6.5 0 .7-.1 1.4-.4 2.1 0 .2-.2.4-.4.4l-1.5.6Zm1.4-4.6v.4l-.2.1h-.2l-.1-.2.1-.8h.2c.1 0 .2 0 .2.2v.3Zm.1.5.1-.9h.1v.2l.1.2c.1 0 0-.2.2-.2v.2l.2.7a2 2 0 0 1-.6-.1v-.1Zm.8-.8v-.1c.4 0 .7-.2 1-.4l.4-.2h.3l.4-.3c.2-.2.5-.2.7-.2v2.3c-.1.7 0 .6-.6.5l-1.7-.4H84l-.1-.2-.2-1Zm7.6-9.7c0-.1 0-.2-.2-.3l-.3-.5a1 1 0 0 0-.2-.4c-.1 0-.1-.2-.3-.1l-.2-.2s0-.2-.2-.1v-.1l-.2-.2h-.3l-.5-.4a.4.4 0 0 1-.2-.3h-.2c-.1 0-.3 0-.4-.2H87.8v-.4h-.1c-.1.1-.1.2-.2 0l-.2-.3v.3l-.2-.2c-.3 0-.3-.1-.5-.2l-.3-.3-.6-.4-.6-.2H84.8v-.2h-.6l-.2-.2c.2-.1.3-.2.5 0h.5c.2.2.5 0 .6.2h.3c0 .1.2.1.2.3l.4.1.1.1.2.1v.2h.3l.9.6.3.3.3.2c.1 0 .2 0 .3.2.2 0 .3.2.4.3l.5.2.3.3.2.2a68.4 68.4 0 0 1 1.2 1.5v.7l-.2-.6ZM89 11.7c0-.1-.1-.3-.3-.2l-.8-.7-1-.5a.4.4 0 0 1-.2-.3h-.1c-.2 0-.3-.1-.4-.3v-.2s0 .2-.1 0h-.1c0 .2-.1.2-.2.1-.2-.1-.3-.3-.5-.3L85 9l-.1.2-.2.1h-.4l-.2-.1c-.1 0-.1.1-.2 0h-.2c0 .1 0 .3-.2.4-.2 0-.2 0-.3-.2l-.2.2c-.1.2-.4.3-.6.4v-.2l.4-.6.3-.1.5-.4.4-.2c0 .2.2 0 .2 0h.2c0 .1.2.1.1.2V9l.3-.3.5.1V9h.5c.5.9 1.3 1.4 2 1.9.6.3 1.1.6 1.5 1.1l.2.2c-.3 0-.6-.3-.7-.4Zm-3.1-5.5v.2l-.2.2-.1.1-.1.2-.1.2.2-.2.2-.3.2-.2.3-.2v.2c.1 0 .2-.1.2 0 .1 0 0 0 0 .1v.1h.2l-.5.6.2-.1.4-.4v.1l-.1.3-.2.2.2-.1.1-.1.2-.2.1.2v.1l-.2.4v.1l.3-.3.1-.1h.1l.1.1v.2l-.1.3v.2l.3-.4.2.1c.2.2.2.2 0 .4.1.1.2 0 .2 0h.2v.1l.5.4 1 .8.2.2h-.1l-.7-.4c-.5-.4-1-.6-1.7-.7L86.2 8c-.7-.4-1.4-.7-2.2-.8l-.6-.2h-.3l.6-.4c.3.2.4 0 .5 0l.1-.2h.2v.3l.3-.2.2-.3.3-.1-.2.2h.2l.2-.2v.1l-.4.5h.1l.6-.6ZM77 1.5v.1h-.2.2Zm-1.7 4 .2-1.6.1-.8.2-.3h.2l-.2-.2v-.1c.2 0 0-.2.1-.3.2.2.3.4.6.5v-.1l-.3-.3V2h.2l.2.2.1.2h.1l-.2-.3.1-.2H77c0 .4.3.6.5.8v-.2l-.2-.3V2c-.1 0-.1-.1 0-.2h.2v.3l.6.5v-.1l-.4-.6c0-.1 0-.1 0 0l.4.2L78 2v-.2h.1V2h.2l.1-.1h.2v.3c.1 0 .1.2.3.2v-.1l-.2-.3.1-.1c.1 0 .3-.1.4 0H79.5c0 .2.1.2.2.3.1 0 0-.2 0-.4l.3.4.3.4v-.2L80 2l.1-.2h.9v.1l.3.1.3.4h.2l-.3-.4h.4l.3.2v-.2l-.2-.1.5.2.4.4v-.1l-.3-.4h.1l.6.5.7.7 1.3 1.7.2.1h-.3l-.3-.3.6.8-1-1-1-1 .7 1 .8.8c0 .1-.1 0-.1 0-.5-.4-1-.7-1.3-1.2l-.3-.3V4l1.4 1.4s.2 0 .2.2l-.5-.2.2.2c0 .1 0 0-.1 0a5 5 0 0 1-.8-.5l-.3-.2.4.5c-.2 0-.3-.2-.4-.1l-.2-.1-.8-.8h-.2l.5.5a1 1 0 0 1-.4-.2l-.4-.2-.4-.2-.5-.4-.2-.3c0 .2 0 .3.2.3h-.1l-.3-.1-.2.1c-.2 0-.5 0-.7-.3h-.1l-.1.1H78.9c0 .1-.1 0-.2 0s-.2-.1-.2 0h-.2l-.5-.3.1.2c.2 0 .4.1.5.3h-.1l-.5.3s-.2.1-.4 0h-.3l.3.2-.4.1-.4-.1L76 4H76l.3.2.8.3v.1c-.1.2-.3.3-.5.2l.1.2-.5.7H75.5c-.2 0-.2 0-.2-.3Zm0 .5h.4v.1h-.4V6Zm-.1.4v-.1h.4v.1h-.4Zm.1.3c0 .2 0 .2-.2.3v-.1c0-.2 0-.3.2-.2Zm-.7 1c.2-.1.2-.4.4-.6v.1l-.3.6Zm-1.2.7.5-.2.3-.1h.3s.1 0 0 0c-.2.1-.2.1-.1.2H73.8a25.6 25.6 0 0 0-.4 0Zm-.3 0 .8.1c.2 0 .2 0 .3.2l-.4.1h.4V9l-.6.2-.3-.1-.7-.4.5-.1Zm-4.6-2.1c.5-.2 1-.4 1.6-.4v-.1h-.8l-.6.2v-.1l1-.3.6-.1c.3 0 .4-.2.5-.4l.1-.4.1-.2c.2 0 .3.1.4.3-.1.1-.1.2 0 .2v.2c.2 0 .2.1.3.3h.3-.8c.2.2.4.2.5.2h.3v.1l-.2.1h.6l-.2.1H72l-.2.1-.2.1h1c0 .2-.2.2-.2.3l-.4.1h.9v.2h-.3l-.6.2c.4 0 .7 0 1-.2l-.1.3-.9.2H72.8c.1 0 0 0 0 .1l.2.1c-.2.3-.2.3-.5.4l-.4.1h.3v.2l-.5.2h.2l-.4.2h.1l.2.1-.1.1-.4.2h.1v.1l-.7.2h.1v.2c.1 0 0 0 0 .1a2 2 0 0 1-.8 0c0 .2.1.1.2.2h.2l.2.1v.1h-.2c.1.1.1.1 0 .2h-.2l-1-.6v-.1l.3-.1a13.2 13.2 0 0 1-.4-.1h.8l.3-.1h-1V8.9h-.1l.2-.2-.4-.1H69v-.1h.8l-.6-.2h.3v-.1h1.1L70 8h-.4s.1-.1 0-.1h-.2v-.1h.2l.2-.1h-.5l.8-.2h-1 .3c0-.2-.2-.1-.2-.2h.1v-.1l.6-.2h-.7l-.4-.1c.1-.2.3-.2.5-.3h-.3l-.2-.1-.1-.1.6-.3c-.2 0-.4 0-.6.2-.1 0-.2.2-.3 0l.2-.1ZM65.9 2c-.1 0 0-.1 0-.2l.4-.3-.3.1v-.1c.2-.2.4-.2.6-.1h.3v.1l-.2.1-.2.2h.7L67 2c.3.1.3.1.3.4v.4-.2l.1-.2h.1c.2 0 .2.2.3.3v.1l-.1.5h.2v.2h-.1V4s-.2.2 0 .1h.1v.5l-.1.2v.4l-.1.2v.4l.1.3.2.3c.1.1.2.2 0 .4h.2l.2.2v.6h.2c0 .2.1.3 0 .4l-.1.1-.2.2h.2s.2-.2.2 0l-.1.1-.1.1c-.1 0-.1.1 0 .2l.3.1-.1.1V9c.1.2.1.3 0 .4l-.1.2v.1c.2 0 0 .1 0 .2-.1 0-.1 0 0 .1v.1l-.2.2h.1v.5c-.2.1 0 .2 0 .3 0 0-.2 0-.1.2v.1c-.1 0-.2.2-.1.3-.1.3-.3.4-.5.5h-.1v-1l.2-.3v-.2h-.2v-.1h.2v-.2c-.3-.3-.3-.4 0-.7-.2-.2 0-.2 0-.2l-.2-.2h.1v-.1l-.1-.1V8.7c.1 0 .1-.1 0-.1l-.1-.2v-.2l-.1-.4-.1-.5v-.1l.2-.1c-.3 0-.3-.1-.2-.3v-.1h-.1l.1-.3h-.2V6l.1-.1H67a7.4 7.4 0 0 1-.2-.8c0-.1.2 0 .2-.2l-.2-.1v-.2l.1-.3h-.2V4l-.2-.1.2-.2h-.3s-.1 0 0 0v-.2c0-.1 0-.1-.1 0 0 0-.2-.1-.1-.2 0-.1-.1-.3 0-.4H66v-.4s.1 0 0 0c0-.1 0 0 0 0l-.1-.2v-.2Zm-5-.2s0 .1 0 0l.1-.2c-.1-.2 0-.2.2-.3 0 0 .2 0 .2-.2h.2c.1 0 .3 0 .2-.2.3-.2.5-.3.8-.1.1 0 0-.1 0-.2h.2l.2-.1h.4c.1 0 0 0 0-.1h.4c0-.1.1 0 .1 0l.2.1h.1V.4s0-.1.1 0l.2.1.1.2V.4c.3 0 .5.3.6.6V.5l.1.1.2.5V.9c.3.1.3.3.2.6v.4l-.9 2v-.3l-.1.2v.1H64.3c-.1 0-.2 0-.2.2H64c0-.2.2-.2.3-.3h.1l.1-.3.5-.8v-.3c0-.1 0-.3-.2-.4v-.4l-.1.2-.1-.2v-.1l-.1.1-.1.1-.2-.1v-.2l-.1.1v-.1c-.1.1-.2.2-.3.1h-.2v-.1l-.1-.1v.3c0 .1 0 .1-.1 0l-.1.1c0 .1 0 0-.1 0l-.2-.2-.2-.2v.2l.1.3v.1h-.2v.2h-.1l-.3-.3V2s.1.1 0 .2c-.2-.1-.2 0-.2 0v.1h-.2s0-.2-.2-.2v.2c.1 0 .2.1.1.2h-.2v-.1h-.2l.2.3h-.4v.1c.1 0 .1.2 0 .2H61L61 3V3l-.1.3H60.6V3.7h-.1c0 .2 0 .2-.2.2V4c.1 0 0 0 0 .1v.1l-.7-.2h-.3l.5.2s.1 0 0 .1l.2.1c-.1.2-.3.1-.4.1l.3.2-.3.1c.1.2 0 .1 0 .1s-.1 0 0 .1v.1h-.3l.2.2v.1h-.3l.2.2v.2c-.2 0-.2.2-.3.2-.1 0 0 .1 0 .2v.1H59v.4H59c-.2 0-.2 0-.1.1-.1 0-.1.1 0 .2v.2c-.1 0 0 .2-.2.2H58v-.1c0-.1-.2-.1 0-.3h-.1c-.1-.3-.1-.3.1-.4l-.2-.2.2-.1h.1L58 6l-.1-.2v-.1l.1-.1H58.3l-.2-.2s-.1 0 0-.1l-.1-.2.1-.2h.2l-.2-.1v-.2h.3c0-.2-.1-.2-.2-.2v-.1c.2 0 .3-.1.4 0v-.1c-.3-.2-.3-.2 0-.4.1-.2.2-.2.5-.3H59v-.2l.3-.2c0-.2 0-.3.2-.4h.2c0-.3.1-.3.3-.3h.1v-.2s.2 0 .2-.2l.2-.2c0-.1.2-.1.4 0Zm-5 2.8c.2 0 .2-.1.1-.2 0 0-.1 0 0-.1h.3s-.2 0-.3-.2h.4c0 .1.1.1.2 0h-.3l-.2-.2v-.1l.1-.1.3-.1-.2-.2c.1-.1.2 0 .4 0l-.2-.2v-.1c0-.1 0-.1 0 0h.4c-.1-.2-.2-.1-.3-.2l-.1-.2H56.8c0-.1-.2-.2 0-.3l.3-.1-.3-.1.2-.2h.2l.1-.1h.2v-.2h.4v-.1l.4-.2h.2l.2-.1.5-.2h.2c.4-.1.7 0 1 .3.1 0 .1.1 0 .2 0 .1 0 .2-.2.1H60v.2h-.2l-.1.1h-.2s-.1-.2-.2-.1a19.5 19.5 0 0 1 .3.4s0 .2-.1.1l-.2-.1V2.6c0 .1-.1 0-.1 0v.2L59 3l-.3-.2.2.3V3l-.3.1v.1c.1 0 0 .1 0 .2h-.2l-.2-.2v.1c0 .1 0 .1 0 0l-.2.1.3.2v.1l-.1.2H58v.2l-.3-.1.2.2v.1h-.3l.1.2c0 .1.2.1.1.2 0 .1-.1 0-.2 0V5l.2.4c0 .2 0 .3-.2.2h-.2l.1.2.2.1-.3.2.3.1c-.2.1-.3 0-.4 0l.1.1c.3.2.3.2.2.5h-.3V7l.2.1s.2 0 .2.2L57 7l.2.1.4.2v.1c.3 0 .5.1.8 0l.2.1v.1h-.5l.3.1c.2 0 .3 0 .3.2h-1.4c0 .2-.2.2-.3.2v.2l.1.3c-.3 0-.5-.1-.7-.3l-.4-.2.6.6h.1V9l.6.2.1.2v.2l.2-.1h.1c0 .1 0 .1.2 0l.2.1c0 .1-.1.2 0 .2h.2c.2 0 .2 0 0 .2h.4c.1 0 0 .3.2.2v.1h.6l.1.2.1.2s.2-.1.2 0h.3c0 .2.2.2.3.3l.6.1 1-.1h-.6c-.4 0-.8-.1-1-.4l-.4-.2.1.2s.2 0 .2.2h-.2l-.4-.5c-.1 0-.3-.2-.2-.3l-.1-.1c-.2 0-.2-.2-.3-.3l-.4-.3V9l-.2-.1v-.3h.4v.1c0 .2.2.3.3.4 0 .2.2.2.3.2l.1.2v.1l.6.3c0 .2.2.2.3.2 0 .1.2 0 .2.2.2 0 .3.3.6.2l.4.1h.1c.3 0 .6 0 .9-.2l.2-.2.2-.4c.1-.1.3-.2.3-.4l.2-.2.2-.4c0-.3 0-.6.2-1l.1.5v.8l-.1.9V10.6l.1.2-.2.1c0 .1 0 .1 0 0l-.5-.2.3.3v.1h-.2l-.5-.2c-.2 0-.3 0-.4-.2l-.5.1.5.2-.3.2h-.7c-.2.1-.3.1-.4 0-.1.2-.2.1-.3 0l-.1.1h-.7s-.2 0-.2-.2h-.7c-.1 0-.3 0-.3-.2 0 0-.1-.1-.2 0h-.1l-.2-.1s0-.1-.1 0c-.3 0-.4-.2-.6-.4l-.1-.1c-.1-.1-.3-.1-.3-.3l-.1-.1h-.2c-.2 0-.3 0-.2-.2l-.2-.1h-.1v-.3h-.1l-.2-.1V9l-.1-.1H56l-.1-.4v-.1c-.3 0-.3-.2-.3-.4h.3c-.1 0-.2-.1-.2-.3l.1-.1h.1l-.2-.3v-.4h.3l-.2-.3v-.3c0-.1.1-.1 0-.2v-.2l.1-.1v-.2c-.1-.2-.1-.2 0-.2h.1v-.1l-.1-.1-.1-.3c.2 0 0-.1 0-.2Zm2.3 4h.2v.2l.4.4.4.4.1.2v.1l-.3-.2-.4-.1-.2-.2h-.2l-.1-.2-.2-.1-.1-.2H57.5v-.3l-.2-.2v-.1c.1-.2.3-.2.4-.2h.6c.2 0 0 0 0 .1h.2l.2.1-.6.2h.1Zm-2.5-3v.1h-.2v-.3c.1 0 .2 0 .2.2Zm0 .3v.7a40.4 40.4 0 0 1-.2.7s-.2 0 0 .2c0 0-.1.1 0 .2l-.1.2c.2 0 .3.2.3.4l-.1.2c0 .1.1 0 0 .2l.1.1s.1 0 0 0V9h-.1l.1.1V9.4h.2v.4h.2v.2l-.4.2h.3c0 .2-.2.2-.3.3.2 0 .3-.1.4 0l-.3.2h.3c.1 0 0 .1 0 .1l.1.2-.4.2c.2.1.3 0 .4 0h.1v.2l.1.2c.1 0 .1 0 0 .1v.1h.2v.1l-.2.2h.1c.2 0 .2 0 .2.2v.1c0 .1.1 0 .2 0l.1.1c0 .1.2 0 .1.2l.2.2s.1.1.2 0l.3.1.3.2c.2.1.2.2.1.4v.1c.1 0 .2-.2.3-.1v.2l.2-.1c.1 0 0 0 0 0v.2h.1l.1-.2.2.2c0 .1 0 .1.2 0v.4l.2-.1.2.3.1.4v.1h.1c0-.1 0-.1.1 0l.3.4c0-.1.1-.1.1 0l.2.1-.1.3v.2c.1 0 0-.3.2-.3v.1h.1v.1h.1c.2 0 .2.1.1.2l-.3.3H60s-.1 0 0-.1c0 0 0-.1 0 0a.6.6 0 0 1-.5 0s-.1-.1 0-.2c0 0-.2 0-.1-.2H59l.1-.3H59v-.1H59c-.2.1-.3 0-.3-.2l-.1-.2h-.2V15s0-.1-.1 0l-.3-.1v-.2s.1 0 0-.2c-.1.1-.2.2-.1 0h-.2c0-.1-.2-.2-.1-.3V14h-.1v-.2l.2-.3v-.2l-.2.2-.4.1h-.4l-.3-.1c0-.2-.2-.2-.3-.2-.1 0-.2 0-.1-.2h-.1l-.2-.1-.1-.3c0-.2 0-.2-.3-.2 0-.3-.2-.6-.4-.9 0 0-.1-.1 0-.2l-.2-.3.2-.1h-.3l.1-.2v-.1h.3c-.1-.2-.2 0-.3 0l-.1-.2.1-.1v-.1h-.3l.1-.2V10c.1 0 0 0 0 0v-.2l.2-.1h-.3l.2-.2h.1c-.1-.1-.1-.1 0-.2h-.1c-.3 0-.2 0-.3-.3l.1-.3.3-.2h-.2V8l-.1-.1.1-1c0-.2.2-.3.4-.1.1 0 0-.1 0-.2.1 0 0 0 0 0v-.2c.2 0 .2-.2.3-.3.2.1.2 0 .1-.1V6l.4-.1Zm-1.4-1.3h.1c.3.4.3.5 0 .8l-.2.1v-.1l.1-.8Zm1 .5V6a2 2 0 0 0-.7.7h-.1c0 .1 0 .1 0 0l-.2-.6V6l1-.8Zm-.5-.8h.1v.2c.2.3.2.3-.1.5a528.3 528.3 0 0 1 0-.7Zm-13.2 4-.1-.3.1-.5a7.9 7.9 0 0 1 1-1.2l-.5.3-.4.4A5.6 5.6 0 0 1 44 4l.3-.2.8.5a2 2 0 0 1-.6.4L44 5h.2l.8-.3h.1l-.2.6-.7.8-.4.2-.4.4v.1h.1l.2-.1.6-.4s.1-.1.2 0L44 8c0 .4-.3.6-.5.8-.4.4-1 .5-1.4.8 0-.2 0-.3.2-.4l.3-.3.2-.2.3-.4-.6.5-.5.5-.5.5h-.1v-.5c0-.3 0-.6.2-1Zm4.2-1.9-.2-1.2v-.6c.3.1.6.2.7.5h.1l.4.1v.1l.3 1.8-.5-.7v.1l.3.9.3.8c0 .1 0 .2-.2.2-.8 0-1.5 0-2.2.2l-.3-.1c-.2-.6-.2-1.1 0-1.6.2.1.1.3.3.5v-.6c0-.6.1-1.1.4-1.7.2.3.2.6.3 1a53.2 53.2 0 0 1 .4 1.3l-.1-1Zm-1.6 2.4v-.6l.2.4-.2.2Zm-.5 7c0-.1.2-.3 0-.5l-.4.8V16l-.5-1.1v-.2l1 .1H45l-1.2 1ZM50 9.2l-2.3.7-1.5.3s-.2 0-.2.2l1.7-.3 1.7-.4c0 .2-.2.2-.3.2-.8.5-1.7.9-2.6 1.2l-1.1.5-.3.1 1-.2a12.9 12.9 0 0 0 1.7-.7l1-.4c-.1.2-.2.2-.3.2a36 36 0 0 1-2.3 1.6 26.6 26.6 0 0 0 3-1.7v.1l.3-.1.2-.2v.2c-.6.6-1.3 1.1-2 1.5l-1 .6-.2.2c.3 0 .5-.1 1.2-.5l1.1-.7c-.7 1-1.6 1.9-2.7 2.4a5 5 0 0 1-3 .5c-1-.1-2-.5-3-.9l-.8-.4h3.1c0-.2 0-.1-.1-.1h-1l-1.9-.1s-.2 0-.3-.2H39l-.8-.1h.2a21.1 21.1 0 0 0 3.4-.2v-.1h-3.2 1l.9-.2c.3 0 .6 0 1-.2a22 22 0 0 1-3.4.2h-.3l1.6-.3h-1v-.1c.5-.2.9-.4 1.3-.4l.7-.2h.2H39.6V11l3-1.5c1-.4 2-.7 3-.8 1-.2 1.9-.2 2.8 0L50 9l.1.1-.2.1Zm1.1-.5-.7.1c-.5 0-1 0-1.4-.2l-1.4-.2c-.2 0-.2 0-.2-.2V7l-.2-1.3v-.4h.3c1.1.5 2.3.7 3.5.5h.1l.1.1v2.4l-.1.3Zm.1-3a7 7 0 0 1-1.7 0 8.5 8.5 0 0 1-4-1.5h.5c0-.1-.3 0-.4-.2l1 .1.9.1a18 18 0 0 1-2.3-.6h-.3c0-.2.2 0 .2-.2 0 0-.2 0-.3-.2l4 .5-2.4-.5c-.8 0-1.5-.2-2.3-.3h.2l2-.1h1l-.6-.1-1.6-.1h-.3l.2-.1.5-.1a25.2 25.2 0 0 1 4-.4h-3.4l.5-.1h1l.2-.1v-.1h-.5v-.1A12.8 12.8 0 0 1 52 1c.6 0 1.3.2 1.9.4.2 0 .3.2.3.4l.1.3-.1.2.2.1V2.8H54l-.2.1h.4l.2.1-.2.1-1.8.1h-.5v.1h2.6v.2h-.2L52 4h-.3H53.5l-.6.3 1.8-.4-1.2.5a11.2 11.2 0 0 1-2.7.5l.3.1h1l1.6-.4h.3a7 7 0 0 1-2.8 1.1Zm.6 2.5-.2.1V8l.1-.5-.2.4h-.1v-1c0-.2 0-.5.2-.8l.3-.3c.6-.1 1-.3 1.5-.6L54 5V5l-.6.8-.4.5-.2.3.3-.2.3-.3.3-.3-.1.5-1.3 1.5-.4.4Zm.3.6c0-.3.2-.5.3-.7l.8-1s.1-.1.1 0v.2L53 9v.1l.1-.1.1-.4c.1 0 0 .1 0 .2l.1.3h.1v-1a5.2 5.2 0 0 1 .4-1.7c0-.1.1-.3.3-.3v.3a2.8 2.8 0 0 1 0 1.2v1.8c0 .1 0 .3-.2.4l-.2-.7v-.3c-.1-.1-.1 0-.1 0v1c0 .3 0 .5-.2.7h-.2c-.3 0-.5 0-.7-.2a.4.4 0 0 1-.3-.5l.2-1 .2-.7-.5 1v-.4Zm2.1 2c0 .1-.1 0-.2 0-.5 0-.5 0-.2-.4l.3-.3.1.7Zm2.4 4-.6-.3-.8-.4a.7.7 0 0 0-.4-.1l.5.3.5.3.5.3h-.1c-.5 0-1 0-1.5-.2a3 3 0 0 1-1.8-1.3c-.5-.6-.7-1.3-.8-2v-.2l.2.3a5.3 5.3 0 0 0 1 1.8h.1v-.1l-.1-.2a7 7 0 0 1-.9-1.4c0-.1-.1-.2 0-.4l.1.2a6.3 6.3 0 0 0 .6.9v-.1a25 25 0 0 0-.3-.6l.3.2.2.2a12.3 12.3 0 0 0 .6.6c.1 0 0 0 0 0l-.5-.7-.5-.7.2.1.7.7v-.2L53 11c-.1 0-.2-.1-.2-.3h.1l1 .3c.3 0 .4.1.5.3.2.3.5.6.6 1l.1.1.6.9.6.3c.4.1.4.1.4.6-.2 0-.4 0-.5-.2l-.5-.2c0 .2.1.2.2.2l.7.4v.2c.1 0 0 .1 0 .1Zm3.6 3.6s-.1.2-.3.1c0 .1-.1.2-.2 0-.3.3-.6.2-.8.2v-.3h-.3c-.1.2-.2.2-.4.1v-.2s0-.1-.2 0h-.3c0-.3.2-.3.3-.5h-.1l-.3.3h-.2s-.1-.1 0-.2v-.1c-.1-.1-.2-.2-.3-.1v-.2c-.2-.1-.2-.1 0-.2l.1-.3h-.1l-.2.1v-.3c0-.1-.2-.1-.1-.3v-1s.2-.1 0-.2l.2-.3-.1-.2v-1h.4V14.3l.2.6h.2v.2l.2-.1v.5l.2-.2v.3l.3-.2-.1.4h.1v.2s.1-.1.2 0l.1-.1h.1s.1 0 0 0v.2c.1.1.1.2 0 .2v.2l.3-.3h.1c0 .1 0 .1 0 0h.2v.1l-.2.4h.1c0-.2.2-.2.2-.3h.1v.3l-.3.5h.2l.3-.6s0-.1.2 0v.1l.1-.1.1.1.2-.2h.1v.1l-.2.4-.2.3h.1l.1-.2.1-.2.6-.6v.2l.1-.1s0 .1.1 0c0 0 .3-.1.3-.3h.2v.5l.2-.2v.2h.1c0-.1 0-.2.2-.2.1 0 .2 0 .2.2 0 .1.1.1.1 0 0-.2.3-.2.4-.2.3 0 .5-.1.8-.3l.2-.2v.1c0 .2 0 .4-.2.6-.2 0-.3.2-.3.2-.1.1-.2.3-.4.2-.2.3-.5.4-.7.5-.2-.1-.2 0-.2 0l-.2.3H61.6l-.3.3V18c-.2.1-.4.1-.5.3 0 .1-.2.2-.4.1h-.2Zm4.4.4c0-.1-.1-.1-.2 0l-.1.2h-.1c-.1-.2-.2 0-.2 0v-.2l-.2.3-.1.1h-.2l-.2-.1v.1l-.2.2h-.2l-.1-.3-.1.2-.1-.1v.1s0 .1-.1 0v-.1l-.2.2h-.1v-.2l-.1.1-.1.1v-.1h-.2v.1c-.1 0 0 0 0-.1-.1-.1-.1 0-.2 0H61l-.3-.1c0-.2-.2-.2-.2-.2l-.1-.2v-.1l.5-.1.2-.1H61.4v-.2h.2v.1c.2 0 .2-.1.3-.2h.2v.1c0-.1 0-.2.2-.3v.1l.3-.4v.5l.1-.3c0-.1 0-.2.2-.3h.2v.4l.1-.6.1-.1.1.1v-.1l.1.4.1-.2.1-.3V17c.2.1.2.3.2.5l.2-.8v.6-.2h.2l.1.2h.4c0 .1 0 .1 0 0l.2.1.1.2s.2 0 .1.2c.1-.2 0-.3 0-.4h.1l.2.4v-.3l.2-.1c.1-.1.2 0 .2 0v.1c.2 0 0-.1 0-.2h.3s0-.2.1 0c0-.2.2-.2.2-.3 0-.2.2-.2.4-.3h.1v.2c0 .2-.1.5-.3.7l-.2.2c0 .1 0 .2-.1.1-.2 0-.2 0-.3.2l-.3.3h-.3l-.1.1s0 .1-.2 0H65l-.1.2c0 .2-.2.2-.3 0Zm2 .4v.3h-.3c-.2 0-.2-.1-.1-.2 0-.1 0-.2.2-.3h.2v.2Zm-2 1.2V20c.2-.2.2-.5.2-.8 0-.1 0-.2.2-.2l1-.6h.2c0 .2 0 .4-.2.6l-.2.4c0 .1 0 .2.2.3 0 .1.1.2.3.2.1 0 .2 0 .3-.2l.2-.4v-.4l-.2-.1a.4.4 0 0 1-.2-.4c0-.1 0-.3.2-.4l.3-.3c.3-.3.4-.6.3-.9 0-.1 0-.2.2-.2l.2.2.2.3h.6c.9 1 2 1.5 3.2 1.9l.7.2h.2c.3.1.4.3.4.5l.3.9v.2H73a9.6 9.6 0 0 0-5.9-.3l-1.3.2a3 3 0 0 1-1 0l-.1-.3Zm3 4.1L67 24v-.2l.4.2.4.2a7.4 7.4 0 0 0 1 .3h.5-.3a9 9 0 0 1-2.7-1.4.9.9 0 0 1-.3-.3l.5.2-.6-.5h.2l1 .6.4.2-.1-.2-1.3-.8-.6-.5s-.2 0-.1-.1v-.3l.7.5.8.4c.3 0 .5.2.8.3l1 .2-.3-.1-1.2-.5a7 7 0 0 1-1.5-.9l-.3-.3 1.5.3h1.5-.4l-1.4-.2-.9-.2a2 2 0 0 1 1 0h1.3l-.5-.1h-.1v-.1l2.7-.3a8.3 8.3 0 0 1 3.1.7l-.1.1H72.1l.5.1.6.1.2.2v.6c.1.1 0 .2 0 .2l-.6-.1.3.1.4.2-.3.1a33.8 33.8 0 0 1-4-.5H69l.2.2 2.7.4 1.5.1c.2 0 .2 0 .2.3-.3 0-.6 0-1 .2h1.1l.1.1v.1a288 288 0 0 0-.8.3h.7c0-.1 0-.1.1 0h-.2a6 6 0 0 1-1.3.4h.5v.2l-.6.2a5 5 0 0 0-1.1.4l-.7.2c-1 0-2-.2-2.8-.8ZM71.5 35h-.2l.2-.3.3-.7h-.2c0 .3-.2.5-.3.8l-.7.6v-.2a9 9 0 0 0 .8-2.4v-.2l-.1.4-.8 2-.2.4-.2.3s-.1.1-.2 0v-.2l.3-.4c.4-1 .7-2 .8-3l.1-.7v-.2l-.2.6c-.2 1-.6 2.1-1 3.1l-.1.4c-.1-.1 0-.2 0-.2v-.3l-.2.1.2-.7a37 37 0 0 0 .4-1c-.1-.1-.1 0-.1 0l-.3.7h-.1l.2-1 .2-1c-.2.6-.3 1.1-.6 1.6v-.2l-.2-1.3-.1-2v-1.7c0-.5.2-1 .4-1.4.4-.6.9-1.1 1.5-1.4h.1l-.8 1.3.1-.1.8-1 .8-.5s.2-.1.2 0h.2c.2-.2.4-.2.6-.2a7 7 0 0 0-1.2 1l-.1.3.3-.1 1-.9.5-.2h.3l-.2.1a5.3 5.3 0 0 0-1 .9l.3-.2.7-.5.5-.1-.5.3a6 6 0 0 0-1.2 1.5h.1l.8-1 1.1-.7h.1c0 .2-.2.3-.3.4l-.5.5a9.2 9.2 0 0 0-1 1.3 11.3 11.3 0 0 0-.6 1l.1-.1 1-1.2.8-.9-.3.6-.4.6-.3.5h.2l.5-.8.4-.6.1-.1-.5 1.3.3-.3.1-.3.2-.4c0-.1 0-.2.2-.3v.3c.2-.1.1-.3.3-.4v1.2A15.8 15.8 0 0 1 74 32a6 6 0 0 1-1.5 2.3c0 .2-.2.2-.4.3.3-.7.6-1.3.7-2l-.2.2-.5 1.6c-.1.3-.3.5-.6.6Zm8.3 4.1.3-1 .1-.7.1-.1v.4l.2 1v.3a7 7 0 0 1-.8.3V39Zm7.2 2.4-.8.3-.8-.1a5 5 0 0 1-1-.4h-.2c.3.3.7.4 1 .6H85c-.3.1-.5.1-.8 0-.1.3-.3.2-.4.2l-.9-.1-.6-.3H82l.8.5h-.4l.1.2h.4v.2c.8-.2 1.6-.4 2.4-.4l1.2-.2h.2l-.2.1c-1 .5-2 .9-3.1 1.1H83l.3-.3.2-.2c-.3 0-.4.1-.6.3-.7.4-1.3.5-2 .4V43H81c-.5.2-1 .2-1.4 0l-1.3-.5v-.2h-.5a4 4 0 0 1-.8-.4h2.2v-.1l-1.2-.2h-1l.5-.4.4-.4c.1-.2.3-.3.5-.2l.4.2c.2 0 .3.2.5.3h.1v-.2l-.8-.5s-.1-.1 0-.2l.9-.6h.5l.4.3.3.2V40l-.5-.5v-.2a5 5 0 0 1 1.6-.3c.2 0 .3 0 .3.3a20.1 20.1 0 0 0 .3.5h.1v-.1l-.1-.3c-.1-.4-.1-.4.2-.3.4 0 .7 0 1 .2.2 0 .3 0 .4.2l.2.6c0 .2.1.3.3.4v-.3l-.3-.6.1-.1c.3 0 .5.2.7.3l.5.4a12.2 12.2 0 0 0 1.7 1.2Zm7.6-5.3a6 6 0 0 1 1-.5h.1v.1l-4.2 4a4 4 0 0 1-1.5.9l-1.8.5c-.5.2-.9.1-1.3-.1l-.7-.5-.8-.7a6 6 0 0 0-3.5-1h-1.1V38l-.2-1.7v-.7c.4-1.4 1.1-2.5 2-3.5 1.1-1 2.3-1.9 3.6-2.6L88 29c.1-.1.1 0 .1 0l-.1.1-1 1.1-.4.8c-.2.5-.5 1-1 1.4l-.5.4c-1 .8-1.9 1.7-2.5 3l-.4.4v.5h.2v-.1h.3l1 .4c.7.4 1.4.8 2.2 1 1.1.5 2.2.7 3.4.7 1 0 2-.3 2.9-.8l1.4-1 1-.7Zm-8.8-3.7-.1.5c0 .2 0 .4-.2.6l-.5.3-1.2.9c-.2 0-.3.2-.4.3.4-.9 1.7-2.2 2.4-2.6Zm4.6 1.4a1.8 1.8 0 0 1 1 1v-.3l1.3.7 1.4.6c-.3.2-.7.2-1 .1l-.6-.1h-.1l.3.3h-.1c-.5.1-.8.1-1.2-.2l-.4-.3-.2-.1c0 .1 0 .2.2.3l.3.4v.1h-1l-.6-.3v.1l.1.2h-.2a1 1 0 0 1-.5-.2l-.5-.5-.2-.1v.1l.4.7a3 3 0 0 1-.8 0 8 8 0 0 1-1.2-.2h-.1c-.1.2-.2.1-.4.1H86v.1l.8.2h.4v.2c-.1 0-.2 0-.3.2h.2c.5-.2 1-.2 1.4-.2v.2h.3a2 2 0 0 1 1-.2h1.1v.2c.2-.1.5-.3.8-.3l1-.2v.3c.4-.3.8-.5 1.3-.6v.1c-.6.5-1.2 1-1.9 1.3a3 3 0 0 1-.7.3v-.5l-.2.3-.2.2a1 1 0 0 1-.8.4H90L90 38l-.8.3H89s-.1 0 0-.1v-.3h-.1c-.3.3-.7.4-1.1.3l-1.3-.3c.2-.2.5-.2.6-.4h-.3a4 4 0 0 1-.7.1h-.5s-.2 0-.2-.2l-.2-.1-.5-.1-.6-.2v-.2l-.9-.3-.5-.2.6-.2h1L84 36h-1v-.2c.1-.2.3-.2.6-.2h.3c.1 0 0-.1 0-.1h-.2c-.2 0-.2-.1 0-.3.2-.3.5-.6 1-.7h.1c0-.1.1-.2 0-.2l.2-.2.8-.4h.5l1 1.1.2.4h.1V35l-1-1.3h-.2v-.2h.4l.7-.1h.2l.5.5.1.2.1-.1-.1-.3a8 8 0 0 0-.2-.3c.4-.1.7 0 1 .2l.3.6.2.2a3 3 0 0 0-.2-.7s-.1 0 0-.2l1 .3Zm-.7-4.4c.2.1.2.1 0 .3a26.3 26.3 0 0 1-.7 1.8l.6-.9.2-.3h.1c0 1-.2 1.9-.5 2.7 0 .2-.1.2-.3.2a7.7 7.7 0 0 0-2.8 0l-.2.1s-.1 0 0 0V33l.5-1.6a5.9 5.9 0 0 1 2-2.8c.4.1.8.4 1 .7Zm-.7-1.7-.2.2-1.4.7a24.7 24.7 0 0 0-5.1 3.2l-1.7 1.4-1.2.8c-.8.2-1.7.3-2.5.3l-1-.2h-.5c-.1-.1-.1 0-.2 0l.4.2.8.3h.2c0 .2-.2.2-.3.2l-1 .2-.5.2v.1a4 4 0 0 0 2-.4l.3-.1.5-.2c.6 0 1.2-.1 1.8-.4h.1v.1c-.6.6-1.2 1-2 1.4a6 6 0 0 1-1.9.4 4 4 0 0 1-1.9-.4L72 35l.1-.1a5 5 0 0 0 2-2.2 12.7 12.7 0 0 0 1.1-4.9v-1l.3-1.5c0-.2.2-.4.4-.5l1-.7h.3c.2 0 .3-.2.4 0l-.2.2-.9 1.1c-.4.7-.7 1.5-.8 2.3v2a67.1 67.1 0 0 1 .2 3.1h.1l.3-.3c.7-.3 1.3-.7 1.8-1.1h.1c0 .1 0 0 .1 0l.8-.6.3-.2v.7l.2.4a7 7 0 0 1-.9.6l-.4.2v.1H78.4l1.4-.7a16.8 16.8 0 0 0 1.7-1.3 5 5 0 0 0 1-.9l.5-.3c.7-.5 1.4-.9 2.3-1l1.3-.2 2.1-.5h.2Zm-.5-.9.3.4-.2.1-5 1c.3-.7.4-1.4.3-2.2 0-.5 0-.4.5-.3l1.8.4.1.2c0 .4-.1.7-.3 1v.2l.1.1 2-.8.3-.1h.1Zm-.7-1.3a18.7 18.7 0 0 1 .3.7h-.7c0-.3.2-.5.4-.7Zm-.2-.4c.1.1.1.3 0 .4l-.4.5c0 .1 0 .2-.2.1V26l.5-1.1v.2Zm-.2-2.5v-.3.3l.2.3-.2-.3Zm6-4c-.2 0-.1 0 0 0v.1h-.1l-.5-.1c0 .2.2.2.3.2v.1c0 .1 0 .1-.1 0h-.2c0 .2.1.2.2.2.1.1.1.1 0 .2-.2.3-.1.4-.5.2h-.2.1c.2.1 0 .3.2.4l-.3.1h-.2c0 .2.3.1.3.3h-.3l.2.1v.1s-.1 0 0 0c0 .2-.1.2-.2.2H92l.2.1v.1l-.1.2v.5c-.2 0-.3-.1-.4 0h.1s.1.1 0 .1l.2.2s.1.1 0 .2l-.1.1h-.2v.1l-.1.1-.3-.1-.2-.1.2.2.4.3h-.5s.2 0 .2.2h-.7c0-.1 0 0-.1 0l.2.1c0 .1-.2 0-.2 0l.2.2v.1l-.1.1h-.3l-.2-.2.1.2c.1 0 0 0 0 .1v.1H90a1 1 0 0 1-.5 0l.4.3-.4-.1h-.2l.3.2a.2.2 0 0 1-.3 0l-.5-.2-.3-.2.2.3.3.2h-.2c-.3-.1-.6-.3-.7-.7a6.9 6.9 0 0 1-.5-1.2l.2.2.2.2c0-.1-.1-.2 0-.4V22l.4.7-.1-.4v-.6l.4.8c0-.3-.2-.6 0-.9l.2.3c.1 0 0 0 0-.1l.1-.3c.2 0 .2.2.3.2v-.1l-.1-.4v-.2l.1.1h.1V20.7l.2.2.1.2v-.2l-.1-.5.2.1h.1l.2.3.3.5.3.3v-.2c-.3-.3-.4-.6-.6-1V20l.5.4v-.1l-.6-.7v-.2l.1-.1s.1-.1.2 0l.4.1c0-.1-.2-.2-.1-.3h.1l.1.1-.2-.4h.1v-.2h.3l.1.2.3.2v-.1l-.5-.6.1-.3h.1c0-.1 0-.1 0 0l.4.1.1.1-.3-.4c-.1-.1-.1-.1 0-.1l.2.1-.1-.3h.1V17h.1V17c0-.3 0-.3.2-.2v-.3c-.1-.1 0-.2 0-.2v-.1c-.2-.3-.1-.7 0-1V15h.1l.2.3.4.9.9 1.3.1.7v.2Zm1-2.8v.4c0 .1 0 0 .1 0 .2 0 .3 0 .3.2v.1l-.2.3h.4l.2.3-.1.1.1.1v.4H95l.1.1c.3 0 .3 0 .3.3v.1l-.2.2h-.4c-.1-.2-.3-.2-.4-.3-.1 0-.3 0-.3-.2h-.2v-.1h.4l.1-.1-.4-.1-.5-.2-.2-.2V17s0-.2-.2-.2h.2v-.1l-.3-.1-.1-.1.1-.1-.1-.1-.1-.1-.1-.1v-.2h-.1s-.1 0 0-.1v-.2c-.1 0 0 0 0 0h.2v-.1h-.4c0-.2.2 0 .2-.2h-.3V15h-.2l-.1-.1v-.1s-.2 0 0-.1l.1-.1c0-.1-.1 0-.2 0l-.2-.1v-.2h.2l.1-.2h-.3l-.2.1V14c0-.2-.1 0-.2-.1v-.2c-.2 0-.3 0-.2-.2l-.1-.1.4-.2h-.5c-.1 0-.2 0-.3-.2-.2-.1 0-.2 0-.2-.3 0-.4-.2-.5-.5-.1 0-.1-.1 0-.1l.2-.2H90c-.2.1-.3 0-.4 0 0-.2-.2-.2 0-.4h-.1c-.1 0 0 0 0-.1v-.1c0-.1 0 0-.1 0l-.4-.1-.2-.2.2-.2h-.5l-.3-.1v-.2c0-.1 0 0-.2 0-.1 0-.3 0-.4-.2v-.2h.2l-.1-.1h-.3s-.1.1-.2 0V10c.1 0 .1 0 0 0-.2 0-.4 0-.5-.2a34.4 34.4 0 0 0-.4-.6l.9.4s.2 0 0 .2h.5l.6.3.6.2c.1 0 .1 0 0 .2.4 0 .7.1 1 .3 0 .2-.2.1-.2.2.4 0 .7 0 1 .4h-.5c0 .1.2 0 .2 0l.2.1c.2 0 .3.2.4.3v.1h.1c0 .2-.1.1-.2.2h.2c.2 0 .3.2.3.4h-.5.2c.2 0 .3.1.3.2l.3.1c.3 0 .5.2.6.4l.1.2s-.1.1 0 .2l-.3.1h.5l.3.4.1.2v.2h.1c0 .1-.2 0-.3.2h.2a64.7 64.7 0 0 1 1.4 1.2Zm.5-1.2c0 .2-.1.3-.3.2l-.2-.2v-.2l-.3-.1-.1-.5v-.1c-.2-.1-.2-.3-.2-.4l-.5-1.7v-.1.1l.1 1.2-.4-.5V12h-.1c0-.3-.3-.3-.3-.5l-.2-.4v-.2h.1c0-.1-.1 0-.2 0l-.1-.1v-.1l.4-.2h-.5c0-.1 0-.2.2-.3 0 0 .2 0 .2-.2a4 4 0 0 0-.6.3h-.3c-.1-.2-.2-.3-.4-.3l-.2-.4c.1-.1.4-.1.5-.3h-.4l-.2.1-.1-.1c-.1-.1 0-.1 0-.2L91 9l.2-.2a36.6 36.6 0 0 0-.7 0h.1c.2 0 .2-.2.1-.4-.1 0-.2.2-.4.1l-.2-.1-.1-.2.3-.3h-.5c0-.1.2-.2.1-.3-.3.1-.3 0-.4-.2v-.3l.1-.3-.2.1c0 .1-.1.1-.2 0a.3.3 0 0 1-.2-.2v-.1l.2-.4-.2.2-.2.2c-.3-.3-.3-.3-.1-.6 0 0 0-.2.2-.3h-.2l-.2.3s0 .1-.1 0c-.2 0-.3 0-.2-.2v-.4.1l-.2.2-.2-.1c-.2-.1-.3-.3-.2-.5 0 0-.1.1-.2 0V5l.2-.5s.1 0 0-.2l-.2.3c0 .1 0 .2-.2.3-.1-.2 0-.3 0-.4l.3-.5c0-.1 0 0-.1 0l-.2.2-.3.3a.5.5 0 0 1-.2-.3s.1-.2 0-.2c0 0 0-.2-.1-.1-.2-.1-.2-.2-.2-.4 0-.1.2-.2.1-.3l-.2.2-.2-.3c0-.1-.1-.1 0-.2l.1-.3v-.1h-.1c0 .2-.1.2-.2.3h-.1v-.3h-.2c-.1.1-.2 0-.2 0v-.2c-.3.1-.3-.2-.4-.3l-.2-.3-.6-.9V.7h.7V1s-.1 0 0 0h.1l.1.1c.1.1.1.2 0 .2v.1h.2l.1.1-.3.2v.1h.4v.1h.1l.2-.2h.4v.1l-.2.1c0 .1.1 0 .1 0H86.8c.3.3.3.3 0 .5v.2h.1l.2-.2h.2l-.1.2h.2v.1l-.4.5.4-.3c.2-.2.2-.1.3 0 .1.1.1.2 0 .2l-.1.2h.2c.1-.1.2-.1.2 0h.1c.1.2.1.2 0 .4 0 .1 0 0 .1 0l.3.1V4h.1l-.2.4-.1.2h.1l.3-.3h.2v.4c-.1 0-.2 0-.1.2l.2-.2c.1 0 0 0 0 0V5l-.2.3h.1l.3-.3h.2c.3.4.3.3 0 .6v.1l.3-.1h.1V6.1c-.2 0-.3.2-.3.3.2 0 .2-.2.3-.3.3-.2.3-.2.4 0l.4.7v.1l-.1.2h.2c.2-.1.3 0 .3.2.2 0 .2 0 0 .2v.2l.3-.2.4.1V8l.2-.1h.3l-.3.3h.7s-.2 0-.2.2h.5l-.7.6c0 .1 0 0 0 0 .3 0 .5-.2.6-.3h.5V9h.1v.1l-.3.3-.1.1h.1l.4-.2h.1V9.6h.1v.2c-.1 0-.2 0-.2.2l.3-.1h.1v.3h.1v.2c-.2 0-.3.1-.3.2h.3c.2-.2.2-.2.3 0v.2l-.2.1s.1.1 0 .2v.1h.3c.1-.1.1-.1.2 0 0 .1.1.3 0 .4l-.1.2-.1.1-.4.3c.3 0 .5-.2.7-.3l-.1.5-.3.1c.1.1.2 0 .2 0h.2c.1.2 0 .4-.1.6l-.2.1h.3c0 .2-.1.2-.2.3H94.8v.2c-.1.1-.2.2 0 .2v.2s-.1.1 0 .2v.3Zm0 0"/></g><path fill="#c39d35" d="M91.8 69.2ZM81.1 55.8ZM83.4 69.3ZM85.7 70.4ZM95.4 6.6l.6-1v-.4l-.2.2-.5 1.1c-.1.2-.2.2-.4.2 0-.2.2-.3.3-.4l.2-.4a3.5 3.5 0 0 0 .4-.8h-.2l.2-.4.1-.5-.3.5v-.3l.2-.7v-.3a38.3 38.3 0 0 1-.5.7v-.2a8.7 8.7 0 0 0 .5-1.1h-.1l-.3.5c0-.3.2-.6.1-1v.2l-.2.5-.1.2v-.6a7 7 0 0 0-.4-1.6V0c0 .1 0 .3-.2.4-.1-.1 0-.3 0-.4h-.8v.6-.2c.1 0 .1-.1.2 0 .1 0 0 0 0 0V1c0 .1 0 .3-.2.5v.1h.1c0-.1 0-.2.1-.1h.1l.3-.5c.2.2 0 .4 0 .7h.1l.1-.1c0 .2 0 .3-.2.5l-.1.2c.2 0 .2-.3.4-.4l.3 1V3l-.3.4v.2-.1h.3v.1l-.1.5h.2l-.2.5s-.1.1 0 .2l.3-.4h.1l-.1.3V5h.1c0 .2-.2.4-.3.5v.2l.2-.2-.1.3-.3.4a3 3 0 0 0-.6 1.5v.2l.1-.3.3-.5.2-.2h.6c.2.1.2.3.2.4l-.2.3c.2 0 .2-.2.3-.2l.3-.1v-.5l-.2.1c0-.2 0-.3.2-.4v-.2l-.4.4-.1.1h-.1v-.1ZM95.4 38.1c0 .1-.2.2 0 .3v.1c-.3.4-.5.8-1 .8l-.1.1.3.1v.1c-.2.5-.6.9-1 1.1l-.3.2h.4c-.3.5-.5.9-1 1.2V42.4l-.2.4s-.1.1 0 .2l.3-.4.1.2.3-.6a4.3 4.3 0 0 1 .7-1v.6a9.2 9.2 0 0 0 .2.4v-.7c0-.5.1-1 .5-1.5l.4-.5v-.2h.2v.3l.1.4.1-.2v-.4c0-.4.1-.7.3-1l.3-.4v-.4l-.6.5ZM95.6 53.1l-.1.2c-.3.3-.3.9 0 1.1v-.2a.6.6 0 0 1 0-.7l.2-.2.3-.4v-.5.2l-.4.5ZM85.6.5V.2l.2-.1h-.6l.4.4ZM95.5 0c0 .4-.2.7-.1 1l.3-1ZM96 22.2v-.1l-1-.2c.2.2.6.3 1 .3ZM96 25.4v-.1l-1-.3 1 .4ZM95.4 30c.2.3.3.5.6.6v-.2l-.3-.2-.3-.2ZM96 70.6v-.2c-.3 0-.4-.2-.6-.4l.6.6ZM80.9.2l.3.1V0h-.4l.1.2ZM95.3 23.8c.2.2.5.2.7.3v-.2l-.5-.1h-.2ZM95.6 54.5l.4.4v-.2l-.2-.2h-.2ZM87 .5V0v.5ZM95.7 8l.3-.2v-.1c-.3.1-.3.1-.3.3ZM81.5 0v.4V0ZM93.5.3l.3-.3h-.5l-.2.7.4-.6v.2ZM27.5 0h-.6.6ZM95.7 76.2s.1.2.3.2v-.1c-.1 0-.1-.2-.3-.1ZM77.6 0h-.2c.1.1 0 .3.2.4V0ZM87.7 0v.3V0ZM95.7 55.4h.3v-.2c-.1 0-.2 0-.3.2ZM96 62.7v-.4c-.1.2-.1.3 0 .4ZM83 68.5l.1-.3h.2l-.1-.2-.2.5ZM61.3 13.3V13l-.2.3.1-.1ZM94.4 66.4l.4.5c0-.2-.2-.4-.4-.5ZM91.7 70.4l-.2-.4c0 .3 0 .3.2.4ZM94 66.3c0-.1 0-.2-.2-.3l.2.3ZM93.9 67.3l.3.3c0-.2-.2-.3-.3-.4l-.3-.3ZM93.1 68.2c0-.1 0-.3-.2-.3 0 .1 0 .2.2.3ZM94.4 67.8l-.2-.2c0 .1 0 .2.2.2ZM91.8 69.2ZM91.8 69.2l.1.3v-.3ZM91.6 65.4l-.3-.3.3.3ZM95.1 58.3l-.3.2c.1 0 .3 0 .3-.2ZM56.3.3 56 .1l.3.2ZM60.7.7l.1.1-.1-.1ZM95.7 44.5l-.4.4v.1h.1l.4-.4v-.2.1ZM94.4 44.1l.3-.2c-.2 0-.2 0-.3.2ZM94.7 44a1 1 0 0 0-.3.5l.4-.4.3-.2a1 1 0 0 0-.4.2ZM86.3 85.8l-.2.1a24.6 24.6 0 0 0-1.1 2h.1l1.2-2ZM85.1 89.5c-.3.3-.5.7-.6 1l.6-1ZM90.3 18.4l-.1-.6.1.6ZM90 18.3l-.1-.4v.4ZM85.8 70l-.1.4.1-.4ZM85.7 70.4ZM83.4 69.3ZM83.4 69.7v-.4.4ZM86.6 63.5ZM86.6 63.5l.7-.3c-.3 0-.5.1-.7.3ZM86.1 63.6l.4-.1-.4.1ZM87 63.8H87h.1ZM89.9 58.2c.1 0 .2 0 .3-.2-.1 0-.2 0-.3.2ZM87.6 60v-.3.3ZM87.6 59.7ZM59 2.4l.1.3c0-.2 0-.2-.2-.3ZM81 65.6c.1 0 .2-.1.2-.3l-.2.3ZM85 65.6c.2 0 .2-.1.3-.2-.2 0-.2.1-.2.2ZM72.4 10.2s0-.1-.1 0h.1ZM72.3 7.6l.6-.1ZM63 14c-.2 0-.3 0-.3.2l.2-.2ZM93 62.1l.1.1h.2-.3ZM93.3 62.2ZM87.7 50.1l.1.5-.1-.5ZM36.8 5.2l.1-.2c-.3 0-.6.3-.9.5l-.2.5v.1h.1l.9-1ZM93.5 46.8l.5-.5-.5.5ZM81.1 55.8ZM81.1 55.8H81h.2ZM81.4 53.7l.2.1-.2-.1ZM63.4 6h.4a.5.5 0 0 0-.4 0ZM91 47l.2-.5c-.1.2-.2.4-.1.5ZM84 14.4ZM84.1 14.7v-.3c-.2 0-.1.2 0 .3Zm0 0"/></svg>