<svg xmlns="http://www.w3.org/2000/svg" xmlns:xlink="http://www.w3.org/1999/xlink" width="128" zoomAndPan="magnify" viewBox="0 0 96 95.999999" height="128" preserveAspectRatio="xMidYMid meet" version="1.0"><defs><clipPath id="f4906f2542"><path d="M 0 15 L 92 15 L 92 88.503906 L 0 88.503906 Z M 0 15 " clip-rule="nonzero"/></clipPath><clipPath id="9c6607b120"><path d="M 4 7.503906 L 89 7.503906 L 89 88 L 4 88 Z M 4 7.503906 " clip-rule="nonzero"/></clipPath><clipPath id="60eb99bc3d"><path d="M 3 38 L 55 38 L 55 70 L 3 70 Z M 3 38 " clip-rule="nonzero"/></clipPath><clipPath id="77bc328b42"><path d="M -6.875 41.464844 L 55.855469 26.46875 L 69.457031 83.367188 L 6.722656 98.363281 Z M -6.875 41.464844 " clip-rule="nonzero"/></clipPath><clipPath id="780d678bd6"><path d="M -6.875 41.464844 L 55.855469 26.46875 L 69.457031 83.367188 L 6.722656 98.363281 Z M -6.875 41.464844 " clip-rule="nonzero"/></clipPath><clipPath id="9e6df61142"><path d="M 0 33 L 57 33 L 57 90 L 0 90 Z M 0 33 " clip-rule="nonzero"/></clipPath><clipPath id="851101c1c1"><path d="M -6.875 41.464844 L 55.855469 26.46875 L 69.457031 83.367188 L 6.722656 98.363281 Z M -6.875 41.464844 " clip-rule="nonzero"/></clipPath><clipPath id="e2cfc94018"><path d="M -6.875 41.464844 L 55.855469 26.46875 L 69.457031 83.367188 L 6.722656 98.363281 Z M -6.875 41.464844 " clip-rule="nonzero"/></clipPath><clipPath id="5dfd4c6585"><path d="M 6 54 L 65 54 L 65 91 L 6 91 Z M 6 54 " clip-rule="nonzero"/></clipPath><clipPath id="9963672722"><path d="M -6.875 41.464844 L 55.855469 26.46875 L 69.457031 83.367188 L 6.722656 98.363281 Z M -6.875 41.464844 " clip-rule="nonzero"/></clipPath><clipPath id="a8df0f97ca"><path d="M -6.875 41.464844 L 55.855469 26.46875 L 69.457031 83.367188 L 6.722656 98.363281 Z M -6.875 41.464844 " clip-rule="nonzero"/></clipPath><clipPath id="c108620e3c"><path d="M 28.800781 67 L 67.050781 67 L 67.050781 93 L 28.800781 93 Z M 28.800781 67 " clip-rule="nonzero"/></clipPath></defs><g clip-path="url(#f4906f2542)"><path fill="#831843" d="M 67.464844 75.34375 C 66.71875 75.238281 65.972656 75.164062 65.214844 75.128906 C 62.398438 75.023438 59.585938 75.546875 56.960938 76.589844 C 53.429688 77.96875 50.261719 80.273438 47.902344 83.238281 C 47.328125 82.214844 46.476562 81.253906 45.921875 80.429688 C 44.9375 78.980469 44.097656 77.5 43.125 76.113281 C 42.539062 70.851562 40.886719 65.699219 38.238281 61.113281 C 37.300781 59.480469 36.171875 57.882812 34.847656 56.527344 C 33.097656 54.734375 31.019531 53.371094 28.585938 52.933594 C 28.535156 52.921875 28.480469 52.921875 28.425781 52.910156 C 27.007812 52.015625 25.523438 51.214844 23.988281 50.542969 C 22.039062 49.679688 20 49.007812 17.910156 48.539062 C 12.011719 47.203125 5.738281 47.523438 0 49.445312 C 5.226562 48.421875 10.632812 49.617188 15.667969 51.375 C 17.824219 52.132812 19.945312 52.984375 22.078125 53.828125 C 21.867188 53.925781 21.652344 54.019531 21.441406 54.117188 C 19.242188 55.214844 17.355469 56.847656 15.667969 58.640625 C 13.683594 60.75 11.988281 63.085938 10.539062 65.574219 C 10.070312 66.371094 9.632812 67.183594 9.214844 68.015625 C 6.496094 73.421875 4.789062 79.417969 3.734375 85.402344 C 6.21875 79.257812 9.652344 73.5 13.867188 68.378906 C 14.828125 67.226562 15.820312 66.105469 16.84375 65.019531 C 18.433594 63.332031 20.128906 61.722656 22.101562 60.515625 C 22.304688 60.378906 22.515625 60.261719 22.730469 60.132812 L 22.742188 60.132812 C 24.992188 58.894531 27.617188 58.214844 30.144531 58.660156 C 32.105469 59.003906 33.898438 60.027344 35.402344 61.371094 C 35.753906 61.667969 36.085938 62 36.394531 62.339844 C 39.15625 65.339844 40.671875 69.304688 41.324219 73.328125 C 41.355469 73.539062 41.375 73.753906 41.40625 73.96875 C 41.121094 73.660156 40.820312 73.371094 40.492188 73.082031 C 39.660156 72.355469 38.71875 71.71875 37.726562 71.203125 C 36.46875 70.566406 35.105469 70.117188 33.71875 69.945312 C 33.011719 69.851562 32.296875 69.828125 31.585938 69.902344 C 30.964844 69.945312 30.347656 70.0625 29.738281 70.246094 C 27.980469 70.777344 26.453125 71.824219 25.097656 73.082031 C 24.4375 73.679688 23.828125 74.339844 23.253906 75.003906 C 19.925781 78.875 17.460938 83.480469 16.097656 88.398438 C 18.273438 85.871094 20.46875 83.324219 23.167969 81.347656 C 25.34375 79.757812 27.914062 78.554688 30.582031 78.265625 C 31.199219 78.191406 31.828125 78.179688 32.457031 78.214844 C 35.242188 78.382812 37.675781 79.566406 39.710938 81.285156 C 40.425781 81.882812 41.089844 82.542969 41.695312 83.246094 C 41.664062 84.003906 41.621094 84.761719 41.589844 85.519531 L 41.441406 86.160156 L 41.269531 86.851562 L 42.070312 86.851562 C 42.515625 86.332031 42.816406 85.648438 42.996094 84.921875 C 43.273438 85.316406 43.542969 85.710938 43.785156 86.105469 C 43.9375 86.339844 44.097656 86.609375 44.289062 86.851562 L 53.054688 86.851562 C 57.3125 83.664062 62.632812 81.882812 67.957031 81.902344 C 73.632812 81.925781 79.273438 83.972656 83.636719 87.597656 C 80.777344 81.144531 74.421875 76.410156 67.464844 75.34375 Z M 59.457031 63.300781 C 59.390625 63.355469 59.339844 63.40625 59.273438 63.460938 C 57.792969 64.792969 56.46875 66.289062 55.230469 67.855469 C 54.988281 68.164062 54.742188 68.472656 54.507812 68.785156 C 53.566406 70.011719 52.863281 71.164062 53.214844 72.761719 C 53.28125 73.0625 53.386719 73.359375 53.515625 73.625 C 53.800781 74.171875 54.238281 74.597656 54.835938 74.640625 C 55.007812 74.660156 55.179688 74.640625 55.371094 74.597656 C 57.054688 74.179688 59.03125 72.25 60.414062 71.238281 C 61.460938 70.46875 62.484375 69.660156 63.457031 68.804688 C 64.054688 68.304688 64.628906 67.769531 65.183594 67.226562 C 66.71875 65.710938 68.105469 64.046875 69.246094 62.222656 C 70.058594 60.953125 70.71875 59.609375 71.242188 58.191406 C 66.871094 58.265625 62.730469 60.410156 59.457031 63.300781 Z M 81.609375 45.390625 C 77.332031 45.851562 73.109375 46.90625 69.109375 48.539062 C 68.980469 48.589844 68.851562 48.644531 68.726562 48.699219 C 67.285156 49.304688 65.867188 49.976562 64.5 50.734375 C 61.726562 52.25 59.113281 54.042969 56.703125 56.089844 C 56.277344 56.453125 55.851562 56.835938 55.433594 57.210938 L 55.433594 57.222656 C 54.699219 57.882812 53.996094 58.574219 53.300781 59.289062 C 53.523438 58.511719 53.664062 57.710938 53.792969 56.910156 C 54.6875 51.128906 55.273438 45.253906 54.65625 39.429688 C 54.601562 38.90625 54.539062 38.382812 54.453125 37.859375 C 53.683594 32.582031 51.808594 27.40625 48.5 23.238281 C 44.863281 18.660156 39.347656 15.40625 33.503906 15.238281 C 37.246094 16.867188 40.296875 19.867188 42.441406 23.332031 C 44.597656 26.808594 45.898438 30.746094 46.773438 34.734375 C 47.648438 38.734375 48.105469 42.808594 48.148438 46.894531 C 48.171875 47.972656 48.148438 49.050781 48.097656 50.117188 C 48.074219 50.851562 48.03125 51.589844 47.96875 52.3125 C 47.863281 53.679688 47.839844 55.203125 47.425781 56.507812 C 47.339844 56.761719 47.222656 56.996094 47.09375 57.230469 C 46.835938 57.691406 46.539062 58.128906 46.378906 58.617188 C 45.824219 60.3125 46.792969 62.53125 48.609375 63.003906 C 48.671875 63.011719 48.734375 63.035156 48.8125 63.046875 C 48.980469 63.078125 49.164062 63.085938 49.332031 63.085938 C 49.183594 63.953125 49.109375 64.835938 49.128906 65.722656 C 49.140625 66.800781 49.28125 67.867188 49.546875 68.902344 C 49.855469 70.136719 50.347656 71.332031 51.007812 72.421875 C 52.726562 69.210938 54.742188 66.160156 57.023438 63.324219 C 60.054688 59.558594 63.574219 56.195312 67.53125 53.421875 C 69.152344 52.28125 70.859375 51.246094 72.617188 50.332031 C 72.734375 50.265625 72.863281 50.203125 72.980469 50.128906 C 75.945312 48.625 79.0625 47.429688 82.273438 46.617188 C 85.207031 45.859375 88.222656 45.421875 91.253906 45.359375 C 88.054688 45.027344 84.8125 45.039062 81.609375 45.390625 Z M 81.609375 45.390625 " fill-opacity="1" fill-rule="nonzero"/></g><g clip-path="url(#9c6607b120)"><path fill="#be185d" d="M 82.316406 74.84375 C 79.488281 71.984375 75.796875 69.9375 71.820312 69.371094 C 73.886719 66.609375 75.871094 63.769531 78.433594 61.464844 C 75.347656 61.273438 72.246094 61.53125 69.246094 62.222656 C 65.503906 63.078125 61.910156 64.589844 58.699219 66.703125 C 58.046875 67.128906 57.429688 67.589844 56.8125 68.058594 C 57.589844 66.414062 58.476562 64.828125 59.457031 63.300781 C 61.195312 60.613281 63.273438 58.171875 65.738281 56.132812 C 68.351562 53.988281 71.316406 52.378906 74.453125 51.128906 C 76.074219 52.347656 77.449219 53.851562 78.6875 55.449219 C 81.246094 58.746094 83.339844 62.40625 84.875 66.277344 C 85.726562 68.453125 86.484375 70.789062 88.246094 72.324219 C 88.042969 65.242188 86.71875 58.191406 84.351562 51.515625 C 84 50.523438 83.617188 49.53125 83.1875 48.550781 C 84.097656 48.355469 85.011719 48.1875 85.921875 48.035156 C 84.960938 48.070312 84.011719 48.132812 83.050781 48.21875 C 82.804688 47.675781 82.550781 47.140625 82.273438 46.617188 C 82.070312 46.203125 81.84375 45.796875 81.609375 45.390625 C 80.382812 43.257812 78.847656 41.339844 76.863281 39.875 C 76.597656 39.683594 76.332031 39.492188 76.054688 39.320312 C 75.039062 38.683594 73.941406 38.179688 72.789062 37.816406 C 68.992188 36.613281 64.691406 36.953125 61.214844 38.9375 C 60.660156 39.257812 60.140625 39.621094 59.625 40.003906 C 59.703125 39.769531 59.765625 39.535156 59.828125 39.300781 C 63.636719 26.980469 70.507812 15.3125 80.84375 7.597656 C 70.230469 14.371094 61.472656 24.003906 55.734375 35.203125 C 55.285156 36.078125 54.859375 36.964844 54.453125 37.859375 C 52.566406 41.976562 51.070312 46.265625 49.996094 50.648438 C 49.71875 51.738281 49.484375 52.835938 49.257812 53.9375 C 48.9375 52.644531 48.554688 51.363281 48.097656 50.117188 C 46.835938 46.542969 45.078125 43.152344 42.878906 40.035156 L 42.878906 40.027344 C 40.585938 36.773438 37.824219 33.839844 34.675781 31.363281 C 27.09375 25.390625 17.367188 22.214844 7.710938 22.53125 C 16.535156 22.925781 24.90625 27.40625 30.933594 33.859375 C 32.140625 35.152344 33.246094 36.515625 34.273438 37.9375 C 35.199219 39.214844 36.054688 40.550781 36.832031 41.914062 C 38.613281 44.996094 40.0625 48.28125 41.207031 51.675781 C 38.976562 48.847656 36.320312 46.351562 33.269531 44.410156 C 31.863281 43.523438 30.398438 42.746094 28.894531 42.0625 C 28.332031 41.796875 27.753906 41.539062 27.179688 41.304688 C 24.863281 40.335938 22.476562 39.515625 20.105469 38.703125 C 20.140625 41.0625 20.609375 43.386719 21.417969 45.59375 C 21.472656 45.722656 21.523438 45.859375 21.578125 46 C 22.207031 47.597656 23.019531 49.125 23.988281 50.542969 C 25.503906 52.773438 27.414062 54.726562 29.621094 56.28125 C 29.246094 56.347656 28.886719 56.410156 28.535156 56.496094 C 25.824219 57.125 23.316406 58.394531 21.121094 60.089844 C 21.046875 60.144531 20.96875 60.195312 20.90625 60.261719 C 19.339844 61.488281 17.929688 62.9375 16.714844 64.527344 C 14.625 64.582031 12.535156 64.933594 10.539062 65.574219 C 8.449219 66.234375 6.464844 67.214844 4.671875 68.472656 C 6.175781 68.1875 7.691406 68.027344 9.214844 68.015625 C 10.773438 67.996094 12.332031 68.121094 13.867188 68.378906 C 13.984375 68.398438 14.113281 68.421875 14.230469 68.441406 C 14.21875 68.472656 14.199219 68.496094 14.1875 68.527344 C 11.265625 74.265625 10.347656 80.847656 10.398438 87.289062 C 11.273438 83.140625 12.160156 78.949219 13.941406 75.097656 C 14.910156 73.007812 16.179688 71.011719 17.738281 69.328125 C 20.375 70.179688 22.871094 71.441406 25.097656 73.082031 C 25.472656 73.347656 25.835938 73.636719 26.1875 73.925781 C 27.777344 75.226562 29.207031 76.71875 30.582031 78.265625 C 31.488281 79.28125 32.375 80.3125 33.269531 81.339844 C 35.007812 83.3125 36.832031 85.253906 38.910156 86.851562 L 52.691406 86.851562 C 53.300781 85.550781 54.058594 84.3125 54.933594 83.171875 C 59.15625 81.316406 63.070312 78.726562 66.433594 75.558594 C 66.773438 75.480469 67.113281 75.40625 67.464844 75.34375 C 67.691406 75.300781 67.925781 75.257812 68.148438 75.226562 C 76.179688 74.117188 84.691406 78.449219 88.535156 85.605469 C 87.273438 81.617188 85.246094 77.816406 82.316406 74.84375 Z M 73.078125 50.179688 C 72.929688 50.222656 72.769531 50.277344 72.617188 50.332031 C 68.414062 51.664062 64.414062 53.582031 60.8125 56.113281 C 59.585938 56.964844 58.398438 57.894531 57.269531 58.894531 C 56.757812 59.355469 56.265625 59.824219 55.777344 60.304688 C 55.894531 59.183594 56.019531 58.074219 56.160156 56.964844 C 56.332031 56.667969 56.511719 56.378906 56.703125 56.089844 C 57.800781 54.371094 59.113281 52.816406 60.703125 51.503906 C 62.25 50.234375 64.085938 49.222656 66.039062 48.828125 C 66.507812 48.730469 66.988281 48.675781 67.464844 48.65625 C 67.882812 48.632812 68.308594 48.65625 68.726562 48.699219 C 70.21875 48.859375 71.667969 49.382812 72.980469 50.128906 C 73.011719 50.148438 73.046875 50.160156 73.078125 50.179688 Z M 23.328125 65.382812 C 25.207031 64.65625 27.273438 64.367188 29.246094 64.601562 C 31.105469 64.804688 32.875 65.464844 34.347656 66.628906 C 35.863281 67.824219 36.9375 69.433594 37.726562 71.203125 C 38.304688 72.484375 38.730469 73.851562 39.0625 75.214844 C 39.414062 76.675781 39.636719 78.117188 39.777344 79.558594 C 39.59375 79.332031 39.414062 79.109375 39.230469 78.875 C 38.753906 78.253906 38.273438 77.636719 37.792969 77.007812 C 35.882812 74.492188 33.953125 71.960938 31.585938 69.902344 C 31.433594 69.753906 31.285156 69.625 31.125 69.5 C 28.84375 67.621094 26.164062 66.214844 23.328125 65.382812 Z M 23.328125 65.382812 " fill-opacity="1" fill-rule="nonzero"/></g><path fill="#ec4899" d="M 96 29.371094 C 88.8125 31.417969 82.015625 34.832031 76.054688 39.320312 C 73.023438 41.59375 70.207031 44.152344 67.648438 46.960938 C 67.09375 47.566406 66.550781 48.1875 66.039062 48.828125 C 65.503906 49.445312 64.992188 50.085938 64.5 50.734375 C 63.167969 52.453125 61.941406 54.253906 60.8125 56.113281 C 59.382812 58.425781 58.121094 60.835938 57.023438 63.320312 C 56.363281 64.804688 55.753906 66.320312 55.230469 67.855469 C 54.558594 69.742188 53.984375 71.675781 53.515625 73.625 C 53.246094 74.691406 53.023438 75.769531 52.820312 76.847656 C 52.820312 76.859375 52.820312 76.867188 52.8125 76.878906 C 53.460938 76.113281 54.132812 75.355469 54.835938 74.640625 C 55.222656 74.246094 55.617188 73.859375 56.019531 73.5 C 58.207031 71.523438 60.726562 69.871094 63.457031 68.804688 C 65.355469 68.035156 67.359375 67.566406 69.417969 67.480469 C 64.339844 68.804688 60 72.3125 56.960938 76.589844 C 56.949219 76.601562 56.9375 76.601562 56.9375 76.613281 C 54.730469 79.726562 53.152344 83.226562 51.945312 86.851562 L 41.644531 86.851562 C 41.578125 86.617188 41.503906 86.394531 41.441406 86.160156 C 41.089844 85.027344 40.703125 83.910156 40.296875 82.800781 C 40.105469 82.289062 39.914062 81.785156 39.710938 81.285156 C 39.125 79.835938 38.484375 78.40625 37.792969 77.007812 C 36.769531 74.917969 35.617188 72.890625 34.355469 70.9375 L 33.71875 69.945312 C 32.40625 68.015625 30.953125 66.179688 29.246094 64.601562 C 28.960938 64.324219 28.660156 64.070312 28.351562 63.8125 C 26.527344 62.296875 24.382812 61.09375 22.101562 60.515625 C 21.707031 60.398438 21.3125 60.324219 20.90625 60.261719 C 20.574219 60.195312 20.246094 60.164062 19.914062 60.132812 C 20.320312 60.101562 20.714844 60.089844 21.121094 60.089844 C 21.652344 60.089844 22.199219 60.101562 22.730469 60.132812 L 22.742188 60.132812 C 27.660156 60.429688 32.46875 62.265625 36.457031 65.199219 C 36.011719 63.953125 35.660156 62.671875 35.402344 61.371094 C 35.070312 59.769531 34.890625 58.148438 34.847656 56.527344 C 34.792969 54.640625 34.945312 52.742188 35.296875 50.886719 C 40.9375 54.925781 45.300781 60.71875 47.648438 67.257812 C 48.394531 69.347656 48.929688 71.523438 49.257812 73.734375 C 49.40625 73.082031 49.566406 72.441406 49.726562 71.792969 C 49.695312 70.832031 49.644531 69.859375 49.546875 68.902344 C 49.535156 68.730469 49.523438 68.570312 49.503906 68.398438 C 49.40625 67.503906 49.28125 66.609375 49.128906 65.722656 C 48.980469 64.804688 48.800781 63.898438 48.609375 63.003906 C 48.179688 61.0625 47.667969 59.128906 47.09375 57.230469 C 46.761719 56.132812 46.410156 55.042969 46.046875 53.96875 C 45.269531 51.664062 44.425781 49.359375 43.148438 47.300781 C 41.867188 45.230469 40.128906 43.386719 37.929688 42.351562 C 37.566406 42.179688 37.207031 42.03125 36.832031 41.914062 C 34.304688 41.070312 31.488281 41.253906 28.894531 42.0625 C 28.4375 42.203125 27.980469 42.363281 27.53125 42.542969 C 25.398438 43.40625 23.445312 44.644531 21.578125 46 C 20.554688 46.746094 19.550781 47.535156 18.558594 48.3125 C 19.476562 47.363281 20.425781 46.457031 21.417969 45.59375 C 23.222656 44.003906 25.152344 42.574219 27.179688 41.304688 C 28.03125 40.773438 28.90625 40.261719 29.800781 39.78125 C 31.222656 39.023438 32.726562 38.332031 34.273438 37.9375 C 35.542969 37.617188 36.832031 37.5 38.132812 37.699219 C 39.925781 37.988281 41.503906 38.851562 42.878906 40.027344 L 42.878906 40.035156 C 44.222656 41.15625 45.375 42.574219 46.367188 44.027344 C 47.007812 44.953125 47.59375 45.914062 48.148438 46.894531 C 48.832031 48.113281 49.449219 49.371094 49.996094 50.648438 C 51.585938 54.351562 52.597656 58.289062 52.980469 62.289062 C 53.546875 60.976562 54.15625 59.664062 54.816406 58.382812 C 55.019531 57.988281 55.222656 57.605469 55.433594 57.222656 L 55.433594 57.210938 C 56.917969 54.492188 58.59375 51.886719 60.480469 49.433594 C 63.925781 44.953125 68.105469 41.007812 72.789062 37.816406 C 79.691406 33.105469 87.679688 30.042969 96 29.371094 Z M 96 29.371094 " fill-opacity="1" fill-rule="nonzero"/><g clip-path="url(#60eb99bc3d)"><g clip-path="url(#77bc328b42)"><g clip-path="url(#780d678bd6)"><path fill="#be185d" d="M 49.566406 43.078125 C 49.316406 42.253906 48.925781 41.472656 48.402344 40.789062 C 49.136719 43.746094 48.789062 46.839844 48.304688 49.871094 C 48.246094 50.273438 48.171875 50.671875 48.109375 51.078125 C 48.160156 50.773438 48.453125 50.402344 48.578125 50.113281 C 48.722656 49.769531 48.847656 49.421875 48.953125 49.066406 C 49.136719 48.425781 49.265625 47.851562 49.558594 47.257812 C 49.664062 47.027344 49.753906 46.785156 49.808594 46.53125 C 50.074219 45.414062 49.886719 44.105469 49.566406 43.078125 Z M 30.835938 61.402344 C 30.0625 62.765625 29.71875 64.371094 29.871094 65.9375 C 29.898438 66.203125 29.933594 66.46875 29.988281 66.734375 C 30.117188 67.359375 30.324219 67.972656 30.597656 68.546875 C 30.75 68.863281 31.480469 70.507812 31.738281 69.746094 C 31.773438 69.640625 31.78125 69.523438 31.773438 69.398438 C 31.746094 68.75 31.234375 67.878906 31.097656 67.359375 C 30.847656 66.449219 30.699219 65.519531 30.652344 64.574219 C 30.589844 63.515625 30.648438 62.449219 30.835938 61.402344 Z M 6.644531 62.875 L 6.644531 62.867188 C 6.527344 62.71875 6.320312 62.585938 6.226562 62.503906 C 5.226562 61.558594 4.273438 60.484375 3.878906 59.144531 C 3.773438 60.085938 4.035156 61.070312 4.597656 61.839844 C 4.753906 62.0625 4.929688 62.253906 5.128906 62.433594 C 5.371094 62.65625 5.648438 62.847656 5.941406 63.003906 C 6.023438 63.042969 6.179688 63.140625 6.335938 63.199219 C 6.480469 63.253906 6.617188 63.269531 6.6875 63.171875 C 6.761719 63.082031 6.730469 62.972656 6.644531 62.875 Z M 14.011719 65.867188 C 12.996094 65.117188 11.753906 64.726562 10.488281 64.671875 C 10.488281 64.671875 10.488281 64.664062 10.480469 64.664062 C 9.929688 64.636719 9.371094 64.671875 8.828125 64.765625 C 7.039062 65.074219 5.394531 65.984375 4.015625 67.160156 C 7.011719 65.574219 10.617188 65.175781 13.902344 66.046875 C 14.199219 66.125 14.496094 66.214844 14.789062 66.3125 Z M 26.71875 62.96875 C 26.457031 62.613281 26.164062 62.277344 25.84375 61.972656 C 25.386719 61.542969 25.003906 61.054688 24.554688 60.625 C 24.257812 60.328125 23.871094 60.101562 23.453125 59.945312 C 22.425781 59.527344 21.152344 59.472656 20.175781 59.574219 C 19.257812 59.675781 18.359375 59.949219 17.558594 60.40625 C 18.863281 60.085938 20.261719 60.296875 21.527344 60.757812 C 22.800781 61.226562 23.957031 61.9375 25.113281 62.648438 C 25.664062 62.984375 26.234375 63.335938 26.792969 63.679688 C 26.976562 63.789062 27.164062 63.90625 27.355469 64.023438 C 27.128906 63.886719 26.886719 63.199219 26.71875 62.96875 Z M 30.492188 44.03125 C 30.164062 43.082031 29.902344 42.046875 29.40625 41.148438 C 29.257812 40.863281 29.074219 40.589844 28.867188 40.335938 C 28.460938 39.84375 27.941406 39.445312 27.359375 39.171875 C 27.070312 39.042969 26.765625 38.941406 26.457031 38.875 C 26.265625 38.839844 25.839844 38.882812 25.621094 38.832031 C 27.757812 39.726562 29.433594 41.660156 30.015625 43.902344 C 30.039062 44 30.0625 44.105469 30.117188 44.1875 C 30.117188 44.1875 30.125 44.1875 30.121094 44.195312 C 30.140625 44.21875 30.160156 44.242188 30.1875 44.257812 C 30.289062 44.34375 30.488281 44.320312 30.515625 44.1875 C 30.527344 44.132812 30.503906 44.082031 30.492188 44.03125 Z M 32.179688 46.160156 C 31.941406 47.1875 31.953125 48.171875 31.980469 49.171875 C 31.996094 49.734375 32.015625 50.3125 31.996094 50.898438 C 31.972656 51.425781 31.941406 51.898438 32.085938 52.414062 C 32.199219 52.804688 32.351562 53.191406 32.527344 53.554688 C 32.667969 53.863281 33.078125 54.320312 33.128906 54.652344 C 33.046875 54.121094 32.976562 53.585938 32.929688 53.042969 C 32.570312 49.113281 33.199219 45.09375 34.75 41.460938 C 33.457031 42.734375 32.589844 44.398438 32.179688 46.160156 Z M 49.046875 61.382812 C 48.636719 61.84375 48.269531 62.34375 47.941406 62.878906 L 47.351562 63.546875 C 47.308594 63.859375 47.046875 64.09375 46.882812 64.359375 C 46.71875 64.632812 46.695312 65.058594 46.984375 65.1875 C 47 65.191406 47.007812 65.195312 47.023438 65.199219 C 47.296875 65.285156 47.570312 65.019531 47.742188 64.78125 C 49.710938 62.125 51.871094 59.519531 54.691406 57.78125 C 52.515625 58.398438 50.523438 59.671875 49.046875 61.382812 Z M 47.132812 56.160156 C 46.769531 56.519531 46.4375 56.917969 46.15625 57.34375 C 45.746094 57.933594 45.414062 58.589844 45.171875 59.269531 C 44.984375 59.796875 43.8125 61.953125 44.421875 62.34375 C 44.5 62.390625 44.585938 62.390625 44.671875 62.347656 C 44.726562 62.328125 44.773438 62.304688 44.808594 62.265625 C 44.910156 62.167969 44.957031 62.03125 45.007812 61.902344 C 46.222656 58.644531 48.492188 55.800781 51.398438 53.882812 C 49.789062 54.195312 48.28125 55.003906 47.132812 56.160156 Z M 47.132812 56.160156 " fill-opacity="1" fill-rule="nonzero"/></g></g></g><g clip-path="url(#9e6df61142)"><g clip-path="url(#851101c1c1)"><g clip-path="url(#e2cfc94018)"><path fill="#ec4899" d="M 56.625 36.125 C 56.328125 36.265625 56.035156 36.402344 55.742188 36.542969 C 55.601562 36.609375 55.464844 36.679688 55.324219 36.746094 C 55.367188 36.671875 55.410156 36.59375 55.453125 36.519531 C 55.621094 36.449219 55.785156 36.371094 55.945312 36.285156 C 56.152344 36.175781 56.351562 36.054688 56.546875 35.929688 C 56.609375 35.890625 56.574219 35.773438 56.5 35.804688 C 56.28125 35.886719 56.066406 35.96875 55.855469 36.066406 C 55.804688 36.089844 55.753906 36.117188 55.703125 36.140625 C 55.75 36.082031 55.796875 36.027344 55.84375 35.972656 C 55.972656 35.832031 56.089844 35.671875 56.253906 35.566406 C 56.324219 35.519531 56.265625 35.410156 56.1875 35.449219 C 56.011719 35.542969 55.847656 35.683594 55.714844 35.828125 C 55.699219 35.84375 55.683594 35.859375 55.667969 35.878906 C 55.644531 35.878906 55.617188 35.886719 55.601562 35.914062 C 55.574219 35.957031 55.546875 36.003906 55.519531 36.046875 C 55.515625 36.054688 55.507812 36.058594 55.503906 36.066406 C 55.46875 36.105469 55.441406 36.152344 55.410156 36.195312 C 55.40625 36.199219 55.40625 36.203125 55.40625 36.207031 C 55.410156 36.121094 55.414062 36.035156 55.417969 35.949219 C 55.429688 35.699219 55.441406 35.449219 55.460938 35.199219 C 55.464844 35.109375 55.335938 35.109375 55.324219 35.195312 C 55.285156 35.441406 55.25 35.691406 55.207031 35.941406 C 55.1875 36.0625 55.167969 36.1875 55.148438 36.308594 C 55.128906 36.429688 55.097656 36.558594 55.132812 36.675781 C 55.078125 36.765625 55.023438 36.855469 54.96875 36.945312 C 54.972656 36.824219 54.96875 36.703125 54.96875 36.582031 C 54.96875 36.257812 54.964844 35.9375 54.960938 35.617188 C 54.960938 35.546875 54.855469 35.542969 54.847656 35.613281 C 54.816406 35.933594 54.789062 36.253906 54.761719 36.574219 C 54.746094 36.726562 54.730469 36.878906 54.722656 37.035156 C 54.71875 37.117188 54.714844 37.199219 54.710938 37.285156 C 54.707031 37.316406 54.707031 37.34375 54.707031 37.375 C 54.613281 37.53125 54.515625 37.683594 54.425781 37.839844 C 54.425781 37.824219 54.425781 37.808594 54.425781 37.796875 C 54.429688 37.613281 54.4375 37.425781 54.441406 37.242188 C 54.453125 36.871094 54.453125 36.5 54.4375 36.128906 C 54.433594 36.066406 54.347656 36.0625 54.339844 36.125 C 54.292969 36.492188 54.257812 36.863281 54.238281 37.234375 C 54.226562 37.421875 54.21875 37.605469 54.207031 37.789062 C 54.203125 37.894531 54.175781 38.066406 54.214844 38.183594 C 54.105469 38.367188 54.003906 38.550781 53.898438 38.730469 C 53.894531 38.664062 53.894531 38.601562 53.894531 38.550781 C 53.898438 38.363281 53.902344 38.179688 53.902344 37.996094 C 53.898438 37.617188 53.890625 37.242188 53.886719 36.863281 C 53.882812 36.78125 53.761719 36.777344 53.757812 36.859375 C 53.734375 37.234375 53.710938 37.613281 53.691406 37.988281 C 53.679688 38.171875 53.679688 38.355469 53.671875 38.542969 C 53.667969 38.679688 53.625 38.914062 53.726562 39.03125 C 53.636719 39.179688 53.550781 39.332031 53.464844 39.480469 C 53.460938 39.417969 53.460938 39.355469 53.457031 39.300781 C 53.457031 39.085938 53.445312 38.871094 53.4375 38.652344 C 53.421875 38.230469 53.429688 37.792969 53.363281 37.371094 C 53.359375 37.335938 53.3125 37.347656 53.304688 37.378906 C 53.242188 37.808594 53.253906 38.257812 53.238281 38.695312 C 53.234375 38.910156 53.226562 39.125 53.226562 39.339844 C 53.226562 39.496094 53.203125 39.679688 53.265625 39.828125 C 53.207031 39.933594 53.144531 40.039062 53.085938 40.144531 C 53.042969 40.167969 53.003906 40.1875 52.964844 40.207031 C 52.964844 40.203125 52.964844 40.195312 52.964844 40.1875 C 52.957031 39.976562 52.949219 39.761719 52.941406 39.546875 C 52.925781 39.101562 52.898438 38.65625 52.855469 38.214844 C 52.851562 38.15625 52.769531 38.152344 52.765625 38.210938 C 52.75 38.652344 52.742188 39.097656 52.75 39.539062 C 52.753906 39.753906 52.753906 39.96875 52.757812 40.183594 C 52.761719 40.246094 52.761719 40.3125 52.765625 40.375 C 52.765625 40.378906 52.765625 40.378906 52.765625 40.382812 C 52.765625 40.429688 52.765625 40.480469 52.769531 40.527344 C 52.769531 40.578125 52.773438 40.628906 52.78125 40.679688 C 52.722656 40.78125 52.671875 40.886719 52.613281 40.992188 C 52.605469 40.914062 52.59375 40.839844 52.589844 40.761719 C 52.578125 40.550781 52.566406 40.339844 52.550781 40.128906 C 52.515625 39.703125 52.480469 39.273438 52.4375 38.847656 C 52.429688 38.773438 52.3125 38.789062 52.308594 38.859375 C 52.300781 39.320312 52.296875 39.78125 52.304688 40.242188 C 52.308594 40.46875 52.3125 40.691406 52.320312 40.914062 C 52.324219 41.0625 52.339844 41.222656 52.429688 41.335938 C 46.488281 52.234375 42.679688 64.128906 41.199219 76.523438 C 40.957031 78.585938 40.773438 80.65625 40.660156 82.726562 C 40.613281 83.546875 40.558594 84.375 40.527344 85.203125 C 40.332031 84.792969 40.121094 84.382812 39.90625 83.984375 C 39.757812 83.339844 39.601562 82.703125 39.460938 82.066406 C 39.074219 80.328125 38.6875 78.589844 38.300781 76.847656 C 37.527344 73.367188 36.757812 69.886719 35.984375 66.40625 C 34.433594 59.445312 32.867188 52.488281 31.066406 45.585938 C 30.457031 43.246094 29.828125 40.914062 29.183594 38.582031 C 29.191406 38.566406 29.199219 38.542969 29.207031 38.53125 C 29.335938 38.199219 29.457031 37.863281 29.558594 37.523438 C 29.675781 37.136719 29.773438 36.746094 29.84375 36.347656 C 29.855469 36.269531 29.75 36.234375 29.722656 36.3125 C 29.5 36.921875 29.289062 37.535156 29.058594 38.144531 C 29.023438 38.019531 28.988281 37.890625 28.953125 37.765625 C 29.007812 37.652344 29.039062 37.519531 29.074219 37.402344 C 29.121094 37.246094 29.167969 37.09375 29.207031 36.9375 C 29.285156 36.625 29.363281 36.3125 29.441406 36 C 29.464844 35.914062 29.34375 35.875 29.3125 35.957031 C 29.199219 36.261719 29.082031 36.5625 28.96875 36.863281 C 28.914062 37.007812 28.867188 37.15625 28.820312 37.300781 C 28.773438 37.140625 28.730469 36.980469 28.683594 36.820312 C 28.730469 36.738281 28.765625 36.648438 28.800781 36.558594 C 28.847656 36.425781 28.886719 36.289062 28.933594 36.152344 C 29.023438 35.878906 29.105469 35.601562 29.183594 35.324219 C 29.207031 35.253906 29.09375 35.195312 29.058594 35.269531 C 28.933594 35.53125 28.8125 35.789062 28.695312 36.054688 C 28.648438 36.160156 28.601562 36.265625 28.558594 36.371094 C 28.550781 36.347656 28.542969 36.324219 28.539062 36.304688 C 28.535156 36.265625 28.527344 36.226562 28.503906 36.1875 C 28.488281 36.128906 28.472656 36.070312 28.453125 36.011719 C 28.496094 35.9375 28.53125 35.863281 28.566406 35.789062 C 28.625 35.667969 28.675781 35.539062 28.730469 35.414062 C 28.832031 35.171875 28.917969 34.925781 29.003906 34.675781 C 29.027344 34.605469 28.925781 34.5625 28.886719 34.625 C 28.75 34.84375 28.613281 35.066406 28.492188 35.296875 C 28.441406 35.398438 28.386719 35.496094 28.339844 35.601562 C 28.316406 35.53125 28.296875 35.460938 28.277344 35.390625 C 28.328125 35.308594 28.355469 35.191406 28.371094 35.128906 C 28.410156 34.984375 28.445312 34.835938 28.480469 34.6875 C 28.5625 34.375 28.613281 34.054688 28.671875 33.738281 C 28.691406 33.644531 28.5625 33.601562 28.53125 33.695312 C 28.425781 33.996094 28.304688 34.300781 28.214844 34.609375 C 28.1875 34.699219 28.160156 34.789062 28.136719 34.882812 C 28.125 34.851562 28.117188 34.824219 28.109375 34.792969 C 28.109375 34.722656 28.089844 34.644531 28.082031 34.601562 C 28.070312 34.515625 28.054688 34.429688 28.039062 34.34375 C 28.050781 34.308594 28.066406 34.277344 28.078125 34.242188 C 28.109375 34.152344 28.144531 34.066406 28.175781 33.976562 C 28.203125 33.886719 28.234375 33.800781 28.257812 33.707031 C 28.28125 33.613281 28.304688 33.519531 28.328125 33.425781 C 28.34375 33.359375 28.25 33.3125 28.214844 33.375 C 28.171875 33.460938 28.125 33.542969 28.082031 33.628906 C 28.039062 33.710938 28 33.800781 27.964844 33.886719 C 27.929688 33.683594 27.894531 33.484375 27.867188 33.28125 C 27.859375 33.21875 27.773438 33.238281 27.765625 33.289062 C 27.738281 33.492188 27.734375 33.695312 27.738281 33.894531 C 27.726562 33.910156 27.722656 33.929688 27.726562 33.953125 C 27.734375 33.980469 27.742188 34.011719 27.746094 34.039062 C 27.75 34.085938 27.75 34.128906 27.753906 34.175781 C 27.761719 34.25 27.78125 34.320312 27.792969 34.390625 C 27.792969 34.402344 27.792969 34.417969 27.792969 34.429688 C 27.636719 34.207031 27.46875 33.988281 27.308594 33.769531 C 27.265625 33.714844 27.175781 33.78125 27.210938 33.839844 C 27.351562 34.078125 27.492188 34.324219 27.640625 34.5625 C 27.753906 34.742188 27.867188 34.929688 27.996094 35.105469 C 28.007812 35.15625 28.019531 35.210938 28.03125 35.261719 C 28.023438 35.328125 28.035156 35.386719 28.070312 35.425781 C 28.09375 35.519531 28.113281 35.609375 28.136719 35.703125 C 28.117188 35.679688 28.097656 35.652344 28.078125 35.628906 C 27.886719 35.386719 27.683594 35.15625 27.488281 34.917969 C 27.453125 34.871094 27.371094 34.929688 27.40625 34.980469 C 27.578125 35.234375 27.746094 35.488281 27.925781 35.742188 C 28.003906 35.855469 28.085938 35.96875 28.167969 36.082031 C 28.171875 36.113281 28.1875 36.140625 28.21875 36.160156 C 28.230469 36.175781 28.242188 36.1875 28.253906 36.203125 C 28.289062 36.355469 28.324219 36.503906 28.359375 36.652344 C 28.300781 36.589844 28.242188 36.527344 28.179688 36.460938 C 27.957031 36.222656 27.734375 35.984375 27.5 35.757812 C 27.4375 35.699219 27.355469 35.78125 27.40625 35.847656 C 27.601562 36.113281 27.8125 36.363281 28.019531 36.617188 C 28.117188 36.734375 28.214844 36.855469 28.316406 36.96875 C 28.347656 37.003906 28.40625 37.074219 28.46875 37.128906 C 28.511719 37.308594 28.554688 37.492188 28.597656 37.675781 C 28.578125 37.65625 28.554688 37.636719 28.535156 37.621094 C 28.433594 37.523438 28.328125 37.425781 28.222656 37.328125 C 28.007812 37.132812 27.796875 36.933594 27.582031 36.738281 C 27.523438 36.683594 27.433594 36.765625 27.488281 36.828125 C 27.6875 37.039062 27.886719 37.246094 28.085938 37.457031 C 28.183594 37.5625 28.28125 37.664062 28.378906 37.769531 C 28.472656 37.867188 28.566406 37.984375 28.683594 38.054688 C 28.714844 38.183594 28.746094 38.3125 28.773438 38.4375 C 28.683594 38.367188 28.589844 38.296875 28.5 38.21875 C 28.265625 38.027344 28.035156 37.820312 27.816406 37.613281 C 27.761719 37.5625 27.6875 37.632812 27.734375 37.691406 C 27.929688 37.933594 28.136719 38.160156 28.359375 38.375 C 28.464844 38.480469 28.574219 38.582031 28.6875 38.679688 C 28.746094 38.722656 28.804688 38.777344 28.867188 38.824219 C 31.753906 51.074219 34.574219 63.335938 37.304688 75.621094 C 37.742188 77.59375 38.179688 79.566406 38.617188 81.535156 C 38.625 81.5625 38.628906 81.589844 38.632812 81.617188 C 38.152344 80.714844 37.671875 79.8125 37.1875 78.910156 C 35.792969 76.304688 34.394531 73.703125 32.875 71.167969 C 30.003906 66.386719 26.65625 61.9375 22.5 58.199219 C 21.367188 57.179688 20.183594 56.21875 18.960938 55.304688 C 18.964844 55.300781 18.96875 55.296875 18.972656 55.292969 C 19.003906 55.160156 19.011719 55.03125 19.019531 54.898438 C 19.023438 54.765625 19.027344 54.632812 19.015625 54.503906 C 18.996094 54.242188 18.957031 53.980469 18.898438 53.722656 C 18.875 53.621094 18.730469 53.664062 18.742188 53.761719 C 18.773438 54.007812 18.78125 54.257812 18.773438 54.507812 C 18.769531 54.628906 18.769531 54.75 18.761719 54.875 C 18.753906 54.964844 18.746094 55.054688 18.742188 55.148438 C 18.628906 55.0625 18.511719 54.984375 18.398438 54.902344 C 18.464844 54.773438 18.464844 54.613281 18.476562 54.472656 C 18.484375 54.335938 18.480469 54.195312 18.472656 54.058594 C 18.453125 53.777344 18.402344 53.503906 18.328125 53.234375 C 18.300781 53.136719 18.171875 53.171875 18.179688 53.269531 C 18.210938 53.53125 18.214844 53.800781 18.203125 54.0625 C 18.199219 54.195312 18.1875 54.328125 18.175781 54.460938 C 18.167969 54.546875 18.152344 54.632812 18.148438 54.71875 C 18.03125 54.636719 17.917969 54.554688 17.800781 54.472656 C 17.808594 54.457031 17.820312 54.449219 17.820312 54.433594 C 17.828125 54.304688 17.8125 54.175781 17.800781 54.050781 C 17.792969 53.929688 17.78125 53.808594 17.769531 53.683594 C 17.746094 53.4375 17.714844 53.191406 17.683594 52.945312 C 17.671875 52.867188 17.542969 52.882812 17.542969 52.960938 C 17.535156 53.210938 17.523438 53.457031 17.523438 53.707031 C 17.523438 53.894531 17.523438 54.089844 17.535156 54.277344 C 17.433594 54.207031 17.332031 54.128906 17.230469 54.058594 C 17.238281 53.96875 17.230469 53.871094 17.222656 53.785156 C 17.207031 53.671875 17.195312 53.558594 17.183594 53.449219 C 17.15625 53.226562 17.105469 53.003906 17.074219 52.78125 C 17.058594 52.695312 16.921875 52.710938 16.925781 52.796875 C 16.929688 53.019531 16.921875 53.246094 16.933594 53.472656 C 16.941406 53.585938 16.949219 53.699219 16.957031 53.8125 C 16.957031 53.832031 16.960938 53.855469 16.960938 53.875 C 16.835938 53.789062 16.707031 53.703125 16.578125 53.617188 C 16.59375 53.46875 16.585938 53.316406 16.582031 53.167969 C 16.578125 52.984375 16.558594 52.796875 16.542969 52.613281 C 16.535156 52.507812 16.378906 52.496094 16.375 52.609375 C 16.363281 52.792969 16.347656 52.976562 16.347656 53.160156 C 16.347656 53.257812 16.34375 53.359375 16.347656 53.464844 C 16.277344 53.414062 16.207031 53.367188 16.136719 53.320312 C 16.140625 53.253906 16.128906 53.183594 16.125 53.117188 C 16.121094 53.046875 16.117188 52.972656 16.113281 52.902344 C 16.097656 52.761719 16.082031 52.617188 16.070312 52.476562 C 16.066406 52.429688 16.035156 52.390625 15.988281 52.386719 C 15.941406 52.386719 15.898438 52.421875 15.898438 52.46875 C 15.898438 52.613281 15.898438 52.757812 15.894531 52.902344 C 15.894531 52.976562 15.898438 53.046875 15.902344 53.117188 C 15.902344 53.132812 15.902344 53.148438 15.902344 53.164062 C 15.820312 53.109375 15.742188 53.054688 15.65625 53 C 15.660156 52.96875 15.660156 52.941406 15.660156 52.914062 C 15.660156 52.835938 15.65625 52.757812 15.652344 52.679688 C 15.644531 52.527344 15.636719 52.375 15.628906 52.222656 C 15.621094 52.125 15.476562 52.117188 15.472656 52.21875 C 15.46875 52.371094 15.464844 52.519531 15.457031 52.671875 C 15.457031 52.734375 15.453125 52.800781 15.453125 52.863281 C 15.429688 52.847656 15.402344 52.828125 15.378906 52.8125 C 15.332031 52.753906 15.285156 52.695312 15.238281 52.636719 C 15.113281 52.492188 14.988281 52.351562 14.863281 52.210938 C 14.820312 52.164062 14.738281 52.222656 14.773438 52.273438 C 14.882812 52.425781 14.992188 52.582031 15.101562 52.738281 C 15.125 52.773438 15.15625 52.808594 15.179688 52.84375 C 15.183594 52.863281 15.195312 52.882812 15.214844 52.898438 C 15.222656 52.902344 15.230469 52.910156 15.234375 52.914062 C 15.246094 52.929688 15.257812 52.941406 15.269531 52.957031 C 15.316406 53.015625 15.363281 53.070312 15.421875 53.117188 C 15.402344 53.113281 15.382812 53.109375 15.363281 53.105469 C 15.085938 53.039062 14.804688 52.996094 14.523438 52.945312 C 14.460938 52.933594 14.429688 53.019531 14.492188 53.039062 C 14.761719 53.132812 15.027344 53.234375 15.300781 53.3125 C 15.4375 53.351562 15.574219 53.390625 15.710938 53.429688 C 15.804688 53.453125 15.921875 53.492188 16.023438 53.476562 C 16.125 53.546875 16.222656 53.617188 16.320312 53.691406 C 16.316406 53.691406 16.3125 53.6875 16.308594 53.6875 C 16.136719 53.660156 15.964844 53.636719 15.792969 53.609375 C 15.449219 53.558594 15.101562 53.535156 14.757812 53.496094 C 14.667969 53.484375 14.644531 53.632812 14.730469 53.652344 C 15.070312 53.734375 15.402344 53.832031 15.746094 53.898438 C 15.917969 53.933594 16.085938 53.96875 16.257812 54.003906 C 16.429688 54.035156 16.601562 54.066406 16.773438 54.039062 C 16.785156 54.039062 16.789062 54.03125 16.796875 54.03125 C 16.886719 54.097656 16.976562 54.171875 17.070312 54.238281 C 16.898438 54.214844 16.722656 54.203125 16.550781 54.191406 C 16.175781 54.167969 15.804688 54.175781 15.429688 54.199219 C 15.328125 54.207031 15.320312 54.355469 15.425781 54.359375 C 15.792969 54.386719 16.15625 54.425781 16.523438 54.46875 C 16.699219 54.488281 16.875 54.515625 17.050781 54.539062 C 17.183594 54.554688 17.34375 54.59375 17.480469 54.5625 C 17.621094 54.671875 17.765625 54.78125 17.90625 54.890625 C 17.855469 54.890625 17.804688 54.890625 17.757812 54.890625 C 17.566406 54.882812 17.375 54.882812 17.179688 54.878906 C 16.800781 54.871094 16.421875 54.871094 16.042969 54.871094 C 15.960938 54.871094 15.957031 54.988281 16.039062 55 C 16.410156 55.046875 16.78125 55.089844 17.152344 55.125 C 17.339844 55.144531 17.523438 55.164062 17.710938 55.183594 C 17.851562 55.195312 18.105469 55.25 18.214844 55.132812 C 18.316406 55.214844 18.417969 55.292969 18.515625 55.371094 C 18.316406 55.378906 18.117188 55.382812 17.921875 55.394531 C 17.507812 55.421875 17.097656 55.464844 16.6875 55.492188 C 16.589844 55.496094 16.578125 55.640625 16.679688 55.648438 C 17.089844 55.675781 17.5 55.71875 17.910156 55.742188 C 18.109375 55.757812 18.3125 55.761719 18.511719 55.769531 C 18.640625 55.769531 18.820312 55.789062 18.957031 55.746094 C 21.863281 58.171875 24.519531 60.90625 26.914062 63.824219 C 30.601562 68.3125 33.429688 73.402344 36.164062 78.5 C 36.921875 79.914062 37.679688 81.328125 38.433594 82.746094 C 38.675781 83.195312 38.910156 83.652344 39.152344 84.105469 C 39.214844 84.410156 39.285156 84.707031 39.359375 85.007812 C 33.058594 74.792969 21.671875 68.023438 10.609375 64.144531 C 8.539062 63.417969 6.445312 62.789062 4.335938 62.207031 C 4.328125 62.195312 4.316406 62.1875 4.304688 62.179688 C 4.265625 62.039062 4.152344 61.910156 4.066406 61.796875 C 3.953125 61.640625 3.835938 61.484375 3.71875 61.328125 C 3.476562 61.003906 3.246094 60.667969 3.011719 60.335938 C 2.964844 60.265625 2.851562 60.324219 2.894531 60.402344 C 3.101562 60.753906 3.308594 61.101562 3.503906 61.460938 C 3.601562 61.636719 3.695312 61.816406 3.796875 61.996094 C 3.8125 62.023438 3.828125 62.050781 3.847656 62.078125 C 3.808594 62.066406 3.769531 62.058594 3.730469 62.046875 C 3.671875 61.921875 3.570312 61.800781 3.496094 61.703125 C 3.375 61.539062 3.253906 61.375 3.132812 61.210938 C 2.875 60.878906 2.621094 60.542969 2.367188 60.207031 C 2.3125 60.136719 2.195312 60.222656 2.242188 60.300781 C 2.457031 60.65625 2.671875 61.011719 2.882812 61.367188 C 2.988281 61.542969 3.097656 61.714844 3.203125 61.890625 C 3.207031 61.898438 3.210938 61.902344 3.214844 61.910156 C 3.121094 61.886719 3.027344 61.859375 2.933594 61.835938 C 2.875 61.71875 2.785156 61.609375 2.714844 61.515625 C 2.605469 61.367188 2.488281 61.222656 2.367188 61.082031 C 2.121094 60.796875 1.839844 60.535156 1.550781 60.289062 C 1.492188 60.234375 1.402344 60.3125 1.460938 60.375 C 1.707031 60.652344 1.929688 60.941406 2.148438 61.242188 C 2.253906 61.386719 2.355469 61.539062 2.449219 61.691406 C 2.453125 61.695312 2.460938 61.703125 2.464844 61.710938 C 2.292969 61.664062 2.121094 61.617188 1.949219 61.574219 C 1.90625 61.476562 1.84375 61.382812 1.785156 61.300781 C 1.699219 61.175781 1.613281 61.054688 1.515625 60.933594 C 1.328125 60.699219 1.125 60.492188 0.902344 60.292969 C 0.851562 60.25 0.785156 60.3125 0.828125 60.367188 C 1.003906 60.59375 1.171875 60.828125 1.332031 61.070312 C 1.410156 61.1875 1.488281 61.304688 1.558594 61.425781 C 1.570312 61.441406 1.578125 61.460938 1.589844 61.480469 C 1.492188 61.453125 1.398438 61.433594 1.300781 61.40625 C 1.265625 61.324219 1.191406 61.242188 1.152344 61.195312 C 1.054688 61.085938 0.957031 60.980469 0.859375 60.875 C 0.648438 60.644531 0.417969 60.4375 0.195312 60.21875 C 0.132812 60.15625 0.046875 60.246094 0.0976562 60.3125 C 0.285156 60.566406 0.457031 60.824219 0.65625 61.0625 C 0.722656 61.140625 0.789062 61.21875 0.851562 61.296875 C 0.726562 61.265625 0.597656 61.234375 0.472656 61.203125 C 0.480469 61.1875 0.496094 61.175781 0.488281 61.15625 C 0.460938 61.054688 0.390625 60.980469 0.328125 60.898438 C 0.265625 60.816406 0.199219 60.738281 0.132812 60.65625 C 0 60.5 -0.136719 60.351562 -0.277344 60.203125 C -0.328125 60.148438 -0.425781 60.214844 -0.382812 60.28125 C -0.269531 60.453125 -0.15625 60.621094 -0.03125 60.785156 C 0.0273438 60.863281 0.0859375 60.945312 0.148438 61.023438 C 0.183594 61.066406 0.21875 61.109375 0.253906 61.148438 C 0.144531 61.121094 0.0351562 61.09375 -0.0742188 61.070312 C -0.0976562 60.992188 -0.136719 60.925781 -0.1875 60.859375 C -0.238281 60.785156 -0.292969 60.710938 -0.347656 60.636719 C -0.457031 60.484375 -0.574219 60.339844 -0.691406 60.195312 C -0.746094 60.132812 -0.851562 60.210938 -0.808594 60.28125 C -0.714844 60.441406 -0.621094 60.601562 -0.519531 60.753906 C -0.464844 60.832031 -0.414062 60.90625 -0.363281 60.984375 C -0.359375 60.988281 -0.355469 60.992188 -0.351562 61 C -0.441406 60.976562 -0.53125 60.957031 -0.621094 60.933594 C -0.648438 60.871094 -0.679688 60.816406 -0.71875 60.761719 C -0.765625 60.695312 -0.808594 60.628906 -0.855469 60.5625 C -0.945312 60.429688 -1.058594 60.308594 -1.160156 60.183594 C -1.203125 60.128906 -1.285156 60.195312 -1.257812 60.253906 C -1.183594 60.394531 -1.117188 60.546875 -1.035156 60.683594 C -1.007812 60.726562 -0.984375 60.769531 -0.957031 60.808594 C -0.972656 60.808594 -0.984375 60.804688 -1 60.804688 C -1 60.800781 -1.003906 60.796875 -1.003906 60.792969 C -1.027344 60.761719 -1.054688 60.738281 -1.078125 60.710938 C -1.128906 60.65625 -1.183594 60.609375 -1.238281 60.558594 C -1.292969 60.507812 -1.347656 60.460938 -1.410156 60.417969 C -1.464844 60.375 -1.519531 60.328125 -1.574219 60.285156 C -1.640625 60.234375 -1.726562 60.308594 -1.671875 60.375 C -1.625 60.429688 -1.578125 60.484375 -1.535156 60.539062 C -1.507812 60.570312 -1.480469 60.601562 -1.453125 60.632812 C -1.453125 60.632812 -1.457031 60.632812 -1.460938 60.632812 C -1.535156 60.625 -1.609375 60.613281 -1.683594 60.613281 C -1.757812 60.613281 -1.835938 60.613281 -1.910156 60.613281 C -2.007812 60.613281 -2.035156 60.757812 -1.9375 60.785156 C -1.867188 60.808594 -1.796875 60.828125 -1.722656 60.847656 C -1.652344 60.867188 -1.574219 60.878906 -1.503906 60.894531 C -1.5 60.894531 -1.496094 60.894531 -1.492188 60.894531 C -1.683594 60.941406 -1.871094 60.996094 -2.058594 61.046875 C -2.148438 61.070312 -2.113281 61.199219 -2.023438 61.183594 C -1.828125 61.148438 -1.628906 61.117188 -1.433594 61.074219 C -1.339844 61.054688 -1.242188 61.035156 -1.144531 61.015625 C -1.128906 61.011719 -1.105469 61.003906 -1.085938 60.996094 C -0.988281 61.023438 -0.890625 61.050781 -0.792969 61.078125 C -0.878906 61.097656 -0.96875 61.113281 -1.058594 61.132812 C -1.390625 61.207031 -1.722656 61.28125 -2.050781 61.363281 C -2.140625 61.382812 -2.105469 61.507812 -2.019531 61.496094 C -1.679688 61.457031 -1.34375 61.414062 -1.003906 61.363281 C -0.839844 61.339844 -0.671875 61.320312 -0.507812 61.289062 C -0.429688 61.277344 -0.324219 61.261719 -0.238281 61.230469 C -0.128906 61.257812 -0.0195312 61.289062 0.0898438 61.320312 C -0.0273438 61.34375 -0.140625 61.367188 -0.253906 61.394531 C -0.582031 61.464844 -0.910156 61.542969 -1.234375 61.628906 C -1.316406 61.648438 -1.285156 61.765625 -1.203125 61.753906 C -0.875 61.710938 -0.546875 61.667969 -0.222656 61.613281 C -0.0625 61.585938 0.0976562 61.5625 0.257812 61.53125 C 0.34375 61.515625 0.457031 61.488281 0.554688 61.445312 C 0.699219 61.488281 0.84375 61.523438 0.988281 61.566406 C 0.835938 61.589844 0.679688 61.613281 0.527344 61.648438 C 0.15625 61.726562 -0.199219 61.84375 -0.550781 61.988281 C -0.625 62.019531 -0.578125 62.140625 -0.5 62.121094 C -0.144531 62.023438 0.222656 61.941406 0.585938 61.882812 C 0.765625 61.855469 0.945312 61.832031 1.125 61.816406 C 1.265625 61.804688 1.421875 61.796875 1.550781 61.726562 C 1.636719 61.753906 1.722656 61.78125 1.8125 61.804688 C 1.664062 61.84375 1.519531 61.882812 1.375 61.925781 C 0.984375 62.035156 0.589844 62.132812 0.214844 62.292969 C 0.117188 62.332031 0.1875 62.460938 0.273438 62.449219 C 0.648438 62.40625 1.011719 62.304688 1.378906 62.21875 C 1.5625 62.171875 1.746094 62.128906 1.929688 62.082031 C 2.054688 62.050781 2.195312 62.011719 2.320312 61.953125 C 2.453125 61.992188 2.585938 62.03125 2.71875 62.070312 C 2.722656 62.074219 2.726562 62.078125 2.730469 62.082031 C 2.527344 62.171875 2.320312 62.269531 2.113281 62.355469 C 1.796875 62.484375 1.484375 62.621094 1.171875 62.761719 C 1.128906 62.78125 1.15625 62.859375 1.207031 62.84375 C 1.535156 62.746094 1.863281 62.648438 2.1875 62.539062 C 2.511719 62.433594 2.855469 62.367188 3.167969 62.234375 C 3.179688 62.230469 3.183594 62.21875 3.191406 62.210938 C 3.292969 62.242188 3.398438 62.269531 3.5 62.300781 C 3.53125 62.324219 3.558594 62.351562 3.597656 62.359375 C 3.621094 62.363281 3.644531 62.355469 3.667969 62.351562 C 3.683594 62.355469 3.703125 62.363281 3.722656 62.367188 C 3.589844 62.433594 3.457031 62.5 3.324219 62.5625 C 2.996094 62.71875 2.675781 62.878906 2.355469 63.042969 C 2.285156 63.078125 2.34375 63.171875 2.410156 63.144531 C 2.746094 63.011719 3.082031 62.875 3.414062 62.726562 C 3.574219 62.660156 3.734375 62.589844 3.898438 62.527344 C 3.945312 62.507812 3.992188 62.488281 4.039062 62.46875 C 15.5625 66.023438 26.898438 71.332031 34.976562 80.425781 C 37.136719 82.855469 39.023438 85.5625 40.625 88.402344 C 40.636719 88.507812 40.644531 88.613281 40.660156 88.714844 C 40.679688 88.847656 40.78125 88.882812 40.878906 88.863281 C 41.042969 89.160156 41.207031 89.457031 41.367188 89.757812 C 41.488281 89.992188 41.820312 89.800781 41.71875 89.566406 C 41.542969 89.148438 41.355469 88.734375 41.164062 88.324219 C 41.351562 87.214844 41.347656 86.066406 41.449219 84.949219 C 41.5625 83.691406 41.71875 82.441406 41.917969 81.199219 C 42.34375 78.558594 42.964844 75.945312 43.769531 73.394531 C 45.324219 68.441406 47.53125 63.664062 50.308594 59.28125 C 51.160156 57.9375 52.078125 56.640625 53.046875 55.382812 C 53.109375 55.359375 53.171875 55.339844 53.234375 55.320312 C 53.371094 55.269531 53.507812 55.21875 53.648438 55.175781 C 53.921875 55.089844 54.203125 55.03125 54.484375 54.984375 C 54.570312 54.972656 54.558594 54.820312 54.46875 54.832031 C 54.183594 54.859375 53.894531 54.898438 53.609375 54.941406 C 53.527344 54.953125 53.449219 54.964844 53.371094 54.980469 C 53.382812 54.960938 53.398438 54.941406 53.414062 54.921875 C 53.503906 54.90625 53.597656 54.871094 53.675781 54.84375 C 53.789062 54.804688 53.898438 54.769531 54.011719 54.722656 C 54.230469 54.632812 54.453125 54.546875 54.675781 54.460938 C 54.769531 54.425781 54.742188 54.273438 54.636719 54.304688 C 54.40625 54.371094 54.171875 54.429688 53.933594 54.488281 C 53.859375 54.507812 53.785156 54.53125 53.710938 54.554688 C 53.710938 54.554688 53.710938 54.554688 53.710938 54.550781 C 53.730469 54.527344 53.753906 54.5 53.773438 54.472656 C 53.785156 54.476562 53.792969 54.484375 53.804688 54.484375 C 53.9375 54.488281 54.078125 54.410156 54.203125 54.367188 C 54.332031 54.320312 54.464844 54.273438 54.597656 54.226562 C 54.859375 54.136719 55.113281 54.035156 55.367188 53.929688 C 55.453125 53.894531 55.398438 53.757812 55.3125 53.78125 C 55.042969 53.847656 54.773438 53.921875 54.511719 54.003906 C 54.378906 54.046875 54.246094 54.089844 54.113281 54.128906 C 54.085938 54.136719 54.054688 54.148438 54.027344 54.15625 C 54.105469 54.0625 54.175781 53.964844 54.253906 53.871094 C 54.367188 53.902344 54.5 53.859375 54.605469 53.828125 C 54.738281 53.789062 54.875 53.746094 55.007812 53.707031 C 55.273438 53.625 55.53125 53.523438 55.792969 53.441406 C 55.890625 53.414062 55.855469 53.273438 55.757812 53.289062 C 55.484375 53.335938 55.210938 53.363281 54.9375 53.410156 C 54.824219 53.429688 54.710938 53.453125 54.59375 53.472656 C 54.714844 53.332031 54.839844 53.191406 54.960938 53.054688 C 54.96875 53.09375 55 53.128906 55.046875 53.128906 C 55.152344 53.128906 55.253906 53.109375 55.359375 53.089844 C 55.457031 53.070312 55.554688 53.050781 55.652344 53.03125 C 55.851562 52.992188 56.050781 52.941406 56.25 52.898438 C 56.339844 52.875 56.304688 52.75 56.21875 52.761719 C 56.019531 52.785156 55.816406 52.804688 55.617188 52.832031 C 55.523438 52.84375 55.425781 52.859375 55.332031 52.875 C 55.242188 52.886719 55.152344 52.902344 55.066406 52.929688 C 55.167969 52.8125 55.265625 52.699219 55.363281 52.585938 C 55.386719 52.582031 55.40625 52.582031 55.429688 52.578125 C 55.492188 52.570312 55.558594 52.558594 55.621094 52.550781 C 55.742188 52.53125 55.863281 52.511719 55.984375 52.492188 C 56.230469 52.449219 56.476562 52.390625 56.722656 52.335938 C 56.796875 52.320312 56.789062 52.199219 56.710938 52.203125 C 56.453125 52.21875 56.199219 52.226562 55.945312 52.25 C 55.835938 52.261719 55.730469 52.273438 55.625 52.285156 C 55.65625 52.25 55.6875 52.214844 55.71875 52.175781 C 55.757812 52.164062 55.800781 52.144531 55.835938 52.132812 C 55.90625 52.105469 55.976562 52.082031 56.050781 52.054688 C 56.199219 52.007812 56.347656 51.960938 56.496094 51.910156 C 56.585938 51.882812 56.554688 51.753906 56.460938 51.769531 C 56.304688 51.796875 56.152344 51.839844 56 51.894531 C 55.929688 51.917969 55.859375 51.941406 55.789062 51.96875 C 55.796875 51.949219 55.808594 51.929688 55.816406 51.910156 C 55.910156 51.730469 55.988281 51.539062 56.070312 51.355469 C 56.085938 51.320312 56.082031 51.28125 56.050781 51.257812 C 56.015625 51.238281 55.972656 51.25 55.953125 51.28125 C 55.847656 51.457031 55.730469 51.628906 55.636719 51.808594 C 55.585938 51.898438 55.539062 51.988281 55.488281 52.074219 C 55.449219 52.148438 55.414062 52.226562 55.390625 52.308594 C 55.390625 52.308594 55.386719 52.308594 55.386719 52.3125 C 55.335938 52.320312 55.289062 52.332031 55.25 52.359375 C 55.265625 52.304688 55.285156 52.25 55.300781 52.191406 C 55.375 51.953125 55.429688 51.703125 55.496094 51.460938 C 55.53125 51.34375 55.359375 51.296875 55.316406 51.40625 C 55.21875 51.640625 55.105469 51.871094 55.015625 52.105469 C 54.925781 52.332031 54.789062 52.589844 54.820312 52.839844 C 54.824219 52.863281 54.835938 52.882812 54.851562 52.894531 C 54.644531 53.121094 54.4375 53.34375 54.238281 53.570312 C 54.21875 53.582031 54.207031 53.59375 54.191406 53.609375 C 54.214844 53.527344 54.234375 53.445312 54.25 53.363281 C 54.28125 53.21875 54.320312 53.074219 54.355469 52.929688 C 54.429688 52.644531 54.519531 52.359375 54.628906 52.082031 C 54.664062 51.992188 54.519531 51.929688 54.472656 52.015625 C 54.316406 52.28125 54.1875 52.554688 54.089844 52.851562 C 54.042969 52.992188 54.007812 53.136719 53.980469 53.285156 C 53.953125 53.4375 53.925781 53.605469 53.960938 53.757812 C 53.96875 53.789062 53.996094 53.808594 54.023438 53.820312 C 53.925781 53.929688 53.832031 54.042969 53.738281 54.15625 C 53.742188 54.054688 53.75 53.953125 53.753906 53.851562 C 53.769531 53.546875 53.765625 53.246094 53.773438 52.941406 C 53.773438 52.84375 53.640625 52.847656 53.625 52.9375 C 53.578125 53.230469 53.523438 53.527344 53.484375 53.824219 C 53.464844 53.96875 53.449219 54.113281 53.433594 54.257812 C 53.425781 54.332031 53.417969 54.40625 53.410156 54.476562 C 53.410156 54.5 53.40625 54.519531 53.40625 54.542969 C 53.257812 54.714844 53.109375 54.886719 52.96875 55.0625 C 52.945312 55.066406 52.925781 55.074219 52.90625 55.082031 C 52.910156 55.066406 52.914062 55.050781 52.917969 55.03125 C 52.941406 54.855469 52.960938 54.675781 52.976562 54.5 C 53.007812 54.128906 53.039062 53.761719 53.070312 53.390625 C 53.078125 53.308594 52.9375 53.28125 52.921875 53.367188 C 52.851562 53.734375 52.78125 54.105469 52.710938 54.472656 C 52.675781 54.65625 52.644531 54.839844 52.625 55.023438 C 52.609375 55.144531 52.574219 55.347656 52.652344 55.457031 C 47.242188 62.179688 43.46875 70.082031 41.699219 78.5625 C 41.714844 78.382812 41.730469 78.203125 41.746094 78.023438 C 42.125 74.414062 42.699219 70.828125 43.46875 67.285156 C 44.976562 60.332031 47.207031 53.527344 50.101562 47.03125 C 50.980469 45.050781 51.914062 43.082031 52.910156 41.148438 C 52.96875 41.109375 53.027344 41.066406 53.082031 41.03125 C 53.25 40.921875 53.417969 40.816406 53.589844 40.707031 C 53.925781 40.492188 54.265625 40.28125 54.609375 40.074219 C 54.683594 40.027344 54.621094 39.90625 54.542969 39.953125 C 54.191406 40.144531 53.839844 40.339844 53.488281 40.527344 C 53.371094 40.589844 53.253906 40.648438 53.136719 40.710938 C 53.199219 40.59375 53.265625 40.472656 53.328125 40.355469 C 53.761719 40.074219 54.199219 39.792969 54.628906 39.507812 C 54.707031 39.453125 54.644531 39.332031 54.554688 39.375 C 54.226562 39.542969 53.902344 39.71875 53.574219 39.890625 C 53.589844 39.859375 53.605469 39.824219 53.625 39.792969 C 53.761719 39.773438 53.882812 39.664062 53.992188 39.585938 C 54.121094 39.496094 54.246094 39.410156 54.375 39.320312 C 54.628906 39.148438 54.878906 38.976562 55.125 38.792969 C 55.191406 38.742188 55.109375 38.644531 55.039062 38.679688 C 54.769531 38.816406 54.507812 38.964844 54.242188 39.117188 C 54.121094 39.1875 53.996094 39.253906 53.871094 39.324219 C 53.90625 39.257812 53.941406 39.191406 53.976562 39.125 C 53.996094 39.117188 54.015625 39.109375 54.03125 39.097656 C 54.109375 39.058594 54.183594 39.015625 54.261719 38.972656 C 54.40625 38.890625 54.554688 38.808594 54.699219 38.726562 C 54.996094 38.5625 55.296875 38.394531 55.589844 38.222656 C 55.671875 38.171875 55.605469 38.046875 55.515625 38.089844 C 55.207031 38.234375 54.902344 38.386719 54.597656 38.539062 C 54.457031 38.613281 54.316406 38.683594 54.171875 38.753906 C 54.222656 38.664062 54.273438 38.578125 54.324219 38.488281 C 54.46875 38.453125 54.601562 38.367188 54.730469 38.300781 C 54.875 38.21875 55.023438 38.140625 55.167969 38.058594 C 55.449219 37.898438 55.726562 37.738281 55.988281 37.546875 C 56.046875 37.5 55.988281 37.390625 55.917969 37.417969 C 55.613281 37.527344 55.328125 37.671875 55.035156 37.820312 C 54.894531 37.890625 54.75 37.964844 54.609375 38.042969 C 54.59375 38.046875 54.582031 38.054688 54.566406 38.0625 C 54.644531 37.925781 54.722656 37.792969 54.800781 37.65625 C 54.824219 37.644531 54.847656 37.632812 54.863281 37.621094 C 55.109375 37.457031 55.359375 37.292969 55.609375 37.132812 C 55.890625 36.949219 56.167969 36.761719 56.4375 36.566406 C 56.5 36.523438 56.449219 36.417969 56.378906 36.460938 C 55.925781 36.742188 55.464844 37.011719 55.011719 37.289062 C 55.035156 37.25 55.058594 37.210938 55.078125 37.171875 C 55.191406 37.125 55.300781 37.070312 55.40625 37.007812 C 55.554688 36.921875 55.707031 36.835938 55.855469 36.75 C 56.136719 36.585938 56.417969 36.425781 56.691406 36.25 C 56.765625 36.199219 56.707031 36.085938 56.625 36.125 Z M 56.625 36.125 " fill-opacity="1" fill-rule="nonzero"/></g></g></g><g clip-path="url(#5dfd4c6585)"><g clip-path="url(#9963672722)"><g clip-path="url(#a8df0f97ca)"><path fill="#831843" d="M 64.914062 64.472656 C 55.242188 69.816406 47.757812 78.976562 44.433594 89.519531 L 39.027344 90.8125 C 38.347656 90.644531 37.6875 90.347656 37.046875 90.066406 C 33.101562 88.335938 28.917969 87.117188 24.628906 86.765625 C 20.339844 86.414062 15.949219 86.957031 11.984375 88.625 C 16.570312 85.828125 21.949219 84.351562 27.324219 84.421875 C 30.054688 84.453125 32.773438 84.898438 35.382812 85.695312 C 31.847656 82.847656 27.980469 80.40625 23.808594 78.640625 C 18.507812 76.394531 12.703125 75.246094 6.964844 75.683594 C 13.523438 74.460938 20.429688 74.878906 26.664062 77.257812 C 30.136719 78.582031 33.382812 80.535156 36.167969 83.003906 C 35.84375 82.296875 35.511719 81.585938 35.15625 80.894531 C 35.042969 80.675781 34.925781 80.460938 34.816406 80.253906 C 34.230469 79.1875 33.601562 78.144531 32.90625 77.148438 C 28.847656 71.261719 22.980469 66.621094 16.277344 64.125 C 21.375 64.871094 26.253906 67.046875 30.207031 70.347656 C 31.355469 71.300781 32.421875 72.355469 33.398438 73.484375 C 35.792969 76.238281 37.652344 79.464844 38.824219 82.921875 L 39.488281 84.089844 C 38.972656 82.394531 38.550781 80.664062 38.257812 78.910156 C 37.921875 76.925781 37.617188 74.917969 37.425781 72.902344 C 37.105469 69.507812 37.109375 66.101562 37.808594 62.777344 C 38.410156 59.886719 40.957031 55.539062 41.320312 54.328125 C 40.539062 57.886719 38.609375 65.078125 39.046875 70.550781 C 39.304688 73.742188 39.9375 76.886719 40.855469 79.957031 C 41.011719 80.515625 41.1875 81.070312 41.371094 81.621094 C 41.695312 80.066406 42.167969 78.53125 42.757812 77.046875 C 43.925781 74.066406 45.566406 71.253906 47.503906 68.714844 C 51.414062 63.585938 56.480469 59.445312 61.734375 55.695312 C 52.976562 62.234375 46.792969 72.078125 44.519531 82.761719 C 48.328125 74.160156 55.9375 67.292969 64.914062 64.472656 Z M 64.914062 64.472656 " fill-opacity="1" fill-rule="nonzero"/></g></g></g><g clip-path="url(#c108620e3c)"><path fill="#831843" d="M 46.324219 79.71875 C 46.324219 79.953125 46.320312 80.1875 46.316406 80.421875 C 46.308594 80.1875 46.304688 79.953125 46.324219 79.71875 Z M 66.585938 83.8125 C 65.554688 84.390625 64.597656 85 63.722656 85.675781 C 62.992188 87.1875 62.398438 88.75 62.445312 90.597656 L 61.902344 90.84375 C 61.703125 91.160156 61.375 91.386719 60.839844 91.46875 C 59.871094 91.621094 58.726562 91.5 57.609375 91.324219 C 56.691406 91.453125 55.644531 91.324219 54.449219 91.335938 C 53.691406 91.339844 52.9375 91.351562 52.183594 91.367188 C 51.855469 91.523438 51.53125 91.550781 51.230469 91.382812 C 50.265625 91.402344 49.304688 91.417969 48.339844 91.425781 C 48.0625 91.917969 47.691406 92.101562 47.144531 91.433594 C 46.054688 91.4375 44.964844 91.425781 43.871094 91.390625 C 43.875 91.410156 43.875 91.433594 43.878906 91.453125 L 43.859375 91.390625 C 42.835938 91.359375 41.8125 91.308594 40.792969 91.222656 C 40.105469 91.167969 39.09375 91.164062 38.136719 91.003906 C 38.722656 91.648438 38.886719 92.25 37.765625 92.417969 C 36.917969 92.546875 35.757812 92.21875 35.027344 91.789062 C 34.292969 91.355469 33.609375 91.03125 32.753906 90.96875 C 31.90625 90.90625 31.070312 90.964844 30.226562 90.964844 C 31.128906 90.78125 31.917969 90.488281 32.863281 90.445312 C 33.441406 90.421875 34.042969 90.425781 34.609375 90.523438 C 34.585938 90.5 34.570312 90.472656 34.550781 90.449219 C 32.351562 89.667969 30.1875 88.261719 29.113281 86.214844 C 29.601562 87.089844 31.152344 87.515625 32.019531 87.8125 C 32.277344 87.902344 32.535156 87.980469 32.792969 88.0625 C 32.316406 87.285156 31.84375 86.519531 31.429688 85.707031 C 30.820312 84.507812 29.765625 83.960938 28.800781 83.113281 C 30.152344 83.089844 31.605469 84.265625 32.625 85.035156 C 32.917969 85.253906 33.207031 85.480469 33.492188 85.71875 C 33.21875 84.792969 32.816406 83.917969 32.15625 83.164062 C 32.695312 83.613281 33.183594 84.097656 33.640625 84.601562 C 33.449219 83.890625 33.324219 83.148438 33.253906 82.390625 C 32.34375 80.253906 31.367188 78.132812 30.773438 75.929688 C 31.710938 76.761719 32.550781 77.746094 33.277344 78.820312 C 33.445312 77.140625 33.800781 75.519531 34.234375 74.125 C 33.828125 76.136719 33.871094 78.351562 34.285156 80.5 C 34.925781 81.691406 35.433594 82.9375 35.796875 84.1875 C 35.800781 83.269531 35.835938 82.351562 35.886719 81.460938 C 35.546875 80.816406 35.222656 80.160156 34.996094 79.453125 C 33.8125 75.773438 34.503906 73.070312 35.824219 69.664062 C 35.070312 72.492188 35.320312 74.832031 36.195312 77.1875 C 36.441406 75.476562 36.992188 74.039062 37.453125 72.378906 C 36.917969 74.640625 36.9375 77.003906 37.144531 79.335938 C 37.324219 79.6875 37.511719 80.046875 37.710938 80.410156 C 37.722656 80.425781 37.726562 80.441406 37.738281 80.457031 C 37.761719 80.375 37.785156 80.296875 37.804688 80.21875 C 38.109375 79.121094 38.476562 78.035156 38.863281 76.957031 C 38.652344 76.042969 38.480469 75.15625 38.441406 74.355469 C 38.667969 74.875 38.960938 75.371094 39.261719 75.863281 C 40.074219 73.679688 40.933594 71.507812 41.558594 69.273438 C 41.59375 70.6875 41.171875 71.8125 40.859375 73.160156 C 40.546875 74.535156 40.351562 75.953125 40.152344 77.363281 C 40.246094 77.539062 40.335938 77.714844 40.417969 77.898438 C 40.988281 79.164062 41.296875 80.554688 41.851562 81.808594 C 41.941406 78.625 42.007812 75.390625 42.046875 72.210938 C 41.960938 73.582031 42.8125 75.152344 43.09375 76.523438 C 43.378906 77.925781 43.507812 79.351562 43.992188 80.691406 C 44.074219 79.9375 44.234375 79.226562 44.464844 78.558594 C 44.464844 74.679688 44.695312 70.832031 45.886719 67.046875 C 46.058594 69.589844 45.152344 72.074219 45.363281 74.644531 C 45.410156 75.226562 45.460938 75.808594 45.515625 76.386719 C 46.363281 75.066406 47.503906 73.921875 48.84375 72.902344 C 47.375 74.679688 46.457031 77.117188 45.796875 79.636719 C 45.882812 80.695312 45.960938 81.757812 46.007812 82.828125 C 46.015625 82.980469 46.019531 83.148438 46.023438 83.316406 C 46.109375 83.222656 46.191406 83.128906 46.273438 83.035156 C 46.277344 82.15625 46.304688 81.28125 46.316406 80.421875 C 46.347656 81.136719 46.488281 81.847656 46.699219 82.554688 C 46.957031 82.261719 47.203125 81.972656 47.429688 81.691406 C 47.214844 79.660156 47.460938 77.570312 48.222656 75.601562 C 47.769531 77.382812 47.988281 78.835938 48.441406 80.230469 C 49.832031 77.914062 50.328125 75.667969 51.191406 73.085938 C 51.441406 74.164062 51.628906 75.167969 51.726562 76.132812 C 52.433594 73.515625 53.304688 70.945312 54.082031 68.316406 C 54.21875 71.207031 52.894531 74.152344 52.976562 77.113281 C 53.023438 78.910156 52.914062 80.632812 52.796875 82.402344 C 53.191406 81.398438 53.632812 80.421875 54.140625 79.507812 C 54.25 79.308594 54.371094 79.101562 54.503906 78.894531 C 54.515625 78.777344 54.535156 78.660156 54.542969 78.542969 C 54.640625 76.902344 54.578125 75.238281 54.445312 73.609375 C 54.886719 74.898438 55.214844 76.21875 55.390625 77.554688 C 56.195312 76.347656 57 75.054688 57.132812 73.761719 C 57.078125 75.421875 56.789062 77.042969 56.34375 78.632812 C 56.648438 78.253906 56.976562 77.878906 57.328125 77.519531 C 57.519531 76.308594 57.765625 75.101562 57.804688 73.882812 C 57.820312 74.910156 57.882812 75.917969 57.949219 76.917969 C 59.152344 75.816406 60.554688 74.878906 62.035156 74.28125 C 62.097656 72.710938 62.128906 71.085938 62.445312 69.699219 C 62.554688 71.1875 62.6875 72.613281 62.757812 74.015625 C 63.347656 73.824219 63.949219 73.691406 64.550781 73.628906 C 63.945312 74.015625 63.355469 74.414062 62.789062 74.820312 C 62.828125 76.164062 62.792969 77.503906 62.605469 78.871094 C 63.886719 76.976562 65.273438 75.195312 67.191406 73.941406 C 65.574219 76.042969 64.1875 78.40625 62.992188 80.878906 C 63.988281 80.320312 65.050781 79.894531 66.046875 79.796875 C 64.472656 81.273438 62.898438 82.652344 61.503906 84.242188 C 61.316406 84.707031 61.132812 85.167969 60.957031 85.628906 C 61.632812 85.277344 62.308594 84.898438 63 84.578125 C 63.84375 83.199219 64.828125 81.882812 65.855469 80.84375 C 65.558594 81.957031 65.074219 82.980469 64.566406 83.992188 C 65.210938 83.820312 65.878906 83.742188 66.585938 83.8125 Z M 40.414062 84.691406 C 40.277344 83.488281 40.042969 82.28125 39.84375 81.121094 C 39.796875 80.867188 39.746094 80.605469 39.6875 80.339844 C 39.515625 81.570312 39.503906 83.113281 39.796875 84.554688 C 39.996094 84.609375 40.203125 84.65625 40.414062 84.691406 Z M 56.070312 86.597656 C 56.039062 86.636719 56.011719 86.675781 55.980469 86.714844 C 55.996094 86.714844 56.007812 86.71875 56.023438 86.71875 C 56.039062 86.679688 56.054688 86.640625 56.070312 86.597656 Z M 57.03125 80.691406 C 56.222656 82.027344 55.632812 83.488281 55.316406 85.109375 C 55.777344 84.703125 56.253906 84.308594 56.742188 83.933594 C 56.902344 82.878906 56.964844 81.804688 57.03125 80.691406 Z M 61.890625 76.425781 C 61.925781 76.101562 61.953125 75.761719 61.976562 75.421875 C 60.492188 76.5625 59.175781 77.792969 58.097656 79.160156 C 58.171875 80.40625 58.207031 81.65625 58.152344 82.925781 C 58.871094 82.445312 59.601562 82.007812 60.320312 81.636719 C 59.566406 82.496094 58.804688 83.34375 58.058594 84.199219 C 58.042969 84.367188 58.03125 84.53125 58.011719 84.703125 C 57.96875 85.042969 57.921875 85.359375 57.867188 85.65625 C 58.664062 84.472656 59.707031 83.34375 60.382812 82.738281 C 61.25 80.777344 61.648438 78.511719 61.890625 76.425781 Z M 61.890625 76.425781 " fill-opacity="1" fill-rule="nonzero"/></g><path fill="#be185d" d="M 39.167969 91.238281 L 39.175781 91.234375 C 39.175781 91.242188 39.175781 91.253906 39.175781 91.261719 C 39.171875 91.253906 39.171875 91.246094 39.167969 91.238281 Z M 39.984375 88.621094 C 39.332031 87.140625 38.675781 85.601562 38.511719 83.980469 C 38.652344 85.113281 38.582031 86.277344 38.644531 87.421875 C 38.652344 87.511719 38.664062 87.597656 38.671875 87.6875 C 38.566406 87.40625 38.453125 87.136719 38.34375 86.890625 C 38.0625 86.253906 37.710938 85.671875 37.527344 84.992188 C 37.335938 84.296875 37.234375 83.554688 37.136719 82.839844 C 37.015625 81.960938 37.140625 81.109375 37.140625 80.238281 C 37.042969 80.671875 36.960938 81.105469 36.835938 81.535156 C 36.519531 82.605469 36.460938 83.65625 36.496094 84.769531 C 36.519531 85.652344 36.699219 86.496094 36.941406 87.328125 C 36.542969 86.890625 36.101562 86.480469 35.621094 86.15625 C 35.121094 85.8125 34.5 85.636719 34.023438 85.265625 C 34.1875 85.484375 34.390625 85.667969 34.585938 85.855469 C 35.027344 86.269531 35.339844 86.757812 35.652344 87.277344 C 36.445312 88.617188 37.460938 90.035156 37.945312 91.527344 L 37.808594 91.574219 C 37.375 90.984375 36.972656 90.394531 36.5 89.835938 C 35.949219 89.191406 35.46875 88.449219 34.75 87.972656 C 33.949219 87.445312 32.949219 87.09375 32.046875 86.816406 C 33.066406 87.40625 34.167969 88.078125 34.921875 89 C 35.484375 89.6875 35.851562 90.464844 36.25 91.246094 C 36.753906 92.230469 37.578125 91.851562 38.371094 91.460938 L 39.167969 91.238281 C 39.054688 91.007812 38.949219 90.773438 38.84375 90.539062 C 38.957031 90.289062 39.023438 89.988281 39.054688 89.703125 C 39.152344 90.21875 39.21875 90.734375 39.175781 91.234375 L 39.824219 91.054688 C 40.1875 90.816406 40.648438 90.574219 40.578125 90.125 C 40.5 89.648438 40.179688 89.0625 39.984375 88.621094 Z M 41.492188 83.53125 C 41.519531 82.917969 41.574219 82.273438 41.566406 81.671875 C 41.347656 82.488281 41.320312 83.398438 41.191406 84.234375 C 40.988281 85.550781 40.941406 86.964844 41.382812 88.246094 L 42.183594 88.328125 C 42.066406 87.648438 41.929688 86.953125 41.773438 86.292969 C 41.546875 85.355469 41.449219 84.5 41.492188 83.53125 Z M 44.136719 84.445312 C 43.953125 83.828125 43.753906 83.21875 43.703125 82.574219 C 43.570312 83.523438 43.140625 84.523438 42.828125 85.429688 C 42.5625 86.207031 42.375 87.078125 42.28125 87.898438 C 42.265625 88.035156 42.277344 88.1875 42.277344 88.335938 L 43.824219 88.492188 C 44.152344 88.394531 45.0625 88.179688 45.140625 87.742188 C 45.191406 87.472656 44.898438 87.097656 44.804688 86.867188 C 44.496094 86.089844 44.371094 85.242188 44.136719 84.445312 Z M 42.242188 88.675781 C 42.273438 88.570312 42.277344 88.453125 42.277344 88.335938 L 42.183594 88.328125 C 42.203125 88.441406 42.226562 88.5625 42.242188 88.675781 Z M 40.324219 85.292969 C 40.003906 84.652344 39.160156 83.019531 38.238281 83.152344 C 38.414062 83.753906 38.996094 84.382812 39.320312 84.917969 C 40.097656 86.195312 40.765625 87.71875 41.257812 89.132812 L 41.503906 88.519531 C 41.265625 88.121094 41.230469 87.601562 41.074219 87.164062 C 40.847656 86.527344 40.628906 85.898438 40.324219 85.292969 Z M 50.925781 85.257812 C 50.898438 83.480469 50.433594 81.738281 50.105469 80.003906 C 50.03125 80.253906 49.976562 80.601562 49.894531 80.882812 C 49.734375 81.40625 49.480469 81.859375 49.28125 82.359375 C 48.867188 83.410156 48.660156 84.636719 48.371094 85.671875 C 48.386719 85.492188 48.351562 85.308594 48.328125 85.132812 C 48.257812 84.632812 48.277344 84.125 48.28125 83.621094 C 48.289062 82.015625 48.703125 80.355469 49.140625 78.824219 C 48.789062 79.675781 48.335938 80.460938 47.910156 81.289062 C 47.421875 82.234375 47.09375 83.167969 46.960938 84.222656 C 46.863281 85.015625 46.640625 85.882812 46.753906 86.6875 L 49.871094 86.75 C 50.085938 86.707031 50.863281 86.753906 50.992188 86.503906 C 50.996094 86.488281 50.945312 86.136719 50.945312 86.09375 C 50.941406 85.816406 50.929688 85.535156 50.925781 85.257812 Z M 55.875 76.621094 C 55.570312 76.832031 55.402344 77.269531 55.265625 77.644531 C 55.339844 77.515625 55.410156 77.386719 55.488281 77.265625 C 55.59375 77.097656 55.867188 76.816406 55.875 76.621094 Z M 59.210938 78.605469 C 59.195312 78.808594 59.105469 79.019531 59.050781 79.222656 C 58.835938 80.070312 58.730469 80.953125 58.363281 81.753906 C 57.820312 82.929688 57.015625 84.144531 56.195312 85.132812 C 56.132812 84.042969 56.53125 83.039062 56.660156 81.964844 C 56.785156 80.949219 57.164062 79.984375 57.34375 78.976562 C 57.410156 78.585938 57.605469 78.097656 57.589844 77.714844 C 57.246094 78.710938 56.496094 79.546875 56.023438 80.488281 C 55.28125 81.972656 54.617188 83.414062 54.292969 85.058594 C 54.332031 83.839844 54.300781 82.617188 54.335938 81.398438 C 54.375 80.132812 54.675781 79.101562 55.15625 77.933594 C 55.191406 77.84375 55.226562 77.746094 55.265625 77.644531 C 54.800781 78.4375 54.40625 79.273438 54.050781 80.121094 C 53.746094 80.84375 53.492188 81.59375 53.3125 82.359375 C 53.273438 81.605469 53.132812 80.863281 53.019531 80.113281 C 52.851562 79.019531 52.601562 77.957031 51.996094 77.011719 C 51.664062 76.5 51.261719 76.042969 50.96875 75.503906 C 51.25 76.929688 51.75 78.285156 51.925781 79.746094 C 52.074219 81 52.207031 82.230469 52.144531 83.496094 C 52.09375 84.574219 51.773438 85.476562 51.425781 86.476562 L 52.554688 85.773438 C 52.601562 85.605469 52.65625 85.441406 52.710938 85.28125 L 55.792969 87.847656 C 56.496094 88.097656 57.324219 87.347656 57.675781 86.804688 C 58.09375 86.15625 58.429688 85.433594 58.605469 84.675781 C 59.0625 82.699219 59.289062 80.632812 59.210938 78.605469 Z M 63.128906 84.902344 C 62.269531 85.308594 61.394531 85.871094 60.65625 86.472656 C 60.507812 86.589844 60.359375 86.714844 60.214844 86.839844 C 59.703125 84.847656 60.289062 82.636719 61.144531 80.84375 C 61.449219 80.195312 61.863281 79.644531 62.328125 79.105469 C 62.574219 78.816406 62.933594 78.464844 63.113281 78.171875 C 62.605469 78.351562 62.023438 78.84375 61.621094 79.195312 C 60.71875 79.980469 59.949219 81.203125 59.644531 82.351562 C 59.207031 83.984375 58.484375 85.652344 58.96875 87.359375 L 59.742188 87.308594 C 59.585938 87.484375 59.441406 87.667969 59.335938 87.878906 L 60.3125 89.40625 C 60.835938 88.460938 61.640625 87.726562 62.363281 86.941406 C 62.996094 86.246094 63.714844 85.605469 64.457031 85.027344 C 64.847656 84.71875 65.355469 84.460938 65.691406 84.085938 C 64.847656 84.125 63.882812 84.550781 63.128906 84.902344 Z M 63.128906 84.902344 " fill-opacity="1" fill-rule="nonzero"/><path fill="#a3aab2" d="M 60.933594 88.390625 C 59.878906 87.816406 59.261719 87.113281 58.492188 86.226562 C 57.671875 85.28125 56.691406 84.792969 55.457031 84.65625 C 55.277344 84.632812 55.101562 84.613281 54.921875 84.59375 C 53.464844 84.421875 51.984375 84.226562 50.527344 84.203125 C 50.074219 84.199219 49.628906 84.230469 49.195312 84.316406 C 48.304688 84.464844 47.460938 84.792969 46.683594 85.277344 C 45.882812 85.769531 45.222656 86.617188 44.359375 86.9375 C 44.113281 87.03125 43.851562 87.078125 43.566406 87.066406 C 42.773438 87.027344 42 87.195312 41.210938 87.230469 C 40.777344 87.25 40.101562 87.117188 39.785156 87.496094 C 39.34375 88.007812 39.574219 89.035156 38.96875 89.417969 C 38.492188 89.734375 37.703125 89.625 37.21875 89.972656 C 37.152344 90.019531 37.089844 90.078125 37.035156 90.148438 C 36.71875 90.539062 37.050781 91.054688 37.234375 91.453125 C 37.601562 92.257812 38.152344 92.722656 39.003906 92.972656 C 40.035156 93.269531 41.3125 92.644531 42.410156 92.6875 C 42.484375 92.691406 42.558594 92.703125 42.636719 92.707031 C 42.523438 93.175781 42.648438 93.714844 42.546875 94.207031 C 42.355469 95.117188 43.980469 95.523438 44.636719 95.660156 C 45.847656 95.917969 47.132812 95.679688 48.355469 95.609375 C 49.710938 95.53125 51.050781 95.601562 52.402344 95.660156 C 52.785156 95.671875 53.394531 95.667969 53.824219 95.46875 C 54.015625 95.378906 54.171875 95.253906 54.253906 95.078125 C 54.4375 94.691406 54.253906 94.148438 53.953125 93.714844 C 53.984375 93.707031 54.015625 93.703125 54.050781 93.695312 C 55.273438 93.4375 56.410156 93.210938 57.664062 93.253906 C 58.644531 93.289062 60.042969 93.71875 60.953125 93.210938 C 60.957031 93.207031 60.96875 93.207031 60.972656 93.199219 C 61.746094 92.761719 62.53125 91.613281 62.75 90.769531 C 63.078125 89.511719 61.863281 88.898438 60.933594 88.390625 Z M 60.933594 88.390625 " fill-opacity="1" fill-rule="nonzero"/><path fill="#8c949b" d="M 62.085938 90.914062 C 61.570312 89.230469 58.085938 90.1875 56.949219 90.464844 C 56.570312 90.558594 56.011719 90.78125 55.613281 90.65625 C 55.175781 90.519531 54.984375 90.019531 54.578125 89.847656 C 54.019531 89.613281 53.226562 89.738281 52.648438 89.742188 C 51.953125 89.742188 51.261719 89.753906 50.570312 89.808594 C 50.214844 89.839844 49.863281 89.914062 49.511719 89.816406 C 48.90625 89.648438 48.351562 89.242188 47.777344 88.984375 C 46.859375 88.5625 46.0625 88.453125 45.0625 88.449219 C 44.667969 88.449219 44.351562 88.40625 44.121094 88.746094 C 43.953125 88.988281 43.863281 89.277344 43.683594 89.515625 C 43.351562 89.957031 42.996094 90.3125 42.449219 90.429688 C 41.4375 90.648438 40.417969 91.097656 39.378906 90.855469 C 38.980469 90.765625 37.460938 89.800781 37.21875 89.972656 C 37.152344 90.019531 37.089844 90.078125 37.035156 90.148438 C 36.71875 90.539062 37.050781 91.054688 37.234375 91.453125 C 37.601562 92.257812 38.152344 92.722656 39.003906 92.972656 C 40.035156 93.269531 41.3125 92.644531 42.410156 92.6875 C 42.484375 92.691406 42.558594 92.703125 42.636719 92.707031 C 42.523438 93.175781 42.648438 93.714844 42.546875 94.207031 C 42.355469 95.117188 43.980469 95.523438 44.636719 95.660156 C 45.847656 95.917969 47.132812 95.679688 48.355469 95.609375 C 49.710938 95.53125 51.050781 95.601562 52.402344 95.660156 C 52.785156 95.671875 53.394531 95.667969 53.824219 95.46875 C 53.878906 95.398438 53.917969 95.332031 53.949219 95.261719 C 54.105469 94.863281 53.84375 94.589844 53.703125 94.230469 C 53.492188 93.703125 53.347656 93.15625 52.613281 93.253906 C 53.824219 94.101562 52.519531 94.289062 51.636719 94.375 C 50.625 94.472656 49.648438 94.8125 48.640625 94.871094 C 47.507812 94.933594 46.078125 94.804688 45.003906 94.417969 C 44.332031 94.171875 43.835938 93.441406 43.855469 92.71875 C 43.871094 92.183594 44.242188 91.632812 44.613281 91.128906 C 45.027344 90.835938 45.421875 90.503906 45.941406 90.441406 C 46.535156 90.367188 46.941406 90.621094 47.445312 90.886719 C 47.972656 91.160156 48.433594 91.0625 49 91.109375 C 49.453125 91.148438 50.1875 91.246094 50.566406 91.519531 C 51 91.832031 51.050781 92.4375 51.574219 92.703125 C 52.082031 92.957031 52.703125 92.816406 53.230469 93.042969 C 53.472656 93.152344 53.742188 93.40625 53.953125 93.714844 C 53.984375 93.707031 54.015625 93.703125 54.050781 93.695312 C 55.273438 93.4375 56.410156 93.210938 57.664062 93.253906 C 58.644531 93.289062 60.042969 93.71875 60.953125 93.210938 C 61.09375 92.953125 61.230469 92.683594 61.382812 92.457031 C 61.652344 92.0625 62.246094 91.441406 62.085938 90.914062 Z M 62.085938 90.914062 " fill-opacity="1" fill-rule="nonzero"/><path fill="#c4c8cc" d="M 50.046875 92.222656 C 49.890625 92.4375 49.542969 92.3125 49.359375 92.230469 C 48.976562 92.0625 48.671875 92.027344 48.269531 92.175781 C 47.976562 92.28125 47.707031 92.488281 47.402344 92.316406 C 47.113281 92.15625 46.84375 91.914062 46.574219 91.726562 C 46.421875 91.621094 45.453125 90.957031 45.992188 90.902344 L 45.910156 90.863281 C 46.351562 90.890625 46.628906 91.015625 46.96875 91.289062 C 47.292969 91.546875 47.5625 91.503906 47.957031 91.496094 C 48.230469 91.488281 50.335938 91.828125 50.046875 92.222656 Z M 49.097656 93.167969 C 48.953125 93.175781 48.71875 93.246094 48.875 93.417969 C 48.980469 93.535156 49.550781 93.609375 49.675781 93.515625 C 49.957031 93.308594 49.230469 93.15625 49.097656 93.167969 Z M 45.21875 92.910156 C 45.015625 92.847656 44.882812 93.007812 44.988281 93.191406 C 45.101562 93.390625 45.492188 93.550781 45.703125 93.546875 C 45.871094 93.542969 45.566406 93.238281 45.558594 93.234375 C 45.460938 93.128906 45.363281 92.957031 45.21875 92.910156 Z M 51.410156 93.769531 C 51.347656 93.871094 51.410156 93.9375 51.507812 93.980469 C 51.632812 94.03125 52.070312 94 51.996094 93.78125 C 51.945312 93.621094 51.492188 93.636719 51.410156 93.769531 Z M 47.253906 92.890625 C 47.125 92.855469 46.679688 92.625 46.6875 92.914062 C 46.691406 93.160156 47.113281 93.207031 47.28125 93.257812 C 47.464844 93.316406 47.683594 93.472656 47.878906 93.460938 C 48.039062 93.449219 48.222656 93.34375 48.125 93.171875 C 47.972656 92.90625 47.511719 92.957031 47.253906 92.890625 Z M 56.03125 85.496094 C 55.660156 85.414062 55.199219 85.53125 54.8125 85.527344 C 54.371094 85.523438 53.933594 85.507812 53.496094 85.4375 C 53.167969 85.382812 52.820312 85.292969 52.492188 85.40625 C 52.019531 85.566406 52.308594 85.871094 52.660156 85.953125 C 53.203125 86.082031 53.824219 86 54.320312 86.300781 C 54.652344 86.5 54.757812 86.714844 55.183594 86.734375 C 55.882812 86.765625 56.585938 86.722656 57.289062 86.765625 C 57.289062 86.46875 57.171875 86.125 56.972656 85.894531 C 56.734375 85.621094 56.371094 85.566406 56.03125 85.496094 Z M 58.265625 88.320312 C 58.183594 88.316406 57.3125 88.28125 57.519531 88.496094 C 57.578125 88.558594 57.792969 88.554688 57.867188 88.5625 C 58.097656 88.585938 58.234375 88.644531 58.449219 88.726562 C 58.625 88.796875 59.347656 89.054688 59.324219 88.675781 C 59.300781 88.296875 58.535156 88.339844 58.265625 88.320312 Z M 49.558594 87.277344 C 49.402344 87.1875 49.21875 87.066406 49.050781 87.183594 C 48.753906 87.386719 49.125 87.679688 49.328125 87.75 C 49.519531 87.8125 49.703125 87.847656 49.894531 87.921875 C 50.007812 87.96875 50.203125 88.050781 50.320312 87.960938 C 50.644531 87.699219 49.71875 87.367188 49.558594 87.277344 Z M 43.296875 87.796875 C 43.230469 87.785156 42.78125 87.671875 42.757812 87.769531 C 42.597656 88.410156 43.429688 88.105469 43.738281 88.089844 C 43.851562 88.085938 44.261719 88.058594 44.03125 87.832031 C 43.921875 87.726562 43.46875 87.835938 43.296875 87.796875 Z M 54.214844 87.292969 C 53.898438 87.1875 53.550781 87.242188 53.226562 87.195312 C 53.023438 87.164062 52.882812 87.152344 52.6875 87.257812 C 52.621094 87.296875 53.3125 87.660156 53.359375 87.679688 C 53.640625 87.8125 54.253906 87.96875 54.476562 87.648438 C 54.617188 87.441406 54.417969 87.363281 54.214844 87.292969 Z M 46.648438 86.484375 C 47.015625 86.433594 47.355469 86.191406 47.71875 86.097656 C 48.144531 85.992188 48.574219 86.03125 49.003906 86 C 49.191406 85.988281 49.457031 85.988281 49.5 85.769531 C 49.550781 85.539062 49.34375 85.273438 49.1875 85.140625 C 48.902344 84.902344 48.722656 84.992188 48.414062 85.0625 C 48.070312 85.140625 47.78125 85.089844 47.460938 85.285156 C 47.105469 85.496094 46.789062 85.785156 46.53125 86.109375 C 46.359375 86.324219 46.304688 86.53125 46.648438 86.484375 Z M 46.648438 86.484375 " fill-opacity="1" fill-rule="nonzero"/></svg>